<?xml version="1.0" encoding="utf-8"?>
<!-- Generator: Adobe Illustrator 21.0.0, SVG Export Plug-In . SVG Version: 6.00 Build 0)  -->
<svg version="1.1" id="Layer_1" xmlns="http://www.w3.org/2000/svg" xmlns:xlink="http://www.w3.org/1999/xlink" x="0px" y="0px"
	 viewBox="0 0 100 83" style="enable-background:new 0 0 100 83;" xml:space="preserve">
<style type="text/css">
	.st0{fill:url(#SVGID_1_);}
	.st1{fill:url(#SVGID_2_);}
	.st2{fill:url(#SVGID_3_);}
	.st3{fill:url(#SVGID_4_);}
	.st4{fill:url(#SVGID_5_);}
	.st5{fill:url(#SVGID_6_);}
	.st6{fill:url(#SVGID_7_);}
	.st7{fill:url(#SVGID_8_);}
	.st8{fill:#00E8FF;}
	.st9{fill:url(#SVGID_9_);}
	.st10{fill:#0093DE;}
	.st11{display:none;fill:#0093DE;}
	.st12{fill:#FFFFFF;}
	.st13{opacity:0.25;}
	.st14{fill:#00E8FF;stroke:url(#SVGID_10_);stroke-width:1.5919;stroke-miterlimit:10;}
	.st15{fill:#00E8FF;stroke:url(#SVGID_11_);stroke-width:1.5919;stroke-miterlimit:10;}
</style>
<g>
	<linearGradient id="SVGID_1_" gradientUnits="userSpaceOnUse" x1="73.3772" y1="1.6925" x2="73.6916" y2="79.6834">
		<stop  offset="0" style="stop-color:#0093DE"/>
		<stop  offset="5.454510e-02" style="stop-color:#0093DE"/>
		<stop  offset="0.1609" style="stop-color:#00E8FF"/>
		<stop  offset="0.2242" style="stop-color:#00E8FF"/>
		<stop  offset="0.2788" style="stop-color:#00E8FF"/>
		<stop  offset="0.5333" style="stop-color:#00E8FF"/>
		<stop  offset="0.7091" style="stop-color:#0093DE"/>
		<stop  offset="1" style="stop-color:#0093DE"/>
	</linearGradient>
	<path class="st0" d="M85.8,47.5c0.6-0.6,1.1-1.5,1.4-2.4c0.7-1.7,0.8-3.4,0.8-3.4c0,0-0.6,0.1-1.4,0.9c-0.4,0.4-0.8,0.9-1.3,1.7
		c-0.4,0.8-0.9,1.7-1.3,3c0.4-1.8,0.6-3.6,0.7-5.4c0.7-0.2,1.3-0.7,1.8-1.5c0.5-0.7,0.8-1.7,0.9-2.6c0.4-1.8,0.2-3.5,0.2-3.5
		c0,0-0.6,0.2-1.2,1.1c-0.3,0.5-0.6,1.1-0.9,1.9c-0.3,0.8-0.5,1.9-0.7,3.2c0-1.8-0.1-3.6-0.3-5.3c0.7-0.3,1.2-1,1.5-1.8
		c0.3-0.8,0.4-1.8,0.4-2.7c0-1.9-0.5-3.5-0.5-3.5c0,0-0.6,0.3-1,1.4c-0.2,0.5-0.4,1.2-0.5,2c-0.1,0.9-0.2,1.9-0.1,3.3
		c-0.3-1.7-0.7-3.4-1.3-5c0.6-0.4,1-1.2,1.1-2c0.2-0.9,0.1-1.8-0.1-2.7c-0.3-1.8-1.1-3.4-1.1-3.4c0,0-0.5,0.4-0.7,1.5
		C82.1,23,82,23.7,82,24.6c0,0.9,0.2,1.9,0.5,3.2c-0.6-1.6-1.4-3.2-2.2-4.8c0.5-0.5,0.8-1.3,0.8-2.2c0-0.9-0.2-1.8-0.6-2.7
		c-0.7-1.7-1.7-3.1-1.7-3.1c0,0-0.4,0.5-0.4,1.6c0,0.6,0,1.2,0.2,2.1c0.2,0.9,0.5,1.9,1.1,3.1c-1-1.6-2-3.1-3.2-4.5
		c0.4-0.6,0.5-1.4,0.3-2.3c-0.2-0.8-0.6-1.7-1.1-2.5c-1-1.6-2.3-2.7-2.3-2.7c0,0-0.3,0.6-0.1,1.7c0.1,0.5,0.3,1.2,0.6,2
		c0.4,0.8,0.9,1.7,1.6,2.8c-1.2-1.3-2.5-2.5-3.8-3.6c0.3-0.7,0.2-1.5-0.1-2.3c-0.3-0.8-0.9-1.6-1.5-2.3C68.9,6.9,67.4,6,67.4,6
		c0,0-0.2,0.6,0.2,1.7c0.2,0.5,0.5,1.1,1,1.9c0.5,0.7,1.2,1.5,2.1,2.5c-1.4-1-2.8-2-4.3-2.8c0.2-0.7-0.1-1.5-0.5-2.3
		c-0.5-0.7-1.2-1.4-1.9-2c-0.7-0.6-1.5-1-2.1-1.3c-0.6-0.3-1-0.4-1-0.4c0,0-0.1,0.6,0.5,1.6c0.3,0.5,0.7,1,1.3,1.7
		c0.6,0.6,1.5,1.3,2.6,2.1l-0.1,0.1c-1.3-0.4-2.3-0.5-3.2-0.5c-0.8,0-1.5,0.2-1.9,0.5c-0.9,0.5-1.2,1.1-1.2,1.1c0,0,1.4,0.3,2.9,0.5
		c0.8,0.1,1.6,0.1,2.4,0c0.8-0.1,1.5-0.4,2.1-0.9c1.5,0.8,2.9,1.8,4.3,2.8c-1.2-0.6-2.2-1-3-1.1c-0.8-0.1-1.5,0-2,0.1
		c-1,0.3-1.4,0.8-1.4,0.8c0,0,1.3,0.6,2.8,1c0.8,0.2,1.6,0.4,2.4,0.5c0.8,0,1.6-0.1,2.2-0.5c1.4,1.1,2.6,2.3,3.8,3.6
		c-1-0.9-2-1.3-2.8-1.6c-0.8-0.3-1.5-0.3-2-0.3c-1,0.1-1.5,0.5-1.5,0.5c0,0,1.2,0.8,2.6,1.5c0.7,0.4,1.5,0.7,2.3,0.9
		c0.8,0.2,1.6,0.2,2.3-0.1c1.2,1.4,2.2,2.9,3.2,4.4c-0.8-1-1.7-1.7-2.4-2.1c-0.7-0.4-1.4-0.6-1.9-0.6c-1-0.1-1.6,0.2-1.6,0.2
		c0,0,1,1,2.2,2c0.6,0.5,1.3,1,2.1,1.3c0.7,0.3,1.5,0.5,2.2,0.3c0.8,1.5,1.6,3.1,2.2,4.7c-0.6-1.2-1.3-2-2-2.5
		c-0.6-0.5-1.2-0.8-1.7-1c-1-0.3-1.6,0-1.6-0.1c0,0,0.8,1.2,1.8,2.3c0.5,0.6,1.1,1.2,1.8,1.7c0.7,0.5,1.4,0.8,2.1,0.8
		c0.5,1.6,1,3.3,1.3,5c-0.4-1.3-1-2.2-1.5-2.8c-0.5-0.7-1.1-1-1.5-1.3c-0.9-0.5-1.6-0.3-1.6-0.3c0,0,0.6,1.3,1.4,2.6
		c0.4,0.7,0.9,1.4,1.5,2c0.6,0.6,1.2,1,2,1.1c0.2,1.8,0.4,3.5,0.3,5.3c-0.2-1.3-0.5-2.3-0.9-3.1c-0.4-0.7-0.9-1.2-1.3-1.5
		c-0.8-0.6-1.5-0.6-1.5-0.6c0,0,0.3,1.4,0.9,2.9c0.3,0.7,0.6,1.5,1.1,2.2c0.4,0.7,1,1.2,1.7,1.5c-0.1,1.8-0.3,3.6-0.7,5.4
		c0.1-1.3-0.1-2.4-0.3-3.2c-0.3-0.8-0.6-1.4-1-1.8c-0.7-0.8-1.3-0.9-1.3-0.9c0,0,0.1,1.4,0.3,3c0.1,0.8,0.3,1.6,0.6,2.4
		c0.3,0.7,0.7,1.4,1.4,1.8c-0.4,1.7-0.9,3.3-1.6,4.9c0.3-1.3,0.3-2.4,0.2-3.2c-0.1-0.8-0.4-1.4-0.6-1.9c-0.5-0.9-1.2-1.1-1.2-1.1
		c0,0-0.2,1.4-0.2,3c0,0.8,0,1.7,0.2,2.4c0.2,0.8,0.5,1.5,1.1,2c-0.7,1.6-1.6,3.2-2.5,4.7c0.6-1.2,0.8-2.2,0.8-3.1
		c0-0.8-0.1-1.5-0.3-2c-0.4-1-0.9-1.3-0.9-1.3c0,0-0.5,1.3-0.8,2.9c-0.2,0.8-0.3,1.6-0.3,2.4c0,0.8,0.2,1.6,0.7,2.2
		c-1,1.5-2.2,2.9-3.4,4.2c0.8-1.1,1.2-2.1,1.4-2.9c0.2-0.8,0.2-1.5,0.1-2c-0.2-1-0.7-1.5-0.7-1.5c0,0-0.7,1.2-1.3,2.7
		c-0.3,0.7-0.6,1.5-0.7,2.3c-0.1,0.8-0.1,1.6,0.3,2.2c-1.2,1.2-2.5,2.3-3.9,3.3c1-0.9,1.5-1.8,1.9-2.6c0.4-0.8,0.5-1.4,0.5-1.9
		c0-1-0.4-1.6-0.4-1.6c0,0-0.9,1.1-1.8,2.4c-0.4,0.7-0.9,1.4-1.1,2.2c-0.3,0.8-0.4,1.5-0.2,2.3c-1.5,1-3,1.9-4.6,2.6
		c1.1-0.7,1.9-1.5,2.3-2.2c0.5-0.7,0.7-1.3,0.8-1.8c0.2-1-0.1-1.6-0.1-1.6c0,0-1.1,0.9-2.2,2c-0.5,0.6-1.1,1.2-1.5,1.9
		c-0.4,0.7-0.7,1.4-0.6,2.2l0.1,0.1c0.5,0.6,1.2,0.9,2.1,1c0.9,0.1,1.8-0.1,2.7-0.3c1.8-0.5,3.3-1.4,3.3-1.4c0,0-0.5-0.4-1.6-0.6
		c-0.5-0.1-1.2-0.1-2.1,0c-0.9,0.1-1.9,0.4-3.2,0.8c1.6-0.8,3.2-1.6,4.6-2.6c0.6,0.5,1.4,0.6,2.2,0.6c0.9-0.1,1.8-0.4,2.6-0.8
		c1.7-0.8,2.9-2,2.9-2c0,0-0.6-0.3-1.7-0.3c-0.6,0-1.2,0.1-2.1,0.4c-0.8,0.3-1.8,0.7-3,1.3c1.4-1,2.7-2.1,3.9-3.3
		c0.7,0.4,1.5,0.4,2.3,0.2c0.8-0.2,1.7-0.7,2.4-1.2c1.5-1.1,2.5-2.5,2.5-2.5c0,0-0.6-0.2-1.7,0c-0.5,0.1-1.2,0.4-2,0.8
		c-0.8,0.4-1.7,1-2.7,1.9c1.3-1.3,2.4-2.7,3.5-4.2c0.7,0.2,1.5,0.1,2.3-0.3c0.8-0.4,1.5-1,2.2-1.7c1.3-1.4,2-2.9,2-2.9
		c0,0-0.6-0.1-1.7,0.3c-0.5,0.2-1.1,0.6-1.8,1.1c-0.7,0.6-1.4,1.3-2.3,2.3c1-1.5,1.8-3.1,2.5-4.7c0.8,0.1,1.5-0.2,2.2-0.7
		c0.7-0.5,1.3-1.3,1.8-2.1c0.5-0.8,0.9-1.6,1.1-2.2c0.2-0.6,0.3-1,0.3-1c0,0-0.7,0-1.6,0.6c-0.5,0.3-1,0.8-1.5,1.4
		c-0.6,0.7-1.2,1.6-1.8,2.7c0.6-1.6,1.2-3.2,1.6-4.9C84.6,48.6,85.3,48.2,85.8,47.5z"/>
	<linearGradient id="SVGID_2_" gradientUnits="userSpaceOnUse" x1="40.0608" y1="1.8262" x2="40.3753" y2="79.8246">
		<stop  offset="0" style="stop-color:#0093DE"/>
		<stop  offset="5.454510e-02" style="stop-color:#0093DE"/>
		<stop  offset="0.1609" style="stop-color:#00E8FF"/>
		<stop  offset="0.2242" style="stop-color:#00E8FF"/>
		<stop  offset="0.2788" style="stop-color:#00E8FF"/>
		<stop  offset="0.5333" style="stop-color:#00E8FF"/>
		<stop  offset="0.7091" style="stop-color:#0093DE"/>
		<stop  offset="1" style="stop-color:#0093DE"/>
	</linearGradient>
	<polygon class="st1" points="42.1,5.3 40.7,5 40.1,3.8 39.4,5 38,5.2 39,6.2 38.8,7.6 40,7 41.3,7.7 41.1,6.2 	"/>
	<linearGradient id="SVGID_3_" gradientUnits="userSpaceOnUse" x1="58.3461" y1="1.7524" x2="58.6606" y2="79.7508">
		<stop  offset="0" style="stop-color:#0093DE"/>
		<stop  offset="5.454510e-02" style="stop-color:#0093DE"/>
		<stop  offset="0.1609" style="stop-color:#00E8FF"/>
		<stop  offset="0.2242" style="stop-color:#00E8FF"/>
		<stop  offset="0.2788" style="stop-color:#00E8FF"/>
		<stop  offset="0.5333" style="stop-color:#00E8FF"/>
		<stop  offset="0.7091" style="stop-color:#0093DE"/>
		<stop  offset="1" style="stop-color:#0093DE"/>
	</linearGradient>
	<polygon class="st2" points="60.4,5.3 59,5 58.4,3.8 57.7,5 56.3,5.2 57.3,6.2 57.1,7.6 58.3,7 59.6,7.7 59.4,6.2 	"/>
	<linearGradient id="SVGID_4_" gradientUnits="userSpaceOnUse" x1="49.531" y1="1.7888" x2="49.8454" y2="79.7782">
		<stop  offset="0" style="stop-color:#0093DE"/>
		<stop  offset="5.454510e-02" style="stop-color:#0093DE"/>
		<stop  offset="0.1609" style="stop-color:#00E8FF"/>
		<stop  offset="0.2242" style="stop-color:#00E8FF"/>
		<stop  offset="0.2788" style="stop-color:#00E8FF"/>
		<stop  offset="0.5333" style="stop-color:#00E8FF"/>
		<stop  offset="0.7091" style="stop-color:#0093DE"/>
		<stop  offset="1" style="stop-color:#0093DE"/>
	</linearGradient>
	<polygon class="st3" points="51.6,3.2 50.2,2.9 49.6,1.6 48.9,2.9 47.5,3.1 48.5,4.1 48.2,5.5 49.5,4.9 50.8,5.5 50.5,4.1 	"/>
	<g>
		<linearGradient id="SVGID_5_" gradientUnits="userSpaceOnUse" x1="31.7014" y1="8.5913" x2="31.7014" y2="8.5941">
			<stop  offset="0" style="stop-color:#0093DE"/>
			<stop  offset="5.454510e-02" style="stop-color:#0093DE"/>
			<stop  offset="0.1609" style="stop-color:#00E8FF"/>
			<stop  offset="0.2242" style="stop-color:#00E8FF"/>
			<stop  offset="0.2788" style="stop-color:#00E8FF"/>
			<stop  offset="0.5333" style="stop-color:#00E8FF"/>
			<stop  offset="0.7091" style="stop-color:#0093DE"/>
			<stop  offset="1" style="stop-color:#0093DE"/>
		</linearGradient>
		<path class="st4" d="M31.7,8.6L31.7,8.6C31.7,8.6,31.7,8.6,31.7,8.6z"/>
		<linearGradient id="SVGID_6_" gradientUnits="userSpaceOnUse" x1="31.7648" y1="8.7192" x2="31.7648" y2="8.7214">
			<stop  offset="0" style="stop-color:#0093DE"/>
			<stop  offset="5.454510e-02" style="stop-color:#0093DE"/>
			<stop  offset="0.1609" style="stop-color:#00E8FF"/>
			<stop  offset="0.2242" style="stop-color:#00E8FF"/>
			<stop  offset="0.2788" style="stop-color:#00E8FF"/>
			<stop  offset="0.5333" style="stop-color:#00E8FF"/>
			<stop  offset="0.7091" style="stop-color:#0093DE"/>
			<stop  offset="1" style="stop-color:#0093DE"/>
		</linearGradient>
		<path class="st5" d="M31.8,8.7C31.8,8.7,31.8,8.7,31.8,8.7C31.8,8.7,31.8,8.7,31.8,8.7z"/>
		<linearGradient id="SVGID_7_" gradientUnits="userSpaceOnUse" x1="18.4599" y1="1.914" x2="18.7743" y2="79.9046">
			<stop  offset="0" style="stop-color:#0093DE"/>
			<stop  offset="5.454510e-02" style="stop-color:#0093DE"/>
			<stop  offset="0.1609" style="stop-color:#00E8FF"/>
			<stop  offset="0.2242" style="stop-color:#00E8FF"/>
			<stop  offset="0.2788" style="stop-color:#00E8FF"/>
			<stop  offset="0.5333" style="stop-color:#00E8FF"/>
			<stop  offset="0.7091" style="stop-color:#0093DE"/>
			<stop  offset="1" style="stop-color:#0093DE"/>
		</linearGradient>
		<path class="st6" d="M17.2,62.1c-1.1-0.2-1.7,0-1.7,0c0,0,1,1.4,2.5,2.5c0.1,0.1,0.2,0.1,0.3,0.2c0,0,0.1,0,0.1,0c1-0.1,1.9,0,3,0
			c0,0,0,0,0.1,0c0,0,0.1-0.1,0.3-0.1c-1-0.8-1.9-1.4-2.7-1.8C18.4,62.5,17.8,62.3,17.2,62.1z"/>
		<linearGradient id="SVGID_8_" gradientUnits="userSpaceOnUse" x1="23.3744" y1="1.8942" x2="23.6888" y2="79.8848">
			<stop  offset="0" style="stop-color:#0093DE"/>
			<stop  offset="5.454510e-02" style="stop-color:#0093DE"/>
			<stop  offset="0.1609" style="stop-color:#00E8FF"/>
			<stop  offset="0.2242" style="stop-color:#00E8FF"/>
			<stop  offset="0.2788" style="stop-color:#00E8FF"/>
			<stop  offset="0.5333" style="stop-color:#00E8FF"/>
			<stop  offset="0.7091" style="stop-color:#0093DE"/>
			<stop  offset="1" style="stop-color:#0093DE"/>
		</linearGradient>
		<path class="st7" d="M36.9,8.7c-0.5-0.2-1.1-0.4-1.9-0.5c-0.8,0-1.7,0.1-2.8,0.4c-0.1,0-0.3,0.1-0.4,0.1c0,0,0,0,0,0l-0.1-0.1
			c0,0,0,0,0,0c1.1-0.8,1.9-1.4,2.6-2.1c0.6-0.6,1-1.2,1.3-1.7c0.5-1,0.5-1.6,0.5-1.6c0,0-0.4,0.1-1,0.4C34.5,4,33.7,4.4,33,5
			c-0.7,0.6-1.4,1.2-1.9,2c-0.5,0.7-0.7,1.5-0.5,2.3C29,10,27.6,11,26.2,12c0.9-0.9,1.6-1.8,2.1-2.5c0.5-0.7,0.8-1.3,1-1.9
			c0.4-1,0.2-1.7,0.2-1.7c0,0-1.5,0.9-2.7,2.3c-0.6,0.7-1.2,1.5-1.5,2.3c-0.3,0.8-0.4,1.6-0.1,2.3c-1.4,1.1-2.7,2.3-3.8,3.6
			c0.8-1.1,1.3-2,1.6-2.8c0.4-0.8,0.5-1.5,0.6-2c0.2-1.1-0.1-1.7-0.1-1.7c0,0-1.3,1.1-2.3,2.7c-0.5,0.8-0.9,1.7-1.1,2.5
			c-0.2,0.8-0.1,1.7,0.3,2.3c-1.2,1.4-2.3,2.9-3.2,4.5c0.5-1.2,0.9-2.2,1.1-3.1c0.2-0.9,0.3-1.6,0.2-2.1c0-1.1-0.4-1.6-0.4-1.6
			c0,0-1.1,1.4-1.7,3.1c-0.3,0.9-0.6,1.8-0.6,2.7c0,0.9,0.2,1.6,0.8,2.2c-0.9,1.5-1.6,3.1-2.2,4.8c0.3-1.3,0.4-2.4,0.5-3.2
			c0-0.9,0-1.6-0.2-2.1c-0.2-1.1-0.7-1.5-0.7-1.5c0,0-0.8,1.5-1.1,3.4c-0.2,0.9-0.2,1.9-0.1,2.7c0.2,0.9,0.5,1.6,1.1,2
			c-0.5,1.6-1,3.3-1.3,5c0.1-1.3,0-2.4-0.1-3.3c-0.1-0.9-0.3-1.5-0.5-2c-0.4-1-1-1.4-1-1.4c0,0-0.5,1.6-0.5,3.5
			c0,0.9,0.1,1.9,0.4,2.7c0.3,0.8,0.8,1.5,1.5,1.8c-0.2,1.8-0.4,3.5-0.3,5.3c-0.2-1.3-0.4-2.4-0.7-3.2c-0.3-0.8-0.6-1.5-0.9-1.9
			c-0.6-0.9-1.2-1.2-1.2-1.1c0,0-0.2,1.7,0.2,3.5c0.2,0.9,0.5,1.8,0.9,2.6c0.5,0.7,1,1.3,1.8,1.5c0.1,1.8,0.3,3.6,0.7,5.4
			c-0.4-1.3-0.9-2.2-1.3-3c-0.4-0.8-0.9-1.3-1.3-1.7c-0.8-0.8-1.4-0.9-1.4-0.9c0,0,0.1,1.7,0.8,3.4c0.3,0.9,0.8,1.7,1.4,2.4
			c0.6,0.6,1.3,1.1,2,1.1c0.4,1.7,0.9,3.3,1.6,4.9c-0.7-1.2-1.3-2-1.8-2.7c-0.6-0.7-1.1-1.1-1.5-1.4c-0.9-0.6-1.6-0.6-1.6-0.6
			c0,0,0.1,0.4,0.3,1c0.2,0.6,0.6,1.4,1.1,2.2c0.5,0.8,1.1,1.5,1.8,2.1c0.7,0.5,1.4,0.8,2.2,0.7c0.7,1.6,1.6,3.2,2.5,4.7
			c-0.9-1-1.6-1.8-2.3-2.3c-0.7-0.6-1.3-0.9-1.8-1.1c-1-0.4-1.7-0.3-1.7-0.3c0,0,0.8,1.5,2,2.9c0.6,0.7,1.4,1.3,2.2,1.7
			c0.8,0.4,1.6,0.5,2.3,0.3c1,1.5,2.2,2.9,3.4,4.2c0,0,0,0,0.1,0c0.4-0.1,0.9-0.2,1.3-0.2c0-0.4,0-0.7-0.1-1.1
			c-0.1-0.8-0.4-1.6-0.7-2.3c-0.6-1.5-1.3-2.7-1.3-2.7c0,0-0.5,0.4-0.7,1.5c-0.1,0.5-0.1,1.2,0.1,2c0.2,0.8,0.6,1.8,1.4,2.9
			c-1.3-1.3-2.4-2.7-3.4-4.2c0.5-0.6,0.7-1.4,0.7-2.2c0-0.8-0.1-1.7-0.3-2.4c-0.3-1.6-0.8-2.9-0.8-2.9c0,0-0.6,0.3-0.9,1.3
			c-0.2,0.5-0.3,1.1-0.3,2c0,0.8,0.3,1.9,0.8,3.1c-1-1.5-1.8-3.1-2.5-4.7c0.6-0.5,0.9-1.2,1.1-2c0.2-0.8,0.2-1.6,0.2-2.4
			c0-1.6-0.2-3-0.2-3c0,0-0.6,0.2-1.2,1.1c-0.3,0.4-0.5,1.1-0.6,1.9c-0.1,0.8-0.1,1.9,0.2,3.2c-0.6-1.6-1.2-3.2-1.6-4.9
			c0.7-0.4,1.1-1,1.4-1.8c0.3-0.7,0.5-1.6,0.6-2.4c0.3-1.6,0.3-3,0.3-3c0,0-0.6,0.1-1.3,0.9c-0.3,0.4-0.7,0.9-1,1.8
			C13.1,45,12.9,46,13,47.3c-0.4-1.8-0.6-3.6-0.7-5.4c0.7-0.2,1.3-0.8,1.7-1.5c0.4-0.7,0.8-1.5,1.1-2.2c0.6-1.5,0.9-2.8,0.9-2.9
			c0,0-0.7,0-1.5,0.6c-0.4,0.3-0.9,0.8-1.3,1.5c-0.4,0.7-0.8,1.7-0.9,3.1c0-1.8,0.1-3.6,0.3-5.3c0.8-0.1,1.4-0.6,2-1.1
			c0.6-0.6,1-1.3,1.5-2c0.8-1.4,1.4-2.6,1.4-2.6c0,0-0.6-0.1-1.6,0.3c-0.5,0.2-1,0.6-1.5,1.3c-0.5,0.6-1.1,1.6-1.5,2.8
			c0.3-1.7,0.7-3.3,1.3-5c0.8,0,1.5-0.3,2.1-0.8c0.7-0.5,1.3-1.1,1.8-1.7c1.1-1.2,1.8-2.3,1.8-2.3c0,0-0.6-0.2-1.6,0.1
			c-0.5,0.1-1.1,0.4-1.7,1c-0.6,0.5-1.3,1.3-2,2.5c0.6-1.6,1.3-3.2,2.2-4.7c0.7,0.2,1.5,0,2.2-0.3c0.7-0.3,1.4-0.8,2.1-1.3
			c1.3-1,2.2-2,2.2-2c0,0-0.6-0.3-1.6-0.2c-0.5,0.1-1.2,0.2-1.9,0.6c-0.7,0.4-1.6,1.1-2.4,2.1c0.9-1.6,2-3.1,3.2-4.4
			c0.7,0.3,1.5,0.3,2.3,0.1c0.8-0.2,1.6-0.5,2.3-0.9c1.4-0.7,2.6-1.5,2.6-1.5c0,0-0.5-0.4-1.5-0.5c-0.5,0-1.2,0-2,0.3
			c-0.8,0.3-1.7,0.8-2.8,1.6c1.2-1.3,2.5-2.5,3.8-3.6c0.6,0.4,1.4,0.5,2.2,0.5c0.8,0,1.6-0.2,2.4-0.5c1.5-0.4,2.8-1,2.8-1
			c0,0-0.4-0.5-1.4-0.8c-0.5-0.1-1.2-0.2-2-0.1c-0.8,0.1-1.8,0.4-3,1.1c1.4-1,2.8-2,4.3-2.8c0.5,0.5,1.3,0.8,2.1,0.9
			c0.8,0.1,1.7,0.1,2.4,0c1.6-0.2,2.9-0.5,2.9-0.5C38.1,9.7,37.8,9.1,36.9,8.7z"/>
	</g>
</g>
<circle class="st8" cx="49" cy="40.3" r="29.1"/>
<path class="st8" d="M48.5,68.1c-3.8,0-7.4-0.7-10.8-2.2c-3.3-1.4-6.3-3.4-8.9-6c-2.6-2.6-4.6-5.5-6-8.9c-1.5-3.4-2.2-7.1-2.2-10.8
	c0-3.8,0.7-7.4,2.2-10.8c1.4-3.3,3.4-6.3,6-8.9c2.6-2.6,5.5-4.6,8.9-6c3.4-1.5,7.1-2.2,10.8-2.2c3.8,0,7.4,0.7,10.8,2.2
	c3.3,1.4,6.3,3.4,8.9,6c2.6,2.6,4.6,5.5,6,8.9c1.5,3.4,2.2,7.1,2.2,10.8c0,3.8-0.7,7.4-2.2,10.8c-1.4,3.3-3.4,6.3-6,8.9
	c-2.6,2.6-5.5,4.6-8.9,6C55.9,67.4,52.3,68.1,48.5,68.1z"/>
<linearGradient id="SVGID_9_" gradientUnits="userSpaceOnUse" x1="79.0512" y1="62.7088" x2="20.5316" y2="18.9781">
	<stop  offset="0" style="stop-color:#00184A"/>
	<stop  offset="1" style="stop-color:#004787"/>
</linearGradient>
<path class="st9" d="M49,67.7c-3.7,0-7.3-0.7-10.7-2.2c-3.3-1.4-6.2-3.4-8.7-5.9c-2.5-2.5-4.5-5.5-5.9-8.7c-1.4-3.4-2.2-7-2.2-10.7
	s0.7-7.3,2.2-10.7c1.4-3.3,3.4-6.2,5.9-8.7c2.5-2.5,5.5-4.5,8.7-5.9c3.4-1.4,7-2.2,10.7-2.2c3.7,0,7.3,0.7,10.7,2.2
	c3.3,1.4,6.2,3.4,8.7,5.9c2.5,2.5,4.5,5.5,5.9,8.7c1.4,3.4,2.2,7,2.2,10.7c0,3.7-0.7,7.3-2.2,10.7c-1.4,3.3-3.4,6.2-5.9,8.7
	c-2.5,2.5-5.5,4.5-8.7,5.9C56.3,67,52.7,67.7,49,67.7z"/>
<g>
	<g>
		<path class="st10" d="M22.3,68.1l-0.2,0.3v1.9l1.4-1.9l0.2-0.3H22.3z M24.8,70.1l-2.3,3.1l2.3,3.1l0.2,0.3l2.1,2.8V67L24.8,70.1z
			 M27,66.5h-4.9v1.3l0,0h2.4l-0.7,1L22.1,71v1.7l0.2,0.2l2.3-3.1L27,66.5z M24.6,76.6L24.6,76.6l-2.3-3.1l-0.2-0.2v2.2l2.4,3.2
			h-2.4l0,0v1.3H27L24.6,76.6z M22.1,76.1V78l0.2,0.3h1.4L22.1,76.1z"/>
		<polygon class="st10" points="37.1,66.5 37.1,66.5 36.8,66.9 36.8,66.9 32.1,73.1 32.1,66.9 32.5,66.5 		"/>
		<polygon class="st10" points="32.3,73.5 37.1,67 37.1,79.9 32.3,79.9 		"/>
		<rect x="32.5" y="66.5" class="st11" width="4.6" height="13.4"/>
		<polygon class="st10" points="23.3,68.1 23.7,68.1 23.5,68.4 		"/>
		<polygon class="st10" points="27,66.5 24.6,69.8 23.8,68.7 24.5,67.8 23.1,67.8 22.1,66.5 22.1,66.5 		"/>
		<polygon class="st10" points="29.8,70.1 27.3,73.4 27.1,73.1 24.8,70.1 27.1,67 27.3,66.7 		"/>
		<polygon class="st10" points="32.1,73.2 29.6,76.5 29.6,76.5 27.3,73.4 29.8,70.1 32.1,73.2 		"/>
		<polygon class="st10" points="37.1,66.5 36.8,66.9 36.8,66.9 32.1,73.1 32.1,73.2 29.6,76.5 29.6,76.5 27.3,73.4 29.8,70.1 
			32.1,66.9 32.5,66.5 		"/>
	</g>
	<g>
		<path class="st8" d="M19.2,74.8l-0.8,1.1l0,0l0.8,1.1l0.8-1.1L19.2,74.8z M18,73.2l-0.8-1.1l0,0L17,71.8l-3-4h2.4l1.8,2.4l0.8-1.1
			l-2-2.7h-5.6l4.8,6.4l0.2,0.3l1,1.4l0.7,1l0.8-1.1l-0.7-1L18,73.2z M19.2,69.5l-0.8,1.1l0.8,1.1l0.8-1.1l0,0L19.2,69.5z
			 M22.3,73.5L22,73.2l-1-1.4l-0.7-1l-0.8,1.1l0.7,1l0.2,0.3l0.8,1.1l0,0l0.2,0.3l3,4.1h-2.4l-1.8-2.4l-0.8,1.1l2,2.7h5.6L22.3,73.5
			z"/>
		<g>
			<polygon class="st8" points="19,71.9 18.3,72.9 17.5,71.8 14.7,68.1 16.2,68.1 18.2,70.9 			"/>
		</g>
		<g>
			<polygon class="st8" points="19.9,73.2 19.2,74.2 18.5,73.2 19.2,72.3 			"/>
		</g>
		<g>
			<polygon class="st8" points="23.7,78.3 22.3,78.3 20.3,75.6 19.5,74.5 20.2,73.5 21,74.6 			"/>
		</g>
		<g>
			<polygon class="st8" points="23.7,68.1 21,71.8 20.2,72.9 19.9,73.2 19.2,74.2 19,74.5 18.2,75.6 16.2,78.3 14.7,78.3 17.5,74.6 
				18.3,73.5 18.5,73.2 19.2,72.3 19.5,71.9 20.3,70.9 22.3,68.1 			"/>
		</g>
		<path class="st8" d="M17.2,72.1L17.2,72.1l-0.8,1.1l0.8,1.1l0.8-1.1L17.2,72.1z M21.5,66.5l-2,2.7l-0.2,0.3l-1,1.4l-0.7,1l0.8,1.1
			l0.7-1l0.2-0.3l0.8-1.1l0,0l0.2-0.3l1.8-2.4h2.4l-3,4.1l0.8,1.1l4.8-6.4H21.5z M21.2,72.1l-0.8,1.1l0.8,1.1l0,0l0.8-1.1L21.2,72.1
			z M19.5,74.5l-0.2,0.3l-0.8,1.1l0,0l-0.2,0.3l-1.8,2.4H14l3-4.1l-0.8-1.1l-4.8,6.4H17l2-2.7l0.2-0.3l1-1.4l0.7-1l-0.8-1.1
			L19.5,74.5z"/>
	</g>
	<g>
		<path class="st12" d="M39.3,72.6l1.3-0.2V74h2v1.1h-2v2.2c0,0.4,0.1,0.8,0.2,0.9c0.1,0.2,0.4,0.3,0.7,0.3c0.2,0,0.4,0,0.6-0.1
			c0.2,0,0.3-0.1,0.4-0.1l0.2,1c-0.1,0.1-0.3,0.1-0.6,0.2s-0.5,0.1-0.8,0.1c-0.4,0-0.7-0.1-1-0.2c-0.3-0.1-0.5-0.3-0.6-0.5
			c-0.2-0.2-0.3-0.4-0.3-0.7c-0.1-0.3-0.1-0.6-0.1-1L39.3,72.6L39.3,72.6z"/>
		<path class="st12" d="M46.6,75.2c-0.1,0-0.3-0.1-0.4-0.1C46,75,45.8,75,45.5,75c-0.1,0-0.3,0-0.4,0s-0.3,0.1-0.3,0.1v4.4h-1.3
			v-5.3c0.2-0.1,0.6-0.2,0.9-0.3c0.4-0.1,0.8-0.1,1.2-0.1c0.1,0,0.2,0,0.3,0c0.1,0,0.2,0,0.3,0c0.1,0,0.2,0,0.3,0.1
			c0.1,0,0.2,0,0.3,0.1L46.6,75.2z"/>
		<path class="st12" d="M49.3,73.9c0.4,0,0.8,0.1,1.1,0.2c0.3,0.1,0.5,0.3,0.7,0.4c0.2,0.2,0.3,0.4,0.4,0.7c0.1,0.3,0.1,0.6,0.1,0.9
			v3.3c-0.2,0-0.5,0.1-0.9,0.2c-0.4,0.1-0.8,0.1-1.3,0.1c-0.3,0-0.6,0-0.9-0.1s-0.5-0.2-0.7-0.3s-0.3-0.3-0.5-0.5
			c-0.1-0.2-0.2-0.5-0.2-0.8c0-0.3,0.1-0.6,0.2-0.8c0.1-0.2,0.3-0.4,0.5-0.5c0.2-0.1,0.5-0.2,0.7-0.3c0.3-0.1,0.6-0.1,0.9-0.1
			c0.1,0,0.3,0,0.4,0c0.2,0,0.3,0,0.5,0.1v-0.2c0-0.1,0-0.3-0.1-0.4c0-0.1-0.1-0.3-0.2-0.4c-0.1-0.1-0.2-0.2-0.4-0.2
			S49.4,75,49.2,75c-0.3,0-0.6,0-0.8,0.1c-0.2,0-0.4,0.1-0.6,0.1l-0.2-1c0.2-0.1,0.4-0.1,0.7-0.2C48.6,73.9,48.9,73.9,49.3,73.9z
			 M49.4,78.7c0.4,0,0.7,0,0.9-0.1v-1.4c-0.1,0-0.2,0-0.3-0.1c-0.1,0-0.3,0-0.4,0c-0.1,0-0.3,0-0.4,0c-0.1,0-0.3,0.1-0.4,0.1
			c-0.1,0.1-0.2,0.1-0.3,0.2c-0.1,0.1-0.1,0.2-0.1,0.4c0,0.3,0.1,0.5,0.3,0.6C48.8,78.6,49.1,78.7,49.4,78.7z"/>
		<path class="st12" d="M57.5,79.4c-0.3,0.1-0.6,0.1-1,0.2c-0.4,0.1-0.8,0.1-1.2,0.1c-0.4,0-0.8-0.1-1.2-0.2
			c-0.3-0.1-0.6-0.3-0.9-0.6c-0.2-0.3-0.4-0.5-0.6-0.9c-0.1-0.4-0.2-0.8-0.2-1.2c0-0.4,0.1-0.8,0.2-1.2c0.1-0.4,0.3-0.7,0.5-0.9
			c0.2-0.3,0.5-0.4,0.8-0.6c0.3-0.1,0.6-0.2,1-0.2c0.3,0,0.5,0,0.7,0.1c0.2,0.1,0.4,0.1,0.5,0.2v-2.6l1.3-0.2L57.5,79.4L57.5,79.4z
			 M53.8,76.8c0,0.6,0.1,1,0.4,1.3s0.6,0.5,1.1,0.5c0.2,0,0.4,0,0.5,0c0.1,0,0.3,0,0.4-0.1v-3.2c-0.1-0.1-0.3-0.2-0.4-0.2
			C55.6,75,55.4,75,55.2,75c-0.5,0-0.8,0.2-1,0.5C53.9,75.8,53.8,76.2,53.8,76.8z"/>
		<path class="st12" d="M58.5,76.8c0-0.5,0.1-0.9,0.2-1.3c0.1-0.4,0.3-0.7,0.6-0.9c0.2-0.2,0.5-0.4,0.8-0.5c0.3-0.1,0.6-0.2,0.9-0.2
			c0.8,0,1.3,0.2,1.8,0.7c0.4,0.5,0.6,1.2,0.6,2.1c0,0.1,0,0.2,0,0.2c0,0.1,0,0.2,0,0.2h-3.6c0,0.4,0.2,0.8,0.5,1
			c0.3,0.2,0.7,0.4,1.2,0.4c0.3,0,0.6,0,0.8-0.1c0.3-0.1,0.5-0.1,0.6-0.2l0.2,1c-0.1,0-0.2,0.1-0.3,0.1s-0.3,0.1-0.4,0.1
			c-0.2,0-0.3,0.1-0.5,0.1c-0.2,0-0.4,0-0.6,0c-0.5,0-0.9-0.1-1.3-0.2s-0.7-0.3-0.9-0.6c-0.2-0.3-0.4-0.6-0.5-0.9
			C58.6,77.6,58.5,77.2,58.5,76.8z M62.2,76.2c0-0.2,0-0.3-0.1-0.5c0-0.2-0.1-0.3-0.2-0.4c-0.1-0.1-0.2-0.2-0.4-0.3
			C61.5,75,61.3,75,61.1,75c-0.2,0-0.4,0-0.5,0.1c-0.1,0.1-0.3,0.2-0.4,0.3c-0.1,0.1-0.2,0.3-0.2,0.4s-0.1,0.3-0.1,0.5H62.2z"/>
	</g>
</g>
<g class="st13">
	<linearGradient id="SVGID_10_" gradientUnits="userSpaceOnUse" x1="37.2714" y1="41.051" x2="63.4581" y2="41.051">
		<stop  offset="0" style="stop-color:#00E8FF"/>
		<stop  offset="1" style="stop-color:#0093DE"/>
	</linearGradient>
	<path class="st14" d="M55.6,32.9c-0.2-1.2-0.7-2.2-1.6-3s-1.8-1.2-2.9-1.2c-1.5,0-2.8,0.6-3.8,1.9s-1.7,2.6-2,4
		c-0.4,1.4-0.6,2.9-0.6,4.3l0.1,0.1c1.7-2.5,4.2-3.7,7.6-3.7c1.4,0,2.8,0.3,4.2,0.9c1.4,0.6,2.5,1.5,3.5,2.5c1.7,2,2.6,4.5,2.6,7.5
		c0,3.5-1.1,6.4-3.3,8.7c-2.2,2.3-5,3.5-8.5,3.5c-1.9,0-3.7-0.3-5.2-1S43,55.9,42,54.8c-0.9-1.1-1.7-2.4-2.3-3.9
		c-0.6-1.5-1-3.1-1.3-4.7s-0.4-3.3-0.4-5.1c0-2.2,0.2-4.3,0.7-6.2c0.5-2,1.2-3.9,2.2-5.6s2.4-3.1,4.1-4.1c1.8-1,3.8-1.6,6-1.6
		c2.9,0,5.4,0.8,7.3,2.4c2,1.6,3.1,3.9,3.5,6.8H55.6z M50.7,40.5c-1.7,0-3.1,0.6-4,1.8c-0.9,1.2-1.4,2.7-1.4,4.4
		c0,1.7,0.5,3.1,1.5,4.4c1,1.2,2.3,1.9,3.9,1.9c1.6,0,2.8-0.6,3.7-1.8c0.9-1.2,1.4-2.7,1.4-4.3c0-1.7-0.4-3.2-1.3-4.5
		C53.7,41.1,52.4,40.5,50.7,40.5z"/>
</g>
<g>
	<linearGradient id="SVGID_11_" gradientUnits="userSpaceOnUse" x1="35.2714" y1="40.051" x2="61.4581" y2="40.051">
		<stop  offset="0" style="stop-color:#00E8FF"/>
		<stop  offset="1" style="stop-color:#0093DE"/>
	</linearGradient>
	<path class="st15" d="M53.6,31.9c-0.2-1.2-0.7-2.2-1.6-3s-1.8-1.2-2.9-1.2c-1.5,0-2.8,0.6-3.8,1.9s-1.7,2.6-2,4
		c-0.4,1.4-0.6,2.9-0.6,4.3l0.1,0.1c1.7-2.5,4.2-3.7,7.6-3.7c1.4,0,2.8,0.3,4.2,0.9c1.4,0.6,2.5,1.5,3.5,2.5c1.7,2,2.6,4.5,2.6,7.5
		c0,3.5-1.1,6.4-3.3,8.7c-2.2,2.3-5,3.5-8.5,3.5c-1.9,0-3.7-0.3-5.2-1S41,54.9,40,53.8c-0.9-1.1-1.7-2.4-2.3-3.9
		c-0.6-1.5-1-3.1-1.3-4.7s-0.4-3.3-0.4-5.1c0-2.2,0.2-4.3,0.7-6.2c0.5-2,1.2-3.9,2.2-5.6s2.4-3.1,4.1-4.1c1.8-1,3.8-1.6,6-1.6
		c2.9,0,5.4,0.8,7.3,2.4c2,1.6,3.1,3.9,3.5,6.8H53.6z M48.7,39.5c-1.7,0-3.1,0.6-4,1.8c-0.9,1.2-1.4,2.7-1.4,4.4
		c0,1.7,0.5,3.1,1.5,4.4c1,1.2,2.3,1.9,3.9,1.9c1.6,0,2.8-0.6,3.7-1.8c0.9-1.2,1.4-2.7,1.4-4.3c0-1.7-0.4-3.2-1.3-4.5
		C51.7,40.1,50.4,39.5,48.7,39.5z"/>
</g>
</svg>
