<svg width="30" height="30" viewBox="0 0 30 30" fill="none" xmlns="http://www.w3.org/2000/svg">
<g clip-path="url(#clip0)">
<path d="M25.3125 21.9844C25.3125 27.6562 20.7188 27.6562 15 27.6562C9.28125 27.6562 4.6875 27.6562 4.6875 21.9844C4.6875 16.3125 9.32812 7.03125 15 7.03125C20.6719 7.03125 25.3125 16.2656 25.3125 21.9844Z" fill="#DBB471"/>
<path opacity="0.5" d="M25.3125 21.9844C25.3125 20.0625 24.7969 17.7188 23.8594 15.4688C24.0469 16.9219 23.6719 19.5 19.2187 20.4844C12.8906 21.8438 16.1719 23.625 13.6875 23.8594C11.5781 24.0469 5.95313 23.2031 4.82813 20.0156C4.73438 20.7188 4.64062 21.375 4.64062 22.0312C4.6875 27.6562 9.32812 27.6562 15 27.6562C20.6719 27.6562 25.3125 27.6563 25.3125 21.9844Z" fill="#89664C"/>
<path d="M17.7657 19.2656C17.5782 18.3281 16.7813 18.0469 15.9376 18V16.6875C16.172 16.7812 16.4532 16.9219 16.6407 17.0625C17.0157 17.2969 17.3907 16.6875 17.0157 16.4531C16.6876 16.2656 16.3126 16.0781 15.9376 15.9375V14.3906C15.9376 13.9219 15.2345 13.9219 15.2345 14.3906V15.75C14.8595 15.7031 14.4845 15.7031 14.1095 15.75C14.0626 15.4219 13.9688 15.0937 13.8751 14.7656C13.7813 14.2969 13.0782 14.4844 13.2188 14.9531C13.3126 15.2812 13.3595 15.6094 13.4532 15.9375C13.4063 15.9375 13.4063 15.9375 13.3595 15.9844C12.422 16.3594 11.8126 17.2969 12.5157 18.1875C12.8438 18.6094 13.2657 18.75 13.7345 18.8437C13.7813 19.4531 13.7813 20.0625 13.7813 20.6719C13.4532 20.4844 13.172 20.2031 12.9376 19.9687C12.6095 19.6406 12.1407 20.1562 12.422 20.4844C12.8438 20.9531 13.3126 21.2812 13.7813 21.5156C13.7813 22.0312 13.8282 22.5469 13.8751 23.0625C13.922 23.5312 14.6251 23.5312 14.5782 23.0625C14.5313 22.5937 14.4845 22.1719 14.4845 21.7031C14.7657 21.75 15.047 21.75 15.3282 21.75C15.3751 22.2187 15.422 22.6875 15.4688 23.2031C15.5157 23.6719 16.2188 23.6719 16.172 23.2031C16.1251 22.6875 16.0782 22.1719 16.0313 21.6094C17.0626 21.2344 18.0001 20.4375 17.7657 19.2656ZM15.2345 16.4531V18C15.0001 18 14.8126 18.0469 14.6251 18.0469H14.3907L14.2501 16.3594C14.5782 16.3594 14.9063 16.4062 15.2345 16.4531ZM13.547 17.9531C13.3595 17.9062 13.172 17.7656 12.9845 17.625C12.5626 17.2031 13.172 16.8281 13.547 16.6406C13.5938 17.1094 13.6407 17.5312 13.6876 18C13.6407 18 13.5938 18 13.547 17.9531ZM15.0938 20.9531C14.8595 21 14.672 20.9531 14.4845 20.9062C14.4376 20.2031 14.4376 19.5 14.4376 18.75C14.7188 18.75 15.0001 18.7031 15.2813 18.7031C15.2813 19.4531 15.3282 20.1562 15.3282 20.9062C15.2345 20.9531 15.1876 20.9531 15.0938 20.9531ZM16.6407 20.4375C16.4532 20.5781 16.2188 20.6719 16.0313 20.7656C15.9845 20.0625 15.9845 19.4062 15.9845 18.7031H16.2188C17.1095 18.8906 17.3438 19.875 16.6407 20.4375Z" fill="#89664C"/>
<path d="M15.9375 25.7812H14.8594V27.6562L19.2187 30L29.0625 26.9531V25.3125L25.4531 23.2031L15.9375 25.7812Z" fill="#699635"/>
<path d="M15 24.7031C15 24.7031 16.125 26.5312 19.3125 28.125C19.3125 28.125 24.2812 27.8906 29.0625 24.7031C29.0625 24.7031 26.2969 23.3438 25.5 21.5625C25.5 21.5625 23.625 24.1875 15 24.7031Z" fill="#83BF4F"/>
<path d="M12.8906 25.7344L13.9219 25.6875L14.0625 27.4219L9.98438 30L0.1875 27.8906L0.046875 26.3438L3.375 24.0469L12.8906 25.7344Z" fill="#699635"/>
<path d="M13.6875 24.6562C13.6875 24.6562 12.7031 26.4844 9.75 28.2188C9.75 28.2188 4.92188 28.3594 0 25.7813C0 25.7813 2.625 24.2813 3.23438 22.5C3.23438 22.5 5.29688 24.8437 13.6875 24.6562Z" fill="#83BF4F"/>
<path d="M11.3438 25.1719C11.3438 25.1719 11.2031 25.5469 11.8594 25.5937L10.125 27.0469C10.125 27.0469 9.09375 26.9531 8.85937 27.6562C8.85937 27.6562 4.64063 27.1875 1.92187 25.9687C1.92187 25.9687 2.48438 25.5469 1.78125 25.2656C1.78125 25.2656 2.57813 24.7031 2.76563 24.1875C2.76563 24.1875 3.51562 24.2812 3.75 23.7187C3.84375 23.6719 6.65625 25.3594 11.3438 25.1719V25.1719Z" stroke="#699635" stroke-width="0.375" stroke-miterlimit="10"/>
<path d="M4.125 25.8281C4.61688 25.8281 5.01563 25.5553 5.01563 25.2188C5.01563 24.8822 4.61688 24.6094 4.125 24.6094C3.63312 24.6094 3.23438 24.8822 3.23438 25.2188C3.23438 25.5553 3.63312 25.8281 4.125 25.8281Z" fill="#699635"/>
<path d="M8.90625 24.4688C8.90625 24.4688 7.82812 25.875 5.48437 27.7969L5.625 29.0625L3.98437 28.6875L3.89062 27.3281C3.89062 27.3281 6.28125 25.125 6.79688 24.0469C6.75 24.0469 7.59375 24.3281 8.90625 24.4688Z" fill="#F9F3D9"/>
<path d="M19.7344 24.1406C19.7344 24.1406 20.1563 25.2656 23.3437 27.3281V28.6875L25.1719 28.125V26.7187C25.1719 26.7187 22.9687 25.1719 21.6562 23.625L19.7344 24.1406Z" fill="#F9F3D9"/>
<path d="M17.0625 22.6406L16.0313 22.5937L15.9375 24.5156L20.1094 27.1875L29.9062 24.5156L29.9531 22.8281L26.5312 20.4375L17.0625 22.6406Z" fill="#699635"/>
<path d="M16.2188 21.4687C16.2188 21.4687 17.25 23.4375 20.2969 25.2188C20.2969 25.2188 25.1719 25.2188 30 22.2188C30 22.2188 27.3281 20.6719 26.6719 18.75C26.6719 18.75 24.6563 21.375 16.2188 21.4687Z" fill="#83BF4F"/>
<path d="M18.3281 21.9844C18.3281 21.9844 18.5625 22.3594 17.8125 22.5L19.7813 24.0469C19.7813 24.0469 20.9063 23.7656 21.2813 24.4219C21.2813 24.4219 25.9688 23.5781 28.125 22.4531C28.125 22.4531 27.4219 22.125 28.125 21.7031C28.125 21.7031 27.2812 21 26.9531 20.5313C26.9531 20.5313 26.1563 20.7656 25.7344 20.2031C25.7344 20.25 24.0469 21.75 18.3281 21.9844V21.9844Z" stroke="#699635" stroke-width="0.375" stroke-miterlimit="10"/>
<path d="M21.9374 23.1564C21.7499 23.3908 21.1406 23.4845 20.6249 23.3439C20.1093 23.2033 19.8749 22.8752 20.0624 22.6408C20.2499 22.4064 20.8593 22.3127 21.3749 22.4533C21.8906 22.5939 22.1249 22.8752 21.9374 23.1564Z" fill="#699635"/>
<path d="M21 21.0937C21 21.0937 22.125 22.5938 24.5156 24.6094L24.4688 26.0156L26.1094 25.5469L26.1562 24.0469C26.1562 24.0469 23.7188 21.7031 23.1094 20.5781C23.1562 20.5781 22.3594 20.9062 21 21.0937Z" fill="#F9F3D9"/>
<path d="M21.5625 0.9375C21.5625 3.79688 17.8594 8.4375 15 8.4375C12.1406 8.4375 8.4375 4.26562 8.4375 1.40625C8.4375 -1.45312 8.85938 1.40625 11.7188 1.40625C12.1406 1.40625 14.1094 0 15 0C15.6094 0 17.3438 1.40625 18.2812 1.40625C20.7656 1.40625 21.5625 -1.21875 21.5625 0.9375Z" fill="#DBB471"/>
<path d="M14.1564 6.2342C13.8751 6.4217 12.5158 6.28107 12.0939 6.6092C11.5314 7.03107 12.3283 8.01545 11.7658 8.62482C10.6408 9.74982 9.75013 11.0155 10.0314 11.7186C10.5001 12.9373 11.3908 9.46857 12.1876 10.7811C12.9845 12.0936 12.8439 9.89045 14.0626 11.0155C15.2814 12.1405 14.2501 8.99982 15.422 10.3592C16.5939 11.7186 16.6408 13.2655 17.4845 13.2655C18.4689 13.2655 16.4533 9.56232 17.7658 10.4529C19.0783 11.3436 20.5314 11.0155 19.2189 9.65607C18.797 9.2342 18.2345 8.4842 17.5783 7.82795C17.3439 7.59357 17.5314 6.37482 17.297 6.18732C17.0158 5.95295 16.3126 6.70295 16.0314 6.56232C15.4689 6.28107 15.6564 6.7967 14.8126 6.93732C14.2501 7.12482 14.7189 5.8592 14.1564 6.2342Z" fill="#89664C"/>
<path d="M8.7657 8.9997C10.5938 7.26533 13.9219 8.2497 15.8907 9.09345C17.8126 9.9372 18.9844 7.26533 17.7657 5.90595C17.0626 5.10908 15.9376 6.04658 15.5157 6.60908C15.0469 7.17158 14.6719 7.78095 14.1563 8.34345C13.4063 9.1872 11.5782 8.48408 12.1407 7.3122C12.7501 6.09345 15.3282 7.4997 16.1719 7.73408C17.8126 8.20283 19.5469 8.39033 21.1876 7.78095C21.7501 7.59345 21.5157 6.65595 20.9532 6.89033C19.1251 7.54658 17.2969 7.1247 15.5626 6.5622C14.6719 6.28095 13.2657 5.53095 12.3282 5.95283C9.65632 7.21845 12.1407 10.8278 14.3907 9.42158C14.9063 9.09345 15.2344 8.57783 15.6094 8.10908C15.8438 7.82783 17.0157 6.04658 17.2969 6.9372C17.4376 7.40595 17.2969 8.2497 16.7813 8.39033C16.4532 8.53095 15.7969 8.0622 15.4688 7.96845C14.8594 7.73408 14.2501 7.54658 13.5938 7.40595C11.8594 7.03095 9.5157 7.1247 8.15632 8.39033C7.68757 8.76533 8.34382 9.42158 8.7657 8.9997Z" fill="#E8E8E8"/>
<path d="M21 0.234375C20.5312 0.609375 19.6875 1.40625 18.2812 1.40625C17.3438 1.40625 15.6094 0 15 0C14.1094 0 12.1406 1.40625 11.7188 1.40625C10.1719 1.40625 9.32812 0.609375 8.90625 0.28125C8.90625 0.28125 9.42187 2.39062 11.0156 3.46875C12.1875 4.21875 12.0469 3.32812 12.6562 2.48438C13.2656 1.64063 13.6875 1.21875 14.7656 3.32812C15.3281 4.5 16.4062 0.140625 17.25 1.54688C18.7969 4.125 19.3594 2.71875 21 0.234375Z" fill="#89664C"/>
<path d="M24.5625 24.5625L24.5156 25.9688L26.1562 25.5L26.2031 24C26.2031 24.0469 25.2188 24.4219 24.5625 24.5625Z" fill="#DBB471"/>
<path d="M23.3438 27.3752V28.7346L25.1719 28.1721V26.7659C25.125 26.719 24.6563 27.0002 23.3438 27.3752Z" fill="#DBB471"/>
<path d="M5.48429 27.75L5.62492 29.0625L3.98429 28.6875L3.89054 27.3281C3.84367 27.3281 4.49992 27.5625 5.48429 27.75Z" fill="#DBB471"/>
</g>
<defs>
<clipPath id="clip0">
<rect width="30" height="30" fill="white"/>
</clipPath>
</defs>
</svg>
