<svg width="59" height="46" viewBox="0 0 59 46" fill="none" xmlns="http://www.w3.org/2000/svg">
<path d="M6.176 27.8C7.168 27.8 8.02667 27.9653 8.752 28.296C9.488 28.6267 10.0533 29.096 10.448 29.704C10.8427 30.312 11.04 31.032 11.04 31.864C11.04 32.6853 10.8427 33.4053 10.448 34.024C10.0533 34.632 9.488 35.1013 8.752 35.432C8.02667 35.752 7.168 35.912 6.176 35.912H3.92V39H1.328V27.8H6.176ZM6.032 33.8C6.81067 33.8 7.40267 33.6347 7.808 33.304C8.21333 32.9627 8.416 32.4827 8.416 31.864C8.416 31.2347 8.21333 30.7547 7.808 30.424C7.40267 30.0827 6.81067 29.912 6.032 29.912H3.92V33.8H6.032ZM17.6196 39.192C16.0196 39.192 14.7716 38.7493 13.8756 37.864C12.9903 36.9787 12.5476 35.7147 12.5476 34.072V27.8H15.1396V33.976C15.1396 35.9813 15.9716 36.984 17.6356 36.984C18.4463 36.984 19.065 36.744 19.4916 36.264C19.9183 35.7733 20.1316 35.0107 20.1316 33.976V27.8H22.6916V34.072C22.6916 35.7147 22.2436 36.9787 21.3476 37.864C20.4623 38.7493 19.2196 39.192 17.6196 39.192ZM27.1855 29.912H23.6015V27.8H33.3615V29.912H29.7775V39H27.1855V29.912Z" fill="white"/>
<path d="M24.25 18H4V3.75C4 3.33562 3.66438 3 3.25 3H1.75C1.33562 3 1 3.33562 1 3.75V19.5C1 20.3283 1.67172 21 2.5 21H24.25C24.6644 21 25 20.6644 25 20.25V18.75C25 18.3356 24.6644 18 24.25 18ZM22.75 4.5H17.2159C16.2137 4.5 15.7117 5.71172 16.4205 6.42047L17.9392 7.93922L14.5 11.3789L11.0608 7.93969C10.4748 7.35375 9.52516 7.35375 8.93969 7.93969L5.71984 11.1595C5.42688 11.4525 5.42688 11.9273 5.71984 12.2203L6.78016 13.2806C7.07312 13.5736 7.54797 13.5736 7.84094 13.2806L10 11.1211L13.4392 14.5603C14.0252 15.1462 14.9748 15.1462 15.5603 14.5603L20.0603 10.0603L21.5791 11.5791C22.2878 12.2878 23.4995 11.7858 23.4995 10.7836V5.25C23.5 4.83562 23.1644 4.5 22.75 4.5Z" fill="white"/>
</svg>
