<svg width="31" height="30" viewBox="0 0 31 30" fill="none" xmlns="http://www.w3.org/2000/svg">
<path d="M14.999 6.24992C10.8628 6.24992 7.49908 9.61363 7.49908 13.7498C7.49908 17.886 10.8628 21.2497 14.999 21.2497C19.1352 21.2497 22.4989 17.886 22.4989 13.7498C22.4989 9.61363 19.1352 6.24992 14.999 6.24992ZM14.8427 12.8123H15.1552C16.4477 12.8123 17.499 13.8636 17.499 15.1561C17.499 16.1735 16.844 17.0323 15.9365 17.356V17.8123C15.9365 18.3298 15.5165 18.7498 14.999 18.7498C14.4815 18.7498 14.0615 18.3298 14.0615 17.8123V17.4998H13.4365C12.919 17.4998 12.499 17.0798 12.499 16.5623C12.499 16.0448 12.919 15.6248 13.4365 15.6248H15.1552C15.414 15.6248 15.624 15.4148 15.624 15.1561C15.624 14.8973 15.414 14.6873 15.1552 14.6873H14.8427C13.5503 14.6873 12.499 13.6361 12.499 12.3436C12.499 11.3261 13.154 10.4674 14.0615 10.1436V9.68738C14.0615 9.16988 14.4815 8.74989 14.999 8.74989C15.5165 8.74989 15.9365 9.16988 15.9365 9.68738V9.99987H16.5615C17.079 9.99987 17.499 10.4199 17.499 10.9374C17.499 11.4549 17.079 11.8748 16.5615 11.8748H14.8427C14.584 11.8748 14.374 12.0848 14.374 12.3436C14.374 12.6023 14.584 12.8123 14.8427 12.8123Z" fill="#00DB7F"/>
<path d="M27.8388 12.8398C27.3213 12.8398 26.9013 13.2598 26.9013 13.7773C26.9013 19.3835 22.9989 24.0847 17.7715 25.3397V24.1709C17.7715 23.3384 16.7627 22.9172 16.1715 23.5084L13.7253 25.9534C13.359 26.3197 13.359 26.9134 13.7253 27.2796L16.1715 29.7246C16.7577 30.3109 17.7715 29.9009 17.7715 29.0621V27.2734C24.0439 25.9872 28.7763 20.4247 28.7763 13.7773C28.7763 13.2598 28.3563 12.8398 27.8388 12.8398Z" fill="#00DB7F"/>
<path d="M11.029 24.9859C6.2841 23.3235 3.09664 18.8198 3.09664 13.7773C3.09664 12.3498 3.35414 10.9636 3.83788 9.66113L4.96162 10.3086C5.68036 10.7249 6.5516 10.0636 6.3366 9.25363L5.38661 5.71118C5.25161 5.21368 4.74912 4.91869 4.23663 5.04868L0.692922 5.99742C-0.113317 6.21367 -0.252066 7.29991 0.467925 7.7149L2.19165 8.70989C1.55666 10.3049 1.22292 12.0148 1.22292 13.7773C1.22292 19.6135 4.91412 24.8297 10.4103 26.7559C10.9065 26.9272 11.4353 26.6647 11.6053 26.1809C11.7753 25.6922 11.5178 25.1572 11.029 24.9859Z" fill="#00DB7F"/>
<path d="M28.8188 6.14617L26.8026 6.68616C24.3489 2.63247 19.8764 0 14.999 0C11.859 0 8.91657 1.03249 6.48785 2.98246C6.0841 3.30746 6.02035 3.89745 6.3441 4.30119C6.67035 4.70619 7.25909 4.76869 7.66283 4.44494C9.7553 2.76371 12.2915 1.87498 14.999 1.87498C19.0264 1.87498 22.7301 3.95495 24.9001 7.19491L23.8076 7.4874C23.0026 7.70365 22.8601 8.78739 23.5814 9.20488L26.7576 11.0399C26.9738 11.1649 27.2276 11.1974 27.4688 11.1336C27.7076 11.0686 27.9126 10.9124 28.0376 10.6961L29.8738 7.5199C30.2875 6.80116 29.6313 5.93117 28.8188 6.14617Z" fill="#00DB7F"/>
</svg>
