<svg width="670" height="670" viewBox="0 0 670 670" fill="none" xmlns="http://www.w3.org/2000/svg">
<circle cx="335" cy="335" r="335" fill="#F5F2F9"/>
<circle cx="335.5" cy="335.5" r="173.5" fill="#DBD7ED"/>
<rect x="174.581" y="172.581" width="284.025" height="221.608" rx="20" fill="#DBD7EC"/>
<rect x="190.615" y="185.179" width="255.394" height="146.021" fill="white"/>
<path d="M441.714 168H191.474C179.633 168 170 177.633 170 189.474V378.442C170 390.283 179.633 399.916 191.474 399.916H283.127L277.958 418.008C275.882 425.273 267.745 431.411 260.189 431.411H227.836C225.464 431.411 223.541 433.333 223.541 435.705C223.541 438.078 225.464 440 227.836 440H405.352C407.723 440 409.646 438.078 409.646 435.705C409.646 433.333 407.723 431.411 405.352 431.411H372.998C365.442 431.411 357.305 425.272 355.229 418.008L350.06 399.916H441.714C453.555 399.916 463.187 390.283 463.187 378.442V189.474C463.187 177.633 453.555 168 441.714 168ZM191.474 176.589H441.714C448.818 176.589 454.598 182.37 454.598 189.474V339.789H178.589V189.474C178.589 182.37 184.369 176.589 191.474 176.589ZM346.97 420.367C348.149 424.493 350.491 428.283 353.562 431.411H279.625C282.696 428.283 285.039 424.493 286.217 420.367L292.06 399.916H341.126L346.97 420.367ZM441.714 391.326H191.474C184.369 391.326 178.589 385.546 178.589 378.442V348.379H454.598V378.442C454.598 385.546 448.818 391.326 441.714 391.326Z" fill="#5524A3"/>
<path d="M191.474 331.2H441.714C444.086 331.2 446.008 329.278 446.008 326.905V189.474C446.008 187.101 444.086 185.179 441.714 185.179H191.474C189.102 185.179 187.179 187.101 187.179 189.474V249.6C187.179 251.972 189.102 253.895 191.474 253.895C193.846 253.895 195.768 251.972 195.768 249.6V193.768H437.419V322.611H195.768V266.779C195.768 264.407 193.846 262.484 191.474 262.484C189.102 262.484 187.179 264.407 187.179 266.779V326.905C187.179 329.278 189.102 331.2 191.474 331.2Z" fill="#5524A3"/>
<path d="M316.594 356.968C309.489 356.968 303.709 362.749 303.709 369.853C303.709 376.957 309.489 382.737 316.594 382.737C323.698 382.737 329.478 376.957 329.478 369.853C329.478 362.749 323.698 356.968 316.594 356.968ZM316.594 374.147C314.225 374.147 312.299 372.221 312.299 369.853C312.299 367.484 314.225 365.558 316.594 365.558C318.962 365.558 320.888 367.484 320.888 369.853C320.888 372.221 318.962 374.147 316.594 374.147Z" fill="#5524A3"/>
<rect x="368.936" y="257.118" width="127.613" height="238.903" rx="20" fill="#DBD7EC"/>
<path d="M474.175 254.151H389.825C375.034 254.151 363 266.09 363 280.765V475.197C363 489.864 375.034 501.807 389.825 501.807H474.171C488.962 501.807 501 489.864 501 475.197V280.765C501.004 266.09 488.966 254.151 474.175 254.151ZM492.135 475.197C492.135 484.977 484.08 492.938 474.175 492.938H389.825C379.924 492.938 371.869 484.977 371.869 475.197V280.765H371.873C371.873 270.98 379.929 263.023 389.829 263.023H474.175C484.076 263.023 492.135 270.98 492.135 280.765C492.14 280.765 492.14 475.197 492.135 475.197ZM483.015 280.212H380.997C379.772 280.212 378.781 281.203 378.781 282.428V454.739C378.781 455.961 379.772 456.96 380.997 456.96H483.015C484.241 456.96 485.235 455.965 485.235 454.739V282.428C485.231 281.203 484.241 280.212 483.015 280.212ZM480.799 452.519H383.21V284.644H480.795C480.795 284.644 480.795 452.519 480.799 452.519ZM432.006 460.653C424.532 460.653 418.449 466.732 418.449 474.206C418.449 481.68 424.532 487.759 432.006 487.759C439.48 487.759 445.555 481.676 445.555 474.206C445.555 466.732 439.48 460.653 432.006 460.653ZM432.006 483.322C426.975 483.322 422.886 479.233 422.886 474.206C422.886 469.179 426.975 465.086 432.006 465.086C437.033 465.086 441.123 469.179 441.123 474.206C441.123 479.233 437.033 483.322 432.006 483.322ZM417.335 271.5C417.335 270.596 418.218 269.866 419.308 269.866H444.692C445.782 269.866 446.661 270.596 446.661 271.5C446.661 272.404 445.786 273.134 444.696 273.134H419.312C418.226 273.134 417.339 272.404 417.335 271.5Z" fill="#5524A3"/>
<rect x="380.064" y="281.602" width="102.387" height="174.355" fill="white"/>
</svg>
