<svg xmlns="http://www.w3.org/2000/svg" width="38.142" height="28.778" viewBox="0 0 38.142 28.778">
  <g id="Group_240" data-name="Group 240" transform="translate(-464.989 -412.305)">
    <path id="Path_553" data-name="Path 553" d="M498.123,441.083H470a5.014,5.014,0,0,1-5.008-5.008V422.736A5.014,5.014,0,0,1,470,417.728h1c2.077,0,3.659-1.065,3.779-2.022.24-1.907,2.588-3.4,5.343-3.4h7.454c2.744,0,5.128,1.483,5.425,3.377.153.968,1.779,2.046,3.867,2.046h1.255a5.014,5.014,0,0,1,5.008,5.008v13.339A5.014,5.014,0,0,1,498.123,441.083ZM470,419.306a3.434,3.434,0,0,0-3.431,3.43v13.339a3.434,3.434,0,0,0,3.431,3.43h28.126a3.434,3.434,0,0,0,3.43-3.43V422.736a3.434,3.434,0,0,0-3.43-3.43h-1.255c-2.743,0-5.127-1.484-5.425-3.378-.153-.968-1.778-2.045-3.867-2.045h-7.454c-2.076,0-3.657,1.065-3.778,2.021-.241,1.907-2.588,3.4-5.344,3.4Z" fill="#fff"/>
    <path id="Path_554" data-name="Path 554" d="M484.06,437.19a8.919,8.919,0,1,1,8.918-8.919A8.929,8.929,0,0,1,484.06,437.19Zm0-16.26a7.341,7.341,0,1,0,7.341,7.341A7.349,7.349,0,0,0,484.06,420.93Z" fill="#fff"/>
    <path id="Path_555" data-name="Path 555" d="M489.71,428.271a5.65,5.65,0,1,1-5.65-5.649A5.65,5.65,0,0,1,489.71,428.271Z" fill="#fff"/>
  </g>
</svg>
