<svg height="41.388" viewBox="0 0 36.254 41.388" width="36.254" xmlns="http://www.w3.org/2000/svg"><g fill="#2dae40" transform="translate(-1101.913 -37.741)"><path d="m1122.673 41.614h-5.164a1.936 1.936 0 1 1 0-3.873h5.164a1.936 1.936 0 1 1 0 3.873z"/><path d="m1120.091 76.475a15.493 15.493 0 1 1 15.493-15.494 15.512 15.512 0 0 1 -15.493 15.494zm12.781-28.275c-.15-.151-.3-.3-.459-.442l1.611-2.16a.646.646 0 0 0 -.132-.9l-2.069-1.543a.645.645 0 0 0 -.9.131l-1.6 2.148a18.128 18.128 0 1 0 3.554 2.77z"/><path d="m1132.357 61.627h-12.266a.646.646 0 0 1 -.646-.646v-12.265a.646.646 0 0 1 .646-.646 12.926 12.926 0 0 1 12.909 12.911.645.645 0 0 1 -.643.646z"/><path d="m1115.687 48.87a.645.645 0 1 1 -.457.189.621.621 0 0 1 .457-.189z"/><path d="m1112.359 50.792a.644.644 0 1 1 -.457.189.621.621 0 0 1 .457-.189z"/><path d="m1109.788 53.648a.645.645 0 1 1 -.456.189.624.624 0 0 1 .456-.189z"/><path d="m1108.226 57.159a.645.645 0 1 1 -.457.189.621.621 0 0 1 .457-.189z"/><path d="m1107.825 60.981a.645.645 0 1 1 -.456.189.624.624 0 0 1 .456-.189z"/><path d="m1108.625 64.74a.645.645 0 1 1 -.457.189.622.622 0 0 1 .457-.189z"/><path d="m1110.547 68.068a.645.645 0 1 1 -.456.189.62.62 0 0 1 .456-.189z"/><path d="m1113.4 70.638a.645.645 0 1 1 -.457.189.621.621 0 0 1 .457-.189z"/><path d="m1116.915 72.2a.645.645 0 1 1 -.457.189.621.621 0 0 1 .457-.189z"/><path d="m1120.736 72.6a.645.645 0 1 1 -.456.189.622.622 0 0 1 .456-.189z"/><path d="m1124.495 71.8a.645.645 0 1 1 -.456.189.624.624 0 0 1 .456-.189z"/><path d="m1127.823 69.879a.645.645 0 1 1 -.457.189.622.622 0 0 1 .457-.189z"/><path d="m1130.393 67.023a.645.645 0 1 1 -.456.189.622.622 0 0 1 .456-.189z"/><path d="m1131.956 63.512a.645.645 0 1 1 -.457.189.621.621 0 0 1 .457-.189z"/></g></svg>