<svg xmlns="http://www.w3.org/2000/svg" width="19.685" height="19.685" viewBox="0 0 19.685 19.685">
  <g id="Group_106" data-name="Group 106" transform="translate(-270.32 -1692)">
    <path id="Path_614" data-name="Path 614" d="M280.163,1692a9.843,9.843,0,1,0,9.842,9.843A9.843,9.843,0,0,0,280.163,1692Zm0,18.245a8.4,8.4,0,1,1,8.4-8.4A8.4,8.4,0,0,1,280.163,1710.245Z" fill="#999"/>
    <g id="Group_299" data-name="Group 299">
      <path id="Path_615" data-name="Path 615" d="M279.76,1704.559v-2.409a3.188,3.188,0,0,1-1.654-.974,2.451,2.451,0,0,1-.526-1.585,2.246,2.246,0,0,1,.6-1.585,2.41,2.41,0,0,1,1.585-.739v-.569h.834v.569a2.479,2.479,0,0,1,1.455.624,2.412,2.412,0,0,1,.69,1.378l-1.455.19a1.169,1.169,0,0,0-.69-.92v2.248a3.721,3.721,0,0,1,1.88.969,2.291,2.291,0,0,1,.5,1.527,2.553,2.553,0,0,1-.63,1.754,2.762,2.762,0,0,1-1.751.874v1.076h-.834v-1.047a2.659,2.659,0,0,1-1.616-.742,3.054,3.054,0,0,1-.794-1.753l1.5-.162a1.925,1.925,0,0,0,.345.793A1.564,1.564,0,0,0,279.76,1704.559Zm0-6.037a1.081,1.081,0,0,0-.541.391,1.009,1.009,0,0,0-.2.609.966.966,0,0,0,.184.566,1.282,1.282,0,0,0,.558.423Zm.834,6.119a1.173,1.173,0,0,0,.7-.4,1.123,1.123,0,0,0,.27-.749,1.016,1.016,0,0,0-.228-.665,1.45,1.45,0,0,0-.744-.429Z" fill="#999"/>
    </g>
  </g>
</svg>
