<svg xmlns="http://www.w3.org/2000/svg" width="32.044" height="32.045" viewBox="0 0 32.044 32.045"><g transform="translate(-1677 -40.685)"><path d="M1693.022,70.385A13.678,13.678,0,1,1,1706.7,56.708,13.677,13.677,0,0,1,1693.022,70.385Zm0-29.7a16.023,16.023,0,1,0,16.022,16.023A16.022,16.022,0,0,0,1693.022,40.685Z" fill="#fff"/><path d="M1693.724,61.262a1.9,1.9,0,0,0,1.142-.651,1.827,1.827,0,0,0,.44-1.221,1.657,1.657,0,0,0-.37-1.082,2.363,2.363,0,0,0-1.212-.7Zm-1.357-9.96a1.753,1.753,0,0,0-.88.636,1.639,1.639,0,0,0-.328.991,1.57,1.57,0,0,0,.3.923,2.071,2.071,0,0,0,.908.687Zm0,9.828V57.208a5.172,5.172,0,0,1-2.692-1.586,3.986,3.986,0,0,1-.856-2.58,3.651,3.651,0,0,1,.968-2.579,3.916,3.916,0,0,1,2.58-1.2v-.927h1.357v.927a4.024,4.024,0,0,1,2.369,1.016,3.918,3.918,0,0,1,1.123,2.241l-2.368.31a1.906,1.906,0,0,0-1.124-1.5v3.66a6.048,6.048,0,0,1,3.061,1.578,3.733,3.733,0,0,1,.815,2.486,4.163,4.163,0,0,1-1.025,2.855,4.507,4.507,0,0,1-2.851,1.422v1.752h-1.357V63.377a4.327,4.327,0,0,1-2.631-1.207,4.979,4.979,0,0,1-1.292-2.855l2.444-.262a3.123,3.123,0,0,0,.561,1.291A2.563,2.563,0,0,0,1692.367,61.13Z" fill="#fff"/></g></svg>