<svg width="24" height="24" viewBox="0 0 24 24" fill="none" xmlns="http://www.w3.org/2000/svg">
<path d="M12.0005 10.4727L10.7832 14.2185H6.84424L10.031 16.5338L8.81299 20.2793L12.0005 17.9648L15.1872 20.2793L13.9692 16.5338L17.156 14.2185H13.217L12.0005 10.4727ZM13.0647 16.1427L13.7217 18.1662L12.0005 16.9152L10.2777 18.1662L10.9362 16.1427L9.21424 14.8917H11.3427L12.0005 12.8682L12.6582 14.8917H14.786L13.0647 16.1427Z" fill="#F2C94C"/>
<path d="M16.7464 9.94462V6.68287C16.7464 6.54637 16.6717 6.43163 16.566 6.36038L20.25 0.75H13.1869L12.0004 2.52975L10.8139 0.75H3.75L7.43362 6.36C7.37926 6.39473 7.33436 6.44241 7.30294 6.49876C7.27153 6.55511 7.25458 6.61837 7.25363 6.68287V9.94462C5.57325 11.3201 4.5 13.4093 4.5 15.75C4.5 19.8919 7.85812 23.25 12 23.25H12.0004C12.2557 23.25 12.5081 23.2369 12.7568 23.2118C16.5431 22.8326 19.5 19.6369 19.5 15.75C19.5 13.4093 18.4268 11.3201 16.7464 9.94462ZM15.3097 1.125H17.6827L14.3734 6.08963L13.1869 4.30988L15.3097 1.125ZM15.5599 7.86938L15.9247 7.32263C15.9443 7.3695 15.9555 7.4205 15.9555 7.47412V9.05625C15.9546 9.15505 15.9146 9.24947 15.8441 9.31875C14.7191 8.6445 13.407 8.25 12 8.25C10.6453 8.25029 9.31623 8.61992 8.15588 9.31913C8.0854 9.24971 8.04535 9.15517 8.0445 9.05625V7.47412C8.0445 7.4205 8.05575 7.36913 8.07525 7.32263L8.44012 7.86975H15.5599V7.86938ZM6.31725 1.125H8.69025L12.9368 7.49438H10.5638L6.31725 1.125ZM12 22.125C8.4795 22.125 5.625 19.2709 5.625 15.75C5.625 12.2291 8.4795 9.375 12 9.375C15.5205 9.375 18.375 12.2291 18.375 15.75C18.375 19.2709 15.5205 22.125 12 22.125Z" fill="#F2C94C"/>
</svg>
