<svg xmlns="http://www.w3.org/2000/svg" width="20.776" height="20.735" viewBox="0 0 20.776 20.735">
  <g id="internet" transform="translate(0 -0.316)">
    <path id="Path_4172" data-name="Path 4172" d="M231.816,348.7c1.589-.226,2.982-1.884,3.858-4.333a18.86,18.86,0,0,0-3.858-.454Zm0,0" transform="translate(-221.057 -327.65)" fill="#fff"/>
    <path id="Path_4173" data-name="Path 4173" d="M279.821,361.375c.094-.027.187-.055.28-.085s.156-.052.233-.079.182-.064.273-.1.154-.061.23-.092l.264-.111c.076-.034.152-.069.228-.1s.171-.082.256-.124l.223-.116q.125-.067.248-.137c.074-.042.146-.084.218-.128l.24-.148c.071-.045.142-.091.212-.139s.156-.108.232-.163l.205-.148c.074-.057.15-.117.225-.176s.132-.105.2-.159.145-.125.217-.189.127-.111.188-.169.14-.135.209-.2.12-.117.179-.178l.032-.035a12.479,12.479,0,0,0-2.544-.979,9.214,9.214,0,0,1-2.373,3.853l.09-.022C279.666,361.422,279.744,361.4,279.821,361.375Zm0,0" transform="translate(-266.524 -340.713)" fill="#fff"/>
    <path id="Path_4174" data-name="Path 4174" d="M340.761,231.684h-4.452a19.256,19.256,0,0,1-.75,5.137,12.914,12.914,0,0,1,2.818,1.121,10.374,10.374,0,0,0,2.384-6.258Zm0,0" transform="translate(-319.984 -220.629)" fill="#fff"/>
    <path id="Path_4175" data-name="Path 4175" d="M231.816,113.9h4.822a18.575,18.575,0,0,0-.731-4.954,19.558,19.558,0,0,1-4.091.488Zm0,0" transform="translate(-221.057 -103.584)" fill="#fff"/>
    <path id="Path_4176" data-name="Path 4176" d="M231.816.316V5.1a18.871,18.871,0,0,0,3.858-.454C234.8,2.2,233.4.542,231.816.316Zm0,0" transform="translate(-221.057)" fill="#fff"/>
    <path id="Path_4177" data-name="Path 4177" d="M231.816,236.15a19.571,19.571,0,0,1,4.091.488,18.577,18.577,0,0,0,.731-4.954h-4.822Zm0,0" transform="translate(-221.056 -220.629)" fill="#fff"/>
    <path id="Path_4178" data-name="Path 4178" d="M338.376,80.844a12.914,12.914,0,0,1-2.818,1.121,19.256,19.256,0,0,1,.75,5.137h4.452a10.377,10.377,0,0,0-2.384-6.258Zm0,0" transform="translate(-319.984 -76.79)" fill="#fff"/>
    <path id="Path_4179" data-name="Path 4179" d="M284.377,9.67l-.032-.034c-.059-.061-.12-.119-.179-.178s-.138-.137-.209-.2-.125-.112-.188-.169-.144-.128-.218-.19-.13-.106-.2-.158-.15-.12-.227-.177-.135-.1-.2-.148-.156-.112-.235-.165-.14-.092-.21-.137-.16-.1-.242-.151-.144-.085-.216-.127-.166-.094-.25-.139-.148-.078-.223-.115-.172-.085-.26-.125-.15-.07-.226-.1-.177-.074-.265-.111-.153-.062-.23-.091-.181-.067-.273-.1-.154-.054-.233-.08-.186-.057-.281-.085c-.077-.023-.155-.046-.233-.066l-.09-.022a9.215,9.215,0,0,1,2.373,3.853,12.462,12.462,0,0,0,2.547-.98Zm0,0" transform="translate(-266.487 -6.18)" fill="#fff"/>
    <path id="Path_4180" data-name="Path 4180" d="M0,87.1H4.452a19.264,19.264,0,0,1,.75-5.137,12.9,12.9,0,0,1-2.818-1.121A10.374,10.374,0,0,0,0,87.1Zm0,0" transform="translate(0 -76.79)" fill="#fff"/>
    <path id="Path_4181" data-name="Path 4181" d="M136.553,348.7v-4.787a18.87,18.87,0,0,0-3.858.454C133.571,346.817,134.964,348.475,136.553,348.7Zm0,0" transform="translate(-126.536 -327.65)" fill="#fff"/>
    <path id="Path_4182" data-name="Path 4182" d="M116.743,231.684h-4.822a18.569,18.569,0,0,0,.731,4.954,19.544,19.544,0,0,1,4.091-.488Zm0,0" transform="translate(-106.726 -220.629)" fill="#fff"/>
    <path id="Path_4183" data-name="Path 4183" d="M136.553.316c-1.589.226-2.982,1.884-3.858,4.333a18.846,18.846,0,0,0,3.858.454Zm0,0" transform="translate(-126.536)" fill="#fff"/>
    <path id="Path_4184" data-name="Path 4184" d="M116.744,109.429a19.558,19.558,0,0,1-4.091-.488,18.567,18.567,0,0,0-.731,4.954h4.822Zm0,0" transform="translate(-106.727 -103.583)" fill="#fff"/>
    <path id="Path_4185" data-name="Path 4185" d="M67.107,6.789l-.09.022c-.079.021-.156.044-.235.067s-.186.055-.279.084-.156.053-.234.08-.182.064-.272.1-.154.061-.231.092l-.264.111c-.077.034-.152.069-.228.1s-.171.082-.256.124l-.223.116q-.125.067-.248.137t-.219.128c-.081.049-.16.1-.24.148s-.142.092-.212.139-.156.108-.232.163l-.205.149c-.076.057-.148.117-.225.176s-.133.105-.2.16-.145.125-.216.188-.127.112-.189.17-.139.134-.208.2-.121.117-.179.178l-.032.035a12.466,12.466,0,0,0,2.544.979,9.211,9.211,0,0,1,2.372-3.851Zm0,0" transform="translate(-59.305 -6.172)" fill="#fff"/>
    <path id="Path_4186" data-name="Path 4186" d="M62.439,358.754c.069.068.138.137.209.2s.125.111.188.168.144.128.218.19.13.106.2.158.148.12.227.178.135.1.2.149.156.111.235.165.14.092.21.137.16.1.242.151.144.085.216.127.166.094.25.138.148.078.223.115.172.085.26.126.15.069.226.1.177.074.265.111.153.062.23.091.181.067.273.1.154.054.233.079.186.058.281.085c.077.023.155.046.233.067l.091.022a9.216,9.216,0,0,1-2.373-3.854,12.466,12.466,0,0,0-2.544.98l.032.034C62.318,358.636,62.378,358.695,62.439,358.754Zm0,0" transform="translate(-59.342 -340.665)" fill="#fff"/>
    <path id="Path_4187" data-name="Path 4187" d="M2.384,237.941A12.917,12.917,0,0,1,5.2,236.82a19.263,19.263,0,0,1-.75-5.137H0A10.376,10.376,0,0,0,2.384,237.941Zm0,0" transform="translate(0 -220.628)" fill="#fff"/>
  </g>
</svg>
