<svg xmlns="http://www.w3.org/2000/svg" width="47.744" height="45.099" viewBox="0 0 47.744 45.099">
  <g id="Group_1504" data-name="Group 1504" transform="translate(-1522.896 -2672.971)">
    <g id="Group_1475" data-name="Group 1475" transform="translate(1258 2237)">
      <g id="Group_1470" data-name="Group 1470">
        <g id="Group_1469" data-name="Group 1469">
          <path id="Path_8646" data-name="Path 8646" d="M275.321,457.1v8.39h-7.18V457.1h7.18m2.167-3.248H265.977a1.083,1.083,0,0,0-1.081,1.082V479.99a1.081,1.081,0,0,0,1.081,1.08H277.49a1.079,1.079,0,0,0,1.08-1.08V454.934a1.085,1.085,0,0,0-1.082-1.082Z" fill="#48c741"/>
        </g>
      </g>
      <g id="Group_1472" data-name="Group 1472">
        <g id="Group_1471" data-name="Group 1471">
          <path id="Path_8647" data-name="Path 8647" d="M292.255,450.6v16.865h-7.183V450.6h7.183m2.164-3.248H282.907a1.084,1.084,0,0,0-1.081,1.082v31.56a1.082,1.082,0,0,0,1.081,1.08h11.512a1.082,1.082,0,0,0,1.081-1.08V448.43a1.083,1.083,0,0,0-1.081-1.082Z" fill="#48c741"/>
        </g>
      </g>
      <g id="Group_1474" data-name="Group 1474">
        <g id="Group_1473" data-name="Group 1473">
          <path id="Path_8648" data-name="Path 8648" d="M309.394,439.215V460.08h-7.183V439.215h7.183m2.162-3.244H300.048a1.081,1.081,0,0,0-1.082,1.08v42.937a1.081,1.081,0,0,0,1.082,1.08h11.508a1.081,1.081,0,0,0,1.084-1.08V437.051a1.081,1.081,0,0,0-1.084-1.08Z" fill="#48c741"/>
        </g>
      </g>
    </g>
  </g>
</svg>
