<svg xmlns="http://www.w3.org/2000/svg" width="33.668" height="34.416" viewBox="0 0 33.668 34.416"><g transform="translate(-1500 -42.337)"><path d="M1516.861,69.984a10.624,10.624,0,1,1,10.624-10.624A10.636,10.636,0,0,1,1516.861,69.984Zm16.155-14.928h-.05a2.516,2.516,0,0,1-1.923-4.332l.178-.032a.935.935,0,0,0,0-1.367l-4.072-4.045a1.02,1.02,0,0,0-1.442.016l-.137.154a2.7,2.7,0,0,1-4.62-1.912v-.333c0-.563-.472-.868-1.035-.868h-5.751c-.563,0-.7.3-.7.868v.321a2.826,2.826,0,0,1-4.792,1.918l-.222-.141a1.07,1.07,0,0,0-1.485,0l-4.092,4.094a1.02,1.02,0,0,0-.011,1.438l.174-.113a2.517,2.517,0,0,1-1.928,4.332h-.4c-.563,0-.707,1.042-.707,1.606v5.75c0,.564.144.874.707.874h.354A2.764,2.764,0,0,1,1502.974,68l-.108.144a1.042,1.042,0,0,0,0,1.463l4.062,4.06a1.019,1.019,0,0,0,1.442,0l.3-.14a2.827,2.827,0,0,1,4.8,1.918v.072c0,.563.133,1.238.7,1.238h5.751a1.242,1.242,0,0,0,1.035-1.238v-.084a2.707,2.707,0,0,1,4.623-1.918l.141.144a1.016,1.016,0,0,0,1.438,0l4.06-4.038a1.021,1.021,0,0,0,0-1.447l-.107-.106a2.663,2.663,0,0,1,1.729-4.636c.563,0,.836-.456.836-1.02v-5.75C1533.668,56.1,1533.579,55.056,1533.016,55.056Z" fill="#ccc"/><path d="M1515.334,52.729a6.8,6.8,0,0,1,6.481,11.3,6.709,6.709,0,0,1-1,.877,6.789,6.789,0,0,1-2.422,1.089,6.7,6.7,0,0,1-1.323.171,6.8,6.8,0,0,1-2.618-.44,6.81,6.81,0,0,1-3.128-2.413,6.881,6.881,0,0,1-.664-1.157,6.8,6.8,0,0,1,4.679-9.423Z" fill="#ccc"/></g></svg>