<svg xmlns="http://www.w3.org/2000/svg" width="54.677" height="58.786" viewBox="0 0 54.677 58.786">
  <g id="Group_1776" data-name="Group 1776" transform="translate(-156.592 -52.816)">
    <g id="XMLID_4_" transform="matrix(-0.999, -0.035, 0.035, -0.999, 210.297, 108.971)">
      <path id="XMLID_28_" d="M5.107,2.443,3.9,0,2.7,2.443,0,2.835l1.951,1.9L1.49,7.421,3.9,6.153,6.313,7.421,5.852,4.736,7.8,2.835Z" transform="translate(28.754 11.082)" fill="#f99400"/>
      <path id="XMLID_39_" d="M48.774,0H0V5.327A8.593,8.593,0,0,1,8.594,13.92,8.594,8.594,0,0,1,0,22.512v5.327H14.908V21.72h2.858v6.119H48.774ZM17.765,16.979H14.908V10.86h2.858Zm0-10.86H14.908V0h2.858Zm21.1,17.607-6.207-3.263-6.207,3.263,1.185-6.911-5.021-4.895,6.939-1.008,3.1-6.288,3.1,6.288L42.7,11.921l-5.021,4.895Z" fill="#f99400"/>
    </g>
    <rect id="Rectangle_3436" data-name="Rectangle 3436" width="26" height="28" transform="matrix(0.883, 0.469, -0.469, 0.883, 174.27, 67.154)" fill="#1d2335"/>
    <g id="XMLID_4_2" data-name="XMLID_4_" transform="matrix(-0.454, 0.891, -0.891, -0.454, 204.884, 66.8)">
      <g id="XMLID_28_2" data-name="XMLID_28_" transform="translate(28.754 11.082)" fill="#f99400">
        <path d="M 6.976572513580322 8.334896087646484 L 6.079822540283203 7.863416194915771 L 3.901427745819092 6.718107223510742 L 1.722842454910278 7.863426208496094 L 0.8261024355888367 8.334856033325195 L 0.9973724484443665 7.336336135864258 L 1.413444876670837 4.910483360290527 L -0.348997563123703 3.192556381225586 L -1.074497580528259 2.485386371612549 L -0.07189755141735077 2.339706420898438 L 2.363766431808472 1.985795140266418 L 3.453062534332275 -0.2212936729192734 L 3.901452541351318 -1.129793643951416 L 4.349802494049072 -0.2212736755609512 L 5.438998222351074 1.985795021057129 L 7.874662399291992 2.339706420898438 L 8.87728214263916 2.485386371612549 L 8.151752471923828 3.192556381225586 L 6.389229774475098 4.910482406616211 L 6.805302619934082 7.336336135864258 L 6.976572513580322 8.334896087646484 Z" stroke="none"/>
        <path d="M 3.901432514190674 -3.814697265625e-06 L 2.695802211761475 2.442796230316162 L 2.384185791015625e-06 2.834506511688232 L 1.950682640075684 4.735916137695312 L 1.490172386169434 7.420856475830078 L 3.901432514190674 6.153216361999512 L 6.312502384185791 7.420856475830078 L 5.851992607116699 4.735916137695312 L 7.802762508392334 2.834506511688232 L 5.106962203979492 2.442796230316162 L 3.901432514190674 -3.814697265625e-06 M 3.901472330093384 -2.259573936462402 L 4.798182487487793 -0.4425535202026367 L 5.771045684814453 1.528787136077881 L 7.946552276611328 1.84489631652832 L 9.951812744140625 2.136266231536865 L 8.500752449035645 3.550616264343262 L 6.926480293273926 5.085055351257324 L 7.298112392425537 7.251806259155273 L 7.640652656555176 9.248926162719727 L 5.847142219543457 8.305975914001465 L 3.901418209075928 7.282995700836182 L 1.955502510070801 8.305995941162109 L 0.1620426177978516 9.248846054077148 L 0.5045623779296875 7.251806259155273 L 0.876197338104248 5.085040092468262 L -0.6980075836181641 3.550596237182617 L -2.148987770080566 2.136266231536865 L -0.1437873840332031 1.84489631652832 L 2.031745433807373 1.528782844543457 L 3.004702568054199 -0.4425835609436035 L 3.901472330093384 -2.259573936462402 Z" stroke="none" fill="#1d2335"/>
      </g>
      <g id="XMLID_39_2" data-name="XMLID_39_" fill="#f99400">
        <path d="M 49.27374267578125 28.33914184570312 L 48.77374267578125 28.33914184570312 L 17.76545333862305 28.33914184570312 L 17.26545333862305 28.33914184570312 L 17.26545333862305 27.83914184570312 L 17.26545333862305 22.21965026855469 L 15.40762329101562 22.21965026855469 L 15.40762329101562 27.83914184570312 L 15.40762329101562 28.33914184570312 L 14.90762329101562 28.33914184570312 L 3.245239213356399e-06 28.33914184570312 L -0.4999967515468597 28.33914184570312 L -0.4999967515468597 27.83914184570312 L -0.4999967515468597 22.51222038269043 L -0.4999967515468597 22.01222038269043 L 3.245239213356399e-06 22.01222038269043 C 4.462883472442627 22.01222038269043 8.093703269958496 18.38187026977539 8.093703269958496 13.91957092285156 C 8.093703269958496 9.457270622253418 4.462883472442627 5.826920986175537 3.245239213356399e-06 5.826920986175537 L -0.4999967515468597 5.826920986175537 L -0.4999967515468597 5.326920986175537 L -0.4999967515468597 9.228515409631655e-07 L -0.4999967515468597 -0.499999076128006 L 3.245239213356399e-06 -0.499999076128006 L 48.77374267578125 -0.499999076128006 L 49.27374267578125 -0.499999076128006 L 49.27374267578125 9.228515409631655e-07 L 49.27374267578125 27.83914184570312 L 49.27374267578125 28.33914184570312 Z M 32.6552734375 19.89902114868164 L 32.88793182373047 20.0213508605957 L 38.19786071777344 22.81298828125 L 37.18377304077148 16.90013122558594 L 37.13933181762695 16.64105033874512 L 37.32757186889648 16.45757102966309 L 41.62350845336914 12.27010822296143 L 35.68668365478516 11.40744113922119 L 35.42654418945312 11.36964130401611 L 35.31021499633789 11.13392066955566 L 32.65525436401367 5.754238605499268 L 30.00021362304688 11.13392066955566 L 29.88387298583984 11.36964130401611 L 29.62374305725098 11.40744113922119 L 23.68691825866699 12.27010822296143 L 27.98285293579102 16.45757102966309 L 28.17109298706055 16.64105033874512 L 28.12665367126465 16.90013122558594 L 27.1125659942627 22.81291007995605 L 32.42259216308594 20.02134132385254 L 32.6552734375 19.89902114868164 Z M 15.40762329101562 16.4793701171875 L 17.26545333862305 16.4793701171875 L 17.26545333862305 11.35997104644775 L 15.40762329101562 11.35997104644775 L 15.40762329101562 16.4793701171875 Z M 15.40762329101562 5.619491100311279 L 17.26545333862305 5.619491100311279 L 17.26545333862305 0.5000908970832825 L 15.40762329101562 0.5000908970832825 L 15.40762329101562 5.619491100311279 Z" stroke="none"/>
        <path d="M 3.814697265625e-06 0 L 3.814697265625e-06 5.326921463012695 C 4.745624542236328 5.326921463012695 8.593704223632812 9.173931121826172 8.593704223632812 13.91957092285156 C 8.593704223632812 18.66519165039062 4.745624542236328 22.51222038269043 3.814697265625e-06 22.51222038269043 L 3.814697265625e-06 27.83914184570312 L 14.90762329101562 27.83914184570312 L 14.90762329101562 21.71965026855469 L 17.76545333862305 21.71965026855469 L 17.76545333862305 27.83914184570312 L 48.77374267578125 27.83914184570312 L 48.77374267578125 0 L 3.814697265625e-06 0 M 17.76545333862305 6.119491577148438 L 14.90762329101562 6.119491577148438 L 14.90762329101562 9.1552734375e-05 L 17.76545333862305 9.1552734375e-05 L 17.76545333862305 6.119491577148438 M 38.86191558837891 23.72698974609375 L 32.65526580810547 20.46391105651855 L 26.44851303100586 23.72690200805664 L 27.63385391235352 16.81561088562012 L 22.6124439239502 11.92099094390869 L 29.55184364318848 10.91264152526855 L 32.65526580810547 4.62445068359375 L 35.75858306884766 10.91264152526855 L 42.69798278808594 11.92099094390869 L 37.67657470703125 16.81561088562012 L 38.86191558837891 23.72698974609375 M 17.76545333862305 16.9793701171875 L 14.90762329101562 16.9793701171875 L 14.90762329101562 10.85997009277344 L 17.76545333862305 10.85997009277344 L 17.76545333862305 16.9793701171875 M -0.9999961853027344 -1 L 3.814697265625e-06 -1 L 48.77374267578125 -1 L 49.77374267578125 -1 L 49.77374267578125 0 L 49.77374267578125 27.83914184570312 L 49.77374267578125 28.83914184570312 L 48.77374267578125 28.83914184570312 L 17.76545333862305 28.83914184570312 L 16.76545333862305 28.83914184570312 L 16.76545333862305 27.83914184570312 L 16.76545333862305 22.71965026855469 L 15.90762329101562 22.71965026855469 L 15.90762329101562 27.83914184570312 L 15.90762329101562 28.83914184570312 L 14.90762329101562 28.83914184570312 L 3.814697265625e-06 28.83914184570312 L -0.9999961853027344 28.83914184570312 L -0.9999961853027344 27.83914184570312 L -0.9999961853027344 22.51222038269043 L -0.9999961853027344 21.51222038269043 L 3.814697265625e-06 21.51222038269043 C 4.187183380126953 21.51222038269043 7.593704223632812 18.10617065429688 7.593704223632812 13.91957092285156 C 7.593704223632812 9.73297119140625 4.187183380126953 6.326921463012695 3.814697265625e-06 6.326921463012695 L -0.9999961853027344 6.326921463012695 L -0.9999961853027344 5.326921463012695 L -0.9999961853027344 0 L -0.9999961853027344 -1 Z M 16.76545333862305 1.000091552734375 L 15.90762329101562 1.000091552734375 L 15.90762329101562 5.119491577148438 L 16.76545333862305 5.119491577148438 L 16.76545333862305 1.000091552734375 Z M 40.54900360107422 12.61923217773438 L 35.61478424072266 11.90225124359131 L 35.09451293945312 11.82665061950684 L 34.86184310913086 11.35520172119141 L 32.65525054931641 6.884031295776367 L 30.44858360290527 11.35521125793457 L 30.21590232849121 11.82665061950684 L 29.69564247131348 11.90225124359131 L 24.76142120361328 12.61923217773438 L 28.33186340332031 16.09952163696289 L 28.70833396911621 16.46648025512695 L 28.61946296691895 16.98464965820312 L 27.7766284942627 21.89891815185547 L 32.18993377685547 19.57876968383789 L 32.6552734375 19.33414077758789 L 33.12061309814453 19.57878112792969 L 37.53379440307617 21.89896392822266 L 36.69096374511719 16.98464965820312 L 36.60209274291992 16.46648025512695 L 36.97856140136719 16.09952163696289 L 40.54900360107422 12.61923217773438 Z M 16.76545333862305 11.85997104644775 L 15.90762329101562 11.85997104644775 L 15.90762329101562 15.97937107086182 L 16.76545333862305 15.97937107086182 L 16.76545333862305 11.85997104644775 Z" stroke="none" fill="#1d2335"/>
      </g>
    </g>
  </g>
</svg>
