<svg width="24" height="24" viewBox="0 0 24 24" fill="none" xmlns="http://www.w3.org/2000/svg">
<path d="M7.77271 16.8668L9.88733 18.9203L9.38783 21.8202L12.0012 20.4518L14.6138 21.8202L14.1151 18.9203L16.229 16.8668L13.3073 16.4434L12.0016 13.8049L10.6943 16.4434L7.77271 16.8668ZM12.0008 16.0227L12.6526 17.3412L14.1132 17.5519L13.0572 18.5776L13.3062 20.0269L12.0012 19.3422L10.6955 20.0269L10.9445 18.5776L9.88921 17.5519L11.3483 17.3412L12.0008 16.0227Z" fill="#26C0D5"/>
<path d="M15.75 0.75H6.375V7.497H6.3765L8.66363 11.2718H8.625L8.62575 12.0217H10.9564C10.9761 12.2149 11.049 12.3988 11.1671 12.5529C11.2851 12.7071 11.4437 12.8254 11.625 12.8948V13.1437C9.00525 13.3365 6.9375 15.5182 6.9375 18.1875C6.9375 20.9835 9.20438 23.25 12 23.25C14.7964 23.25 17.0625 20.9835 17.0625 18.1879C17.0625 15.5186 14.9955 13.3365 12.375 13.1441V12.8951C12.5563 12.8258 12.7149 12.7074 12.8329 12.5533C12.951 12.3992 13.0239 12.2153 13.0436 12.0221H15.3757L15.375 11.2721H15.3368L17.6227 7.49738H17.625V0.75H15.75ZM8.25 9.86588V1.125H10.125V11.2721H9.102L8.25 9.86588ZM16.6875 18.1879C16.6875 20.7765 14.5898 22.875 12 22.875C9.411 22.875 7.3125 20.7765 7.3125 18.1879C7.3125 15.5989 9.411 13.5 12 13.5C14.5898 13.5 16.6875 15.5989 16.6875 18.1879ZM12.375 12.534V12.495C12.375 11.9126 11.625 11.9126 11.625 12.495V12.534C11.5338 12.4791 11.4558 12.4048 11.3965 12.3163C11.3373 12.2278 11.2983 12.1274 11.2823 12.0221H12.7178C12.7017 12.1274 12.6627 12.2278 12.6035 12.3163C12.5442 12.4048 12.4662 12.4791 12.375 12.534ZM13.875 11.2721V1.125H15.75V9.86588L14.8984 11.2721H13.875Z" fill="#26C0D5"/>
</svg>
