<svg fill="none" height="40" viewBox="0 0 42 40" width="42" xmlns="http://www.w3.org/2000/svg"><path clip-rule="evenodd" d="m21.132 6.14954-4.1383 8.38376c-.2746.5563-.8051.942-1.419 1.0318l-9.257 1.353 6.6968 6.5227c.4451.4335.6482 1.0583.5432 1.6706l-1.5801 9.2125 8.2762-4.3523c.5498-.2892 1.2066-.2892 1.7564 0l8.2762 4.3523-1.5801-9.2125c-.105-.6123.0982-1.2371.5432-1.6706l6.6968-6.5227-9.257-1.353c-.6139-.0898-1.1444-.4755-1.419-1.0318zm-7.0835 5.82496 5.3916-10.92285c.6922-1.402201 2.6917-1.402201 3.3838 0l5.3916 10.92285 12.0573 1.7623c1.547.2261 2.1636 2.1277 1.0436 3.2186l-8.723 8.4962 2.0586 12.003c.2644 1.5415-1.3536 2.7169-2.7378 1.9889l-10.7822-5.6702-10.7822 5.6702c-1.38416.728-3.00218-.4474-2.7378-1.9889l2.05865-12.003-8.723037-8.4962c-1.119988-1.0909-.503415-2.9925 1.043597-3.2186z" fill="#26c0d5" fill-rule="evenodd"/></svg>