<svg xmlns="http://www.w3.org/2000/svg" width="24.997" height="22.031" viewBox="0 0 24.997 22.031">
  <g id="speaker" transform="translate(0 -24.552)">
    <g id="Group_1789" data-name="Group 1789" transform="translate(17.289 31.301)">
      <g id="Group_1788" data-name="Group 1788">
        <path id="Path_4188" data-name="Path 4188" d="M287.94,136.766c-.155-.155-.309-.34-.495-.495l-1.237,1.392a3.853,3.853,0,0,1,.34,5.413,1.772,1.772,0,0,1-.34.34l1.237,1.392A5.684,5.684,0,0,0,287.94,136.766Z" transform="translate(-286.208 -136.271)" fill="#fff"/>
      </g>
    </g>
    <g id="Group_1791" data-name="Group 1791" transform="translate(20.413 28.053)">
      <g id="Group_1790" data-name="Group 1790" transform="translate(0 0)">
        <path id="Path_4189" data-name="Path 4189" d="M339.838,83.13c-.217-.217-.433-.433-.65-.619l-1.268,1.361a8.354,8.354,0,0,1,.526,11.784c-.155.186-.34.34-.526.526l1.268,1.361A10.213,10.213,0,0,0,339.838,83.13Z" transform="translate(-337.92 -82.511)" fill="#fff"/>
      </g>
    </g>
    <g id="Group_1793" data-name="Group 1793" transform="translate(0 24.552)">
      <g id="Group_1792" data-name="Group 1792" transform="translate(0 0)">
        <path id="Path_4190" data-name="Path 4190" d="M14.537,24.651a.965.965,0,0,0-.959.062L5.289,30.28H.928A.911.911,0,0,0,0,31.208V39.93a.911.911,0,0,0,.928.928H5.289l8.289,5.567a.943.943,0,0,0,1.3-.247,1.043,1.043,0,0,0,.155-.526v-20.2A.892.892,0,0,0,14.537,24.651Z" transform="translate(0 -24.552)" fill="#fff"/>
      </g>
    </g>
  </g>
</svg>
