<svg xmlns="http://www.w3.org/2000/svg" width="32.94" height="39.482" viewBox="0 0 32.94 39.482">
  <g id="user" transform="translate(0 0)">
    <path id="Path_8974" data-name="Path 8974" d="M96.541,19.019a9.2,9.2,0,0,0,6.724-2.786,9.2,9.2,0,0,0,2.786-6.724,9.2,9.2,0,0,0-2.786-6.724,9.507,9.507,0,0,0-13.447,0,9.2,9.2,0,0,0-2.786,6.723,9.2,9.2,0,0,0,2.786,6.724A9.2,9.2,0,0,0,96.541,19.019Zm-5.087-14.6a7.193,7.193,0,0,1,10.175,0,6.875,6.875,0,0,1,2.108,5.087,6.875,6.875,0,0,1-2.108,5.088,7.193,7.193,0,0,1-10.175,0,6.873,6.873,0,0,1-2.109-5.088,6.874,6.874,0,0,1,2.109-5.087Zm0,0" transform="translate(-80.32)" fill="#ccc"/>
    <path id="Path_8975" data-name="Path 8975" d="M32.861,258.6a23.487,23.487,0,0,0-.32-2.495,19.654,19.654,0,0,0-.614-2.508,12.391,12.391,0,0,0-1.031-2.339,8.819,8.819,0,0,0-1.555-2.026,6.856,6.856,0,0,0-2.234-1.4,7.72,7.72,0,0,0-2.851-.516,2.894,2.894,0,0,0-1.546.655c-.463.3-1.005.652-1.61,1.038a9.225,9.225,0,0,1-2.083.918,8.089,8.089,0,0,1-5.1,0,9.2,9.2,0,0,1-2.082-.918c-.6-.383-1.141-.732-1.612-1.039a2.891,2.891,0,0,0-1.545-.655,7.709,7.709,0,0,0-2.851.517,6.85,6.85,0,0,0-2.234,1.4,8.82,8.82,0,0,0-1.554,2.026,12.414,12.414,0,0,0-1.031,2.34A19.7,19.7,0,0,0,.4,256.11a23.327,23.327,0,0,0-.32,2.5C.026,259.36,0,260.144,0,260.937a6.556,6.556,0,0,0,1.947,4.96,7.009,7.009,0,0,0,5.018,1.83H25.976a7.01,7.01,0,0,0,5.017-1.83,6.554,6.554,0,0,0,1.947-4.96c0-.8-.027-1.58-.08-2.332ZM29.4,264.221a4.719,4.719,0,0,1-3.422,1.193H6.965a4.719,4.719,0,0,1-3.422-1.192,4.281,4.281,0,0,1-1.229-3.284c0-.74.024-1.47.073-2.172a21.041,21.041,0,0,1,.289-2.247,17.377,17.377,0,0,1,.539-2.211,10.105,10.105,0,0,1,.839-1.9,6.538,6.538,0,0,1,1.143-1.5,4.548,4.548,0,0,1,1.486-.924,5.324,5.324,0,0,1,1.822-.352c.081.043.225.125.459.278.476.31,1.024.664,1.63,1.051a11.463,11.463,0,0,0,2.615,1.168,10.4,10.4,0,0,0,6.519,0,11.478,11.478,0,0,0,2.616-1.169c.62-.4,1.153-.74,1.629-1.05.234-.152.378-.235.459-.278a5.327,5.327,0,0,1,1.823.352,4.554,4.554,0,0,1,1.486.924,6.52,6.52,0,0,1,1.143,1.5,10.073,10.073,0,0,1,.84,1.9,17.335,17.335,0,0,1,.54,2.211,21.218,21.218,0,0,1,.289,2.247h0c.049.7.074,1.429.074,2.171a4.281,4.281,0,0,1-1.229,3.284Zm0,0" transform="translate(0 -228.244)" fill="#ccc"/>
  </g>
</svg>
