<svg xmlns="http://www.w3.org/2000/svg" width="24" height="24" viewBox="0 0 24 24">
  <path id="Exclusion_2" data-name="Exclusion 2" d="M21,24H3a3,3,0,0,1-3-3V3A3,3,0,0,1,3,0H21a3,3,0,0,1,3,3V21A3,3,0,0,1,21,24Zm-9.321-8.085h0l3.868,2.839a.807.807,0,0,0,1.268-.486l2.562-12.25a.756.756,0,0,0-.155-.642.767.767,0,0,0-.882-.235L3.335,10.99a.547.547,0,0,0,.043,1.035l3.813,1.126,1.424,4.516a.655.655,0,0,0,1.093.262l1.97-2.013Zm-2.654.8a.07.07,0,0,1-.069-.051L7.852,13.1a.375.375,0,0,1,.16-.429L16.244,7.57a.178.178,0,0,1,.267.094.174.174,0,0,1-.051.2L9.489,14.025a.374.374,0,0,0-.123.238L9.1,16.649A.07.07,0,0,1,9.025,16.714Z" fill="#fff"/>
</svg>
