<svg xmlns="http://www.w3.org/2000/svg" width="24" height="24" viewBox="0 0 24 24">
  <path id="Exclusion_4" data-name="Exclusion 4" d="M21,24H3a3,3,0,0,1-3-3V3A3,3,0,0,1,3,0H21a3,3,0,0,1,3,3V21A3,3,0,0,1,21,24ZM3.748,17.564h0a9.114,9.114,0,0,0,5.194,1.629c6.024,0,9.624-5.252,9.624-10.329,0-.155,0-.315-.011-.472a7.519,7.519,0,0,0,1.7-1.877,6.378,6.378,0,0,1-1.948.562,3.576,3.576,0,0,0,1.487-2,6.424,6.424,0,0,1-2.146.878,3.289,3.289,0,0,0-2.471-1.147,3.517,3.517,0,0,0-3.382,3.63,4.406,4.406,0,0,0,.084.833A9.436,9.436,0,0,1,4.9,5.47,3.8,3.8,0,0,0,4.439,7.3a3.707,3.707,0,0,0,1.508,3.024,3.247,3.247,0,0,1-1.529-.461v.044a3.592,3.592,0,0,0,2.713,3.563,3.347,3.347,0,0,1-.89.124A3.9,3.9,0,0,1,5.6,13.54a3.429,3.429,0,0,0,3.163,2.518,6.459,6.459,0,0,1-4.2,1.551A6.39,6.39,0,0,1,3.748,17.564Z" fill="#fff"/>
</svg>
