<svg id="Group_18136" data-name="Group 18136" xmlns="http://www.w3.org/2000/svg" width="44.517" height="47.123" viewBox="0 0 44.517 47.123">
  <g id="Group_10990" data-name="Group 10990">
    <g id="Group_10989" data-name="Group 10989">
      <path id="Path_41" data-name="Path 41" d="M419.573,194.969a3.163,3.163,0,0,0-4.43-.528l-8.938,7a2.516,2.516,0,0,1-1.554.538l-6.4.006a1.578,1.578,0,1,1,0-3.157l5.366-.005a3.157,3.157,0,0,0-.006-6.313l-5.943.005-4.057.005h-3.116a7.582,7.582,0,0,0-4.675,1.619l-4.384,3.442a.631.631,0,0,0-.106.888l8.515,10.77a.63.63,0,0,0,.49.24l10.3.087,2.847.024a7.583,7.583,0,0,0,4.763-1.633l10.816-8.552A3.162,3.162,0,0,0,419.573,194.969Z" transform="translate(-375.738 -166.41)" fill="#ffd52b"/>
      <path id="Path_42" data-name="Path 42" d="M379.978,205.86a.63.63,0,0,0-.886-.1l-1.981,1.566a.631.631,0,0,0-.1.886l8.312,10.514a.632.632,0,0,0,.888.1l1.981-1.566a.633.633,0,0,0,.1-.888Zm24.267-34.021a11.119,11.119,0,1,0,11.12,11.119A11.119,11.119,0,0,0,404.246,171.839Zm-.619,8.981,2.567,1.321a3.873,3.873,0,0,1,2.071,4.121,3.767,3.767,0,0,1-2.221,2.9v.342a1.578,1.578,0,1,1-3.157,0v-.241a4.659,4.659,0,0,1-2.812-2.566,1.578,1.578,0,1,1,2.9-1.258,1.522,1.522,0,0,0,1.525.907.673.673,0,0,0,.653-.583.755.755,0,0,0-.4-.816l-2.567-1.321a3.893,3.893,0,0,1-2.049-4.208,3.784,3.784,0,0,1,2.754-3.021v-.235a1.578,1.578,0,1,1,3.157,0v.58a4.629,4.629,0,0,1,2.251,2.323,1.579,1.579,0,0,1-2.9,1.26,1.516,1.516,0,0,0-1.526-.908.675.675,0,0,0-.638.582A.727.727,0,0,0,403.627,180.82Z" transform="translate(-376.871 -171.839)" fill="#ffd52b"/>
    </g>
  </g>
</svg>
