<svg id="chart" xmlns="http://www.w3.org/2000/svg" width="42.554" height="29.985" viewBox="0 0 42.554 29.985">
  <path id="Path_1" data-name="Path 1" d="M143.541,261.449h-1.8v-1.8a1.247,1.247,0,0,0-2.494,0v1.8h-1.8A1.247,1.247,0,0,0,136.2,262.7v6.1a1.247,1.247,0,0,0,1.247,1.247h1.8v1.9a1.247,1.247,0,0,0,2.494,0v-1.9h1.8a1.247,1.247,0,0,0,1.247-1.247v-6.1A1.247,1.247,0,0,0,143.541,261.449Z" transform="translate(-124.875 -243.206)" fill="#ffd52b"/>
  <path id="Path_2" data-name="Path 2" d="M279.739,188.087h-1.8v-1.8a1.247,1.247,0,0,0-2.494,0v1.8h-1.8a1.247,1.247,0,0,0-1.247,1.247v6.1a1.247,1.247,0,0,0,1.247,1.247h1.8v8a1.247,1.247,0,0,0,2.494,0v-8h1.8a1.247,1.247,0,0,0,1.247-1.247v-6.1A1.247,1.247,0,0,0,279.739,188.087Z" transform="translate(-249.752 -175.942)" fill="#ffd52b"/>
  <path id="Path_3" data-name="Path 3" d="M415.937,78.657h-1.8v-1.8a1.247,1.247,0,0,0-2.494,0v1.8h-1.8a1.247,1.247,0,0,0-1.247,1.247V89a1.247,1.247,0,0,0,1.247,1.247h1.8V95.2a1.247,1.247,0,0,0,2.494,0V90.247h1.8A1.247,1.247,0,0,0,417.183,89V79.9a1.247,1.247,0,0,0-1.247-1.247Z" transform="translate(-374.629 -75.608)" fill="#ffd52b"/>
  <path id="Path_4" data-name="Path 4" d="M7.344,84.6h-1.8V76.856a1.247,1.247,0,0,0-2.494,0V84.6h-1.8A1.247,1.247,0,0,0,0,85.85V95.2a1.247,1.247,0,0,0,1.247,1.247h1.8v1.8a1.247,1.247,0,0,0,2.494,0v-1.8h1.8A1.247,1.247,0,0,0,8.591,95.2V85.85A1.247,1.247,0,0,0,7.344,84.6Z" transform="translate(0 -75.609)" fill="#ffd52b"/>
</svg>
