<svg xmlns="http://www.w3.org/2000/svg" width="42.17" height="42.17" viewBox="0 0 42.17 42.17">
  <g id="Group_18137" data-name="Group 18137" transform="translate(-173.5 -105.5)">
    <g id="Group_11015" data-name="Group 11015" transform="translate(173.5 105.5)">
      <g id="Group_11014" data-name="Group 11014">
        <g id="Group_11013" data-name="Group 11013">
          <path id="Path_58" data-name="Path 58" d="M206.575,123.7h7.855v-7.037a2.48,2.48,0,0,0-2.481-2.481H181.562a1.86,1.86,0,1,1,0-3.721h29.147v-2.481a2.48,2.48,0,0,0-2.481-2.481H178.461a4.961,4.961,0,0,0-4.961,4.961v32.248a4.961,4.961,0,0,0,4.961,4.961h33.488a2.48,2.48,0,0,0,2.481-2.481V139h-7.855a7.648,7.648,0,1,1,0-15.3Z" transform="translate(-173.5 -105.5)" fill="#ffd52b"/>
          <path id="Path_59" data-name="Path 59" d="M209.523,122.674h-8.475a4.548,4.548,0,1,0,0,9.1h8.475a.62.62,0,0,0,.62-.62v-7.855A.62.62,0,0,0,209.523,122.674Zm-7.442,6.407a1.86,1.86,0,1,1,1.86-1.86A1.86,1.86,0,0,1,202.081,129.081Z" transform="translate(-167.973 -101.373)" fill="#ffd52b"/>
        </g>
      </g>
    </g>
  </g>
</svg>
