<svg xmlns="http://www.w3.org/2000/svg" width="45" height="41.484" viewBox="0 0 45 41.484">
  <path id="browser" d="M37.969,17.314a1.758,1.758,0,0,1-1.758,1.758h-10.2a1.758,1.758,0,1,1,0-3.516h10.2A1.758,1.758,0,0,1,37.969,17.314ZM18.984,15.557H8.789a1.758,1.758,0,0,0,0,3.516h10.2a1.758,1.758,0,0,0,0-3.516Zm18.984,8.789a1.758,1.758,0,0,0-1.758-1.758h-10.2a1.758,1.758,0,1,0,0,3.516h10.2A1.758,1.758,0,0,0,37.969,24.346ZM18.984,22.588H8.789a1.758,1.758,0,0,0,0,3.516h10.2a1.758,1.758,0,1,0,0-3.516Zm7.031,7.031a1.758,1.758,0,1,0,0,3.516H32.7a1.758,1.758,0,0,0,0-3.516Zm-7.031,0H8.789a1.758,1.758,0,0,0,0,3.516h10.2a1.758,1.758,0,0,0,0-3.516ZM45,5.273V25.664a1.758,1.758,0,1,1-3.516,0V10.635H3.516V34.453a3.52,3.52,0,0,0,3.516,3.516H37.969a3.52,3.52,0,0,0,3.516-3.516,1.758,1.758,0,0,1,3.516,0,7.039,7.039,0,0,1-7.031,7.031H7.031A7.039,7.039,0,0,1,0,34.453V5.273A5.279,5.279,0,0,1,5.273,0H39.727A5.279,5.279,0,0,1,45,5.273Zm-14.15,0a1.758,1.758,0,1,0,1.758-1.758A1.76,1.76,0,0,0,30.85,5.273Zm8.789-1.758A1.758,1.758,0,1,0,41.4,5.273,1.76,1.76,0,0,0,39.639,3.516ZM3.516,7.119H27.668a5.263,5.263,0,0,1-.032-3.6H5.273A1.76,1.76,0,0,0,3.516,5.273Zm0,0" fill="#ffd52b"/>
</svg>
