<svg width="59" height="46" viewBox="0 0 59 46" fill="none" xmlns="http://www.w3.org/2000/svg">
<path d="M6.688 39.192C5.54667 39.192 4.512 38.9467 3.584 38.456C2.66667 37.9547 1.94133 37.2667 1.408 36.392C0.885333 35.5067 0.624 34.5093 0.624 33.4C0.624 32.2907 0.885333 31.2987 1.408 30.424C1.94133 29.5387 2.66667 28.8507 3.584 28.36C4.512 27.8587 5.552 27.608 6.704 27.608C7.67467 27.608 8.54933 27.7787 9.328 28.12C10.1173 28.4613 10.7787 28.952 11.312 29.592L9.648 31.128C8.89067 30.2533 7.952 29.816 6.832 29.816C6.13867 29.816 5.52 29.9707 4.976 30.28C4.432 30.5787 4.00533 31 3.696 31.544C3.39733 32.088 3.248 32.7067 3.248 33.4C3.248 34.0933 3.39733 34.712 3.696 35.256C4.00533 35.8 4.432 36.2267 4.976 36.536C5.52 36.8347 6.13867 36.984 6.832 36.984C7.952 36.984 8.89067 36.5413 9.648 35.656L11.312 37.192C10.7787 37.8427 10.1173 38.3387 9.328 38.68C8.53867 39.0213 7.65867 39.192 6.688 39.192ZM20.0196 36.6H14.8196L13.8276 39H11.1716L16.1636 27.8H18.7236L23.7316 39H21.0116L20.0196 36.6ZM19.2036 34.632L17.4276 30.344L15.6516 34.632H19.2036ZM24.6936 27.8H27.2856V36.888H32.9016V39H24.6936V27.8ZM34.1499 27.8H36.7419V36.888H42.3579V39H34.1499V27.8Z" fill="white"/>
<path d="M18.7162 15L24.2504 15C24.6648 15 25.0005 14.6803 25 14.2857L25 9.01549C25 8.061 23.7882 7.58287 23.0795 8.25789L21.5607 9.70435L17.0605 5.41854C16.475 4.86049 15.5253 4.86049 14.9394 5.41854L11.5 8.69406L9.3409 6.63731C9.04792 6.35829 8.57306 6.35829 8.28008 6.63731L7.21973 7.64716C6.92675 7.92618 6.92675 8.37842 7.21973 8.65745L10.4397 11.724C11.0252 12.2821 11.9749 12.2821 12.5608 11.724L16.0002 8.44851L19.4395 11.7245L17.9207 13.1709C17.2119 13.846 17.714 15 18.7162 15Z" fill="white"/>
<path d="M24.25 18H4V3.75C4 3.33562 3.66438 3 3.25 3H1.75C1.33562 3 1 3.33562 1 3.75V19.5C1 20.3283 1.67172 21 2.5 21H24.25C24.6644 21 25 20.6644 25 20.25V18.75C25 18.3356 24.6644 18 24.25 18Z" fill="white"/>
</svg>
