<svg width="670" height="670" viewBox="0 0 670 670" fill="none" xmlns="http://www.w3.org/2000/svg">
<circle cx="335" cy="335" r="335" fill="#F5F2F9"/>
<circle cx="335.5" cy="335.5" r="173.5" fill="#DBD7ED"/>
<path d="M289 220.733C289 217.272 285.493 214.467 281.167 214.467C276.84 214.467 273.333 217.272 273.333 220.733V264.6H257.667V415H273.333V452.6C273.333 456.061 276.84 458.867 281.167 458.867C285.493 458.867 289 456.061 289 452.6V415H304.667V264.6H289V220.733Z" fill="#653AAC"/>
<path d="M398.667 195.667C398.667 192.205 395.16 189.4 390.833 189.4C386.507 189.4 383 192.205 383 195.667V239.533H367.333V389.933H383V427.533C383 430.995 386.507 433.8 390.833 433.8C395.16 433.8 398.667 430.995 398.667 427.533V389.933H414.333V239.533H398.667V195.667Z" fill="#653AAC"/>
<path d="M179.333 139.267C179.333 135.805 175.827 133 171.5 133C167.173 133 163.667 135.805 163.667 139.267V183.133H148V333.533H163.667V371.133C163.667 374.595 167.173 377.4 171.5 377.4C175.827 377.4 179.333 374.595 179.333 371.133V333.533H195V183.133H179.333V139.267Z" fill="#653AAC"/>
<path d="M524 314.733H508.333V270.867C508.333 267.405 504.827 264.6 500.5 264.6C496.173 264.6 492.667 267.405 492.667 270.867V314.733H477V465.133H492.667V502.733C492.667 506.195 496.173 509 500.5 509C504.827 509 508.333 506.195 508.333 502.733V465.133H524V314.733Z" fill="#653AAC"/>
<rect x="156" y="191" width="31" height="133" fill="white"/>
<rect x="266" y="274" width="31" height="133" fill="white"/>
<rect x="376" y="248" width="31" height="133" fill="white"/>
<rect x="485" y="324" width="31" height="133" fill="white"/>
</svg>
