<svg width="670" height="670" viewBox="0 0 670 670" fill="none" xmlns="http://www.w3.org/2000/svg">
<circle cx="335" cy="335" r="335" fill="#F5F2F9"/>
<circle cx="335.5" cy="335.5" r="173.5" fill="#DBD7ED"/>
<path d="M164.114 256.736L332.407 196.585L508.379 256.736V263.135L332.407 323.285L164.114 263.135V256.736Z" fill="#F5F2F9"/>
<path d="M536.084 273.029C540.962 271.295 544.219 266.675 544.213 261.497C544.206 256.32 540.939 251.708 536.057 249.986L339.673 180.697C337.042 179.768 334.171 179.768 331.54 180.697L135.157 249.986C130.274 251.708 127.007 256.32 127 261.497C126.993 266.675 130.251 271.295 135.129 273.029L212.924 300.685V380.418C212.924 393.577 226.652 404.706 253.727 413.493C277.326 421.153 306.406 425.372 335.607 425.372C364.809 425.372 393.888 421.153 417.488 413.493C444.563 404.706 458.291 393.578 458.291 380.418V300.685L490.41 289.267V399.75C476.127 404.8 465.862 418.432 465.862 434.424C465.862 450.415 476.127 464.048 490.41 469.098V515.778C490.41 522.529 495.883 528.001 502.633 528.001C509.384 528.001 514.856 522.529 514.856 515.778V469.098C529.14 464.048 539.404 450.416 539.404 434.424C539.404 418.433 529.14 404.8 514.856 399.75V280.575L536.084 273.029ZM502.633 446.748C495.837 446.748 490.308 441.219 490.308 434.423C490.308 427.627 495.837 422.098 502.633 422.098C509.429 422.098 514.957 427.627 514.957 434.423C514.957 441.219 509.429 446.748 502.633 446.748ZM335.606 205.184L495.377 261.556L335.606 318.355L175.836 261.555L335.606 205.184ZM433.844 378.575C431.501 380.937 423.114 386.593 404.186 391.993C383.993 397.753 359.637 400.926 335.606 400.926C311.576 400.926 287.221 397.753 267.027 391.993C248.099 386.593 239.712 380.938 237.369 378.575V309.376L331.512 342.844C332.836 343.315 334.221 343.551 335.606 343.551C336.991 343.551 338.375 343.315 339.7 342.844L433.842 309.376V378.575H433.844Z" fill="#5524A3"/>
</svg>
