<svg width="670" height="670" viewBox="0 0 670 670" fill="none" xmlns="http://www.w3.org/2000/svg">
<circle cx="335" cy="335" r="335" fill="#F5F2F9"/>
<circle cx="335.5" cy="335.5" r="173.5" fill="#DBD7ED"/>
<rect x="208.477" y="165.562" width="248.219" height="322.816" fill="white"/>
<path d="M420.718 456.031L378.798 482.768V469.895V439.197L391.671 422.033L438.212 340.504L473.2 281.42L497.956 235.209H507.528H524.032L536.905 249.732L524.032 273.498L420.718 456.031Z" fill="#DBD7ED" stroke="black"/>
<path d="M525.892 229.954C512.656 222.31 495.664 226.865 488.019 240.101L463.422 282.714V247.422C463.422 243.778 460.464 240.82 456.82 240.82C453.17 240.82 450.219 243.778 450.219 247.422V305.516V305.575L377.714 431.157C377.252 431.949 376.968 432.833 376.869 433.751L371.904 479.797H215.203V168.203H450.219V188.008C450.219 191.652 453.17 194.609 456.82 194.609C460.464 194.609 463.422 191.652 463.422 188.008V161.602C463.422 157.957 460.464 155 456.82 155H208.602C204.951 155 202 157.957 202 161.602V486.398C202 490.043 204.951 493 208.602 493H456.82C460.464 493 463.422 490.043 463.422 486.398V393.613L536.046 267.827C543.684 254.591 539.135 237.599 525.892 229.954ZM388.91 445.244L407.942 456.229L385.999 472.258L388.91 445.244ZM450.219 479.797H398.066L423.918 460.91C424.658 460.368 425.278 459.675 425.74 458.883L450.219 416.488V479.797ZM417.607 446.565L392.448 432.041L489.076 264.685L514.228 279.208L417.607 446.565ZM524.605 261.226L520.829 267.774L495.677 253.251L499.453 246.702C503.454 239.771 512.359 237.387 519.291 241.388C526.229 245.395 528.612 254.294 524.605 261.226Z" fill="#5524A3"/>
<path d="M456.82 211.113C455.077 211.113 453.381 211.82 452.153 213.048C450.925 214.275 450.219 215.979 450.219 217.715C450.219 219.458 450.925 221.154 452.153 222.382C453.381 223.61 455.084 224.316 456.82 224.316C458.557 224.316 460.26 223.61 461.488 222.382C462.716 221.154 463.422 219.451 463.422 217.715C463.422 215.979 462.716 214.275 461.488 213.048C460.26 211.82 458.563 211.113 456.82 211.113Z" fill="#5524A3"/>
<path d="M399.387 224.977H266.035C262.384 224.977 259.434 227.934 259.434 231.578C259.434 235.222 262.384 238.18 266.035 238.18H399.387C403.031 238.18 405.988 235.222 405.988 231.578C405.988 227.934 403.031 224.977 399.387 224.977Z" fill="#5524A3"/>
<path d="M399.387 261.945H266.035C262.384 261.945 259.434 264.903 259.434 268.547C259.434 272.191 262.384 275.148 266.035 275.148H399.387C403.031 275.148 405.988 272.191 405.988 268.547C405.988 264.903 403.031 261.945 399.387 261.945Z" fill="#5524A3"/>
<path d="M399.387 298.914H350.37C346.72 298.914 343.769 301.872 343.769 305.516C343.769 309.16 346.72 312.117 350.37 312.117H399.387C403.031 312.117 405.988 309.16 405.988 305.516C405.988 301.872 403.031 298.914 399.387 298.914Z" fill="#5524A3"/>
<path d="M405.988 342.484C405.988 338.84 403.031 335.883 399.387 335.883H266.035C262.384 335.883 259.434 338.84 259.434 342.484C259.434 346.128 262.384 349.086 266.035 349.086H399.387C403.031 349.086 405.988 346.128 405.988 342.484Z" fill="#5524A3"/>
<path d="M377.601 379.453C377.601 375.809 374.644 372.852 371 372.852H329.74C326.089 372.852 323.139 375.809 323.139 379.453C323.139 383.097 326.089 386.055 329.74 386.055H371C374.644 386.055 377.601 383.097 377.601 379.453Z" fill="#5524A3"/>
<path d="M266.035 423.024H324.129C327.773 423.024 330.73 420.066 330.73 416.422C330.73 412.778 327.773 409.82 324.129 409.82H266.035C262.384 409.82 259.434 412.778 259.434 416.422C259.434 420.066 262.384 423.024 266.035 423.024Z" fill="#5524A3"/>
<path d="M266.035 312.117H310.041C313.692 312.117 316.643 309.16 316.643 305.516C316.643 301.872 313.692 298.914 310.041 298.914H266.035C262.384 298.914 259.434 301.872 259.434 305.516C259.434 309.16 262.384 312.117 266.035 312.117Z" fill="#5524A3"/>
<path d="M266.035 386.055H300.033C303.677 386.055 306.635 383.097 306.635 379.453C306.635 375.809 303.677 372.852 300.033 372.852H266.035C262.384 372.852 259.434 375.809 259.434 379.453C259.434 383.097 262.384 386.055 266.035 386.055Z" fill="#5524A3"/>
</svg>
