<?xml version="1.0" encoding="UTF-8" standalone="no"?>
<!-- Created with Inkscape (http://www.inkscape.org/) -->

<svg
   xmlns:dc="http://purl.org/dc/elements/1.1/"
   xmlns:cc="http://creativecommons.org/ns#"
   xmlns:rdf="http://www.w3.org/1999/02/22-rdf-syntax-ns#"
   xmlns:svg="http://www.w3.org/2000/svg"
   xmlns="http://www.w3.org/2000/svg"
   xmlns:sodipodi="http://sodipodi.sourceforge.net/DTD/sodipodi-0.dtd"
   xmlns:inkscape="http://www.inkscape.org/namespaces/inkscape"
   version="1.1"
   id="svg19759"
   width="88.292"
   height="131.22853">
  <metadata
     id="metadata19765">
    <rdf:RDF>
      <cc:Work
         rdf:about="">
        <dc:format>image/svg+xml</dc:format>
        <dc:type
           rdf:resource="http://purl.org/dc/dcmitype/StillImage" />
      </cc:Work>
    </rdf:RDF>
  </metadata>
  <defs
     id="defs19763" />
  <sodipodi:namedview
     pagecolor="#ffffff"
     bordercolor="#666666"
     borderopacity="1"
     objecttolerance="10"
     gridtolerance="10"
     guidetolerance="10"
     inkscape:pageopacity="0"
     inkscape:pageshadow="2"
     inkscape:window-width="640"
     inkscape:window-height="480"
     id="namedview19761" />
  <inkscape:clipboard
     style="font-variant-east_asian:normal;opacity:1;vector-effect:none;fill:#ffffff;fill-opacity:1;stroke-width:1.3333333;stroke-linecap:butt;stroke-linejoin:miter;stroke-miterlimit:4;stroke-dasharray:none;stroke-dashoffset:0;stroke-opacity:1;stroke:none"
     min="2805.119,455.23364"
     max="2893.411,586.46217" />
  <g
     id="g19757"
     transform="matrix(1.3333333,0,0,-1.3333333,88.250664,111.8792)">
    <path
       transform="translate(-33.071315,35.775403)"
       inkscape:connector-curvature="0"
       id="path15398"
       style="fill:#ffffff;fill-opacity:1;fill-rule:nonzero;stroke:none"
       d="M 0,0 C 9.682,0 17.531,10.774 17.531,24.066 17.531,37.358 14.95,48.134 0,48.134 -14.95,48.134 -17.53,37.359 -17.53,24.066 -17.53,10.773 -9.686,0 0,0" />
    <path
       inkscape:connector-curvature="0"
       id="path15402"
       style="fill:#ffffff;fill-opacity:1;fill-rule:nonzero;stroke:none"
       d="m 0,0 c -0.325,23.154 -3,29.752 -23.476,33.929 0,0 -2.88,-4.151 -9.599,-4.151 -6.718,0 -9.6,4.151 -9.6,4.151 -20.251,-4.131 -23.09,-10.631 -23.463,-33.177 -0.03,-1.841 -0.045,-1.939 -0.05,-1.725 v -2.432 c 0,0 4.875,-11.107 33.11,-11.107 28.235,0 33.109,11.107 33.109,11.107 v 1.8 C 0.031,-1.738 0.02,-1.482 0,0" />
  </g>
</svg>
