<svg width="56" height="52" viewBox="0 0 56 52" fill="none" xmlns="http://www.w3.org/2000/svg">
<path d="M13.6867 5.39101V46.9247C13.6867 47.9113 12.8872 48.7108 11.9006 48.7108H8.46077C7.47421 48.7108 6.67358 47.9113 6.67358 46.9247V5.39101C6.67358 4.40445 7.47421 3.60382 8.46077 3.60382H11.9006C12.8872 3.60393 13.6867 4.40455 13.6867 5.39101Z" fill="#4A80AA"/>
<path d="M6.67358 27.8719H13.6867V35.1956H6.67358V27.8719Z" fill="#407093"/>
<path d="M11.2356 48.7105H8.46077C7.47421 48.7105 6.67358 47.911 6.67358 46.9244V5.3907C6.67358 4.40414 7.47421 3.60352 8.46077 3.60352H11.2356C10.2491 3.60352 9.44952 4.40414 9.44952 5.3907V46.9244C9.44952 47.911 10.2491 48.7105 11.2356 48.7105Z" fill="#407093"/>
<path d="M49.3259 5.39101V46.9247C49.3259 47.9113 48.5263 48.7108 47.5398 48.7108H44.0999C43.1134 48.7108 42.3127 47.9113 42.3127 46.9247V5.39101C42.3127 4.40445 43.1134 3.60382 44.0999 3.60382H47.5398C48.5263 3.60393 49.3259 4.40455 49.3259 5.39101Z" fill="#4A80AA"/>
<path d="M42.313 27.8719H49.3261V35.1956H42.313V27.8719Z" fill="#407093"/>
<path d="M46.875 48.7105H44.1002C43.1136 48.7105 42.313 47.911 42.313 46.9244V5.3907C42.313 4.40414 43.1136 3.60352 44.1002 3.60352H46.875C45.8885 3.60352 45.0889 4.40414 45.0889 5.3907V46.9244C45.089 47.911 45.8886 48.7105 46.875 48.7105Z" fill="#407093"/>
<path d="M54.8932 13.6453V24.7983C54.8932 27.8728 52.4005 30.3655 49.326 30.3655H45.3513L42.8425 28.0388L38.0155 30.3655H25.1301L23.2996 28.1083L17.7932 30.3655H6.67412C6.10865 30.3655 5.56287 30.2813 5.04881 30.1238C3.90803 29.7765 5.04443 25.9957 4.34411 25.0648C3.64378 24.1339 1.10693 26.0528 1.10693 24.7983V13.6453C1.10693 10.5708 3.59959 8.07812 6.67412 8.07812H10.6488L12.3861 10.7255L17.9846 8.07812H30.8701L32.93 10.0318L38.2069 8.07812H49.326C49.8915 8.07812 50.4372 8.16234 50.9513 8.31984C52.258 8.71764 51.2833 11.1132 51.9872 12.252C52.5123 13.1015 54.8932 12.5732 54.8932 13.6453Z" fill="#FF0000"/>
<path d="M11.4823 30.3646H6.6736C6.10835 30.3646 5.56268 30.2803 5.04851 30.1237C3.28844 28.3636 4.27446 26.0709 4.27446 23.5615L1.10718 24.3389V13.6447C1.10718 10.5713 3.60027 8.07825 6.6736 8.07825H11.4824C8.40741 8.07825 5.91596 10.5713 5.91596 13.6447V24.7983C5.91585 27.8733 8.4073 30.3646 11.4823 30.3646Z" fill="#FF0000"/>
<path d="M17.9846 8.07811L6.60193 27.4768L5.04881 30.1236C2.76725 29.4291 1.10693 27.3072 1.10693 24.7982V24.3388L5.91615 16.1433L10.6083 8.14691L10.6488 8.078H17.9846V8.07811Z" fill="#F9F6F9"/>
<path d="M38.207 8.07812L25.1301 30.3655H17.7932L30.8701 8.07812H38.207Z" fill="#F9F6F9"/>
<path d="M54.8933 13.6453V14.1047L45.3514 30.3654H38.0156L50.9514 8.31982C53.233 9.01425 54.8933 11.1362 54.8933 13.6453Z" fill="#F9F6F9"/>
<path d="M5.91615 24.7982C5.91615 25.7695 6.16443 26.6827 6.60193 27.4768L5.04881 30.1237C2.76725 29.4292 1.10693 27.3073 1.10693 24.7982V24.3388L5.91615 16.1434V24.7982Z" fill="#DDDAEC"/>
<path d="M11.4818 8.07812C11.1843 8.07812 10.8923 8.10109 10.6079 8.14703L10.6484 8.07812H11.4818Z" fill="#DDDAEC"/>
<path d="M0.820312 47.6934C0.820312 45.0869 2.93333 42.9738 5.53995 42.9738C7.64083 42.9738 9.42025 44.3469 10.032 46.2443C10.6436 44.3469 12.4231 42.9738 14.524 42.9738C16.6249 42.9738 18.4043 44.3469 19.016 46.2443C19.6277 44.3469 21.4072 42.9738 23.5081 42.9738C25.609 42.9738 27.3884 44.3469 28.0001 46.2443C28.6117 44.3469 30.3913 42.9738 32.4921 42.9738C34.593 42.9738 36.3724 44.3469 36.9842 46.2443C37.5958 44.3469 39.3752 42.9738 41.4762 42.9738C43.5771 42.9738 45.3565 44.3469 45.9682 46.2443C46.5799 44.3469 48.3593 42.9738 50.4603 42.9738C53.0668 42.9738 55.1799 45.0868 55.1799 47.6934V50.3068H0.820312V47.6934Z" fill="#00BD32"/>
<path d="M16.7408 43.525C15.2511 44.3201 14.2371 45.8879 14.2371 47.6942V50.3067H0.820312V47.6942C0.820312 45.0872 2.93344 42.9741 5.54039 42.9741C7.64105 42.9741 9.4208 44.348 10.0318 46.245C10.644 44.348 12.4225 42.9741 14.5245 42.9741C15.3251 42.9741 16.0797 43.1735 16.7408 43.525Z" fill="#00BD32"/>
<path d="M25.1934 3.31389L17.7096 16.2761C16.4621 18.4368 18.0214 21.1377 20.5165 21.1377H35.484C37.979 21.1377 39.5384 18.4368 38.2909 16.2761L30.8071 3.31389C29.5596 1.15318 26.4409 1.15318 25.1934 3.31389Z" fill="#FFB800"/>
<path d="M29.3287 1.97356C28.7381 2.23606 28.2142 2.68231 27.8499 3.31341L20.3665 16.2754C19.1185 18.4356 20.6782 21.1372 23.1731 21.1372H20.5163C18.0215 21.1372 16.4618 18.4356 17.7087 16.2754L25.1932 3.31341C26.0759 1.78325 27.8981 1.33591 29.3287 1.97356Z" fill="#F7931A"/>
<path d="M28 15.0665C27.0939 15.0665 26.3594 14.3319 26.3594 13.4259V8.22302C26.3594 7.31696 27.0939 6.5824 28 6.5824C28.9061 6.5824 29.6406 7.31696 29.6406 8.22302V13.4258C29.6406 14.3319 28.9061 15.0665 28 15.0665Z" fill="#407093"/>
<path d="M28 18.3477C27.0939 18.3477 26.3594 17.6131 26.3594 16.707C26.3594 15.801 27.0939 15.0664 28 15.0664C28.9061 15.0664 29.6406 15.801 29.6406 16.707C29.6406 17.6132 28.9061 18.3477 28 18.3477Z" fill="#407093"/>
<path d="M50.4602 42.1531C50.3548 42.1531 50.2503 42.1568 50.1463 42.1626V31.1306C53.282 30.7265 55.7134 28.0415 55.7134 24.7975V13.6457C55.7134 10.4018 53.2821 7.71687 50.1466 7.31273V5.39068C50.1466 3.95349 48.9769 2.78428 47.5391 2.78428H44.1003C42.6625 2.78428 41.4928 3.95349 41.4928 5.39068V7.25815H34.0317L31.5173 2.90328C30.7832 1.63168 29.4683 0.87262 28 0.87262C26.5317 0.87262 25.2168 1.63168 24.4827 2.90328L21.9684 7.25815H14.5073V5.39068C14.5073 3.95349 13.3375 2.78428 11.8998 2.78428H8.46103C7.02319 2.78428 5.85353 3.95349 5.85353 5.39068V7.31262C2.71786 7.71687 0.286563 10.4018 0.286563 13.6457V24.7975C0.286563 28.0416 2.71797 30.7265 5.85375 31.1306V42.1626C5.74973 42.1568 5.64506 42.1531 5.53984 42.1531C2.48511 42.1531 0 44.6384 0 47.693V50.3071C0 50.7601 0.367281 51.1274 0.820312 51.1274H41.4203C41.8733 51.1274 42.2406 50.7601 42.2406 50.3071C42.2406 49.854 41.8733 49.4867 41.4203 49.4867H1.64062V47.693C1.64062 45.543 3.38986 43.7938 5.53984 43.7938C7.23877 43.7938 8.7302 44.8795 9.25116 46.4954C9.36042 46.8344 9.67586 47.0641 10.0319 47.0641C10.388 47.0641 10.7033 46.8344 10.8126 46.4954C11.3335 44.8795 12.825 43.7938 14.5239 43.7938C16.2228 43.7938 17.7143 44.8795 18.2352 46.4954C18.3445 46.8344 18.6599 47.0641 19.0159 47.0641C19.372 47.0641 19.6874 46.8344 19.7967 46.4954C20.3176 44.8795 21.809 43.7938 23.508 43.7938C25.2069 43.7938 26.6983 44.8795 27.2193 46.4954C27.3285 46.8344 27.644 47.0641 28 47.0641C28.356 47.0641 28.6715 46.8344 28.7807 46.4954C29.3017 44.8795 30.7931 43.7938 32.492 43.7938C34.191 43.7938 35.6824 44.8795 36.2033 46.4954C36.3126 46.8344 36.628 47.0641 36.9841 47.0641C37.3401 47.0641 37.6555 46.8344 37.7648 46.4954C38.2857 44.8795 39.7772 43.7938 41.4761 43.7938C43.175 43.7938 44.6665 44.8795 45.1874 46.4954C45.2967 46.8344 45.612 47.0641 45.9681 47.0641C46.3241 47.0641 46.6396 46.8344 46.7488 46.4954C47.2698 44.8795 48.7612 43.7938 50.4602 43.7938C52.6101 43.7938 54.3594 45.543 54.3594 47.693V49.4867H44.6994C44.2463 49.4867 43.8791 49.854 43.8791 50.3071C43.8791 50.7601 44.2463 51.1274 44.6994 51.1274H55.1797C55.6327 51.1274 56 50.7601 56 50.3071V47.693C56 44.6384 53.5149 42.1531 50.4602 42.1531ZM49.3259 29.5444H46.7842L54.0728 17.1234V24.7975C54.0728 27.415 51.9434 29.5444 49.3259 29.5444ZM54.0728 13.6457V13.8817L44.8819 29.5444H39.4483L51.3074 9.33376C52.9378 10.086 54.0728 11.7353 54.0728 13.6457ZM29.112 21.9577L24.6609 29.5445H19.2262L23.6773 21.9577H29.112ZM31.0142 21.9577H35.4838C36.952 21.9577 38.2669 21.1985 39.001 19.9269C39.7352 18.6555 39.7352 17.1371 39.001 15.8656L36.8129 12.0757L38.6766 8.89888H49.3259C49.436 8.89888 49.5448 8.90403 49.6531 8.91146L37.5461 29.5444H26.5629L31.0142 21.9577ZM43.1333 5.39068C43.1333 4.85813 43.5671 4.4249 44.1002 4.4249H47.539C48.0722 4.4249 48.5058 4.85813 48.5058 5.39068V7.25815H43.1333V5.39068ZM36.7745 8.89878L35.8694 10.4414L34.9788 8.89878H36.7745ZM25.9035 3.72359C26.3411 2.96562 27.1249 2.51324 28 2.51324C28.8751 2.51324 29.6589 2.96573 30.0965 3.72359L37.5803 16.6858C38.0178 17.4437 38.0178 18.3487 37.5803 19.1065C37.1427 19.8645 36.3589 20.317 35.4838 20.317H20.5162C19.6411 20.317 18.8573 19.8645 18.4197 19.1065C17.9822 18.3487 17.9822 17.4437 18.4197 16.6858L25.9035 3.72359ZM8.46092 4.42501H11.8997C12.4329 4.42501 12.8665 4.85824 12.8665 5.39079V7.25826H7.49405V5.39068C7.49416 4.85824 7.92783 4.42501 8.46092 4.42501ZM6.67406 8.89878H9.21605L1.92719 21.3201V13.6457C1.92719 11.0282 4.05661 8.89878 6.67406 8.89878ZM1.92719 24.7975V24.5618L11.1183 8.89878H16.5519L14.0374 13.1834C13.808 13.5742 13.939 14.0768 14.3297 14.3062C14.46 14.3827 14.603 14.4191 14.7441 14.4191C15.0255 14.4191 15.2996 14.2742 15.4523 14.0139L18.4543 8.89878H21.0212L16.999 15.8655C16.2648 17.137 16.2648 18.6554 16.999 19.9268C17.7331 21.1984 19.048 21.9576 20.5162 21.9576H21.7751L17.324 29.5444H6.67406C6.56414 29.5444 6.45542 29.5393 6.34736 29.5319L13.7921 16.8444C14.0213 16.4537 13.8904 15.9511 13.4997 15.7218C13.1091 15.4926 12.6065 15.6234 12.3771 16.0142L4.69306 29.1096C3.06228 28.3574 1.92719 26.708 1.92719 24.7975ZM10.0319 44.4456C9.39477 43.5617 8.51123 42.8878 7.49437 42.5064V31.185H12.8669V42.4046C11.7251 42.7603 10.7303 43.4766 10.0319 44.4456ZM36.9841 44.4456C35.9638 43.0302 34.3116 42.1531 32.492 42.1531C30.6725 42.1531 29.0201 43.0301 28 44.4456C26.9799 43.0301 25.3275 42.1531 23.508 42.1531C21.6884 42.1531 20.0361 43.0302 19.0159 44.4456C17.9958 43.0301 16.3435 42.1531 14.5239 42.1531C14.5184 42.1531 14.513 42.1536 14.5075 42.1536V31.185H41.4925V42.1536C41.487 42.1536 41.4816 42.1531 41.4761 42.1531C39.6565 42.1531 38.0042 43.0301 36.9841 44.4456ZM45.9681 44.4456C45.2698 43.4766 44.2749 42.7603 43.1331 42.4046V31.185H48.5056V42.5063C47.4888 42.8878 46.6051 43.5617 45.9681 44.4456Z" fill="black"/>
<path d="M28 19.1681C29.357 19.1681 30.4609 18.0642 30.4609 16.7072C30.4609 16.0774 30.2228 15.5023 29.8324 15.0666C30.2229 14.6308 30.4609 14.0557 30.4609 13.4259V8.22308C30.4609 6.86607 29.357 5.76215 28 5.76215C26.643 5.76215 25.5391 6.86607 25.5391 8.22308V13.4258C25.5391 14.0556 25.7772 14.6307 26.1676 15.0665C25.7771 15.5022 25.5391 16.0773 25.5391 16.7071C25.5391 18.0641 26.643 19.1681 28 19.1681ZM28 17.5275C27.5476 17.5275 27.1797 17.1596 27.1797 16.7072C27.1797 16.2548 27.5476 15.8869 28 15.8869C28.4524 15.8869 28.8203 16.2548 28.8203 16.7072C28.8203 17.1596 28.4524 17.5275 28 17.5275ZM27.1797 8.22308C27.1797 7.77071 27.5476 7.40277 28 7.40277C28.4524 7.40277 28.8203 7.77071 28.8203 8.22308V13.4258C28.8203 13.8782 28.4524 14.2461 28 14.2461C27.5476 14.2461 27.1797 13.8782 27.1797 13.4258V8.22308Z" fill="black"/>
</svg>
