<?xml version="1.0" encoding="utf-8"?>
<!-- Generator: Adobe Illustrator 21.0.0, SVG Export Plug-In . SVG Version: 6.00 Build 0)  -->
<svg version="1.1" id="Layer_1" xmlns="http://www.w3.org/2000/svg" xmlns:xlink="http://www.w3.org/1999/xlink" x="0px" y="0px"
	 viewBox="0 0 100 100" style="enable-background:new 0 0 100 100;" xml:space="preserve">
<style type="text/css">
	.st0{opacity:0.1;}
	.st1{fill:#62CBE6;}
	.st2{fill:#2791CF;}
	.st3{fill:#154270;}
	.st4{fill:#FFFFFF;}
	.st5{opacity:0.75;fill:#62CBE6;}
	.st6{opacity:0.5;fill:#62CBE6;}
	.st7{opacity:0.5;fill:#2791CF;}
</style>
<g class="st0">
	<path class="st1" d="M50,61.3l-5,6.7l0,0l5,6.7l5-6.8L50,61.3z M42.4,51.2l-5-6.7l0,0l-1.5-2L16.8,16.8h15.1l11.5,15.4l5-6.8
		L36,8.7H0.6l30.2,40.5l1.5,2.1l6.6,8.8l4.5,6l5-6.8l-4.5-6L42.4,51.2z M50,27.5l-5,6.8l5,6.7l5-6.7l0,0L50,27.5z M69.2,53.2
		l-1.5-2.1l-6.6-8.8l-4.5-6l-5,6.8l4.5,6l1.5,2.1l5,6.7l0,0l1.5,2l19.1,25.6H68.1L56.6,70.1l-5,6.8L64,93.7h35.4L69.2,53.2z"/>
	<g>
		<polygon class="st1" points="48.5,43.1 44,49.1 38.9,42.3 21.6,19.2 30.6,19.2 43.4,36.3 		"/>
	</g>
	<g>
		<polygon class="st1" points="54.5,51.2 50,57.2 45.5,51.2 50,45.1 		"/>
	</g>
	<g>
		<polygon class="st1" points="78.4,83.2 69.4,83.2 56.6,66 51.5,59.3 56,53.2 61.1,60 		"/>
	</g>
	<g>
		<polygon class="st1" points="78.4,19.2 61.1,42.3 56,49.1 54.5,51.2 50,57.2 48.5,59.3 43.4,66 30.6,83.2 21.6,83.2 38.9,60 
			44,53.2 45.5,51.2 50,45.1 51.5,43.1 56.6,36.3 69.4,19.2 		"/>
	</g>
	<path class="st1" d="M37.4,44.4L37.4,44.4l-5,6.7l5,6.8l5-6.7L37.4,44.4z M64,8.7L51.5,25.4L50,27.5l-6.6,8.8l-4.5,6l5,6.8l4.5-6
		L50,41l5-6.7l0,0l1.5-2l11.5-15.4h15.1L64.1,42.4l5,6.8L99.4,8.7H64z M62.6,44.4l-5,6.7l5,6.7l0,0l5-6.7L62.6,44.4z M51.5,59.3
		L50,61.3l-5,6.7l0,0l-1.5,2L31.9,85.5H16.8L35.9,60l-5-6.8L0.6,93.7H36l12.5-16.7l1.5-2.1l6.6-8.8l4.5-6l-5-6.8L51.5,59.3z"/>
</g>
<g>
	<g>
		<rect x="33.4" y="7.8" class="st1" width="8.1" height="3"/>
		<rect x="29.8" y="2.3" class="st2" width="14.9" height="5.4"/>
		<rect x="14.2" y="11.3" transform="matrix(0.7071 -0.7071 0.7071 0.7071 -6.127 17.1392)" class="st1" width="6.9" height="9.4"/>
	</g>
	<g>
		<path class="st1" d="M32.7,39.3c0.3,2.8,2.8,4.9,5.6,4.6c2-0.2,3.6-1.5,4.3-3.2l0,0L50.4,23L34.9,34.6l0,0
			C33.4,35.6,32.5,37.4,32.7,39.3z"/>
		<path class="st1" d="M62.2,48.4c2.6-5.3,3.5-11.5,2.1-17.9L58,32.2c1.1,5.4,0.3,8.9-1.5,12.8L62.2,48.4z"/>
		<path class="st1" d="M45.1,56.2l1.7,6.3c6.2-2.2,10.7-6,13.9-11.1l-5.7-3.3C52.7,51.8,49.2,54.7,45.1,56.2z"/>
		<path class="st2" d="M42,57.1c-10.7,2.2-21.5-4.2-24.4-14.9c-3-11.1,3.4-22.9,14.5-26c10.6-2.9,21.6,3.5,25,12.8l6.4-1.7
			C58.9,13.8,44.4,6.1,30.3,9.9c-14.6,4-23.1,19.3-19.1,33.8c3.9,14.2,18.6,22.8,32.5,19.7L42,57.1z"/>
	</g>
</g>
<g>
	<path class="st3" d="M89.7,93.2H34c-1.8,0-3.3-1.5-3.3-3.3v-36c0-1.8,1.5-3.3,3.3-3.3h55.6c1.8,0,3.3,1.5,3.3,3.3v36
		C92.9,91.7,91.4,93.2,89.7,93.2z"/>
	<circle class="st4" cx="47.1" cy="64.4" r="10"/>
	<path class="st2" d="M40.6,72c0,0,6,5.4,13.1,0c0,0-2.1-1.6-3.9-1.6v-1.1c0,0,2-0.1,3.3-1.9c0,0-1.6-1.6-1.6-2.8v-3.1
		c0,0,0.4-3.3-4.4-3.3c0,0-4.5-0.4-4.5,3.3V65c0,0-0.5,2.6-1.6,2.6c0,0,0.7,1.8,3.1,1.8v1.1C44.1,70.5,40.6,71.1,40.6,72z"/>
	<path class="st5" d="M85.8,64.4H60.5c-0.4,0-0.8-0.3-0.8-0.8v-5.6c0-0.4,0.3-0.8,0.8-0.8h25.3c0.4,0,0.8,0.3,0.8,0.8v5.6
		C86.6,64.1,86.2,64.4,85.8,64.4z"/>
	<rect x="59.7" y="67.5" class="st6" width="17.2" height="3.8"/>
	<rect x="37.1" y="77.7" class="st7" width="49.4" height="4.5"/>
	<rect x="37.1" y="82.9" class="st7" width="49.4" height="2.8"/>
	<rect x="37.1" y="86.4" class="st7" width="49.4" height="2.8"/>
</g>
</svg>
