<?xml version="1.0" encoding="utf-8"?>
<!-- Generator: Adobe Illustrator 23.0.0, SVG Export Plug-In . SVG Version: 6.00 Build 0)  -->
<svg version="1.1" id="Layer_1" xmlns="http://www.w3.org/2000/svg" xmlns:xlink="http://www.w3.org/1999/xlink" x="0px" y="0px"
	 viewBox="0 0 100 100" style="enable-background:new 0 0 100 100;" xml:space="preserve">
<style type="text/css">
	.st0{opacity:0.1;}
	.st1{fill:#61CAE5;}
	.st2{display:none;fill:#61CAE5;}
	.st3{fill:#154270;}
	.st4{fill:#2791CF;}
	.st5{fill:#62CBE6;}
	.st6{fill:none;stroke:#62CBE6;stroke-width:2;stroke-miterlimit:10;}
	.st7{fill:#F4C888;}
	.st8{clip-path:url(#SVGID_2_);fill:#3CB3CD;stroke:#6AC6B3;stroke-width:9.726716e-02;stroke-miterlimit:10;}
	.st9{clip-path:url(#SVGID_4_);}
	.st10{opacity:0.49;}
	.st11{fill:#3EBAD6;}
	.st12{fill:#67C7C4;}
	.st13{fill:#72C8B7;}
	.st14{fill:#68CCE8;}
	.st15{opacity:0.6;clip-path:url(#SVGID_6_);}
	.st16{fill:#BBE4EC;}
	.st17{fill:#FFFFFF;}
	.st18{opacity:0.4;clip-path:url(#SVGID_8_);}
	.st19{opacity:0.4;clip-path:url(#SVGID_10_);}
	.st20{opacity:0.4;clip-path:url(#SVGID_12_);}
	.st21{clip-path:url(#SVGID_14_);}
	.st22{opacity:0.4;clip-path:url(#SVGID_16_);}
	.st23{opacity:0.4;clip-path:url(#SVGID_18_);}
	.st24{clip-path:url(#SVGID_20_);fill:none;}
</style>
<g class="st0">
	<path class="st1" d="M20.2,9.9H2.9V70v21.6h31.7V9.9H20.2z"/>
	<polygon class="st1" points="97.1,8.3 97.1,8.3 95.1,10.9 95,11 65.7,50.2 65.7,11.3 67.9,8.3 	"/>
	<polygon class="st1" points="66.5,52.5 97.1,11.6 97.1,93.1 66.5,93.1 	"/>
	<rect x="67.9" y="8.3" class="st2" width="29.1" height="84.8"/>
	<polygon class="st1" points="10.1,18.8 12.6,18.8 11.4,20.4 	"/>
	<polygon class="st1" points="51,31.5 35.1,52.2 33.6,50.2 19.2,31 33.6,11.5 34.8,9.9 	"/>
	<polygon class="st1" points="65.4,50.7 49.7,71.7 49.6,71.5 35.1,52.2 50.8,31.3 65.3,50.6 	"/>
	<polygon class="st1" points="97.1,8.3 95.1,10.9 95,11 65.7,50.2 65.4,50.7 49.7,71.7 49.6,71.5 35.1,52.2 50.8,31.3 65.7,11.3 
		67.9,8.3 	"/>
</g>
<g>
	<rect x="37.2" y="63.8" class="st3" width="9.5" height="23.8"/>
	<rect x="52.7" y="57.2" class="st3" width="9.5" height="30.4"/>
	<rect x="67.6" y="66.8" class="st3" width="9.5" height="20.8"/>
	<rect x="82.5" y="50.7" class="st3" width="9.5" height="36.9"/>
	<rect x="2.5" y="91" class="st4" width="94.8" height="2.1"/>
</g>
<g>
	<polygon class="st5" points="81.5,32.4 91.6,33.6 85.5,41.7 	"/>
	<line class="st6" x1="87.6" y1="35.3" x2="11.5" y2="68"/>
</g>
<g>
	<g>
		<polygon class="st3" points="53.4,21.8 53.4,31.8 46.3,38.9 36.2,38.9 29.1,31.8 29.1,21.8 36.2,14.7 46.3,14.7 		"/>
	</g>
	<g>
		<polygon class="st7" points="53,21.9 53,31.7 46.1,38.6 36.4,38.6 29.5,31.7 29.5,21.9 36.4,15.1 46.1,15.1 		"/>
	</g>
	<g>
		<g>
			<polygon class="st5" points="36.4,15.1 30.9,20.5 51.6,20.5 46.1,15.1 			"/>
		</g>
		<g>
			<polygon class="st3" points="36.4,38.6 46.1,38.6 48.1,36.6 34.4,36.6 			"/>
		</g>
		<g>
			<polygon class="st4" points="29.5,21.9 29.5,28.3 53,28.3 53,21.9 51.6,20.5 30.9,20.5 			"/>
		</g>
		<g>
			<polygon class="st3" points="29.5,31.7 34.4,36.6 48.1,36.6 53,31.7 53,28.3 29.5,28.3 			"/>
		</g>
	</g>
	<g>
		<polygon class="st4" points="51.8,22.4 51.8,31.2 45.6,37.4 36.9,37.4 30.7,31.2 30.7,22.4 36.9,16.2 45.6,16.2 		"/>
	</g>
	<g>
		<polygon class="st5" points="37.1,36.7 31.3,30.9 31.3,22.7 37.1,16.9 45.3,16.9 51.1,22.7 51.1,30.9 45.3,36.7 		"/>
		<path class="st4" d="M37.3,17.2h8l5.6,5.6v8l-5.6,5.6h-8l-5.6-5.6v-8L37.3,17.2 M37.3,16.6H37l-0.2,0.2l-5.6,5.6L31,22.6v0.2v8V31
			l0.2,0.2l5.6,5.6L37,37h0.2h8h0.2l0.2-0.2l5.6-5.6l0.2-0.2v-0.2v-8v-0.2l-0.2-0.2l-5.6-5.6l-0.2-0.2h-0.2L37.3,16.6L37.3,16.6z"/>
	</g>
	<g>
		<g>
			<g>
				<defs>
					<polygon id="SVGID_1_" points="50.9,22.8 50.9,30.8 45.2,36.4 37.3,36.4 31.6,30.8 31.6,22.8 37.3,17.2 45.2,17.2 					"/>
				</defs>
				<clipPath id="SVGID_2_">
					<use xlink:href="#SVGID_1_"  style="overflow:visible;"/>
				</clipPath>
				<rect x="30.3" y="16.7" class="st8" width="21.5" height="20"/>
			</g>
		</g>
		<g>
			<g>
				<defs>
					<polygon id="SVGID_3_" points="50.9,22.8 50.9,30.8 45.2,36.4 37.3,36.4 31.6,30.8 31.6,22.8 37.3,17.2 45.2,17.2 					"/>
				</defs>
				<clipPath id="SVGID_4_">
					<use xlink:href="#SVGID_3_"  style="overflow:visible;"/>
				</clipPath>
				<g class="st9">
					<g>
						<polygon class="st5" points="41.2,26.8 39.4,31.2 37.3,36.6 33.8,32.9 						"/>
					</g>
					<g>
						<polygon class="st5" points="45.5,28.5 44,33.4 45.2,36.4 50.6,30.8 						"/>
					</g>
					<g>
						<polygon class="st5" points="36.8,25.2 39.4,22.5 37.3,17.2 30.8,22.5 						"/>
					</g>
					<g class="st10">
						<polygon class="st5" points="37.4,28.4 45.5,25 45.2,17.2 33,23.5 						"/>
					</g>
					<g>
						<polygon class="st11" points="39.4,31.2 43.1,31.2 50.6,30.8 37.3,36.6 						"/>
					</g>
					<g>
						<polygon class="st12" points="37.1,28.5 36.8,25.2 30.8,22.5 31.7,30.8 						"/>
					</g>
					<g class="st10">
						<polygon class="st13" points="34.3,29.7 38.5,20.2 30.8,22.5 31.7,30.8 						"/>
					</g>
					<g>
						<polygon class="st5" points="45.5,28.5 45.5,25.2 48,20.2 50.6,30.8 						"/>
					</g>
					<g>
						<polygon class="st5" points="43.6,24.1 44.9,16.2 51.8,23 45.4,25.7 						"/>
						<g>
							<path class="st14" d="M45.2,17.2l5.7,5.6l-5.4,2.3l-1.4-1.3L45.2,17.2 M44.6,15.2L44.3,17l-1.1,6.7L43,24.3l0.4,0.4l1.4,1.3
								l0.5,0.4l0.6-0.3l5.4-2.3l1.4-0.6l-1.1-1L46,16.5L44.6,15.2L44.6,15.2z"/>
						</g>
					</g>
				</g>
			</g>
		</g>
		<g>
			<g>
				<defs>
					<polygon id="SVGID_5_" points="50.9,22.8 50.9,30.8 45.2,36.4 37.3,36.4 31.6,30.8 31.6,22.8 37.3,17.2 45.2,17.2 					"/>
				</defs>
				<clipPath id="SVGID_6_">
					<use xlink:href="#SVGID_5_"  style="overflow:visible;"/>
				</clipPath>
				<g class="st15">
					<polygon class="st16" points="38.4,33.6 34.5,29.6 34.5,24 38.4,20 44.1,20 48,24 48,29.6 44.1,33.6 					"/>
					<g>
						<path class="st17" d="M44,20.2l3.9,3.9v5.5L44,33.4h-5.5l-3.9-3.9V24l3.9-3.9L44,20.2 M44.1,19.8L44.1,19.8h-5.6h-0.2
							l-0.1,0.1l-3.9,3.9l-0.1,0.1v0.2v5.5v0.2l0.1,0.1l3.9,3.9l0.1,0.1h0.2H44h0.2l0.1-0.1l3.9-3.9l0.1-0.1v-0.2v-5.5v-0.2
							l-0.1-0.1l-3.9-3.9L44.1,19.8L44.1,19.8z"/>
					</g>
				</g>
			</g>
		</g>
		<g>
			<g>
				<defs>
					<polygon id="SVGID_7_" points="50.9,22.8 50.9,30.8 45.2,36.4 37.3,36.4 31.6,30.8 31.6,22.8 37.3,17.2 45.2,17.2 					"/>
				</defs>
				<clipPath id="SVGID_8_">
					<use xlink:href="#SVGID_7_"  style="overflow:visible;"/>
				</clipPath>
				<g class="st18">
					<polygon class="st17" points="43.6,32.4 37,25 45,27.1 					"/>
				</g>
			</g>
		</g>
		<g>
			<g>
				<defs>
					<polygon id="SVGID_9_" points="50.9,22.8 50.9,30.8 45.2,36.4 37.3,36.4 31.6,30.8 31.6,22.8 37.3,17.2 45.2,17.2 					"/>
				</defs>
				<clipPath id="SVGID_10_">
					<use xlink:href="#SVGID_9_"  style="overflow:visible;"/>
				</clipPath>
				<g class="st19">
					<polygon class="st17" points="47.8,24.1 34.6,29.5 34.6,24.1 38.5,20.2 44,20.2 					"/>
				</g>
			</g>
		</g>
		<g>
			<g>
				<defs>
					<polygon id="SVGID_11_" points="50.9,22.8 50.9,30.8 45.2,36.4 37.3,36.4 31.6,30.8 31.6,22.8 37.3,17.2 45.2,17.2 					"/>
				</defs>
				<clipPath id="SVGID_12_">
					<use xlink:href="#SVGID_11_"  style="overflow:visible;"/>
				</clipPath>
				<g class="st20">
					<polygon class="st17" points="47,24.4 47,29.2 43.6,32.6 38.9,32.6 35.5,29.2 35.5,24.4 38.9,21.1 43.6,21.1 					"/>
				</g>
			</g>
		</g>
		<g>
			<g>
				<defs>
					<polygon id="SVGID_13_" points="50.9,22.8 50.9,30.8 45.2,36.4 37.3,36.4 31.6,30.8 31.6,22.8 37.3,17.2 45.2,17.2 					"/>
				</defs>
				<clipPath id="SVGID_14_">
					<use xlink:href="#SVGID_13_"  style="overflow:visible;"/>
				</clipPath>
				<g class="st21">
					<polygon class="st4" points="45.1,25.2 45.1,28.4 42.8,30.7 39.7,30.7 37.4,28.4 37.4,25.2 39.7,23 42.8,23 					"/>
				</g>
			</g>
		</g>
		<g>
			<g>
				<defs>
					<polygon id="SVGID_15_" points="50.9,22.8 50.9,30.8 45.2,36.4 37.3,36.4 31.6,30.8 31.6,22.8 37.3,17.2 45.2,17.2 					"/>
				</defs>
				<clipPath id="SVGID_16_">
					<use xlink:href="#SVGID_15_"  style="overflow:visible;"/>
				</clipPath>
				<g class="st22">
					<polygon class="st17" points="43.6,32.6 38.9,32.6 39.7,30.7 42.8,30.7 					"/>
				</g>
			</g>
		</g>
		<g>
			<g>
				<defs>
					<polygon id="SVGID_17_" points="50.9,22.8 50.9,30.8 45.2,36.4 37.3,36.4 31.6,30.8 31.6,22.8 37.3,17.2 45.2,17.2 					"/>
				</defs>
				<clipPath id="SVGID_18_">
					<use xlink:href="#SVGID_17_"  style="overflow:visible;"/>
				</clipPath>
				<g class="st23">
					<polygon class="st5" points="47,24.4 47,29.2 35.5,24.4 38.9,21.1 43.6,21.1 					"/>
				</g>
			</g>
		</g>
		<g>
			<g>
				<defs>
					<polygon id="SVGID_19_" points="50.9,22.8 50.9,30.8 45.2,36.4 37.3,36.4 31.6,30.8 31.6,22.8 37.3,17.2 45.2,17.2 					"/>
				</defs>
				<clipPath id="SVGID_20_">
					<use xlink:href="#SVGID_19_"  style="overflow:visible;"/>
				</clipPath>
				<circle class="st24" cx="41.3" cy="26.8" r="8.9"/>
			</g>
		</g>
	</g>
	<g>
		<polygon class="st17" points="36.7,22.5 35.7,21.6 36.6,22.7 35.7,23.8 36.7,22.9 37.8,23.8 36.9,22.7 37.8,21.6 		"/>
		<polygon class="st17" points="36.5,22.5 34.1,22.7 36.5,22.9 36.7,25.3 37,22.9 39.4,22.7 37,22.5 36.7,20.1 		"/>
	</g>
</g>
<g>
	<g>
		<path class="st4" d="M45,42.7c-1-4.4-3.1-9.6-7.7-15.5c-2.8-3.6-8.6-5.5-11.6-6.1c-0.8,1-2.7,2.2-5,3s-4.5,1.1-5.8,0.9
			c-2,2.4-5.2,7.6-5.1,12.1c0.2,7.5,1.8,12.8,3.9,16.9c-0.6,0.9-0.7,4.4,3.4,2.6c7.1,0.1,21.5-5.1,26.9-9.7C48.4,45.7,46,43,45,42.7
			z"/>
		<path class="st5" d="M24.7,18.8c-0.5,0.8-2.1,2-4.9,3s-4.8,1.1-5.7,0.8c0,0-0.2,0.5,0,0.8c0.1,0.4,0.5,0.6,0.5,0.6
			c1.5,0.2,3.6-0.2,5.6-1c2-0.7,3.9-1.8,5-2.9c0,0,0.2-0.5,0.1-0.8C25.2,19.1,24.7,18.8,24.7,18.8z"/>
		<path class="st4" d="M19.9,9.2c-1-0.6-2.2-0.8-3.4-0.4c-0.9,0.3-1.7,1-2.1,1.8c-4.3-0.1-8.6,4.6-6,5.6c4.7,1.8,5.5,5.6,5.5,5.6
			c1.5,0.2,3.6-0.2,5.6-1c2-0.7,3.9-1.8,5-2.9v-0.1l0,0c0.1-1.2-1.4-4.2,0.3-7.4C26,8.1,22.3,7.4,19.9,9.2z"/>
	</g>
	<g>
		<path class="st4" d="M45,42.7c-1-4.4-3.1-9.6-7.7-15.5c-2.8-3.6-8.6-5.5-11.6-6.1c-0.8,1-2.7,2.2-5,3l10.5,29.4
			c5.2-1.9,10.1-4.3,12.8-6.6C48.4,45.7,46,43,45,42.7z"/>
		<path class="st4" d="M25.3,19.5c-0.1-0.3-0.6-0.6-0.6-0.6c-0.5,0.8-2.1,2-4.9,3l0.5,1.3c2-0.7,3.9-1.8,5-2.9
			C25.3,20.3,25.5,19.8,25.3,19.5z"/>
		<path class="st4" d="M24.4,17.9L24.4,17.9c0.1-1.3-1.4-4.2,0.4-7.5c1.2-2.4-2.4-3-4.9-1.3c-1-0.6-2.2-0.8-3.4-0.4
			c-0.4,0.1-0.8,0.4-1.1,0.6l4.1,11.5C21.5,20.2,23.4,19.1,24.4,17.9L24.4,17.9z"/>
	</g>
	<g>
		<path class="st17" d="M23,48.6l-0.7-2.1c1.1-1,2.1-3,1.5-4.7c-0.1-0.4-0.3-0.6-0.4-1l-2.5,0.9L20,39.1l2-0.7
			c-0.4-0.6-0.7-1.3-0.9-2c-1.1-3.2,0.4-6.1,3.8-7.4c1.4-0.5,2.5-0.6,3.2-0.5l0.4,3.1c-0.6-0.1-1.4,0-2.3,0.3
			c-1.8,0.6-1.9,2-1.5,3.2c0.2,0.7,0.5,1.2,0.9,1.8l3.5-1.2l0.9,2.6l-3.1,1.1c0.3,0.6,0.4,1.2,0.4,1.9s-0.2,1.5-0.6,2.2v0.1l6.8-2.4
			l1.1,3.1L23,48.6z"/>
	</g>
</g>
</svg>
