<?xml version="1.0" encoding="utf-8"?>
<!-- Generator: Adobe Illustrator 21.0.0, SVG Export Plug-In . SVG Version: 6.00 Build 0)  -->
<svg version="1.1" id="Layer_1" xmlns="http://www.w3.org/2000/svg" xmlns:xlink="http://www.w3.org/1999/xlink" x="0px" y="0px"
	 viewBox="0 0 100 100" style="enable-background:new 0 0 100 100;" xml:space="preserve">
<style type="text/css">
	.st0{opacity:0.1;}
	.st1{fill:#62CBE6;}
	.st2{fill:#2791CF;}
	.st3{fill:#FFFFFF;}
</style>
<g class="st0">
	<path class="st1" d="M50,61.3l-5,6.7l0,0l5,6.7l5-6.8L50,61.3z M42.4,51.2l-5-6.7l0,0l-1.5-2L16.8,16.8h15.1l11.5,15.4l5-6.8
		L36,8.7H0.6l30.2,40.5l1.5,2.1l6.6,8.8l4.5,6l5-6.8l-4.5-6L42.4,51.2z M50,27.5l-5,6.8l5,6.7l5-6.7l0,0L50,27.5z M69.2,53.2
		l-1.5-2.1l-6.6-8.8l-4.5-6l-5,6.8l4.5,6l1.5,2.1l5,6.7l0,0l1.5,2l19.1,25.6H68.1L56.6,70.1l-5,6.8L64,93.7h35.4L69.2,53.2z"/>
	<g>
		<polygon class="st1" points="48.5,43.1 44,49.1 38.9,42.3 21.6,19.2 30.6,19.2 43.4,36.3 		"/>
	</g>
	<g>
		<polygon class="st1" points="54.5,51.2 50,57.2 45.5,51.2 50,45.1 		"/>
	</g>
	<g>
		<polygon class="st1" points="78.4,83.2 69.4,83.2 56.6,66 51.5,59.3 56,53.2 61.1,60 		"/>
	</g>
	<g>
		<polygon class="st1" points="78.4,19.2 61.1,42.3 56,49.1 54.5,51.2 50,57.2 48.5,59.3 43.4,66 30.6,83.2 21.6,83.2 38.9,60 
			44,53.2 45.5,51.2 50,45.1 51.5,43.1 56.6,36.3 69.4,19.2 		"/>
	</g>
	<path class="st1" d="M37.4,44.4L37.4,44.4l-5,6.7l5,6.8l5-6.7L37.4,44.4z M64,8.7L51.5,25.4L50,27.5l-6.6,8.8l-4.5,6l5,6.8l4.5-6
		L50,41l5-6.7l0,0l1.5-2l11.5-15.4h15.1L64.1,42.4l5,6.8L99.4,8.7H64z M62.6,44.4l-5,6.7l5,6.7l0,0l5-6.7L62.6,44.4z M51.5,59.3
		L50,61.3l-5,6.7l0,0l-1.5,2L31.9,85.5H16.8L35.9,60l-5-6.8L0.6,93.7H36l12.5-16.7l1.5-2.1l6.6-8.8l4.5-6l-5-6.8L51.5,59.3z"/>
</g>
<g>
	<g>
		<path class="st1" d="M57.1,91.4H41.3c0,0-0.6,0.1-0.6,0.9c0,0.9,1,0.7,1,0.7h0.9v0h13.1h1.3c0,0,0.8-0.1,0.8-0.8
			C57.7,91.6,57.1,91.4,57.1,91.4z"/>
		<path class="st1" d="M57.8,88.8H40.6c0,0-0.7,0.1-0.7,1c0,0.9,1.4,0.7,1.4,0.7h15.8h0.6c0,0,0.8-0.1,0.8-0.9
			C58.4,88.8,57.8,88.8,57.8,88.8z"/>
		<path class="st1" d="M57.9,83.5H40.5c0,0-0.6,0.2-0.6,1c0,0.8,0.8,0.8,0.8,0.8h17.1c0,0,0.7-0.1,0.7-1
			C58.4,83.6,57.9,83.5,57.9,83.5z"/>
		<path class="st1" d="M57.9,86.2H40.5c0,0-0.6,0.2-0.6,1c0,0.8,0.8,0.8,0.8,0.8h17.1c0,0,0.7-0.1,0.7-1
			C58.4,86.3,57.9,86.2,57.9,86.2z"/>
		<path class="st2" d="M64.6,33.5c-3.8-3.8-9-6-15.3-6.3c0,0,0,0-0.1,0h-1.6c-5.6,0.2-10.3,2.3-14.4,6.3c-1.6,1.6-3.2,3.4-4.4,6
			c-1.2,2.7-1.9,5.5-2,8.5v1.4c0,0,0,0,0,0.1c0.2,4,0.9,7,2.1,9.5c1.1,2.3,2.3,4.4,3.5,6.5l0.4,0.8c0.3,0.5,0.5,0.9,0.8,1.4
			c1.1,1.8,2.2,3.7,2.7,5.8c0.2,0.9,0.3,1.9,0.5,2.9c0.1,0.6,0.1,1.2,0.2,1.8c0.3,1.7,1.4,3,2.2,3.8c0.2,0.2,0.5,0.3,0.8,0.3h18
			c0.3,0,0.6-0.1,0.8-0.3c1.4-1.4,1.7-3.6,2.1-5.7c0.2-1,0.3-2,0.6-2.8c0.7-2.1,1.8-4,2.8-5.9c0.3-0.5,0.5-1,0.8-1.4
			c0.3-0.6,0.7-1.2,1-1.8c2.3-4.3,4.7-8.7,5-15c0,0,0,0,0-0.1v-0.6C70.9,42.6,68.8,37.7,64.6,33.5z M68.9,49.3
			c-0.3,5.8-2.5,9.8-4.8,14c-0.3,0.5-0.6,1.1-0.9,1.6c-0.1-2.5-0.4-7-1.7-8.2c-0.1,0-0.1,0-0.2,0c-0.2-0.5-0.6-0.4-0.6-0.4
			c-0.5-0.8-5.9-2.7-5.9-2.7l-2.4-2.4l0.4,0.7c0.2,1.7-1.8,8-1.8,8c0.2-0.7-1.1-3-1.1-3c-0.2-0.4,0.3-1.8,0.3-1.8
			c-1.7-2-2.7,0.3-2.7,0.3c-0.4,0.5,0.8,1.7,0.8,1.7C48,57.6,48,59.1,48,59.1c-0.4,0.5-0.8,2-0.8,2c-1.3-3.2-1.8-9-1.8-9
			c-0.1-0.5,0.5-0.6,0.5-0.6l0.5,0.8c0.5,0.8,2.7,2.1,2.7,2.1l2.1-1.5c1.4-0.7,1.2-1.5,1.2-1.5c-0.3-0.2-0.2-1.6-0.2-1.6
			c0.2-0.3,0.8-2.2,0.8-2.2c1.1-1.1,0.8-3.3,0.8-3.3c1.4-7.2-5.4-6.5-5.4-6.5c-5,0.6-3.7,6.8-3.7,6.8c-0.7,0.2,0.5,2.7,0.5,2.7
			c-0.2,0.3,0.5,2,0.5,2l0.2,1.9c-0.5,0.2-2.1,2.3-2.1,2.3c-2.9,0.1-5.9,2.5-5.9,2.5c-0.5-0.1-0.8-0.1-1,0.1l-0.2-0.1
			c0,0,0,0.1,0,0.2c-0.1,0.2-0.2,0.5-0.2,0.9c-0.5,1.9-1.9,5.8-2.2,7.8l-0.2-0.4c-1.2-2.1-2.3-4.2-3.4-6.4c-1.1-2.3-1.7-5-1.9-8.7
			v-1.3c0.1-2.7,0.7-5.2,1.8-7.6c1-2.2,2.5-3.9,4-5.3c3.6-3.6,7.9-5.5,12.9-5.7h1.5c5.8,0.3,10.4,2.2,13.9,5.7
			c3.7,3.7,5.6,8.2,5.8,13.7V49.3z"/>
	</g>
	<g>
		<path class="st3" d="M67.6,32.6l6.6-6.7c0.3-0.3,0.3-0.9,0-1.2c-0.3-0.3-0.9-0.3-1.2,0l-6.6,6.7c-0.3,0.3-0.3,0.9,0,1.2
			C66.7,32.9,67.3,32.9,67.6,32.6z"/>
		<path class="st3" d="M29,33.5c0.3,0.3,0.9,0.3,1.2-0.1c0.3-0.3,0.3-0.9-0.1-1.2l-7-6.4c-0.3-0.3-0.9-0.3-1.2,0.1
			c-0.3,0.3-0.3,0.9,0.1,1.2L29,33.5z"/>
		<path class="st3" d="M25.1,52c0-0.5-0.4-0.8-0.8-0.8h-9.5c-0.5,0-0.8,0.4-0.8,0.8c0,0.5,0.4,0.8,0.8,0.8h9.5
			C24.8,52.8,25.1,52.4,25.1,52z"/>
		<path class="st3" d="M83.1,51.1h-9.5c-0.5,0-0.8,0.4-0.8,0.8c0,0.5,0.4,0.8,0.8,0.8h9.5c0.5,0,0.8-0.4,0.8-0.8
			C83.9,51.5,83.5,51.1,83.1,51.1z"/>
		<path class="st3" d="M48.5,25.1c0.5,0,0.8-0.4,0.8-0.8v-9.5c0-0.5-0.4-0.8-0.8-0.8c-0.5,0-0.8,0.4-0.8,0.8v9.5
			C47.7,24.7,48.1,25.1,48.5,25.1z"/>
	</g>
</g>
</svg>
