<svg width="27" height="30" viewBox="0 0 27 30" fill="none" xmlns="http://www.w3.org/2000/svg">
<path d="M25.2759 26.9495H2.70124V1.52527C2.70124 0.682884 2.09655 0 1.35062 0C0.604691 0 0 0.682884 0 1.52527V28.4747C0 29.3171 0.604691 30 1.35062 30H25.2759C26.0218 30 26.6265 29.3171 26.6265 28.4747C26.6265 27.6323 26.0218 26.9495 25.2759 26.9495Z" fill="white"/>
<path d="M5.83071 20.4433C6.1963 20.4433 6.56066 20.2766 6.82708 19.9482L10.589 15.3095L17.3181 18.647C17.897 18.9341 18.575 18.7293 18.9495 18.1539L23.0776 11.812L23.4243 14.5419C23.5209 15.3024 24.0985 15.8509 24.7596 15.8508C24.8234 15.8508 24.8881 15.8457 24.953 15.8351C25.6914 15.7156 26.204 14.9426 26.0982 14.1088L25.2781 7.65161C25.1722 6.81777 24.4875 6.23904 23.7494 6.35836L18.0316 7.2845C17.2933 7.40408 16.7805 8.177 16.8865 9.01084C16.9924 9.84468 17.6769 10.4238 18.4151 10.3041L20.9767 9.88922L17.4139 15.3627L10.7896 12.0771C10.26 11.8145 9.64115 11.9618 9.25047 12.4434L4.83511 17.8877C4.33129 18.5089 4.3688 19.4737 4.91885 20.0427C5.17809 20.3109 5.50494 20.4433 5.83071 20.4433Z" fill="white"/>
</svg>
