<svg width="17" height="17" viewBox="0 0 17 17" fill="none" xmlns="http://www.w3.org/2000/svg">
<path d="M5.43689 5.61976C4.15701 5.61976 3.11578 4.41511 3.11578 2.93446C3.11578 1.45367 4.15701 0.249023 5.43689 0.249023C6.7169 0.249023 7.758 1.45367 7.758 2.93446C7.758 4.41511 6.7169 5.61976 5.43689 5.61976ZM5.43689 1.42618C4.80616 1.42618 4.29294 2.10282 4.29294 2.93446C4.29294 3.76609 4.80616 4.4426 5.43689 4.4426C6.06762 4.4426 6.58084 3.76609 6.58084 2.93446C6.58084 2.10282 6.06762 1.42618 5.43689 1.42618Z" fill="#D8D7DA"/>
<path d="M11.3539 5.61976C10.0741 5.61976 9.03284 4.41511 9.03284 2.93446C9.03284 1.45367 10.0741 0.249023 11.3539 0.249023C12.6339 0.249023 13.675 1.45367 13.675 2.93446C13.675 4.41511 12.6339 5.61976 11.3539 5.61976ZM11.3539 1.42618C10.7232 1.42618 10.21 2.10282 10.21 2.93446C10.21 3.76609 10.7232 4.4426 11.3539 4.4426C11.9847 4.4426 12.4979 3.76609 12.4979 2.93446C12.4979 2.10282 11.9847 1.42618 11.3539 1.42618Z" fill="#D8D7DA"/>
<path d="M13.675 2.93407C13.675 2.33318 13.5037 1.77793 13.2144 1.33008C12.9851 1.56081 12.6615 1.80206 12.2236 1.95523C12.3946 2.21891 12.4978 2.5608 12.4978 2.93407C12.4978 3.76571 11.9846 4.44222 11.3539 4.44222V5.61951C12.6339 5.61938 13.675 4.41473 13.675 2.93407Z" fill="#C6C5CA"/>
<path d="M7.758 2.93407C7.758 2.33318 7.58653 1.77793 7.29743 1.33008C7.06812 1.56081 6.74452 1.80193 6.30653 1.95523C6.4776 2.21878 6.58084 2.5608 6.58084 2.93407C6.58084 3.76571 6.06762 4.44222 5.43689 4.44222V5.61951C6.7169 5.61938 7.758 4.41473 7.758 2.93407Z" fill="#C6C5CA"/>
<path d="M13.6975 16.7507H3.2814C1.93681 16.7507 0.84668 15.6607 0.84668 14.3159V4.9982C0.84668 3.6536 1.93681 2.56348 3.2814 2.56348H13.6976C15.0422 2.56348 16.1323 3.6536 16.1323 4.9982V14.3159C16.1323 15.6605 15.0422 16.7507 13.6975 16.7507Z" fill="#CCF8FF"/>
<path d="M0.84668 4.9982V14.3159C0.84668 15.6607 1.93668 16.7507 3.2814 16.7507H5.05803C3.99722 16.1227 4.01771 14.5402 4.01771 14.5402C4.01771 14.5402 4.03613 10.8439 4.03197 8.91487C4.03068 8.31319 4.30888 7.75133 4.77152 7.36651C5.60731 6.67158 5.43688 5.61946 5.43688 5.61946V4.4423C4.87684 3.23493 5.6802 2.56348 5.6802 2.56348H3.2814C1.93668 2.56348 0.84668 3.6536 0.84668 4.9982Z" fill="#ABEBF4"/>
<path d="M13.6975 2.56348H3.2814C1.93681 2.56348 0.84668 3.6536 0.84668 4.9982V7.01646H16.1323V4.9982C16.1323 3.6536 15.0422 2.56348 13.6975 2.56348Z" fill="#FF929F"/>
<path d="M0.84668 4.9982V7.01646H5.09668C5.55789 6.36576 5.43688 5.61959 5.43688 5.61959V4.44231C4.87684 3.23493 5.6802 2.56348 5.6802 2.56348H3.2814C1.93668 2.56348 0.84668 3.6536 0.84668 4.9982Z" fill="#FF737D"/>
<path d="M5.43689 5.61976C4.15701 5.61976 3.11578 4.41511 3.11578 2.93446C3.11578 1.45367 4.15701 0.249023 5.43689 0.249023C5.76205 0.249023 6.0256 0.512573 6.0256 0.837601C6.0256 1.16263 5.76205 1.42618 5.43689 1.42618C4.80616 1.42618 4.29294 2.10282 4.29294 2.93446C4.29294 3.76609 4.80616 4.4426 5.43689 4.4426C5.76205 4.4426 6.0256 4.70615 6.0256 5.03118C6.0256 5.35634 5.76205 5.61976 5.43689 5.61976Z" fill="#D8D7DA"/>
<path d="M11.3539 5.61976C10.0741 5.61976 9.03284 4.41511 9.03284 2.93446C9.03284 1.45367 10.0741 0.249023 11.3539 0.249023C11.6791 0.249023 11.9426 0.512573 11.9426 0.837601C11.9426 1.16263 11.6791 1.42618 11.3539 1.42618C10.7232 1.42618 10.21 2.10282 10.21 2.93446C10.21 3.76609 10.7232 4.4426 11.3539 4.4426C11.6791 4.4426 11.9426 4.70615 11.9426 5.03118C11.9426 5.35634 11.6791 5.61976 11.3539 5.61976Z" fill="#D8D7DA"/>
<path d="M4.79747 11.2748H3.64353C3.15612 11.2748 2.76093 10.8797 2.76093 10.3921V9.23821C2.76093 8.75066 3.15612 8.35547 3.64353 8.35547H4.79747C5.28501 8.35547 5.68021 8.75066 5.68021 9.23821V10.3921C5.68021 10.8796 5.28501 11.2748 4.79747 11.2748Z" fill="#B2E59C"/>
<path d="M9.06639 11.2748H7.91245C7.42504 11.2748 7.02985 10.8797 7.02985 10.3921V9.23821C7.02985 8.75066 7.42491 8.35547 7.91245 8.35547H9.06639C9.55393 8.35547 9.94913 8.75066 9.94913 9.23821V10.3921C9.94913 10.8796 9.55393 11.2748 9.06639 11.2748Z" fill="#B2E59C"/>
<path d="M13.3353 11.2748H12.1814C11.694 11.2748 11.2986 10.8797 11.2986 10.3921V9.23821C11.2986 8.75066 11.6938 8.35547 12.1814 8.35547H13.3353C13.8229 8.35547 14.2181 8.75066 14.2181 9.23821V10.3921C14.2181 10.8796 13.8229 11.2748 13.3353 11.2748Z" fill="#B2E59C"/>
<path d="M4.79747 15.4116H3.64353C3.15612 15.4116 2.76093 15.0164 2.76093 14.5289V13.3749C2.76093 12.8874 3.15612 12.4922 3.64353 12.4922H4.79747C5.28501 12.4922 5.68021 12.8874 5.68021 13.3749V14.5289C5.68021 15.0164 5.28501 15.4116 4.79747 15.4116Z" fill="#B2E59C"/>
<path d="M4.03198 8.91525C4.03159 8.72304 4.05961 8.5351 4.11317 8.35547H3.64366C3.15612 8.35547 2.76093 8.75066 2.76093 9.23821V10.3921C2.76093 10.8797 3.15612 11.2749 3.64366 11.2749H4.03004C4.03224 10.427 4.03341 9.56946 4.03198 8.91525Z" fill="#9AD880"/>
<path d="M2.76093 13.3758V14.5297C2.76093 15.0173 3.15612 15.4124 3.64366 15.4124H4.14067C4.01266 14.9374 4.01772 14.5407 4.01772 14.5407C4.01772 14.5407 4.02225 13.6385 4.02628 12.4932H3.64366C3.15612 12.4932 2.76093 12.8884 2.76093 13.3758Z" fill="#9AD880"/>
<path d="M9.06639 15.4116H7.91245C7.42504 15.4116 7.02985 15.0164 7.02985 14.5289V13.3749C7.02985 12.8874 7.42491 12.4922 7.91245 12.4922H9.06639C9.55393 12.4922 9.94913 12.8874 9.94913 13.3749V14.5289C9.94913 15.0164 9.55393 15.4116 9.06639 15.4116Z" fill="#B2E59C"/>
<path d="M13.3353 15.4116H12.1814C11.694 15.4116 11.2986 15.0164 11.2986 14.5289V13.3749C11.2986 12.8874 11.6938 12.4922 12.1814 12.4922H13.3353C13.8229 12.4922 14.2181 12.8874 14.2181 13.3749V14.5289C14.2181 15.0164 13.8229 15.4116 13.3353 15.4116Z" fill="#B2E59C"/>
<path d="M13.867 2.32072C13.6168 0.983253 12.5695 0 11.3539 0C10.1229 0 9.09143 0.99337 8.84163 2.31475H7.94878C7.69664 0.980659 6.64983 0 5.43688 0C4.93456 0 4.44779 0.165886 4.02912 0.479629C3.91901 0.562119 3.8967 0.718147 3.97919 0.828262C4.06168 0.938248 4.21783 0.960556 4.32782 0.878197C4.65959 0.629562 5.04311 0.498047 5.43688 0.498047C6.382 0.498047 7.20404 1.26159 7.44048 2.31475H6.74088C6.54011 1.64148 6.02351 1.17715 5.43688 1.17715C4.6688 1.17715 4.04391 1.96547 4.04391 2.93446C4.04391 3.90331 4.6688 4.69163 5.43688 4.69163C5.62417 4.69163 5.77657 4.84402 5.77657 5.03118C5.77657 5.21847 5.62417 5.37086 5.43688 5.37086C4.29436 5.37086 3.3648 4.27789 3.3648 2.93446C3.3648 2.45781 3.4827 1.99569 3.70565 1.59829C3.77296 1.47832 3.73029 1.32644 3.61032 1.25925C3.49035 1.19194 3.3386 1.23461 3.27129 1.35458C3.10138 1.65743 2.98322 1.99102 2.92019 2.33965C1.60426 2.51734 0.597656 3.6517 0.597656 4.9985V14.3163C0.597656 15.796 1.80166 17 3.2814 17H13.6975C15.1773 17 16.3812 15.796 16.3812 14.3163V4.9985C16.3813 3.57569 15.2681 2.40852 13.867 2.32072ZM11.3539 0.498047C12.2997 0.498047 13.1212 1.26133 13.3575 2.31475H12.6584C12.4575 1.63525 11.9437 1.17715 11.3539 1.17715C10.5858 1.17715 9.96107 1.96547 9.96107 2.93446C9.96107 3.90331 10.5858 4.69163 11.3539 4.69163C11.5412 4.69163 11.6935 4.84402 11.6935 5.03118C11.6935 5.21847 11.5412 5.37086 11.3539 5.37086C10.2114 5.37086 9.28183 4.27789 9.28183 2.93446C9.28183 1.59103 10.2114 0.498047 11.3539 0.498047ZM12.1304 2.31475H10.5792C10.7356 1.93629 11.0277 1.6752 11.3539 1.6752C11.6745 1.6752 11.9723 1.9311 12.1304 2.31475ZM5.43688 1.6752C5.7623 1.6752 6.05763 1.92954 6.2143 2.31475H4.66219C4.8186 1.93629 5.11069 1.6752 5.43688 1.6752ZM15.8833 14.3163C15.8833 15.5214 14.9028 16.502 13.6976 16.502H3.2814C2.07623 16.502 1.0957 15.5214 1.0957 14.3163V7.26578H15.0638C15.2013 7.26578 15.3129 7.15437 15.3129 7.01675C15.3129 6.87927 15.2013 6.76773 15.0638 6.76773H1.0957V4.9985C1.0957 3.94248 1.85535 3.04704 2.86805 2.85249C2.83627 4.63521 4.01965 5.86891 5.43688 5.86891C5.89874 5.86891 6.27461 5.49304 6.27461 5.03118C6.27461 4.56932 5.89874 4.19358 5.43688 4.19358C4.95181 4.19358 4.46777 3.58542 4.54636 2.8128H8.78612C8.69559 4.54299 9.93668 5.86891 11.3539 5.86891C11.8158 5.86891 12.1915 5.49304 12.1915 5.03118C12.1915 4.56932 11.8158 4.19358 11.3539 4.19358C10.8688 4.19358 10.3484 3.51447 10.4634 2.8128H13.6975C14.9028 2.8128 15.8832 3.79333 15.8832 4.9985V14.3163H15.8833Z" fill="black"/>
<path d="M4.79747 8.10645H3.64366C3.01955 8.10645 2.5119 8.61422 2.5119 9.23821V10.3921C2.5119 11.0161 3.01955 11.5238 3.64366 11.5238H4.79747C5.42158 11.5238 5.92923 11.0161 5.92923 10.3921V9.23821C5.92923 8.61422 5.42158 8.10645 4.79747 8.10645ZM5.43118 10.3921C5.43118 10.7416 5.14688 11.0257 4.79747 11.0257H3.64366C3.29425 11.0257 3.00995 10.7416 3.00995 10.3921V9.23821C3.00995 8.88879 3.29425 8.60449 3.64366 8.60449H4.79747C5.14688 8.60449 5.43118 8.88879 5.43118 9.23821V10.3921Z" fill="black"/>
<path d="M9.06639 8.10645H7.91258C7.28847 8.10645 6.78082 8.61422 6.78082 9.23821V10.3921C6.78082 11.0161 7.28847 11.5238 7.91258 11.5238H9.06639C9.69051 11.5238 10.1982 11.0161 10.1982 10.3921V9.23821C10.1982 8.61422 9.69051 8.10645 9.06639 8.10645ZM9.7001 10.3921C9.7001 10.7416 9.4158 11.0257 9.06639 11.0257H7.91258C7.56317 11.0257 7.27887 10.7416 7.27887 10.3921V9.23821C7.27887 8.88879 7.56317 8.60449 7.91258 8.60449H9.06639C9.4158 8.60449 9.7001 8.88879 9.7001 9.23821V10.3921Z" fill="black"/>
<path d="M13.3353 8.10645H12.1814C11.5574 8.10645 11.0497 8.61422 11.0497 9.23821V10.3921C11.0497 11.0161 11.5574 11.5238 12.1814 11.5238H13.3353C13.9594 11.5238 14.4671 11.0161 14.4671 10.3921V9.23821C14.4671 8.61422 13.9594 8.10645 13.3353 8.10645ZM13.969 10.3921C13.969 10.7416 13.6847 11.0257 13.3353 11.0257H12.1814C11.832 11.0257 11.5478 10.7416 11.5478 10.3921V9.23821C11.5478 8.88879 11.832 8.60449 12.1814 8.60449H13.3353C13.6847 8.60449 13.969 8.88879 13.969 9.23821V10.3921Z" fill="black"/>
<path d="M4.79747 12.2441H3.64366C3.01955 12.2441 2.5119 12.7518 2.5119 13.3759V14.5297C2.5119 15.1538 3.01955 15.6615 3.64366 15.6615H4.79747C5.42158 15.6615 5.92923 15.1538 5.92923 14.5297V13.3759C5.92923 12.7518 5.42158 12.2441 4.79747 12.2441ZM5.43118 14.5297C5.43118 14.8791 5.14688 15.1634 4.79747 15.1634H3.64366C3.29425 15.1634 3.00995 14.8791 3.00995 14.5297V13.3759C3.00995 13.0265 3.29425 12.7422 3.64366 12.7422H4.79747C5.14688 12.7422 5.43118 13.0264 5.43118 13.3759V14.5297Z" fill="black"/>
<path d="M9.06639 12.2441H7.91258C7.28847 12.2441 6.78082 12.7518 6.78082 13.3759C6.78082 13.5134 6.89223 13.6249 7.02985 13.6249C7.16733 13.6249 7.27887 13.5134 7.27887 13.3759C7.27887 13.0265 7.56317 12.7422 7.91258 12.7422H9.06639C9.4158 12.7422 9.7001 13.0264 9.7001 13.3759V14.5297C9.7001 14.8791 9.4158 15.1634 9.06639 15.1634H7.91258C7.56317 15.1634 7.27887 14.8791 7.27887 14.5297C7.27887 14.3921 7.16733 14.2807 7.02985 14.2807C6.89223 14.2807 6.78082 14.3921 6.78082 14.5297C6.78082 15.1538 7.28847 15.6615 7.91258 15.6615H9.06639C9.69051 15.6615 10.1982 15.1538 10.1982 14.5297V13.3759C10.1982 12.7518 9.69051 12.2441 9.06639 12.2441Z" fill="black"/>
<path d="M13.3353 12.2441H12.1814C11.5574 12.2441 11.0497 12.7518 11.0497 13.3759V14.5297C11.0497 15.1538 11.5574 15.6615 12.1814 15.6615H13.3353C13.9594 15.6615 14.4671 15.1538 14.4671 14.5297V13.3759C14.4671 12.7518 13.9594 12.2441 13.3353 12.2441ZM13.969 14.5297C13.969 14.8791 13.6847 15.1634 13.3353 15.1634H12.1814C11.832 15.1634 11.5478 14.8791 11.5478 14.5297V13.3759C11.5478 13.0265 11.832 12.7422 12.1814 12.7422H13.3353C13.6847 12.7422 13.969 13.0264 13.969 13.3759V14.5297Z" fill="black"/>
</svg>
