<svg width="25" height="25" viewBox="0 0 25 25" fill="none" xmlns="http://www.w3.org/2000/svg">
<path d="M15.8743 3.49834V2.07173C15.8743 1.12441 15.1063 0.356445 14.159 0.356445H2.32515C1.37783 0.356445 0.609863 1.12441 0.609863 2.07173V3.49834C0.609863 4.44565 1.37783 5.21362 2.32515 5.21362C1.37783 5.21362 0.609863 5.98159 0.609863 6.92891V8.35547C0.609863 9.30278 1.37783 10.0708 2.32515 10.0708C1.37783 10.0708 0.609863 10.8387 0.609863 11.786V13.2126C0.609863 14.16 1.37783 14.9279 2.32515 14.9279C1.37783 14.9279 0.609863 15.6959 0.609863 16.6432V18.0698C0.609863 19.0171 1.37783 19.7851 2.32515 19.7851C1.37783 19.7851 0.609863 20.553 0.609863 21.5003V22.9269C0.609863 23.8742 1.37783 24.6422 2.32515 24.6422H14.159C15.1063 24.6422 15.8743 23.8742 15.8743 22.9269V21.5003C15.8743 20.553 15.1063 19.785 14.159 19.785C15.1063 19.785 15.8743 19.017 15.8743 18.0697V16.6432C15.8743 15.6958 15.1063 14.9279 14.159 14.9279C15.1063 14.9279 15.8743 14.1599 15.8743 13.2126V11.786C15.8743 10.8387 15.1063 10.0707 14.159 10.0707C15.1063 10.0707 15.8743 9.30273 15.8743 8.35542V6.92886C15.8743 5.98154 15.1063 5.21357 14.159 5.21357C15.1063 5.21357 15.8743 4.44565 15.8743 3.49834Z" fill="#FFB125"/>
<path d="M15.8721 1.9835C15.8662 1.86655 15.8485 1.75269 15.8203 1.64307C15.8133 1.61567 15.8056 1.58853 15.7972 1.56167C15.7889 1.53481 15.7799 1.50825 15.7703 1.48198C15.7414 1.40317 15.7069 1.32705 15.6673 1.25415C15.6542 1.22983 15.6404 1.20591 15.626 1.18232C15.5974 1.13516 15.5665 1.0895 15.5336 1.04546C15.5007 1.00142 15.4657 0.959033 15.4288 0.918408C15.4097 0.897461 15.3901 0.877002 15.3701 0.857031C15.3633 0.850293 15.3562 0.843945 15.3494 0.837305C15.3359 0.824268 15.3224 0.811182 15.3084 0.798584C15.3 0.791016 15.2913 0.783789 15.2828 0.776416C15.2699 0.765234 15.2571 0.754004 15.2439 0.743213C15.2346 0.735596 15.225 0.72832 15.2155 0.720898C15.2027 0.71084 15.1898 0.700732 15.1767 0.691016C15.1666 0.683643 15.1564 0.676514 15.1462 0.669336C15.1332 0.660156 15.1201 0.650977 15.1068 0.642139C15.0962 0.635059 15.0854 0.62832 15.0746 0.621484C15.0613 0.613086 15.048 0.604736 15.0345 0.59668C15.0234 0.590088 15.0122 0.58374 15.0009 0.577393C14.9873 0.569678 14.9736 0.562109 14.9597 0.554785C14.9482 0.548682 14.9366 0.542822 14.9249 0.536963C14.911 0.52998 14.8969 0.523145 14.8827 0.516553C14.8708 0.511035 14.8589 0.505615 14.8469 0.500342C14.8326 0.494043 14.8181 0.487988 14.8036 0.48208C14.7914 0.477148 14.7792 0.472266 14.7668 0.467578C14.7521 0.461963 14.7372 0.456689 14.7222 0.451514C14.7098 0.447217 14.6974 0.44292 14.6848 0.438867C14.6696 0.433984 14.6542 0.429443 14.6388 0.424951C14.6263 0.421289 14.6137 0.417578 14.6011 0.414209C14.5853 0.41001 14.5694 0.40625 14.5535 0.40249C14.5409 0.399512 14.5283 0.396436 14.5156 0.39375C14.4991 0.390283 14.4824 0.387305 14.4658 0.384277C14.4534 0.382031 14.4411 0.37959 14.4286 0.377637C14.411 0.374854 14.3932 0.372705 14.3754 0.370459C14.3636 0.368994 14.3519 0.367187 14.34 0.365967C14.3201 0.363867 14.3 0.3625 14.28 0.361133C14.27 0.360449 14.2602 0.359375 14.2501 0.358887C14.22 0.357324 14.1896 0.356445 14.159 0.356445H13.2493C13.4814 0.649023 13.6205 1.01885 13.6205 1.42139V2.37183C13.6205 2.37524 13.6205 2.37871 13.6204 2.38213C13.6176 2.85796 13.2208 3.23784 12.7449 3.23784H0.609863V3.49839C0.609863 4.4457 1.37783 5.21367 2.32515 5.21367H12.5538C13.1394 5.21367 13.6194 5.69277 13.6204 6.27837V7.22881C13.6204 7.23198 13.6204 7.23511 13.6204 7.23828C13.6178 7.71455 13.2203 8.09482 12.744 8.09482H1.35166C1.027 8.09482 0.767139 8.26074 0.615918 8.49395C0.68623 9.37388 1.42017 10.0666 2.31724 10.0707H12.5544C13.1389 10.0707 13.6166 10.5414 13.6204 11.1258C13.6204 11.1292 13.6205 11.1324 13.6205 11.1357V12.0862C13.6205 12.1636 13.6156 12.2395 13.5683 12.3515C13.4129 12.7188 13.0457 12.9518 12.6468 12.9518H0.609863V13.2127C0.609863 14.1601 1.37783 14.928 2.32515 14.928H12.5537C13.1394 14.928 13.6194 15.4072 13.6205 15.9929V16.9434C13.6205 16.945 13.6205 16.9467 13.6205 16.9483C13.6191 17.4246 13.2296 17.8088 12.7533 17.8088H0.609863V18.0699C0.609863 19.0172 1.37783 19.7852 2.32515 19.7852C2.3251 19.7852 2.32505 19.7852 2.32505 19.7852H12.5536C13.1393 19.7852 13.6194 20.2644 13.6204 20.8501V21.8005C13.6204 21.8021 13.6204 21.8038 13.6204 21.8054C13.619 22.2817 13.2295 22.6657 12.7532 22.6657H0.609863V22.9271C0.609863 23.8744 1.37783 24.6423 2.32515 24.6423H14.159C14.1858 24.6423 14.2124 24.6416 14.2389 24.6403C14.2644 24.6392 14.2897 24.6373 14.3149 24.635C14.3165 24.6348 14.318 24.6348 14.3196 24.6346C14.3213 24.6345 14.323 24.6344 14.3247 24.6342C14.348 24.632 14.3712 24.6291 14.3943 24.6259C14.3993 24.6252 14.4043 24.6247 14.4093 24.624C14.4311 24.6208 14.4527 24.6169 14.4742 24.6129C14.4755 24.6127 14.4769 24.6125 14.4782 24.6122C14.4831 24.6114 14.4878 24.6106 14.4926 24.6096C14.5132 24.6056 14.5336 24.6009 14.5539 24.5961C14.5608 24.5945 14.5677 24.593 14.5746 24.5913C14.5941 24.5865 14.6134 24.5811 14.6326 24.5755C14.6358 24.5746 14.639 24.5737 14.6422 24.5728C14.6465 24.5715 14.6508 24.5705 14.6551 24.5691C14.6736 24.5635 14.692 24.5574 14.7103 24.5512C14.7141 24.5499 14.718 24.5486 14.7219 24.5473C14.7259 24.5459 14.7299 24.5446 14.7339 24.5432C14.7516 24.5369 14.769 24.5302 14.7865 24.5233C14.7916 24.5213 14.7966 24.5193 14.8017 24.5173C14.8047 24.5161 14.8079 24.5149 14.8109 24.5136C14.8279 24.5066 14.8446 24.4993 14.8613 24.4918C14.865 24.4901 14.8688 24.4884 14.8726 24.4867C14.8771 24.4846 14.8817 24.4826 14.8862 24.4805C14.9024 24.4729 14.9183 24.465 14.9342 24.4569C14.938 24.455 14.9417 24.4531 14.9455 24.4511C14.9502 24.4487 14.955 24.4463 14.9597 24.4439C14.975 24.4358 14.9901 24.4273 15.0052 24.4188C15.0139 24.4138 15.0226 24.4089 15.0311 24.4039C15.0457 24.3952 15.0601 24.3863 15.0745 24.3772C15.0779 24.375 15.0814 24.3728 15.0849 24.3705C15.0901 24.3672 15.0953 24.364 15.1004 24.3606C15.1143 24.3515 15.128 24.3421 15.1416 24.3326C15.1458 24.3296 15.15 24.3266 15.1543 24.3235C15.1587 24.3204 15.1631 24.3173 15.1674 24.3142C15.1806 24.3046 15.1936 24.2948 15.2064 24.2849C15.2104 24.2818 15.2144 24.2787 15.2184 24.2755C15.2229 24.2719 15.2276 24.2684 15.2322 24.2647C15.2446 24.2547 15.2569 24.2446 15.269 24.2342C15.276 24.2282 15.283 24.2222 15.2899 24.2161C15.2915 24.2147 15.293 24.2135 15.2945 24.2122C15.3062 24.2018 15.3177 24.1914 15.3291 24.1807C15.3356 24.1747 15.3419 24.1685 15.3483 24.1624C15.3503 24.1605 15.3522 24.1587 15.3542 24.1568C15.3652 24.1462 15.376 24.1354 15.3867 24.1244C15.3904 24.1206 15.394 24.1167 15.3977 24.1129C15.4022 24.1082 15.4068 24.1035 15.4112 24.0987C15.4215 24.0877 15.4317 24.0766 15.4417 24.0654C15.4498 24.0563 15.4576 24.0472 15.4655 24.0379C15.4751 24.0267 15.4846 24.0153 15.4939 24.0038C15.5005 23.9956 15.507 23.9872 15.5135 23.9788C15.5146 23.9774 15.5158 23.976 15.5168 23.9746C15.5258 23.963 15.5346 23.9514 15.5433 23.9396C15.5444 23.938 15.5456 23.9364 15.5467 23.9348C15.5529 23.9262 15.5591 23.9176 15.5652 23.9088C15.5734 23.897 15.5817 23.8852 15.5896 23.8732C15.5968 23.8625 15.6037 23.8515 15.6105 23.8406C15.6181 23.8286 15.6256 23.8167 15.6329 23.8045C15.6381 23.7958 15.643 23.787 15.648 23.7783C15.6496 23.7755 15.6511 23.7729 15.6527 23.7701C15.6595 23.758 15.6665 23.7459 15.673 23.7336C15.6793 23.7217 15.6854 23.7096 15.6915 23.6975C15.6977 23.6852 15.7039 23.6729 15.7098 23.6605C15.7157 23.6481 15.7212 23.6355 15.7268 23.6229C15.7323 23.6105 15.7379 23.5981 15.7432 23.5855C15.746 23.5788 15.7486 23.5719 15.7513 23.565C15.7538 23.5587 15.7563 23.5523 15.7588 23.5459C15.7636 23.5335 15.7686 23.5212 15.773 23.5087C15.7736 23.5073 15.774 23.5058 15.7745 23.5044C15.7789 23.4921 15.783 23.4796 15.7871 23.4672C15.7912 23.4548 15.7955 23.4426 15.7993 23.4301C15.8024 23.4198 15.8052 23.4093 15.8082 23.3989C15.8092 23.395 15.8104 23.3911 15.8115 23.3872C15.8149 23.3748 15.8186 23.3624 15.8218 23.3498C15.8235 23.3431 15.8249 23.3362 15.8265 23.3294C15.8284 23.3212 15.8303 23.313 15.8322 23.3047C15.8349 23.2925 15.8379 23.2803 15.8404 23.2679C15.8422 23.2592 15.8436 23.2505 15.8451 23.2417C15.8464 23.2346 15.8477 23.2274 15.8489 23.2203C15.851 23.2084 15.8533 23.1966 15.8551 23.1846C15.8564 23.1759 15.8573 23.167 15.8585 23.1582C15.8595 23.1501 15.8606 23.1422 15.8615 23.1341C15.8629 23.1227 15.8646 23.1114 15.8658 23.0999C15.8677 23.0804 15.8689 23.0607 15.8703 23.0411C15.8709 23.032 15.8718 23.023 15.8723 23.014C15.8737 22.9851 15.8745 22.9561 15.8745 22.9269V21.5003C15.8745 21.4708 15.8737 21.4413 15.8722 21.4121C15.8692 21.3536 15.8634 21.2959 15.8547 21.2391C15.8462 21.1839 15.8351 21.1297 15.8215 21.0764C15.8194 21.068 15.8169 21.0598 15.8147 21.0515C15.81 21.0341 15.8052 21.0167 15.7999 20.9995C15.7969 20.9897 15.7937 20.9801 15.7906 20.9704C15.7855 20.9547 15.7803 20.9392 15.7748 20.9238C15.7712 20.9138 15.7675 20.9039 15.7638 20.8939C15.7581 20.8789 15.7522 20.864 15.7462 20.8493C15.7422 20.8395 15.7381 20.8297 15.7339 20.82C15.7275 20.8051 15.7208 20.7903 15.7139 20.7756C15.7096 20.7665 15.7054 20.7573 15.701 20.7482C15.6932 20.7324 15.6851 20.7167 15.6768 20.7011C15.6729 20.6936 15.6691 20.686 15.665 20.6786C15.64 20.6328 15.613 20.5884 15.5841 20.5453C15.5793 20.5382 15.5744 20.5313 15.5695 20.5244C15.5596 20.51 15.5495 20.4957 15.5391 20.4816C15.5332 20.4736 15.527 20.4657 15.5209 20.4578C15.5112 20.4451 15.5014 20.4324 15.4913 20.42C15.4847 20.4119 15.4779 20.4038 15.4712 20.3958C15.4611 20.3838 15.4508 20.372 15.4404 20.3603C15.4334 20.3525 15.4265 20.3447 15.4193 20.337C15.4085 20.3252 15.3975 20.3137 15.3863 20.3023C15.3793 20.2952 15.3724 20.2879 15.3653 20.2809C15.3529 20.2687 15.3402 20.2567 15.3274 20.2448C15.3212 20.2391 15.3152 20.2331 15.3089 20.2274C15.2899 20.2103 15.2706 20.1935 15.2508 20.1771C15.2504 20.1768 15.25 20.1765 15.2497 20.1762C15.2299 20.1599 15.2097 20.1441 15.1893 20.1287C15.1824 20.1235 15.1753 20.1187 15.1684 20.1136C15.1544 20.1034 15.1403 20.0932 15.1259 20.0834C15.1176 20.0777 15.1091 20.0722 15.1007 20.0667C15.0874 20.0579 15.0739 20.0492 15.0603 20.0408C15.0513 20.0352 15.0422 20.0298 15.0331 20.0244C15.0196 20.0164 15.0061 20.0085 14.9923 20.0009C14.9831 19.9958 14.9738 19.9906 14.9644 19.9856C14.9502 19.9781 14.9359 19.9708 14.9215 19.9637C14.9124 19.9591 14.9033 19.9545 14.8941 19.9502C14.8783 19.9427 14.8623 19.9355 14.8462 19.9285C14.8382 19.925 14.8303 19.9213 14.8223 19.918C14.7983 19.9079 14.7742 19.8983 14.7498 19.8894C14.7492 19.8892 14.7486 19.889 14.7481 19.8887C14.7236 19.8798 14.6989 19.8715 14.6739 19.8636C14.6656 19.861 14.6571 19.8587 14.6487 19.8562C14.6316 19.8511 14.6145 19.8461 14.5973 19.8416C14.5873 19.839 14.5771 19.8366 14.567 19.8341C14.5511 19.8302 14.535 19.8265 14.5189 19.823C14.5083 19.8207 14.4975 19.8186 14.4868 19.8166C14.4709 19.8135 14.4549 19.8106 14.4388 19.808C14.4279 19.8062 14.417 19.8044 14.4061 19.8029C14.3896 19.8005 14.373 19.7985 14.3563 19.7966C14.3458 19.7954 14.3353 19.7941 14.3246 19.7931C14.3064 19.7913 14.2881 19.7901 14.2698 19.7889C14.2606 19.7883 14.2515 19.7875 14.2423 19.7871C14.215 19.7858 14.1876 19.7851 14.1601 19.785C14.1598 19.785 14.1595 19.785 14.1592 19.785H14.1592H14.1592C14.1859 19.785 14.2125 19.7842 14.2391 19.783C14.2645 19.7818 14.2898 19.7799 14.315 19.7776C14.3166 19.7775 14.3182 19.7774 14.3197 19.7773C14.3214 19.7772 14.3231 19.7771 14.3248 19.7769C14.3482 19.7747 14.3714 19.7717 14.3945 19.7686C14.3995 19.7679 14.4045 19.7674 14.4095 19.7667C14.4312 19.7635 14.4528 19.7596 14.4743 19.7556C14.4757 19.7554 14.477 19.7551 14.4784 19.7549C14.4832 19.7541 14.488 19.7533 14.4928 19.7523C14.5134 19.7482 14.5337 19.7436 14.5541 19.7388C14.5609 19.7372 14.5679 19.7357 14.5747 19.734C14.5942 19.7292 14.6135 19.7237 14.6328 19.7182C14.6359 19.7173 14.6391 19.7164 14.6423 19.7155C14.6466 19.7142 14.6509 19.7131 14.6552 19.7118C14.6738 19.7062 14.6921 19.7001 14.7104 19.6939C14.7143 19.6926 14.7182 19.6913 14.722 19.6899C14.726 19.6886 14.73 19.6873 14.734 19.6859C14.7517 19.6796 14.7692 19.6729 14.7866 19.666C14.7917 19.664 14.7968 19.662 14.8018 19.66C14.8049 19.6587 14.808 19.6576 14.8111 19.6563C14.828 19.6493 14.8448 19.6419 14.8614 19.6345C14.8652 19.6328 14.869 19.6311 14.8728 19.6293C14.8773 19.6272 14.8819 19.6253 14.8864 19.6232C14.9025 19.6156 14.9185 19.6077 14.9343 19.5996C14.9381 19.5977 14.9419 19.5958 14.9457 19.5938C14.9504 19.5914 14.9551 19.589 14.9598 19.5866C14.9751 19.5785 14.9903 19.57 15.0054 19.5614C15.014 19.5565 15.0227 19.5516 15.0312 19.5465C15.0458 19.5379 15.0603 19.529 15.0746 19.5199C15.0781 19.5177 15.0815 19.5154 15.0851 19.5132C15.0902 19.5099 15.0954 19.5066 15.1005 19.5033C15.1144 19.4941 15.1281 19.4848 15.1417 19.4752C15.1445 19.4733 15.1473 19.4713 15.1501 19.4693C15.156 19.4652 15.1618 19.4611 15.1676 19.4569C15.1808 19.4473 15.1938 19.4375 15.2067 19.4275C15.2153 19.4209 15.2238 19.4142 15.2323 19.4074C15.2447 19.3974 15.2571 19.3872 15.2692 19.3769C15.2777 19.3696 15.2862 19.3623 15.2945 19.3549C15.3062 19.3446 15.3179 19.334 15.3293 19.3234C15.3365 19.3167 15.3435 19.3099 15.3505 19.3031C15.3518 19.302 15.353 19.3008 15.3542 19.2996C15.3653 19.2889 15.3762 19.2781 15.3869 19.2671C15.3952 19.2586 15.4033 19.2501 15.4114 19.2415C15.4217 19.2305 15.4319 19.2193 15.4419 19.2081C15.4441 19.2056 15.4462 19.203 15.4484 19.2005C15.4542 19.1939 15.46 19.1874 15.4656 19.1807C15.4752 19.1694 15.4848 19.1581 15.4941 19.1465C15.5019 19.1369 15.5095 19.1271 15.5171 19.1173C15.526 19.1058 15.5349 19.0941 15.5435 19.0824C15.551 19.0722 15.5583 19.0618 15.5655 19.0515C15.5737 19.0396 15.5819 19.0278 15.5899 19.0158C15.597 19.0051 15.6038 18.9942 15.6107 18.9833C15.6183 18.9713 15.6258 18.9593 15.6332 18.9471C15.6399 18.9358 15.6464 18.9243 15.6529 18.9128C15.6598 18.9007 15.6666 18.8885 15.6732 18.8762C15.677 18.869 15.6806 18.8617 15.6844 18.8544C15.6868 18.8497 15.6893 18.845 15.6916 18.8402C15.6978 18.8279 15.7041 18.8157 15.71 18.8032C15.7159 18.7908 15.7214 18.7782 15.727 18.7656C15.7325 18.7531 15.7381 18.7408 15.7434 18.7282C15.7488 18.7152 15.7538 18.7021 15.7588 18.689C15.7589 18.6889 15.7589 18.6888 15.7589 18.6888C15.7638 18.6763 15.7687 18.6639 15.7732 18.6513C15.7764 18.6425 15.7793 18.6335 15.7823 18.6247C15.7839 18.6198 15.7856 18.615 15.7872 18.6102C15.7914 18.5977 15.7957 18.5853 15.7995 18.5727C15.8021 18.5641 15.8045 18.5553 15.8069 18.5466C15.8085 18.541 15.8102 18.5353 15.8117 18.5297C15.8152 18.5173 15.8188 18.5049 15.822 18.4924C15.8257 18.4775 15.829 18.4625 15.8323 18.4475C15.8351 18.4352 15.8381 18.4229 15.8406 18.4105C15.8411 18.408 15.8415 18.4055 15.8419 18.403C15.8444 18.3899 15.8467 18.3767 15.849 18.3634C15.8511 18.3514 15.8535 18.3394 15.8553 18.3272C15.8565 18.3193 15.8573 18.3113 15.8583 18.3034C15.8594 18.2946 15.8606 18.2857 15.8617 18.2769C15.8631 18.2654 15.8648 18.2541 15.866 18.2426C15.8675 18.2274 15.8683 18.2121 15.8694 18.1968C15.8697 18.193 15.8701 18.1892 15.8703 18.1853C15.8709 18.1757 15.8719 18.1663 15.8724 18.1567C15.8739 18.1278 15.8746 18.0988 15.8746 18.0696V16.6431C15.8746 16.6135 15.8739 16.584 15.8724 16.5548C15.8694 16.4963 15.8635 16.4386 15.8548 16.3818C15.847 16.3304 15.8365 16.2798 15.8242 16.2299C15.8161 16.1973 15.8074 16.1648 15.7975 16.133C15.7891 16.1061 15.7801 16.0795 15.7705 16.0533C15.6936 15.8431 15.5767 15.6522 15.429 15.4897C15.41 15.4688 15.3904 15.4483 15.3703 15.4284C15.3636 15.4216 15.3565 15.4153 15.3497 15.4086C15.3361 15.3956 15.3226 15.3825 15.3086 15.3699C15.3002 15.3624 15.2916 15.3551 15.2831 15.3478C15.2702 15.3366 15.2573 15.3253 15.2441 15.3146C15.2348 15.3069 15.2252 15.2997 15.2158 15.2922C15.2029 15.2822 15.1901 15.2721 15.1769 15.2624C15.1669 15.255 15.1566 15.2479 15.1465 15.2407C15.1334 15.2315 15.1204 15.2223 15.107 15.2135C15.0964 15.2064 15.0857 15.1997 15.075 15.1929C15.0616 15.1845 15.0483 15.1761 15.0347 15.1681C15.0236 15.1615 15.0124 15.1551 15.0012 15.1488C14.9875 15.1411 14.9738 15.1334 14.9599 15.1261C14.9485 15.1201 14.9369 15.1142 14.9253 15.1084C14.9112 15.1014 14.8971 15.0945 14.8829 15.0879C14.871 15.0824 14.8592 15.077 14.8473 15.0718C14.8329 15.0655 14.8183 15.0594 14.8037 15.0534C14.7916 15.0485 14.7794 15.0437 14.7671 15.039C14.7523 15.0334 14.7375 15.0281 14.7225 15.0229C14.7101 15.0186 14.6977 15.0143 14.6851 15.0103C14.6699 15.0054 14.6545 15.0008 14.6391 14.9963C14.6266 14.9927 14.614 14.989 14.6014 14.9856C14.5856 14.9814 14.5697 14.9776 14.5538 14.9739C14.5412 14.9709 14.5286 14.9678 14.5159 14.9651C14.4994 14.9617 14.4827 14.9587 14.4661 14.9557C14.4537 14.9534 14.4414 14.951 14.4289 14.949C14.4113 14.9462 14.3935 14.9441 14.3757 14.9418C14.3639 14.9404 14.3522 14.9386 14.3403 14.9374C14.3204 14.9353 14.3003 14.9339 14.2803 14.9325C14.2703 14.9318 14.2604 14.9308 14.2504 14.9303C14.2203 14.9287 14.1899 14.9278 14.1593 14.9278C14.1861 14.9278 14.2127 14.9271 14.2392 14.9258C14.2649 14.9247 14.2905 14.9228 14.3159 14.9204C14.3166 14.9204 14.3171 14.9203 14.3178 14.9203C14.3202 14.9201 14.3226 14.92 14.3249 14.9197C14.3484 14.9175 14.3718 14.9145 14.3951 14.9113C14.3999 14.9106 14.4048 14.9102 14.4096 14.9095C14.4315 14.9063 14.4532 14.9024 14.4749 14.8984C14.4773 14.8979 14.4797 14.8975 14.4821 14.8971C14.4857 14.8964 14.4894 14.8959 14.493 14.8952C14.5137 14.8911 14.5341 14.8864 14.5545 14.8816C14.5575 14.8809 14.5605 14.8803 14.5635 14.8795C14.5673 14.8787 14.5711 14.8778 14.5749 14.8769C14.5945 14.872 14.6139 14.8666 14.6332 14.861C14.6406 14.8589 14.648 14.8569 14.6554 14.8547C14.674 14.8491 14.6925 14.843 14.7108 14.8367C14.7186 14.8341 14.7264 14.8316 14.7341 14.8288C14.752 14.8225 14.7695 14.8157 14.787 14.8088C14.7951 14.8056 14.8032 14.8025 14.8112 14.7993C14.8283 14.7923 14.8451 14.7849 14.8618 14.7773C14.8701 14.7736 14.8784 14.77 14.8865 14.7662C14.9027 14.7585 14.9187 14.7506 14.9347 14.7425C14.9431 14.7382 14.9516 14.7339 14.96 14.7295C14.9754 14.7214 14.9906 14.7129 15.0058 14.7042C15.0143 14.6994 15.0229 14.6945 15.0313 14.6896C15.046 14.6809 15.0605 14.6719 15.0749 14.6628C15.0835 14.6573 15.0921 14.6519 15.1006 14.6463C15.1146 14.6371 15.1283 14.6277 15.1419 14.6182C15.1455 14.6157 15.1489 14.6132 15.1524 14.6107C15.1575 14.6071 15.1626 14.6036 15.1677 14.5999C15.1809 14.5903 15.194 14.5804 15.2069 14.5704C15.2077 14.5698 15.2085 14.5691 15.2093 14.5686C15.217 14.5626 15.2248 14.5565 15.2324 14.5504C15.2449 14.5404 15.2572 14.5302 15.2694 14.5198C15.2779 14.5125 15.2863 14.5053 15.2946 14.4979C15.3064 14.4875 15.318 14.477 15.3295 14.4663C15.3376 14.4587 15.3457 14.451 15.3536 14.4433C15.3539 14.443 15.3541 14.4428 15.3543 14.4426C15.3654 14.4318 15.3764 14.4209 15.3871 14.4099C15.3893 14.4077 15.3913 14.4055 15.3934 14.4033C15.3994 14.397 15.4054 14.3908 15.4114 14.3844C15.4217 14.3733 15.432 14.3622 15.4421 14.3509C15.45 14.3419 15.4579 14.3328 15.4657 14.3237C15.4753 14.3124 15.4849 14.3009 15.4943 14.2894C15.4954 14.2879 15.4965 14.2865 15.4976 14.2851C15.5042 14.2769 15.5107 14.2686 15.5171 14.2603C15.5261 14.2487 15.535 14.2371 15.5436 14.2252C15.551 14.2151 15.5582 14.2048 15.5654 14.1946C15.5737 14.1827 15.582 14.1709 15.59 14.1587C15.5971 14.148 15.604 14.1372 15.6108 14.1263C15.6184 14.1143 15.626 14.1022 15.6333 14.09C15.6362 14.0851 15.639 14.08 15.6419 14.075C15.6456 14.0686 15.6493 14.0622 15.653 14.0557C15.6599 14.0436 15.6667 14.0314 15.6733 14.0191C15.6797 14.0072 15.6857 13.9951 15.6918 13.9831C15.698 13.9708 15.7042 13.9585 15.7102 13.946C15.716 13.9336 15.7215 13.921 15.7271 13.9085C15.7327 13.8961 15.7383 13.8837 15.7435 13.8711C15.7489 13.8582 15.7539 13.845 15.759 13.8318C15.7638 13.8193 15.7688 13.8069 15.7734 13.7942C15.7744 13.7915 15.7752 13.7886 15.7762 13.7858C15.78 13.775 15.7836 13.7642 15.7872 13.7534C15.7914 13.7408 15.7957 13.7283 15.7996 13.7157C15.8039 13.7017 15.8077 13.6874 15.8117 13.6732C15.8117 13.6731 15.8117 13.673 15.8118 13.6729C15.8152 13.6604 15.8189 13.648 15.8221 13.6354C15.8238 13.6286 15.8252 13.6216 15.8269 13.6148C15.8287 13.6067 15.8306 13.5987 15.8325 13.5906C15.8353 13.5782 15.8383 13.566 15.8408 13.5536C15.8439 13.5378 15.8465 13.5219 15.8493 13.5061C15.8513 13.4941 15.8537 13.4822 15.8555 13.4702C15.8562 13.4653 15.8567 13.4605 15.8574 13.4556C15.8589 13.4438 15.8604 13.4319 15.8619 13.42C15.8633 13.4084 15.865 13.3971 15.8662 13.3855C15.8681 13.3664 15.8693 13.3471 15.8706 13.3278C15.8712 13.3184 15.8722 13.309 15.8727 13.2996C15.8741 13.2708 15.8749 13.2417 15.8749 13.2126V13.2125V13.2125V11.7859C15.8749 11.7563 15.8741 11.7269 15.8726 11.6976C15.8696 11.6391 15.8638 11.5814 15.8551 11.5247C15.8472 11.4732 15.8368 11.4226 15.8244 11.3728C15.8164 11.3401 15.8076 11.3077 15.7977 11.2758C15.7894 11.2489 15.7804 11.2224 15.7708 11.1961C15.6938 10.9859 15.5769 10.795 15.4292 10.6326C15.4102 10.6116 15.3906 10.5912 15.3706 10.5712C15.3638 10.5645 15.3567 10.5581 15.3499 10.5515C15.3364 10.5384 15.3229 10.5253 15.3089 10.5127C15.3005 10.5052 15.2918 10.4979 15.2833 10.4906C15.2704 10.4794 15.2576 10.4682 15.2444 10.4574C15.2351 10.4498 15.2255 10.4425 15.216 10.4351C15.2032 10.425 15.1903 10.4149 15.1771 10.4052C15.1671 10.3978 15.1569 10.3907 15.1467 10.3835C15.1337 10.3743 15.1206 10.3651 15.1073 10.3563C15.0967 10.3493 15.0859 10.3425 15.0752 10.3357C15.0619 10.3273 15.0485 10.3189 15.035 10.3109C15.0239 10.3043 15.0126 10.2979 15.0014 10.2916C14.9877 10.2839 14.974 10.2763 14.9602 10.2689C14.9487 10.2629 14.9372 10.257 14.9255 10.2512C14.9115 10.2442 14.8974 10.2374 14.8831 10.2307C14.8713 10.2252 14.8594 10.2198 14.8475 10.2146C14.8331 10.2083 14.8186 10.2022 14.804 10.1962C14.7918 10.1913 14.7796 10.1865 14.7674 10.1818C14.7526 10.1762 14.7377 10.1709 14.7227 10.1657C14.7103 10.1614 14.6979 10.1571 14.6854 10.1531C14.6701 10.1482 14.6547 10.1437 14.6394 10.1392C14.6268 10.1355 14.6143 10.1318 14.6016 10.1284C14.5858 10.1242 14.5699 10.1205 14.554 10.1167C14.5414 10.1137 14.5289 10.1106 14.5161 10.108C14.4997 10.1045 14.483 10.1015 14.4663 10.0985C14.4539 10.0962 14.4416 10.0938 14.4291 10.0918C14.4115 10.0891 14.3937 10.0869 14.3759 10.0847C14.3641 10.0832 14.3524 10.0814 14.3405 10.0802C14.3207 10.0781 14.3006 10.0767 14.2805 10.0753C14.2706 10.0747 14.2607 10.0736 14.2507 10.0731C14.2205 10.0715 14.1901 10.0707 14.1596 10.0707L14.1562 10.0705H14.1596H14.1675C14.1916 10.0704 14.2155 10.0697 14.2394 10.0687V10.0685C14.3097 10.0652 14.3789 10.0577 14.4468 10.0463C14.4487 10.0459 14.4506 10.0456 14.4526 10.0453C14.484 10.0398 14.5151 10.0336 14.5458 10.0265C14.5488 10.0258 14.5518 10.0251 14.5547 10.0244C14.5868 10.0168 14.6187 10.0085 14.65 9.99912C14.6502 9.99907 14.6504 9.99902 14.6505 9.99897C14.6758 9.99146 14.7007 9.9833 14.7254 9.97466H14.7255C14.7268 9.97422 14.728 9.97383 14.7293 9.97339C14.753 9.96504 14.7765 9.9561 14.7998 9.94673C14.802 9.94585 14.8042 9.94502 14.8063 9.94414C14.8289 9.93496 14.851 9.92529 14.873 9.91519C14.8759 9.91387 14.8788 9.91265 14.8816 9.91133C14.9028 9.90146 14.9238 9.89111 14.9445 9.88042C14.9459 9.87974 14.9473 9.879 14.9486 9.87832C14.9508 9.87725 14.9529 9.87612 14.955 9.87505C14.9751 9.8645 14.9949 9.85352 15.0145 9.84224C15.0185 9.83994 15.0225 9.8377 15.0264 9.8354C15.0454 9.82427 15.0641 9.8127 15.0826 9.80088C15.087 9.7981 15.0914 9.79531 15.0957 9.79248C15.1136 9.78076 15.1312 9.7687 15.1487 9.7564C15.1534 9.75308 15.1582 9.74976 15.1628 9.74639C15.1797 9.73418 15.1964 9.72163 15.2128 9.70884C15.2173 9.70532 15.2218 9.70181 15.2263 9.69824C15.2267 9.6979 15.2272 9.69756 15.2276 9.69717C15.2436 9.68452 15.2592 9.67153 15.2746 9.65835C15.2795 9.65415 15.2844 9.6499 15.2893 9.64561C15.2895 9.64541 15.2898 9.64517 15.29 9.64497C15.3049 9.63193 15.3196 9.6186 15.334 9.60503C15.3394 9.6 15.3447 9.59497 15.3499 9.58989C15.3638 9.57646 15.3775 9.56279 15.391 9.54893C15.3964 9.54336 15.4018 9.53769 15.4071 9.53208C15.4201 9.51831 15.4329 9.50435 15.4454 9.49014C15.4508 9.48398 15.4562 9.47778 15.4615 9.47158C15.4736 9.45747 15.4855 9.44326 15.4971 9.42876C15.4981 9.42754 15.4991 9.42627 15.5 9.42505C15.5044 9.41953 15.5087 9.41401 15.5131 9.4085C15.5243 9.39414 15.5354 9.37964 15.5461 9.36489C15.547 9.36362 15.5479 9.36235 15.5488 9.36108C15.5531 9.35508 15.5574 9.34907 15.5617 9.34302C15.572 9.32837 15.5822 9.31362 15.5921 9.29868C15.5933 9.29688 15.5944 9.29507 15.5956 9.29326C15.5996 9.28716 15.6034 9.28101 15.6073 9.27485C15.6167 9.26011 15.626 9.24526 15.635 9.23022C15.64 9.22178 15.6448 9.21323 15.6496 9.20474C15.6582 9.18979 15.6666 9.17485 15.6747 9.15967C15.6795 9.15063 15.6841 9.14141 15.6887 9.13228C15.6964 9.11724 15.704 9.10215 15.7112 9.08682C15.7158 9.0772 15.72 9.06748 15.7244 9.05776C15.7312 9.04263 15.738 9.02749 15.7443 9.01216C15.7486 9.00195 15.7524 8.9916 15.7565 8.9813C15.7625 8.96611 15.7685 8.95098 15.774 8.9356C15.7779 8.92476 15.7814 8.91377 15.7851 8.90288C15.7902 8.8877 15.7954 8.87256 15.8 8.85718C15.8003 8.8562 15.8006 8.85522 15.8009 8.85425C15.8041 8.8437 15.8069 8.83296 15.81 8.82231C15.8142 8.80732 15.8186 8.79238 15.8224 8.7772C15.8241 8.77061 15.8254 8.76387 15.827 8.75728C15.8283 8.75161 15.8296 8.746 15.8309 8.74033C15.8343 8.72544 15.8379 8.7106 15.841 8.69556C15.8418 8.69145 15.8424 8.6873 15.8432 8.68315C15.8449 8.67407 15.8464 8.66484 15.848 8.65571C15.8506 8.64131 15.8534 8.627 15.8556 8.61245C15.8577 8.59834 15.8592 8.58403 15.861 8.56978C15.8627 8.55586 15.8647 8.54199 15.8662 8.52798C15.8671 8.51894 15.8676 8.50977 15.8683 8.50068C15.8689 8.49307 15.8695 8.48545 15.87 8.47778C15.8708 8.46597 15.872 8.45425 15.8727 8.44238C15.874 8.41499 15.8747 8.38745 15.8748 8.35977C15.8748 8.3583 15.8749 8.35684 15.8749 8.35537V6.929C15.8749 5.98169 15.1069 5.21372 14.1596 5.21372C14.1863 5.21372 14.2129 5.21294 14.2394 5.21172V5.21167C14.26 5.21074 14.2804 5.20913 14.3008 5.20747C14.3044 5.20718 14.3082 5.20693 14.3118 5.20664C14.3145 5.20644 14.3171 5.2063 14.3197 5.20605C14.3383 5.20435 14.3568 5.2021 14.3753 5.19976C14.3836 5.19873 14.3919 5.19775 14.4001 5.19658C14.4177 5.19409 14.4352 5.19126 14.4526 5.18828C14.458 5.18735 14.4634 5.18633 14.4688 5.18535C14.4723 5.18472 14.4758 5.18413 14.4793 5.1835C14.4962 5.18027 14.5131 5.17686 14.5299 5.17319C14.5389 5.17119 14.5479 5.16909 14.5569 5.16694C14.5735 5.16299 14.59 5.15894 14.6064 5.15454C14.6122 5.15303 14.6178 5.15137 14.6235 5.14971C14.6266 5.14883 14.6297 5.14795 14.6328 5.14707C14.6492 5.14233 14.6657 5.1376 14.682 5.13242C14.6844 5.13164 14.6868 5.13081 14.6892 5.12998C14.6944 5.12827 14.6996 5.12642 14.7049 5.12466C14.7328 5.11533 14.7604 5.10527 14.7876 5.09453C14.7877 5.09448 14.7878 5.09443 14.7879 5.09438C14.8152 5.08364 14.8421 5.07227 14.8686 5.06016C14.8772 5.05625 14.8859 5.05254 14.8944 5.04849C14.9077 5.04219 14.9208 5.03545 14.9339 5.02881C14.9441 5.02358 14.9545 5.01846 14.9646 5.01304C14.977 5.00649 14.9891 4.99966 15.0012 4.99282C15.0119 4.98677 15.0226 4.98071 15.0332 4.97441C15.0447 4.96758 15.0562 4.96055 15.0675 4.95342C15.0781 4.94678 15.0887 4.94004 15.0991 4.93315C15.0994 4.93301 15.0996 4.93286 15.0998 4.93271C15.1107 4.92559 15.1215 4.91831 15.1323 4.91094C15.1339 4.90986 15.1354 4.90869 15.137 4.90757C15.1464 4.90102 15.1557 4.89438 15.1649 4.8877C15.175 4.88042 15.1851 4.87314 15.195 4.86562C15.2064 4.85693 15.2176 4.848 15.2289 4.83906C15.2378 4.83188 15.2469 4.82485 15.2558 4.81748C15.2693 4.8062 15.2825 4.79453 15.2957 4.78286C15.3019 4.77744 15.3082 4.77217 15.3143 4.76665C15.3146 4.76641 15.3148 4.76611 15.3151 4.76587C15.3351 4.74766 15.3546 4.729 15.3737 4.70986C15.3741 4.70947 15.3745 4.70903 15.3749 4.70864C15.375 4.70845 15.3752 4.70825 15.3754 4.70801C15.3941 4.68921 15.4125 4.66997 15.4303 4.65034C15.4305 4.65015 15.4306 4.65 15.4308 4.6498C15.4318 4.64868 15.4328 4.64746 15.4338 4.64634C15.451 4.62734 15.4678 4.60801 15.484 4.58828C15.4864 4.58545 15.4885 4.58247 15.4908 4.57964C15.5058 4.56123 15.5206 4.54263 15.5348 4.52358C15.5348 4.52349 15.5349 4.52344 15.535 4.52334C15.5376 4.51978 15.54 4.51606 15.5427 4.5125C15.5562 4.49404 15.5697 4.47544 15.5825 4.4564C15.5853 4.45234 15.5877 4.44814 15.5904 4.44404C15.6029 4.4252 15.6152 4.4063 15.627 4.38691C15.6289 4.38379 15.6307 4.38052 15.6325 4.37734C15.6355 4.37241 15.6382 4.36733 15.6412 4.36235C15.6503 4.34673 15.6596 4.3311 15.6683 4.31519C15.6713 4.30962 15.674 4.30386 15.677 4.29824C15.6779 4.29639 15.6788 4.29453 15.6798 4.29268C15.6887 4.27568 15.6977 4.25869 15.7061 4.24131C15.7098 4.23359 15.7131 4.22559 15.7167 4.21777C15.7248 4.20039 15.7329 4.18306 15.7403 4.16538C15.7439 4.15684 15.7471 4.148 15.7506 4.13936C15.7575 4.12217 15.7646 4.10503 15.7709 4.0876C15.7729 4.08232 15.7746 4.0769 15.7764 4.07153C15.779 4.06406 15.7814 4.05649 15.784 4.04897C15.7887 4.0354 15.7935 4.02187 15.7978 4.00811C15.7994 4.00298 15.8007 3.99766 15.8022 3.99253C15.8024 3.99189 15.8026 3.99121 15.8028 3.99058C15.8046 3.98408 15.8064 3.97764 15.8083 3.97119C15.8125 3.9564 15.817 3.94175 15.8209 3.92681C15.8252 3.90991 15.8289 3.89272 15.8327 3.87563C15.8352 3.86504 15.8378 3.85454 15.84 3.84385C15.8422 3.83315 15.8439 3.82231 15.8458 3.81152C15.8463 3.80869 15.8468 3.80581 15.8473 3.80298C15.8477 3.80093 15.848 3.79888 15.8484 3.79688C15.8506 3.78442 15.8531 3.77207 15.8551 3.75952C15.8563 3.75166 15.857 3.74365 15.8581 3.73574C15.8591 3.72729 15.8603 3.7189 15.8613 3.71045C15.8629 3.69819 15.8647 3.68603 15.866 3.67368C15.8689 3.64487 15.8711 3.61587 15.8726 3.58667C15.8741 3.55747 15.8749 3.52803 15.8749 3.49844V2.07178C15.8743 2.04219 15.8735 2.01274 15.8721 1.9835Z" fill="#FF901D"/>
<path d="M15.8745 24.6426C20.5778 24.6426 24.3906 20.8298 24.3906 16.1265C24.3906 11.4231 20.5778 7.61035 15.8745 7.61035C11.1712 7.61035 7.3584 11.4231 7.3584 16.1265C7.3584 20.8298 11.1712 24.6426 15.8745 24.6426Z" fill="#FF901D"/>
<path d="M15.8743 7.61133C15.4922 7.61133 15.1161 7.63691 14.7473 7.68564C18.9178 8.23711 22.1363 11.8061 22.1363 16.1272C22.1363 20.4484 18.9178 24.0174 14.7473 24.5688C15.1161 24.6176 15.4921 24.6432 15.8743 24.6432C20.5775 24.6432 24.3902 20.8305 24.3902 16.1272C24.3902 11.424 20.5775 7.61133 15.8743 7.61133Z" fill="#FF6D3A"/>
<path d="M15.8745 22.8955C19.6129 22.8955 22.6436 19.8649 22.6436 16.1265C22.6436 12.388 19.6129 9.35742 15.8745 9.35742C12.1361 9.35742 9.10547 12.388 9.10547 16.1265C9.10547 19.8649 12.1361 22.8955 15.8745 22.8955Z" fill="#FEE570"/>
<path d="M20.6609 20.9131C23.3044 18.2695 23.3045 13.9834 20.6609 11.3398L11.0876 20.9131C13.7312 23.5567 18.0173 23.5567 20.6609 20.9131Z" fill="#F4D451"/>
<path d="M22.649 16.3582C22.453 16.3411 22.2795 16.4867 22.2624 16.6832C22.1327 18.1825 21.4742 19.5952 20.4083 20.6611C17.9083 23.1612 13.8403 23.1613 11.3401 20.6611C8.84003 18.161 8.84003 14.093 11.3401 11.5929C13.8402 9.09275 17.9082 9.09275 20.4083 11.5929C21.2165 12.4011 21.7946 13.4095 22.0801 14.5094C22.1297 14.7002 22.3245 14.8149 22.5156 14.7653C22.7064 14.7157 22.821 14.5208 22.7715 14.3299C22.454 13.1071 21.8116 11.986 20.9135 11.0879C18.1349 8.30925 13.6137 8.30925 10.8351 11.0879C8.05658 13.8664 8.05658 18.3876 10.8351 21.1661C12.2245 22.5554 14.0494 23.2501 15.8743 23.2501C17.6993 23.2501 19.5242 22.5554 20.9135 21.1661C22.098 19.9816 22.8298 18.4114 22.974 16.7448C22.991 16.5483 22.8455 16.3752 22.649 16.3582Z" fill="black"/>
<path d="M15.8743 7.25386C13.5005 7.25386 11.3416 8.19087 9.7477 9.71436L9.74775 9.71431H2.3251C1.57622 9.71431 0.966943 9.10503 0.966943 8.35615V6.92959C0.966943 6.18071 1.57622 5.57144 2.3251 5.57144H14.159C14.7573 5.57144 15.2787 5.95488 15.4562 6.52563C15.5147 6.71392 15.7149 6.81914 15.9033 6.76055C16.0916 6.70195 16.1968 6.50181 16.1382 6.31348C15.9943 5.85088 15.7025 5.46895 15.3238 5.2124C15.8713 4.83901 16.2314 4.21035 16.2314 3.49902V2.07241C16.2314 0.929688 15.3017 0 14.159 0H2.3251C1.18237 0 0.252686 0.929688 0.252686 2.07241V3.49897C0.252686 4.21143 0.614111 4.84111 1.16318 5.21426C0.614111 5.5874 0.252686 6.21709 0.252686 6.92954V8.3561C0.252686 9.06855 0.614111 9.69824 1.16318 10.0714C0.614111 10.4446 0.252686 11.0742 0.252686 11.7867V13.2133C0.252686 13.9258 0.614111 14.5554 1.16318 14.9286C0.614111 15.3018 0.252686 15.9314 0.252686 16.6439V18.0705C0.252686 18.7829 0.614111 19.4126 1.16318 19.7857C0.614111 20.1589 0.252686 20.7886 0.252686 21.501V22.9276C0.252686 24.0703 1.18237 25 2.3251 25H11.6429C11.8401 25 12 24.8401 12 24.6429C12 24.4457 11.8401 24.2857 11.6429 24.2857H2.3251C1.57622 24.2857 0.966943 23.6765 0.966943 22.9276V21.501C0.966943 20.7521 1.57622 20.1429 2.3251 20.1429H7.96333C9.4313 23.0229 12.4261 25 15.8743 25C20.7669 25 24.7473 21.0195 24.7473 16.1269C24.7473 11.2343 20.7668 7.25386 15.8743 7.25386ZM0.966943 3.49897V2.07241C0.966943 1.32354 1.57622 0.714258 2.3251 0.714258H14.159C14.9079 0.714258 15.5171 1.32354 15.5171 2.07241V3.49897C15.5171 4.24785 14.9079 4.85713 14.159 4.85713H2.3251C1.57622 4.85718 0.966943 4.2479 0.966943 3.49897ZM0.966943 13.2133V11.7867C0.966943 11.0378 1.57622 10.4285 2.3251 10.4285H9.07856C8.1001 11.5935 7.41611 13.0128 7.13931 14.5714H2.3251C1.57622 14.5714 0.966943 13.9622 0.966943 13.2133ZM7.63867 19.4286H2.3251C1.57622 19.4286 0.966943 18.8193 0.966943 18.0705V16.6439C0.966943 15.895 1.57622 15.2857 2.3251 15.2857H7.04131C7.01514 15.5627 7.00117 15.8433 7.00117 16.127C7.00117 17.2933 7.22783 18.4076 7.63867 19.4287V19.4286ZM15.8743 24.2857C11.3755 24.2857 7.71543 20.6257 7.71543 16.1269C7.71543 11.6281 11.3754 7.96811 15.8743 7.96811C20.3731 7.96811 24.0331 11.6281 24.0331 16.1269C24.0331 20.6257 20.373 24.2857 15.8743 24.2857Z" fill="black"/>
<path d="M15.6624 20.4234C14.1659 20.3992 13.1521 19.5906 13.1521 18.9992C13.1521 18.7096 13.4055 18.3113 13.7073 18.3113C14.1055 18.3113 14.4314 19.1561 15.6624 19.2526V16.4165C14.5762 16.0303 13.3693 15.5959 13.3693 14.0511C13.3693 12.5304 14.5158 11.927 15.6624 11.8063V11.4563C15.6624 11.3115 15.8072 11.1787 16.0124 11.1787C16.1934 11.1787 16.3744 11.3115 16.3744 11.4563V11.7822C17.1951 11.8063 18.3537 12.0598 18.3537 12.6511C18.3537 12.8804 18.1847 13.339 17.8227 13.339C17.533 13.339 17.2192 12.9528 16.3744 12.8925V15.3424C17.4244 15.7286 18.5709 16.2596 18.5709 17.9009C18.5709 19.3854 17.6778 20.2061 16.3744 20.3871V20.7974C16.3744 20.9422 16.1934 21.075 16.0124 21.075C15.8072 21.075 15.6624 20.9422 15.6624 20.7974V20.4234ZM15.7348 15.1131V12.9166C15.0589 13.0011 14.5762 13.3028 14.5762 13.9304C14.5762 14.6183 15.0952 14.8717 15.7348 15.1131ZM16.302 16.682V19.2285C16.9537 19.1078 17.364 18.7216 17.364 18.0337C17.3641 17.2734 16.8934 16.9355 16.302 16.682Z" fill="#FF901D"/>
</svg>
