<svg width="30" height="30" viewBox="0 0 30 30" fill="none" xmlns="http://www.w3.org/2000/svg">
<path d="M18.4223 6.29554L15.802 1.05604C15.4716 0.395383 14.5288 0.395383 14.1984 1.05604L11.578 6.29554C11.5411 6.36934 11.5948 6.45612 11.6773 6.45612H18.3231C18.4056 6.45612 18.4592 6.36934 18.4223 6.29554Z" fill="#FFB125"/>
<path d="M18.0494 5.54957H14.1518C13.8114 5.54957 13.5901 5.19141 13.7423 4.88705L15.7231 0.926338C15.3414 0.398833 14.5055 0.441753 14.1984 1.0558L11.578 6.29531C11.5411 6.3691 11.5948 6.45588 11.6773 6.45588H18.3231C18.4056 6.45588 18.4592 6.3691 18.4223 6.29531L18.0494 5.54957Z" fill="#FF901D"/>
<path d="M10.4381 8.57501L7.81606 13.8179C7.77917 13.8917 7.83279 13.9785 7.9153 13.9785H22.0851C22.1676 13.9785 22.2212 13.8917 22.1843 13.8179L19.5623 8.57501C19.5435 8.53741 19.5051 8.51367 19.4631 8.51367H10.5373C10.4953 8.51373 10.4569 8.53747 10.4381 8.57501Z" fill="#9DE5D1"/>
<path d="M21.588 12.6259H11.8476C11.2291 12.6259 10.8269 11.9751 11.1035 11.422L12.558 8.51367H10.5371C10.495 8.51367 10.4567 8.53741 10.4379 8.57501L7.81582 13.818C7.77892 13.8917 7.83254 13.9785 7.91505 13.9785H22.0849C22.1673 13.9785 22.221 13.8918 22.1841 13.818L21.588 12.6259Z" fill="#82DEC5"/>
<path d="M25.9463 21.3394L23.3243 16.0965C23.3055 16.0589 23.2671 16.0352 23.2251 16.0352H6.77537C6.73332 16.0352 6.69491 16.0589 6.67614 16.0965L4.0541 21.3394C4.0172 21.4132 4.07083 21.5 4.15333 21.5H25.8471C25.9296 21.5 25.9832 21.4131 25.9463 21.3394Z" fill="#A9E4F9"/>
<path d="M25.3365 20.1201H8.72318C7.9947 20.1201 7.52093 19.3534 7.84675 18.7019L9.1804 16.0352H6.77537C6.73332 16.0352 6.69496 16.0589 6.67614 16.0965L4.0541 21.3394C4.0172 21.4132 4.07083 21.5 4.15333 21.5H25.8471C25.9296 21.5 25.9832 21.4132 25.9463 21.3394L25.3365 20.1201Z" fill="#21D8DE"/>
<path d="M26.9869 23.5586H3.01321C2.97117 23.5586 2.93275 23.5823 2.91398 23.6199L0.514559 28.4177C0.27867 28.8893 0.621627 29.4444 1.14902 29.4444H28.851C29.3784 29.4444 29.7213 28.8894 29.4855 28.4177L27.086 23.6199C27.0673 23.5823 27.0289 23.5586 26.9869 23.5586Z" fill="#FF4C4C"/>
<path d="M29.1927 27.8321H5.41491C4.58315 27.8321 4.0422 26.9568 4.41428 26.2129L5.74173 23.5586H3.01321C2.97117 23.5586 2.93281 23.5823 2.91398 23.6199L0.514559 28.4177C0.27867 28.8893 0.621627 29.4444 1.14902 29.4444H28.851C29.3784 29.4444 29.7213 28.8893 29.4855 28.4177L29.1927 27.8321Z" fill="#F33939"/>
<path d="M11.677 6.89382H18.3228C18.5147 6.89382 18.6894 6.79634 18.7903 6.63314C18.8911 6.46993 18.9001 6.27012 18.8143 6.09856L16.1939 0.858994C15.9663 0.403822 15.5088 0.121094 14.9999 0.121094C14.491 0.121094 14.0335 0.403822 13.8058 0.858994L11.1855 6.09844C11.0997 6.27007 11.1086 6.46993 11.2094 6.63314C11.3104 6.79634 11.4851 6.89382 11.677 6.89382ZM14.5904 1.2513C14.6696 1.09284 14.8228 0.998223 14.9999 0.998223C15.1771 0.998223 15.3302 1.09284 15.4095 1.2513L17.7927 6.01663H12.2072L14.5904 1.2513Z" fill="black"/>
<path d="M7.91504 14.4162H22.0848C22.2766 14.4162 22.4514 14.3187 22.5522 14.1555C22.653 13.9923 22.662 13.7925 22.5763 13.6208L19.9541 8.37765C19.8604 8.19047 19.6721 8.07422 19.4627 8.07422H17.1406C16.8984 8.07422 16.702 8.27052 16.702 8.51278C16.702 8.75505 16.8984 8.95135 17.1406 8.95135H19.2604L21.5546 13.539H8.44518L10.7395 8.95135H15.2693C15.5115 8.95135 15.7079 8.75505 15.7079 8.51278C15.7079 8.27052 15.5115 8.07422 15.2693 8.07422H10.537C10.3276 8.07422 10.1394 8.19047 10.0455 8.37788L7.42349 13.6208C7.33771 13.7925 7.34672 13.9923 7.44753 14.1555C7.54846 14.3187 7.72318 14.4162 7.91504 14.4162Z" fill="black"/>
<path d="M3.68562 21.677C3.78649 21.8402 3.96121 21.9376 4.15307 21.9376H6.86837C7.11058 21.9376 7.30694 21.7413 7.30694 21.4991C7.30694 21.2568 7.11058 21.0605 6.86837 21.0605H4.68321L6.97754 16.4728H23.0224L25.3167 21.0605H8.73952C8.49732 21.0605 8.30096 21.2568 8.30096 21.4991C8.30096 21.7413 8.49732 21.9376 8.73952 21.9376H25.8468C26.0386 21.9376 26.2133 21.8402 26.3142 21.677C26.4151 21.5138 26.424 21.3139 26.3383 21.1423L23.7161 15.8992C23.6224 15.712 23.4341 15.5957 23.2247 15.5957H6.77504C6.5657 15.5957 6.37741 15.712 6.28356 15.8994L3.66153 21.1423C3.57574 21.3139 3.58475 21.5138 3.68562 21.677Z" fill="black"/>
<path d="M29.8777 28.2206L27.4783 23.4228C27.3846 23.2355 27.1963 23.1191 26.9868 23.1191H23.4836C23.2414 23.1191 23.0451 23.3154 23.0451 23.5577C23.0451 23.8 23.2414 23.9963 23.4836 23.9963H26.7844L29.0932 28.6129C29.1542 28.7348 29.1053 28.8379 29.0813 28.8764C29.0575 28.9151 28.9873 29.0049 28.851 29.0049H1.14898C1.01268 29.0049 0.942505 28.9151 0.918647 28.8764C0.894789 28.8379 0.845787 28.7348 0.906777 28.6129L3.21556 23.9963H21.6123C21.8545 23.9963 22.0509 23.8 22.0509 23.5577C22.0509 23.3154 21.8545 23.1191 21.6123 23.1191H3.01317C2.80366 23.1191 2.61531 23.2355 2.52169 23.4228L0.122272 28.2206C-0.0569548 28.579 -0.0382428 28.9966 0.172444 29.3376C0.38313 29.6785 0.748192 29.8821 1.14898 29.8821H28.851C29.2517 29.8821 29.6168 29.6785 29.8275 29.3376C30.0382 28.9966 30.057 28.579 29.8777 28.2206Z" fill="black"/>
<path d="M2.71355 14.1668L2.78424 14.0961V16.949C2.78424 17.1912 2.9806 17.3875 3.22281 17.3875C3.46501 17.3875 3.66137 17.1912 3.66137 16.949V14.0961L3.73207 14.1668C3.81768 14.2524 3.92995 14.2952 4.04217 14.2952C4.15438 14.2952 4.26665 14.2524 4.35226 14.1668C4.52354 13.9955 4.52354 13.7178 4.35226 13.5466L3.57805 12.7724C3.4832 12.6773 3.35707 12.625 3.22281 12.625C3.08855 12.625 2.96242 12.6773 2.86792 12.772L2.0933 13.5466C1.92203 13.7178 1.92203 13.9955 2.0933 14.1668C2.26452 14.3381 2.54227 14.338 2.71355 14.1668Z" fill="black"/>
<path d="M26.268 14.1668L26.3387 14.0961V16.949C26.3387 17.1912 26.535 17.3875 26.7773 17.3875C27.0195 17.3875 27.2158 17.1912 27.2158 16.949V14.0961L27.2865 14.1668C27.3721 14.2524 27.4844 14.2952 27.5966 14.2952C27.7088 14.2952 27.8211 14.2524 27.9067 14.1668C28.078 13.9955 28.078 13.7178 27.9067 13.5466L27.1325 12.7724C27.0376 12.6773 26.9115 12.625 26.7773 12.625C26.643 12.625 26.5169 12.6773 26.4224 12.772L25.6477 13.5466C25.4765 13.7178 25.4765 13.9955 25.6477 14.1668C25.819 14.3381 26.0967 14.338 26.268 14.1668Z" fill="black"/>
</svg>
