<svg width="25" height="25" viewBox="0 0 25 25" fill="none" xmlns="http://www.w3.org/2000/svg">
<path d="M12.0833 17.291V19.3743C12.0833 19.4894 12.1766 19.5827 12.2916 19.5827H16.875C16.99 19.5827 17.0833 19.676 17.0833 19.791V20.416C17.0833 20.4949 17.1279 20.5671 17.1985 20.6024C17.269 20.6376 17.3535 20.63 17.4166 20.5827L18.75 19.5827V21.2493C18.75 22.1698 18.0038 22.916 17.0833 22.916H2.08329C1.16282 22.916 0.416626 22.1698 0.416626 21.2493V5.83268H4.16663C5.0871 5.83268 5.83329 5.08649 5.83329 4.16602V0.416016H17.0833C18.0038 0.416016 18.75 1.16221 18.75 2.08268V17.0827L17.4166 16.0827C17.3535 16.0353 17.269 16.0277 17.1985 16.063C17.1279 16.0983 17.0833 16.1704 17.0833 16.2493V16.8743C17.0833 16.9894 16.99 17.0827 16.875 17.0827H12.2916C12.1766 17.0827 12.0833 17.176 12.0833 17.291Z" fill="#FFE0B2"/>
<path d="M16.8749 19.583H15.6249C15.7399 19.583 15.8332 19.6763 15.8332 19.7913V20.4163C15.8332 20.4953 15.8778 20.5674 15.9484 20.6027C16.019 20.638 16.1034 20.6304 16.1665 20.583L17.0832 19.8955V19.7913C17.0832 19.6763 16.9899 19.583 16.8749 19.583Z" fill="#DFC49C"/>
<path d="M12.2916 17.083H11.0416C10.9265 17.083 10.8333 17.1763 10.8333 17.2913V19.3747C10.8333 19.4897 10.9265 19.583 11.0416 19.583H12.2916C12.1765 19.583 12.0833 19.4897 12.0833 19.3747V17.2913C12.0833 17.1763 12.1765 17.083 12.2916 17.083Z" fill="#DFC49C"/>
<path d="M17.4999 21.2497C17.4999 22.1702 16.7537 22.9163 15.8333 22.9163H17.0833C18.0037 22.9163 18.7499 22.1702 18.7499 21.2497V19.583L17.4999 20.5205V21.2497Z" fill="#DFC49C"/>
<path d="M15.8332 16.2494V16.8744C15.8332 16.9894 15.7399 17.0827 15.6249 17.0827H16.8749C16.9899 17.0827 17.0832 16.9894 17.0832 16.8744V16.7702L16.1665 16.0827C16.1034 16.0353 16.019 16.0277 15.9484 16.063C15.8778 16.0983 15.8332 16.1704 15.8332 16.2494Z" fill="#DFC49C"/>
<path d="M17.0833 0.416016H15.8333C16.7537 0.416016 17.4999 1.16221 17.4999 2.08268V16.1452L18.7499 17.0827V2.08268C18.7499 1.16221 18.0037 0.416016 17.0833 0.416016Z" fill="#DFC49C"/>
<path d="M5.83329 0.416016V4.16602C5.83329 5.08649 5.0871 5.83268 4.16663 5.83268H0.416626L5.83329 0.416016Z" fill="#A0522D"/>
<path d="M14.5833 2.49935H12.0833C11.8532 2.49935 11.6666 2.3128 11.6666 2.08268C11.6666 1.85256 11.8532 1.66602 12.0833 1.66602H14.5833C14.8134 1.66602 15 1.85256 15 2.08268C15 2.3128 14.8134 2.49935 14.5833 2.49935Z" fill="#F5F5F5"/>
<path d="M17.0833 2.49935H16.2499C16.0198 2.49935 15.8333 2.3128 15.8333 2.08268C15.8333 1.85256 16.0198 1.66602 16.2499 1.66602H17.0833C17.3134 1.66602 17.4999 1.85256 17.4999 2.08268C17.4999 2.3128 17.3134 2.49935 17.0833 2.49935Z" fill="#F5F5F5"/>
<path d="M24.5833 3.74967V22.9163C24.5833 23.8368 23.8371 24.583 22.9167 24.583H7.91667C6.99619 24.583 6.25 23.8368 6.25 22.9163H17.0833C18.0038 22.9163 18.75 22.1702 18.75 21.2497V19.583L20.1958 18.4997C20.2471 18.4596 20.277 18.3981 20.277 18.333C20.277 18.2679 20.2471 18.2065 20.1958 18.1663L18.75 17.083V2.08301H22.9167C23.8371 2.08301 24.5833 2.8292 24.5833 3.74967Z" fill="#A0522D"/>
<path d="M22.9166 2.08301H21.6666C22.5871 2.08301 23.3333 2.8292 23.3333 3.74967V22.9163C23.3333 23.8368 22.5871 24.583 21.6666 24.583H22.9166C23.8371 24.583 24.5833 23.8368 24.5833 22.9163V3.74967C24.5833 2.8292 23.8371 2.08301 22.9166 2.08301Z" fill="#783E22"/>
<path d="M20.4166 4.16536H18.7499C18.5198 4.16536 18.3333 3.97882 18.3333 3.7487C18.3333 3.51858 18.5198 3.33203 18.7499 3.33203H20.4166C20.6467 3.33203 20.8333 3.51858 20.8333 3.7487C20.8333 3.97882 20.6467 4.16536 20.4166 4.16536Z" fill="#F5F5F5"/>
<path d="M22.9166 4.16536H22.0833C21.8532 4.16536 21.6666 3.97882 21.6666 3.7487C21.6666 3.51858 21.8532 3.33203 22.0833 3.33203H22.9166C23.1467 3.33203 23.3333 3.51858 23.3333 3.7487C23.3333 3.97882 23.1467 4.16536 22.9166 4.16536Z" fill="#F5F5F5"/>
<path d="M20.1958 18.4994L18.7499 19.5827L17.4166 20.5827C17.3535 20.63 17.269 20.6376 17.1984 20.6024C17.1278 20.5671 17.0833 20.4949 17.0833 20.416V19.791C17.0833 19.676 16.99 19.5827 16.8749 19.5827H12.2916C12.1765 19.5827 12.0833 19.4894 12.0833 19.3744V17.291C12.0833 17.176 12.1765 17.0827 12.2916 17.0827H16.8749C16.99 17.0827 17.0833 16.9894 17.0833 16.8744V16.2494C17.0833 16.1704 17.1278 16.0983 17.1984 16.063C17.269 16.0277 17.3535 16.0353 17.4166 16.0827L18.7499 17.0827L20.1958 18.166C20.247 18.2061 20.2769 18.2676 20.2769 18.3327C20.2769 18.3978 20.247 18.4592 20.1958 18.4994Z" fill="#A4C400"/>
<path d="M20.1958 18.166L18.7499 17.0827L17.4166 16.0827C17.3535 16.0353 17.269 16.0277 17.1984 16.063C17.1278 16.0983 17.0833 16.1704 17.0833 16.2494V16.7702L17.4999 17.0827L18.9458 18.166C18.997 18.2061 19.0269 18.2676 19.0269 18.3327C19.0269 18.3978 18.997 18.4592 18.9458 18.4994L17.4999 19.5827L17.0833 19.8952V20.416C17.0833 20.4949 17.1278 20.5671 17.1984 20.6024C17.269 20.6376 17.3535 20.63 17.4166 20.5827L18.7499 19.5827L20.1958 18.4994C20.247 18.4592 20.2769 18.3978 20.2769 18.3327C20.2769 18.2676 20.247 18.2061 20.1958 18.166Z" fill="#90AC00"/>
<path d="M3.75004 8.33333H7.50004C7.73016 8.33333 7.91671 8.14678 7.91671 7.91667C7.91671 7.68655 7.73016 7.5 7.50004 7.5H3.75004C3.51992 7.5 3.33337 7.68655 3.33337 7.91667C3.33337 8.14678 3.51992 8.33333 3.75004 8.33333Z" fill="black"/>
<path d="M9.58329 8.33333H15.8333C16.0634 8.33333 16.25 8.14678 16.25 7.91667C16.25 7.68655 16.0634 7.5 15.8333 7.5H9.58329C9.35317 7.5 9.16663 7.68655 9.16663 7.91667C9.16663 8.14678 9.35317 8.33333 9.58329 8.33333Z" fill="black"/>
<path d="M15.8334 9.58398H12.0834C11.8533 9.58398 11.6667 9.77053 11.6667 10.0007C11.6667 10.2308 11.8533 10.4173 12.0834 10.4173H15.8334C16.0635 10.4173 16.2501 10.2308 16.2501 10.0007C16.2501 9.77053 16.0635 9.58398 15.8334 9.58398Z" fill="black"/>
<path d="M3.75004 10.4173H10C10.2302 10.4173 10.4167 10.2308 10.4167 10.0007C10.4167 9.77053 10.2302 9.58398 10 9.58398H3.75004C3.51992 9.58398 3.33337 9.77053 3.33337 10.0007C3.33337 10.2308 3.51992 10.4173 3.75004 10.4173Z" fill="black"/>
<path d="M7.91671 12.0837C7.91671 11.8535 7.73016 11.667 7.50004 11.667H3.75004C3.51992 11.667 3.33337 11.8535 3.33337 12.0837C3.33337 12.3138 3.51992 12.5003 3.75004 12.5003H7.50004C7.73016 12.5003 7.91671 12.3138 7.91671 12.0837Z" fill="black"/>
<path d="M15.8333 11.667H9.58329C9.35317 11.667 9.16663 11.8535 9.16663 12.0837C9.16663 12.3138 9.35317 12.5003 9.58329 12.5003H15.8333C16.0634 12.5003 16.25 12.3138 16.25 12.0837C16.25 11.8535 16.0634 11.667 15.8333 11.667Z" fill="black"/>
<path d="M22.9167 1.66667H19.125C18.9257 0.697326 18.073 0.00124929 17.0833 0H5.83333C5.72284 2.36e-05 5.61687 0.0439378 5.53875 0.122083L0.122083 5.53875C0.0439378 5.61687 2.36e-05 5.72284 0 5.83333V21.25C0.00137755 22.4 0.933311 23.332 2.08333 23.3333H5.875C6.07435 24.3027 6.92704 24.9988 7.91667 25H22.9167C24.0667 24.9986 24.9986 24.0667 25 22.9167V3.75C24.9986 2.59998 24.0667 1.66804 22.9167 1.66667ZM17.5 20V19.7917C17.5 19.4465 17.2202 19.1667 16.875 19.1667H12.5V17.5H16.875C17.2202 17.5 17.5 17.2202 17.5 16.875V16.6667L19.7225 18.3333L17.5 20ZM5.41667 1.4225V4.16667C5.41667 4.85702 4.85702 5.41667 4.16667 5.41667H1.4225L5.41667 1.4225ZM0.833333 21.25V6.25H4.16667C5.31669 6.24862 6.24862 5.31669 6.25 4.16667V0.833333H17.0833C17.7737 0.833333 18.3333 1.39298 18.3333 2.08333V16.25L17.6667 15.75C17.4773 15.608 17.2239 15.5851 17.0122 15.691C16.8004 15.7969 16.6667 16.0133 16.6667 16.25V16.6667H12.2917C11.9465 16.6667 11.6667 16.9465 11.6667 17.2917V19.375C11.6667 19.7202 11.9465 20 12.2917 20H16.6667V20.4167C16.6667 20.6534 16.8004 20.8698 17.0122 20.9757C17.2239 21.0816 17.4773 21.0587 17.6667 20.9167L18.3333 20.4167V21.25C18.3333 21.9404 17.7737 22.5 17.0833 22.5H2.08333C1.39298 22.5 0.833333 21.9404 0.833333 21.25ZM24.1667 22.9167C24.1667 23.607 23.607 24.1667 22.9167 24.1667H7.91667C7.38884 24.1645 6.91927 23.831 6.74333 23.3333H17.0833C18.2334 23.332 19.1653 22.4 19.1667 21.25V19.7917L20.4446 18.8333C20.602 18.7153 20.6946 18.5301 20.6946 18.3333C20.6946 18.1366 20.602 17.9514 20.4446 17.8333L19.1667 16.875V14.1667H21.6667C21.8968 14.1667 22.0833 13.9801 22.0833 13.75C22.0833 13.5199 21.8968 13.3333 21.6667 13.3333H19.1667V12.0833H21.6667C21.8968 12.0833 22.0833 11.8968 22.0833 11.6667C22.0833 11.4365 21.8968 11.25 21.6667 11.25H19.1667V10H21.6667C21.8968 10 22.0833 9.81345 22.0833 9.58333C22.0833 9.35321 21.8968 9.16667 21.6667 9.16667H19.1667V2.5H22.9167C23.607 2.5 24.1667 3.05964 24.1667 3.75V22.9167Z" fill="black"/>
</svg>
