<svg width="30" height="30" viewBox="0 0 30 30" fill="none" xmlns="http://www.w3.org/2000/svg">
<path d="M27.3219 3.09961H2.6659C1.43246 3.09961 0.432373 4.0997 0.432373 5.33314V7.32454L2.40781 10.2306H28.0684L29.5554 7.32454V5.33314C29.5554 4.0997 28.5553 3.09961 27.3219 3.09961Z" fill="#FFB125"/>
<path d="M3.06787 3.09961H2.6659C1.43246 3.09961 0.432373 4.0997 0.432373 5.33314V7.32454L2.40781 10.2306H3.06787V3.09961Z" fill="#FF901D"/>
<path d="M29.5554 7.3252V25.111C29.5554 26.3444 28.5553 27.3445 27.3219 27.3445H2.6659C1.43246 27.3445 0.432373 26.3444 0.432373 25.111V7.3252H29.5554Z" fill="#F9F7F7"/>
<path d="M25.9368 12.1658H4.04645C3.6701 12.1658 3.36499 11.8607 3.36499 11.4843V9.92267C3.36499 9.54633 3.6701 9.24121 4.04645 9.24121H25.9368C26.3132 9.24121 26.6183 9.54633 26.6183 9.92267V11.4843C26.6183 11.8607 26.3132 12.1658 25.9368 12.1658Z" fill="#21D8DE"/>
<path d="M5.22108 5.81558C6.17251 5.81558 6.94655 5.04153 6.94655 4.09011V3.09961H3.49561V4.09011C3.49561 5.04153 4.26965 5.81558 5.22108 5.81558Z" fill="#FF901D"/>
<path d="M5.22101 4.93853C4.75254 4.93853 4.3728 4.55879 4.3728 4.09033V2.10992C4.3728 1.64146 4.75254 1.26172 5.22101 1.26172C5.68947 1.26172 6.06921 1.64146 6.06921 2.10992V4.09033C6.06921 4.55879 5.68947 4.93853 5.22101 4.93853Z" fill="#F2EAE7"/>
<path d="M9.12763 5.81558C10.0791 5.81558 10.8531 5.04153 10.8531 4.09011V3.09961H7.4021V4.09011C7.40216 5.04153 8.1762 5.81558 9.12763 5.81558Z" fill="#FF901D"/>
<path d="M9.12774 4.93853C8.65928 4.93853 8.27954 4.55879 8.27954 4.09033V2.10992C8.27954 1.64146 8.65928 1.26172 9.12774 1.26172C9.59621 1.26172 9.97595 1.64146 9.97595 2.10992V4.09033C9.976 4.55879 9.59621 4.93853 9.12774 4.93853Z" fill="#F2EAE7"/>
<path d="M13.0344 5.81558C13.9858 5.81558 14.7598 5.04153 14.7598 4.09011V3.09961H11.3088V4.09011C11.3088 5.04153 12.0829 5.81558 13.0344 5.81558Z" fill="#FF901D"/>
<path d="M13.0345 4.93853C12.566 4.93853 12.1863 4.55879 12.1863 4.09033V2.10992C12.1863 1.64146 12.566 1.26172 13.0345 1.26172C13.5029 1.26172 13.8827 1.64146 13.8827 2.10992V4.09033C13.8827 4.55879 13.5029 4.93853 13.0345 4.93853Z" fill="#F2EAE7"/>
<path d="M16.941 5.81558C17.8925 5.81558 18.6666 5.04153 18.6666 4.09011V3.09961H15.2156V4.09011C15.2156 5.04153 15.9896 5.81558 16.941 5.81558Z" fill="#FF901D"/>
<path d="M16.9412 4.93853C16.4728 4.93853 16.093 4.55879 16.093 4.09033V2.10992C16.093 1.64146 16.4728 1.26172 16.9412 1.26172C17.4097 1.26172 17.7894 1.64146 17.7894 2.10992V4.09033C17.7894 4.55879 17.4097 4.93853 16.9412 4.93853Z" fill="#F2EAE7"/>
<path d="M20.8478 5.81558C21.7992 5.81558 22.5733 5.04153 22.5733 4.09011V3.09961H19.1223V4.09011C19.1223 5.04153 19.8964 5.81558 20.8478 5.81558Z" fill="#FF901D"/>
<path d="M20.8477 4.93853C20.3793 4.93853 19.9995 4.55879 19.9995 4.09033V2.10992C19.9995 1.64146 20.3793 1.26172 20.8477 1.26172C21.3162 1.26172 21.6959 1.64146 21.6959 2.10992V4.09033C21.696 4.55879 21.3162 4.93853 20.8477 4.93853Z" fill="#F2EAE7"/>
<path d="M24.7543 5.81558C25.7058 5.81558 26.4798 5.04153 26.4798 4.09011V3.09961H23.0288V4.09011C23.0288 5.04153 23.8029 5.81558 24.7543 5.81558Z" fill="#FF901D"/>
<path d="M24.7545 4.93853C24.286 4.93853 23.9062 4.55879 23.9062 4.09033V2.10992C23.9062 1.64146 24.286 1.26172 24.7545 1.26172C25.2229 1.26172 25.6027 1.64146 25.6027 2.10992V4.09033C25.6027 4.55879 25.2229 4.93853 24.7545 4.93853Z" fill="#F2EAE7"/>
<path d="M15.7668 16.3722H14.2327C13.9767 16.3722 13.7693 16.1648 13.7693 15.9088V14.7661C13.7693 14.5102 13.9767 14.3027 14.2327 14.3027H15.7668C16.0226 14.3027 16.2301 14.5102 16.2301 14.7661V15.9088C16.2301 16.1648 16.0226 16.3722 15.7668 16.3722Z" fill="#DED4CF"/>
<path d="M11.4186 16.3722H9.88452C9.62859 16.3722 9.42114 16.1648 9.42114 15.9088V14.7661C9.42114 14.5102 9.62859 14.3027 9.88452 14.3027H11.4186C11.6745 14.3027 11.882 14.5102 11.882 14.7661V15.9088C11.882 16.1648 11.6746 16.3722 11.4186 16.3722Z" fill="#DED4CF"/>
<path d="M7.07048 16.3722H5.53637C5.28044 16.3722 5.073 16.1648 5.073 15.9088V14.7661C5.073 14.5102 5.28044 14.3027 5.53637 14.3027H7.07048C7.32641 14.3027 7.53386 14.5102 7.53386 14.7661V15.9088C7.5338 16.1648 7.32635 16.3722 7.07048 16.3722Z" fill="#DED4CF"/>
<path d="M18.581 16.3722H20.1152C20.371 16.3722 20.5785 16.1648 20.5785 15.9088V14.7661C20.5785 14.5102 20.3711 14.3027 20.1152 14.3027H18.581C18.3251 14.3027 18.1177 14.5102 18.1177 14.7661V15.9088C18.1177 16.1648 18.3251 16.3722 18.581 16.3722Z" fill="#DED4CF"/>
<path d="M22.9292 16.3722H24.4633C24.7192 16.3722 24.9267 16.1648 24.9267 15.9088V14.7661C24.9267 14.5102 24.7192 14.3027 24.4633 14.3027H22.9292C22.6733 14.3027 22.4658 14.5102 22.4658 14.7661V15.9088C22.4659 16.1648 22.6733 16.3722 22.9292 16.3722Z" fill="#DED4CF"/>
<path d="M7.07048 20.3771H5.53637C5.28044 20.3771 5.073 20.1697 5.073 19.9137V18.771C5.073 18.5151 5.28044 18.3076 5.53637 18.3076H7.07048C7.32641 18.3076 7.53386 18.5151 7.53386 18.771V19.9137C7.5338 20.1697 7.32635 20.3771 7.07048 20.3771Z" fill="#DED4CF"/>
<path d="M22.9292 20.3771H24.4633C24.7192 20.3771 24.9267 20.1697 24.9267 19.9137V18.771C24.9267 18.5151 24.7192 18.3076 24.4633 18.3076H22.9292C22.6733 18.3076 22.4658 18.5151 22.4658 18.771V19.9137C22.4659 20.1697 22.6733 20.3771 22.9292 20.3771Z" fill="#DED4CF"/>
<path d="M7.07048 24.379H5.53637C5.28044 24.379 5.073 24.1716 5.073 23.9157V22.7729C5.073 22.517 5.28044 22.3096 5.53637 22.3096H7.07048C7.32641 22.3096 7.53386 22.517 7.53386 22.7729V23.9157C7.5338 24.1716 7.32635 24.379 7.07048 24.379Z" fill="#DED4CF"/>
<path d="M22.9292 24.379H24.4633C24.7192 24.379 24.9267 24.1716 24.9267 23.9157V22.7729C24.9267 22.517 24.7192 22.3096 24.4633 22.3096H22.9292C22.6733 22.3096 22.4658 22.517 22.4658 22.7729V23.9157C22.4659 24.1716 22.6733 24.379 22.9292 24.379Z" fill="#DED4CF"/>
<path d="M21.8451 25.0653C21.5595 25.0653 21.3427 24.8111 21.385 24.5286C21.4314 24.2183 21.4559 23.901 21.4559 23.5779C21.4559 20.002 18.5467 17.0928 14.9708 17.0928C11.3949 17.0928 8.48565 20.002 8.48565 23.5779C8.48565 23.901 8.5101 24.2183 8.55659 24.5286C8.59888 24.811 8.38208 25.0653 8.09649 25.0653H6.42068C4.56899 25.0653 3.06787 23.5642 3.06787 21.7125V7.3252H0.432373V25.111C0.432373 26.3445 1.43234 27.3445 2.6659 27.3445H27.3219C28.5554 27.3445 29.5554 26.3445 29.5554 25.111V25.0653H21.8451Z" fill="#F2EAE7"/>
<path d="M14.9709 29.1854C18.068 29.1854 20.5788 26.6747 20.5788 23.5776C20.5788 20.4805 18.068 17.9697 14.9709 17.9697C11.8738 17.9697 9.36304 20.4805 9.36304 23.5776C9.36304 26.6747 11.8738 29.1854 14.9709 29.1854Z" fill="#FFB125"/>
<path d="M10.8266 23.5775C10.8266 20.7285 12.9505 18.3756 15.7017 18.0168C15.4622 17.9856 15.2188 17.9697 14.9708 17.9697C11.8737 17.9697 9.36304 20.4804 9.36304 23.5775C9.36304 26.6746 11.8737 29.1853 14.9708 29.1853C15.219 29.1853 15.4633 29.169 15.7029 29.1378C12.9515 28.7794 10.8266 26.4267 10.8266 23.5775Z" fill="#FF901D"/>
<path d="M14.971 27.4303C17.0991 27.4303 18.8243 25.7051 18.8243 23.577C18.8243 21.4488 17.0991 19.7236 14.971 19.7236C12.8429 19.7236 11.1177 21.4488 11.1177 23.577C11.1177 25.7051 12.8429 27.4303 14.971 27.4303Z" fill="#F9F7F7"/>
<path d="M14.9709 24.4482C15.4518 24.4482 15.8415 24.0585 15.8415 23.5776C15.8415 23.0968 15.4518 22.707 14.9709 22.707C14.4901 22.707 14.1003 23.0968 14.1003 23.5776C14.1003 24.0585 14.4901 24.4482 14.9709 24.4482Z" fill="#FFB125"/>
<path d="M29.5614 21.0557C29.3191 21.0557 29.1228 21.2521 29.1228 21.4943V25.1509C29.1228 26.1404 28.3177 26.9455 27.3281 26.9455H21.2702C21.0279 26.9455 20.8315 27.1419 20.8315 27.3842C20.8315 27.6264 21.0279 27.8228 21.2702 27.8228H27.3281C28.8014 27.8228 30.0001 26.6242 30.0001 25.1509V21.4943C30.0001 21.2521 29.8037 21.0557 29.5614 21.0557Z" fill="black"/>
<path d="M27.3281 2.70169H26.0475V2.15012C26.0475 1.44058 25.4702 0.863281 24.7606 0.863281C24.051 0.863281 23.4737 1.44058 23.4737 2.15012V2.70169H22.1408V2.15012C22.1408 1.44058 21.5635 0.863281 20.8539 0.863281C20.1443 0.863281 19.5671 1.44058 19.5671 2.15012V2.70169H18.2341V2.15012C18.2341 1.44058 17.6568 0.863281 16.9472 0.863281C16.2376 0.863281 15.6604 1.44058 15.6604 2.15012V2.70169H14.3274V2.15012C14.3274 1.44058 13.7501 0.863281 13.0406 0.863281C12.331 0.863281 11.7537 1.44058 11.7537 2.15012V2.70169H10.4207V2.15012C10.4207 1.44058 9.84343 0.863281 9.13384 0.863281C8.42425 0.863281 7.847 1.44058 7.847 2.15012V2.70169H6.51402V2.15012C6.51402 1.44058 5.93678 0.863281 5.22718 0.863281C4.51759 0.863281 3.94034 1.44058 3.94034 2.15012V2.70169H2.67199C1.19864 2.70169 0 3.90033 0 5.37362V25.1507C0 26.624 1.19864 27.8226 2.67199 27.8226H8.67146C8.91376 27.8226 9.1101 27.6262 9.1101 27.384C9.1101 27.1417 8.91376 26.9453 8.67146 26.9453H2.67199C1.68237 26.9453 0.87727 26.1402 0.87727 25.1507V7.80336H29.1227V19.6247C29.1227 19.8669 29.3191 20.0633 29.5614 20.0633C29.8037 20.0633 30 19.8669 30 19.6247V5.37362C30 3.90033 28.8013 2.70169 27.3281 2.70169ZM24.351 2.15012C24.351 1.92431 24.5347 1.74055 24.7605 1.74055C24.9864 1.74055 25.1702 1.92431 25.1702 2.15012V4.13053C25.1702 4.35639 24.9864 4.54009 24.7605 4.54009C24.5347 4.54009 24.351 4.35634 24.351 4.13053V2.15012ZM20.4443 2.15012C20.4443 1.92431 20.6281 1.74055 20.8539 1.74055C21.0797 1.74055 21.2634 1.92431 21.2634 2.15012V4.13053C21.2634 4.35639 21.0797 4.54009 20.8539 4.54009C20.6281 4.54009 20.4443 4.35634 20.4443 4.13053V2.15012ZM16.5376 2.15012C16.5376 1.92431 16.7214 1.74055 16.9472 1.74055C17.1731 1.74055 17.3568 1.92431 17.3568 2.15012V4.13053C17.3568 4.35639 17.1731 4.54009 16.9472 4.54009C16.7214 4.54009 16.5376 4.35634 16.5376 4.13053V2.15012ZM12.631 2.15012C12.631 1.92431 12.8147 1.74055 13.0406 1.74055C13.2664 1.74055 13.4501 1.92431 13.4501 2.15012V4.13053C13.4501 4.35639 13.2664 4.54009 13.0406 4.54009C12.8147 4.54009 12.631 4.35634 12.631 4.13053V2.15012ZM8.72427 2.15012C8.72427 1.92431 8.90803 1.74055 9.13384 1.74055C9.35971 1.74055 9.54347 1.92431 9.54347 2.15012V4.13053C9.54347 4.35639 9.35971 4.54009 9.13384 4.54009C8.90803 4.54009 8.72427 4.35634 8.72427 4.13053V2.15012ZM4.81761 2.15012C4.81761 1.92431 5.00137 1.74055 5.22718 1.74055C5.45299 1.74055 5.63675 1.92431 5.63675 2.15012V4.13053C5.63675 4.35639 5.45299 4.54009 5.22718 4.54009C5.00137 4.54009 4.81761 4.35634 4.81761 4.13053V2.15012ZM29.1227 6.92609H0.87727V5.37362C0.87727 4.38406 1.68237 3.5789 2.67199 3.5789H3.9404V4.13047C3.9404 4.84006 4.51765 5.41731 5.22724 5.41731C5.93683 5.41731 6.51408 4.84 6.51408 4.13047V3.5789H7.84706V4.13047C7.84706 4.84006 8.4243 5.41731 9.1339 5.41731C9.84349 5.41731 10.4208 4.84 10.4208 4.13047V3.5789H11.7538V4.13047C11.7538 4.84006 12.331 5.41731 13.0406 5.41731C13.7502 5.41731 14.3275 4.84 14.3275 4.13047V3.5789H15.6604V4.13047C15.6604 4.84006 16.2377 5.41731 16.9473 5.41731C17.6569 5.41731 18.2342 4.84 18.2342 4.13047V3.5789H19.5672V4.13047C19.5672 4.84006 20.1444 5.41731 20.854 5.41731C21.5636 5.41731 22.1408 4.84 22.1408 4.13047V3.5789H23.4738V4.13047C23.4738 4.84006 24.0511 5.41731 24.7606 5.41731C25.4702 5.41731 26.0475 4.84 26.0475 4.13047V3.5789H27.3281C28.3177 3.5789 29.1228 4.384 29.1228 5.37362V6.92609H29.1227Z" fill="black"/>
<path d="M14.2331 13.8633C13.7357 13.8633 13.3311 14.2679 13.3311 14.7652V15.908C13.3311 16.4053 13.7357 16.81 14.2331 16.81H15.7671C16.2645 16.81 16.6691 16.4054 16.6691 15.908V14.7652C16.6691 14.2679 16.2645 13.8633 15.7671 13.8633H14.2331ZM15.7919 14.7652V15.908C15.7919 15.9216 15.7809 15.9327 15.7672 15.9327H14.2331C14.2195 15.9327 14.2084 15.9216 14.2084 15.908V14.7652C14.2084 14.7516 14.2194 14.7406 14.2331 14.7406H15.7672C15.7808 14.7406 15.7919 14.7516 15.7919 14.7652Z" fill="black"/>
<path d="M9.88468 13.8633C9.38732 13.8633 8.98267 14.2679 8.98267 14.7652V15.908C8.98267 16.4053 9.38732 16.81 9.88468 16.81H11.4187C11.9161 16.81 12.3207 16.4054 12.3207 15.908V14.7652C12.3207 14.2679 11.9161 13.8633 11.4187 13.8633H9.88468ZM11.4435 14.7652V15.908C11.4435 15.9216 11.4324 15.9327 11.4187 15.9327H9.88468C9.87105 15.9327 9.85994 15.9216 9.85994 15.908V14.7652C9.85994 14.7516 9.87099 14.7406 9.88468 14.7406H11.4187C11.4324 14.7406 11.4435 14.7516 11.4435 14.7652Z" fill="black"/>
<path d="M7.97259 14.7652C7.97259 14.2679 7.56794 13.8633 7.07058 13.8633H5.53653C5.03918 13.8633 4.63452 14.2679 4.63452 14.7652V15.908C4.63452 16.4053 5.03918 16.81 5.53653 16.81H7.07058C7.56794 16.81 7.97259 16.4054 7.97259 15.908V14.7652ZM7.09532 15.908C7.09532 15.9216 7.08427 15.9327 7.07058 15.9327H5.53653C5.5229 15.9327 5.51179 15.9216 5.51179 15.908V14.7652C5.51179 14.7516 5.52284 14.7406 5.53653 14.7406H7.07058C7.08421 14.7406 7.09532 14.7516 7.09532 14.7652V15.908Z" fill="black"/>
<path d="M18.581 13.8633C18.0836 13.8633 17.679 14.2679 17.679 14.7652V15.908C17.679 16.4053 18.0836 16.81 18.581 16.81H20.115C20.6124 16.81 21.017 16.4054 21.017 15.908V14.7652C21.017 14.2679 20.6124 13.8633 20.115 13.8633H18.581ZM20.1398 14.7652V15.908C20.1398 15.9216 20.1287 15.9327 20.115 15.9327H18.581C18.5673 15.9327 18.5562 15.9216 18.5562 15.908V14.7652C18.5562 14.7516 18.5673 14.7406 18.581 14.7406H20.115C20.1287 14.7406 20.1398 14.7516 20.1398 14.7652Z" fill="black"/>
<path d="M25.3654 14.7652C25.3654 14.2679 24.9608 13.8633 24.4634 13.8633H22.9294C22.432 13.8633 22.0273 14.2679 22.0273 14.7652V15.908C22.0273 16.4053 22.432 16.81 22.9294 16.81H24.4634C24.9608 16.81 25.3654 16.4054 25.3654 15.908V14.7652ZM24.4881 15.908C24.4881 15.9216 24.4771 15.9327 24.4634 15.9327H22.9294C22.9157 15.9327 22.9046 15.9216 22.9046 15.908V14.7652C22.9046 14.7516 22.9157 14.7406 22.9294 14.7406H24.4634C24.477 14.7406 24.4881 14.7516 24.4881 14.7652V15.908Z" fill="black"/>
<path d="M7.97259 18.7682C7.97259 18.2709 7.56794 17.8662 7.07058 17.8662H5.53653C5.03918 17.8662 4.63452 18.2708 4.63452 18.7682V19.911C4.63452 20.4083 5.03918 20.8129 5.53653 20.8129H7.07058C7.56794 20.8129 7.97259 20.4083 7.97259 19.911V18.7682ZM7.09532 19.911C7.09532 19.9246 7.08427 19.9356 7.07058 19.9356H5.53653C5.5229 19.9356 5.51179 19.9246 5.51179 19.911V18.7682C5.51179 18.7546 5.52284 18.7435 5.53653 18.7435H7.07058C7.08421 18.7435 7.09532 18.7545 7.09532 18.7682V19.911Z" fill="black"/>
<path d="M25.3654 18.7682C25.3654 18.2709 24.9608 17.8662 24.4634 17.8662H22.9294C22.432 17.8662 22.0273 18.2708 22.0273 18.7682V19.911C22.0273 20.4083 22.432 20.8129 22.9294 20.8129H24.4634C24.9608 20.8129 25.3654 20.4083 25.3654 19.911V18.7682ZM24.4881 19.911C24.4881 19.9246 24.4771 19.9356 24.4634 19.9356H22.9294C22.9157 19.9356 22.9046 19.9246 22.9046 19.911V18.7682C22.9046 18.7546 22.9157 18.7435 22.9294 18.7435H24.4634C24.477 18.7435 24.4881 18.7545 24.4881 18.7682V19.911Z" fill="black"/>
<path d="M7.07058 21.8691H5.53653C5.03918 21.8691 4.63452 22.2737 4.63452 22.7711V23.9139C4.63452 24.4112 5.03918 24.8158 5.53653 24.8158H7.07058C7.56794 24.8158 7.97259 24.4112 7.97259 23.9139V22.7711C7.97259 22.2737 7.56794 21.8691 7.07058 21.8691ZM7.09532 23.9139C7.09532 23.9275 7.08427 23.9386 7.07058 23.9386H5.53653C5.5229 23.9386 5.51179 23.9275 5.51179 23.9139V22.7711C5.51179 22.7575 5.52284 22.7464 5.53653 22.7464H7.07058C7.08421 22.7464 7.09532 22.7575 7.09532 22.7711V23.9139Z" fill="black"/>
<path d="M24.4634 21.8691H22.9294C22.432 21.8691 22.0273 22.2737 22.0273 22.7711V23.9139C22.0273 24.4112 22.432 24.8158 22.9294 24.8158H24.4634C24.9608 24.8158 25.3654 24.4112 25.3654 23.9139V22.7711C25.3654 22.2737 24.9608 21.8691 24.4634 21.8691ZM24.4881 23.9139C24.4881 23.9275 24.4771 23.9386 24.4634 23.9386H22.9294C22.9157 23.9386 22.9046 23.9275 22.9046 23.9139V22.7711C22.9046 22.7575 22.9157 22.7464 22.9294 22.7464H24.4634C24.477 22.7464 24.4881 22.7575 24.4881 22.7711V23.9139Z" fill="black"/>
<path d="M14.9708 17.5303C13.9484 17.5303 12.9374 17.7906 12.0473 18.2833C11.8353 18.4005 11.7586 18.6675 11.8759 18.8794C11.9932 19.0913 12.2599 19.1681 12.4721 19.0508C13.2325 18.63 14.0965 18.4075 14.9708 18.4075C17.8211 18.4075 20.14 20.7265 20.14 23.5768C20.14 26.4271 17.8211 28.7459 14.9708 28.7459C12.1204 28.7459 9.80153 26.4271 9.80153 23.5768C9.80153 22.3002 10.2709 21.0743 11.1233 20.1249C11.2852 19.9446 11.2703 19.6673 11.09 19.5055C10.9096 19.3435 10.6324 19.3586 10.4705 19.5389C9.47343 20.6495 8.92432 22.0835 8.92432 23.5768C8.92432 26.9108 11.6368 29.6232 14.9708 29.6232C18.3048 29.6232 21.0173 26.9108 21.0173 23.5768C21.0172 20.2427 18.3047 17.5303 14.9708 17.5303Z" fill="black"/>
<path d="M14.9709 27.8671C17.3375 27.8671 19.2629 25.9417 19.2629 23.5752C19.2629 21.2086 17.3375 19.2832 14.9709 19.2832C12.6043 19.2832 10.679 21.2086 10.679 23.5752C10.679 25.9417 12.6043 27.8671 14.9709 27.8671ZM12.2677 21.4923L12.3084 21.533C12.3941 21.6186 12.5063 21.6615 12.6186 21.6615C12.7308 21.6615 12.8431 21.6187 12.9287 21.5331C13.1001 21.3617 13.1001 21.084 12.9288 20.9127L12.8881 20.872C13.3555 20.511 13.9185 20.2687 14.5323 20.1896V20.2485C14.5323 20.4907 14.7286 20.6871 14.9709 20.6871C15.2132 20.6871 15.4095 20.4907 15.4095 20.2485V20.1896C16.0233 20.2687 16.5863 20.511 17.0537 20.872L17.013 20.9127C16.8417 21.084 16.8417 21.3617 17.0131 21.5331C17.0987 21.6187 17.211 21.6615 17.3232 21.6615C17.4355 21.6615 17.5477 21.6187 17.6334 21.533L17.6741 21.4923C18.035 21.9598 18.2773 22.5228 18.3565 23.1365H18.2976C18.0553 23.1365 17.8589 23.3329 17.8589 23.5752C17.8589 23.8174 18.0553 24.0138 18.2976 24.0138H18.3565C18.2773 24.6275 18.0351 25.1905 17.6741 25.6579L17.6334 25.6173C17.4621 25.446 17.1844 25.446 17.0131 25.6173C16.8418 25.7886 16.8418 26.0663 17.0131 26.2376L17.0538 26.2783C16.5864 26.6393 16.0233 26.8816 15.4096 26.9607V26.9018C15.4096 26.6596 15.2133 26.4632 14.971 26.4632C14.7287 26.4632 14.5323 26.6596 14.5323 26.9018V26.9607C13.9186 26.8816 13.3556 26.6393 12.8882 26.2783L12.9289 26.2376C13.1002 26.0663 13.1002 25.7886 12.9288 25.6173C12.7576 25.446 12.4798 25.446 12.3085 25.6173L12.2679 25.6579C11.9069 25.1905 11.6646 24.6275 11.5855 24.0138H11.6444C11.8867 24.0138 12.083 23.8174 12.083 23.5752C12.083 23.3329 11.8867 23.1365 11.6444 23.1365H11.5855C11.6645 22.5228 11.9067 21.9598 12.2677 21.4923Z" fill="black"/>
<path d="M14.9708 24.8853C15.1718 24.8853 15.3624 24.8396 15.5327 24.7584L15.9695 25.1952C16.0552 25.2808 16.1675 25.3237 16.2797 25.3237C16.392 25.3237 16.5043 25.2809 16.5899 25.1952C16.7612 25.0239 16.7612 24.7461 16.5899 24.5749L16.1531 24.1381C16.2344 23.9677 16.2801 23.7772 16.2801 23.5761C16.2801 23.008 15.9163 22.5235 15.4095 22.3428V21.7609C15.4095 21.5187 15.2132 21.3223 14.9709 21.3223C14.7286 21.3223 14.5322 21.5187 14.5322 21.7609V22.3428C14.0255 22.5235 13.6616 23.008 13.6616 23.5761C13.6616 24.298 14.2489 24.8853 14.9708 24.8853ZM14.9708 23.1441C15.2089 23.1441 15.4028 23.3379 15.4028 23.5761C15.4028 23.8143 15.209 24.0081 14.9708 24.0081C14.7326 24.0081 14.5388 23.8143 14.5388 23.5761C14.5388 23.3379 14.7326 23.1441 14.9708 23.1441Z" fill="black"/>
<path d="M27.0654 11.5118V9.95018C27.0654 9.33252 26.5629 8.83008 25.9453 8.83008H24.3686C24.1263 8.83008 23.9299 9.02647 23.9299 9.26871C23.9299 9.51096 24.1263 9.70735 24.3686 9.70735H25.9453C26.0792 9.70735 26.1881 9.81625 26.1881 9.95018V11.5118C26.1881 11.6457 26.0792 11.7546 25.9453 11.7546H4.05491C3.92098 11.7546 3.81208 11.6457 3.81208 11.5118V9.95018C3.81208 9.81625 3.92098 9.70735 4.05491 9.70735H22.4993C22.7416 9.70735 22.9379 9.51096 22.9379 9.26871C22.9379 9.02647 22.7416 8.83008 22.4993 8.83008H4.05491C3.43726 8.83008 2.93481 9.33252 2.93481 9.95018V11.5118C2.93481 12.1294 3.43731 12.6319 4.05491 12.6319H25.9453C26.563 12.6319 27.0654 12.1294 27.0654 11.5118Z" fill="black"/>
</svg>
