<svg width="30" height="30" viewBox="0 0 30 30" fill="none" xmlns="http://www.w3.org/2000/svg">
<path d="M2.00149 18.9891C1.11399 16.091 1.22139 12.9794 2.30658 10.1494C3.39178 7.31943 5.3924 4.93377 7.99003 3.37214C10.5877 1.8105 13.633 1.16264 16.6414 1.53167C19.6497 1.90069 22.4482 3.2654 24.5914 5.40857C26.7345 7.55174 28.0992 10.3502 28.4683 13.3586C28.8373 16.3669 28.1894 19.4123 26.6278 22.0099C25.0662 24.6075 22.6805 26.6082 19.8505 27.6934C17.0206 28.7786 13.9089 28.886 11.0109 27.9985L12.7546 24.5813C13.4901 24.757 14.2438 24.8451 14.9999 24.8438C16.9468 24.8438 18.85 24.2664 20.4688 23.1848C22.0876 22.1032 23.3493 20.5658 24.0944 18.7671C24.8394 16.9683 25.0344 14.9891 24.6545 13.0796C24.2747 11.1701 23.3372 9.41611 21.9605 8.03943C20.5838 6.66276 18.8298 5.72523 16.9203 5.34541C15.0108 4.96559 13.0316 5.16053 11.2329 5.90558C9.43417 6.65063 7.89679 7.91233 6.81515 9.53112C5.7335 11.1499 5.15617 13.0531 5.15617 15C5.15483 15.7562 5.24295 16.5099 5.41867 17.2453L2.00149 18.9891Z" fill="#FFB125"/>
<path d="M6.09375 23.9062L7.725 12.9938L10.3781 15.6422L16.6406 7.26562L22.7344 13.3594L14.3578 19.6219L17.0063 22.275L6.09375 23.9062Z" fill="#FE4F60"/>
<path d="M1.55296 19.1247C1.57315 19.1901 1.6074 19.2502 1.65331 19.3009C1.69921 19.3516 1.75566 19.3917 1.81868 19.4182C1.88171 19.4448 1.94979 19.4573 2.01815 19.4548C2.0865 19.4522 2.15347 19.4348 2.21436 19.4036L5.63155 17.6603C5.72529 17.6125 5.80021 17.5345 5.84426 17.439C5.8883 17.3434 5.8989 17.2358 5.87436 17.1335C5.70798 16.4344 5.62428 15.7183 5.62499 14.9997C5.62499 13.1455 6.17482 11.3329 7.20496 9.79123C8.2351 8.24952 9.69927 7.0479 11.4123 6.33833C13.1254 5.62876 15.0104 5.4431 16.829 5.80484C18.6475 6.16657 20.318 7.05946 21.6291 8.37057C22.9402 9.68169 23.8331 11.3522 24.1948 13.1707C24.5566 14.9893 24.3709 16.8743 23.6614 18.5874C22.9518 20.3004 21.7502 21.7646 20.2085 22.7947C18.6667 23.8249 16.8542 24.3747 15 24.3747C14.2806 24.3756 13.5637 24.2919 12.8639 24.1253C12.7616 24.1008 12.654 24.1114 12.5584 24.1554C12.4628 24.1995 12.3848 24.2744 12.337 24.3681L10.5937 27.7853C10.5626 27.8462 10.5451 27.9132 10.5426 27.9815C10.5401 28.0499 10.5525 28.118 10.5791 28.181C10.6057 28.244 10.6457 28.3005 10.6964 28.3464C10.7471 28.3923 10.8073 28.4265 10.8726 28.4467C13.8701 29.3647 17.0884 29.2537 20.0155 28.1314C22.9426 27.0091 25.4101 24.94 27.0255 22.2534C28.6409 19.5668 29.3112 16.417 28.9298 13.3055C28.5484 10.1939 27.1372 7.29931 24.9209 5.08236C22.7045 2.86541 19.8102 1.4535 16.6988 1.07134C13.5873 0.689175 10.4374 1.35872 7.75039 2.97341C5.06338 4.5881 2.99366 7.05515 1.87062 9.98193C0.74758 12.9087 0.635761 16.127 1.55296 19.1247ZM15 1.8747C16.8636 1.8763 18.7055 2.27475 20.4032 3.04355C22.1008 3.81235 23.6153 4.93386 24.8458 6.33346C26.0763 7.73307 26.9947 9.37868 27.5398 11.1608C28.0848 12.9429 28.2442 14.8207 28.0071 16.6692C27.7701 18.5177 27.1421 20.2945 26.165 21.8814C25.1878 23.4683 23.884 24.8289 22.3401 25.8727C20.7962 26.9166 19.0478 27.6196 17.2111 27.9352C15.3744 28.2507 13.4915 28.1715 11.6878 27.7028L13.0078 25.1167C13.6639 25.247 14.3311 25.3125 15 25.3122C17.0396 25.3122 19.0334 24.7074 20.7293 23.5742C22.4252 22.4411 23.747 20.8305 24.5275 18.9461C25.308 17.0618 25.5122 14.9883 25.1143 12.9878C24.7164 10.9874 23.7343 9.14989 22.292 7.70766C20.8498 6.26543 19.0123 5.28326 17.0119 4.88535C15.0114 4.48744 12.9379 4.69167 11.0536 5.47219C9.1692 6.25272 7.55861 7.5745 6.42546 9.27038C5.2923 10.9663 4.68749 12.9601 4.68749 14.9997C4.68721 15.6686 4.75268 16.3358 4.88296 16.9919L2.29687 18.3119C1.79335 16.3709 1.74079 14.3405 2.14322 12.3761C2.54564 10.4117 3.39237 8.56549 4.61854 6.97889C5.84471 5.39229 7.41778 4.1074 9.21724 3.22267C11.0167 2.33794 12.9948 1.87685 15 1.8747Z" fill="black"/>
<path d="M17.4534 22.4194C17.4806 22.3369 17.4843 22.2486 17.4642 22.1642C17.4441 22.0798 17.4009 22.0026 17.3395 21.9412L15.0703 19.6725L23.0156 13.7344C23.0695 13.6941 23.114 13.6427 23.1462 13.5838C23.1784 13.5248 23.1976 13.4595 23.2024 13.3925C23.2072 13.3255 23.1975 13.2582 23.1741 13.1952C23.1506 13.1322 23.1138 13.075 23.0663 13.0275L16.9725 6.93374C16.8846 6.84583 16.7654 6.79643 16.6411 6.7964H16.6078C16.5407 6.80124 16.4753 6.8205 16.4163 6.85285C16.3572 6.88521 16.3059 6.9299 16.2656 6.9839L10.3275 14.9297L8.05876 12.6605C7.99749 12.5986 7.92019 12.555 7.83553 12.5346C7.75087 12.5141 7.6622 12.5177 7.57946 12.5449C7.49671 12.572 7.42317 12.6217 7.36708 12.6883C7.31098 12.7549 7.27456 12.8359 7.26188 12.922L5.62829 23.8369C5.61744 23.9094 5.62374 23.9834 5.64669 24.053C5.66964 24.1226 5.70859 24.1859 5.76042 24.2377C5.81225 24.2895 5.87551 24.3285 5.94513 24.3514C6.01474 24.3744 6.08877 24.3807 6.16126 24.3698L17.078 22.7344C17.1635 22.7216 17.2439 22.6854 17.3102 22.6298C17.3764 22.5743 17.426 22.5014 17.4534 22.4194ZM6.6511 23.3489L8.0536 13.9805L10.0477 15.975C10.0952 16.0225 10.1523 16.0591 10.2153 16.0826C10.2782 16.106 10.3454 16.1157 10.4124 16.1109C10.4794 16.1061 10.5446 16.0869 10.6035 16.0548C10.6625 16.0226 10.7138 15.9781 10.7541 15.9244L16.6917 7.97952L22.0205 13.3083L14.0756 19.2459C14.0219 19.2862 13.9774 19.3375 13.9452 19.3965C13.9131 19.4554 13.8939 19.5206 13.8891 19.5876C13.8843 19.6546 13.894 19.7218 13.9174 19.7847C13.9409 19.8477 13.9776 19.9048 14.025 19.9523L16.0195 21.9464L6.6511 23.3489Z" fill="black"/>
</svg>
