<svg width="33" height="10" viewBox="0 0 33 10" fill="none" xmlns="http://www.w3.org/2000/svg">
<path d="M4.87427 9.50539C7.4325 9.50539 9.50636 7.43153 9.50636 4.8733C9.50636 2.31507 7.4325 0.241211 4.87427 0.241211C2.31604 0.241211 0.242188 2.31507 0.242188 4.8733C0.242188 7.43153 2.31604 9.50539 4.87427 9.50539Z" fill="#FEE570"/>
<path d="M8.14964 8.14965C9.95864 6.34065 9.95867 3.40763 8.14964 1.59863L1.59863 8.14965C3.40763 9.95868 6.34061 9.95868 8.14964 8.14965Z" fill="#F4D451"/>
<path d="M9.51032 5.03357C9.37617 5.02188 9.25745 5.12152 9.24579 5.25597C9.15698 6.28196 8.7064 7.24868 7.97702 7.97805C6.26622 9.68888 3.48249 9.68892 1.7716 7.97805C0.0607703 6.26719 0.0607703 3.4835 1.7716 1.77263C3.48243 0.0617721 6.26619 0.0617721 7.97702 1.77263C8.53008 2.32569 8.92566 3.01578 9.12102 3.76838C9.15494 3.89899 9.28829 3.97744 9.419 3.9435C9.54961 3.90958 9.62804 3.7762 9.59416 3.64555C9.3769 2.80878 8.93725 2.04161 8.32268 1.42704C6.42126 -0.474378 3.32742 -0.474378 1.42604 1.42704C-0.475346 3.32842 -0.475346 6.42226 1.42604 8.32365C2.37675 9.27436 3.62554 9.74969 4.87436 9.74969C6.12318 9.74969 7.37197 9.27432 8.32268 8.32365C9.13325 7.51304 9.63405 6.43857 9.73272 5.29811C9.74435 5.16365 9.64478 5.0452 9.51032 5.03357Z" fill="black"/>
<path d="M16.5076 9.50539C19.0658 9.50539 21.1397 7.43153 21.1397 4.8733C21.1397 2.31507 19.0658 0.241211 16.5076 0.241211C13.9493 0.241211 11.8755 2.31507 11.8755 4.8733C11.8755 7.43153 13.9493 9.50539 16.5076 9.50539Z" fill="#FEE570"/>
<path d="M19.7829 8.14965C21.5919 6.34065 21.592 3.40763 19.7829 1.59863L13.2319 8.14965C15.0409 9.95868 17.9739 9.95868 19.7829 8.14965Z" fill="#F4D451"/>
<path d="M21.1436 5.03357C21.0095 5.02188 20.8908 5.12152 20.8791 5.25597C20.7903 6.28196 20.3397 7.24868 19.6103 7.97805C17.8995 9.68888 15.1158 9.68892 13.4049 7.97805C11.6941 6.26719 11.6941 3.4835 13.4049 1.77263C15.1157 0.0617721 17.8995 0.0617721 19.6103 1.77263C20.1634 2.32569 20.559 3.01578 20.7543 3.76838C20.7882 3.89899 20.9216 3.97744 21.0523 3.9435C21.1829 3.90958 21.2613 3.7762 21.2275 3.64555C21.0102 2.80878 20.5706 2.04161 19.956 1.42704C18.0546 -0.474378 14.9607 -0.474378 13.0593 1.42704C11.158 3.32842 11.158 6.42226 13.0593 8.32365C14.01 9.27436 15.2588 9.74969 16.5077 9.74969C17.7565 9.74969 19.0053 9.27432 19.956 8.32365C20.7666 7.51304 21.2674 6.43857 21.366 5.29811C21.3776 5.16365 21.2781 5.0452 21.1436 5.03357Z" fill="black"/>
<path d="M28.1409 9.50539C30.6991 9.50539 32.773 7.43153 32.773 4.8733C32.773 2.31507 30.6991 0.241211 28.1409 0.241211C25.5826 0.241211 23.5088 2.31507 23.5088 4.8733C23.5088 7.43153 25.5826 9.50539 28.1409 9.50539Z" fill="#FEE570"/>
<path d="M31.4162 8.14965C33.2252 6.34065 33.2253 3.40763 31.4162 1.59863L24.8652 8.14965C26.6742 9.95868 29.6072 9.95868 31.4162 8.14965Z" fill="#F4D451"/>
<path d="M32.7769 5.03357C32.6428 5.02188 32.5241 5.12152 32.5124 5.25597C32.4236 6.28196 31.973 7.24868 31.2436 7.97805C29.5328 9.68888 26.7491 9.68892 25.0382 7.97805C23.3274 6.26719 23.3274 3.4835 25.0382 1.77263C26.749 0.0617721 29.5328 0.0617721 31.2436 1.77263C31.7967 2.32569 32.1923 3.01578 32.3876 3.76838C32.4215 3.89899 32.5549 3.97744 32.6856 3.9435C32.8162 3.90958 32.8946 3.7762 32.8608 3.64555C32.6435 2.80878 32.2039 2.04161 31.5893 1.42704C29.6879 -0.474378 26.594 -0.474378 24.6926 1.42704C22.7913 3.32842 22.7913 6.42226 24.6926 8.32365C25.6433 9.27436 26.8921 9.74969 28.141 9.74969C29.3898 9.74969 30.6386 9.27432 31.5893 8.32365C32.3999 7.51304 32.9007 6.43857 32.9993 5.29811C33.011 5.16365 32.9114 5.0452 32.7769 5.03357Z" fill="black"/>
</svg>
