<svg width="26" height="23" viewBox="0 0 26 23" fill="none" xmlns="http://www.w3.org/2000/svg">
<g clip-path="url(#clip0)">
<path d="M24.7974 10.7667C24.8066 11.1423 24.4664 11.4553 24.0351 11.4553C23.6223 11.4553 23.283 11.1633 23.2739 10.7963C23.249 9.77927 22.9408 8.38576 21.6128 7.52369C19.4809 6.13912 15.7526 6.7675 13.2124 7.41992C13.0732 7.45523 12.9272 7.45527 12.7878 7.41992C10.2485 6.76777 6.51959 6.13894 4.38739 7.52369C3.05943 8.38576 2.75118 9.77927 2.7263 10.7963C2.71944 11.0732 2.5253 11.3059 2.25656 11.4041C1.74152 11.5905 1.19099 11.2489 1.20282 10.7667C1.25762 8.55584 2.379 6.65929 4.76217 5.81842C5.62425 5.52161 6.69997 5.32817 8.13361 5.35347C8.12853 5.34897 8.17419 5.40081 6.41006 3.31262C5.17376 1.9975 6.23039 0 8.16814 0C8.38041 0 8.58304 0.0781659 8.72726 0.216079C8.73386 0.222368 9.55501 0.979769 10.9561 1.367C11.6081 0.429014 12.7045 0.0956858 12.7594 0.0795136C12.9153 0.033243 13.0849 0.033243 13.2408 0.0795136C13.2956 0.0956858 14.392 0.429014 15.0441 1.367C16.4452 0.979769 17.2663 0.222368 17.2755 0.213833C17.4197 0.0759198 17.6198 0 17.832 0C19.7733 0 20.8242 1.99988 19.5901 3.31262C18.5548 4.53816 19.3152 3.6379 17.8676 5.35257C17.8567 5.36223 19.3733 5.27409 20.847 5.69488C23.4455 6.43467 24.7385 8.38805 24.7974 10.7667Z" fill="white"/>
<path d="M22.5708 12.6938C22.5597 12.6798 22.6974 12.8477 18.7727 8.06715C17.5439 7.97739 16.1845 8.15924 14.993 8.40092C15.1327 8.5613 15.2962 8.70955 15.4881 8.83668C15.8248 9.05995 15.8929 9.48222 15.6405 9.78006C15.387 10.0788 14.9102 10.1373 14.5741 9.91483C14.0779 9.58555 13.7092 9.17899 13.436 8.75671C13.1472 8.80635 12.8529 8.80644 12.5636 8.75671C12.2904 9.17899 11.9217 9.58555 11.4255 9.91483C11.09 10.1369 10.613 10.0793 10.3591 9.78006C10.1067 9.48222 10.1748 9.05995 10.5115 8.83668C10.7034 8.70955 10.8669 8.5613 11.0061 8.40092C9.80142 8.15659 8.44822 7.97797 7.22685 8.06715C3.30604 12.8431 3.43985 12.6798 3.42883 12.6938C1.01824 15.7956 2.34625 20.0722 6.19648 21.6326C10.5868 23.4119 15.1979 23.499 19.8031 21.6326C23.6558 20.0712 24.9796 15.7933 22.5708 12.6938ZM13.7626 18.1942V18.3285C13.7626 18.7192 13.4111 19.0091 13.0008 19.0091C12.5801 19.0091 12.2391 18.7074 12.2391 18.3352V18.2704C11.8879 18.216 11.5672 18.0998 11.1622 17.8654C10.8013 17.6564 10.7165 17.2308 10.9419 16.926C11.1723 16.6145 11.6443 16.5272 11.9964 16.731C12.3677 16.9458 12.4867 16.9627 12.9957 16.9595C13.4857 16.9566 13.681 16.6164 13.7191 16.4158C13.7648 16.1753 13.6483 15.9821 13.3373 15.8847C12.7576 15.7033 12.0748 15.4728 11.5969 15.1414C10.5497 14.415 10.8662 12.7512 12.2391 12.3098V12.2189C12.2391 11.8282 12.5906 11.5384 13.0009 11.5384C13.4215 11.5384 13.7626 11.8401 13.7626 12.2122V12.269C14.1511 12.369 14.4505 12.5374 14.6212 12.6767C14.6156 12.6821 14.6151 12.68 14.6202 12.6839C14.9276 12.9357 14.9478 13.36 14.6645 13.6336C14.3808 13.9074 13.9004 13.9264 13.5901 13.6765C13.3936 13.5478 13.0941 13.4922 12.7785 13.5768C12.5983 13.6248 12.5006 13.7956 12.4995 13.9486C12.5004 14.0188 12.5233 14.0646 12.5372 14.0743C12.8245 14.2736 13.3596 14.4557 13.8452 14.6076C15.8409 15.2316 15.6196 17.6004 13.7626 18.1942Z" fill="white"/>
</g>
<defs>
<clipPath id="clip0">
<rect width="26" height="23" fill="white"/>
</clipPath>
</defs>
</svg>
