<svg width="34" height="31" viewBox="0 0 34 31" fill="none" xmlns="http://www.w3.org/2000/svg">
<path d="M16.8534 0.755859C12.9081 0.755859 9.70972 3.95426 9.70972 7.89849C9.70972 10.5655 11.1723 12.8895 13.3381 14.1166L14.4013 13.317H19.5519L20.4319 14.0824C22.5633 12.8463 23.996 10.54 23.996 7.89849C23.996 3.95426 20.7987 0.755859 16.8534 0.755859Z" fill="#FF4C4C"/>
<path d="M14.4405 13.0605C13.0797 11.7604 12.2308 9.92938 12.2308 7.89848C12.2308 4.38451 14.7708 1.46203 18.1146 0.866374C17.7052 0.793401 17.2838 0.755859 16.8534 0.755859C12.9081 0.755859 9.70972 3.95426 9.70972 7.89848C9.70972 10.5654 11.1711 12.8905 13.3368 14.1175L14.4405 13.0605Z" fill="#F33939"/>
<path d="M20.4318 14.0822C19.3801 14.6928 18.158 15.042 16.8532 15.042C15.5743 15.042 14.3749 14.7062 13.3367 14.1174L13.3604 13.2992C13.3604 12.5895 13.7261 11.9314 14.3264 11.5554L15.6414 10.732V7.16797H18.1157V10.732L19.4308 11.5554C20.032 11.9314 20.3967 12.5895 20.3967 13.2992L20.4318 14.0822Z" fill="#F9F7F7"/>
<path d="M16.1565 8.9707V9.40927H15.6414V10.7321L14.3264 11.5555C13.7261 11.9315 13.3604 12.5896 13.3604 13.2993L13.3367 14.1175C13.6748 14.3093 14.2624 14.569 14.1964 14.5316L14.224 13.6818C14.224 12.9721 14.5897 12.314 15.19 11.938L16.3486 11.2125C16.4459 11.1516 16.505 11.0449 16.505 10.93C16.505 10.7442 16.6573 10.5963 16.8432 10.5981C16.8551 10.5983 16.867 10.5983 16.879 10.5983C17.3122 10.5983 17.7282 10.5235 18.1157 10.3876V8.9707H16.1565Z" fill="#F2EAE7"/>
<path d="M16.879 9.9786C18.6054 9.9786 20.005 8.57903 20.005 6.85258C20.005 5.12613 18.6054 3.72656 16.879 3.72656C15.1525 3.72656 13.7529 5.12613 13.7529 6.85258C13.7529 8.57903 15.1525 9.9786 16.879 9.9786Z" fill="#F9F7F7"/>
<path d="M14.8784 6.85265C14.8784 5.31844 15.9859 4.0426 17.4436 3.77743C17.261 3.74424 17.0712 3.72656 16.8789 3.72656C15.1525 3.72656 13.7529 5.12618 13.7529 6.85265C13.7529 8.57912 15.1525 9.97867 16.8789 9.97867C17.0711 9.97867 17.2599 9.96125 17.4425 9.928C15.9848 9.66289 14.8784 8.38686 14.8784 6.85265Z" fill="#F2EAE7"/>
<path d="M26.3699 16.1377C22.5588 16.1377 19.4692 19.2272 19.4692 23.0373C19.4692 25.6136 20.882 27.8585 22.9742 29.0438L24.0012 28.2714H28.9765L29.8267 29.0108C31.8856 27.8168 33.2695 25.5889 33.2695 23.0373C33.2695 19.2273 30.1809 16.1377 26.3699 16.1377Z" fill="#CFEFFC"/>
<path d="M24.0393 28.0237C22.7248 26.7678 21.9048 24.9991 21.9048 23.0373C21.9048 19.6429 24.3583 16.8199 27.5883 16.2445C27.1929 16.174 26.7858 16.1377 26.3701 16.1377C22.559 16.1377 19.4695 19.2272 19.4695 23.0373C19.4695 25.6135 20.8812 27.8595 22.9732 29.0448L24.0393 28.0237Z" fill="#A9E4F9"/>
<path d="M29.8266 29.0112C28.8107 29.6009 27.6302 29.9382 26.3698 29.9382C25.1344 29.9382 23.9758 29.6139 22.9729 29.0451L22.9959 28.2547C22.9959 27.5691 23.3491 26.9335 23.9289 26.5702L25.1993 25.7749V22.332H27.5893V25.7749L28.8597 26.5702C29.4405 26.9334 29.7928 27.5691 29.7928 28.2547L29.8266 29.0112Z" fill="#F9F7F7"/>
<path d="M25.6968 24.0742V24.4979H25.1993V25.7758L23.9289 26.5711C23.3492 26.9343 22.9959 27.5701 22.9959 28.2556L22.9729 29.046C23.2995 29.2313 23.867 29.4821 23.8034 29.446L23.8301 28.6251C23.8301 27.9395 24.1834 27.3038 24.7631 26.9405L25.8824 26.2398C25.9764 26.1809 26.0335 26.0778 26.0335 25.9669C26.0335 25.7874 26.1805 25.6445 26.3601 25.6463C26.3715 25.6464 26.3831 25.6465 26.3946 25.6465C26.8132 25.6465 27.215 25.5743 27.5893 25.443V24.0742H25.6968Z" fill="#F2EAE7"/>
<path d="M26.3947 25.0473C28.0625 25.0473 29.4145 23.6953 29.4145 22.0275C29.4145 20.3598 28.0625 19.0078 26.3947 19.0078C24.727 19.0078 23.375 20.3598 23.375 22.0275C23.375 23.6953 24.727 25.0473 26.3947 25.0473Z" fill="#F9F7F7"/>
<path d="M24.4623 22.0275C24.4623 20.5455 25.5321 19.3131 26.9402 19.057C26.7637 19.0249 26.5805 19.0078 26.3947 19.0078C24.727 19.0078 23.375 20.3598 23.375 22.0275C23.375 23.6952 24.727 25.0472 26.3947 25.0472C26.5804 25.0472 26.7627 25.0304 26.9391 24.9982C25.5311 24.7422 24.4623 23.5096 24.4623 22.0275Z" fill="#F2EAE7"/>
<path d="M7.38206 16.0723C3.57098 16.0723 0.481445 19.1618 0.481445 22.9719C0.481445 25.5482 1.89425 27.7931 3.98638 28.9784L5.01341 28.206H9.98876L10.8389 28.9454C12.8978 27.7513 14.2817 25.5234 14.2817 22.9718C14.2817 19.1619 11.1931 16.0723 7.38206 16.0723Z" fill="#9DE5D1"/>
<path d="M5.05122 27.9583C3.73672 26.7024 2.91673 24.9336 2.91673 22.9719C2.91673 19.5775 5.37029 16.7544 8.6003 16.179C8.20482 16.1086 7.79779 16.0723 7.38206 16.0723C3.57098 16.0723 0.481445 19.1618 0.481445 22.9719C0.481445 25.548 1.89313 27.794 3.98513 28.9793L5.05122 27.9583Z" fill="#82DEC5"/>
<path d="M10.8388 28.9457C9.82293 29.5355 8.64237 29.8728 7.38204 29.8728C6.14658 29.8728 4.98805 29.5484 3.98511 28.9796L4.00807 28.1893C4.00807 27.5037 4.36132 26.868 4.94114 26.5048L6.2115 25.7095V22.2666H8.60153V25.7095L9.87189 26.5048C10.4527 26.868 10.805 27.5037 10.805 28.1893L10.8388 28.9457Z" fill="#F9F7F7"/>
<path d="M6.70898 24.0079V24.4315H6.21144V25.7094L4.94114 26.5047C4.36139 26.8679 4.00807 27.5036 4.00807 28.1892L3.98511 28.9796C4.3117 29.1649 4.87925 29.4156 4.81565 29.3796L4.84231 28.5586C4.84231 27.8731 5.19556 27.2374 5.77532 26.8741L6.89458 26.1734C6.9886 26.1145 7.04568 26.0114 7.04568 25.9005C7.04568 25.721 7.19274 25.5781 7.37227 25.5799C7.38375 25.58 7.3953 25.5801 7.40684 25.5801C7.82541 25.5801 8.22723 25.5078 8.60146 25.3765V24.0078H6.70898V24.0079Z" fill="#F2EAE7"/>
<path d="M7.40669 24.9809C9.07444 24.9809 10.4264 23.6289 10.4264 21.9611C10.4264 20.2934 9.07444 18.9414 7.40669 18.9414C5.73894 18.9414 4.38696 20.2934 4.38696 21.9611C4.38696 23.6289 5.73894 24.9809 7.40669 24.9809Z" fill="#F9F7F7"/>
<path d="M5.47423 21.9611C5.47423 20.4791 6.54401 19.2467 7.95214 18.9906C7.77571 18.9585 7.59242 18.9414 7.40669 18.9414C5.73894 18.9414 4.38696 20.2934 4.38696 21.9611C4.38696 23.6288 5.73894 24.9808 7.40669 24.9808C7.59236 24.9808 7.77466 24.964 7.95108 24.9318C6.54303 24.6758 5.47423 23.4432 5.47423 21.9611Z" fill="#F2EAE7"/>
<path d="M26.3273 15.558C23.4468 15.558 20.9432 17.2018 19.7049 19.6006L17.4073 18.4149V15.3298C21.2722 15.0619 24.335 11.8325 24.335 7.9007C24.335 6.12567 23.6998 4.40626 22.5464 3.05936C22.3687 2.85179 22.0563 2.82751 21.8487 3.00539C21.6411 3.18307 21.6169 3.49555 21.7947 3.70305C22.7946 4.87082 23.3454 6.36155 23.3454 7.9007C23.3454 9.97957 22.3577 11.8319 20.8273 13.0138C20.7818 12.2043 20.3527 11.4741 19.6593 11.0401L18.6116 10.3844V9.98419C19.7064 9.38213 20.4501 8.2176 20.4501 6.88238C20.4501 4.93178 18.8632 3.34485 16.9125 3.34485C14.9619 3.34485 13.3749 4.93178 13.3749 6.88238C13.3749 8.2176 14.1187 9.38213 15.2135 9.98419V10.3844L14.1658 11.0401C13.4616 11.4807 13.0308 12.2269 12.9966 13.0513C11.4383 11.8712 10.4296 10.0017 10.4296 7.9007C10.4296 4.33982 13.3266 1.44281 16.8875 1.44281C18.0998 1.44281 19.2818 1.78108 20.3056 2.42108C20.5373 2.56604 20.8426 2.49557 20.9875 2.26379C21.1324 2.03207 21.062 1.72672 20.8302 1.58189C19.649 0.843457 18.2856 0.453125 16.8875 0.453125C12.7809 0.453125 9.43995 3.7941 9.43995 7.9007C9.43995 11.8494 12.5292 15.0896 16.4176 15.333V18.4148L14.0806 19.6208C12.846 17.211 10.3362 15.5579 7.44758 15.5579C3.34098 15.558 0 18.8989 0 23.0055C0 23.7071 0.0978469 24.4023 0.290835 25.0717C0.366513 25.3343 0.64059 25.4854 0.903385 25.4102C1.16598 25.3345 1.31753 25.0603 1.24179 24.7977C1.07453 24.2173 0.989685 23.6143 0.989685 23.0055C0.989685 19.4446 3.88669 16.5477 7.44751 16.5477C11.0083 16.5477 13.9053 19.4446 13.9053 23.0055C13.9053 25.0843 12.9177 26.9366 11.3873 28.1186C11.3418 27.309 10.9127 26.5788 10.2193 26.1448L9.17155 25.4891V25.089C10.2663 24.4869 11.0101 23.3224 11.0101 21.9872C11.0101 20.0366 9.42319 18.4496 7.47252 18.4496C5.52192 18.4496 3.93499 20.0366 3.93499 21.9872C3.93499 23.3224 4.67877 24.4869 5.77356 25.089V25.4891L4.72588 26.1448C4.02129 26.5858 3.59031 27.3326 3.5566 28.1576C3.01339 27.7475 2.53109 27.2497 2.13356 26.6752C1.97812 26.4504 1.6698 26.3942 1.44507 26.5499C1.22035 26.7053 1.1642 27.0136 1.31971 27.2384C2.71266 29.2513 5.00345 30.4531 7.44751 30.4531C11.5541 30.4531 14.895 27.1121 14.895 23.0055C14.895 22.139 14.7457 21.3067 14.4724 20.5325L16.9124 19.2733L19.3101 20.5107C19.0318 21.2911 18.8797 22.1309 18.8797 23.0056C18.8797 27.1121 22.2207 30.4531 26.3272 30.4531C30.4337 30.4531 33.7747 27.1121 33.7747 23.0056C33.7747 18.8991 30.4339 15.558 26.3273 15.558ZM4.92474 21.9871C4.92474 20.5822 6.06769 19.4392 7.47259 19.4392C8.87748 19.4392 10.0205 20.5822 10.0205 21.9871C10.0205 23.392 8.87748 24.535 7.47259 24.535C6.06769 24.535 4.92474 23.392 4.92474 21.9871ZM4.54299 28.7716V28.2618C4.54299 27.7389 4.80763 27.2611 5.25087 26.9837L6.53093 26.1826C6.67543 26.0922 6.76325 25.9337 6.76325 25.7632V25.4532C6.99246 25.5 7.22972 25.5247 7.47252 25.5247C7.71532 25.5247 7.95258 25.5 8.18179 25.4532V25.7632C8.18179 25.9337 8.26961 26.0922 8.41411 26.1826L9.69417 26.9837C10.1374 27.2611 10.4021 27.7389 10.4021 28.2618V28.7467C9.51615 29.2045 8.51149 29.4633 7.44745 29.4633C6.42405 29.4633 5.43185 29.2196 4.54299 28.7716ZM14.3646 6.88238C14.3646 5.47749 15.5075 4.33454 16.9125 4.33454C18.3174 4.33454 19.4604 5.47749 19.4604 6.88238C19.4604 8.28728 18.3174 9.43023 16.9125 9.43023C15.5075 9.43023 14.3646 8.28728 14.3646 6.88238ZM13.9829 13.157C13.9829 12.6341 14.2475 12.1564 14.6908 11.879L15.9708 11.0779C16.1153 10.9874 16.2031 10.8289 16.2031 10.6584V10.3484C16.4323 10.3952 16.6696 10.4199 16.9124 10.4199C17.1552 10.4199 17.3925 10.3952 17.6217 10.3484V10.6584C17.6217 10.8289 17.7095 10.9874 17.854 11.0779L19.134 11.879C19.5773 12.1564 19.8419 12.6341 19.8419 13.157V13.6419C18.956 14.0997 17.9514 14.3585 16.8873 14.3585C15.8433 14.3585 14.8564 14.1092 13.9828 13.6673V13.157H13.9829ZM23.3727 28.7467V28.2618C23.3727 27.7389 23.6373 27.2611 24.0806 26.9837L25.3606 26.1826C25.5051 26.0922 25.5929 25.9337 25.5929 25.7632V25.4532C25.8221 25.5 26.0594 25.5247 26.3022 25.5247C26.545 25.5247 26.7823 25.5 27.0115 25.4532V25.7632C27.0115 25.9337 27.0993 26.0922 27.2438 26.1826L28.5239 26.9837C28.9671 27.2611 29.2317 27.7389 29.2317 28.2618V28.7721C28.3581 29.2139 27.3713 29.4633 26.3272 29.4633C25.2632 29.4633 24.2586 29.2045 23.3727 28.7467ZM30.2181 28.1561C30.184 27.3317 29.7531 26.5855 29.049 26.1448L28.0012 25.4891V25.089C29.096 24.4869 29.8398 23.3224 29.8398 21.9872C29.8398 21.6017 29.7772 21.2209 29.6537 20.8552C29.5663 20.5962 29.2855 20.4575 29.0266 20.5445C28.7677 20.632 28.6286 20.9128 28.716 21.1717C28.8051 21.4352 28.8501 21.7096 28.8501 21.9872C28.8501 23.3921 27.7072 24.535 26.3023 24.535C24.8974 24.535 23.7544 23.3921 23.7544 21.9872C23.7544 20.5823 24.8974 19.4393 26.3023 19.4393C26.7583 19.4393 27.2059 19.5616 27.597 19.7929C27.8321 19.932 28.1357 19.8543 28.2748 19.6189C28.414 19.3838 28.3361 19.0803 28.1009 18.9411C27.5575 18.6196 26.9355 18.4496 26.3023 18.4496C24.3517 18.4496 22.7648 20.0366 22.7648 21.9872C22.7648 23.3224 23.5086 24.4869 24.6034 25.089V25.4891L23.5557 26.1448C22.8622 26.5788 22.4332 27.309 22.3877 28.1186C20.8572 26.9366 19.8696 25.0844 19.8696 23.0055C19.8696 19.4446 22.7666 16.5477 26.3274 16.5477C29.8882 16.5477 32.7852 19.4446 32.7852 23.0055C32.7851 25.1064 31.7764 26.976 30.2181 28.1561Z" fill="black"/>
</svg>
