<svg width="30" height="31" viewBox="0 0 30 31" fill="none" xmlns="http://www.w3.org/2000/svg">
<g clip-path="url(#clip0)">
<path d="M24.6237 26.8627V29.3162C24.6237 29.5924 24.4 29.8161 24.1238 29.8161H5.87616C5.59994 29.8161 5.37622 29.5924 5.37622 29.3162V26.8627C5.37622 24.2887 7.46282 22.2034 10.0375 22.2027C10.9474 22.2021 11.7485 21.734 12.2097 21.0241C12.673 20.3121 12.6253 19.6929 12.6253 19.1925L12.6346 19.1694C10.3912 18.2407 8.81327 16.0304 8.81327 13.4514V13.2558C7.92245 13.2558 7.25097 12.5518 7.25097 11.7222V9.12507C7.23098 8.22081 7.27222 5.03186 9.57567 2.81152C12.2541 0.229988 16.4985 0.441211 19.5731 1.82228C19.6731 1.86727 19.67 2.01038 19.5687 2.05225L18.767 2.38221C18.647 2.43157 18.6726 2.60843 18.8013 2.62217L19.1907 2.66404C21.0548 2.86339 22.7864 3.87576 23.8601 5.56054C23.8888 5.60616 23.8807 5.67552 23.8438 5.71489C23.1814 6.41543 22.8114 7.3453 22.8114 8.31205V11.7222C22.8114 12.569 22.1247 13.2558 21.2779 13.2558H21.1866V13.4514C21.1866 16.0304 19.6087 18.2407 17.3653 19.1694L17.3746 19.1925C17.3746 19.6785 17.323 20.3061 17.7902 21.0241C18.2514 21.734 19.0526 22.2021 19.9624 22.2027C22.5371 22.2034 24.6237 24.2887 24.6237 26.8627Z" fill="#FFDFBA"/>
<path d="M24.6237 26.863V29.3165C24.6237 29.5925 24.3999 29.8164 24.1238 29.8164H5.87616C5.60007 29.8164 5.37622 29.5925 5.37622 29.3165V26.863C5.37622 24.289 7.46314 22.2039 10.0372 22.203C10.9473 22.2027 11.7486 21.7341 12.2097 21.0244C13.8191 22.3994 16.1799 22.4002 17.7902 21.0244C18.2512 21.7341 19.0526 22.2027 19.9627 22.203C22.5368 22.2039 24.6237 24.289 24.6237 26.863Z" fill="#FE4F60"/>
<path d="M23.8597 5.56082C23.8887 5.60637 23.8805 5.67536 23.8435 5.71461C23.1812 6.41564 22.8113 7.34521 22.8113 8.31202V11.7222C22.8113 12.4963 22.2281 13.2557 21.1865 13.2557V9.39563C21.1865 7.73897 19.8436 6.39602 18.1869 6.39602H11.8127C10.1561 6.39602 8.81313 7.73897 8.81313 9.39563V13.2557C7.92231 13.2557 7.25084 12.5518 7.25084 11.7222V9.12504C7.23084 8.22078 7.27208 5.03182 9.57553 2.81149C12.2538 0.22989 16.4986 0.441238 19.5728 1.82243C19.6728 1.86736 19.6701 2.01053 19.5687 2.05228L18.7669 2.38236C18.647 2.43173 18.6723 2.60839 18.8011 2.6222L19.1906 2.66401C21.055 2.86317 22.7862 3.87554 23.8597 5.56082Z" fill="#42434D"/>
<path d="M21.1866 13.4518C21.1866 16.8699 18.4152 19.6385 14.9999 19.6385C11.7821 19.6385 8.81323 17.1369 8.81323 13.2562V9.39609C8.81323 7.73943 10.1562 6.39648 11.8128 6.39648H18.187C19.8437 6.39648 21.1866 7.73943 21.1866 9.39609V13.4518Z" fill="#FFEBD2"/>
<path d="M13.5991 17.4461C14.6163 18.0825 13.8142 19.6431 12.7007 19.1962C10.4114 18.2773 8.81323 16.0463 8.81323 13.4512V9.39546C8.81323 8.76529 9.00758 8.1805 9.3396 7.69768C9.74667 7.1057 10.688 7.36723 10.688 8.14562V12.2013C10.688 14.4829 11.8873 16.3752 13.5991 17.4461Z" fill="#FFF3E4"/>
<path d="M17.4453 20.2192C15.9057 20.8636 14.2137 20.9136 12.5547 20.2192C12.6394 19.8676 12.6253 19.6399 12.6253 19.193L12.6347 19.1699C14.1396 19.7946 15.8574 19.7958 17.3653 19.1699L17.3747 19.193C17.3747 19.64 17.3606 19.8677 17.4453 20.2192Z" fill="#FFD6A6"/>
<path d="M12.5554 23.7126C12.3243 23.7853 12.0765 23.8254 11.8108 23.8277C9.23009 23.8504 7.12599 25.891 7.12599 28.4718V28.9415C7.12599 29.4247 6.73429 29.8164 6.25111 29.8164H5.87616C5.60007 29.8164 5.37622 29.5925 5.37622 29.3165V26.863C5.37622 24.2889 7.46313 22.2039 10.0372 22.203C10.9473 22.2027 11.7486 21.7341 12.2097 21.0244C12.3955 21.1831 12.5945 21.3258 12.8041 21.4507C13.7261 22.0001 13.5791 23.3907 12.5554 23.7126Z" fill="#FF6D7A"/>
<path d="M17.4445 23.7126C17.6756 23.7853 17.9235 23.8254 18.1892 23.8277C20.7698 23.8504 22.8739 25.891 22.8739 28.4718V28.9415C22.8739 29.4247 23.2656 29.8164 23.7488 29.8164H24.1238C24.3998 29.8164 24.6237 29.5925 24.6237 29.3165V26.863C24.6237 24.2889 22.5368 22.2039 19.9627 22.203C19.0526 22.2027 18.2513 21.7341 17.7902 21.0244C17.6044 21.1831 17.4054 21.3258 17.1958 21.4507C16.2739 22.0001 16.4208 23.3907 17.4445 23.7126Z" fill="#E84857"/>
<path d="M19.5688 2.05225C18.8341 2.35465 18.7293 2.42133 18.4747 2.38183C14.3706 1.74566 10.7699 3.44375 9.54703 7.43029V7.43092C9.08959 7.9571 8.81338 8.64451 8.81338 9.39566V11.7405C8.81338 12.7522 7.25108 12.8226 7.25108 11.7222V9.12507C7.23108 8.22082 7.27233 5.03186 9.57578 2.81152C12.2542 0.229988 16.4986 0.441211 19.5732 1.82228C19.6732 1.86727 19.6701 2.01038 19.5688 2.05225Z" fill="#4D4E59"/>
<path d="M25.1237 26.8633V29.8165C25.1237 30.0926 24.8999 30.3164 24.6238 30.3164C24.3477 30.3164 24.1239 30.0926 24.1239 29.8165V26.8633C24.1239 24.5639 22.2632 22.7031 19.9636 22.7031C18.8756 22.7031 17.8884 22.1488 17.3228 21.2203C17.1792 20.9846 17.2538 20.6769 17.4897 20.5333C17.7255 20.3896 18.033 20.4644 18.1767 20.7002C18.5593 21.3283 19.2273 21.7033 19.9636 21.7033C22.8155 21.7032 25.1237 24.0111 25.1237 26.8633ZM16.3995 21.8519C16.4583 22.1217 16.2873 22.388 16.0175 22.4468C14.7018 22.7335 13.3637 22.4465 12.2982 21.7193C11.2435 22.8496 9.85006 22.7031 10.0366 22.7031C7.73721 22.7031 5.87633 24.5637 5.87633 26.8633V29.8165C5.87633 30.0926 5.65249 30.3164 5.3764 30.3164C5.10031 30.3164 4.87646 30.0926 4.87646 29.8165V26.8633C4.87646 24.0114 7.18422 21.7033 10.0365 21.7033C11.1902 21.7033 12.1255 20.7737 12.1255 19.6197V19.488C9.94336 18.4446 8.41169 16.2519 8.31833 13.6986C7.42032 13.4827 6.75122 12.6789 6.75122 11.7226V9.13087C6.72391 7.86228 6.91226 4.68501 9.22889 2.45193C12.0895 -0.305581 16.6769 -0.130416 20.05 1.49343C20.3788 1.65185 20.4287 2.09604 20.1557 2.32607C21.8645 2.74289 23.3381 3.79338 24.2848 5.29681C24.3337 5.37424 24.4231 5.49578 24.3998 5.68969C24.3853 5.81037 24.3493 5.91248 24.2564 6.00684C23.6471 6.62476 23.3115 7.44359 23.3115 8.31254V11.7227C23.3115 11.9988 23.0877 12.2226 22.8116 12.2226C22.5355 12.2226 22.3117 11.9988 22.3117 11.7227V8.31254C22.3117 7.31036 22.6541 6.35911 23.2829 5.59496C22.3244 4.22414 20.829 3.3425 19.1377 3.1614L18.259 3.06729C17.7452 3.0123 17.6444 2.30445 18.1219 2.10791L18.5215 1.94337C13.3169 0.128925 7.75102 2.14497 7.75102 9.12543V11.7226C7.75102 12.1193 7.97949 12.4641 8.31345 12.6372V9.39621C8.31345 7.46659 9.88337 5.89667 11.813 5.89667H18.1872C20.1168 5.89667 21.6867 7.46646 21.6867 9.39602V13.4894C21.6867 17.8372 17.438 21.1397 13.1147 19.8669C13.0866 20.2236 12.9978 20.5678 12.8531 20.8878C13.6941 21.4653 14.7562 21.6983 15.8046 21.4698C16.0744 21.4111 16.3407 21.5821 16.3995 21.8519ZM15.0001 19.1382C18.1358 19.1382 20.6868 16.5871 20.6868 13.4514V9.39602C20.6868 8.01783 19.5655 6.89654 18.1872 6.89654H11.813C10.4347 6.89654 9.31332 8.01789 9.31332 9.39621V13.4514C9.31332 16.5871 11.8644 19.1382 15.0001 19.1382ZM20.0619 27.7542H18.5621C18.286 27.7542 18.0622 27.9781 18.0622 28.2542C18.0622 28.5303 18.286 28.7541 18.5621 28.7541H20.0619C20.338 28.7541 20.5618 28.5303 20.5618 28.2542C20.5618 27.9781 20.338 27.7542 20.0619 27.7542Z" fill="black"/>
</g>
<defs>
<clipPath id="clip0">
<rect width="30" height="30" fill="white" transform="translate(0 0.316406)"/>
</clipPath>
</defs>
</svg>
