<svg width="27" height="30" viewBox="0 0 27 30" fill="none" xmlns="http://www.w3.org/2000/svg">
<path d="M25.2759 26.9495H2.70124V1.52527C2.70124 0.682884 2.09655 0 1.35062 0C0.604691 0 0 0.682884 0 1.52527V28.4747C0 29.3171 0.604691 30 1.35062 30H25.2759C26.0218 30 26.6265 29.3171 26.6265 28.4747C26.6265 27.6323 26.0218 26.9495 25.2759 26.9495Z" fill="white"/>
<path d="M5.83071 6.34328C6.1963 6.34328 6.56066 6.50992 6.82708 6.83833L10.589 11.4771L17.3181 8.13952C17.897 7.85242 18.575 8.05724 18.9495 8.63266L23.0776 14.9745L23.4243 12.2447C23.5209 11.4842 24.0985 10.9356 24.7596 10.9357C24.8234 10.9357 24.8881 10.9409 24.953 10.9514C25.6914 11.071 26.204 11.8439 26.0982 12.6778L25.2781 19.1349C25.1722 19.9688 24.4875 20.5475 23.7494 20.4282L18.0316 19.5021C17.2933 19.3825 16.7805 18.6096 16.8865 17.7757C16.9924 16.9419 17.6769 16.3628 18.4151 16.4825L20.9767 16.8973L17.4139 11.4239L10.7896 14.7095C10.26 14.9721 9.64115 14.8248 9.25047 14.3432L4.83511 8.89884C4.33129 8.27766 4.3688 7.31282 4.91885 6.74385C5.17809 6.47567 5.50494 6.34328 5.83071 6.34328Z" fill="white"/>
</svg>
