<svg width="27" height="27" viewBox="0 0 27 27" fill="none" xmlns="http://www.w3.org/2000/svg">
<g clip-path="url(#clip0)">
<path d="M26.2793 1.00195L15.8279 16.0894L14.7385 17.6621V22.9429L18.71 19.0615L16.6817 15.2754" fill="#F5C86E"/>
<path d="M11.0481 16.533L3.375 14.1855L26.4727 0.527344V21.252L14.9238 17.7188" fill="#FAE196"/>
<path d="M14.7385 22.9429L11.251 16.5951L26.2793 1.00195L15.0626 17.1941L14.7385 22.9429Z" fill="#F5B955"/>
<path d="M26.734 0.069309C26.5695 -0.0245582 26.3672 -0.0229762 26.2043 0.0734222L16.5405 5.78793C16.2898 5.93617 16.2067 6.25953 16.355 6.51023C16.5031 6.76088 16.8265 6.84394 17.0773 6.69575L24.0109 2.59571L11.0959 15.9962L4.67245 14.031L13.0554 9.07397C13.3061 8.92568 13.3891 8.60231 13.2409 8.35161C13.0927 8.10097 12.7693 8.0178 12.5186 8.16609L3.10661 13.7316C2.92679 13.838 2.82664 14.0404 2.85138 14.248C2.87611 14.4555 3.02097 14.6287 3.22073 14.6899L10.8919 17.0368L14.2763 23.1968C14.2798 23.2032 14.2835 23.2086 14.2872 23.2134C14.3437 23.3076 14.4283 23.3845 14.5339 23.4289C14.6 23.4567 14.6694 23.4702 14.7384 23.4702C14.8736 23.4702 15.0066 23.4182 15.1071 23.32L18.9985 19.5168L26.3184 21.7562C26.369 21.7717 26.421 21.7793 26.4726 21.7793C26.5842 21.7793 26.6944 21.7439 26.7863 21.6759C26.9207 21.5764 27 21.4191 27 21.252V0.52736C27 0.337991 26.8985 0.163123 26.734 0.069309ZM22.1265 6.0708L14.305 17.3618C14.244 17.45 14.2112 17.5547 14.2112 17.662V20.8878L11.9002 16.6815L22.1265 6.0708ZM15.2659 21.6901V18.3749L17.8494 19.1653L15.2659 21.6901ZM15.5831 17.369L25.9453 2.41019V20.5392L15.5831 17.369Z" fill="black"/>
<path d="M8.67078 18.3283C8.4648 18.1223 8.13099 18.1223 7.92496 18.3283L3.0021 23.2511C2.79617 23.4571 2.79617 23.791 3.0021 23.997C3.10514 24.0999 3.24009 24.1514 3.37504 24.1514C3.50999 24.1514 3.64493 24.0999 3.74792 23.9969L8.67078 19.074C8.87671 18.8682 8.87671 18.5343 8.67078 18.3283Z" fill="black"/>
<path d="M1.36734 24.8868L0.154446 26.0997C-0.0514819 26.3056 -0.0514819 26.6396 0.154446 26.8455C0.257436 26.9485 0.392383 26.9999 0.527331 26.9999C0.662278 26.9999 0.797225 26.9484 0.900215 26.8455L2.11311 25.6326C2.31903 25.4267 2.31903 25.0928 2.11311 24.8868C1.90713 24.681 1.57332 24.681 1.36734 24.8868Z" fill="black"/>
<path d="M7.14978 25.915C7.01051 25.915 6.87503 25.9715 6.77695 26.0696C6.67886 26.1676 6.62244 26.3032 6.62244 26.4424C6.62244 26.5811 6.67881 26.7171 6.77695 26.8152C6.87503 26.9133 7.01109 26.9697 7.14978 26.9697C7.28847 26.9697 7.42453 26.9133 7.52256 26.8152C7.62065 26.7171 7.67712 26.5811 7.67712 26.4424C7.67712 26.3032 7.6207 26.1676 7.52256 26.0696C7.42453 25.9715 7.28847 25.915 7.14978 25.915Z" fill="black"/>
<path d="M10.7002 22.1447L8.09268 24.7521C7.88675 24.9581 7.88675 25.292 8.09268 25.4979C8.19567 25.6009 8.33062 25.6524 8.46556 25.6524C8.60051 25.6524 8.73546 25.6008 8.83845 25.4979L11.446 22.8905C11.6519 22.6845 11.6519 22.3506 11.446 22.1447C11.2401 21.9388 10.9063 21.9388 10.7002 22.1447Z" fill="black"/>
<path d="M19.6996 21.9454L17.085 24.56C16.8791 24.7659 16.8791 25.0998 17.085 25.3058C17.188 25.4087 17.3229 25.4603 17.4579 25.4603C17.5928 25.4603 17.7278 25.4087 17.8308 25.3058L20.4453 22.6912C20.6513 22.4853 20.6513 22.1514 20.4453 21.9454C20.2393 21.7395 19.9055 21.7395 19.6996 21.9454Z" fill="black"/>
<path d="M14.5774 8.08789C14.7161 8.08789 14.8521 8.03199 14.9502 7.93338C15.0483 7.83529 15.1047 7.69977 15.1047 7.56107C15.1047 7.42186 15.0483 7.2858 14.9502 7.18771C14.8521 7.08963 14.7161 7.0332 14.5774 7.0332C14.4387 7.0332 14.3026 7.08963 14.2046 7.18771C14.1065 7.2858 14.05 7.42186 14.05 7.56107C14.05 7.69977 14.1065 7.83529 14.2046 7.93338C14.3026 8.03199 14.4387 8.08789 14.5774 8.08789Z" fill="black"/>
</g>
<defs>
<clipPath id="clip0">
<rect width="27" height="27" fill="white"/>
</clipPath>
</defs>
</svg>
