<svg width="23" height="23" viewBox="0 0 23 23" fill="none" xmlns="http://www.w3.org/2000/svg">
<g clip-path="url(#clip0)">
<path d="M20.5309 14.5258L19.7211 14.0583C19.4528 13.9035 19.3161 13.5926 19.384 13.2902C19.5725 12.4509 19.74 11.0647 19.3889 9.54469C19.3184 9.23936 19.4523 8.92333 19.7237 8.76663L20.5309 8.30074C21.399 7.7994 21.6992 6.67898 21.1981 5.81073C20.6967 4.94247 19.5763 4.6424 18.7081 5.14356L17.9003 5.60998C17.6291 5.76651 17.2878 5.72632 17.06 5.51136C16.1526 4.65521 15.048 4.00595 13.8214 3.6392C13.5219 3.54971 13.3169 3.27369 13.3169 2.96116V2.11484C13.3169 1.11234 12.4967 0.291992 11.4942 0.291992C10.4917 0.291992 9.67137 1.11234 9.67137 2.11484V2.96116C9.67137 3.27369 9.46659 3.54971 9.16705 3.6392C7.9403 4.00595 6.83585 4.65521 5.92846 5.51136C5.70069 5.72632 5.35922 5.76651 5.0881 5.60998L4.35286 5.1855C3.4846 4.68417 2.36418 4.98441 1.86285 5.85266C1.36169 6.72092 1.66193 7.84134 2.53018 8.34268L3.26157 8.76487C3.53022 8.91999 3.6685 9.23234 3.59831 9.53434C3.26666 10.9624 3.42669 12.4309 3.61077 13.2974C3.67447 13.5968 3.53654 13.9028 3.27157 14.0558L2.53001 14.484C1.66193 14.9852 1.36169 16.1056 1.86285 16.9738C2.36418 17.8421 3.4846 18.1423 4.35286 17.641L5.0881 17.2165C5.35922 17.06 5.70069 17.1002 5.92846 17.3151C6.83585 18.1713 7.9403 18.8205 9.16705 19.1873C9.46659 19.2768 9.67137 19.5528 9.67137 19.8653V20.7955C9.67137 21.798 10.4915 22.6182 11.4942 22.6182C12.4967 22.6182 13.3169 21.798 13.3169 20.7955V19.8653C13.3169 19.5528 13.5217 19.2768 13.8212 19.1873C15.048 18.8205 16.1526 18.1713 17.0598 17.3151C17.2876 17.1002 17.6291 17.06 17.9002 17.2165L18.7081 17.6829C19.5763 18.1843 20.6967 17.884 21.1979 17.0158C21.6992 16.1475 21.399 15.0271 20.5309 14.5258ZM11.5304 14.7755C9.69664 14.7755 8.21 13.2888 8.21 11.4551C8.21 9.62137 9.69664 8.13474 11.5304 8.13474C13.3643 8.13474 14.8507 9.62137 14.8507 11.4551C14.8507 13.2888 13.3643 14.7755 11.5304 14.7755Z" fill="#CCF8FF"/>
<path d="M11.5306 5.78809C8.4006 5.78809 5.86304 8.32548 5.86304 11.4556C5.86304 14.5858 8.4006 17.1232 11.5306 17.1232C14.6607 17.1232 17.1981 14.5858 17.1981 11.4556C17.1981 8.32548 14.6607 5.78809 11.5306 5.78809ZM11.5306 14.776C9.69685 14.776 8.21021 13.2894 8.21021 11.4556C8.21021 9.6219 9.69685 8.13526 11.5306 8.13526C13.3645 8.13526 14.8509 9.6219 14.8509 11.4556C14.8511 13.2894 13.3645 14.776 11.5306 14.776Z" fill="#8ED7E8"/>
<path d="M12.1224 14.7226C11.9306 14.7572 11.7323 14.7753 11.5304 14.7753C9.69664 14.7753 8.21001 13.2888 8.21001 11.4549C8.21001 10.9046 8.34425 10.385 8.58131 9.92793C7.60356 8.06016 7.01712 6.261 6.67073 4.88965C6.41102 5.08215 6.16307 5.28973 5.92846 5.51119C5.70069 5.72614 5.35922 5.76633 5.0881 5.6098L4.35286 5.18533C3.4846 4.68399 2.36418 4.98423 1.86285 5.85249C1.36169 6.72074 1.66193 7.84116 2.53018 8.3425L3.26157 8.76469C3.53022 8.91981 3.6685 9.23216 3.59831 9.53416C3.26666 10.9622 3.42669 12.4307 3.61077 13.2972C3.67447 13.5966 3.53654 13.9026 3.27157 14.0557L2.53001 14.4838C1.66193 14.985 1.36169 16.1054 1.86285 16.9737C2.36418 17.8419 3.4846 18.1422 4.35286 17.6408L5.0881 17.2163C5.35922 17.0598 5.70069 17.1 5.92846 17.315C6.83585 18.1711 7.9403 18.8204 9.16705 19.1871C9.46659 19.2766 9.67137 19.5526 9.67137 19.8652V20.7954C9.67137 21.7979 10.4916 22.618 11.4942 22.618C12.4967 22.618 13.3169 21.7979 13.3169 20.7954V19.8652C13.3169 19.5526 13.5217 19.2766 13.8212 19.1871C14.8183 18.889 15.7348 18.4043 16.53 17.7735C14.7851 16.9475 13.3327 15.8927 12.1224 14.7226Z" fill="#ABEBF4"/>
<path d="M14.2219 16.4442C13.4508 15.9123 12.7542 15.3336 12.1225 14.723C11.9307 14.7575 11.7324 14.7756 11.5304 14.7756C9.69667 14.7756 8.21003 13.289 8.21003 11.4552C8.21003 10.9049 8.35006 10.3738 8.58134 9.92824C8.14177 9.08876 7.7817 8.26384 7.48654 7.48438C6.48229 8.50705 5.86304 9.90876 5.86304 11.4552C5.86304 14.5854 8.40043 17.1228 11.5306 17.1228C12.5046 17.1228 13.4212 16.8771 14.2219 16.4442Z" fill="#7AC1DD"/>
<path d="M20.6996 14.2339L19.8897 13.7665C19.7483 13.6849 19.6772 13.5231 19.7129 13.3641C19.8794 12.6229 20.1014 11.131 19.7174 9.46888C19.6797 9.30552 19.7501 9.14057 19.8926 9.05844L20.6996 8.59238C21.1974 8.30495 22.3891 7.19752 21.4901 5.64227C20.6461 4.18213 19.0378 4.56432 18.5398 4.85175L17.7321 5.31816C17.5889 5.40081 17.4118 5.37993 17.2915 5.26622C17.0221 5.01213 16.7335 4.77366 16.4336 4.55712C16.2827 4.44815 16.0721 4.48219 15.9631 4.6331C15.8541 4.78384 15.8882 4.99441 16.0391 5.10338C16.3153 5.30272 16.581 5.52242 16.8289 5.75633C17.1676 6.07587 17.6658 6.13431 18.069 5.90162L18.8767 5.43521C19.2187 5.2378 20.2747 4.90509 20.9065 5.97918C21.5382 7.05328 20.7045 7.81133 20.3627 8.00874L19.5556 8.47481C19.1549 8.70609 18.956 9.16654 19.061 9.62049C19.4147 11.1526 19.2094 12.5309 19.0555 13.2164C18.9548 13.6645 19.1547 14.1201 19.5528 14.3499L20.3627 14.8174C20.7045 15.0148 21.4276 15.7922 20.9065 16.8471C20.3853 17.9023 19.2187 17.5885 18.8767 17.3909L18.0688 16.9247C17.6658 16.6918 17.1676 16.7505 16.8289 17.0698C15.9494 17.8996 14.8762 18.5201 13.7249 18.8642C13.2864 18.9953 12.9802 19.407 12.9802 19.8652V20.7954C12.9802 21.6147 12.3137 22.2811 11.4944 22.2811C10.6751 22.2811 10.0085 21.6147 10.0085 20.7954V19.8652C10.0085 19.407 9.70229 18.9953 9.26377 18.8642C8.11247 18.5201 7.03926 17.8996 6.15977 17.0698C5.8211 16.7503 5.32275 16.6918 4.91985 16.9247L4.18461 17.349C3.8426 17.5466 2.73851 17.8065 2.15487 16.8052C1.57106 15.8041 2.35685 14.9729 2.69867 14.7755L3.44024 14.3475C3.83366 14.1202 4.03475 13.6701 3.94052 13.2272C3.81786 12.6499 3.57097 11.1419 3.92666 9.61049C4.03089 9.16162 3.83137 8.70451 3.43023 8.47288L2.69867 8.05068C2.35685 7.8531 1.6202 7.07732 2.15487 6.02095C2.52478 5.28991 3.47516 5.06741 4.18461 5.47697L4.91985 5.90145C5.32275 6.13413 5.8211 6.07587 6.15977 5.75615C7.03926 4.9265 8.11265 4.30602 9.26377 3.96173C9.70229 3.83065 10.0085 3.41916 10.0085 2.96081V2.11467C10.0085 1.29554 10.6751 0.628908 11.4944 0.628908C12.3137 0.628908 12.9802 1.29554 12.9802 2.11467V2.96099C12.9802 3.41916 13.2864 3.83083 13.7249 3.96191C14.1606 4.09211 14.5876 4.26232 14.9941 4.46763C15.1603 4.55168 15.363 4.48483 15.4467 4.31883C15.5306 4.15282 15.4641 3.95015 15.2979 3.86627C14.8559 3.64289 14.3917 3.45794 13.9179 3.31633C13.7626 3.26983 13.654 3.12383 13.654 2.96099V2.11467C13.654 0.923883 12.6852 -0.0449219 11.4944 -0.0449219C10.3035 -0.0449219 9.33467 0.923883 9.33467 2.11467V2.96099C9.33467 3.12383 9.22605 3.26983 9.07075 3.31633C7.81943 3.69044 6.65286 4.36462 5.69739 5.26622C5.57684 5.37993 5.39978 5.40064 5.25659 5.31816L4.52135 4.89369C3.49007 4.2983 2.16663 4.65276 1.57124 5.68403C0.975846 6.71548 1.33048 8.03893 2.36176 8.63432L3.09314 9.05651C3.23353 9.13758 3.30635 9.30271 3.2702 9.45818C2.88398 11.1213 3.1493 12.7461 3.28143 13.3674C3.3146 13.5238 3.243 13.6833 3.10332 13.764L2.36176 14.192C1.86393 14.4794 0.702103 15.6171 1.57124 17.1423C2.44055 18.6674 4.02352 18.2202 4.52135 17.9326L5.25659 17.5082C5.39978 17.4255 5.57684 17.4464 5.69739 17.5601C6.65286 18.4617 7.81925 19.1359 9.07075 19.51C9.22605 19.5565 9.33467 19.7025 9.33467 19.8653V20.7954C9.33467 21.9863 10.3035 22.9551 11.4944 22.9551C12.6852 22.9551 13.654 21.9863 13.654 20.7954V19.8653C13.654 19.7025 13.7626 19.5565 13.9179 19.51C15.1694 19.1359 16.3358 18.4617 17.2913 17.5601C17.4118 17.4464 17.5889 17.4257 17.7319 17.5082L18.5398 17.9746C19.0376 18.262 20.6827 18.8091 21.4899 17.1841C22.2603 15.6332 21.1974 14.5214 20.6996 14.2339Z" fill="black"/>
<path d="M7.19455 14.5572C7.08611 14.4059 6.87554 14.3712 6.72445 14.4796C6.57319 14.5879 6.53845 14.7984 6.64672 14.9497C7.77327 16.5216 9.59893 17.4601 11.5304 17.4601C14.8413 17.4601 17.5349 14.7665 17.5349 11.4556C17.5349 8.14473 14.8413 5.45117 11.5304 5.45117C8.21969 5.45117 5.52612 8.14473 5.52612 11.4556C5.52612 12.2128 5.66528 12.951 5.93972 13.6498C6.00781 13.823 6.20329 13.9083 6.37648 13.8403C6.54968 13.7723 6.63496 13.5768 6.56687 13.4034C6.32331 12.7835 6.19995 12.128 6.19995 11.4556C6.19995 8.51622 8.59117 6.125 11.5306 6.125C14.4698 6.125 16.861 8.51622 16.861 11.4556C16.861 14.3949 14.4698 16.7862 11.5306 16.7862C9.81564 16.7862 8.19477 15.9529 7.19455 14.5572Z" fill="black"/>
<path d="M15.1879 11.4551C15.1879 9.43856 13.5473 7.79785 11.5306 7.79785C9.514 7.79785 7.87329 9.43838 7.87329 11.4551C7.87329 13.4719 9.514 15.1124 11.5306 15.1124C13.5473 15.1124 15.1879 13.4717 15.1879 11.4551ZM8.54712 11.4551C8.54712 9.81004 9.88565 8.47168 11.5307 8.47168C13.1758 8.47168 14.5142 9.81004 14.5142 11.4551C14.5142 13.1002 13.1758 14.4386 11.5307 14.4386C9.88548 14.4386 8.54712 13.1002 8.54712 11.4551Z" fill="black"/>
</g>
<defs>
<clipPath id="clip0">
<rect width="23" height="23" fill="white"/>
</clipPath>
</defs>
</svg>
