<svg width="30" height="30" viewBox="0 0 30 30" fill="none" xmlns="http://www.w3.org/2000/svg">
<path d="M27.6562 16.875V27.1875C27.6562 28.2234 26.8172 29.0625 25.7812 29.0625H24.8438V15H25.7812C26.8172 15 27.6562 15.8391 27.6562 16.875Z" fill="#838F9B"/>
<path d="M4.21875 15H24.8438V29.0625H4.21875C3.18328 29.0625 2.34375 28.223 2.34375 27.1875V16.875C2.34375 15.8395 3.18328 15 4.21875 15Z" fill="#AAB2BD"/>
<path d="M4.21875 20.625V23.4375C4.21875 23.9531 3.79688 24.375 3.28125 24.375H2.34375V19.6875H3.28125C3.79688 19.6875 4.21875 20.1094 4.21875 20.625Z" fill="#FCD770"/>
<path d="M24.8438 13.125C27.1737 13.125 29.0625 11.2362 29.0625 8.90625C29.0625 6.5763 27.1737 4.6875 24.8438 4.6875C22.5138 4.6875 20.625 6.5763 20.625 8.90625C20.625 11.2362 22.5138 13.125 24.8438 13.125Z" fill="#E6E9ED"/>
<path d="M14.5312 9.375C16.8612 9.375 18.75 7.4862 18.75 5.15625C18.75 2.8263 16.8612 0.9375 14.5312 0.9375C12.2013 0.9375 10.3125 2.8263 10.3125 5.15625C10.3125 7.4862 12.2013 9.375 14.5312 9.375Z" fill="#E6E9ED"/>
<path d="M5.15625 13.125C7.4862 13.125 9.375 11.2362 9.375 8.90625C9.375 6.5763 7.4862 4.6875 5.15625 4.6875C2.8263 4.6875 0.9375 6.5763 0.9375 8.90625C0.9375 11.2362 2.8263 13.125 5.15625 13.125Z" fill="#E6E9ED"/>
<path d="M6.8436 10.7766C7.33578 11.0719 7.7436 11.4938 8.02485 12C7.27485 12.6984 6.26235 13.125 5.1561 13.125C4.04985 13.125 3.03735 12.6984 2.28735 12C2.84985 10.9922 3.92329 10.3125 5.1561 10.3125C5.77485 10.3125 6.34672 10.4812 6.8436 10.7766Z" fill="#4FC1E9"/>
<path d="M16.2186 7.02656C16.7108 7.32187 17.1186 7.74375 17.3999 8.25C16.6499 8.94844 15.6374 9.375 14.5311 9.375C13.4249 9.375 12.4124 8.94844 11.6624 8.25C12.2249 7.24219 13.2983 6.5625 14.5311 6.5625C15.1499 6.5625 15.7217 6.73125 16.2186 7.02656Z" fill="#FF826E"/>
<path d="M26.5311 10.7766C27.0233 11.0719 27.4311 11.4938 27.7124 12C26.9624 12.6984 25.9499 13.125 24.8436 13.125C23.7374 13.125 22.7249 12.6984 21.9749 12C22.5374 10.9922 23.6108 10.3125 24.8436 10.3125C25.4624 10.3125 26.0342 10.4812 26.5311 10.7766Z" fill="#B4DD7F"/>
<path d="M5.15625 10.3125C6.19178 10.3125 7.03125 9.47303 7.03125 8.4375C7.03125 7.40197 6.19178 6.5625 5.15625 6.5625C4.12072 6.5625 3.28125 7.40197 3.28125 8.4375C3.28125 9.47303 4.12072 10.3125 5.15625 10.3125Z" fill="#F0D0B4"/>
<path d="M14.5312 6.5625C15.5668 6.5625 16.4062 5.72303 16.4062 4.6875C16.4062 3.65197 15.5668 2.8125 14.5312 2.8125C13.4957 2.8125 12.6562 3.65197 12.6562 4.6875C12.6562 5.72303 13.4957 6.5625 14.5312 6.5625Z" fill="#F0D0B4"/>
<path d="M24.8438 10.3125C25.8793 10.3125 26.7188 9.47303 26.7188 8.4375C26.7188 7.40197 25.8793 6.5625 24.8438 6.5625C23.8082 6.5625 22.9688 7.40197 22.9688 8.4375C22.9688 9.47303 23.8082 10.3125 24.8438 10.3125Z" fill="#F0D0B4"/>
<path d="M22.5 27.1875H6.5625C6.30375 27.1875 6.09375 26.9775 6.09375 26.7188V17.3438C6.09375 17.085 6.30375 16.875 6.5625 16.875H22.5C22.7588 16.875 22.9688 17.085 22.9688 17.3438V26.7188C22.9688 26.9775 22.7588 27.1875 22.5 27.1875Z" fill="#69D6F4"/>
<path d="M20.8219 16.875C21 17.4703 21.0938 18.0984 21.0938 18.75C21.0938 22.3734 18.1547 25.3125 14.5312 25.3125C10.9078 25.3125 7.96875 22.3734 7.96875 18.75C7.96875 18.0984 8.0625 17.4703 8.24062 16.875H8.24531C8.44219 16.2 8.75156 15.5672 9.15 15C9.64688 14.2828 10.2844 13.6734 11.025 13.2047C12.0422 12.5625 13.2422 12.1875 14.5312 12.1875C16.7578 12.1875 18.7312 13.2984 19.9125 15C20.3109 15.5672 20.6203 16.2 20.8172 16.875H20.8219Z" fill="#FFC729"/>
<path d="M14.5312 23.4375C17.1201 23.4375 19.2188 21.3388 19.2188 18.75C19.2188 16.1612 17.1201 14.0625 14.5312 14.0625C11.9424 14.0625 9.84375 16.1612 9.84375 18.75C9.84375 21.3388 11.9424 23.4375 14.5312 23.4375Z" fill="#FCD770"/>
<path d="M24.8438 13.5933C27.4284 13.5933 29.5312 11.4905 29.5312 8.90578C29.5312 6.32109 27.4284 4.21828 24.8438 4.21828C22.2591 4.21828 20.1562 6.32109 20.1562 8.90578C20.1562 9.51234 20.2758 10.0908 20.4867 10.6233L18.1716 12.7458C17.2341 12.1753 16.1564 11.8191 15 11.7422V9.81984C17.3653 9.58359 19.2188 7.5825 19.2188 5.15625C19.2188 2.57156 17.1159 0.46875 14.5312 0.46875C11.9466 0.46875 9.84375 2.57109 9.84375 5.15578C9.84375 7.58203 11.6972 9.58359 14.0625 9.81938V11.7417C12.9989 11.8125 11.9991 12.1153 11.1159 12.6084L9.45094 10.7775C9.70219 10.2033 9.84375 9.57094 9.84375 8.90578C9.84375 6.32109 7.74094 4.21828 5.15625 4.21828C2.57156 4.21828 0.46875 6.32109 0.46875 8.90578C0.46875 11.4905 2.57156 13.5933 5.15625 13.5933C6.72375 13.5933 8.10984 12.8175 8.96156 11.6325L10.3228 13.1302C9.79125 13.5291 9.31922 14.0002 8.91937 14.5308H4.21875C2.92641 14.5308 1.875 15.5822 1.875 16.8745V27.187C1.875 28.4794 2.92641 29.5308 4.21875 29.5308H25.7812C27.0736 29.5308 28.125 28.4794 28.125 27.187V16.8745C28.125 15.5822 27.0736 14.5308 25.7812 14.5308H20.1431C19.7981 14.0733 19.4039 13.6561 18.96 13.2947L20.9339 11.4848C21.7734 12.7538 23.2116 13.5933 24.8438 13.5933ZM2.91 11.9016C3.43734 11.2027 4.2675 10.7808 5.15625 10.7808C6.045 10.7808 6.87516 11.2027 7.4025 11.9016C6.77531 12.3727 5.99906 12.6558 5.15625 12.6558C4.31344 12.6558 3.53719 12.3727 2.91 11.9016ZM3.75 8.43703C3.75 7.66172 4.38094 7.03078 5.15625 7.03078C5.93156 7.03078 6.5625 7.66172 6.5625 8.43703C6.5625 9.21234 5.93156 9.84328 5.15625 9.84328C4.38094 9.84328 3.75 9.21234 3.75 8.43703ZM8.0775 11.2514C7.70625 10.7892 7.23562 10.425 6.70359 10.1836C7.18828 9.75375 7.5 9.13406 7.5 8.43703C7.5 7.14469 6.44859 6.09328 5.15625 6.09328C3.86391 6.09328 2.8125 7.14469 2.8125 8.43703C2.8125 9.13406 3.12422 9.75375 3.60891 10.1836C3.07687 10.4255 2.60625 10.7892 2.235 11.2514C1.7175 10.6088 1.40625 9.79313 1.40625 8.90578C1.40625 6.83813 3.08859 5.15578 5.15625 5.15578C7.22391 5.15578 8.90625 6.83813 8.90625 8.90578C8.90625 9.79313 8.595 10.6088 8.0775 11.2514ZM13.125 4.68703C13.125 3.91172 13.7559 3.28078 14.5312 3.28078C15.3066 3.28078 15.9375 3.91172 15.9375 4.68703C15.9375 5.46234 15.3066 6.09328 14.5312 6.09328C13.7559 6.09328 13.125 5.46234 13.125 4.68703ZM14.5312 8.90578C13.6884 8.90578 12.9122 8.62266 12.285 8.15156C12.8123 7.45266 13.6425 7.03078 14.5312 7.03078C15.42 7.03078 16.2502 7.45266 16.7775 8.15156C16.1503 8.62266 15.3741 8.90578 14.5312 8.90578ZM10.7812 5.15578C10.7812 3.08812 12.4636 1.40578 14.5312 1.40578C16.5989 1.40578 18.2812 3.08812 18.2812 5.15578C18.2812 6.04312 17.97 6.85875 17.4525 7.50141C17.0812 7.03922 16.6106 6.675 16.0786 6.43359C16.5633 6.00375 16.875 5.38406 16.875 4.68703C16.875 3.39469 15.8236 2.34328 14.5312 2.34328C13.2389 2.34328 12.1875 3.39469 12.1875 4.68703C12.1875 5.38406 12.4992 6.00375 12.9839 6.43359C12.4519 6.67547 11.9812 7.03922 11.61 7.50141C11.0925 6.85875 10.7812 6.04312 10.7812 5.15578ZM2.8125 20.1558H3.28125C3.53953 20.1558 3.75 20.3658 3.75 20.6245V23.437C3.75 23.6958 3.53953 23.9058 3.28125 23.9058H2.8125V20.1558ZM27.1875 16.8745V27.187C27.1875 27.9623 26.5566 28.5933 25.7812 28.5933H25.3125V15.4683H25.7812C26.5566 15.4683 27.1875 16.0992 27.1875 16.8745ZM24.375 15.4683V28.5933H4.21875C3.44344 28.5933 2.8125 27.9623 2.8125 27.187V24.8433H3.28125C4.05656 24.8433 4.6875 24.2123 4.6875 23.437V20.6245C4.6875 19.8492 4.05656 19.2183 3.28125 19.2183H2.8125V16.8745C2.8125 16.0992 3.44344 15.4683 4.21875 15.4683H8.3175C8.15859 15.7678 8.02547 16.0823 7.91062 16.4058H6.5625C6.04547 16.4058 5.625 16.8263 5.625 17.3433V26.7183C5.625 27.2353 6.04547 27.6558 6.5625 27.6558H22.5C23.017 27.6558 23.4375 27.2353 23.4375 26.7183V17.3433C23.4375 16.8263 23.017 16.4058 22.5 16.4058H21.1523C21.0375 16.0823 20.9044 15.7678 20.7455 15.4683H24.375ZM21.4209 17.3433H22.5V26.7183H6.5625V17.3433H7.64156C7.54922 17.798 7.5 18.2681 7.5 18.7495C7.5 22.6266 10.6542 25.7808 14.5312 25.7808C18.4083 25.7808 21.5625 22.6266 21.5625 18.7495C21.5625 18.2681 21.5133 17.798 21.4209 17.3433ZM20.625 18.7495C20.625 22.1095 17.8913 24.8433 14.5312 24.8433C11.1713 24.8433 8.4375 22.1095 8.4375 18.7495C8.4375 15.3895 11.1713 12.6558 14.5312 12.6558C17.8913 12.6558 20.625 15.3895 20.625 18.7495ZM22.5975 11.9016C23.1248 11.2027 23.955 10.7808 24.8438 10.7808C25.7325 10.7808 26.5627 11.2027 27.09 11.9016C26.4628 12.3727 25.6866 12.6558 24.8438 12.6558C24.0009 12.6558 23.2247 12.3727 22.5975 11.9016ZM23.4375 8.43703C23.4375 7.66172 24.0684 7.03078 24.8438 7.03078C25.6191 7.03078 26.25 7.66172 26.25 8.43703C26.25 9.21234 25.6191 9.84328 24.8438 9.84328C24.0684 9.84328 23.4375 9.21234 23.4375 8.43703ZM24.8438 5.15578C26.9114 5.15578 28.5938 6.83813 28.5938 8.90578C28.5938 9.79313 28.2825 10.6088 27.765 11.2514C27.3937 10.7892 26.9231 10.425 26.3911 10.1836C26.8758 9.75375 27.1875 9.13406 27.1875 8.43703C27.1875 7.14469 26.1361 6.09328 24.8438 6.09328C23.5514 6.09328 22.5 7.14469 22.5 8.43703C22.5 9.13406 22.8117 9.75375 23.2964 10.1836C22.7644 10.4255 22.2938 10.7892 21.9225 11.2514C21.405 10.6088 21.0938 9.79313 21.0938 8.90578C21.0938 6.83813 22.7761 5.15578 24.8438 5.15578Z" fill="black"/>
<path d="M14.5312 13.5938C11.6883 13.5938 9.375 15.907 9.375 18.75C9.375 21.593 11.6883 23.9062 14.5312 23.9062C17.3742 23.9062 19.6875 21.593 19.6875 18.75C19.6875 15.907 17.3742 13.5938 14.5312 13.5938ZM14.5312 22.9688C12.2053 22.9688 10.3125 21.0764 10.3125 18.75C10.3125 16.4236 12.2053 14.5312 14.5312 14.5312C16.8572 14.5312 18.75 16.4236 18.75 18.75C18.75 21.0764 16.8572 22.9688 14.5312 22.9688Z" fill="black"/>
<path d="M14.5312 17.3438C14.7895 17.3438 15 17.5538 15 17.8125H15.9375C15.9375 17.2022 15.5442 16.6866 15 16.4925V15.4688H14.0625V16.4062H13.125V17.8125C13.125 18.5878 13.7559 19.2188 14.5312 19.2188C14.7895 19.2188 15 19.4288 15 19.6875V20.1562H14.5312C14.273 20.1562 14.0625 19.9462 14.0625 19.6875H13.125C13.125 20.2978 13.5183 20.8134 14.0625 21.0075V22.0312H15V21.0938H15.9375V19.6875C15.9375 18.9122 15.3066 18.2812 14.5312 18.2812C14.273 18.2812 14.0625 18.0712 14.0625 17.8125V17.3438H14.5312Z" fill="black"/>
<path d="M20.625 24.8438H21.5625V25.7812H20.625V24.8438Z" fill="black"/>
<path d="M20.625 22.9688H21.5625V23.9062H20.625V22.9688Z" fill="black"/>
<path d="M7.5 24.8438H8.4375V25.7812H7.5V24.8438Z" fill="black"/>
<path d="M7.5 22.9688H8.4375V23.9062H7.5V22.9688Z" fill="black"/>
<path d="M11.25 18.2812H12.1875V19.2188H11.25V18.2812Z" fill="black"/>
<path d="M16.875 18.2812H17.8125V19.2188H16.875V18.2812Z" fill="black"/>
</svg>
