<svg width="106" height="106" viewBox="0 0 106 106" fill="none" xmlns="http://www.w3.org/2000/svg">
<path d="M61.9363 9.17832L68.7991 23.0842C71.0748 27.6939 75.4726 30.8899 80.5594 31.6283L95.9064 33.8587C104.08 35.0467 107.343 45.091 101.429 50.8563L90.3247 61.681C86.6434 65.2692 84.9637 70.4393 85.8322 75.506L88.4541 90.7907C89.8499 98.9312 81.3059 105.14 73.9951 101.296L60.2679 94.0797C55.7181 91.6875 50.2819 91.6875 45.7321 94.0797L32.0057 101.296C24.6941 105.14 16.1501 98.9312 17.5459 90.7907L20.1678 75.506C21.0363 70.4393 19.3566 65.27 15.6761 61.6818L4.57086 50.8571C-1.34408 45.0918 1.91989 35.0467 10.0944 33.8587L25.4406 31.6291C30.5282 30.8899 34.9252 27.6947 37.2009 23.085L44.0637 9.17832C47.7191 1.77129 58.2809 1.77129 61.9363 9.17832Z" fill="#FFEB99"/>
<path d="M43.1288 45.7339C51.2799 38.1457 59.3961 20.1219 63.0224 11.3788L61.9363 9.17832C58.2809 1.77129 47.7191 1.77129 44.0637 9.17832L37.2001 23.0842C34.9252 27.6939 30.5274 30.8899 25.4406 31.6283L10.0936 33.8587C1.9199 35.0467 -1.34408 45.091 4.57087 50.8563L15.6753 61.681C19.3566 65.2692 21.0363 70.4393 20.167 75.506L17.5459 90.7907C16.1493 98.9312 24.6941 105.14 32.0049 101.296L41.8422 96.1242C48.4437 72.6803 28.5 59.3535 43.1288 45.7339Z" fill="#FFDE55"/>
<path d="M69.6991 59.2462C68.8411 59.2462 68.1464 58.5507 68.1464 57.6926V55.1152C68.1464 54.2572 68.8411 53.5625 69.6991 53.5625C70.5572 53.5625 71.2519 54.2572 71.2519 55.1152V57.6926C71.2519 58.5507 70.5564 59.2462 69.6991 59.2462Z" fill="black"/>
<path d="M36.3008 59.2462C35.4427 59.2462 34.748 58.5507 34.748 57.6926V55.1152C34.748 54.2572 35.4427 53.5625 36.3008 53.5625C37.1588 53.5625 37.8535 54.2572 37.8535 55.1152V57.6926C37.8535 58.5507 37.1588 59.2462 36.3008 59.2462Z" fill="black"/>
<path d="M53 60.8718C50.9903 60.8718 48.9806 60.2216 47.3034 58.9203C46.6257 58.3955 46.5027 57.4194 47.0284 56.7417C47.5533 56.0639 48.5294 55.941 49.2071 56.4667C51.4399 58.199 54.56 58.199 56.7928 56.4667C57.4705 55.941 58.4458 56.0639 58.9715 56.7417C59.4972 57.4194 59.3743 58.3947 58.6965 58.9203C57.0193 60.2216 55.0096 60.8718 53 60.8718Z" fill="black"/>
<path d="M19.0485 82.0305C18.2001 81.9075 17.6356 81.0827 17.7804 80.2375L18.6376 75.2437C19.4205 70.6793 17.9082 66.0252 14.5916 62.7935L3.48716 51.9689C0.324276 48.8853 -0.79256 44.3613 0.572552 40.1608C1.93686 35.9612 5.50006 32.9576 9.87036 32.3219L25.2174 30.0923C29.7995 29.4267 33.7582 26.5501 35.8083 22.3974L42.6711 8.49071C44.6257 4.53043 48.5836 2.07031 53 2.07031C57.4164 2.07031 61.3742 4.53043 63.3289 8.49071L70.1917 22.3974C72.241 26.5501 76.2004 29.4267 80.7826 30.0923L86.0546 30.8582C86.9038 30.9819 87.4917 31.7696 87.3688 32.6179C87.2451 33.4671 86.4549 34.055 85.6082 33.9313L80.3362 33.1654C74.7415 32.3527 69.9086 28.8412 67.4064 23.7722L60.5437 9.86552C59.0945 6.92908 56.2745 5.17578 53 5.17578C49.7255 5.17578 46.9055 6.92908 45.4563 9.86552L38.5927 23.7722C36.0914 28.8412 31.2577 32.3527 25.6638 33.1654L10.3176 35.3959C7.07624 35.8665 4.53769 38.0064 3.52598 41.1208C2.51428 44.2351 3.31006 47.4595 5.65452 49.7449L16.7598 60.5688C20.8074 64.5153 22.6537 70.1965 21.6978 75.7686L20.8414 80.7624C20.712 81.5186 20.0974 82.1817 19.0485 82.0305Z" fill="black"/>
<path d="M73.2721 102.671L59.5457 95.4537C55.4472 93.2993 50.5528 93.2993 46.4543 95.4537L32.7279 102.671C28.8186 104.726 24.1709 104.389 20.598 101.794C17.0251 99.1981 15.2694 94.8812 16.0158 90.5279L16.5601 87.3553C16.7048 86.5102 17.5071 85.9416 18.353 86.088C19.1981 86.2328 19.7658 87.035 19.6211 87.8801L19.0768 91.0527C18.5228 94.2803 19.7739 97.3567 22.4233 99.2814C25.0726 101.206 28.3843 101.446 31.2827 99.9211L45.0091 92.7049C50.0126 90.0742 55.9866 90.075 60.9909 92.7049L74.7173 99.9211C77.6157 101.446 80.9274 101.206 83.5767 99.2814C86.2261 97.3567 87.4772 94.2803 86.9232 91.0527L84.3021 75.7688C83.3462 70.1967 85.1925 64.5155 89.2402 60.569L100.345 49.7451C102.691 47.4597 103.487 44.2353 102.474 41.121C101.462 38.0066 98.9237 35.8667 95.6832 35.3961L92.3003 34.9044C91.452 34.7806 90.8641 33.993 90.987 33.1446C91.1099 32.2955 91.9 31.7059 92.7468 31.8313L96.1296 32.3221C100.5 32.9578 104.063 35.9614 105.427 40.161C106.793 44.3615 105.676 48.8863 102.513 51.9691L91.4083 62.7938C88.0926 66.0254 86.5803 70.6795 87.3623 75.2439L89.9842 90.5279C90.7306 94.8812 88.9838 99.2102 85.402 101.794C80.1453 105.585 74.9728 103.564 73.2721 102.671Z" fill="black"/>
</svg>
