<svg width="30" height="31" viewBox="0 0 30 31" fill="none" xmlns="http://www.w3.org/2000/svg">
<path d="M29.5605 15.4978C29.5605 11.8698 25.7773 8.92871 21.1104 8.92871C16.4436 8.92871 12.6604 11.8698 12.6604 15.4978C12.6604 19.1258 16.4436 22.067 21.1104 22.067C21.1219 22.067 21.1334 22.067 21.1448 22.0669C21.3749 22.0662 21.5889 22.1867 21.7039 22.3861C22.7998 24.2853 25.4006 24.7702 26.4214 24.8892C26.5881 24.9086 26.7026 24.7263 26.6119 24.5851C26.2662 24.0465 25.6273 22.9347 25.3689 21.7197C25.3078 21.4326 25.4478 21.1415 25.7098 21.0091C28.0276 19.8378 29.5605 17.8071 29.5605 15.4978Z" fill="#FFE07D"/>
<path d="M25.71 21.0092C28.0277 19.8378 29.5607 17.8071 29.5607 15.4978C29.5607 11.8698 25.7774 8.92871 21.1106 8.92871C20.4767 8.92871 19.8594 8.98338 19.2654 9.08627C23.0447 9.74076 25.8702 12.3626 25.8702 15.4979C25.8702 17.8071 24.3373 19.8379 22.0196 21.0092C21.7576 21.1416 21.6175 21.4327 21.6786 21.7198C21.7628 22.1155 21.8875 22.5001 22.0291 22.8577C23.2489 24.3679 25.4913 24.7808 26.4217 24.8893C26.5884 24.9087 26.7028 24.7265 26.6122 24.5853C26.2664 24.0467 25.6275 22.9348 25.3691 21.7198C25.308 21.4326 25.4481 21.1416 25.71 21.0092Z" fill="#FFD064"/>
<path d="M11.5408 5.46875C5.40967 5.46875 0.439453 9.33266 0.439453 14.099C0.439453 16.1314 1.3432 17.9995 2.8551 19.4741C3.03352 19.6481 3.10066 19.9069 3.03504 20.1473C2.50318 22.0959 1.27178 23.8328 0.718008 24.5466C0.607793 24.6886 0.711914 24.8948 0.89168 24.8902C2.12016 24.8596 5.56652 24.5846 7.65322 22.533C7.82315 22.366 8.06684 22.3 8.29869 22.3549C9.32432 22.5982 10.4128 22.7293 11.5407 22.7293C17.6718 22.7293 22.6421 18.8654 22.6421 14.099C22.6421 9.33266 17.6719 5.46875 11.5408 5.46875Z" fill="#95D6A4"/>
<path d="M4.76057 21.7525C3.51329 23.0804 2.79827 23.6596 0.9368 24.257C0.856292 24.3663 0.782464 24.4636 0.71807 24.5466C0.607855 24.6886 0.711976 24.8948 0.891742 24.8902C2.12028 24.8596 5.56659 24.5846 7.65329 22.533C7.82321 22.366 8.06696 22.3 8.29881 22.3549C8.29829 22.354 8.29764 22.353 8.29717 22.352C7.44997 22.1516 6.64583 21.8745 5.89793 21.5312C5.51028 21.3535 5.05249 21.4416 4.76057 21.7525Z" fill="#78C2A4"/>
<path d="M11.5408 5.46875C10.912 5.46875 10.2958 5.51 9.69556 5.58811C14.9483 6.27137 18.9517 9.82145 18.9517 14.099C18.9517 18.3755 14.9503 21.9249 9.6996 22.6094C10.2987 22.6873 10.9133 22.7293 11.5408 22.7293C17.6719 22.7293 22.6421 18.8654 22.6421 14.099C22.6421 9.33266 17.6719 5.46875 11.5408 5.46875Z" fill="#78C2A4"/>
<path d="M4.70272 15.1339C5.30116 15.1339 5.78629 14.6488 5.78629 14.0504C5.78629 13.4519 5.30116 12.9668 4.70272 12.9668C4.10427 12.9668 3.61914 13.4519 3.61914 14.0504C3.61914 14.6488 4.10427 15.1339 4.70272 15.1339Z" fill="#F0F7FF"/>
<path d="M9.04769 15.1339C9.64613 15.1339 10.1313 14.6488 10.1313 14.0504C10.1313 13.4519 9.64613 12.9668 9.04769 12.9668C8.44924 12.9668 7.96411 13.4519 7.96411 14.0504C7.96411 14.6488 8.44924 15.1339 9.04769 15.1339Z" fill="#F0F7FF"/>
<path d="M13.3924 15.1339C13.9909 15.1339 14.476 14.6488 14.476 14.0504C14.476 13.4519 13.9909 12.9668 13.3924 12.9668C12.794 12.9668 12.3088 13.4519 12.3088 14.0504C12.3088 14.6488 12.794 15.1339 13.3924 15.1339Z" fill="#F0F7FF"/>
<path d="M17.7374 15.1339C18.3358 15.1339 18.821 14.6488 18.821 14.0504C18.821 13.4519 18.3358 12.9668 17.7374 12.9668C17.1389 12.9668 16.6538 13.4519 16.6538 14.0504C16.6538 14.6488 17.1389 15.1339 17.7374 15.1339Z" fill="#F0F7FF"/>
<path d="M23.0816 14.099C23.0816 8.62039 17.3065 5.0293 11.5408 5.0293C5.75209 5.0293 0 8.63727 0 14.099C0 16.1653 0.904981 18.1859 2.5483 19.7887C2.61117 19.8501 2.63525 19.9432 2.61111 20.0316C2.09496 21.9225 0.872461 23.6306 0.37084 24.2773C0.214805 24.4784 0.189141 24.7445 0.303926 24.9716C0.416133 25.1938 0.637969 25.3298 0.88582 25.3298C0.891445 25.3298 0.897012 25.3297 0.902637 25.3296C3.35731 25.2684 6.20256 24.5756 7.96131 22.8465C8.02277 22.786 8.11096 22.7621 8.19732 22.7827C9.27791 23.039 10.4029 23.1689 11.5408 23.1689C17.3278 23.1688 23.0816 19.5622 23.0816 14.099ZM8.40012 21.9274C8.01803 21.8366 7.62352 21.946 7.34514 22.2197C5.58633 23.9489 2.71436 24.342 1.3548 24.4294C1.97584 23.5721 2.98559 21.9976 3.45902 20.263C3.56725 19.8666 3.4534 19.4438 3.16195 19.1595C1.6684 17.7028 0.878906 15.9529 0.878906 14.099C0.878906 9.58262 5.6618 5.9082 11.5408 5.9082C17.4198 5.9082 22.2027 9.58256 22.2027 14.099C22.2027 18.6155 17.4198 22.2898 11.5408 22.2898C10.4711 22.2898 9.41443 22.1679 8.40012 21.9274Z" fill="black"/>
<path d="M25.9082 21.4013C28.4704 20.1064 30.0001 17.8995 30.0001 15.4977C30.0001 12.1033 26.9317 9.20292 22.7041 8.6011C22.4642 8.567 22.2413 8.73393 22.2072 8.97422C22.173 9.21452 22.34 9.437 22.5803 9.47122C26.3704 10.0107 29.1212 12.5452 29.1212 15.4977C29.1212 17.5609 27.7719 19.4746 25.5117 20.6169C25.0723 20.839 24.8368 21.33 24.9392 21.8111C25.1534 22.818 25.6096 23.7504 25.9745 24.3824C23.3793 23.9504 22.3957 22.7052 22.0847 22.1663C21.8926 21.8336 21.5336 21.6273 21.1461 21.6273C21.1449 21.6273 21.1438 21.6273 21.1427 21.6273L21.1105 21.6274C20.6232 21.6274 20.1352 21.5936 19.6603 21.5268C19.4206 21.4931 19.1977 21.6605 19.164 21.9009C19.1302 22.1412 19.2977 22.3634 19.5381 22.3972C20.0533 22.4695 20.5824 22.5062 21.1105 22.5062L21.1462 22.5062H21.1469C21.2204 22.5062 21.2879 22.5442 21.3233 22.6055C22.5136 24.6682 25.2496 25.1948 26.3707 25.3255C26.6183 25.3543 26.8542 25.2412 26.9863 25.0296C27.1181 24.8185 27.1165 24.5572 26.9819 24.3476C26.6442 23.8216 26.0416 22.7691 25.7989 21.6281C25.7795 21.537 25.8244 21.4436 25.9082 21.4013Z" fill="black"/>
<path d="M4.70272 12.5273C3.86289 12.5273 3.17969 13.2106 3.17969 14.0504C3.17969 14.8901 3.86289 15.5734 4.70272 15.5734C5.54254 15.5734 6.22574 14.8901 6.22574 14.0504C6.22574 13.2106 5.54254 12.5273 4.70272 12.5273ZM4.70272 14.6946C4.34752 14.6946 4.05859 14.4056 4.05859 14.0504C4.05859 13.6953 4.34758 13.4063 4.70272 13.4063C5.05785 13.4063 5.34684 13.6953 5.34684 14.0504C5.34684 14.4056 5.05785 14.6946 4.70272 14.6946Z" fill="black"/>
<path d="M9.04744 12.5273C8.20762 12.5273 7.52441 13.2106 7.52441 14.0504C7.52441 14.8901 8.20762 15.5734 9.04744 15.5734C9.88727 15.5734 10.5705 14.8901 10.5705 14.0504C10.5705 13.2106 9.88727 12.5273 9.04744 12.5273ZM9.04744 14.6946C8.69225 14.6946 8.40332 14.4056 8.40332 14.0504C8.40332 13.6953 8.69231 13.4063 9.04744 13.4063C9.40258 13.4063 9.69156 13.6953 9.69156 14.0504C9.69156 14.4056 9.40264 14.6946 9.04744 14.6946Z" fill="black"/>
<path d="M13.3924 12.5273C12.5526 12.5273 11.8694 13.2106 11.8694 14.0504C11.8694 14.8901 12.5526 15.5734 13.3924 15.5734C14.2322 15.5734 14.9154 14.8901 14.9154 14.0504C14.9154 13.2106 14.2322 12.5273 13.3924 12.5273ZM13.3924 14.6946C13.0372 14.6946 12.7483 14.4056 12.7483 14.0504C12.7483 13.6953 13.0373 13.4063 13.3924 13.4063C13.7475 13.4063 14.0365 13.6953 14.0365 14.0504C14.0365 14.4056 13.7476 14.6946 13.3924 14.6946Z" fill="black"/>
<path d="M17.7374 12.5273C16.8976 12.5273 16.2144 13.2106 16.2144 14.0504C16.2144 14.8901 16.8976 15.5734 17.7374 15.5734C18.5772 15.5734 19.2604 14.8901 19.2604 14.0504C19.2604 13.2106 18.5772 12.5273 17.7374 12.5273ZM17.7374 14.6946C17.3822 14.6946 17.0933 14.4056 17.0933 14.0504C17.0933 13.6953 17.3822 13.4063 17.7374 13.4063C18.0925 13.4063 18.3815 13.6953 18.3815 14.0504C18.3815 14.4056 18.0925 14.6946 17.7374 14.6946Z" fill="black"/>
</svg>
