<svg width="26" height="27" viewBox="0 0 26 27" fill="none" xmlns="http://www.w3.org/2000/svg">
<g clip-path="url(#clip0)">
<path d="M21.5268 12.2881H22.4008C22.2403 10.4045 21.4911 8.68639 20.3382 7.31885L19.7232 7.93389C19.4255 8.23158 18.9429 8.23158 18.6452 7.93389C18.3475 7.63626 18.3475 7.1536 18.6452 6.85591L19.2603 6.24087C17.8927 5.08799 16.1747 4.33879 14.291 4.17831V5.05237C14.2507 6.06373 12.8064 6.06296 12.7665 5.05237V4.17831C10.8829 4.33879 9.16481 5.08799 7.79728 6.24087L8.41232 6.85591C8.71 7.15355 8.71 7.63621 8.41232 7.93389C8.11463 8.23158 7.63202 8.23158 7.33434 7.93389L6.7193 7.31885C5.56641 8.68639 4.81722 10.4044 4.65674 12.2881H5.53079C6.54215 12.3284 6.54139 13.7727 5.53079 13.8126H4.65674C4.81722 15.6962 5.56641 17.4143 6.71925 18.7818L7.33434 18.1668C7.63202 17.8691 8.11463 17.869 8.41232 18.1668C8.71 18.4644 8.71 18.947 8.41232 19.2447L7.79723 19.8598C9.16476 21.0127 10.8828 21.7619 12.7665 21.9223V21.0483C12.8068 20.0369 14.2511 20.0377 14.291 21.0483V21.9223C16.1746 21.7619 17.8927 21.0127 19.2602 19.8598L18.6451 19.2447C18.3474 18.947 18.3474 18.4644 18.6451 18.1667C18.9428 17.8691 19.4254 17.8691 19.7231 18.1667L20.3381 18.7818C21.491 17.4143 22.2402 15.6962 22.4007 13.8126H21.5267C20.5154 13.7724 20.5162 12.328 21.5268 12.2881ZM16.1259 15.6475C15.8282 15.9451 15.3456 15.9452 15.0479 15.6475L12.9898 13.5894C12.8469 13.4465 12.7665 13.2525 12.7665 13.0504V9.69648C12.8068 8.68512 14.2511 8.68588 14.291 9.69648V12.7347L16.1258 14.5695C16.4236 14.8671 16.4236 15.3498 16.1259 15.6475Z" fill="white"/>
<path d="M25.028 17.3321C24.6434 17.161 24.1929 17.3341 24.0218 17.7187C18.8511 28.9425 2.21285 25.4183 2.04409 13.0502C2.00374 3.70079 12.8584 -1.77245 20.3443 3.8071L19.7642 3.79033C18.7519 3.80324 18.7113 5.24461 19.7203 5.31423L22.7808 5.40255C23.0331 5.40997 23.2745 5.29096 23.422 5.08515C23.5697 4.87939 23.6056 4.61372 23.5177 4.37615L22.4555 1.50448C22.3095 1.10969 21.8711 0.908045 21.4761 1.05404C21.0813 1.20009 20.8797 1.63859 21.0257 2.03339L21.22 2.55858C16.2309 -1.21301 8.68297 -0.662861 4.32988 3.85162C-3.82756 12.0254 1.98224 26.0486 13.5288 26.0595C18.6624 26.0595 23.3279 23.0288 25.4146 18.3384C25.5858 17.9537 25.4127 17.5032 25.028 17.3321Z" fill="white"/>
</g>
<defs>
<clipPath id="clip0">
<rect width="26" height="26" fill="white" transform="translate(0 0.0594482)"/>
</clipPath>
</defs>
</svg>
