<svg width="30" height="30" viewBox="0 0 30 30" fill="none" xmlns="http://www.w3.org/2000/svg">
<path d="M18.0887 25.2739L17.3976 22.4141H11.8578L11.1667 25.2739H18.0887Z" fill="#FF4C4C"/>
<path d="M17.3978 22.4141H14.8164L15.5075 25.2739H18.0888L17.3978 22.4141Z" fill="#F33939"/>
<path d="M27.5761 22.6924H1.67979C0.982111 22.6924 0.416504 22.1268 0.416504 21.4291V4.08946C0.416504 3.39178 0.982111 2.82617 1.67979 2.82617H27.5761C28.2738 2.82617 28.8394 3.39178 28.8394 4.08946V21.4291C28.8394 22.1269 28.2738 22.6924 27.5761 22.6924Z" fill="#FFB125"/>
<path d="M27.5759 2.82617H26.2301V20.1524C26.2301 20.8501 25.6645 21.4157 24.9668 21.4157H0.41626V21.4292C0.41626 22.1269 0.981866 22.6925 1.67954 22.6925H27.5759C28.2735 22.6925 28.8391 22.1269 28.8391 21.4292V4.08946C28.8392 3.39178 28.2736 2.82617 27.5759 2.82617Z" fill="#FF901D"/>
<path d="M20.5674 26.968H8.68792C8.53089 26.968 8.40356 26.8407 8.40356 26.6837V25.9206C8.40356 25.4101 8.81747 24.9961 9.32812 24.9961H19.9271C20.4377 24.9961 20.8517 25.41 20.8517 25.9206V26.6837C20.8517 26.8407 20.7244 26.968 20.5674 26.968Z" fill="#927266"/>
<path d="M27.0073 18.471V5.20174C27.0073 4.90104 26.7635 4.65723 26.4628 4.65723H2.7928C2.4921 4.65723 2.24829 4.90104 2.24829 5.20174V18.471C2.24829 18.8041 2.51835 19.0741 2.85146 19.0741H26.4041C26.7372 19.0741 27.0073 18.8041 27.0073 18.471Z" fill="#FFFCFD"/>
<path d="M26.4627 4.65723H23.835C24.1357 4.65723 24.3795 4.90098 24.3795 5.20174V18.471C24.3795 18.8041 24.1095 19.0741 23.7764 19.0741H26.404C26.7371 19.0741 27.0072 18.8041 27.0072 18.471V5.20174C27.0072 4.90104 26.7634 4.65723 26.4627 4.65723Z" fill="#E6E6E6"/>
<path d="M24.5891 7.28704L22.7205 7.14571C22.4908 7.1286 22.2913 7.30022 22.2739 7.5295C22.2566 7.75877 22.4284 7.9587 22.6577 7.97604L23.5407 8.04284L17.4863 12.8243L15.4978 11.2539C15.3464 11.1344 15.1329 11.1344 14.9817 11.2539L10.7106 14.6269L8.39756 12.8003C8.24633 12.6808 8.03269 12.6808 7.88146 12.8003L3.52894 16.2377C3.34847 16.3802 3.3177 16.642 3.46026 16.8225C3.54247 16.9265 3.66429 16.9808 3.78728 16.9808C3.87763 16.9808 3.96862 16.9515 4.04503 16.8912L8.13951 13.6576L10.4525 15.4842C10.6037 15.6037 10.8174 15.6037 10.9686 15.4842L15.2397 12.1112L17.2282 13.6816C17.3796 13.801 17.5931 13.801 17.7443 13.6816L24.1017 8.66094L24.0632 9.60097C24.0538 9.83071 24.2324 10.0246 24.4622 10.034C24.468 10.0343 24.4737 10.0344 24.4795 10.0344C24.7016 10.0344 24.886 9.85901 24.8952 9.63507L24.9738 7.71934C24.9829 7.4951 24.8129 7.30397 24.5891 7.28704Z" fill="#FF4C4C"/>
<path d="M19.2886 22.7838C22.5499 22.7838 25.1937 20.14 25.1937 16.8787C25.1937 13.6174 22.5499 10.9736 19.2886 10.9736C16.0273 10.9736 13.3835 13.6174 13.3835 16.8787C13.3835 20.14 16.0273 22.7838 19.2886 22.7838Z" fill="#21D8DE"/>
<path d="M19.2887 21.0549C21.5947 21.0549 23.4641 19.1855 23.4641 16.8795C23.4641 14.5735 21.5947 12.7041 19.2887 12.7041C16.9827 12.7041 15.1133 14.5735 15.1133 16.8795C15.1133 19.1855 16.9827 21.0549 19.2887 21.0549Z" fill="#FFFCFD"/>
<path d="M29.4207 26.4772L28.8871 27.0108C28.6698 27.2281 28.3175 27.2281 28.1002 27.0108L25.1002 24.0108C24.8829 23.7935 24.8829 23.4412 25.1002 23.2239L25.6338 22.6903C25.8511 22.473 26.2034 22.473 26.4207 22.6903L29.4207 25.6903C29.638 25.9076 29.638 26.2599 29.4207 26.4772Z" fill="#927266"/>
<path d="M29.4208 25.6903L26.4208 22.6903C26.2035 22.473 25.8512 22.473 25.6339 22.6903L25.1003 23.2239C25.0792 23.2451 25.0608 23.2678 25.0437 23.2912C25.2613 23.1333 25.5671 23.1517 25.7632 23.3478L28.7633 26.3478C28.9594 26.5439 28.9778 26.8498 28.8199 27.0674C28.8433 27.0503 28.866 27.0319 28.8872 27.0108L29.4208 26.4772C29.6381 26.2598 29.6381 25.9076 29.4208 25.6903Z" fill="#736357"/>
<path d="M26.4628 4.65723H2.7928C2.4921 4.65723 2.24829 4.90098 2.24829 5.20174V6.32293H27.0073V5.20174C27.0073 4.90104 26.7635 4.65723 26.4628 4.65723Z" fill="#21D8DE"/>
<path d="M26.4628 4.65723H23.8352C24.1359 4.65723 24.3797 4.90098 24.3797 5.20174V6.32293H27.0074V5.20174C27.0074 4.90104 26.7636 4.65723 26.4628 4.65723Z" fill="#0FB9C1"/>
<path d="M20.8487 25.8578C20.8163 25.3767 20.4168 24.9961 19.9273 24.9961H18.2338L18.2285 26.968H20.5675C20.7057 26.968 20.8207 26.8693 20.8463 26.7386L20.8487 25.8578Z" fill="#736357"/>
<path d="M19.2885 21.0548C21.5946 21.0548 23.464 19.1854 23.464 16.8793C23.464 15.7263 22.9967 14.6824 22.241 13.9268L16.3359 19.8318C17.0916 20.5875 18.1355 21.0549 19.2885 21.0548Z" fill="#E6E6E6"/>
<path d="M29.7152 25.3968L27.4266 23.1082H27.576C28.5022 23.1082 29.2556 22.3547 29.2556 21.4286V4.08883C29.2556 3.16264 28.5021 2.40918 27.576 2.40918H1.67959C0.753459 2.40918 0 3.1627 0 4.08883V5.81571C0 6.04569 0.186387 6.23208 0.416368 6.23208C0.646349 6.23208 0.832736 6.04569 0.832736 5.81571V4.08883C0.832736 3.62178 1.21266 3.24186 1.67965 3.24186H27.576C28.043 3.24186 28.4229 3.62178 28.4229 4.08883V21.4285C28.4229 21.8956 28.043 22.2755 27.576 22.2755H26.5677C26.569 22.2763 26.5702 22.2774 26.5714 22.2782C26.4119 22.1701 26.2242 22.1119 26.0273 22.1119C25.8295 22.1119 25.6409 22.1708 25.4809 22.2799C25.483 22.2785 25.4849 22.2769 25.4869 22.2755H25.2735L24.043 21.045C25.0561 19.8919 25.6099 18.4283 25.6099 16.8793C25.6099 15.1908 24.9523 13.6034 23.7583 12.4094C23.6091 12.2602 23.4537 12.1193 23.2927 11.9871C22.1659 11.0613 20.7658 10.5579 19.2883 10.5579C18.3385 10.5579 17.4208 10.766 16.5869 11.1605C15.9384 11.4674 15.3407 11.8871 14.8183 12.4094C14.801 12.4267 14.7843 12.4444 14.7672 12.4618C14.747 12.4825 14.7266 12.503 14.7067 12.5238C14.6951 12.5361 14.6839 12.5485 14.6723 12.5608C14.6467 12.5881 14.6211 12.6154 14.5961 12.6431C14.5906 12.6492 14.5853 12.6554 14.5798 12.6615C13.5373 13.8224 12.9668 15.3069 12.9668 16.8793C12.9668 18.404 13.5031 19.8461 14.4862 20.9907C14.4869 20.9915 14.4875 20.9923 14.4882 20.9932C14.516 21.0255 14.5444 21.0576 14.5729 21.0894C14.581 21.0984 14.5888 21.1075 14.5968 21.1164C14.6172 21.139 14.6382 21.1611 14.659 21.1835C14.6752 21.2009 14.6911 21.2185 14.7076 21.2358C14.7126 21.241 14.7177 21.2461 14.7226 21.2512C14.7542 21.2841 14.7859 21.3169 14.8183 21.3493C14.8606 21.3917 14.9036 21.4331 14.9469 21.4741C14.9564 21.4831 14.966 21.4919 14.9756 21.5008C15.0096 21.5326 15.0439 21.564 15.0785 21.595C15.0901 21.6054 15.1017 21.6156 15.1133 21.6258C15.148 21.6564 15.183 21.6866 15.2183 21.7164C15.228 21.7245 15.2376 21.7327 15.2473 21.7408C15.2904 21.7767 15.3338 21.8121 15.3776 21.8468C15.379 21.8479 15.3804 21.849 15.3818 21.8501C15.5775 22.0046 15.7812 22.1464 15.9917 22.2755H11.7908H1.67959C1.2126 22.2755 0.832677 21.8956 0.832677 21.4286V8.45378C0.832677 8.2238 0.64629 8.03741 0.416309 8.03741C0.186329 8.03741 0 8.22386 0 8.45378V21.4285C0 22.3547 0.753459 23.1082 1.67959 23.1082H11.2619L10.9061 24.5802H9.3282C8.58887 24.5802 7.98734 25.1817 7.98734 25.9211V26.6841C7.98734 27.0705 8.30164 27.3848 8.68806 27.3848H20.5674C20.9538 27.3848 21.2682 27.0705 21.2682 26.6841V25.9211C21.2682 25.1817 20.6666 24.5802 19.9273 24.5802H18.3494L17.9936 23.1082H18.2012C18.5568 23.1695 18.9202 23.2007 19.2884 23.2007C19.6566 23.2007 20.02 23.1695 20.3756 23.1082H24.6662V23.1081C24.5722 23.26 24.5209 23.435 24.5209 23.6182C24.5209 23.8781 24.6221 24.1224 24.8058 24.3061L27.8058 27.306C27.9896 27.4898 28.2339 27.5909 28.4937 27.5909C28.7535 27.5909 28.9978 27.4898 29.1815 27.306L29.7151 26.7724C29.8989 26.5886 30 26.3444 30 26.0846C30 25.8248 29.8989 25.5805 29.7152 25.3968ZM12.1186 23.1082H17.1371L17.4927 24.5802H11.7629L12.1186 23.1082ZM18.0217 25.4129C18.022 25.4129 18.0223 25.4128 18.0226 25.4128H19.9272C20.2075 25.4128 20.4354 25.6409 20.4354 25.9211V26.5521H8.82008V25.9211C8.82008 25.6409 9.04806 25.4128 9.32826 25.4128H11.2329C11.2332 25.4128 11.2336 25.4129 11.2339 25.4129H18.0217ZM22.2961 21.4709C22.2261 21.5169 22.1553 21.5612 22.0836 21.6037C22.0806 21.6054 22.0778 21.6072 22.0748 21.6089C21.2184 22.1133 20.2536 22.3656 19.2884 22.3655C18.3222 22.3654 17.3558 22.1125 16.4985 21.6068C16.4985 21.6068 16.4984 21.6068 16.4984 21.6068C16.4236 21.5628 16.3499 21.5165 16.2768 21.4685C16.2718 21.4653 16.2668 21.4621 16.2618 21.4588C16.1179 21.3637 15.9777 21.2606 15.8414 21.1505C15.8251 21.1374 15.8092 21.1239 15.7931 21.1106C15.7436 21.0697 15.6948 21.0277 15.6464 20.9847C15.6279 20.9682 15.6092 20.9518 15.5908 20.935C15.5315 20.881 15.473 20.8257 15.4156 20.7686C15.4129 20.7658 15.41 20.7632 15.4073 20.7605C13.2672 18.6205 13.2672 15.1384 15.4073 12.9984C17.5473 10.8583 21.0295 10.8584 23.1694 12.9984C24.0118 13.8407 24.5466 14.9085 24.7176 16.0657C24.757 16.3328 24.7771 16.6045 24.7771 16.8795C24.7771 18.3456 24.2062 19.724 23.1694 20.7606C23.109 20.821 23.0473 20.8791 22.9847 20.9361C22.9672 20.9522 22.9493 20.9678 22.9316 20.9836C22.8827 21.0271 22.8331 21.0696 22.7831 21.1111C22.7671 21.1242 22.7512 21.1377 22.7352 21.1507C22.5995 21.2603 22.46 21.3628 22.3168 21.4576C22.31 21.462 22.3031 21.4664 22.2961 21.4709ZM22.5849 22.2755C22.7948 22.1468 22.9979 22.0054 23.1932 21.8514C23.1971 21.8483 23.2009 21.8452 23.2048 21.8421C23.2458 21.8097 23.2864 21.7766 23.3267 21.743C23.3387 21.7331 23.3505 21.7231 23.3624 21.713C23.3932 21.6869 23.4238 21.6606 23.4542 21.6339L24.0958 22.2755H22.5849ZM29.1263 26.1836L28.5927 26.7172C28.557 26.7529 28.5154 26.7582 28.4937 26.7582C28.472 26.7582 28.4304 26.7529 28.3948 26.7172L25.3948 23.7172C25.359 23.6816 25.3537 23.6399 25.3537 23.6182C25.3537 23.5966 25.3591 23.5549 25.3948 23.5193L25.9284 22.9856C25.9641 22.9499 26.0057 22.9446 26.0273 22.9446C26.049 22.9446 26.0907 22.95 26.1263 22.9856L29.1263 25.9857C29.1621 26.0213 29.1673 26.0629 29.1673 26.0846C29.1673 26.1063 29.1621 26.1479 29.1263 26.1836Z" fill="black"/>
<path d="M26.4042 18.6581H26.1352C25.9052 18.6581 25.7188 18.8445 25.7188 19.0745C25.7188 19.3045 25.9052 19.4908 26.1352 19.4908H26.4042C26.9665 19.4908 27.4238 19.0335 27.4238 18.4713V6.32329V5.20209C27.4238 4.67229 26.9928 4.24121 26.4629 4.24121H2.79291C2.26311 4.24121 1.83203 4.67223 1.83203 5.20209V6.32329V18.4713C1.83203 19.0335 2.28936 19.4908 2.85156 19.4908H12.3355C12.5655 19.4908 12.7519 19.3045 12.7519 19.0745C12.7519 18.8445 12.5655 18.6581 12.3355 18.6581H2.85156C2.74856 18.6581 2.66477 18.5743 2.66477 18.4713V6.73965H26.5911V18.4713C26.591 18.5743 26.5073 18.6581 26.4042 18.6581ZM2.66477 5.90698V5.20209C2.66477 5.13143 2.72225 5.07395 2.79291 5.07395H26.4629C26.5336 5.07395 26.591 5.13149 26.591 5.20209V5.90698H2.66477Z" fill="black"/>
<path d="M19.2884 21.4708C16.7564 21.4708 14.6965 19.4109 14.6965 16.8789C14.6965 14.347 16.7565 12.2871 19.2884 12.2871C21.8204 12.2871 23.8803 14.347 23.8803 16.8789C23.8803 19.4109 21.8204 21.4708 19.2884 21.4708ZM19.2884 13.1198C17.2156 13.1198 15.5292 14.8061 15.5292 16.8789C15.5292 18.9518 17.2156 20.6382 19.2884 20.6382C21.3612 20.6382 23.0476 18.9518 23.0476 16.8789C23.0476 14.8061 21.3612 13.1198 19.2884 13.1198Z" fill="black"/>
<path d="M19.0928 19.3556C18.2302 19.3416 17.646 18.8756 17.646 18.5348C17.646 18.3679 17.7921 18.1383 17.966 18.1383C18.1955 18.1383 18.3833 18.6252 19.0929 18.6809V17.0462C18.4668 16.8236 17.7712 16.5732 17.7712 15.6829C17.7712 14.8064 18.432 14.4586 19.0929 14.389V14.1873C19.0929 14.1038 19.1764 14.0273 19.2946 14.0273C19.3989 14.0273 19.5032 14.1039 19.5032 14.1873V14.3751C19.9763 14.389 20.644 14.5351 20.644 14.876C20.644 15.0081 20.5466 15.2725 20.3379 15.2725C20.171 15.2725 19.9902 15.0499 19.5032 15.0151V16.4272C20.1083 16.6498 20.7692 16.9558 20.7692 17.9019C20.7692 18.7575 20.2544 19.2305 19.5032 19.3348V19.5713C19.5032 19.6548 19.3988 19.7312 19.2945 19.7312C19.1763 19.7312 19.0928 19.6547 19.0928 19.5713V19.3556ZM19.1345 16.2949V15.0289C18.745 15.0776 18.4667 15.2515 18.4667 15.6132C18.4668 16.0098 18.7658 16.1558 19.1345 16.2949ZM19.4615 17.1992V18.6669C19.8371 18.5974 20.0736 18.3748 20.0736 17.9783C20.0736 17.54 19.8023 17.3453 19.4615 17.1992Z" fill="#FF901D"/>
</svg>
