<svg width="51" height="25" viewBox="0 0 51 25" fill="none" xmlns="http://www.w3.org/2000/svg">
<mask id="mask0_193_455" style="mask-type:alpha" maskUnits="userSpaceOnUse" x="0" y="0" width="25" height="25">
<circle cx="12.5" cy="12.5" r="12.5" fill="#C4C4C4"/>
</mask>
<g mask="url(#mask0_193_455)">
<path d="M7.40273 0H-7V25H7.40273H30.5008V0H7.40273Z" fill="#D80027"/>
<path d="M11.7502 5.26941L13.4101 10.3779H18.7816L14.4359 13.5352L16.0959 18.6439L11.7502 15.4865L7.40445 18.6439L9.06445 13.5352L4.71875 10.3779H10.0902L11.7502 5.26941Z" fill="#FFDA44"/>
<path d="M30.4996 0H-7V25H30.4996V0Z" fill="#F0F0F0"/>
<path d="M30.4996 3.12463H-7V6.24933H30.4996V3.12463Z" fill="#D80027"/>
<path d="M30.4996 9.37488H-7V12.4996H30.4996V9.37488Z" fill="#D80027"/>
<path d="M30.4996 15.6243H-7V18.749H30.4996V15.6243Z" fill="#D80027"/>
<path d="M30.4996 21.8745H-7V24.9992H30.4996V21.8745Z" fill="#D80027"/>
<path d="M11.7498 0H-7V13.4616H11.7498V0Z" fill="#2E52B2"/>
<path d="M0.310948 5.51453L0.00897372 6.44352H-0.967773L-0.177426 7.01737L-0.4794 7.94629L0.310948 7.37244L1.10078 7.94629L0.798882 7.01737L1.58923 6.44352H0.61241L0.310948 5.51453Z" fill="#F0F0F0"/>
<path d="M0.61241 9.79599L0.310948 8.86707L0.00897372 9.79599H-0.967773L-0.177426 10.3699L-0.4794 11.2988L0.310948 10.7249L1.10078 11.2988L0.798882 10.3699L1.58923 9.79599H0.61241Z" fill="#F0F0F0"/>
<path d="M0.310948 2.16199L0.00897372 3.09105H-0.967773L-0.177426 3.66497L-0.4794 4.59389L0.310948 4.01998L1.10078 4.59389L0.798882 3.66497L1.58923 3.09105H0.61241L0.310948 2.16199Z" fill="#F0F0F0"/>
<path d="M4.4388 5.51453L4.1369 6.44352H3.16016L3.95043 7.01737L3.6486 7.94629L4.4388 7.37244L5.22879 7.94629L4.92681 7.01737L5.71716 6.44352H4.74041L4.4388 5.51453Z" fill="#F0F0F0"/>
<path d="M4.74041 9.79599L4.4388 8.86707L4.1369 9.79599H3.16016L3.95043 10.3699L3.6486 11.2988L4.4388 10.7249L5.22879 11.2988L4.92681 10.3699L5.71716 9.79599H4.74041Z" fill="#F0F0F0"/>
<path d="M8.86827 9.79599L8.56673 8.86707L8.26476 9.79599H7.28809L8.07829 10.3699L7.77639 11.2988L8.56673 10.7249L9.35664 11.2988L9.05467 10.3699L9.84502 9.79599H8.86827Z" fill="#F0F0F0"/>
<path d="M8.56673 5.51453L8.26476 6.44352H7.28809L8.07829 7.01737L7.77639 7.94629L8.56673 7.37244L9.35664 7.94629L9.05467 7.01737L9.84502 6.44352H8.86827L8.56673 5.51453Z" fill="#F0F0F0"/>
<path d="M4.4388 2.16199L4.1369 3.09105H3.16016L3.95043 3.66497L3.6486 4.59389L4.4388 4.01998L5.22879 4.59389L4.92681 3.66497L5.71716 3.09105H4.74041L4.4388 2.16199Z" fill="#F0F0F0"/>
<path d="M8.56673 2.16199L8.26476 3.09105H7.28809L8.07829 3.66497L7.77639 4.59389L8.56673 4.01998L9.35664 4.59389L9.05467 3.66497L9.84502 3.09105H8.86827L8.56673 2.16199Z" fill="#F0F0F0"/>
</g>
<path d="M39.9014 12.5566H35.8135V15.6191H40.5918V17H34.084V7.04688H40.5439V8.44141H35.8135V11.1895H39.9014V12.5566ZM49.8955 17H48.166L43.7295 9.93848V17H42V7.04688H43.7295L48.1797 14.1357V7.04688H49.8955V17Z" fill="white"/>
</svg>
