<svg width="21" height="102" viewBox="0 0 21 102" fill="none" xmlns="http://www.w3.org/2000/svg">
<rect width="21" height="102" rx="3.75" fill="#9ca3af"/>
<path d="M10.1012 10.2011L2.26032 17.2579C2.09409 17.4085 2 17.6186 2 17.8413V22.5458C2 22.8548 2.18191 23.1355 2.46418 23.2625C2.74802 23.388 3.07891 23.3362 3.30786 23.1292L10.625 16.5444L17.9406 23.1292C18.1711 23.3362 18.502 23.3895 18.7842 23.2625C19.0681 23.1355 19.25 22.8548 19.25 22.5458V17.8413C19.25 17.6186 19.1543 17.4085 18.9912 17.2579L11.1503 10.2011C10.8524 9.93296 10.3976 9.93296 10.1012 10.2011Z" fill="#000000"/>
<path d="M10.1012 20.3943L2.26032 27.4511C2.09409 27.6017 2 27.8118 2 28.0345L2 32.739C2 33.048 2.18191 33.3287 2.46418 33.4557C2.74802 33.5811 3.07891 33.5294 3.30786 33.3224L10.625 26.7376L17.9406 33.3224C18.1711 33.5294 18.502 33.5827 18.7842 33.4557C19.0681 33.3287 19.25 33.048 19.25 32.739V28.0345C19.25 27.8118 19.1543 27.6017 18.9912 27.4511L11.1503 20.3943C10.8524 20.1261 10.3976 20.1261 10.1012 20.3943Z" fill="#000000"/>
<path d="M12.107 88.9464L7.88186 87.6731V86.3843L13.5 88.3406V89.5484L7.88186 91.497V90.2121L12.107 88.9464ZM13.5 84.6209V85.7785H7.88186V84.6209H13.5ZM11.0652 80.1642V82.3868H12.5701V79.7784H13.5V83.5444H7.88186L7.88186 79.7861H8.8195V82.3868H10.1584V80.1642H11.0652ZM11.8794 74.7236L7.88186 73.9673V72.8136L13.5 74.0599V75.2252L9.74171 76.1397L13.5 77.0542V78.2195L7.88186 79.4658V78.3121L11.8717 77.552L7.88186 76.6259V75.6458L11.8794 74.7236ZM13.5 65.6443V66.8019H11.0922V69.0592H13.5L13.5 70.2167H7.88186V69.0592H10.1584V66.8019H7.88186V65.6443H13.5ZM13.5 63.3986V64.5562H7.88186V63.3986H13.5ZM12.026 59.4088C11.8074 59.4088 11.6401 59.4859 11.5244 59.6403C11.4061 59.7946 11.2826 60.0725 11.154 60.4737C11.0228 60.875 10.8942 61.1927 10.7681 61.4268C10.4234 62.0648 9.95908 62.3838 9.37514 62.3838C9.0716 62.3838 8.8015 62.2989 8.56483 62.1291C8.3256 61.9567 8.1391 61.7111 8.00534 61.3921C7.87157 61.0705 7.80469 60.7104 7.80469 60.3117C7.80469 59.9104 7.878 59.5528 8.02463 59.239C8.16868 58.9252 8.37319 58.6821 8.63815 58.5097C8.90311 58.3348 9.20408 58.2473 9.54106 58.2473V59.4049C9.28382 59.4049 9.08446 59.4859 8.94298 59.648C8.79892 59.8101 8.7269 60.0377 8.7269 60.331C8.7269 60.6139 8.78735 60.8339 8.90825 60.9908C9.02658 61.1477 9.1835 61.2262 9.379 61.2262C9.56164 61.2262 9.7147 61.1349 9.83818 60.9522C9.96165 60.767 10.0774 60.4956 10.1855 60.138C10.3835 59.4795 10.6292 58.9998 10.9224 58.6988C11.2157 58.3978 11.581 58.2473 12.0183 58.2473C12.5045 58.2473 12.8865 58.4313 13.1643 58.7991C13.4395 59.167 13.5772 59.6622 13.5772 60.2847C13.5772 60.7168 13.4987 61.1104 13.3418 61.4654C13.1823 61.8204 12.9649 62.0918 12.6897 62.2796C12.4144 62.4648 12.0955 62.5574 11.7328 62.5574V61.396C12.3527 61.396 12.6627 61.0255 12.6627 60.2847C12.6627 60.0094 12.6074 59.7946 12.4968 59.6403C12.3836 59.4859 12.2267 59.4088 12.026 59.4088ZM8.8195 53.2311V54.9521H13.5L13.5 56.1097H8.8195V57.8074H7.88186L7.88186 53.2311H8.8195ZM10.8183 48.0606C11.3713 48.0606 11.8562 48.1583 12.273 48.3538C12.6897 48.5493 13.0112 48.8297 13.2376 49.195C13.464 49.5577 13.5772 49.9745 13.5772 50.4452C13.5772 50.9108 13.4653 51.3263 13.2415 51.6915C13.0177 52.0568 12.6987 52.3398 12.2845 52.5404C11.8678 52.7411 11.3893 52.8427 10.8491 52.8453H10.5713C10.0182 52.8453 9.53206 52.7462 9.11276 52.5482C8.69088 52.3475 8.36805 52.0658 8.14425 51.7031C7.91787 51.3378 7.80469 50.9211 7.80469 50.4529C7.80469 49.9847 7.91787 49.5693 8.14425 49.2066C8.36805 48.8413 8.69088 48.5596 9.11276 48.3616C9.53206 48.1609 10.017 48.0606 10.5675 48.0606H10.8183ZM10.5636 49.2336C9.97451 49.2336 9.52692 49.3391 9.2208 49.55C8.91468 49.761 8.76162 50.0619 8.76162 50.4529C8.76162 50.8414 8.9134 51.141 9.21694 51.352C9.51791 51.5629 9.96037 51.6697 10.5443 51.6722H10.8183C11.3919 51.6722 11.8369 51.5668 12.1533 51.3558C12.4698 51.1449 12.628 50.8414 12.628 50.4452C12.628 50.0568 12.4762 49.7584 12.1726 49.55C11.8665 49.3416 11.4215 49.2362 10.8376 49.2336H10.5636ZM11.4434 45.1396V46.0618H13.5V47.2194H7.88186V45.1319C7.88186 44.4682 8.02977 43.9563 8.3256 43.5962C8.62143 43.236 9.03944 43.056 9.57965 43.056C9.96294 43.056 10.2832 43.1396 10.5404 43.3068C10.7951 43.4714 10.9983 43.7222 11.1501 44.0592L13.446 42.8437H13.5V44.0862L11.4434 45.1396ZM10.5057 46.0618V45.128C10.5057 44.8374 10.4324 44.6123 10.2858 44.4528C10.1366 44.2933 9.93207 44.2136 9.67226 44.2136C9.4073 44.2136 9.19893 44.2894 9.04716 44.4412C8.89539 44.5904 8.8195 44.8206 8.8195 45.1319V46.0618H10.5057ZM10.4131 40.4205L7.88186 39.2514V37.9858L11.4627 39.8302H13.5V41.007H11.4627L7.88186 42.8515L7.88186 41.582L10.4131 40.4205Z" fill="#000000"/>
</svg>
