<svg width="30" height="31" viewBox="0 0 30 31" fill="none" xmlns="http://www.w3.org/2000/svg">
<g clip-path="url(#clip0)">
<path d="M19.2601 8.39452C18.6682 7.8762 18.5588 6.99776 19.0062 6.35053C20.2471 4.55551 22.2936 1.25785 20.7544 1.03068C19.6933 0.874058 17.3467 2.17338 15.0001 2.17338C12.6534 2.17338 10.3068 0.874058 9.24561 1.03068C7.70647 1.25785 9.75304 4.55545 10.9939 6.35053C11.4412 6.9977 11.3318 7.8762 10.7399 8.39452C8.1761 10.6398 1.97974 16.7478 2.66312 22.8137C3.52228 30.4396 15.0001 30.1599 15.0001 30.1599C15.0001 30.1599 26.4779 30.4396 27.337 22.8137C28.0204 16.7478 21.8241 10.6398 19.2601 8.39452Z" fill="#FF4C4C"/>
<path d="M19.2602 8.39446C18.6683 7.87613 18.5588 6.99769 19.0063 6.35047C20.2472 4.55544 22.2937 1.25778 20.7546 1.03061C20.5587 1.00173 20.3186 1.02264 20.043 1.07567C19.5064 2.44817 17.2344 5.03316 16.3238 6.35047C15.8764 6.99764 15.9859 7.87613 16.5777 8.39446C19.1417 10.6398 25.338 16.7478 24.6547 22.8136C23.978 28.8202 16.7136 29.9221 13.6589 30.1192C14.4825 30.1724 15.0002 30.1599 15.0002 30.1599C15.0002 30.1599 26.478 30.4396 27.3371 22.8136C28.0205 16.7478 21.8242 10.6398 19.2602 8.39446Z" fill="#F33939"/>
<path d="M15 25.752C18.6082 25.752 21.5332 22.827 21.5332 19.2188C21.5332 15.6106 18.6082 12.6855 15 12.6855C11.3918 12.6855 8.4668 15.6106 8.4668 19.2188C8.4668 22.827 11.3918 25.752 15 25.752Z" fill="#FFB125"/>
<path d="M19.5963 8.66794H10.404C9.903 8.66794 9.49683 8.26177 9.49683 7.76073C9.49683 7.25969 9.903 6.85352 10.404 6.85352H19.5964C20.0974 6.85352 20.5036 7.25969 20.5036 7.76073C20.5035 8.26182 20.0973 8.66794 19.5963 8.66794Z" fill="#FFB125"/>
<path d="M19.5963 7.86899H10.404C10.0466 7.86899 9.73829 7.66174 9.59046 7.36133C9.53104 7.48203 9.49683 7.61727 9.49683 7.76088C9.49683 8.26192 9.903 8.66803 10.404 8.66803H19.5963C20.0973 8.66803 20.5035 8.26186 20.5035 7.76088C20.5035 7.61732 20.4692 7.48203 20.4099 7.36133C20.262 7.66174 19.9537 7.86899 19.5963 7.86899Z" fill="#FF901D"/>
<path d="M19.6199 23.8381C22.1713 21.2867 22.1713 17.15 19.6199 14.5986L10.3804 23.8381C12.9318 26.3895 17.0685 26.3896 19.6199 23.8381Z" fill="#FF901D"/>
<path d="M26.8007 17.3466C26.1326 15.7913 25.1332 14.173 23.8306 12.5367C23.6834 12.3518 23.414 12.3212 23.2291 12.4685C23.0441 12.6157 23.0136 12.885 23.1608 13.07C24.4161 14.6467 25.376 16.1993 26.014 17.6845C26.7869 19.4837 27.0889 21.1933 26.9117 22.766C26.7285 24.3929 26.0087 25.7671 24.7723 26.8506C23.7631 27.735 22.4073 28.435 20.7428 28.9311C17.8635 29.7892 15.0388 29.733 15.0106 29.7323C15.0037 29.7322 14.9967 29.7322 14.9899 29.7323C14.9614 29.7326 12.1367 29.7891 9.25753 28.9311C7.59294 28.435 6.23719 27.735 5.22797 26.8506C3.99164 25.7672 3.27188 24.3929 3.08859 22.766C2.80559 20.2537 3.72973 17.4444 5.83536 14.4161C7.42718 12.1268 9.36482 10.2122 10.5965 9.09633H19.4039C19.9576 9.59772 20.6696 10.2741 21.4237 11.0731C21.586 11.2451 21.857 11.2528 22.0289 11.0905C22.2008 10.9282 22.2086 10.6573 22.0463 10.4854C21.4488 9.85237 20.8772 9.29473 20.3863 8.83664C20.7167 8.59336 20.9315 8.20189 20.9315 7.76109C20.9315 7.02486 20.3325 6.42585 19.5963 6.42585H19.474C19.9557 5.72074 20.5824 4.74966 21.0457 3.83993C21.6846 2.5852 21.8717 1.74614 21.6342 1.19928C21.4932 0.874672 21.203 0.664555 20.817 0.607601C20.2441 0.522933 19.4882 0.752973 18.5313 1.04424C17.4508 1.37301 16.2262 1.74573 15.0001 1.74573C13.7741 1.74573 12.5495 1.37301 11.469 1.04424C10.5121 0.753031 9.75611 0.522992 9.18318 0.607601C8.79716 0.664555 8.50695 0.874672 8.36603 1.19928C8.12855 1.74614 8.31558 2.5852 8.95454 3.83993C9.4179 4.74972 10.0446 5.72079 10.5262 6.42585H10.4039C9.66769 6.42585 9.06868 7.02486 9.06868 7.76109C9.06868 8.20172 9.28331 8.59307 9.61343 8.83635C6.648 11.6016 1.60107 17.2106 2.23781 22.8618C2.60988 26.1643 4.95926 28.5486 9.03206 29.7572C11.9791 30.6316 14.7767 30.5929 15.0001 30.5883C15.0257 30.5889 15.085 30.5898 15.1746 30.5898C15.8666 30.5898 18.3589 30.5314 20.9682 29.7572C25.041 28.5487 27.3903 26.1643 27.7625 22.8618C27.9565 21.1396 27.6329 19.284 26.8007 17.3466ZM9.1513 1.54024C9.16284 1.51358 9.18036 1.47333 9.30822 1.45446C9.69101 1.39815 10.4336 1.62391 11.2197 1.86315C12.301 2.19221 13.6467 2.60173 15.0001 2.60173C16.3536 2.60173 17.6993 2.19221 18.7806 1.86315C19.5667 1.62391 20.3096 1.39827 20.692 1.45446C20.8199 1.47333 20.8373 1.51358 20.8489 1.54024C20.8869 1.62772 21.1482 2.49942 18.6542 6.1074C18.5836 6.20947 18.524 6.31611 18.4749 6.4258H11.5253C11.4763 6.31611 11.4167 6.20947 11.3461 6.1074C8.852 2.49948 9.11333 1.62778 9.1513 1.54024ZM10.404 7.28191H19.5963C19.8605 7.28191 20.0754 7.49683 20.0754 7.76103C20.0754 8.02523 19.8605 8.24016 19.5963 8.24016H10.404C10.1398 8.24016 9.92486 8.02523 9.92486 7.76103C9.92486 7.49683 10.1398 7.28191 10.404 7.28191Z" fill="black"/>
<path d="M10.6831 23.5363C9.86067 22.7139 9.29295 21.6821 9.04141 20.5526C8.99002 20.3219 8.76139 20.1763 8.53053 20.2278C8.29978 20.2792 8.15435 20.5079 8.20574 20.7387C8.49273 22.0272 9.14002 23.204 10.0777 24.1416C11.4348 25.4987 13.2175 26.1773 15.0001 26.1773C16.7828 26.1773 18.5654 25.4988 19.9226 24.1416C22.6368 21.4274 22.6368 17.011 19.9226 14.2968C18.6077 12.9819 16.8595 12.2578 15.0001 12.2578C13.1406 12.2578 11.3925 12.9819 10.0776 14.2968C9.11676 15.2576 8.46268 16.4657 8.18611 17.7904C8.13783 18.0219 8.28625 18.2486 8.51764 18.2969C8.74896 18.3452 8.97584 18.1968 9.02412 17.9653C9.26652 16.8041 9.84016 15.7449 10.683 14.902C13.0635 12.5217 16.9366 12.5216 19.3171 14.902C21.6976 17.2825 21.6976 21.1557 19.3171 23.5362C16.9368 25.9167 13.0635 25.9167 10.6831 23.5363Z" fill="black"/>
<path d="M14.6229 22.9768C13.3142 22.9557 12.4277 22.2486 12.4277 21.7315C12.4277 21.4782 12.6493 21.1299 12.9132 21.1299C13.2615 21.1299 13.5464 21.8687 14.6229 21.9531V19.4729C13.6731 19.1352 12.6177 18.7553 12.6177 17.4044C12.6177 16.0746 13.6203 15.5469 14.6229 15.4414V15.1353C14.6229 15.0087 14.7496 14.8926 14.929 14.8926C15.0873 14.8926 15.2456 15.0087 15.2456 15.1353V15.4203C15.9632 15.4414 16.9764 15.663 16.9764 16.1802C16.9764 16.3807 16.8287 16.7818 16.5121 16.7818C16.2588 16.7818 15.9845 16.444 15.2456 16.3913V18.5337C16.1638 18.8714 17.1665 19.3358 17.1665 20.7711C17.1665 22.0693 16.3855 22.7869 15.2456 22.9452V23.304C15.2456 23.4307 15.0873 23.5468 14.9291 23.5468C14.7496 23.5468 14.623 23.4307 14.623 23.304L14.6229 22.9768ZM14.6862 18.3331V16.4124C14.0952 16.4863 13.6731 16.7501 13.6731 17.2989C13.673 17.9004 14.1268 18.1221 14.6862 18.3331ZM15.1822 19.7051V21.932C15.7522 21.8264 16.111 21.4887 16.111 20.8871C16.111 20.2223 15.6994 19.9268 15.1822 19.7051Z" fill="#DD7219"/>
</g>
<defs>
<clipPath id="clip0">
<rect width="30" height="30" fill="white" transform="translate(0 0.589844)"/>
</clipPath>
</defs>
</svg>
