<svg width="49" height="50" viewBox="0 0 49 50" fill="none" xmlns="http://www.w3.org/2000/svg">
<path d="M48.6031 14.3252V35.4639C48.6031 36.8872 47.865 38.2051 46.5999 38.8904L31.2072 47.7991L28.3079 49.486C27.0954 50.1713 25.5667 50.1713 24.3542 49.486L6.0622 38.9431C4.84976 38.2578 4.05904 36.9399 4.05904 35.5166V20.0185L0 16.0121H27.359C28.7296 16.0121 29.8366 17.1191 29.8366 18.4897C29.8366 19.175 29.573 19.8076 29.0986 20.2293C28.6769 20.651 28.0443 20.9673 27.359 20.9673H21.0859L22.0875 18.4897H16.8687L15.8672 20.9673L15.2873 22.4433L14.8656 23.4449L14.5493 24.2883L13.9167 25.8698H28.6769C30.0474 25.8698 31.1545 26.9768 31.1545 28.3474C31.1545 29.0327 30.8909 29.6125 30.4164 30.087C29.942 30.5614 29.3621 30.825 28.6769 30.825H11.9136L9.91039 35.7275H21.1386L20.2425 37.9942H25.514L26.4101 35.7275H31.1545C32.9995 35.7275 34.6336 34.9894 35.8461 33.777C36.0042 33.6189 36.1624 33.4607 36.3205 33.2499C37.2694 32.0901 37.7965 30.6668 37.7965 29.0854C37.7965 27.0822 36.9004 25.2899 35.4771 24.0775C34.8445 23.5503 34.1065 23.1286 33.3158 22.8123C33.8956 22.496 34.4228 22.127 34.8972 21.6526C36.0042 20.5456 36.6895 19.0169 36.6895 17.33C36.6895 16.0648 36.3205 14.8524 35.6352 13.9035L37.3748 9.00105H32.1033L31.2072 11.2678C30.9963 11.2678 30.8382 11.2678 30.6273 11.2678H5.74591C5.85134 11.1624 5.95678 11.1097 6.11492 11.0569L24.407 0.513969C25.6194 -0.171323 27.1481 -0.171323 28.3606 0.513969L46.6526 11.0569C47.8651 11.5841 48.6031 12.9019 48.6031 14.3252Z" fill="url(#paint0_linear)"/>
<path opacity="0.15" d="M48.6033 15.4856V35.4118C48.6033 36.8351 47.8653 38.153 46.6002 38.8383L31.2074 47.7471L9.91064 35.57H21.1389L20.2427 37.8367H25.5142L26.4104 35.57H31.1547C32.9997 35.57 34.6339 34.832 35.8463 33.6195C36.0045 33.4614 36.1626 33.3032 36.3208 33.0924C37.2696 31.9327 37.7968 30.5094 37.7968 28.9279C37.7968 26.9247 36.9006 25.1324 35.4773 23.92C34.8448 23.3929 34.1067 22.9711 33.316 22.6549C33.8959 22.3386 34.423 21.9696 34.8975 21.4951C36.0045 20.3881 36.6898 18.8594 36.6898 17.1725C36.6898 15.9073 36.3208 14.6949 35.6355 13.746L37.3751 8.84357L48.6033 15.4856Z" fill="url(#paint1_linear)"/>
<path opacity="0.15" d="M29.8898 18.384C29.8898 19.0693 29.6262 19.7018 29.1518 20.1235C28.7301 20.5453 28.0975 20.8616 27.4122 20.8616H21.1391L22.1407 18.384H16.922L15.9204 20.8616L15.3405 22.3376L14.9188 23.3392L14.6025 24.1826L0.0532227 15.9591H27.4122C28.7828 15.9064 29.8898 17.0134 29.8898 18.384Z" fill="url(#paint2_linear)"/>
<path opacity="0.15" d="M28.6772 30.666H22.615L13.9697 25.7635H28.7299C30.1005 25.7635 31.2075 26.8706 31.2075 28.2411C31.2075 28.9264 30.9439 29.5063 30.4695 29.9807C29.995 30.4552 29.3624 30.666 28.6772 30.666Z" fill="url(#paint3_linear)"/>
<defs>
<linearGradient id="paint0_linear" x1="0.053242" y1="24.8667" x2="48.6195" y2="24.8667" gradientUnits="userSpaceOnUse">
<stop stop-color="#FCD44F"/>
<stop offset="1" stop-color="#FCAB42"/>
</linearGradient>
<linearGradient id="paint1_linear" x1="9.96389" y1="28.3011" x2="48.6197" y2="28.3011" gradientUnits="userSpaceOnUse">
<stop offset="0.1505" stop-color="#333333"/>
<stop offset="0.4816" stop-color="#353535" stop-opacity="0.6103"/>
<stop offset="0.6008" stop-color="#3C3C3C" stop-opacity="0.4699"/>
<stop offset="0.6859" stop-color="#474747" stop-opacity="0.3698"/>
<stop offset="0.7547" stop-color="#585858" stop-opacity="0.2888"/>
<stop offset="0.8135" stop-color="#6E6E6E" stop-opacity="0.2195"/>
<stop offset="0.8657" stop-color="#8A8A8A" stop-opacity="0.1581"/>
<stop offset="0.9128" stop-color="#AAAAAA" stop-opacity="0.1026"/>
<stop offset="0.9562" stop-color="#D0D0D0" stop-opacity="0.0516086"/>
<stop offset="0.9948" stop-color="#F9F9F9" stop-opacity="0.01"/>
<stop offset="1" stop-color="white" stop-opacity="0"/>
</linearGradient>
<linearGradient id="paint2_linear" x1="0.0536971" y1="20.0423" x2="29.8798" y2="20.0423" gradientUnits="userSpaceOnUse">
<stop offset="0.1505" stop-color="#333333"/>
<stop offset="0.4816" stop-color="#353535" stop-opacity="0.6103"/>
<stop offset="0.6008" stop-color="#3C3C3C" stop-opacity="0.4699"/>
<stop offset="0.6859" stop-color="#474747" stop-opacity="0.3698"/>
<stop offset="0.7547" stop-color="#585858" stop-opacity="0.2888"/>
<stop offset="0.8135" stop-color="#6E6E6E" stop-opacity="0.2195"/>
<stop offset="0.8657" stop-color="#8A8A8A" stop-opacity="0.1581"/>
<stop offset="0.9128" stop-color="#AAAAAA" stop-opacity="0.1026"/>
<stop offset="0.9562" stop-color="#D0D0D0" stop-opacity="0.0516086"/>
<stop offset="0.9948" stop-color="#F9F9F9" stop-opacity="0.01"/>
<stop offset="1" stop-color="white" stop-opacity="0"/>
</linearGradient>
<linearGradient id="paint3_linear" x1="13.9492" y1="28.2099" x2="31.1501" y2="28.2099" gradientUnits="userSpaceOnUse">
<stop offset="0.1505" stop-color="#333333"/>
<stop offset="0.4816" stop-color="#353535" stop-opacity="0.6103"/>
<stop offset="0.6008" stop-color="#3C3C3C" stop-opacity="0.4699"/>
<stop offset="0.6859" stop-color="#474747" stop-opacity="0.3698"/>
<stop offset="0.7547" stop-color="#585858" stop-opacity="0.2888"/>
<stop offset="0.8135" stop-color="#6E6E6E" stop-opacity="0.2195"/>
<stop offset="0.8657" stop-color="#8A8A8A" stop-opacity="0.1581"/>
<stop offset="0.9128" stop-color="#AAAAAA" stop-opacity="0.1026"/>
<stop offset="0.9562" stop-color="#D0D0D0" stop-opacity="0.0516086"/>
<stop offset="0.9948" stop-color="#F9F9F9" stop-opacity="0.01"/>
<stop offset="1" stop-color="white" stop-opacity="0"/>
</linearGradient>
</defs>
</svg>
