<svg width="579" height="492" viewBox="0 0 579 492" fill="none" xmlns="http://www.w3.org/2000/svg">
<g clip-path="url(#clip0)">
<g filter="url(#filter0_d)">
<rect x="306.51" width="128" height="128" rx="15" transform="rotate(45 306.51 0)" fill="#102131"/>
</g>
<path d="M343.086 91.2856C343.086 100.006 339.78 108.402 333.836 114.783C327.891 121.163 319.749 125.053 311.05 125.668C302.351 126.284 293.743 123.579 286.959 118.1C280.175 112.62 275.72 104.773 274.492 96.1395C273.264 87.506 275.354 78.7278 280.341 71.5741C285.328 64.4203 292.841 59.4227 301.366 57.5883C309.892 55.7538 318.795 57.219 326.283 61.6885C333.771 66.158 339.287 73.2996 341.719 81.6742C341.719 82.2127 342.05 82.7928 342.174 83.3728C342.795 85.9641 343.101 88.621 343.086 91.2856Z" fill="url(#paint0_linear)"/>
<path d="M335.67 84.8644C335.562 84.2873 335.41 83.7194 335.214 83.1658C333.178 76.4897 328.691 70.8313 322.655 67.3274C316.619 63.8236 309.48 62.7338 302.673 64.277C295.866 65.8202 289.895 69.8822 285.96 75.6468C282.025 81.4114 280.418 88.4515 281.46 95.3529C282.502 102.254 286.118 108.505 291.58 112.851C297.042 117.196 303.946 119.313 310.905 118.777C317.864 118.241 324.362 115.092 329.095 109.961C333.827 104.831 336.442 98.0997 336.415 91.1202C336.423 89.0123 336.172 86.9115 335.67 84.8644ZM308.617 113.864C304.382 113.87 300.23 112.699 296.621 110.483C293.013 108.267 290.09 105.093 288.18 101.314C286.269 97.5351 285.445 93.2999 285.8 89.0802C286.155 84.8606 287.674 80.8223 290.189 77.4154C292.703 74.0084 296.115 71.3664 300.042 69.784C303.97 68.2016 308.26 67.7409 312.434 68.4531C316.609 69.1652 320.503 71.0224 323.684 73.8177C326.865 76.6129 329.207 80.2364 330.45 84.2844C330.45 84.823 330.781 85.403 330.905 85.983C331.308 87.7214 331.503 89.5015 331.485 91.2859C331.431 97.315 328.997 103.079 324.715 107.323C320.432 111.567 314.646 113.948 308.617 113.947V113.864Z" fill="white"/>
<path d="M321.916 88.3443C321.808 87.7808 321.656 87.2267 321.46 86.6872C320.347 83.4656 318.063 80.7802 315.062 79.1636C312.061 77.547 308.562 77.1174 305.259 77.9599C301.956 78.8024 299.09 80.8554 297.23 83.7119C295.37 86.5684 294.652 90.0196 295.217 93.3811C295.783 96.7426 297.591 99.7688 300.283 101.859C302.975 103.95 306.355 104.953 309.752 104.668C313.149 104.383 316.314 102.833 318.621 100.323C320.928 97.8136 322.208 94.5288 322.206 91.1201C322.214 90.1869 322.117 89.2557 321.916 88.3443ZM308.617 100.4C306.918 100.407 305.249 99.9493 303.791 99.0764C302.333 98.2035 301.142 96.9487 300.345 95.4476C299.549 93.9465 299.178 92.2563 299.273 90.5597C299.367 88.8631 299.924 87.2246 300.882 85.8214C301.841 84.4181 303.164 83.3036 304.71 82.5983C306.256 81.8929 307.966 81.6235 309.654 81.8193C311.342 82.0151 312.944 82.6686 314.287 83.7092C315.631 84.7497 316.664 86.1376 317.276 87.7229C317.51 88.267 317.677 88.8373 317.773 89.4215C317.836 89.9859 317.836 90.5557 317.773 91.1201C317.773 93.5599 316.813 95.9016 315.099 97.6384C313.386 99.3753 311.057 100.367 308.617 100.4Z" fill="white"/>
<g style="mix-blend-mode:multiply" opacity="0.5">
<path d="M342.174 83.207L335.67 84.8641L330.905 86.0656L321.915 88.3441L317.772 89.4213L309.487 91.5341L309.031 89.8355L317.317 87.7227L321.46 86.687L330.45 84.367L335.214 82.9998L341.718 81.3427C341.884 82.047 342.05 82.627 342.174 83.207Z" fill="#9F191C"/>
</g>
<path d="M342.464 66.0142L309.694 91.2857C309.548 91.4226 309.356 91.4988 309.156 91.4988C308.956 91.4988 308.763 91.4226 308.617 91.2857C308.48 91.1398 308.404 90.9472 308.404 90.7471C308.404 90.547 308.48 90.3545 308.617 90.2085L341.429 64.8128C341.568 64.6787 341.753 64.6037 341.946 64.6037C342.14 64.6037 342.325 64.6787 342.464 64.8128C342.552 64.8867 342.622 64.9787 342.67 65.0825C342.718 65.1862 342.743 65.2992 342.743 65.4135C342.743 65.5279 342.718 65.6409 342.67 65.7446C342.622 65.8483 342.552 65.9403 342.464 66.0142Z" fill="#A87C4F"/>
<g style="mix-blend-mode:multiply">
<path d="M342.465 66.0143L309.695 91.2857C309.549 91.4226 309.356 91.4988 309.156 91.4988C308.956 91.4988 308.764 91.4226 308.618 91.2857L342.589 65.1028C342.667 65.2486 342.696 65.4151 342.674 65.5787C342.652 65.7422 342.578 65.8946 342.465 66.0143Z" fill="#A87C4F"/>
</g>
<path d="M351.33 65.3099L348.057 64.8128L350.584 65.8899L347.808 68.0442L344.494 67.5471L347.021 68.6242L344.245 70.7785L340.973 70.2814L343.5 71.3585L340.683 73.5543L335.173 71.11L334.758 70.9442L334.717 70.53L333.805 64.6057L336.581 62.4514L336.995 65.1443L337.368 61.8714L340.144 59.7171L340.558 62.41L340.931 59.1371L343.707 56.9828L344.121 59.6757L344.453 56.4028L347.311 54.1656L347.767 60.4628L347.808 60.9185L348.223 61.0843L354.188 63.1142L351.33 65.3099Z" fill="#FFD917"/>
<g style="mix-blend-mode:multiply" opacity="0.5">
<path d="M351.33 65.3099L348.057 64.8128L350.584 65.8899L347.808 68.0442L344.494 67.5471L347.021 68.6242L344.245 70.7785L340.973 70.2814L343.5 71.3585L340.683 73.5542L335.173 71.11L334.758 70.9442L347.808 60.9185L348.223 61.0843L354.188 63.1142L351.33 65.3099Z" fill="#FFA412"/>
</g>
<path d="M347.808 60.9185L348.222 61.0843L335.172 71.1514L334.799 70.9443L334.717 70.53L347.767 60.4628L347.808 60.9185Z" fill="#146385"/>
<path d="M228.843 55.8323L225.808 58.8672L229.003 62.0627L227.693 63.373L220.152 55.8323L224.943 51.0418L225.999 52.0983L222.519 55.5786L224.762 57.8211L227.797 54.7862L228.843 55.8323ZM235.969 47.9499C236.708 48.6888 237.229 49.4656 237.533 50.2805C237.833 51.0918 237.896 51.8859 237.719 52.6628C237.543 53.4327 237.146 54.1267 236.528 54.7448C235.917 55.3559 235.223 55.7529 234.446 55.9359C233.669 56.112 232.874 56.055 232.059 55.765C231.247 55.4715 230.479 54.9657 229.754 54.2476L229.329 53.8229C228.594 53.0875 228.074 52.3089 227.771 51.4872C227.47 50.662 227.408 49.8644 227.584 49.0945C227.76 48.3176 228.156 47.6219 228.77 47.0073C229.385 46.3927 230.077 45.9974 230.847 45.8213C231.617 45.6383 232.409 45.6953 233.224 45.9922C234.035 46.2857 234.811 46.7984 235.549 47.5304L235.969 47.9499ZM234.265 48.8666C233.43 48.031 232.63 47.5494 231.867 47.4216C231.108 47.2904 230.438 47.5149 229.858 48.0949C229.292 48.6611 229.071 49.3275 229.195 50.094C229.319 50.8536 229.784 51.6425 230.588 52.4608L231.023 52.8958C231.852 53.7245 232.653 54.2044 233.426 54.3356C234.203 54.4634 234.878 54.2407 235.451 53.6675C236.031 53.0875 236.256 52.4211 236.124 51.6684C235.997 50.9123 235.508 50.1095 234.659 49.2602L234.265 48.8666ZM240.713 44.5421L239.252 46.0026L242.158 48.908L240.848 50.2183L233.307 42.6777L235.959 40.026C236.829 39.1559 237.695 38.6795 238.558 38.5966C239.422 38.5138 240.223 38.8418 240.962 39.5806C241.466 40.0847 241.766 40.6302 241.863 41.2172C241.959 41.7972 241.882 42.3963 241.63 43.0143L246.467 44.4644L246.534 44.5318L245.131 45.9353L240.713 44.5421ZM238.201 44.9513L239.548 43.6047C239.99 43.1628 240.224 42.707 240.252 42.2375C240.276 41.7644 240.095 41.3346 239.708 40.9479C239.304 40.5439 238.876 40.3471 238.424 40.3575C237.975 40.3644 237.519 40.5923 237.057 41.0411L235.674 42.4239L238.201 44.9513ZM248.507 35.8258L245.41 38.9229L247.73 41.2431L251.351 37.623L252.397 38.6691L247.466 43.5995L239.926 36.0589L244.82 31.1647L245.876 32.2213L242.293 35.8051L244.374 37.8871L247.472 34.79L248.507 35.8258ZM255.463 31.7189C255.131 31.3874 254.758 31.2493 254.344 31.3046C253.933 31.3564 253.332 31.5946 252.542 32.0193C251.751 32.444 251.064 32.7236 250.481 32.8583C249.362 33.1138 248.456 32.8945 247.762 32.2005C247.154 31.5929 246.9 30.8454 247 29.958C247.104 29.0672 247.551 28.2265 248.342 27.4359C248.866 26.9111 249.431 26.5399 250.035 26.3224C250.639 26.1049 251.238 26.0582 251.832 26.1825C252.423 26.3034 252.935 26.5813 253.37 27.0164L252.065 28.3215C251.672 27.9279 251.24 27.7449 250.771 27.7725C250.301 27.7932 249.837 28.0332 249.377 28.4924C248.949 28.9205 248.708 29.3452 248.652 29.7664C248.601 30.1842 248.739 30.5571 249.067 30.8851C249.343 31.1613 249.702 31.2649 250.144 31.1958C250.582 31.1233 251.183 30.8816 251.946 30.4708C252.706 30.0564 253.376 29.7837 253.956 29.6525C254.532 29.5178 255.048 29.5126 255.504 29.6369C255.956 29.7578 256.376 30.0116 256.763 30.3983C257.391 31.0266 257.65 31.769 257.54 32.6252C257.429 33.4746 256.961 34.3119 256.136 35.137C255.59 35.6826 254.988 36.0848 254.329 36.3437C253.669 36.5958 253.034 36.6718 252.423 36.5716C251.815 36.468 251.275 36.1797 250.802 35.7067L252.112 34.3964C252.54 34.8246 253.013 35.0145 253.531 34.9661C254.049 34.9178 254.572 34.6295 255.1 34.1012C255.556 33.6455 255.806 33.2122 255.851 32.8013C255.896 32.3835 255.767 32.0227 255.463 31.7189ZM261.248 29.8182L259.943 31.1233L252.402 23.5827L253.707 22.2776L261.248 29.8182ZM267.659 21.4489C267.742 22.0773 267.633 22.7247 267.333 23.3911C267.033 24.0574 266.575 24.6979 265.961 25.3125C265.329 25.9443 264.626 26.3604 263.853 26.5606C263.079 26.7609 262.294 26.7281 261.496 26.4622C260.699 26.1894 259.939 25.7026 259.218 25.0017L258.627 24.4113C257.488 23.2719 256.871 22.1101 256.778 20.9259C256.682 19.7381 257.122 18.6557 258.099 17.6786C258.938 16.8396 259.811 16.3804 260.719 16.301C261.627 16.2216 262.522 16.522 263.402 17.2021L262.118 18.4865C261.065 17.7235 260.084 17.796 259.176 18.7041C258.589 19.291 258.354 19.9505 258.472 20.6824C258.589 21.4075 259.052 22.1844 259.86 23.013L260.44 23.593C261.255 24.4079 262.059 24.8705 262.853 24.981C263.647 25.0846 264.35 24.8308 264.961 24.2197C265.631 23.5499 265.955 22.9215 265.935 22.3345L264.459 20.8585L262.905 22.4122L261.911 21.4179L264.769 18.559L267.659 21.4489ZM276.065 15.0011L274.76 16.3062L271.409 12.9554L268.037 16.3269L271.388 19.6777L270.078 20.988L262.537 13.4474L263.848 12.1371L266.986 15.2756L270.358 11.904L267.219 8.76555L268.524 7.46044L276.065 15.0011ZM276.427 1.67031L274.076 4.02158L280.56 10.5057L279.26 11.8056L272.776 5.32151L270.446 7.65206L269.389 6.59555L275.371 0.613797L276.427 1.67031Z" fill="#FFE840"/>
</g>
<g clip-path="url(#clip1)">
<g filter="url(#filter1_d)">
<rect x="141.421" y="56" width="200" height="200" rx="15" transform="rotate(45 141.421 56)" fill="#102131"/>
</g>
<path d="M203.564 198.317C203.413 211.971 198.779 225.197 190.375 235.959C189.634 236.905 188.89 237.823 188.085 238.689C186.242 240.795 184.249 242.764 182.121 244.582C178.09 248.041 173.64 250.979 168.876 253.328C160.264 257.537 150.792 259.688 141.207 259.614C139.357 259.576 137.53 259.481 135.723 259.298C135.261 259.271 134.801 259.216 134.345 259.134C133.527 259.206 132.68 258.939 131.873 258.81L129.998 258.491L128.927 258.272L126.576 257.711L124.83 257.238L123.78 256.932L122.2 256.417C118.955 255.321 115.804 253.962 112.78 252.353L111.048 251.397L109.009 250.182C107.684 249.332 106.388 248.479 105.152 247.678C95.8648 240.796 88.6882 231.452 84.4345 220.703C84.3013 220.449 84.1923 220.183 84.1092 219.908C83.8575 219.305 83.6622 218.697 83.4362 218.063C83.2103 217.429 82.929 216.487 82.66 215.687C81.7311 212.776 81.0333 209.796 80.5732 206.776C80.4843 205.76 80.3931 204.717 80.3018 203.673C80.1192 201.586 79.9366 199.499 80.0336 197.36C80.1612 180.969 86.7918 165.3 98.468 153.797C110.144 142.294 125.91 135.897 142.301 136.014C143.344 135.923 144.436 136.055 145.463 136.107L147.982 136.313C150.397 136.551 152.794 136.939 155.16 137.475L157.134 137.956C162.168 139.224 167.017 141.14 171.558 143.657L173.353 144.693C173.952 145.038 174.525 145.415 175.098 145.791C176.269 146.512 177.361 147.298 178.483 148.109L180.096 149.332C181.439 150.38 182.732 151.517 183.968 152.659C184.556 153.204 185.115 153.752 185.677 154.328C187.772 156.428 189.707 158.681 191.467 161.068L192.148 162.032L193.253 163.612C194.367 165.305 195.428 167.031 196.383 168.851C196.859 169.747 197.276 170.62 197.729 171.575C198.116 172.422 198.505 173.297 198.878 174.316C199.565 175.99 200.197 177.696 200.719 179.441C200.741 179.695 200.909 179.993 200.993 180.298C201.239 181.157 201.487 182.045 201.719 183.076C201.951 184.107 202.214 185.164 202.421 186.226C202.628 187.288 202.753 188.072 202.865 189.029C202.977 189.985 203.097 191.68 203.213 193.005C203.292 193.908 203.374 194.848 203.46 195.825C203.563 196.356 203.565 197.351 203.564 198.317Z" fill="#FFD917"/>
<g style="mix-blend-mode:screen" opacity="0.5">
<path d="M82.4247 204.227C82.5006 195.373 84.3217 186.62 87.7839 178.471C91.2461 170.321 96.2814 162.934 102.602 156.733C108.922 150.531 116.403 145.637 124.616 142.33C132.83 139.023 141.615 137.368 150.469 137.46C152.774 137.485 155.031 137.629 157.24 137.862C152.356 136.627 147.338 136.006 142.301 136.015C132.174 135.948 122.186 138.368 113.212 143.061C104.238 147.755 96.5537 154.579 90.8322 162.935C85.1107 171.29 81.5272 180.923 80.3962 190.986C79.2651 201.05 80.621 211.237 84.345 220.655C83.0451 215.276 82.4004 209.76 82.4247 204.227Z" fill="white"/>
</g>
<g style="mix-blend-mode:multiply">
<path d="M203.563 198.318C203.412 211.972 198.778 225.198 190.374 235.96C189.632 236.906 188.888 237.823 188.083 238.69C186.241 240.796 184.248 242.765 182.12 244.582C178.089 248.041 173.639 250.98 168.875 253.329C160.263 257.537 150.791 259.689 141.206 259.614C139.355 259.577 137.528 259.481 135.722 259.298C135.26 259.271 134.799 259.217 134.344 259.135C133.526 259.206 132.678 258.939 131.871 258.811L129.996 258.492L128.926 258.273L126.575 257.711L124.828 257.239L123.779 256.933L122.199 256.418C118.953 255.322 115.803 253.962 112.778 252.354L111.046 251.397L109.008 250.183C107.683 249.333 106.386 248.48 105.151 247.679C114.072 252.567 124.062 255.178 134.234 255.279C146.81 255.39 159.114 251.614 169.464 244.468C174.589 241.009 179.146 236.775 182.972 231.919C183.309 231.548 183.616 231.152 183.896 230.786C189.736 223.176 193.709 214.302 195.498 204.877C195.979 202.417 196.311 199.93 196.494 197.43C196.56 196.231 196.595 195.006 196.63 193.781C196.727 184.034 194.516 174.402 190.176 165.673C185.837 156.945 179.492 149.368 171.662 143.563L173.457 144.599C174.056 144.945 174.629 145.321 175.202 145.697C176.373 146.419 177.465 147.204 178.587 148.015L180.2 149.238C181.542 150.286 182.836 151.423 184.072 152.565C184.66 153.111 185.219 153.658 185.781 154.235C187.876 156.334 189.811 158.587 191.571 160.974L192.252 161.938L193.357 163.518C194.471 165.211 195.531 166.937 196.486 168.757C196.963 169.653 197.38 170.526 197.833 171.481C198.22 172.328 198.609 173.204 198.982 174.222C199.692 175.894 200.307 177.605 200.823 179.347C200.845 179.601 201.013 179.899 201.097 180.204C201.343 181.063 201.591 181.951 201.823 182.982C202.055 184.013 202.318 185.07 202.525 186.132C202.732 187.194 202.857 187.979 202.969 188.935C203.081 189.891 203.201 191.586 203.317 192.911C203.396 193.814 203.478 194.754 203.564 195.732C203.562 196.357 203.563 197.351 203.563 198.318Z" fill="#FAC21D"/>
</g>
<path d="M164.911 239.854C188.182 227.044 196.663 197.795 183.854 174.524C171.045 151.252 141.795 142.771 118.524 155.581C95.2526 168.39 86.7715 197.639 99.5809 220.911C112.39 244.182 141.64 252.663 164.911 239.854Z" fill="#F8AB30"/>
<g style="mix-blend-mode:multiply" opacity="0.7">
<path d="M161.748 207.915C161.806 200.777 157.487 196.238 147.732 193.881C140.649 192.17 138.295 190.273 138.338 186.547C138.381 182.82 141.088 181.276 144.615 181.309C145.607 181.267 146.597 181.428 147.524 181.783C148.452 182.138 149.296 182.68 150.007 183.373C150.717 184.067 151.278 184.899 151.654 185.818C152.031 186.737 152.216 187.723 152.197 188.716L161.27 188.803C161.132 185.487 159.851 182.321 157.646 179.841C155.44 177.362 152.444 175.721 149.167 175.198L149.21 168.545L140.196 168.481L140.139 175.306C133.871 176.736 129.05 181.079 129 187.648C128.918 195.811 134.625 199.006 143.691 201.282C150.224 202.87 152.549 205.082 152.477 208.811C152.405 212.54 149.213 214.382 145.174 214.338C142.993 214.443 140.85 213.739 139.156 212.361C137.462 210.983 136.337 209.028 135.996 206.871L126.951 206.782C127.615 214.368 132.272 218.877 139.707 220.386L139.648 227.183L148.665 227.275L148.746 220.732C155.949 219.59 161.698 215.137 161.748 207.915Z" fill="#F8AB30"/>
</g>
<g style="mix-blend-mode:multiply" opacity="0.7">
<path d="M97.8229 197.366C97.944 184.98 102.836 173.117 111.482 164.247C120.128 155.376 131.861 150.18 144.24 149.741C143.563 149.8 142.869 149.662 142.159 149.667C135.696 149.371 129.239 150.381 123.176 152.637C117.112 154.892 111.565 158.348 106.867 162.796C102.169 167.244 98.4158 172.594 95.8323 178.525C93.2488 184.457 91.8877 190.849 91.8306 197.318C91.7735 203.788 93.0214 210.203 95.4998 216.179C97.9782 222.155 101.636 227.57 106.255 232.101C110.874 236.631 116.359 240.184 122.382 242.546C128.405 244.909 134.842 246.033 141.31 245.85C142.015 245.789 142.692 245.73 143.397 245.668C131.05 245.012 119.429 239.63 110.944 230.637C102.459 221.644 97.7605 209.73 97.8229 197.366Z" fill="#F8AB30"/>
</g>
<path d="M159.047 207.896C159.132 200.755 154.785 196.219 145.031 193.862C137.973 192.12 135.593 190.254 135.634 186.499C135.675 182.745 138.387 181.257 141.913 181.289C142.905 181.247 143.896 181.409 144.823 181.764C145.75 182.119 146.595 182.66 147.305 183.354C148.016 184.048 148.576 184.88 148.953 185.799C149.33 186.718 149.514 187.704 149.495 188.697L158.568 188.784C158.455 185.451 157.184 182.261 154.974 179.763C152.764 177.264 149.753 175.614 146.458 175.095L146.501 168.441L137.487 168.377L137.431 175.202C131.162 176.632 126.341 180.975 126.291 187.544C126.212 195.735 131.919 198.93 140.985 201.206C147.517 202.795 149.842 205.007 149.799 208.733C149.756 212.46 146.535 214.304 142.468 214.262C140.284 214.38 138.134 213.681 136.437 212.301C134.741 210.921 133.618 208.958 133.289 206.796L124.216 206.709C124.88 214.295 129.537 218.804 136.973 220.313L136.914 227.11L145.958 227.2L146.011 220.659C153.248 219.571 158.994 215.09 159.047 207.896Z" fill="#FFD917"/>
<path d="M34.74 148.326L33.4349 149.631L30.0841 146.28L26.7125 149.652L30.0634 153.003L28.7531 154.313L21.2124 146.772L22.5227 145.462L25.6612 148.6L29.0327 145.229L25.8943 142.09L27.1994 140.785L34.74 148.326ZM37.6765 145.389L36.3714 146.695L28.8308 139.154L30.1359 137.849L37.6765 145.389ZM44.0881 137.02C44.171 137.649 44.0622 138.296 43.7618 138.962C43.4615 139.629 43.004 140.269 42.3894 140.884C41.7576 141.516 41.0549 141.932 40.2815 142.132C39.5081 142.332 38.7227 142.299 37.9251 142.033C37.1275 141.761 36.3679 141.274 35.6463 140.573L35.0559 139.983C33.9165 138.843 33.3002 137.681 33.207 136.497C33.1103 135.309 33.5506 134.227 34.5277 133.25C35.3667 132.411 36.2402 131.952 37.1482 131.872C38.0563 131.793 38.9505 132.093 39.831 132.773L38.5466 134.058C37.4935 133.295 36.513 133.367 35.6049 134.275C35.0179 134.862 34.7832 135.522 34.9006 136.254C35.0179 136.979 35.4806 137.756 36.2885 138.584L36.8686 139.164C37.6834 139.979 38.4879 140.442 39.282 140.552C40.0761 140.656 40.7787 140.402 41.3898 139.791C42.0597 139.121 42.3842 138.493 42.3635 137.906L40.8875 136.43L39.3338 137.983L38.3394 136.989L41.1982 134.13L44.0881 137.02ZM52.4936 130.572L51.1885 131.877L47.8377 128.527L44.4662 131.898L47.817 135.249L46.5067 136.559L38.9661 129.019L40.2764 127.708L43.4148 130.847L46.7864 127.475L43.6479 124.337L44.953 123.032L52.4936 130.572ZM55.1971 122.265L57.9989 125.067L56.6886 126.377L49.148 118.837L52.0327 115.952C52.8752 115.11 53.7625 114.661 54.6947 114.605C55.6304 114.547 56.459 114.878 57.1806 115.6C57.9195 116.339 58.251 117.157 58.175 118.055C58.1025 118.949 57.6295 119.833 56.756 120.706L55.1971 122.265ZM54.1457 121.214L55.7202 119.639C56.1863 119.173 56.4331 118.709 56.4608 118.246C56.4849 117.78 56.2898 117.34 55.8755 116.926C55.4681 116.518 55.0193 116.318 54.529 116.325C54.0353 116.328 53.5674 116.544 53.1255 116.972L51.5148 118.583L54.1457 121.214ZM63.3385 113.917L61.878 115.377L64.7834 118.283L63.4731 119.593L55.9325 112.052L58.5841 109.401C59.4542 108.53 60.3208 108.054 61.184 107.971C62.0472 107.888 62.8482 108.216 63.5871 108.955C64.0912 109.459 64.3915 110.005 64.4882 110.592C64.5849 111.172 64.5072 111.771 64.2552 112.389L69.0923 113.839L69.1597 113.906L67.7562 115.31L63.3385 113.917ZM60.8267 114.326L62.1732 112.979C62.6151 112.537 62.8499 112.082 62.8775 111.612C62.9017 111.139 62.7204 110.709 62.3337 110.322C61.9298 109.918 61.5017 109.722 61.0494 109.732C60.6005 109.739 60.1448 109.967 59.6821 110.416L58.2993 111.798L60.8267 114.326ZM72.5364 103.383C73.2753 104.121 73.7966 104.898 74.1004 105.713C74.4008 106.524 74.463 107.319 74.2869 108.095C74.1108 108.865 73.7137 109.559 73.0957 110.177C72.4846 110.789 71.7906 111.186 71.0138 111.369C70.2369 111.545 69.4411 111.488 68.6262 111.198C67.8149 110.904 67.0466 110.398 66.3216 109.68L65.8969 109.256C65.1615 108.52 64.6419 107.742 64.338 106.92C64.0376 106.095 63.9755 105.297 64.1516 104.527C64.3277 103.75 64.723 103.055 65.3376 102.44C65.9521 101.825 66.6444 101.43 67.4143 101.254C68.1843 101.071 68.9767 101.128 69.7915 101.425C70.6029 101.718 71.378 102.231 72.1169 102.963L72.5364 103.383ZM70.8325 104.299C69.9969 103.464 69.1977 102.982 68.4346 102.854C67.675 102.723 67.0052 102.948 66.4252 103.528C65.8589 104.094 65.6379 104.76 65.7622 105.527C65.8865 106.286 66.3509 107.075 67.1554 107.893L67.5904 108.328C68.4191 109.157 69.2201 109.637 69.9935 109.768C70.7703 109.896 71.4453 109.673 72.0185 109.1C72.5985 108.52 72.823 107.854 72.6918 107.101C72.564 106.345 72.0755 105.542 71.2261 104.693L70.8325 104.299ZM78.5647 98.1103L75.5298 101.145L78.7253 104.341L77.415 105.651L69.8744 98.1103L74.665 93.3197L75.7215 94.3763L72.2412 97.8565L74.4837 100.099L77.5186 97.0642L78.5647 98.1103ZM84.6294 98.4366L83.3242 99.7417L75.7836 92.2011L77.0887 90.896L84.6294 98.4366ZM85.0489 85.0489L82.6976 87.4001L89.1817 93.8843L87.8818 95.1842L81.3977 88.7001L79.0671 91.0306L78.0106 89.9741L83.9923 83.9924L85.0489 85.0489ZM94.4436 84.7381C94.1121 84.4067 93.7392 84.2686 93.3249 84.3238C92.914 84.3756 92.3133 84.6138 91.5226 85.0385C90.732 85.4632 90.0449 85.7429 89.4614 85.8775C88.3427 86.133 87.4364 85.9138 86.7424 85.2198C86.1347 84.6121 85.881 83.8646 85.9811 82.9773C86.0847 82.0865 86.5318 81.2458 87.3224 80.4551C87.8472 79.9303 88.4118 79.5591 89.016 79.3416C89.6202 79.1241 90.2192 79.0775 90.8131 79.2018C91.4035 79.3226 91.9162 79.6006 92.3513 80.0356L91.0461 81.3407C90.6525 80.9471 90.221 80.7641 89.7514 80.7917C89.2818 80.8124 88.8174 81.0524 88.3582 81.5116C87.9301 81.9397 87.6884 82.3644 87.6332 82.7856C87.5814 83.2034 87.7195 83.5763 88.0475 83.9043C88.3237 84.1805 88.6828 84.2841 89.1247 84.2151C89.5632 84.1425 90.164 83.9009 90.927 83.49C91.6866 83.0757 92.3564 82.8029 92.9365 82.6717C93.5131 82.5371 94.0293 82.5319 94.485 82.6562C94.9373 82.777 95.3568 83.0308 95.7435 83.4175C96.3719 84.0459 96.6308 84.7882 96.5204 85.6445C96.4099 86.4938 95.942 87.3311 95.1168 88.1563C94.5713 88.7018 93.9688 89.104 93.3094 89.363C92.6499 89.615 92.0146 89.691 91.4035 89.5909C90.7958 89.4873 90.2555 89.199 89.7825 88.726L91.0928 87.4157C91.5209 87.8438 91.9939 88.0337 92.5118 87.9854C93.0297 87.937 93.5528 87.6487 94.081 87.1205C94.5368 86.6647 94.7871 86.2314 94.832 85.8205C94.8769 85.4028 94.7474 85.042 94.4436 84.7381Z" fill="#EBA900"/>
</g>
<g filter="url(#filter2_d)">
<rect x="271.51" y="272" width="128" height="128" rx="15" transform="rotate(45 271.51 272)" fill="#102131"/>
</g>
<path d="M304.86 375.313L308 366.022L301.721 361.991C302.05 358.695 301.821 355.367 301.042 352.148L306.77 347.311L302.527 338.529L295.229 340.141C293.137 337.563 290.627 335.355 287.804 333.607L288.441 326.182L279.149 323L274.906 329.322C271.613 328.979 268.285 329.194 265.063 329.958L260.311 324.23L251.486 328.473L253.098 335.771C250.544 337.875 248.351 340.383 246.607 343.196L239.14 342.559L236 351.851L242.279 355.882C241.95 359.177 242.179 362.505 242.958 365.725L237.188 370.562L241.431 379.344L248.728 377.732C250.821 380.31 253.33 382.518 256.153 384.266L255.517 391.691L264.766 394.873L269.009 388.551C272.316 388.894 275.658 388.679 278.895 387.915L283.689 393.642L292.514 389.4L290.902 382.06C293.454 379.97 295.647 377.476 297.393 374.677L304.86 375.313ZM266.124 376.417C262.673 375.251 259.646 373.088 257.424 370.201C255.203 367.314 253.888 363.834 253.645 360.199C253.402 356.565 254.243 352.941 256.06 349.784C257.877 346.628 260.59 344.081 263.855 342.466C267.12 340.852 270.79 340.241 274.402 340.713C278.014 341.185 281.404 342.717 284.145 345.116C286.886 347.515 288.854 350.673 289.8 354.19C290.746 357.707 290.627 361.426 289.459 364.876C287.884 369.493 284.545 373.299 280.173 375.462C275.8 377.624 270.749 377.968 266.124 376.417Z" fill="url(#paint1_linear)"/>
<path d="M281.863 356.179C282.468 358.472 282.26 360.905 281.274 363.062C280.289 365.219 278.587 366.969 276.457 368.014C274.328 369.059 271.902 369.334 269.593 368.793C267.284 368.252 265.233 366.928 263.789 365.046C263.01 364.132 262.471 363.039 262.219 361.864C261.597 359.567 261.793 357.125 262.773 354.956C263.753 352.786 265.455 351.025 267.59 349.973C269.725 348.92 272.159 348.642 274.476 349.186C276.793 349.73 278.85 351.062 280.293 352.954C281.065 353.889 281.603 354.995 281.863 356.179Z" fill="url(#paint2_linear)"/>
<path d="M175.886 353.18L174.581 354.485L171.23 351.135L167.858 354.506L171.209 357.857L169.899 359.167L162.358 351.627L163.669 350.316L166.807 353.455L170.179 350.083L167.04 346.945L168.345 345.64L175.886 353.18ZM178.822 350.244L177.517 351.549L169.977 344.008L171.282 342.703L178.822 350.244ZM185.234 341.874C185.317 342.503 185.208 343.15 184.908 343.817C184.607 344.483 184.15 345.123 183.535 345.738C182.903 346.37 182.201 346.786 181.427 346.986C180.654 347.186 179.869 347.154 179.071 346.888C178.273 346.615 177.514 346.128 176.792 345.427L176.202 344.837C175.062 343.697 174.446 342.536 174.353 341.351C174.256 340.164 174.696 339.081 175.674 338.104C176.513 337.265 177.386 336.806 178.294 336.727C179.202 336.647 180.096 336.947 180.977 337.628L179.692 338.912C178.639 338.149 177.659 338.222 176.751 339.13C176.164 339.717 175.929 340.376 176.046 341.108C176.164 341.833 176.626 342.61 177.434 343.439L178.014 344.019C178.829 344.833 179.634 345.296 180.428 345.407C181.222 345.51 181.925 345.256 182.536 344.645C183.206 343.975 183.53 343.347 183.509 342.76L182.033 341.284L180.48 342.838L179.485 341.843L182.344 338.985L185.234 341.874ZM193.639 335.427L192.334 336.732L188.984 333.381L185.612 336.752L188.963 340.103L187.653 341.414L180.112 333.873L181.422 332.563L184.561 335.701L187.932 332.33L184.794 329.191L186.099 327.886L193.639 335.427ZM196.488 319.61L194.137 321.961L200.621 328.445L199.321 329.745L192.837 323.261L190.506 325.592L189.45 324.535L195.431 318.553L196.488 319.61ZM205.007 317.326L201.91 320.423L204.231 322.743L207.851 319.123L208.897 320.169L203.966 325.1L196.426 317.559L201.32 312.665L202.376 313.721L198.793 317.305L200.875 319.387L203.972 316.29L205.007 317.326ZM213.263 310.894C213.991 311.774 214.323 312.699 214.257 313.67C214.188 314.636 213.724 315.55 212.864 316.409C212.263 317.01 211.592 317.398 210.849 317.575C210.107 317.744 209.349 317.69 208.576 317.414C207.802 317.138 207.063 316.658 206.359 315.974L205.655 315.27C204.944 314.559 204.443 313.806 204.153 313.012C203.863 312.218 203.806 311.439 203.982 310.676C204.161 309.91 204.56 309.217 205.178 308.599C206.01 307.767 206.906 307.324 207.866 307.268C208.826 307.213 209.76 307.557 210.668 308.299L209.363 309.604C208.759 309.124 208.21 308.893 207.716 308.91C207.222 308.92 206.73 309.171 206.24 309.661C205.67 310.231 205.441 310.878 205.551 311.603C205.662 312.321 206.116 313.086 206.913 313.897L207.581 314.566C208.396 315.38 209.163 315.857 209.881 315.995C210.602 316.13 211.245 315.916 211.807 315.353C212.322 314.838 212.593 314.336 212.621 313.846C212.648 313.355 212.427 312.806 211.958 312.199L213.263 310.894ZM222.88 306.186L221.575 307.491L218.224 304.14L214.853 307.512L218.204 310.863L216.893 312.173L209.353 304.632L210.663 303.322L213.801 306.46L217.173 303.089L214.034 299.95L215.34 298.645L222.88 306.186ZM230.416 298.65L229.105 299.961L220.394 297.972L225.744 303.322L224.434 304.632L216.893 297.092L218.204 295.781L226.946 297.78L221.575 292.41L222.875 291.11L230.416 298.65ZM234.409 287.51C235.147 288.249 235.669 289.026 235.973 289.841C236.273 290.652 236.335 291.446 236.159 292.223C235.983 292.993 235.586 293.687 234.968 294.305C234.357 294.916 233.663 295.313 232.886 295.496C232.109 295.673 231.313 295.616 230.498 295.326C229.687 295.032 228.919 294.526 228.194 293.808L227.769 293.383C227.034 292.648 226.514 291.869 226.21 291.048C225.91 290.223 225.848 289.425 226.024 288.655C226.2 287.878 226.595 287.182 227.21 286.568C227.824 285.953 228.517 285.558 229.287 285.382C230.057 285.199 230.849 285.256 231.664 285.553C232.475 285.846 233.25 286.359 233.989 287.091L234.409 287.51ZM232.705 288.427C231.869 287.592 231.07 287.11 230.307 286.982C229.547 286.851 228.877 287.075 228.297 287.655C227.731 288.222 227.51 288.888 227.634 289.655C227.759 290.414 228.223 291.203 229.028 292.021L229.463 292.456C230.291 293.285 231.092 293.765 231.866 293.896C232.643 294.024 233.318 293.801 233.891 293.228C234.471 292.648 234.695 291.982 234.564 291.229C234.436 290.473 233.948 289.67 233.098 288.821L232.705 288.427ZM239.551 287.422L242.975 283.999L244.021 285.045L239.287 289.779L231.747 282.238L233.057 280.928L239.551 287.422ZM247.139 274.78C247.877 275.519 248.399 276.296 248.703 277.111C249.003 277.922 249.065 278.716 248.889 279.493C248.713 280.263 248.316 280.957 247.698 281.575C247.087 282.186 246.393 282.583 245.616 282.766C244.839 282.943 244.043 282.886 243.228 282.596C242.417 282.302 241.649 281.796 240.924 281.078L240.499 280.653C239.764 279.918 239.244 279.139 238.94 278.318C238.64 277.493 238.578 276.695 238.754 275.925C238.93 275.148 239.325 274.452 239.94 273.838C240.554 273.223 241.247 272.828 242.017 272.652C242.787 272.469 243.579 272.526 244.394 272.823C245.205 273.116 245.98 273.629 246.719 274.361L247.139 274.78ZM245.435 275.697C244.599 274.862 243.8 274.38 243.037 274.252C242.277 274.121 241.607 274.345 241.027 274.925C240.461 275.492 240.24 276.158 240.364 276.925C240.489 277.684 240.953 278.473 241.758 279.291L242.193 279.726C243.021 280.555 243.822 281.035 244.596 281.166C245.373 281.294 246.048 281.071 246.621 280.498C247.201 279.918 247.425 279.252 247.294 278.499C247.166 277.743 246.678 276.94 245.828 276.091L245.435 275.697ZM256.818 270.29C256.901 270.919 256.792 271.566 256.492 272.232C256.192 272.899 255.734 273.539 255.119 274.154C254.488 274.786 253.785 275.202 253.012 275.402C252.238 275.602 251.453 275.569 250.655 275.304C249.858 275.031 249.098 274.544 248.376 273.843L247.786 273.253C246.647 272.113 246.03 270.951 245.937 269.767C245.84 268.579 246.281 267.497 247.258 266.52C248.097 265.681 248.97 265.222 249.878 265.142C250.786 265.063 251.681 265.363 252.561 266.043L251.277 267.328C250.224 266.565 249.243 266.637 248.335 267.545C247.748 268.132 247.513 268.792 247.631 269.524C247.748 270.249 248.211 271.026 249.019 271.854L249.599 272.434C250.413 273.249 251.218 273.712 252.012 273.822C252.806 273.926 253.509 273.672 254.12 273.061C254.79 272.391 255.114 271.763 255.094 271.176L253.618 269.7L252.064 271.254L251.069 270.259L253.928 267.4L256.818 270.29ZM257.73 263.402L255.891 258.094L257.341 256.644L259.579 263.936L262.355 266.712L261.039 268.027L258.263 265.251L250.966 263.019L252.421 261.564L257.73 263.402Z" fill="#EBA900"/>
<g clip-path="url(#clip2)">
<g filter="url(#filter3_d)">
<rect x="437.421" y="115" width="200" height="200" rx="15" transform="rotate(45 437.421 115)" fill="#102131"/>
</g>
<path d="M482.018 230.831C482.053 230.332 482.053 229.83 482.018 229.33C482.018 217.781 477.43 206.706 469.264 198.54C461.098 190.374 450.023 185.786 438.474 185.786C426.926 185.786 415.851 190.374 407.685 198.54C399.519 206.706 394.931 217.781 394.931 229.33V230.831C395.383 239.025 397.477 247.045 401.088 254.414C404.699 261.784 409.754 268.353 415.952 273.731C415.952 273.731 423.102 278.808 423.102 294.681H453.99C453.99 278.808 461.14 273.731 461.14 273.731C467.338 268.353 472.392 261.784 476.003 254.414C479.614 247.045 481.708 239.025 482.161 230.831H482.018Z" fill="#FFE870"/>
<path d="M434.899 293.608H432.54C433.189 282.574 432.974 271.505 431.896 260.504H429.179C425.604 259.86 423.888 255.785 423.459 252.496C423.03 249.207 423.459 246.847 425.533 245.846C426.462 245.417 428.107 245.346 430.252 247.705C432.393 250.816 433.652 254.448 433.898 258.216H443.694C443.958 254.44 445.243 250.807 447.412 247.705C449.557 245.346 451.13 245.417 452.131 245.846C453.132 246.275 454.49 249.922 454.133 252.496C453.775 255.07 451.988 259.646 448.484 260.504H445.767C444.69 271.505 444.474 282.574 445.124 293.608H442.764C442.764 293.608 442.192 283.813 442.764 273.445C442.844 269.071 443.154 264.703 443.694 260.361H434.542C435.054 264.705 435.34 269.072 435.4 273.445C434.899 283.813 434.899 293.465 434.899 293.608ZM446.125 257.858H448.127C450.2 257.358 451.487 254.498 451.845 251.852C452.202 249.207 451.845 247.848 451.13 247.634C450.415 247.419 450.272 247.634 449.128 248.921C447.274 251.617 446.142 254.743 445.839 258.001L446.125 257.858ZM429.537 257.858H431.539C431.298 254.676 430.266 251.604 428.536 248.921C427.392 247.705 426.748 247.562 426.534 247.634C426.319 247.705 425.533 249.493 425.819 251.852C426.105 254.212 427.106 257.501 429.251 258.001L429.537 257.858Z" fill="url(#paint3_linear)"/>
<path d="M440.549 318.061H438.547H436.545H431.897C431.897 318.061 433.041 322.065 434.185 322.065H442.908C443.981 322.065 445.196 318.061 445.196 318.061H440.549Z" fill="#231F20"/>
<path d="M451.559 312.27C451.559 312.27 450.915 313.271 450.2 314.629C449.638 315.785 449.16 316.98 448.77 318.204C448.677 318.551 448.472 318.857 448.188 319.077C447.904 319.296 447.556 319.417 447.197 319.42H429.894C429.526 319.421 429.167 319.303 428.871 319.084C428.575 318.865 428.357 318.557 428.25 318.204C427.915 316.971 427.46 315.774 426.891 314.629C426.176 313.271 425.533 312.27 425.533 312.27H451.559Z" fill="#A3A6A8"/>
<g style="mix-blend-mode:multiply" opacity="0.5">
<path d="M451.559 312.27C451.559 312.27 450.916 313.271 450.201 314.629C449.638 315.785 449.161 316.98 448.771 318.204C448.677 318.551 448.473 318.857 448.189 319.077C447.905 319.296 447.557 319.417 447.198 319.42H440.548C441.12 316.774 442.193 313.342 442.193 313.342L444.266 312.27H451.559Z" fill="#A3A6A8"/>
</g>
<g style="mix-blend-mode:multiply" opacity="0.5">
<path d="M451.559 312.27C451.559 312.27 450.915 313.271 450.2 314.629H426.891C426.176 313.271 425.533 312.27 425.533 312.27H451.559Z" fill="#A3A6A8"/>
</g>
<g style="mix-blend-mode:multiply" opacity="0.3">
<path d="M482.018 230.831C482.053 230.331 482.053 229.83 482.018 229.33C482.022 220.393 479.281 211.671 474.166 204.344C469.051 197.016 461.808 191.437 453.418 188.36C459.174 192.764 463.839 198.434 467.051 204.931C470.262 211.429 471.934 218.579 471.936 225.826C471.936 226.327 471.936 226.899 471.936 227.471C471.477 236.399 469.22 245.142 465.301 253.177C461.382 261.212 455.881 268.373 449.128 274.232C449.128 274.232 441.978 279.308 441.549 294.967H454.061C454.061 279.094 461.211 274.017 461.211 274.017C467.409 268.639 472.464 262.07 476.075 254.7C479.686 247.331 481.78 239.311 482.232 231.117L482.018 230.831Z" fill="#C17711"/>
</g>
<path d="M453.633 313.7H423.46C422.417 313.7 421.417 313.286 420.68 312.548C419.942 311.811 419.528 310.811 419.528 309.768C419.528 308.725 419.942 307.725 420.68 306.987C421.417 306.25 422.417 305.835 423.46 305.835H453.633C454.676 305.835 455.677 306.25 456.414 306.987C457.151 307.725 457.566 308.725 457.566 309.768C457.566 310.811 457.151 311.811 456.414 312.548C455.677 313.286 454.676 313.7 453.633 313.7Z" fill="#E6E7E8"/>
<g style="mix-blend-mode:multiply" opacity="0.5">
<path d="M453.633 305.477H442.05C442.731 305.887 443.299 306.462 443.699 307.15C444.099 307.837 444.319 308.615 444.338 309.41C444.34 310.209 444.129 310.995 443.727 311.686C443.324 312.377 442.746 312.949 442.05 313.342H453.49C454.533 313.342 455.533 312.928 456.27 312.191C457.008 311.453 457.422 310.453 457.422 309.41C457.423 308.391 457.028 307.412 456.321 306.678C455.614 305.945 454.651 305.514 453.633 305.477Z" fill="#A3A6A8"/>
</g>
<g style="mix-blend-mode:multiply" opacity="0.5">
<path d="M457.136 307.694H419.884L420.599 306.55C420.966 306.185 421.401 305.896 421.88 305.7C422.358 305.504 422.871 305.404 423.388 305.406H453.561C454.313 305.405 455.05 305.621 455.683 306.026C456.317 306.432 456.821 307.01 457.136 307.694Z" fill="#A3A6A8"/>
</g>
<path d="M457.566 302.26C457.566 303.303 457.151 304.303 456.414 305.041C455.677 305.778 454.676 306.192 453.633 306.192H423.46C422.417 306.192 421.417 305.778 420.68 305.041C419.942 304.303 419.528 303.303 419.528 302.26C419.528 301.669 419.649 301.085 419.885 300.544C420.06 300.126 420.301 299.74 420.6 299.4C420.967 299.035 421.402 298.746 421.881 298.55C422.359 298.354 422.872 298.254 423.389 298.256H453.562C454.294 298.262 455.01 298.473 455.629 298.865C456.248 299.256 456.746 299.813 457.065 300.472C457.393 301.011 457.566 301.629 457.566 302.26Z" fill="#E6E7E8"/>
<g style="mix-blend-mode:multiply" opacity="0.5">
<path d="M453.633 298.327H442.05C442.741 298.726 443.316 299.299 443.717 299.989C444.118 300.679 444.332 301.462 444.338 302.26C444.332 303.058 444.118 303.841 443.717 304.53C443.316 305.22 442.741 305.793 442.05 306.192H453.49C454.533 306.192 455.533 305.778 456.27 305.04C457.008 304.303 457.422 303.303 457.422 302.26C457.422 301.217 457.008 300.217 456.27 299.479C455.533 298.742 454.533 298.327 453.49 298.327H453.633Z" fill="#A3A6A8"/>
</g>
<g style="mix-blend-mode:multiply" opacity="0.5">
<path d="M457.136 300.544H419.884C420.059 300.126 420.3 299.74 420.599 299.4C420.966 299.035 421.401 298.746 421.88 298.55C422.358 298.354 422.871 298.254 423.388 298.256H453.561C454.313 298.255 455.05 298.471 455.683 298.876C456.317 299.282 456.821 299.86 457.136 300.544Z" fill="#A3A6A8"/>
</g>
<path d="M453.633 299.4H423.46C422.417 299.4 421.417 298.986 420.68 298.248C419.942 297.511 419.528 296.511 419.528 295.468C419.528 294.425 419.942 293.425 420.68 292.687C421.417 291.95 422.417 291.535 423.46 291.535H453.633C454.676 291.535 455.677 291.95 456.414 292.687C457.151 293.425 457.566 294.425 457.566 295.468C457.566 296.511 457.151 297.511 456.414 298.248C455.677 298.986 454.676 299.4 453.633 299.4Z" fill="#E6E7E8"/>
<g style="mix-blend-mode:multiply" opacity="0.5">
<path d="M453.633 291.177H442.05C442.746 291.571 443.324 292.142 443.727 292.833C444.129 293.525 444.34 294.31 444.338 295.11C444.332 295.908 444.118 296.691 443.717 297.381C443.316 298.07 442.741 298.643 442.05 299.042H453.49C454.533 299.042 455.533 298.628 456.27 297.89C457.008 297.153 457.422 296.153 457.422 295.11C457.423 294.091 457.028 293.112 456.321 292.378C455.614 291.645 454.651 291.214 453.633 291.177Z" fill="#A3A6A8"/>
</g>
<g style="mix-blend-mode:screen">
<path d="M423.745 216.818C419.241 222.538 412.448 224.754 408.659 221.751C404.869 218.748 405.37 211.67 409.803 205.95C414.236 200.23 421.028 198.013 424.889 201.016C428.75 204.019 428.178 211.098 423.745 216.818Z" fill="#FFF8D3"/>
</g>
<path d="M336.39 199.718C336.473 200.347 336.364 200.994 336.064 201.661C335.763 202.327 335.306 202.967 334.691 203.582C334.059 204.214 333.357 204.63 332.583 204.83C331.81 205.03 331.025 204.998 330.227 204.732C329.429 204.459 328.67 203.972 327.948 203.271L327.358 202.681C326.218 201.541 325.602 200.38 325.509 199.195C325.412 198.008 325.852 196.925 326.83 195.948C327.669 195.109 328.542 194.65 329.45 194.57C330.358 194.491 331.252 194.791 332.133 195.472L330.848 196.756C329.795 195.993 328.815 196.065 327.907 196.974C327.32 197.56 327.085 198.22 327.202 198.952C327.32 199.677 327.782 200.454 328.59 201.282L329.17 201.863C329.985 202.677 330.79 203.14 331.584 203.25C332.378 203.354 333.081 203.1 333.692 202.489C334.362 201.819 334.686 201.191 334.665 200.604L333.189 199.128L331.636 200.682L330.641 199.687L333.5 196.829L336.39 199.718ZM341.253 189.666C341.992 190.405 342.513 191.182 342.817 191.997C343.117 192.808 343.18 193.602 343.004 194.379C342.827 195.149 342.43 195.843 341.812 196.461C341.201 197.072 340.507 197.469 339.73 197.652C338.954 197.828 338.158 197.771 337.343 197.481C336.532 197.188 335.763 196.682 335.038 195.964L334.614 195.539C333.878 194.804 333.359 194.025 333.055 193.203C332.754 192.378 332.692 191.58 332.868 190.811C333.044 190.034 333.44 189.338 334.054 188.723C334.669 188.109 335.361 187.713 336.131 187.537C336.901 187.354 337.693 187.411 338.508 187.708C339.32 188.002 340.095 188.514 340.834 189.246L341.253 189.666ZM339.549 190.583C338.714 189.747 337.914 189.265 337.151 189.138C336.392 189.006 335.722 189.231 335.142 189.811C334.576 190.377 334.355 191.044 334.479 191.81C334.603 192.57 335.068 193.359 335.872 194.177L336.307 194.612C337.136 195.441 337.937 195.92 338.71 196.052C339.487 196.179 340.162 195.957 340.735 195.384C341.315 194.804 341.54 194.137 341.408 193.384C341.281 192.628 340.792 191.826 339.943 190.976L339.549 190.583ZM348.576 182.343C349.315 183.082 349.836 183.859 350.14 184.673C350.441 185.485 350.503 186.279 350.327 187.056C350.151 187.826 349.754 188.52 349.135 189.138C348.524 189.749 347.83 190.146 347.054 190.329C346.277 190.505 345.481 190.448 344.666 190.158C343.855 189.864 343.086 189.359 342.361 188.641L341.937 188.216C341.201 187.48 340.682 186.702 340.378 185.88C340.077 185.055 340.015 184.257 340.191 183.487C340.367 182.711 340.763 182.015 341.377 181.4C341.992 180.786 342.684 180.39 343.454 180.214C344.224 180.031 345.016 180.088 345.831 180.385C346.643 180.679 347.418 181.191 348.157 181.923L348.576 182.343ZM346.872 183.26C346.037 182.424 345.237 181.942 344.474 181.815C343.715 181.683 343.045 181.908 342.465 182.488C341.899 183.054 341.678 183.72 341.802 184.487C341.926 185.247 342.391 186.035 343.195 186.854L343.63 187.289C344.459 188.117 345.26 188.597 346.033 188.729C346.81 188.856 347.485 188.634 348.058 188.06C348.638 187.48 348.863 186.814 348.732 186.061C348.604 185.305 348.115 184.502 347.266 183.653L346.872 183.26ZM353.455 184.611L345.914 177.071L348.141 174.844C348.807 174.177 349.546 173.735 350.358 173.518C351.173 173.297 351.994 173.318 352.823 173.58C353.652 173.842 354.418 174.326 355.122 175.03L355.5 175.408C356.215 176.123 356.7 176.895 356.956 177.723C357.215 178.548 357.227 179.372 356.992 180.194C356.761 181.012 356.305 181.761 355.625 182.441L353.455 184.611ZM348.281 176.817L353.719 182.255L354.573 181.4C355.261 180.713 355.573 179.973 355.511 179.178C355.449 178.377 355.019 177.571 354.221 176.76L353.802 176.34C352.983 175.522 352.181 175.075 351.394 174.999C350.606 174.923 349.874 175.223 349.198 175.9L348.281 176.817ZM364.408 173.658L363.103 174.963L355.563 167.422L356.868 166.117L364.408 173.658ZM366.019 172.047L358.478 164.506L360.705 162.279C361.372 161.613 362.111 161.171 362.922 160.954C363.737 160.733 364.559 160.753 365.387 161.016C366.216 161.278 366.982 161.761 367.687 162.466L368.065 162.844C368.779 163.559 369.265 164.33 369.52 165.159C369.779 165.984 369.791 166.808 369.556 167.629C369.325 168.448 368.869 169.197 368.189 169.877L366.019 172.047ZM360.845 164.253L366.283 169.691L367.138 168.836C367.825 168.149 368.137 167.408 368.075 166.614C368.013 165.813 367.583 165.007 366.786 164.196L366.366 163.776C365.548 162.958 364.745 162.511 363.958 162.435C363.171 162.359 362.439 162.659 361.762 163.336L360.845 164.253ZM373.99 157.344L370.892 160.441L373.213 162.761L376.833 159.141L377.879 160.187L372.949 165.117L365.408 157.577L370.302 152.683L371.359 153.739L367.775 157.323L369.857 159.405L372.954 156.308L373.99 157.344ZM381.411 153.144L378.49 156.065L379.635 158.431L378.273 159.793L373.58 149.404L374.756 148.229L385.15 152.916L383.783 154.283L381.411 153.144ZM377.801 154.64L379.987 152.455L375.766 150.419L377.801 154.64Z" fill="#FFE840"/>
</g>
<defs>
<filter id="filter0_d" x="192.213" y="-8.7868" width="228.593" height="228.593" filterUnits="userSpaceOnUse" color-interpolation-filters="sRGB">
<feFlood flood-opacity="0" result="BackgroundImageFix"/>
<feColorMatrix in="SourceAlpha" type="matrix" values="0 0 0 0 0 0 0 0 0 0 0 0 0 0 0 0 0 0 127 0"/>
<feOffset dy="15"/>
<feGaussianBlur stdDeviation="15"/>
<feColorMatrix type="matrix" values="0 0 0 0 0 0 0 0 0 0 0 0 0 0 0 0 0 0 0.489159 0"/>
<feBlend mode="normal" in2="BackgroundImageFix" result="effect1_dropShadow"/>
<feBlend mode="normal" in="SourceGraphic" in2="effect1_dropShadow" result="shape"/>
</filter>
<filter id="filter1_d" x="-23.7869" y="47.2132" width="330.416" height="330.416" filterUnits="userSpaceOnUse" color-interpolation-filters="sRGB">
<feFlood flood-opacity="0" result="BackgroundImageFix"/>
<feColorMatrix in="SourceAlpha" type="matrix" values="0 0 0 0 0 0 0 0 0 0 0 0 0 0 0 0 0 0 127 0"/>
<feOffset dy="15"/>
<feGaussianBlur stdDeviation="15"/>
<feColorMatrix type="matrix" values="0 0 0 0 0 0 0 0 0 0 0 0 0 0 0 0 0 0 0.489159 0"/>
<feBlend mode="normal" in2="BackgroundImageFix" result="effect1_dropShadow"/>
<feBlend mode="normal" in="SourceGraphic" in2="effect1_dropShadow" result="shape"/>
</filter>
<filter id="filter2_d" x="157.213" y="263.213" width="228.593" height="228.593" filterUnits="userSpaceOnUse" color-interpolation-filters="sRGB">
<feFlood flood-opacity="0" result="BackgroundImageFix"/>
<feColorMatrix in="SourceAlpha" type="matrix" values="0 0 0 0 0 0 0 0 0 0 0 0 0 0 0 0 0 0 127 0"/>
<feOffset dy="15"/>
<feGaussianBlur stdDeviation="15"/>
<feColorMatrix type="matrix" values="0 0 0 0 0 0 0 0 0 0 0 0 0 0 0 0 0 0 0.489159 0"/>
<feBlend mode="normal" in2="BackgroundImageFix" result="effect1_dropShadow"/>
<feBlend mode="normal" in="SourceGraphic" in2="effect1_dropShadow" result="shape"/>
</filter>
<filter id="filter3_d" x="272.213" y="106.213" width="330.416" height="330.416" filterUnits="userSpaceOnUse" color-interpolation-filters="sRGB">
<feFlood flood-opacity="0" result="BackgroundImageFix"/>
<feColorMatrix in="SourceAlpha" type="matrix" values="0 0 0 0 0 0 0 0 0 0 0 0 0 0 0 0 0 0 127 0"/>
<feOffset dy="15"/>
<feGaussianBlur stdDeviation="15"/>
<feColorMatrix type="matrix" values="0 0 0 0 0 0 0 0 0 0 0 0 0 0 0 0 0 0 0.489159 0"/>
<feBlend mode="normal" in2="BackgroundImageFix" result="effect1_dropShadow"/>
<feBlend mode="normal" in="SourceGraphic" in2="effect1_dropShadow" result="shape"/>
</filter>
<linearGradient id="paint0_linear" x1="268.255" y1="91.2855" x2="347.564" y2="91.2855" gradientUnits="userSpaceOnUse">
<stop stop-color="#F57E53"/>
<stop offset="0.00453714" stop-color="#F58152"/>
<stop offset="0.042" stop-color="#F99A4D"/>
<stop offset="0.084" stop-color="#FCAD49"/>
<stop offset="0.1333" stop-color="#FEBA46"/>
<stop offset="0.1962" stop-color="#FFC244"/>
<stop offset="0.3183" stop-color="#FFC444"/>
<stop offset="0.455" stop-color="#FDB946"/>
<stop offset="0.6941" stop-color="#F99C4C"/>
<stop offset="0.9964" stop-color="#F36F56"/>
</linearGradient>
<linearGradient id="paint1_linear" x1="229.845" y1="358.936" x2="312.677" y2="358.936" gradientUnits="userSpaceOnUse">
<stop stop-color="#F57E53"/>
<stop offset="0.00453714" stop-color="#F58152"/>
<stop offset="0.042" stop-color="#F99A4D"/>
<stop offset="0.084" stop-color="#FCAD49"/>
<stop offset="0.1333" stop-color="#FEBA46"/>
<stop offset="0.1962" stop-color="#FFC244"/>
<stop offset="0.3183" stop-color="#FFC444"/>
<stop offset="0.455" stop-color="#FDB946"/>
<stop offset="0.6941" stop-color="#F99C4C"/>
<stop offset="0.9964" stop-color="#F36F56"/>
</linearGradient>
<linearGradient id="paint2_linear" x1="260.124" y1="358.989" x2="283.523" y2="358.989" gradientUnits="userSpaceOnUse">
<stop stop-color="#F57E53"/>
<stop offset="0.00453714" stop-color="#F58152"/>
<stop offset="0.042" stop-color="#F99A4D"/>
<stop offset="0.084" stop-color="#FCAD49"/>
<stop offset="0.1333" stop-color="#FEBA46"/>
<stop offset="0.1962" stop-color="#FFC244"/>
<stop offset="0.3183" stop-color="#FFC444"/>
<stop offset="0.455" stop-color="#FDB946"/>
<stop offset="0.6941" stop-color="#F99C4C"/>
<stop offset="0.9964" stop-color="#F36F56"/>
</linearGradient>
<linearGradient id="paint3_linear" x1="420.669" y1="269.61" x2="456.197" y2="269.61" gradientUnits="userSpaceOnUse">
<stop stop-color="#F57E53"/>
<stop offset="0.00453714" stop-color="#F58152"/>
<stop offset="0.042" stop-color="#F99A4D"/>
<stop offset="0.084" stop-color="#FCAD49"/>
<stop offset="0.1333" stop-color="#FEBA46"/>
<stop offset="0.1962" stop-color="#FFC244"/>
<stop offset="0.3183" stop-color="#FFC444"/>
<stop offset="0.455" stop-color="#FDB946"/>
<stop offset="0.6941" stop-color="#F99C4C"/>
<stop offset="0.9964" stop-color="#F36F56"/>
</linearGradient>
<clipPath id="clip0">
<rect width="182" height="182" fill="white" transform="translate(216)"/>
</clipPath>
<clipPath id="clip1">
<rect width="283" height="283" fill="white" transform="translate(0 56)"/>
</clipPath>
<clipPath id="clip2">
<rect width="283" height="283" fill="white" transform="translate(296 115)"/>
</clipPath>
</defs>
</svg>
