<svg width="381" height="382" viewBox="0 0 381 382" fill="none" xmlns="http://www.w3.org/2000/svg">
<g filter="url(#filter0_b)">
<path d="M188.659 1.08805C189.798 0.430477 191.202 0.430474 192.341 1.08805L353.637 94.2127C354.776 94.8703 355.478 96.0856 355.478 97.4007V283.65C355.478 284.965 354.776 286.18 353.637 286.838L192.341 379.963C191.202 380.62 189.798 380.62 188.659 379.963L27.3627 286.838C26.2238 286.18 25.5222 284.965 25.5222 283.65V97.4007C25.5222 96.0856 26.2238 94.8703 27.3627 94.2127L188.659 1.08805Z" fill="#576784" fill-opacity="0.26"/>
<path d="M189.12 1.88505C189.974 1.39186 191.026 1.39186 191.88 1.88504L353.177 95.0097C354.031 95.5029 354.558 96.4143 354.558 97.4007V283.65C354.558 284.636 354.031 285.548 353.177 286.041L191.88 379.166C191.026 379.659 189.974 379.659 189.12 379.166L27.8229 286.041C26.9687 285.548 26.4424 284.636 26.4424 283.65V97.4007C26.4424 96.4144 26.9687 95.5029 27.8229 95.0097L189.12 1.88505Z" stroke="#425F99" stroke-width="1.84058"/>
</g>
<g clip-path="url(#clip0)">
<path d="M121.758 187.95C152.297 187.95 177.053 173.657 177.053 156.026C177.053 138.395 152.297 124.102 121.758 124.102C91.2195 124.102 66.4631 138.395 66.4631 156.026C66.4631 173.657 91.2195 187.95 121.758 187.95Z" fill="#1F2F3E"/>
<path d="M207.758 219.591C232.119 219.591 251.867 208.189 251.867 194.124C251.867 180.059 232.119 168.658 207.758 168.658C183.398 168.658 163.65 180.059 163.65 194.124C163.65 208.189 183.398 219.591 207.758 219.591Z" fill="#1F2F3E"/>
<path d="M234.766 202.277C279.63 202.277 316 181.279 316 155.376C316 129.473 279.63 108.475 234.766 108.475C189.902 108.475 153.532 129.473 153.532 155.376C153.532 181.279 189.902 202.277 234.766 202.277Z" fill="#1F2F3E"/>
<path d="M290.894 137.421H310.574V126.212H290.894C289.729 123.031 287.559 119.948 284.385 117.135L298.298 109.101L284.567 101.175L270.652 109.209C265.776 107.378 260.439 106.129 254.933 105.455V94.0867H235.517V105.455C230.009 106.129 224.672 107.378 219.798 109.209L205.883 101.175L200.501 104.284L192.154 99.5055V109.104L206.067 117.137C202.894 119.953 200.726 123.033 199.559 126.214H179.874V137.424H199.554C200.719 140.604 202.889 143.687 206.063 146.5L192.15 154.534L205.88 162.46L219.796 154.426C224.672 156.257 230.009 157.506 235.515 158.18V169.549H254.931V158.18C260.439 157.506 265.776 156.257 270.65 154.426L284.565 162.46L298.296 154.534L284.383 146.5C287.559 143.684 289.727 140.602 290.894 137.421Z" fill="url(#paint0_linear)"/>
<path d="M192.15 144.933V154.532L200.462 149.732L192.15 144.933Z" fill="#E09A2D"/>
<path d="M290.021 104.281L298.298 109.101V99.5032L290.021 104.281Z" fill="#FAC054"/>
<path d="M290.021 149.711L298.298 154.532V144.933L290.021 149.711Z" fill="#F8BE52"/>
<path d="M290.894 127.823H310.574V116.614H290.894C289.729 113.433 287.559 110.35 284.385 107.537L298.298 99.5033L284.567 91.5773L270.652 99.6108C265.776 97.7796 260.441 96.5307 254.933 95.8572V84.4885H235.517V95.8572C230.009 96.5307 224.672 97.7796 219.798 99.6108L205.883 91.5773L192.152 99.5033L206.065 107.537C202.891 110.353 200.723 113.433 199.556 116.614H179.874V127.823H199.554C200.719 131.004 202.889 134.086 206.063 136.9L192.15 144.933L205.88 152.859L219.796 144.826C224.672 146.657 230.009 147.906 235.515 148.579V159.948H254.931V148.579C260.439 147.906 265.776 146.657 270.65 144.826L284.565 152.859L298.296 144.933L284.383 136.9C287.559 134.086 289.727 131.004 290.894 127.823Z" fill="url(#paint1_linear)"/>
<path d="M255.396 170.009H235.051V158.587C229.614 157.895 224.497 156.667 219.838 154.934L205.88 162.993L191.686 154.798V144.664L200.106 139.802C199.774 139.164 199.481 138.52 199.234 137.882H179.41V116.148H199.234C199.484 115.503 199.774 114.857 200.104 114.226L191.686 109.366V99.2342L205.88 91.0416L219.838 99.1009C224.497 97.3703 229.614 96.1424 235.051 95.4478V84.0254H255.396V95.4478C260.834 96.1401 265.951 97.3679 270.61 99.1009L284.567 91.0416L298.761 99.2366V109.37L290.344 114.23C290.671 114.862 290.964 115.505 291.214 116.153H311.037V137.887H291.214C290.966 138.527 290.674 139.171 290.342 139.807L298.761 144.669V154.803L284.567 162.998L270.61 154.938C265.949 156.669 260.834 157.897 255.396 158.592V170.009ZM235.978 169.083H254.468V157.768L254.875 157.719C260.471 157.036 265.724 155.78 270.488 153.991L270.694 153.914L284.567 161.924L297.833 154.265V145.202L289.097 140.155L289.315 139.758C289.769 138.93 290.155 138.09 290.459 137.26L290.571 136.956H310.111V117.074H290.571L290.459 116.77C290.15 115.928 289.766 115.089 289.317 114.272L289.1 113.875L297.835 108.832V99.7698L284.57 92.1104L270.696 100.121L270.49 100.043C265.729 98.2543 260.476 97.0007 254.877 96.3155L254.47 96.2664V84.9515H235.98V96.2664L235.573 96.3155C229.974 97.0007 224.721 98.2543 219.96 100.043L219.754 100.121L205.88 92.1104L192.615 99.7698V108.832L201.35 113.875L201.133 114.272C200.684 115.089 200.3 115.931 199.991 116.77L199.879 117.074H180.339V136.956H199.879L199.991 137.26C200.295 138.088 200.679 138.927 201.135 139.758L201.352 140.155L192.615 145.2V154.263L205.88 161.922L219.754 153.912L219.96 153.989C224.721 155.778 229.974 157.032 235.573 157.717L235.98 157.766V169.083H235.978Z" fill="#FFA412"/>
<path d="M168.86 151.819H187.011V141.479H168.86C167.785 138.546 165.785 135.702 162.857 133.106L175.689 125.697L163.025 118.386L150.19 125.798C145.693 124.109 140.772 122.956 135.692 122.336V111.852H117.785V122.336C112.705 122.956 107.782 124.109 103.287 125.798L90.4516 118.386L85.4865 121.254L77.7873 116.845V125.697L90.62 133.106C87.6942 135.702 85.6923 138.546 84.6165 141.479H66.4631V151.819H84.6165C85.6923 154.751 87.6919 157.595 90.62 160.191L77.7873 167.6L90.4516 174.911L103.287 167.5C107.784 169.188 112.705 170.341 117.785 170.961V181.446H135.692V170.961C140.772 170.341 145.695 169.188 150.19 167.5L163.025 174.911L175.689 167.6L162.857 160.191C165.785 157.595 167.785 154.754 168.86 151.819Z" fill="url(#paint2_linear)"/>
<path d="M77.7849 158.749V167.601L85.4513 163.173L77.7849 158.749Z" fill="#E09A2D"/>
<path d="M168.056 121.254L175.689 125.697V116.845L168.056 121.254Z" fill="#F8BE52"/>
<path d="M168.056 163.155L175.689 167.601V158.749L168.056 163.155Z" fill="#F8BE52"/>
<path d="M168.86 142.966H187.011V132.627H168.86C167.785 129.694 165.785 126.85 162.857 124.254L175.689 116.845L163.025 109.534L150.19 116.946C145.693 115.257 140.77 114.102 135.692 113.482V102.997H117.785V113.482C112.705 114.102 107.782 115.257 103.287 116.946L90.4516 109.534L77.7873 116.845L90.62 124.254C87.6942 126.85 85.6923 129.694 84.6165 132.627H66.4631V142.966H84.6165C85.6923 145.899 87.6919 148.743 90.62 151.339L77.785 158.748L90.4493 166.059L103.284 158.648C107.782 160.336 112.702 161.489 117.782 162.109V172.594H135.69V162.109C140.77 161.489 145.693 160.336 150.188 158.648L163.023 166.059L175.687 158.748L162.854 151.339C165.785 148.743 167.785 145.899 168.86 142.966Z" fill="url(#paint3_linear)"/>
<path d="M136.155 181.911H117.319V171.37C112.316 170.73 107.613 169.6 103.326 168.01L90.4492 175.445L77.3219 167.865V158.477L85.0771 154.001C84.7801 153.428 84.5182 152.852 84.296 152.279H66V132.161H84.296C84.5205 131.581 84.7824 131.006 85.0748 130.44L77.3242 125.964V116.576L90.4516 108.996L103.329 116.431C107.616 114.841 112.321 113.711 117.321 113.07V102.534H136.158V113.075C141.158 113.713 145.863 114.843 150.15 116.436L163.027 109.001L176.155 116.581V125.968L168.404 130.445C168.697 131.011 168.959 131.588 169.183 132.166H187.479V152.284H169.183C168.961 152.857 168.699 153.432 168.402 154.005L176.155 158.482V167.869L163.027 175.449L150.15 168.014C145.863 169.605 141.16 170.734 136.158 171.375V181.911H136.155ZM118.248 180.985H135.229V170.552L135.636 170.503C140.798 169.871 145.639 168.716 150.029 167.067L150.235 166.99L163.027 174.376L175.229 167.331V159.013L167.158 154.354L167.375 153.956C167.794 153.194 168.147 152.42 168.428 151.657L168.54 151.353H186.553V133.088H168.54L168.428 132.783C168.142 132.007 167.789 131.233 167.378 130.485L167.16 130.087L175.229 125.428V117.112L163.027 110.067L150.235 117.453L150.029 117.376C145.639 115.727 140.798 114.572 135.636 113.94L135.229 113.891V103.46H118.248V113.893L117.841 113.943C112.681 114.574 107.838 115.729 103.448 117.378L103.242 117.455L90.4492 110.07L78.248 117.114V125.43L86.3167 130.089L86.0992 130.487C85.6875 131.238 85.3344 132.012 85.0491 132.786L84.9368 133.09H66.9261V151.355H84.9391L85.0514 151.659C85.3297 152.422 85.6852 153.196 86.1038 153.958L86.3213 154.356L78.2503 159.017V167.336L90.4516 174.38L103.244 166.995L103.45 167.072C107.84 168.721 112.681 169.876 117.843 170.507L118.25 170.557V180.985H118.248Z" fill="#FFA412"/>
<path d="M219.115 199.239H232.64V191.535H219.115C218.313 189.348 216.823 187.232 214.643 185.298L224.204 179.778L214.77 174.331L205.207 179.853C201.855 178.595 198.188 177.737 194.404 177.274V169.462H181.061V177.274C177.277 177.737 173.608 178.595 170.259 179.853L160.696 174.331L156.996 176.467L151.259 173.183V179.778L160.82 185.298C158.64 187.232 157.148 189.351 156.348 191.535H142.823V199.239H156.348C157.15 201.426 158.64 203.542 160.82 205.476L151.259 210.996L160.693 216.443L170.256 210.921C173.608 212.179 177.275 213.038 181.059 213.501V221.312H194.402V213.501C198.186 213.038 201.855 212.179 205.204 210.921L214.767 216.443L224.202 210.996L214.641 205.476C216.823 203.545 218.313 201.426 219.115 199.239Z" fill="url(#paint4_linear)"/>
<path d="M151.256 204.403V210.998L156.97 207.7L151.256 204.403Z" fill="#E09A2D"/>
<path d="M218.514 176.467L224.202 179.778V173.183L218.514 176.467Z" fill="#FBD711"/>
<path d="M218.514 207.686L224.202 210.998V204.403L218.514 207.686Z" fill="#F8BE52"/>
<path d="M219.115 192.644H232.64V184.94H219.115C218.315 182.753 216.823 180.636 214.643 178.702L224.204 173.183L214.77 167.736L205.207 173.258C201.855 171.999 198.188 171.141 194.404 170.678V162.867H181.061V170.678C177.277 171.141 173.608 171.999 170.259 173.258L160.696 167.736L151.261 173.183L160.822 178.702C158.642 180.636 157.15 182.755 156.35 184.94H142.825V192.644H156.35C157.152 194.83 158.642 196.947 160.822 198.881L151.261 204.4L160.693 209.85L170.256 204.328C173.608 205.586 177.275 206.445 181.059 206.908V214.719H194.402V206.908C198.186 206.445 201.855 205.586 205.204 204.328L214.767 209.85L224.202 204.403L214.641 198.883C216.823 196.947 218.313 194.83 219.115 192.644Z" fill="url(#paint5_linear)"/>
<path d="M194.865 221.78H180.594V213.912C176.917 213.435 173.456 212.603 170.296 211.435L160.691 216.981L150.794 211.265V204.134L156.535 200.82C156.343 200.446 156.175 200.072 156.028 199.702H142.358V184.477H156.028C156.177 184.1 156.346 183.726 156.533 183.359L150.796 180.047V172.916L160.693 167.2L170.299 172.746C173.458 171.579 176.92 170.746 180.596 170.269V162.401H194.865V170.269C198.541 170.746 202.003 171.579 205.162 172.746L214.768 167.2L224.665 172.916V180.047L218.928 183.359C219.115 183.728 219.284 184.103 219.433 184.477H233.103V199.702H219.433C219.286 200.069 219.118 200.443 218.926 200.82L224.667 204.134V211.265L214.77 216.981L205.165 211.435C202.005 212.603 198.544 213.435 194.867 213.912V221.78H194.865ZM181.522 220.854H193.939V213.094L194.346 213.045C198.181 212.577 201.78 211.716 205.041 210.491L205.247 210.413L214.768 215.909L223.739 210.729V204.667L217.682 201.171L217.899 200.773C218.215 200.2 218.477 199.629 218.678 199.078L218.79 198.774H232.175V185.401H218.79L218.678 185.097C218.47 184.526 218.208 183.955 217.904 183.399L217.686 183.001L223.739 179.507V173.445L214.768 168.265L205.247 173.761L205.041 173.683C201.78 172.458 198.181 171.6 194.346 171.13L193.939 171.08V163.32H181.522V171.08L181.115 171.13C177.28 171.597 173.68 172.458 170.42 173.683L170.214 173.761L160.693 168.265L151.722 173.445V179.507L157.775 183.001L157.557 183.399C157.253 183.953 156.991 184.526 156.783 185.097L156.671 185.401H143.286V198.774H156.671L156.783 199.078C156.987 199.629 157.248 200.2 157.562 200.773L157.779 201.171L151.722 204.667V210.729L160.693 215.909L170.214 210.413L170.42 210.491C173.683 211.716 177.282 212.574 181.115 213.045L181.522 213.094V220.854Z" fill="#FFA412"/>
<path d="M158.448 131.829V138.02C158.448 138.022 158.448 138.022 158.448 138.022V138.878H158.415C158.27 140.663 157.672 142.44 156.622 144.145C156.5 144.344 156.369 144.543 156.233 144.741C154.961 146.596 153.142 148.352 150.772 149.931C150.646 150.015 150.518 150.099 150.387 150.186C150.01 150.427 149.617 150.665 149.213 150.902C147.868 151.678 146.432 152.37 144.926 152.976C144.797 153.028 144.668 153.079 144.54 153.128C142.8 153.806 140.971 154.375 139.079 154.828C138.95 154.861 138.821 154.892 138.693 154.922C136.915 155.336 135.086 155.649 133.23 155.867C133.101 155.883 132.972 155.9 132.844 155.911C131.04 156.11 129.212 156.218 127.383 156.232C127.254 156.234 127.125 156.236 126.997 156.236C125.168 156.239 123.341 156.152 121.533 155.97C121.405 155.958 121.276 155.944 121.148 155.93C119.295 155.733 117.466 155.439 115.687 155.051C115.558 155.022 115.429 154.994 115.301 154.964C113.413 154.534 111.582 153.993 109.837 153.343C109.709 153.296 109.578 153.247 109.452 153.196C107.737 152.539 106.112 151.774 104.599 150.902C104.393 150.782 104.189 150.661 103.991 150.539C103.86 150.46 103.731 150.38 103.605 150.301C101.301 148.846 99.4791 147.225 98.1414 145.511C98.0057 145.34 97.8794 145.169 97.7555 144.996C96.3499 143.039 95.5617 140.964 95.3957 138.88H95.3606V131.829H97.2339C97.3953 131.567 97.5707 131.308 97.7555 131.053C97.8794 130.877 98.0081 130.707 98.1414 130.536C98.6325 129.904 99.1891 129.287 99.8112 128.686C100.574 127.949 101.432 127.238 102.393 126.555C103.078 126.069 103.813 125.596 104.599 125.143C116.917 118.031 136.89 118.031 149.21 125.143C149.996 125.596 150.73 126.066 151.413 126.555C152.372 127.236 153.233 127.947 153.995 128.686C154.87 129.53 155.616 130.41 156.233 131.31C156.353 131.483 156.467 131.656 156.575 131.831H158.448V131.829Z" fill="#FF9D4D"/>
<path d="M126.903 120.194C135.262 120.194 143.115 122.07 149.016 125.477C149.783 125.922 150.515 126.389 151.189 126.871C152.124 127.535 152.978 128.239 153.726 128.964C154.573 129.781 155.307 130.644 155.915 131.53C156.025 131.687 156.133 131.853 156.247 132.035L156.362 132.217H156.577H158.065V138.025V138.495H158.062L158.034 138.85C157.894 140.59 157.309 142.304 156.294 143.946C156.182 144.129 156.056 144.323 155.918 144.526C154.645 146.383 152.842 148.093 150.562 149.613C150.436 149.697 150.309 149.781 150.181 149.863C149.809 150.102 149.418 150.338 149.021 150.57C147.713 151.325 146.289 152.015 144.783 152.621C144.657 152.672 144.528 152.721 144.399 152.773C142.692 153.439 140.87 154.008 138.983 154.459C138.859 154.492 138.733 154.52 138.606 154.55C136.866 154.955 135.042 155.27 133.185 155.488C133.059 155.504 132.935 155.518 132.804 155.532C131.017 155.729 129.193 155.836 127.38 155.85C127.254 155.853 127.125 155.853 126.999 155.853H126.894C125.109 155.853 123.32 155.764 121.569 155.589C121.442 155.579 121.318 155.565 121.192 155.551C119.354 155.357 117.532 155.062 115.773 154.676C115.647 154.648 115.518 154.62 115.39 154.59C113.5 154.16 111.678 153.619 109.975 152.986L109.929 152.969C109.819 152.929 109.706 152.887 109.592 152.841C107.885 152.188 106.271 151.423 104.795 150.572C104.592 150.453 104.39 150.336 104.194 150.214C104.065 150.135 103.937 150.057 103.813 149.98C101.589 148.575 99.7832 146.994 98.4477 145.277C98.3285 145.127 98.2068 144.964 98.0735 144.777C96.7194 142.889 95.9476 140.897 95.7839 138.855L95.7558 138.499H95.7512V132.224H97.2386H97.4538L97.566 132.042C97.7227 131.792 97.8935 131.537 98.0759 131.284C98.1881 131.125 98.3121 130.962 98.4524 130.781C98.9295 130.166 99.4791 129.558 100.087 128.971C100.847 128.239 101.701 127.535 102.625 126.878C103.308 126.394 104.037 125.924 104.8 125.484C110.691 122.07 118.545 120.194 126.903 120.194ZM126.903 119.808C118.83 119.808 110.757 121.586 104.599 125.143C103.813 125.596 103.078 126.069 102.393 126.555C101.434 127.236 100.574 127.949 99.8112 128.686C99.1891 129.287 98.6302 129.904 98.1414 130.536C98.0081 130.707 97.8794 130.877 97.7555 131.053C97.5707 131.308 97.3953 131.567 97.2339 131.829H95.3606V138.878H95.3957C95.5641 140.964 96.3499 143.037 97.7555 144.994C97.8794 145.167 98.0057 145.338 98.1414 145.509C99.4768 147.223 101.299 148.844 103.605 150.298C103.731 150.378 103.86 150.457 103.991 150.537C104.189 150.658 104.393 150.778 104.599 150.899C106.109 151.772 107.735 152.539 109.452 153.194C109.578 153.245 109.709 153.292 109.837 153.341C111.58 153.991 113.411 154.529 115.301 154.962C115.429 154.992 115.558 155.02 115.687 155.048C117.464 155.439 119.295 155.734 121.148 155.928C121.276 155.942 121.405 155.956 121.533 155.967C123.306 156.145 125.098 156.234 126.892 156.234C126.927 156.234 126.962 156.234 126.997 156.234C127.125 156.234 127.254 156.232 127.383 156.229C129.212 156.215 131.04 156.108 132.844 155.909C132.972 155.897 133.101 155.881 133.23 155.865C135.086 155.647 136.915 155.334 138.693 154.92C138.821 154.889 138.95 154.859 139.079 154.826C140.971 154.372 142.8 153.804 144.54 153.126C144.668 153.077 144.797 153.025 144.926 152.974C146.432 152.366 147.868 151.676 149.213 150.899C149.617 150.665 150.01 150.427 150.387 150.184C150.518 150.1 150.646 150.015 150.772 149.929C153.142 148.35 154.961 146.591 156.233 144.739C156.369 144.543 156.5 144.342 156.622 144.143C157.674 142.438 158.27 140.663 158.415 138.876H158.448V138.02C158.448 138.02 158.448 138.02 158.448 138.018V131.829H156.575C156.465 131.654 156.353 131.481 156.233 131.308C155.618 130.407 154.872 129.53 153.995 128.684C153.233 127.947 152.372 127.236 151.413 126.553C150.728 126.064 149.994 125.594 149.21 125.14C143.05 121.586 134.977 119.808 126.903 119.808Z" fill="#FFE840"/>
<path d="M126.903 149.847C144.325 149.847 158.448 141.693 158.448 131.635C158.448 121.577 144.325 113.423 126.903 113.423C109.482 113.423 95.3584 121.577 95.3584 131.635C95.3584 141.693 109.482 149.847 126.903 149.847Z" fill="#FFE840"/>
<path d="M153.995 128.683C152.985 125.557 150.373 122.68 146.392 120.383C141.186 117.378 134.263 115.722 126.903 115.722C119.541 115.722 112.621 117.378 107.415 120.383C103.434 122.68 100.819 125.559 99.8114 128.683C99.5003 129.647 99.3413 130.634 99.3413 131.633C99.3413 134.692 100.826 137.62 103.602 140.141C103.729 140.258 103.857 140.37 103.988 140.482C104.982 141.338 106.126 142.141 107.415 142.884C108.067 143.261 108.748 143.616 109.449 143.948C109.578 144.009 109.707 144.07 109.835 144.129C111.531 144.905 113.364 145.555 115.299 146.072C115.427 146.107 115.556 146.142 115.684 146.177C117.434 146.626 119.26 146.97 121.145 147.197C121.274 147.216 121.403 147.23 121.531 147.244C123.281 147.443 125.079 147.543 126.903 147.543H126.992C127.121 147.543 127.25 147.541 127.378 147.538C129.235 147.52 131.062 147.398 132.839 147.174C132.968 147.157 133.096 147.141 133.225 147.122C135.112 146.87 136.941 146.5 138.688 146.023C138.819 145.988 138.948 145.953 139.074 145.913C141.015 145.363 142.847 144.673 144.535 143.86C144.664 143.799 144.795 143.736 144.921 143.67C145.424 143.42 145.915 143.156 146.39 142.882C147.931 141.993 149.266 141.016 150.382 139.973C150.515 139.849 150.644 139.725 150.768 139.601C153.177 137.206 154.461 134.474 154.461 131.63C154.465 130.634 154.306 129.647 153.995 128.683ZM150.773 137.653C150.649 137.816 150.52 137.98 150.387 138.144C149.147 139.636 147.459 141.034 145.321 142.269C145.19 142.344 145.059 142.419 144.923 142.494C144.797 142.564 144.668 142.634 144.538 142.702C142.856 143.598 141.02 144.341 139.077 144.933C138.95 144.973 138.819 145.01 138.691 145.048C136.937 145.562 135.103 145.953 133.227 146.222C133.101 146.24 132.972 146.259 132.841 146.276C131.048 146.516 129.216 146.647 127.381 146.666C127.252 146.668 127.123 146.671 126.995 146.671C125.163 146.675 123.33 146.568 121.531 146.35C121.403 146.334 121.272 146.318 121.145 146.301C119.274 146.06 117.443 145.696 115.684 145.214C115.556 145.179 115.425 145.144 115.299 145.106C113.364 144.552 111.528 143.85 109.835 143.001C109.704 142.936 109.576 142.87 109.449 142.802C109.122 142.634 108.802 142.456 108.488 142.274C106.659 141.217 105.158 140.043 103.988 138.792C103.855 138.649 103.726 138.506 103.602 138.361C100.424 134.68 100.02 130.395 102.391 126.562C103.647 124.532 105.677 122.631 108.486 121.01C118.638 115.147 135.162 115.147 145.316 121.01C148.125 122.631 150.155 124.535 151.411 126.562C153.638 130.148 153.425 134.135 150.773 137.653Z" fill="#FF9D4D"/>
<path d="M127.914 129.067L130.884 130.781C130.816 130.814 130.75 130.849 130.685 130.887L129.055 131.827L126.279 130.225L127.196 129.696C127.525 129.507 127.764 129.296 127.914 129.067Z" fill="#D1975D"/>
<path d="M136.799 136.299L139.844 138.055L141.663 137.005L138.611 135.244C138.637 135.228 138.665 135.211 138.693 135.19C138.826 135.108 138.955 135.022 139.079 134.935C139.512 134.629 139.883 134.313 140.199 133.983C140.7 133.459 141.022 132.931 141.165 132.395C141.31 131.86 141.247 131.341 140.976 130.831C140.704 130.321 140.187 129.844 139.423 129.404C139.308 129.339 139.193 129.275 139.079 129.215C138.953 129.147 138.824 129.086 138.693 129.025C137.711 128.569 136.663 128.3 135.552 128.211C134.771 128.151 133.997 128.174 133.23 128.279C133.101 128.298 132.972 128.319 132.844 128.34C132.376 128.422 131.913 128.536 131.452 128.681C131.927 127.975 131.999 127.273 131.67 126.572C131.338 125.873 130.732 125.267 129.848 124.757C129.287 124.434 128.634 124.17 127.886 123.964C127.14 123.758 126.372 123.634 125.582 123.59C124.794 123.546 124.008 123.592 123.227 123.73C122.446 123.868 121.742 124.116 121.113 124.481L120.54 124.813L117.607 123.12L115.787 124.17L118.718 125.863L116.505 127.143L113.573 125.449L111.753 126.499L114.686 128.193L111.437 130.068L115.301 132.299L115.687 132.522L121.148 135.674L121.534 135.899L126.997 139.051L127.383 139.276L129.516 140.508L132.767 138.633L135.809 140.389L137.629 139.339L134.584 137.583L136.799 136.299ZM130.685 130.887C130.751 130.849 130.816 130.814 130.884 130.784C131.139 130.662 131.417 130.571 131.716 130.515C132.079 130.445 132.456 130.419 132.841 130.433C132.86 130.433 132.881 130.435 132.902 130.435C133.012 130.44 133.12 130.449 133.23 130.461C133.527 130.494 133.828 130.548 134.125 130.627C134.532 130.735 134.897 130.882 135.22 131.069C135.543 131.256 135.788 131.467 135.959 131.701C136.127 131.937 136.216 132.175 136.226 132.416C136.235 132.657 136.158 132.891 135.999 133.123C135.901 133.263 135.772 133.394 135.613 133.518C135.533 133.579 135.444 133.64 135.351 133.698C135.325 133.714 135.299 133.731 135.271 133.747L133.868 134.556L133.819 134.584L133.23 134.926L132.844 135.148L131.607 135.864L130.051 136.762L125.287 134.004L125.795 133.712L126.84 133.109L126.992 133.02L127.378 132.798L129.053 131.832L130.685 130.887ZM121.145 127.926L121.531 127.701L121.721 127.592L122.79 126.974C122.85 126.939 122.92 126.913 122.984 126.881C123.201 126.775 123.433 126.684 123.683 126.623C124.029 126.541 124.406 126.504 124.815 126.511C125.587 126.525 126.312 126.724 126.995 127.107C127.011 127.117 127.027 127.126 127.044 127.135C127.168 127.206 127.278 127.278 127.38 127.353C127.867 127.701 128.108 128.073 128.101 128.466C128.096 128.679 128.035 128.88 127.914 129.065C127.794 129.247 127.617 129.42 127.38 129.579C127.322 129.619 127.261 129.657 127.198 129.694L126.995 129.811L126.279 130.225L124.066 131.504L123.463 131.853L122.514 132.4L121.985 132.096L121.396 131.755L121.148 131.61L120.032 130.966L117.955 129.767L118.533 129.432L119.511 128.869L121.145 127.926Z" fill="#FF9D4D"/>
<path d="M98.9647 139.919V146.301C98.8291 146.131 98.7028 145.96 98.5789 145.787V139.402C98.7028 139.575 98.8314 139.748 98.9647 139.919Z" fill="#FFE840"/>
<path d="M103.991 144.152V150.537C103.86 150.457 103.731 150.378 103.605 150.298V143.911C103.731 143.993 103.86 144.073 103.991 144.152Z" fill="#FFE840"/>
<path d="M109.838 146.954V153.341C109.709 153.294 109.578 153.245 109.452 153.194V146.809C109.578 146.858 109.709 146.907 109.838 146.954Z" fill="#FFE840"/>
<path d="M115.687 148.661V155.046C115.558 155.018 115.429 154.99 115.301 154.959V148.572C115.427 148.603 115.558 148.633 115.687 148.661Z" fill="#FFE840"/>
<path d="M121.534 149.58V155.965C121.405 155.953 121.276 155.939 121.148 155.925V149.541C121.274 149.557 121.405 149.571 121.534 149.58Z" fill="#FFE840"/>
<path d="M127.38 149.844V156.229C127.252 156.232 127.123 156.234 126.994 156.234V149.849C127.123 149.847 127.252 149.844 127.38 149.844Z" fill="#FFE840"/>
<path d="M133.227 149.477V155.862C133.099 155.878 132.97 155.895 132.841 155.907V149.522C132.97 149.51 133.099 149.494 133.227 149.477Z" fill="#FFE840"/>
<path d="M139.077 148.441V154.826C138.948 154.859 138.819 154.889 138.691 154.919V148.532C138.819 148.502 138.948 148.474 139.077 148.441Z" fill="#FFE840"/>
<path d="M144.923 146.589V152.974C144.795 153.025 144.666 153.077 144.538 153.126V146.739C144.666 146.692 144.795 146.641 144.923 146.589Z" fill="#FFE840"/>
<path d="M150.772 143.544V149.929C150.646 150.013 150.517 150.097 150.386 150.184V143.797C150.517 143.715 150.646 143.63 150.772 143.544Z" fill="#FFE840"/>
<path d="M155.96 138.399V144.783C155.838 144.982 155.707 145.183 155.572 145.38V138.995C155.707 138.796 155.836 138.597 155.96 138.399Z" fill="#FFE840"/>
<path d="M276.768 113.847V120.037C276.768 120.04 276.768 120.04 276.768 120.04V120.896H276.735C276.59 122.68 275.991 124.458 274.941 126.163C274.819 126.361 274.688 126.56 274.553 126.759C273.28 128.614 271.461 130.37 269.092 131.949C268.965 132.033 268.837 132.117 268.706 132.204C268.329 132.445 267.936 132.683 267.532 132.919C266.187 133.696 264.751 134.388 263.245 134.994C263.116 135.045 262.988 135.097 262.859 135.146C261.119 135.824 259.29 136.392 257.398 136.846C257.269 136.879 257.141 136.909 257.012 136.94C255.235 137.354 253.406 137.667 251.549 137.884C251.42 137.901 251.292 137.917 251.163 137.929C249.36 138.128 247.531 138.235 245.702 138.249C245.573 138.252 245.445 138.254 245.316 138.254C243.487 138.259 241.661 138.17 239.853 137.987C239.724 137.976 239.596 137.962 239.467 137.948C237.615 137.751 235.786 137.456 234.006 137.068C233.877 137.04 233.749 137.012 233.62 136.982C231.733 136.551 229.901 136.011 228.157 135.361C228.028 135.314 227.897 135.265 227.771 135.214C226.057 134.556 224.431 133.792 222.918 132.919C222.712 132.8 222.509 132.678 222.31 132.557C222.179 132.477 222.05 132.398 221.924 132.318C219.62 130.864 217.798 129.243 216.461 127.528C216.325 127.358 216.199 127.187 216.075 127.014C214.669 125.056 213.881 122.982 213.715 120.898H213.68V113.849H215.553C215.715 113.587 215.89 113.328 216.075 113.073C216.199 112.897 216.327 112.727 216.461 112.556C216.952 111.924 217.508 111.307 218.131 110.706C218.893 109.969 219.751 109.258 220.713 108.575C221.398 108.089 222.132 107.616 222.918 107.163C235.236 100.051 255.209 100.051 267.53 107.163C268.315 107.616 269.05 108.087 269.733 108.575C270.691 109.256 271.552 109.967 272.315 110.706C273.189 111.55 273.935 112.43 274.553 113.33C274.672 113.503 274.787 113.676 274.894 113.852H276.768V113.847Z" fill="#FF9D4D"/>
<path d="M245.223 102.212C253.581 102.212 261.435 104.087 267.335 107.495C268.102 107.939 268.835 108.407 269.508 108.889C270.444 109.553 271.297 110.257 272.046 110.982C272.892 111.798 273.627 112.661 274.235 113.547C274.345 113.704 274.452 113.87 274.567 114.053L274.681 114.235H274.897H276.384V120.042V120.512H276.379L276.351 120.868C276.211 122.608 275.626 124.322 274.611 125.964C274.501 126.146 274.373 126.34 274.235 126.544C272.962 128.401 271.159 130.11 268.879 131.631C268.753 131.715 268.626 131.799 268.498 131.881C268.126 132.119 267.735 132.356 267.338 132.587C266.033 133.34 264.606 134.033 263.102 134.638C262.976 134.69 262.847 134.739 262.719 134.79C261.011 135.457 259.19 136.025 257.302 136.476C257.176 136.509 257.052 136.537 256.926 136.568C255.186 136.972 253.361 137.288 251.504 137.506C251.378 137.522 251.254 137.536 251.123 137.55C249.336 137.746 247.512 137.854 245.7 137.868C245.573 137.87 245.445 137.87 245.318 137.87H245.213C243.429 137.87 241.64 137.782 239.888 137.606C239.764 137.597 239.64 137.583 239.511 137.569C237.673 137.375 235.851 137.08 234.09 136.694C233.964 136.666 233.838 136.638 233.709 136.61C231.819 136.179 229.997 135.639 228.295 135.005L228.248 134.989C228.138 134.949 228.026 134.907 227.911 134.86C226.204 134.208 224.59 133.443 223.114 132.592C222.911 132.473 222.71 132.356 222.513 132.234C222.385 132.155 222.256 132.077 222.132 132C219.908 130.595 218.102 129.014 216.767 127.297C216.648 127.147 216.524 126.984 216.393 126.796C215.039 124.909 214.267 122.916 214.103 120.875L214.075 120.519H214.07V114.244H215.558H215.773L215.885 114.062C216.042 113.812 216.21 113.557 216.395 113.304C216.507 113.145 216.629 112.981 216.772 112.801C217.249 112.186 217.798 111.578 218.407 110.991C219.167 110.259 220.02 109.555 220.944 108.898C221.625 108.414 222.357 107.944 223.119 107.504C229.01 104.087 236.864 102.212 245.223 102.212ZM245.223 101.826C237.149 101.826 229.076 103.603 222.918 107.16C222.132 107.614 221.398 108.086 220.713 108.573C219.754 109.254 218.893 109.967 218.131 110.704C217.508 111.305 216.949 111.922 216.461 112.553C216.327 112.724 216.199 112.895 216.075 113.07C215.89 113.325 215.715 113.585 215.553 113.847H213.68V120.896H213.715C213.883 122.982 214.669 125.054 216.075 127.012C216.199 127.185 216.325 127.355 216.461 127.526C217.796 129.24 219.618 130.861 221.924 132.316C222.05 132.395 222.179 132.475 222.31 132.554C222.509 132.676 222.712 132.795 222.918 132.917C224.431 133.789 226.054 134.556 227.771 135.211C227.897 135.263 228.028 135.309 228.157 135.359C229.899 136.009 231.73 136.547 233.62 136.979C233.749 137.01 233.877 137.038 234.006 137.066C235.783 137.456 237.615 137.751 239.467 137.945C239.596 137.959 239.724 137.973 239.853 137.985C241.626 138.163 243.417 138.252 245.209 138.252C245.244 138.252 245.279 138.252 245.314 138.252C245.442 138.252 245.571 138.249 245.7 138.247C247.529 138.233 249.357 138.125 251.161 137.927C251.289 137.915 251.418 137.898 251.547 137.882C253.403 137.665 255.232 137.351 257.01 136.937C257.138 136.907 257.267 136.876 257.396 136.844C259.288 136.39 261.117 135.822 262.857 135.143C262.985 135.094 263.114 135.043 263.243 134.991C264.749 134.383 266.185 133.693 267.529 132.917C267.936 132.683 268.327 132.445 268.704 132.201C268.835 132.117 268.963 132.033 269.089 131.946C271.459 130.368 273.278 128.609 274.55 126.757C274.686 126.56 274.817 126.359 274.939 126.16C275.991 124.455 276.587 122.68 276.732 120.893H276.765V120.037C276.765 120.037 276.765 120.037 276.765 120.035V113.844H274.892C274.782 113.669 274.67 113.496 274.55 113.323C273.935 112.423 273.189 111.545 272.312 110.699C271.55 109.962 270.689 109.251 269.73 108.568C269.045 108.079 268.311 107.609 267.527 107.156C261.369 103.603 253.296 101.826 245.223 101.826Z" fill="#FFE840"/>
<path d="M245.223 131.865C262.645 131.865 276.768 123.711 276.768 113.653C276.768 103.595 262.645 95.4409 245.223 95.4409C227.801 95.4409 213.678 103.595 213.678 113.653C213.678 123.711 227.801 131.865 245.223 131.865Z" fill="#FFE840"/>
<path d="M272.315 110.704C271.304 107.577 268.692 104.7 264.711 102.403C259.505 99.398 252.583 97.7422 245.223 97.7422C237.86 97.7422 230.94 99.398 225.734 102.403C221.753 104.7 219.139 107.579 218.131 110.704C217.82 111.667 217.661 112.654 217.661 113.653C217.661 116.712 219.146 119.64 221.922 122.161C222.048 122.278 222.177 122.39 222.308 122.502C223.302 123.358 224.445 124.161 225.734 124.904C226.387 125.281 227.067 125.636 227.769 125.968C227.897 126.029 228.026 126.09 228.155 126.149C229.85 126.925 231.684 127.575 233.618 128.092C233.747 128.127 233.875 128.162 234.004 128.197C235.753 128.646 237.58 128.99 239.465 129.217C239.593 129.236 239.722 129.25 239.851 129.264C241.6 129.463 243.399 129.563 245.223 129.563H245.312C245.44 129.563 245.569 129.561 245.697 129.558C247.554 129.54 249.381 129.418 251.158 129.194C251.287 129.177 251.416 129.161 251.544 129.142C253.432 128.89 255.261 128.52 257.008 128.043C257.139 128.008 257.267 127.973 257.394 127.933C259.335 127.383 261.166 126.693 262.855 125.88C262.983 125.819 263.114 125.756 263.24 125.69C263.743 125.44 264.234 125.176 264.709 124.902C266.25 124.013 267.586 123.036 268.701 121.993C268.835 121.869 268.963 121.745 269.087 121.621C271.496 119.226 272.78 116.494 272.78 113.65C272.785 112.652 272.626 111.665 272.315 110.704ZM269.092 119.67C268.968 119.834 268.839 119.998 268.706 120.161C267.467 121.654 265.778 123.052 263.64 124.287C263.509 124.362 263.378 124.437 263.243 124.511C263.116 124.582 262.988 124.652 262.857 124.72C261.175 125.615 259.339 126.359 257.396 126.951C257.27 126.991 257.139 127.028 257.01 127.065C255.256 127.58 253.422 127.97 251.547 128.239C251.42 128.258 251.292 128.277 251.161 128.293C249.367 128.534 247.536 128.665 245.7 128.684C245.571 128.686 245.443 128.688 245.314 128.688C243.483 128.691 241.649 128.586 239.851 128.368C239.722 128.352 239.591 128.335 239.465 128.319C237.594 128.078 235.763 127.713 234.004 127.231C233.875 127.196 233.744 127.161 233.618 127.124C231.684 126.57 229.848 125.868 228.155 125.019C228.024 124.953 227.895 124.888 227.769 124.823C227.441 124.654 227.121 124.476 226.807 124.294C224.979 123.237 223.477 122.063 222.308 120.812C222.174 120.669 222.046 120.526 221.922 120.381C218.743 116.7 218.339 112.415 220.713 108.582C221.969 106.552 223.999 104.651 226.807 103.03C236.96 97.1669 253.483 97.1669 263.638 103.03C266.447 104.651 268.477 106.555 269.733 108.582C271.957 112.165 271.744 116.153 269.092 119.67Z" fill="#FF9D4D"/>
<path d="M246.233 111.085L249.203 112.799C249.135 112.832 249.07 112.867 249.004 112.904L247.374 113.844L244.598 112.242L245.515 111.714C245.845 111.524 246.083 111.314 246.233 111.085Z" fill="#D1975D"/>
<path d="M255.115 118.316L258.161 120.073L259.98 119.023L256.928 117.261C256.954 117.245 256.982 117.229 257.01 117.208C257.143 117.126 257.272 117.039 257.396 116.953C257.828 116.646 258.2 116.331 258.516 116.001C259.017 115.477 259.339 114.948 259.482 114.413C259.627 113.877 259.564 113.358 259.292 112.848C259.021 112.338 258.504 111.861 257.74 111.422C257.625 111.356 257.51 111.293 257.396 111.232C257.269 111.164 257.141 111.104 257.01 111.043C256.028 110.587 254.98 110.318 253.869 110.229C253.088 110.168 252.314 110.191 251.547 110.297C251.418 110.315 251.289 110.336 251.161 110.358C250.693 110.439 250.23 110.554 249.769 110.699C250.244 109.993 250.316 109.291 249.987 108.589C249.655 107.89 249.049 107.284 248.165 106.775C247.603 106.452 246.951 106.188 246.203 105.982C245.456 105.776 244.689 105.652 243.899 105.608C243.111 105.563 242.325 105.61 241.544 105.748C240.763 105.886 240.059 106.134 239.43 106.499L238.857 106.831L235.924 105.137L234.104 106.188L237.035 107.881L234.822 109.16L231.889 107.467L230.07 108.517L233.003 110.21L229.754 112.086L233.618 114.317L234.004 114.539L239.465 117.692L239.851 117.916L245.314 121.069L245.7 121.293L247.833 122.526L251.084 120.65L254.126 122.407L255.946 121.357L252.901 119.6L255.115 118.316ZM249.004 112.904C249.07 112.867 249.135 112.832 249.201 112.799C249.456 112.678 249.734 112.586 250.033 112.53C250.396 112.46 250.772 112.434 251.158 112.448C251.177 112.448 251.198 112.451 251.219 112.451C251.329 112.455 251.437 112.465 251.547 112.476C251.844 112.509 252.145 112.563 252.442 112.642C252.849 112.75 253.214 112.897 253.537 113.085C253.86 113.272 254.105 113.482 254.276 113.716C254.444 113.952 254.533 114.191 254.543 114.432C254.552 114.673 254.475 114.906 254.316 115.138C254.217 115.278 254.089 115.409 253.93 115.533C253.853 115.594 253.761 115.655 253.668 115.713C253.642 115.73 253.616 115.746 253.588 115.762L252.185 116.572L252.136 116.6L251.547 116.941L251.161 117.163L249.923 117.879L248.368 118.777L243.607 116.029L244.114 115.737L245.159 115.133L245.311 115.044L245.697 114.822L247.372 113.856L249.004 112.904ZM239.465 109.944L239.851 109.719L240.04 109.609L241.109 108.992C241.17 108.957 241.24 108.931 241.303 108.898C241.52 108.793 241.752 108.702 242.002 108.641C242.348 108.559 242.725 108.522 243.134 108.529C243.906 108.543 244.631 108.741 245.314 109.125C245.33 109.134 245.347 109.144 245.363 109.153C245.487 109.223 245.597 109.296 245.7 109.371C246.186 109.719 246.427 110.091 246.42 110.484C246.415 110.697 246.355 110.898 246.233 111.083C246.114 111.265 245.936 111.438 245.7 111.597C245.641 111.637 245.58 111.674 245.517 111.712L245.314 111.829L244.598 112.243L242.386 113.522L241.782 113.87L240.833 114.418L240.304 114.114L239.715 113.772L239.467 113.627L238.351 112.984L236.275 111.784L236.852 111.45L237.83 110.886L239.465 109.944Z" fill="#FF9D4D"/>
<path d="M217.284 121.937V128.319C217.148 128.148 217.022 127.978 216.898 127.804V121.42C217.022 121.593 217.151 121.766 217.284 121.937Z" fill="#FFE840"/>
<path d="M222.31 126.17V132.554C222.179 132.475 222.05 132.395 221.924 132.316V125.929C222.05 126.011 222.179 126.09 222.31 126.17Z" fill="#FFE840"/>
<path d="M228.157 128.971V135.359C228.028 135.312 227.897 135.263 227.771 135.211V128.826C227.897 128.876 228.028 128.927 228.157 128.971Z" fill="#FFE840"/>
<path d="M234.004 130.679V137.063C233.875 137.035 233.746 137.007 233.618 136.977V130.59C233.746 130.623 233.875 130.651 234.004 130.679Z" fill="#FFE840"/>
<path d="M239.853 131.598V137.983C239.724 137.971 239.596 137.957 239.467 137.943V131.558C239.593 131.574 239.722 131.589 239.853 131.598Z" fill="#FFE840"/>
<path d="M245.7 131.862V138.247C245.571 138.249 245.443 138.252 245.314 138.252V131.867C245.443 131.864 245.571 131.864 245.7 131.862Z" fill="#FFE840"/>
<path d="M251.547 131.497V137.882C251.418 137.898 251.289 137.915 251.161 137.927V131.542C251.289 131.528 251.418 131.514 251.547 131.497Z" fill="#FFE840"/>
<path d="M257.396 130.459V136.844C257.267 136.876 257.138 136.907 257.01 136.937V130.55C257.138 130.522 257.267 130.492 257.396 130.459Z" fill="#FFE840"/>
<path d="M263.243 128.607V134.991C263.114 135.043 262.985 135.094 262.857 135.143V128.756C262.985 128.71 263.114 128.658 263.243 128.607Z" fill="#FFE840"/>
<path d="M269.092 125.564V131.949C268.965 132.033 268.837 132.117 268.706 132.204V125.817C268.837 125.732 268.965 125.648 269.092 125.564Z" fill="#FFE840"/>
<path d="M274.279 120.417V126.801C274.157 127 274.027 127.199 273.891 127.398V121.013C274.027 120.814 274.155 120.615 274.279 120.417Z" fill="#FFE840"/>
<path d="M220.275 181.942V188.132C220.275 188.135 220.275 188.135 220.275 188.135V188.991H220.243C220.098 190.775 219.499 192.552 218.449 194.257C218.327 194.456 218.196 194.657 218.061 194.854C216.788 196.708 214.969 198.465 212.6 200.043C212.473 200.128 212.345 200.212 212.214 200.298C211.837 200.539 211.444 200.778 211.04 201.014C209.695 201.79 208.259 202.483 206.753 203.088C206.624 203.14 206.495 203.191 206.367 203.24C204.627 203.919 202.798 204.487 200.906 204.941C200.777 204.974 200.649 205.004 200.52 205.034C198.743 205.448 196.914 205.762 195.057 205.979C194.928 205.996 194.799 206.012 194.671 206.024C192.868 206.222 191.039 206.33 189.21 206.344C189.081 206.346 188.953 206.349 188.824 206.349C186.995 206.353 185.168 206.264 183.361 206.082C183.232 206.07 183.103 206.056 182.975 206.042C181.122 205.846 179.294 205.551 177.514 205.163C177.385 205.135 177.257 205.107 177.128 205.076C175.241 204.646 173.409 204.106 171.665 203.456C171.536 203.409 171.405 203.36 171.279 203.308C169.564 202.651 167.939 201.886 166.426 201.014C166.22 200.895 166.017 200.773 165.818 200.652C165.687 200.572 165.558 200.492 165.432 200.413C163.128 198.958 161.306 197.338 159.969 195.623C159.833 195.452 159.707 195.282 159.583 195.109C158.177 193.151 157.389 191.077 157.223 188.993H157.188V181.944H159.061C159.222 181.682 159.398 181.422 159.583 181.167C159.707 180.992 159.835 180.821 159.969 180.651C160.46 180.019 161.016 179.402 161.638 178.801C162.401 178.064 163.259 177.353 164.22 176.67C164.906 176.184 165.64 175.711 166.426 175.257C178.744 168.145 198.717 168.145 211.037 175.257C211.823 175.711 212.558 176.181 213.24 176.67C214.199 177.351 215.06 178.062 215.822 178.801C216.697 179.645 217.443 180.524 218.061 181.425C218.18 181.598 218.294 181.771 218.402 181.946H220.275V181.942Z" fill="#FF9D4D"/>
<path d="M188.733 170.306C197.091 170.306 204.945 172.182 210.845 175.59C211.613 176.034 212.345 176.502 213.018 176.983C213.954 177.648 214.807 178.352 215.556 179.077C216.402 179.893 217.137 180.756 217.745 181.642C217.855 181.799 217.962 181.965 218.077 182.147L218.191 182.33H218.407H219.889V188.137V188.607H219.885L219.857 188.962C219.716 190.702 219.132 192.417 218.117 194.059C218.004 194.241 217.878 194.435 217.74 194.639C216.468 196.496 214.665 198.205 212.384 199.725C212.258 199.81 212.132 199.894 212.003 199.976C211.634 200.212 211.243 200.45 210.843 200.682C209.536 201.437 208.111 202.127 206.605 202.733C206.479 202.784 206.35 202.834 206.222 202.883C204.514 203.549 202.695 204.118 200.805 204.569C200.679 204.602 200.555 204.63 200.429 204.66C198.689 205.065 196.864 205.38 195.007 205.598C194.881 205.614 194.757 205.628 194.626 205.642C192.839 205.839 191.015 205.946 189.196 205.96C189.072 205.963 188.945 205.963 188.821 205.963H188.719C186.934 205.963 185.145 205.874 183.393 205.699C183.269 205.689 183.145 205.675 183.017 205.661C181.178 205.467 179.357 205.172 177.598 204.786C177.472 204.758 177.343 204.73 177.214 204.7C175.325 204.27 173.503 203.729 171.8 203.095L171.753 203.079C171.643 203.039 171.531 202.997 171.417 202.95C169.709 202.298 168.096 201.533 166.62 200.682C166.416 200.563 166.215 200.446 166.019 200.324C165.89 200.245 165.761 200.167 165.637 200.09C163.413 198.685 161.608 197.104 160.272 195.387C160.153 195.237 160.032 195.074 159.898 194.886C158.544 192.999 157.772 191.007 157.609 188.965L157.581 188.609H157.576V182.334H159.063H159.278L159.393 182.152C159.55 181.902 159.72 181.647 159.903 181.394C160.015 181.235 160.139 181.072 160.279 180.891C160.757 180.276 161.306 179.668 161.914 179.081C162.674 178.349 163.528 177.645 164.452 176.988C165.135 176.504 165.864 176.034 166.627 175.594C172.518 172.182 180.372 170.306 188.733 170.306ZM188.733 169.92C180.659 169.92 172.586 171.698 166.428 175.255C165.642 175.709 164.908 176.181 164.223 176.668C163.264 177.348 162.403 178.062 161.641 178.798C161.018 179.399 160.46 180.017 159.971 180.648C159.837 180.819 159.709 180.99 159.585 181.165C159.4 181.42 159.225 181.68 159.063 181.942H157.19V188.991H157.225C157.393 191.077 158.179 193.149 159.585 195.106C159.709 195.279 159.835 195.45 159.971 195.621C161.306 197.335 163.128 198.956 165.434 200.411C165.56 200.49 165.689 200.57 165.82 200.649C166.019 200.771 166.222 200.89 166.428 201.012C167.939 201.884 169.564 202.651 171.281 203.306C171.407 203.357 171.538 203.404 171.667 203.453C173.409 204.103 175.24 204.641 177.13 205.074C177.259 205.104 177.387 205.133 177.516 205.161C179.293 205.551 181.125 205.846 182.977 206.04C183.106 206.054 183.234 206.068 183.363 206.08C185.136 206.257 186.927 206.346 188.721 206.346C188.756 206.346 188.791 206.346 188.826 206.346C188.955 206.346 189.083 206.344 189.212 206.342C191.041 206.328 192.87 206.22 194.673 206.021C194.802 206.01 194.93 205.993 195.059 205.977C196.916 205.759 198.745 205.446 200.522 205.032C200.651 205.002 200.779 204.971 200.908 204.938C202.8 204.485 204.629 203.916 206.369 203.238C206.498 203.189 206.626 203.138 206.755 203.086C208.261 202.48 209.697 201.788 211.042 201.012C211.446 200.778 211.839 200.539 212.216 200.296C212.347 200.212 212.476 200.128 212.602 200.041C214.971 198.462 216.79 196.704 218.063 194.851C218.198 194.655 218.329 194.454 218.451 194.255C219.503 192.55 220.1 190.775 220.245 188.988H220.278V188.132C220.278 188.132 220.278 188.132 220.278 188.13V181.939H218.404C218.294 181.764 218.182 181.591 218.063 181.418C217.448 180.517 216.702 179.64 215.825 178.794C215.062 178.057 214.201 177.346 213.243 176.663C212.557 176.174 211.823 175.704 211.04 175.25C204.879 171.698 196.804 169.92 188.733 169.92Z" fill="#FFE840"/>
<path d="M188.733 199.959C206.155 199.959 220.278 191.806 220.278 181.747C220.278 171.689 206.155 163.536 188.733 163.536C171.311 163.536 157.188 171.689 157.188 181.747C157.188 191.806 171.311 199.959 188.733 199.959Z" fill="#FFE840"/>
<path d="M215.822 178.798C214.812 175.671 212.2 172.795 208.219 170.498C203.013 167.493 196.09 165.837 188.73 165.837C181.368 165.837 174.448 167.493 169.242 170.498C165.261 172.795 162.646 175.674 161.638 178.798C161.327 179.762 161.168 180.749 161.168 181.747C161.168 184.806 162.653 187.735 165.429 190.256C165.556 190.373 165.684 190.485 165.815 190.597C166.809 191.453 167.953 192.255 169.242 192.999C169.894 193.376 170.575 193.731 171.276 194.063C171.405 194.124 171.534 194.185 171.662 194.243C173.358 195.02 175.191 195.67 177.125 196.187C177.254 196.222 177.383 196.257 177.511 196.29C179.261 196.739 181.087 197.083 182.972 197.309C183.101 197.328 183.23 197.342 183.358 197.356C185.108 197.555 186.906 197.656 188.73 197.656H188.819C188.948 197.656 189.076 197.653 189.205 197.651C191.062 197.632 192.889 197.511 194.666 197.286C194.795 197.27 194.923 197.253 195.052 197.235C196.939 196.982 198.768 196.612 200.515 196.135C200.646 196.1 200.775 196.065 200.901 196.025C202.842 195.476 204.674 194.786 206.362 193.972C206.491 193.911 206.622 193.848 206.748 193.783C207.251 193.532 207.742 193.268 208.217 192.994C209.758 192.106 211.093 191.128 212.209 190.085C212.342 189.961 212.471 189.837 212.595 189.713C215.004 187.318 216.288 184.587 216.288 181.743C216.292 180.746 216.133 179.759 215.822 178.798ZM212.6 187.765C212.476 187.929 212.347 188.092 212.214 188.256C210.974 189.748 209.286 191.147 207.148 192.382C207.017 192.456 206.886 192.531 206.75 192.606C206.624 192.676 206.495 192.746 206.364 192.814C204.683 193.71 202.847 194.454 200.903 195.045C200.777 195.085 200.646 195.123 200.518 195.16C198.764 195.675 196.93 196.065 195.054 196.334C194.928 196.353 194.799 196.372 194.668 196.388C192.875 196.629 191.043 196.76 189.207 196.778C189.079 196.781 188.95 196.783 188.822 196.783C186.99 196.786 185.157 196.68 183.358 196.463C183.23 196.446 183.099 196.43 182.972 196.414C181.101 196.173 179.27 195.808 177.511 195.326C177.383 195.291 177.252 195.256 177.125 195.219C175.191 194.664 173.355 193.963 171.662 193.114C171.531 193.048 171.403 192.983 171.276 192.917C170.949 192.749 170.628 192.571 170.315 192.389C168.486 191.332 166.985 190.158 165.815 188.906C165.682 188.764 165.553 188.621 165.429 188.476C162.251 184.795 161.846 180.51 164.22 176.677C165.476 174.647 167.506 172.746 170.315 171.125C180.468 165.262 196.991 165.262 207.148 171.125C209.957 172.746 211.987 174.649 213.243 176.677C215.464 180.26 215.252 184.248 212.6 187.765Z" fill="#FF9D4D"/>
<path d="M189.74 179.179L192.711 180.894C192.643 180.926 192.577 180.962 192.512 180.999L190.882 181.939L188.106 180.337L189.023 179.809C189.352 179.619 189.591 179.409 189.74 179.179Z" fill="#D1975D"/>
<path d="M198.625 186.411L201.671 188.167L203.49 187.117L200.438 185.356C200.464 185.34 200.492 185.323 200.52 185.302C200.653 185.22 200.782 185.134 200.906 185.047C201.338 184.741 201.71 184.425 202.026 184.095C202.527 183.572 202.849 183.043 202.992 182.507C203.137 181.972 203.074 181.453 202.802 180.943C202.531 180.433 202.014 179.956 201.25 179.516C201.135 179.451 201.02 179.388 200.906 179.327C200.779 179.259 200.651 179.198 200.52 179.137C199.538 178.681 198.49 178.412 197.379 178.323C196.598 178.263 195.824 178.286 195.057 178.391C194.928 178.41 194.799 178.431 194.671 178.452C194.203 178.534 193.74 178.648 193.279 178.793C193.754 178.087 193.826 177.386 193.497 176.684C193.165 175.985 192.559 175.379 191.675 174.869C191.113 174.546 190.461 174.282 189.713 174.076C188.966 173.87 188.199 173.746 187.409 173.702C186.621 173.658 185.835 173.704 185.054 173.842C184.273 173.98 183.569 174.228 182.94 174.593L182.367 174.925L179.434 173.232L177.614 174.282L180.545 175.975L178.332 177.255L175.399 175.561L173.58 176.611L176.513 178.305L173.264 180.18L177.128 182.412L177.514 182.634L182.975 185.786L183.361 186.011L188.824 189.163L189.21 189.388L191.343 190.621L194.594 188.745L197.636 190.501L199.456 189.451L196.411 187.695L198.625 186.411ZM192.512 180.999C192.577 180.961 192.643 180.926 192.708 180.894C192.963 180.772 193.242 180.681 193.541 180.625C193.904 180.555 194.28 180.529 194.666 180.543C194.685 180.543 194.706 180.545 194.727 180.545C194.837 180.55 194.944 180.559 195.054 180.571C195.351 180.604 195.653 180.657 195.95 180.737C196.357 180.845 196.722 180.992 197.045 181.179C197.367 181.366 197.613 181.577 197.784 181.81C197.952 182.047 198.041 182.285 198.05 182.526C198.06 182.767 197.982 183.001 197.823 183.232C197.725 183.373 197.596 183.504 197.437 183.628C197.358 183.688 197.269 183.749 197.175 183.808C197.15 183.824 197.124 183.84 197.096 183.857L195.693 184.666L195.644 184.694L195.054 185.036L194.668 185.258L193.431 185.973L191.876 186.871L187.114 184.123L187.622 183.831L188.667 183.228L188.819 183.139L189.205 182.917L190.88 181.951L192.512 180.999ZM182.972 178.038L183.358 177.814L183.548 177.704L184.616 177.086C184.677 177.051 184.747 177.023 184.811 176.993C185.028 176.887 185.26 176.796 185.51 176.735C185.856 176.654 186.232 176.616 186.642 176.623C187.414 176.637 188.139 176.836 188.821 177.219C188.838 177.229 188.854 177.238 188.871 177.248C188.995 177.318 189.104 177.39 189.207 177.465C189.694 177.814 189.935 178.185 189.928 178.578C189.923 178.791 189.862 178.992 189.741 179.177C189.621 179.359 189.444 179.533 189.207 179.692C189.149 179.731 189.088 179.769 189.025 179.806L188.821 179.923L188.106 180.337L185.893 181.616L185.29 181.965L184.34 182.512L183.812 182.208L183.223 181.867L182.975 181.722L181.859 181.078L179.782 179.879L180.36 179.544L181.337 178.981L182.972 178.038Z" fill="#FF9D4D"/>
<path d="M160.792 190.031V196.414C160.656 196.243 160.53 196.072 160.406 195.899V189.514C160.53 189.687 160.658 189.861 160.792 190.031Z" fill="#FFE840"/>
<path d="M165.818 194.264V200.649C165.687 200.57 165.558 200.49 165.432 200.411V194.023C165.558 194.105 165.687 194.185 165.818 194.264Z" fill="#FFE840"/>
<path d="M171.664 197.066V203.453C171.536 203.406 171.405 203.357 171.279 203.306V196.921C171.405 196.97 171.536 197.022 171.664 197.066Z" fill="#FFE840"/>
<path d="M177.514 198.773V205.158C177.385 205.13 177.256 205.102 177.128 205.072V198.685C177.256 198.717 177.385 198.745 177.514 198.773Z" fill="#FFE840"/>
<path d="M183.361 199.693V206.077C183.232 206.066 183.103 206.052 182.975 206.038V199.653C183.103 199.669 183.232 199.683 183.361 199.693Z" fill="#FFE840"/>
<path d="M189.207 199.957V206.342C189.079 206.344 188.95 206.346 188.822 206.346V199.961C188.95 199.959 189.079 199.959 189.207 199.957Z" fill="#FFE840"/>
<path d="M195.057 199.592V205.977C194.928 205.993 194.799 206.01 194.671 206.021V199.636C194.797 199.622 194.926 199.606 195.057 199.592Z" fill="#FFE840"/>
<path d="M200.903 198.553V204.938C200.775 204.971 200.646 205.001 200.518 205.032V198.645C200.646 198.617 200.775 198.586 200.903 198.553Z" fill="#FFE840"/>
<path d="M206.75 196.701V203.086C206.622 203.138 206.493 203.189 206.365 203.238V196.851C206.493 196.804 206.622 196.753 206.75 196.701Z" fill="#FFE840"/>
<path d="M212.599 193.659V200.043C212.473 200.128 212.344 200.212 212.213 200.298V193.911C212.344 193.827 212.473 193.743 212.599 193.659Z" fill="#FFE840"/>
<path d="M217.787 188.511V194.896C217.665 195.095 217.534 195.293 217.398 195.492V189.107C217.534 188.909 217.663 188.71 217.787 188.511Z" fill="#FFE840"/>
</g>
<path d="M133.781 278.236V284.025H129.668V266.963H136.477C137.781 266.963 138.934 267.205 139.934 267.689C140.941 268.166 141.719 268.85 142.266 269.74C142.82 270.623 143.098 271.627 143.098 272.752C143.098 274.416 142.5 275.748 141.305 276.748C140.117 277.74 138.484 278.236 136.406 278.236H133.781ZM133.781 275.061H136.477C137.273 275.061 137.879 274.861 138.293 274.463C138.715 274.064 138.926 273.502 138.926 272.775C138.926 271.979 138.711 271.342 138.281 270.865C137.852 270.389 137.266 270.146 136.523 270.139H133.781V275.061ZM159.75 275.846C159.75 277.51 159.441 278.982 158.824 280.264C158.207 281.545 157.328 282.533 156.188 283.229C155.055 283.916 153.762 284.26 152.309 284.26C150.855 284.26 149.566 283.928 148.441 283.264C147.316 282.592 146.438 281.635 145.805 280.393C145.18 279.15 144.852 277.725 144.82 276.115V275.154C144.82 273.482 145.125 272.01 145.734 270.736C146.352 269.455 147.23 268.467 148.371 267.771C149.52 267.076 150.824 266.729 152.285 266.729C153.73 266.729 155.02 267.072 156.152 267.76C157.285 268.447 158.164 269.428 158.789 270.701C159.422 271.967 159.742 273.42 159.75 275.061V275.846ZM155.566 275.131C155.566 273.436 155.281 272.15 154.711 271.275C154.148 270.393 153.34 269.951 152.285 269.951C150.223 269.951 149.133 271.498 149.016 274.592L149.004 275.846C149.004 277.518 149.281 278.803 149.836 279.701C150.391 280.6 151.215 281.049 152.309 281.049C153.348 281.049 154.148 280.607 154.711 279.725C155.273 278.842 155.559 277.572 155.566 275.916V275.131ZM175.09 277.662L177.047 266.963H181.125L177.504 284.025H173.238L170.953 274.299L168.715 284.025H164.461L160.828 266.963H164.918L166.875 277.662L169.219 266.963H172.711L175.09 277.662ZM193.312 276.795H186.844V280.861H194.484V284.025H182.73V266.963H194.508V270.139H186.844V273.736H193.312V276.795ZM202.5 278.002H200.273V284.025H196.16V266.963H202.875C204.898 266.963 206.48 267.412 207.621 268.311C208.762 269.209 209.332 270.479 209.332 272.119C209.332 273.307 209.09 274.291 208.605 275.072C208.129 275.854 207.379 276.486 206.355 276.971L209.918 283.85V284.025H205.512L202.5 278.002ZM200.273 274.826H202.875C203.656 274.826 204.242 274.623 204.633 274.217C205.031 273.803 205.23 273.229 205.23 272.494C205.23 271.76 205.031 271.186 204.633 270.771C204.234 270.35 203.648 270.139 202.875 270.139H200.273V274.826ZM222.562 277.229H215.93V284.025H211.816V266.963H223.23V270.139H215.93V274.064H222.562V277.229ZM238.324 266.963V278.131C238.324 279.396 238.055 280.494 237.516 281.424C236.977 282.346 236.203 283.049 235.195 283.533C234.188 284.018 232.996 284.26 231.621 284.26C229.543 284.26 227.906 283.721 226.711 282.643C225.516 281.564 224.906 280.088 224.883 278.213V266.963H229.02V278.295C229.066 280.162 229.934 281.096 231.621 281.096C232.473 281.096 233.117 280.861 233.555 280.393C233.992 279.924 234.211 279.162 234.211 278.107V266.963H238.324ZM245.016 280.861H252.176V284.025H240.902V266.963H245.016V280.861ZM127.746 298.139H122.625V312.025H118.512V298.139H113.484V294.963H127.746V298.139ZM140.074 304.795H133.605V308.861H141.246V312.025H129.492V294.963H141.27V298.139H133.605V301.736H140.074V304.795ZM156.727 306.248C156.672 307.436 156.352 308.486 155.766 309.4C155.18 310.307 154.355 311.01 153.293 311.51C152.238 312.01 151.031 312.26 149.672 312.26C147.43 312.26 145.664 311.529 144.375 310.068C143.086 308.607 142.441 306.545 142.441 303.881V303.037C142.441 301.365 142.73 299.904 143.309 298.654C143.895 297.396 144.734 296.428 145.828 295.748C146.922 295.061 148.188 294.717 149.625 294.717C151.695 294.717 153.359 295.264 154.617 296.357C155.875 297.443 156.59 298.943 156.762 300.857H152.66C152.629 299.818 152.367 299.072 151.875 298.619C151.383 298.166 150.633 297.939 149.625 297.939C148.602 297.939 147.852 298.322 147.375 299.088C146.898 299.854 146.648 301.076 146.625 302.756V303.963C146.625 305.783 146.852 307.084 147.305 307.865C147.766 308.646 148.555 309.037 149.672 309.037C150.617 309.037 151.34 308.814 151.84 308.369C152.34 307.924 152.605 307.217 152.637 306.248H156.727ZM172.934 312.025H168.844V304.9H162.785V312.025H158.672V294.963H162.785V301.736H168.844V294.963H172.934V312.025ZM189.797 312.025H185.707L179.66 301.408V312.025H175.547V294.963H179.66L185.695 305.58V294.963H189.797V312.025ZM206.848 303.846C206.848 305.51 206.539 306.982 205.922 308.264C205.305 309.545 204.426 310.533 203.285 311.229C202.152 311.916 200.859 312.26 199.406 312.26C197.953 312.26 196.664 311.928 195.539 311.264C194.414 310.592 193.535 309.635 192.902 308.393C192.277 307.15 191.949 305.725 191.918 304.115V303.154C191.918 301.482 192.223 300.01 192.832 298.736C193.449 297.455 194.328 296.467 195.469 295.771C196.617 295.076 197.922 294.729 199.383 294.729C200.828 294.729 202.117 295.072 203.25 295.76C204.383 296.447 205.262 297.428 205.887 298.701C206.52 299.967 206.84 301.42 206.848 303.061V303.846ZM202.664 303.131C202.664 301.436 202.379 300.15 201.809 299.275C201.246 298.393 200.438 297.951 199.383 297.951C197.32 297.951 196.23 299.498 196.113 302.592L196.102 303.846C196.102 305.518 196.379 306.803 196.934 307.701C197.488 308.6 198.312 309.049 199.406 309.049C200.445 309.049 201.246 308.607 201.809 307.725C202.371 306.842 202.656 305.572 202.664 303.916V303.131ZM213.082 308.861H220.242V312.025H208.969V294.963H213.082V308.861ZM235.676 303.846C235.676 305.51 235.367 306.982 234.75 308.264C234.133 309.545 233.254 310.533 232.113 311.229C230.98 311.916 229.688 312.26 228.234 312.26C226.781 312.26 225.492 311.928 224.367 311.264C223.242 310.592 222.363 309.635 221.73 308.393C221.105 307.15 220.777 305.725 220.746 304.115V303.154C220.746 301.482 221.051 300.01 221.66 298.736C222.277 297.455 223.156 296.467 224.297 295.771C225.445 295.076 226.75 294.729 228.211 294.729C229.656 294.729 230.945 295.072 232.078 295.76C233.211 296.447 234.09 297.428 234.715 298.701C235.348 299.967 235.668 301.42 235.676 303.061V303.846ZM231.492 303.131C231.492 301.436 231.207 300.15 230.637 299.275C230.074 298.393 229.266 297.951 228.211 297.951C226.148 297.951 225.059 299.498 224.941 302.592L224.93 303.846C224.93 305.518 225.207 306.803 225.762 307.701C226.316 308.6 227.141 309.049 228.234 309.049C229.273 309.049 230.074 308.607 230.637 307.725C231.199 306.842 231.484 305.572 231.492 303.916V303.131ZM251.766 309.916C251.133 310.619 250.207 311.186 248.988 311.615C247.77 312.045 246.434 312.26 244.98 312.26C242.746 312.26 240.961 311.576 239.625 310.209C238.289 308.842 237.574 306.939 237.48 304.502L237.469 303.025C237.469 301.346 237.766 299.881 238.359 298.631C238.953 297.373 239.801 296.408 240.902 295.736C242.012 295.057 243.293 294.717 244.746 294.717C246.871 294.717 248.52 295.205 249.691 296.182C250.871 297.15 251.559 298.6 251.754 300.529H247.793C247.652 299.576 247.348 298.896 246.879 298.49C246.41 298.084 245.746 297.881 244.887 297.881C243.855 297.881 243.059 298.318 242.496 299.193C241.934 300.068 241.648 301.318 241.641 302.943V303.975C241.641 305.678 241.93 306.959 242.508 307.818C243.094 308.67 244.012 309.096 245.262 309.096C246.332 309.096 247.129 308.857 247.652 308.381V305.732H244.793V302.908H251.766V309.916ZM260.402 302.369L263.543 294.963H267.984L262.488 305.896V312.025H258.316V305.896L252.832 294.963H257.25L260.402 302.369Z" fill="white"/>
<defs>
<filter id="filter0_b" x="18.1599" y="-6.76735" width="344.68" height="394.586" filterUnits="userSpaceOnUse" color-interpolation-filters="sRGB">
<feFlood flood-opacity="0" result="BackgroundImageFix"/>
<feGaussianBlur in="BackgroundImage" stdDeviation="3.68116"/>
<feComposite in2="SourceAlpha" operator="in" result="effect1_backgroundBlur"/>
<feBlend mode="normal" in="SourceGraphic" in2="effect1_backgroundBlur" result="shape"/>
</filter>
<linearGradient id="paint0_linear" x1="179.874" y1="131.816" x2="310.573" y2="131.816" gradientUnits="userSpaceOnUse">
<stop stop-color="#DA9022"/>
<stop offset="1" stop-color="#FFC85C"/>
</linearGradient>
<linearGradient id="paint1_linear" x1="179.874" y1="122.22" x2="310.575" y2="122.22" gradientUnits="userSpaceOnUse">
<stop stop-color="#EB9310"/>
<stop offset="1" stop-color="#FFE711"/>
</linearGradient>
<linearGradient id="paint2_linear" x1="66.4639" y1="146.647" x2="187.01" y2="146.647" gradientUnits="userSpaceOnUse">
<stop stop-color="#DA9022"/>
<stop offset="1" stop-color="#FFC85C"/>
</linearGradient>
<linearGradient id="paint3_linear" x1="66.4634" y1="137.797" x2="187.012" y2="137.797" gradientUnits="userSpaceOnUse">
<stop stop-color="#EB9310"/>
<stop offset="1" stop-color="#FFE711"/>
</linearGradient>
<linearGradient id="paint4_linear" x1="142.824" y1="195.386" x2="232.639" y2="195.386" gradientUnits="userSpaceOnUse">
<stop stop-color="#DA9022"/>
<stop offset="1" stop-color="#FFC85C"/>
</linearGradient>
<linearGradient id="paint5_linear" x1="142.825" y1="188.794" x2="232.64" y2="188.794" gradientUnits="userSpaceOnUse">
<stop stop-color="#EB9310"/>
<stop offset="1" stop-color="#FFE711"/>
</linearGradient>
<clipPath id="clip0">
<rect width="250" height="137.754" fill="white" transform="translate(66 84.0254)"/>
</clipPath>
</defs>
</svg>
