<svg width="381" height="382" viewBox="0 0 381 382" fill="none" xmlns="http://www.w3.org/2000/svg">
<g filter="url(#filter0_b)">
<path d="M188.659 1.08805C189.798 0.430477 191.202 0.430474 192.341 1.08805L353.637 94.2127C354.776 94.8703 355.478 96.0856 355.478 97.4007V283.65C355.478 284.965 354.776 286.18 353.637 286.838L192.341 379.963C191.202 380.62 189.798 380.62 188.659 379.963L27.3627 286.838C26.2238 286.18 25.5222 284.965 25.5222 283.65V97.4007C25.5222 96.0856 26.2238 94.8703 27.3627 94.2127L188.659 1.08805Z" fill="#576784" fill-opacity="0.26"/>
<path d="M189.12 1.88505C189.974 1.39186 191.026 1.39186 191.88 1.88504L353.177 95.0097C354.031 95.5029 354.558 96.4143 354.558 97.4007V283.65C354.558 284.636 354.031 285.548 353.177 286.041L191.88 379.166C191.026 379.659 189.974 379.659 189.12 379.166L27.8229 286.041C26.9687 285.548 26.4424 284.636 26.4424 283.65V97.4007C26.4424 96.4144 26.9687 95.5029 27.8229 95.0097L189.12 1.88505Z" stroke="#425F99" stroke-width="1.84058"/>
</g>
<g clip-path="url(#clip0)">
<path d="M231.568 250.025C251.664 250.025 267.955 240.62 267.955 229.017C267.955 217.414 251.664 208.009 231.568 208.009C211.472 208.009 195.181 217.414 195.181 229.017C195.181 240.62 211.472 250.025 231.568 250.025Z" fill="#1F2F3E"/>
<path d="M172.334 179.176C205.678 179.176 232.709 163.569 232.709 144.317C232.709 125.065 205.678 109.458 172.334 109.458C138.989 109.458 111.958 125.065 111.958 144.317C111.958 163.569 138.989 179.176 172.334 179.176Z" fill="#1F2F3E"/>
<path d="M178.925 165.081V169.153V169.716H178.903C178.808 170.891 178.413 172.06 177.723 173.18C177.644 173.313 177.558 173.443 177.469 173.573C176.631 174.793 175.436 175.949 173.877 176.988C173.793 177.044 173.709 177.1 173.622 177.156C173.373 177.314 173.116 177.472 172.848 177.628C171.964 178.14 171.019 178.593 170.029 178.993C169.944 179.026 169.858 179.059 169.774 179.092C168.63 179.538 167.425 179.912 166.182 180.21C166.098 180.233 166.012 180.251 165.928 180.271C164.759 180.544 163.556 180.75 162.334 180.893C162.25 180.903 162.163 180.913 162.079 180.921C160.892 181.051 159.69 181.122 158.488 181.132C158.404 181.132 158.317 181.135 158.233 181.135C157.031 181.137 155.829 181.079 154.639 180.959C154.555 180.951 154.469 180.944 154.384 180.934C153.164 180.804 151.962 180.61 150.793 180.355C150.709 180.338 150.622 180.317 150.538 180.299C149.295 180.017 148.091 179.66 146.944 179.235C146.86 179.204 146.774 179.171 146.69 179.138C145.561 178.705 144.492 178.203 143.498 177.628C143.363 177.549 143.228 177.47 143.098 177.391C143.012 177.337 142.928 177.286 142.844 177.233C141.328 176.275 140.129 175.21 139.25 174.082C139.161 173.97 139.077 173.858 138.995 173.743C138.071 172.454 137.553 171.092 137.441 169.719H137.418V165.081H138.651C138.758 164.91 138.873 164.739 138.995 164.569C139.077 164.454 139.161 164.342 139.25 164.227C139.573 163.812 139.94 163.405 140.35 163.01C140.852 162.526 141.417 162.057 142.049 161.609C142.5 161.288 142.984 160.977 143.501 160.679C151.606 156 164.746 156 172.851 160.679C173.368 160.977 173.849 161.288 174.3 161.609C174.929 162.057 175.497 162.526 175.999 163.01C176.575 163.565 177.066 164.143 177.471 164.737C177.55 164.851 177.624 164.964 177.695 165.078H178.925V165.081Z" fill="#FF9D4D"/>
<path d="M158.172 157.427C163.671 157.427 168.839 158.662 172.721 160.901C173.225 161.194 173.707 161.502 174.15 161.818C174.766 162.256 175.327 162.72 175.818 163.196C176.374 163.733 176.86 164.301 177.257 164.885C177.334 164.994 177.405 165.106 177.476 165.216L177.55 165.335H177.69H178.668V169.156V169.464H178.666L178.648 169.699C178.556 170.842 178.172 171.971 177.504 173.051C177.431 173.17 177.349 173.298 177.257 173.433C176.419 174.653 175.235 175.781 173.732 176.779C173.651 176.835 173.567 176.889 173.483 176.945C173.238 177.1 172.981 177.258 172.718 177.409C171.858 177.905 170.92 178.359 169.932 178.759C169.848 178.792 169.764 178.825 169.68 178.858C168.557 179.296 167.359 179.67 166.116 179.968C166.038 179.989 165.956 180.007 165.869 180.03C164.723 180.294 163.524 180.503 162.296 180.646C162.217 180.656 162.135 180.666 162.051 180.674C160.875 180.804 159.675 180.875 158.483 180.883C158.399 180.883 158.317 180.885 158.233 180.885H158.165C156.99 180.885 155.814 180.827 154.66 180.71C154.581 180.702 154.499 180.694 154.413 180.684C153.205 180.557 152.006 180.363 150.847 180.108L150.832 180.106C150.753 180.088 150.674 180.07 150.595 180.052C149.352 179.77 148.155 179.413 147.034 178.995L147.003 178.985C146.932 178.957 146.858 178.932 146.782 178.901C145.658 178.471 144.596 177.969 143.626 177.409C143.491 177.33 143.361 177.253 143.229 177.174C143.144 177.123 143.06 177.07 142.979 177.019C141.517 176.094 140.327 175.055 139.449 173.924C139.37 173.825 139.288 173.718 139.202 173.596C138.31 172.355 137.803 171.043 137.696 169.699L137.678 169.464H137.676V165.335H138.654H138.794L138.868 165.216C138.97 165.05 139.082 164.885 139.204 164.717C139.278 164.612 139.36 164.503 139.451 164.385C139.765 163.98 140.126 163.581 140.526 163.196C141.025 162.715 141.588 162.251 142.194 161.818C142.643 161.5 143.124 161.191 143.626 160.901C147.505 158.66 152.671 157.427 158.172 157.427ZM158.172 157.172C152.862 157.172 147.548 158.341 143.496 160.682C142.979 160.98 142.495 161.291 142.044 161.612C141.412 162.06 140.847 162.529 140.345 163.013C139.935 163.407 139.568 163.815 139.245 164.23C139.156 164.342 139.072 164.454 138.99 164.571C138.868 164.739 138.753 164.91 138.646 165.083H137.414V169.722H137.436C137.546 171.094 138.066 172.457 138.99 173.746C139.072 173.861 139.156 173.973 139.245 174.085C140.124 175.213 141.323 176.278 142.839 177.235C142.923 177.286 143.007 177.34 143.094 177.393C143.223 177.472 143.358 177.551 143.493 177.63C144.489 178.206 145.557 178.708 146.685 179.141C146.769 179.174 146.856 179.207 146.94 179.237C148.086 179.665 149.291 180.019 150.534 180.302C150.618 180.322 150.704 180.34 150.788 180.358C151.957 180.615 153.162 180.809 154.38 180.936C154.464 180.946 154.55 180.954 154.634 180.962C155.801 181.079 156.98 181.137 158.159 181.137C158.182 181.137 158.205 181.137 158.228 181.137C158.312 181.137 158.399 181.137 158.483 181.135C159.688 181.125 160.89 181.056 162.074 180.924C162.158 180.916 162.245 180.906 162.329 180.896C163.549 180.753 164.754 180.547 165.923 180.274C166.007 180.254 166.094 180.236 166.178 180.213C167.423 179.915 168.625 179.54 169.769 179.095C169.853 179.062 169.94 179.029 170.024 178.995C171.014 178.596 171.959 178.142 172.843 177.63C173.111 177.475 173.368 177.319 173.615 177.159C173.702 177.103 173.786 177.047 173.87 176.991C175.429 175.952 176.626 174.795 177.461 173.575C177.55 173.445 177.637 173.313 177.716 173.183C178.409 172.062 178.801 170.893 178.895 169.719H178.918V169.156V165.083H177.685C177.614 164.969 177.54 164.854 177.461 164.742C177.056 164.151 176.565 163.573 175.989 163.015C175.487 162.531 174.922 162.062 174.29 161.614C173.839 161.293 173.358 160.983 172.841 160.685C168.793 158.341 163.483 157.172 158.172 157.172Z" fill="#FFE840"/>
<path d="M158.172 176.935C169.634 176.935 178.925 171.57 178.925 164.953C178.925 158.336 169.634 152.972 158.172 152.972C146.71 152.972 137.418 158.336 137.418 164.953C137.418 171.57 146.71 176.935 158.172 176.935Z" fill="#FFE840"/>
<path d="M175.997 163.012C175.332 160.954 173.612 159.062 170.994 157.551C167.568 155.572 163.014 154.485 158.172 154.485C153.328 154.485 148.773 155.572 145.35 157.551C142.732 159.062 141.013 160.957 140.348 163.012C140.144 163.646 140.04 164.296 140.04 164.953C140.04 166.965 141.018 168.893 142.844 170.552C142.925 170.628 143.012 170.702 143.099 170.776C143.753 171.339 144.505 171.866 145.353 172.357C145.783 172.604 146.229 172.839 146.69 173.058C146.774 173.099 146.861 173.137 146.945 173.175C148.06 173.687 149.265 174.115 150.539 174.454C150.623 174.477 150.709 174.499 150.793 174.522C151.945 174.818 153.147 175.045 154.385 175.192C154.469 175.205 154.555 175.215 154.639 175.223C155.791 175.355 156.972 175.419 158.175 175.419H158.233C158.317 175.419 158.404 175.419 158.488 175.416C159.711 175.404 160.913 175.325 162.079 175.177C162.163 175.167 162.25 175.157 162.334 175.144C163.577 174.978 164.779 174.734 165.928 174.421C166.015 174.398 166.099 174.375 166.183 174.349C167.459 173.988 168.664 173.534 169.774 172.999C169.858 172.961 169.945 172.918 170.029 172.874C170.36 172.709 170.683 172.536 170.997 172.355C172.01 171.769 172.889 171.127 173.623 170.442C173.709 170.36 173.793 170.279 173.877 170.197C175.462 168.621 176.307 166.825 176.307 164.953C176.305 164.293 176.2 163.646 175.997 163.012ZM173.875 168.911C173.793 169.018 173.709 169.128 173.62 169.235C172.805 170.218 171.695 171.135 170.289 171.947C170.202 171.998 170.115 172.047 170.026 172.095C169.942 172.141 169.858 172.187 169.771 172.233C168.666 172.824 167.456 173.31 166.18 173.7C166.096 173.725 166.009 173.751 165.925 173.776C164.772 174.115 163.567 174.372 162.331 174.548C162.247 174.561 162.163 174.573 162.077 174.584C160.897 174.741 159.69 174.828 158.485 174.841C158.401 174.841 158.315 174.843 158.231 174.843C157.026 174.846 155.819 174.777 154.637 174.632C154.553 174.622 154.466 174.612 154.382 174.599C153.152 174.441 151.945 174.201 150.791 173.883C150.707 173.86 150.62 173.837 150.536 173.812C149.265 173.448 148.055 172.987 146.942 172.426C146.856 172.383 146.771 172.34 146.687 172.296C146.473 172.184 146.262 172.07 146.056 171.95C144.851 171.255 143.865 170.483 143.096 169.657C143.009 169.563 142.925 169.469 142.841 169.375C140.75 166.953 140.483 164.133 142.044 161.611C142.869 160.277 144.207 159.026 146.056 157.959C152.737 154.103 163.608 154.103 170.289 157.959C172.135 159.026 173.472 160.277 174.298 161.611C175.76 163.975 175.62 166.598 173.875 168.911Z" fill="#FF9D4D"/>
<path d="M158.838 163.265L160.791 164.393C160.748 164.413 160.705 164.436 160.661 164.462L159.589 165.081L157.763 164.026L158.366 163.677C158.58 163.552 158.738 163.415 158.838 163.265Z" fill="#D1975D"/>
<path d="M164.68 168.02L166.682 169.176L167.879 168.486L165.872 167.327C165.89 167.314 165.908 167.304 165.926 167.291C166.015 167.238 166.099 167.179 166.181 167.123C166.466 166.922 166.71 166.713 166.917 166.497C167.245 166.153 167.459 165.804 167.553 165.452C167.648 165.101 167.607 164.757 167.429 164.423C167.25 164.087 166.909 163.774 166.407 163.483C166.331 163.44 166.257 163.399 166.181 163.359C166.096 163.315 166.012 163.275 165.926 163.234C165.279 162.933 164.591 162.758 163.86 162.699C163.346 162.658 162.839 162.674 162.332 162.745C162.248 162.758 162.161 162.77 162.077 162.786C161.769 162.839 161.463 162.915 161.16 163.01C161.474 162.546 161.519 162.083 161.303 161.622C161.084 161.161 160.687 160.763 160.106 160.427C159.736 160.216 159.306 160.04 158.814 159.905C158.323 159.77 157.819 159.688 157.299 159.658C156.779 159.63 156.262 159.658 155.75 159.749C155.236 159.841 154.772 160.004 154.36 160.244L153.983 160.463L152.052 159.35L150.855 160.04L152.783 161.153L151.329 161.993L149.398 160.88L148.201 161.571L150.129 162.684L147.992 163.916L150.534 165.384L150.789 165.529L154.38 167.602L154.635 167.75L158.229 169.823L158.483 169.971L159.887 170.781L162.024 169.548L164.026 170.704L165.223 170.014L163.221 168.858L164.68 168.02ZM160.661 164.462C160.704 164.436 160.748 164.413 160.791 164.393C160.959 164.314 161.142 164.253 161.339 164.214C161.578 164.169 161.825 164.151 162.08 164.161C162.093 164.161 162.105 164.161 162.118 164.161C162.189 164.164 162.261 164.171 162.332 164.176C162.528 164.197 162.724 164.232 162.923 164.286C163.19 164.357 163.432 164.454 163.644 164.576C163.855 164.698 164.018 164.839 164.13 164.991C164.242 165.147 164.301 165.305 164.306 165.463C164.311 165.62 164.263 165.776 164.156 165.926C164.089 166.018 164.005 166.104 163.901 166.186C163.85 166.227 163.791 166.265 163.73 166.303C163.712 166.313 163.697 166.326 163.679 166.336L162.757 166.869L162.724 166.886L162.337 167.111L162.082 167.256L161.27 167.727L160.246 168.318L157.113 166.509L157.447 166.316L158.134 165.918L158.236 165.86L158.491 165.715L159.591 165.078L160.661 164.462ZM154.383 162.513L154.637 162.365L154.762 162.294L155.465 161.886C155.506 161.864 155.552 161.846 155.592 161.825C155.735 161.757 155.888 161.695 156.051 161.657C156.278 161.604 156.527 161.578 156.795 161.583C157.301 161.594 157.78 161.723 158.229 161.976C158.239 161.981 158.252 161.988 158.262 161.993C158.343 162.039 158.417 162.088 158.483 162.136C158.804 162.365 158.962 162.61 158.957 162.87C158.955 163.01 158.914 163.142 158.835 163.264C158.756 163.384 158.639 163.499 158.483 163.603C158.445 163.629 158.404 163.654 158.364 163.68L158.231 163.756L157.762 164.026L156.306 164.867L155.908 165.096L155.282 165.457L154.935 165.256L154.548 165.032L154.385 164.938L153.652 164.515L152.284 163.725L152.663 163.506L153.305 163.135L154.383 162.513Z" fill="#FF9D4D"/>
<path d="M139.79 170.404V174.604C139.701 174.492 139.617 174.38 139.535 174.265V170.062C139.617 170.177 139.701 170.292 139.79 170.404Z" fill="#FFE840"/>
<path d="M143.096 173.188V177.388C143.009 177.335 142.925 177.284 142.841 177.23V173.028C142.925 173.084 143.009 173.137 143.096 173.188Z" fill="#FFE840"/>
<path d="M146.942 175.032V179.235C146.858 179.204 146.771 179.171 146.687 179.138V174.938C146.771 174.968 146.858 175.001 146.942 175.032Z" fill="#FFE840"/>
<path d="M150.791 176.155V180.355C150.707 180.337 150.62 180.317 150.536 180.299V176.096C150.62 176.117 150.707 176.137 150.791 176.155Z" fill="#FFE840"/>
<path d="M154.637 176.759V180.959C154.552 180.951 154.466 180.944 154.382 180.933V176.733C154.468 176.744 154.552 176.754 154.637 176.759Z" fill="#FFE840"/>
<path d="M158.485 176.932V181.132C158.401 181.132 158.315 181.135 158.23 181.135V176.935C158.315 176.935 158.401 176.935 158.485 176.932Z" fill="#FFE840"/>
<path d="M162.332 176.693V180.893C162.248 180.903 162.161 180.913 162.077 180.921V176.721C162.164 176.713 162.248 176.703 162.332 176.693Z" fill="#FFE840"/>
<path d="M166.18 176.01V180.21C166.096 180.233 166.009 180.251 165.925 180.271V176.069C166.009 176.051 166.096 176.03 166.18 176.01Z" fill="#FFE840"/>
<path d="M170.026 174.792V178.993C169.942 179.026 169.855 179.059 169.771 179.092V174.889C169.858 174.859 169.942 174.826 170.026 174.792Z" fill="#FFE840"/>
<path d="M173.875 172.788V176.988C173.791 177.044 173.707 177.1 173.62 177.156V172.954C173.707 172.9 173.791 172.844 173.875 172.788Z" fill="#FFE840"/>
<path d="M177.288 169.403V173.603C177.209 173.733 177.122 173.866 177.033 173.995V169.795C177.122 169.665 177.206 169.533 177.288 169.403Z" fill="#FFE840"/>
<path d="M189.101 137.091V141.163V141.726H189.078C188.984 142.901 188.589 144.07 187.899 145.19C187.82 145.32 187.733 145.453 187.644 145.583C186.806 146.803 185.611 147.959 184.053 148.998C183.969 149.054 183.885 149.11 183.798 149.166C183.548 149.324 183.291 149.482 183.024 149.638C182.14 150.15 181.195 150.603 180.204 151.003C180.12 151.036 180.033 151.069 179.949 151.102C178.806 151.548 177.601 151.922 176.358 152.22C176.274 152.243 176.187 152.261 176.103 152.281C174.934 152.554 173.729 152.76 172.509 152.903C172.425 152.913 172.339 152.923 172.255 152.931C171.068 153.061 169.866 153.132 168.663 153.142C168.579 153.142 168.493 153.145 168.409 153.145C167.206 153.147 166.004 153.089 164.815 152.969C164.731 152.962 164.644 152.954 164.56 152.944C163.34 152.814 162.138 152.62 160.969 152.365C160.885 152.348 160.798 152.327 160.714 152.309C159.471 152.027 158.266 151.67 157.12 151.245C157.036 151.214 156.949 151.181 156.865 151.148C155.737 150.715 154.667 150.213 153.674 149.638C153.539 149.559 153.404 149.48 153.274 149.401C153.187 149.35 153.103 149.296 153.019 149.243C151.504 148.285 150.304 147.22 149.425 146.092C149.336 145.98 149.252 145.868 149.171 145.753C148.246 144.464 147.729 143.102 147.617 141.729H147.594V137.091H148.827C148.934 136.92 149.048 136.749 149.171 136.579C149.252 136.464 149.336 136.352 149.425 136.237C149.749 135.822 150.116 135.415 150.526 135.02C151.027 134.536 151.593 134.067 152.225 133.619C152.675 133.298 153.159 132.987 153.676 132.689C161.781 128.01 174.921 128.01 183.026 132.689C183.543 132.987 184.025 133.298 184.475 133.619C185.105 134.067 185.673 134.536 186.174 135.02C186.75 135.575 187.242 136.153 187.647 136.747C187.726 136.861 187.799 136.974 187.871 137.088H189.101V137.091Z" fill="#FF9D4D"/>
<path d="M168.347 129.437C173.847 129.437 179.015 130.672 182.896 132.911C183.401 133.201 183.882 133.512 184.325 133.828C184.942 134.266 185.502 134.73 185.994 135.203C186.549 135.741 187.033 136.309 187.433 136.892C187.509 137.002 187.58 137.114 187.652 137.226L187.726 137.345H187.866H188.844V141.166V141.474H188.841L188.823 141.709C188.732 142.852 188.347 143.981 187.68 145.061C187.606 145.18 187.522 145.31 187.433 145.443C186.595 146.663 185.41 147.791 183.907 148.789C183.826 148.846 183.742 148.899 183.658 148.955C183.413 149.11 183.156 149.268 182.894 149.419C182.035 149.915 181.096 150.369 180.105 150.769C180.021 150.802 179.937 150.835 179.853 150.868C178.729 151.306 177.532 151.68 176.289 151.978C176.208 151.999 176.124 152.019 176.042 152.04C174.896 152.304 173.696 152.513 172.474 152.656C172.392 152.666 172.308 152.676 172.224 152.684C171.047 152.814 169.848 152.885 168.656 152.893C168.572 152.893 168.488 152.895 168.403 152.895H168.335C167.163 152.895 165.984 152.837 164.833 152.722C164.751 152.714 164.667 152.707 164.583 152.697C163.373 152.569 162.173 152.376 161.017 152.121C160.933 152.103 160.849 152.085 160.765 152.065C159.522 151.782 158.325 151.426 157.204 151.008L157.171 150.995C157.1 150.97 157.026 150.942 156.952 150.911C155.829 150.481 154.766 149.979 153.796 149.419C153.661 149.34 153.531 149.263 153.399 149.184C153.315 149.133 153.231 149.08 153.149 149.029C151.687 148.104 150.498 147.065 149.619 145.934C149.54 145.835 149.461 145.728 149.372 145.606C148.48 144.365 147.973 143.053 147.866 141.709L147.849 141.474H147.846V137.345H148.824H148.964L149.038 137.226C149.14 137.06 149.252 136.895 149.374 136.727C149.448 136.622 149.53 136.515 149.621 136.395C149.935 135.99 150.296 135.591 150.696 135.206C151.196 134.725 151.758 134.261 152.365 133.828C152.813 133.51 153.294 133.201 153.796 132.911C157.683 130.67 162.848 129.437 168.347 129.437ZM168.347 129.182C163.037 129.182 157.724 130.351 153.671 132.692C153.154 132.99 152.67 133.301 152.219 133.622C151.588 134.07 151.022 134.539 150.521 135.023C150.11 135.417 149.744 135.825 149.42 136.24C149.331 136.352 149.247 136.464 149.166 136.581C149.043 136.749 148.929 136.92 148.822 137.093H147.589V141.732H147.612C147.721 143.104 148.241 144.467 149.166 145.756C149.247 145.871 149.331 145.983 149.42 146.095C150.299 147.223 151.499 148.288 153.014 149.245C153.098 149.296 153.182 149.35 153.269 149.403C153.401 149.482 153.534 149.561 153.669 149.64C154.665 150.216 155.732 150.718 156.86 151.151C156.944 151.184 157.031 151.217 157.115 151.247C158.261 151.675 159.466 152.029 160.709 152.312C160.793 152.332 160.879 152.35 160.964 152.368C162.133 152.625 163.337 152.819 164.555 152.946C164.639 152.956 164.726 152.964 164.81 152.972C165.976 153.089 167.153 153.147 168.332 153.147C168.355 153.147 168.378 153.147 168.403 153.147C168.488 153.147 168.574 153.148 168.658 153.145C169.863 153.135 171.065 153.066 172.25 152.934C172.334 152.926 172.42 152.916 172.504 152.906C173.724 152.763 174.929 152.557 176.098 152.284C176.182 152.264 176.269 152.246 176.353 152.223C177.598 151.925 178.801 151.55 179.944 151.105C180.028 151.072 180.115 151.039 180.199 151.005C181.19 150.606 182.135 150.152 183.019 149.64C183.286 149.485 183.543 149.329 183.793 149.169C183.879 149.113 183.964 149.057 184.048 149.001C185.606 147.962 186.803 146.805 187.639 145.585C187.728 145.455 187.815 145.323 187.894 145.193C188.586 144.072 188.979 142.903 189.073 141.729H189.096V141.166V137.093H187.863C187.792 136.979 187.718 136.864 187.639 136.752C187.234 136.161 186.742 135.583 186.167 135.025C185.665 134.541 185.1 134.073 184.468 133.624C184.017 133.303 183.536 132.993 183.019 132.695C178.971 130.351 173.661 129.182 168.347 129.182Z" fill="#FFE840"/>
<path d="M168.347 148.945C179.809 148.945 189.101 143.58 189.101 136.963C189.101 130.346 179.809 124.982 168.347 124.982C156.885 124.982 147.594 130.346 147.594 136.963C147.594 143.58 156.885 148.945 168.347 148.945Z" fill="#FFE840"/>
<path d="M186.172 135.023C185.507 132.965 183.788 131.072 181.17 129.562C177.744 127.583 173.19 126.495 168.348 126.495C163.503 126.495 158.949 127.583 155.526 129.562C152.907 131.072 151.188 132.967 150.523 135.023C150.32 135.657 150.215 136.306 150.215 136.964C150.215 138.976 151.193 140.904 153.019 142.562C153.101 142.638 153.188 142.712 153.274 142.786C153.929 143.349 154.68 143.876 155.528 144.368C155.959 144.615 156.404 144.849 156.865 145.068C156.95 145.109 157.036 145.147 157.12 145.185C158.236 145.697 159.441 146.125 160.714 146.464C160.798 146.487 160.885 146.51 160.969 146.533C162.12 146.828 163.322 147.055 164.56 147.203C164.644 147.215 164.731 147.226 164.815 147.233C165.966 147.366 167.148 147.429 168.35 147.429H168.409C168.493 147.429 168.579 147.429 168.663 147.427C169.886 147.414 171.088 147.335 172.255 147.187C172.339 147.177 172.426 147.167 172.51 147.154C173.753 146.989 174.955 146.744 176.103 146.431C176.19 146.408 176.274 146.385 176.358 146.36C177.634 145.998 178.839 145.545 179.95 145.01C180.034 144.969 180.12 144.928 180.204 144.885C180.535 144.719 180.859 144.546 181.172 144.365C182.186 143.78 183.065 143.138 183.798 142.452C183.885 142.371 183.969 142.289 184.053 142.208C185.637 140.631 186.483 138.836 186.483 136.964C186.48 136.304 186.376 135.657 186.172 135.023ZM184.053 140.922C183.971 141.029 183.887 141.138 183.798 141.245C182.983 142.228 181.873 143.145 180.467 143.958C180.38 144.009 180.293 144.057 180.204 144.106C180.12 144.151 180.036 144.197 179.95 144.243C178.844 144.834 177.634 145.32 176.358 145.71C176.274 145.736 176.188 145.761 176.103 145.787C174.95 146.125 173.745 146.383 172.51 146.558C172.426 146.571 172.341 146.584 172.255 146.594C171.076 146.752 169.868 146.839 168.663 146.851C168.579 146.851 168.493 146.854 168.409 146.854C167.204 146.856 165.997 146.788 164.815 146.642C164.731 146.632 164.644 146.622 164.56 146.609C163.33 146.451 162.123 146.212 160.969 145.894C160.885 145.871 160.798 145.848 160.714 145.822C159.443 145.458 158.233 144.997 157.12 144.437C157.034 144.393 156.95 144.35 156.865 144.307C156.652 144.195 156.44 144.08 156.234 143.96C155.029 143.265 154.043 142.493 153.274 141.668C153.188 141.574 153.103 141.48 153.019 141.385C150.928 138.963 150.661 136.143 152.222 133.622C153.047 132.287 154.385 131.037 156.234 129.969C162.915 126.113 173.786 126.113 180.467 129.969C182.316 131.037 183.65 132.287 184.476 133.622C185.938 135.985 185.798 138.609 184.053 140.922Z" fill="#FF9D4D"/>
<path d="M169.012 135.274L170.966 136.403C170.922 136.423 170.879 136.446 170.836 136.472L169.764 137.09L167.937 136.036L168.541 135.687C168.757 135.562 168.915 135.425 169.012 135.274Z" fill="#D1975D"/>
<path d="M174.858 140.03L176.86 141.187L178.057 140.496L176.05 139.338C176.068 139.325 176.086 139.315 176.103 139.302C176.192 139.248 176.277 139.19 176.358 139.134C176.643 138.933 176.888 138.724 177.094 138.507C177.423 138.163 177.637 137.814 177.731 137.463C177.825 137.111 177.784 136.768 177.606 136.434C177.428 136.098 177.087 135.784 176.585 135.494C176.508 135.451 176.434 135.41 176.358 135.369C176.274 135.326 176.19 135.285 176.103 135.244C175.456 134.944 174.769 134.768 174.038 134.71C173.523 134.671 173.016 134.684 172.509 134.755C172.425 134.768 172.339 134.781 172.255 134.796C171.947 134.85 171.641 134.926 171.338 135.02C171.651 134.557 171.697 134.093 171.48 133.632C171.261 133.171 170.864 132.774 170.283 132.438C169.914 132.226 169.484 132.05 168.992 131.915C168.5 131.78 167.996 131.699 167.476 131.668C166.957 131.64 166.44 131.668 165.928 131.76C165.413 131.852 164.95 132.015 164.537 132.254L164.16 132.473L162.229 131.36L161.032 132.05L162.96 133.163L161.506 134.004L159.575 132.891L158.378 133.581L160.306 134.694L158.169 135.927L160.711 137.394L160.966 137.539L164.557 139.613L164.812 139.76L168.406 141.834L168.661 141.981L170.064 142.791L172.201 141.559L174.203 142.715L175.4 142.025L173.398 140.868L174.858 140.03ZM170.836 136.472C170.879 136.447 170.923 136.424 170.966 136.403C171.134 136.324 171.317 136.263 171.514 136.225C171.753 136.179 172 136.161 172.255 136.172C172.267 136.172 172.28 136.172 172.293 136.172C172.364 136.174 172.436 136.182 172.507 136.187C172.703 136.207 172.899 136.243 173.098 136.296C173.365 136.368 173.607 136.464 173.819 136.587C174.03 136.709 174.193 136.849 174.305 137.002C174.417 137.157 174.476 137.315 174.481 137.473C174.486 137.631 174.438 137.786 174.331 137.937C174.264 138.028 174.18 138.115 174.076 138.196C174.025 138.237 173.966 138.275 173.905 138.314C173.887 138.324 173.872 138.337 173.854 138.347L172.932 138.879L172.899 138.897L172.512 139.121L172.257 139.266L171.445 139.737L170.421 140.328L167.288 138.52L167.622 138.326L168.309 137.929L168.411 137.87L168.666 137.725L169.766 137.088L170.836 136.472ZM164.56 134.524L164.815 134.376L164.94 134.305L165.643 133.897C165.683 133.874 165.729 133.856 165.77 133.836C165.913 133.767 166.065 133.706 166.228 133.668C166.455 133.614 166.705 133.589 166.972 133.594C167.479 133.604 167.958 133.734 168.406 133.986C168.416 133.991 168.429 133.999 168.439 134.004C168.521 134.05 168.595 134.098 168.661 134.147C168.982 134.376 169.14 134.62 169.135 134.88C169.132 135.02 169.091 135.153 169.012 135.275C168.933 135.395 168.816 135.509 168.661 135.614C168.623 135.639 168.582 135.665 168.541 135.69L168.409 135.767L167.937 136.039L166.481 136.88L166.083 137.109L165.457 137.471L165.11 137.269L164.723 137.045L164.56 136.951L163.826 136.528L162.459 135.739L162.838 135.519L163.48 135.148L164.56 134.524Z" fill="#FF9D4D"/>
<path d="M149.968 142.414V146.614C149.879 146.502 149.795 146.39 149.713 146.276V142.075C149.795 142.188 149.879 142.302 149.968 142.414Z" fill="#FFE840"/>
<path d="M153.274 145.198V149.398C153.187 149.347 153.103 149.294 153.019 149.24V145.038C153.103 145.094 153.187 145.147 153.274 145.198Z" fill="#FFE840"/>
<path d="M157.12 147.042V151.245C157.036 151.214 156.95 151.181 156.865 151.148V146.948C156.95 146.978 157.036 147.011 157.12 147.042Z" fill="#FFE840"/>
<path d="M160.969 148.165V152.365C160.885 152.347 160.798 152.327 160.714 152.309V148.106C160.798 148.127 160.882 148.147 160.969 148.165Z" fill="#FFE840"/>
<path d="M164.815 148.769V152.969C164.731 152.961 164.644 152.954 164.56 152.944V148.743C164.644 148.754 164.731 148.764 164.815 148.769Z" fill="#FFE840"/>
<path d="M168.664 148.942V153.142C168.58 153.142 168.493 153.145 168.409 153.145V148.945C168.493 148.945 168.577 148.945 168.664 148.942Z" fill="#FFE840"/>
<path d="M172.51 148.703V152.903C172.426 152.913 172.339 152.923 172.255 152.931V148.731C172.339 148.723 172.426 148.713 172.51 148.703Z" fill="#FFE840"/>
<path d="M176.358 148.02V152.22C176.274 152.243 176.188 152.261 176.104 152.281V148.079C176.188 148.061 176.272 148.04 176.358 148.02Z" fill="#FFE840"/>
<path d="M180.204 146.802V151.003C180.12 151.036 180.034 151.069 179.949 151.102V146.899C180.034 146.869 180.12 146.836 180.204 146.802Z" fill="#FFE840"/>
<path d="M184.053 144.798V148.998C183.969 149.054 183.885 149.11 183.798 149.166V144.963C183.882 144.91 183.969 144.854 184.053 144.798Z" fill="#FFE840"/>
<path d="M187.463 141.413V145.613C187.384 145.743 187.298 145.876 187.209 146.005V141.805C187.298 141.675 187.384 141.543 187.463 141.413Z" fill="#FFE840"/>
<path d="M163.495 112V116.073V116.636H163.472C163.378 117.81 162.983 118.979 162.293 120.1C162.214 120.229 162.127 120.362 162.038 120.492C161.2 121.712 160.006 122.868 158.447 123.907C158.363 123.963 158.279 124.02 158.192 124.076C157.943 124.233 157.685 124.391 157.42 124.547C156.537 125.059 155.592 125.512 154.601 125.912C154.517 125.945 154.43 125.978 154.346 126.011C153.202 126.457 151.998 126.831 150.755 127.129C150.671 127.152 150.584 127.17 150.5 127.191C149.331 127.463 148.129 127.669 146.906 127.812C146.822 127.822 146.735 127.832 146.651 127.84C145.464 127.97 144.262 128.041 143.06 128.052C142.976 128.052 142.889 128.054 142.805 128.054C141.603 128.057 140.401 127.998 139.211 127.878C139.127 127.871 139.041 127.863 138.957 127.853C137.737 127.723 136.534 127.529 135.365 127.275C135.281 127.257 135.195 127.236 135.111 127.219C133.868 126.936 132.663 126.579 131.517 126.154C131.433 126.123 131.346 126.09 131.262 126.057C130.134 125.624 129.064 125.122 128.071 124.547C127.936 124.468 127.801 124.389 127.671 124.31C127.584 124.256 127.5 124.205 127.416 124.152C125.9 123.194 124.701 122.13 123.822 121.001C123.733 120.889 123.649 120.777 123.567 120.662C122.643 119.374 122.126 118.011 122.014 116.638H121.991V112H123.224C123.33 111.829 123.445 111.659 123.567 111.488C123.649 111.373 123.733 111.261 123.822 111.147C124.146 110.731 124.512 110.324 124.922 109.929C125.424 109.445 125.99 108.977 126.621 108.528C127.072 108.207 127.556 107.897 128.073 107.599C136.178 102.92 149.318 102.92 157.423 107.599C157.94 107.897 158.421 108.207 158.872 108.528C159.501 108.977 160.069 109.445 160.571 109.929C161.147 110.484 161.638 111.063 162.043 111.656C162.122 111.771 162.196 111.883 162.267 111.997H163.495V112Z" fill="#FF9D4D"/>
<path d="M142.742 104.346C148.241 104.346 153.409 105.581 157.291 107.82C157.795 108.113 158.276 108.421 158.72 108.737C159.336 109.175 159.896 109.639 160.388 110.113C160.943 110.65 161.43 111.218 161.827 111.801C161.903 111.911 161.975 112.023 162.046 112.132L162.12 112.252H162.26H163.238V116.073V116.381H163.236L163.218 116.615C163.126 117.759 162.741 118.887 162.074 119.967C162 120.087 161.916 120.217 161.827 120.349C160.989 121.569 159.805 122.695 158.304 123.696C158.223 123.752 158.139 123.806 158.055 123.862C157.81 124.017 157.553 124.175 157.291 124.325C156.43 124.822 155.492 125.275 154.497 125.678C154.415 125.711 154.334 125.741 154.25 125.774C153.126 126.213 151.929 126.587 150.686 126.885C150.605 126.905 150.521 126.926 150.439 126.946C149.293 127.211 148.093 127.42 146.871 127.563C146.789 127.573 146.705 127.583 146.621 127.591C145.444 127.72 144.245 127.792 143.053 127.799C142.969 127.799 142.885 127.802 142.8 127.802H142.732C141.557 127.802 140.381 127.743 139.229 127.629C139.151 127.621 139.069 127.613 138.982 127.603C137.773 127.476 136.573 127.282 135.417 127.028C135.332 127.01 135.248 126.992 135.164 126.972C133.921 126.689 132.724 126.332 131.604 125.915L131.57 125.902C131.499 125.876 131.428 125.848 131.354 125.82C130.231 125.39 129.169 124.888 128.198 124.328C128.063 124.249 127.933 124.172 127.801 124.093C127.717 124.042 127.633 123.989 127.551 123.938C126.089 123.013 124.9 121.974 124.021 120.843C123.942 120.744 123.863 120.637 123.774 120.515C122.882 119.274 122.376 117.963 122.269 116.618L122.251 116.383H122.248V112.255H123.226H123.366L123.44 112.135C123.542 111.969 123.654 111.804 123.776 111.636C123.85 111.531 123.932 111.422 124.023 111.305C124.337 110.9 124.698 110.5 125.098 110.115C125.598 109.634 126.16 109.17 126.767 108.737C127.215 108.419 127.696 108.111 128.198 107.82C132.075 105.581 137.243 104.346 142.742 104.346ZM142.742 104.091C137.431 104.091 132.118 105.26 128.068 107.601C127.551 107.899 127.067 108.21 126.616 108.531C125.985 108.979 125.419 109.448 124.918 109.932C124.507 110.327 124.141 110.734 123.817 111.149C123.728 111.261 123.644 111.373 123.562 111.491C123.44 111.659 123.326 111.829 123.219 112.002H121.986V116.641H122.009C122.118 118.014 122.638 119.376 123.562 120.665C123.644 120.78 123.728 120.892 123.817 121.004C124.696 122.132 125.896 123.197 127.411 124.155C127.495 124.208 127.579 124.259 127.666 124.312C127.796 124.391 127.931 124.47 128.066 124.549C129.062 125.125 130.129 125.627 131.257 126.06C131.341 126.093 131.428 126.126 131.512 126.157C132.658 126.584 133.863 126.938 135.106 127.221C135.19 127.242 135.276 127.259 135.36 127.277C136.53 127.535 137.734 127.728 138.952 127.855C139.036 127.866 139.122 127.873 139.207 127.881C140.373 127.998 141.55 128.057 142.729 128.057C142.752 128.057 142.775 128.057 142.8 128.057C142.885 128.057 142.971 128.057 143.055 128.054C144.26 128.044 145.462 127.975 146.647 127.843C146.731 127.835 146.817 127.825 146.901 127.815C148.121 127.672 149.326 127.466 150.495 127.193C150.579 127.173 150.666 127.155 150.75 127.132C151.995 126.834 153.198 126.46 154.341 126.014C154.425 125.981 154.512 125.948 154.596 125.915C155.587 125.515 156.532 125.061 157.416 124.549C157.683 124.394 157.94 124.239 158.19 124.078C158.276 124.022 158.36 123.966 158.445 123.91C160.003 122.871 161.2 121.714 162.036 120.494C162.125 120.365 162.212 120.232 162.291 120.102C162.983 118.981 163.376 117.812 163.47 116.638H163.493V116.075V112.002H162.26C162.189 111.888 162.115 111.773 162.036 111.661C161.631 111.07 161.139 110.492 160.564 109.934C160.062 109.45 159.496 108.982 158.865 108.533C158.414 108.212 157.933 107.902 157.416 107.604C153.366 105.263 148.053 104.091 142.742 104.091Z" fill="#FFE840"/>
<path d="M142.742 123.854C154.204 123.854 163.496 118.49 163.496 111.873C163.496 105.255 154.204 99.8911 142.742 99.8911C131.28 99.8911 121.989 105.255 121.989 111.873C121.989 118.49 131.28 123.854 142.742 123.854Z" fill="#FFE840"/>
<path d="M160.566 109.931C159.902 107.873 158.182 105.981 155.564 104.47C152.138 102.491 147.584 101.404 142.742 101.404C137.897 101.404 133.343 102.491 129.92 104.47C127.302 105.981 125.582 107.876 124.918 109.931C124.714 110.566 124.609 111.215 124.609 111.872C124.609 113.884 125.587 115.813 127.414 117.471C127.495 117.547 127.582 117.621 127.668 117.695C128.323 118.258 129.074 118.785 129.923 119.277C130.353 119.524 130.799 119.758 131.26 119.977C131.344 120.018 131.43 120.056 131.514 120.094C132.63 120.606 133.835 121.034 135.108 121.373C135.192 121.396 135.279 121.419 135.363 121.442C136.514 121.737 137.717 121.964 138.954 122.111C139.039 122.124 139.125 122.134 139.209 122.142C140.36 122.272 141.542 122.338 142.744 122.338H142.803C142.887 122.338 142.974 122.338 143.058 122.336C144.28 122.323 145.483 122.244 146.649 122.096C146.733 122.086 146.82 122.076 146.904 122.063C148.147 121.898 149.349 121.653 150.498 121.34C150.584 121.317 150.668 121.294 150.752 121.268C152.029 120.907 153.233 120.453 154.344 119.918C154.428 119.88 154.514 119.837 154.599 119.794C154.93 119.628 155.253 119.455 155.566 119.274C156.58 118.688 157.459 118.046 158.192 117.361C158.279 117.28 158.363 117.198 158.447 117.117C160.031 115.54 160.877 113.744 160.877 111.872C160.875 111.215 160.77 110.566 160.566 109.931ZM158.445 115.833C158.363 115.94 158.279 116.049 158.19 116.156C157.375 117.14 156.264 118.057 154.858 118.869C154.772 118.92 154.685 118.968 154.596 119.017C154.512 119.063 154.428 119.108 154.341 119.154C153.236 119.745 152.026 120.232 150.75 120.621C150.666 120.647 150.579 120.672 150.495 120.698C149.341 121.037 148.137 121.294 146.901 121.47C146.817 121.482 146.733 121.495 146.647 121.505C145.467 121.663 144.26 121.75 143.055 121.763C142.971 121.763 142.885 121.765 142.801 121.765C141.596 121.768 140.388 121.699 139.207 121.554C139.123 121.543 139.036 121.533 138.952 121.521C137.722 121.363 136.514 121.123 135.361 120.805C135.276 120.782 135.19 120.759 135.106 120.733C133.835 120.369 132.625 119.908 131.512 119.348C131.425 119.305 131.341 119.261 131.257 119.218C131.043 119.106 130.832 118.991 130.626 118.872C129.421 118.176 128.435 117.404 127.666 116.579C127.579 116.485 127.495 116.391 127.411 116.297C125.32 113.874 125.053 111.055 126.614 108.533C127.439 107.198 128.776 105.948 130.626 104.881C137.306 101.024 148.177 101.024 154.858 104.881C156.708 105.948 158.042 107.198 158.867 108.533C160.329 110.894 160.189 113.518 158.445 115.833Z" fill="#FF9D4D"/>
<path d="M143.407 110.183L145.361 111.312C145.317 111.332 145.274 111.355 145.231 111.38L144.159 111.999L142.332 110.945L142.936 110.596C143.15 110.474 143.308 110.334 143.407 110.183Z" fill="#D1975D"/>
<path d="M149.25 114.941L151.252 116.098L152.449 115.408L150.442 114.249C150.46 114.236 150.478 114.226 150.495 114.213C150.585 114.16 150.669 114.101 150.75 114.045C151.035 113.844 151.28 113.635 151.486 113.418C151.815 113.074 152.029 112.726 152.123 112.374C152.217 112.023 152.176 111.679 151.998 111.345C151.82 111.009 151.479 110.695 150.977 110.405C150.9 110.362 150.827 110.321 150.75 110.28C150.666 110.237 150.582 110.196 150.495 110.156C149.848 109.855 149.161 109.679 148.43 109.621C147.915 109.582 147.408 109.595 146.902 109.666C146.817 109.679 146.731 109.692 146.647 109.707C146.339 109.761 146.033 109.837 145.73 109.931C146.043 109.468 146.089 109.004 145.872 108.543C145.653 108.082 145.256 107.685 144.675 107.349C144.306 107.137 143.876 106.961 143.384 106.827C142.892 106.692 142.388 106.61 141.869 106.579C141.349 106.551 140.832 106.579 140.32 106.671C139.805 106.763 139.342 106.926 138.929 107.165L138.552 107.384L136.622 106.271L135.424 106.961L137.353 108.075L135.898 108.915L133.968 107.802L132.77 108.492L134.699 109.605L132.562 110.838L135.103 112.305L135.358 112.45L138.95 114.524L139.204 114.671L142.798 116.745L143.053 116.893L144.456 117.702L146.593 116.47L148.595 117.626L149.792 116.936L147.79 115.779L149.25 114.941ZM145.231 111.381C145.274 111.355 145.317 111.332 145.361 111.312C145.529 111.233 145.712 111.172 145.908 111.134C146.148 111.088 146.395 111.07 146.649 111.08C146.662 111.08 146.675 111.08 146.688 111.08C146.759 111.083 146.83 111.09 146.902 111.095C147.098 111.116 147.294 111.151 147.492 111.205C147.76 111.276 148.002 111.373 148.213 111.495C148.425 111.618 148.588 111.758 148.7 111.91C148.812 112.066 148.87 112.224 148.875 112.382C148.881 112.54 148.832 112.695 148.725 112.845C148.659 112.937 148.575 113.024 148.471 113.105C148.42 113.146 148.361 113.184 148.3 113.222C148.282 113.232 148.267 113.245 148.249 113.255L147.327 113.788L147.294 113.805L146.907 114.03L146.652 114.175L145.839 114.646L144.815 115.237L141.683 113.428L142.016 113.235L142.704 112.838L142.806 112.779L143.061 112.634L144.161 111.997L145.231 111.381ZM138.955 109.432L139.209 109.284L139.334 109.213L140.037 108.806C140.078 108.783 140.124 108.765 140.165 108.744C140.307 108.676 140.46 108.615 140.623 108.576C140.85 108.523 141.099 108.497 141.367 108.502C141.874 108.513 142.352 108.643 142.801 108.895C142.811 108.9 142.824 108.907 142.834 108.913C142.915 108.958 142.989 109.007 143.055 109.055C143.376 109.284 143.534 109.529 143.529 109.789C143.527 109.929 143.486 110.061 143.407 110.184C143.328 110.303 143.211 110.418 143.055 110.522C143.017 110.548 142.976 110.573 142.936 110.599L142.803 110.675L142.332 110.948L140.875 111.788L140.478 112.017L139.851 112.379L139.505 112.178L139.118 111.954L138.955 111.86L138.221 111.437L136.853 110.647L137.233 110.428L137.875 110.056L138.955 109.432Z" fill="#FF9D4D"/>
<path d="M124.36 117.323V121.523C124.271 121.411 124.187 121.299 124.105 121.184V116.984C124.187 117.096 124.274 117.211 124.36 117.323Z" fill="#FFE840"/>
<path d="M127.666 120.109V124.31C127.579 124.256 127.495 124.205 127.411 124.152V119.949C127.495 120.005 127.582 120.056 127.666 120.109Z" fill="#FFE840"/>
<path d="M131.512 121.951V126.154C131.428 126.123 131.342 126.09 131.258 126.057V121.857C131.344 121.89 131.428 121.92 131.512 121.951Z" fill="#FFE840"/>
<path d="M135.361 123.074V127.274C135.277 127.256 135.19 127.236 135.106 127.218V123.015C135.193 123.036 135.277 123.056 135.361 123.074Z" fill="#FFE840"/>
<path d="M139.207 123.681V127.881C139.123 127.873 139.036 127.865 138.952 127.855V123.655C139.039 123.665 139.123 123.673 139.207 123.681Z" fill="#FFE840"/>
<path d="M143.055 123.854V128.054C142.971 128.054 142.885 128.056 142.801 128.056V123.856C142.887 123.856 142.971 123.854 143.055 123.854Z" fill="#FFE840"/>
<path d="M146.902 123.611V127.811C146.818 127.822 146.731 127.832 146.647 127.839V123.639C146.734 123.634 146.818 123.624 146.902 123.611Z" fill="#FFE840"/>
<path d="M150.75 122.929V127.129C150.666 127.152 150.58 127.17 150.496 127.19V122.988C150.582 122.97 150.666 122.952 150.75 122.929Z" fill="#FFE840"/>
<path d="M154.596 121.711V125.912C154.512 125.945 154.426 125.978 154.342 126.011V121.808C154.428 121.778 154.512 121.745 154.596 121.711Z" fill="#FFE840"/>
<path d="M158.445 119.709V123.909C158.361 123.965 158.277 124.021 158.19 124.077V119.875C158.277 119.821 158.361 119.765 158.445 119.709Z" fill="#FFE840"/>
<path d="M161.858 116.322V120.522C161.779 120.652 161.692 120.785 161.603 120.914V116.714C161.692 116.584 161.776 116.454 161.858 116.322Z" fill="#FFE840"/>
<path d="M211.039 108.467V112.54V113.103H211.016C210.922 114.277 210.527 115.446 209.837 116.567C209.758 116.697 209.671 116.829 209.582 116.959C208.744 118.179 207.549 119.336 205.99 120.375C205.906 120.431 205.822 120.487 205.736 120.543C205.486 120.701 205.229 120.859 204.961 121.014C204.078 121.526 203.133 121.979 202.142 122.379C202.058 122.412 201.971 122.445 201.887 122.479C200.744 122.924 199.539 123.299 198.296 123.597C198.212 123.62 198.125 123.638 198.041 123.658C196.872 123.93 195.667 124.137 194.447 124.279C194.363 124.29 194.277 124.3 194.192 124.307C193.006 124.437 191.803 124.509 190.601 124.519C190.517 124.519 190.43 124.521 190.346 124.521C189.144 124.524 187.942 124.465 186.752 124.346C186.668 124.338 186.582 124.33 186.498 124.32C185.278 124.19 184.075 123.997 182.906 123.742C182.822 123.724 182.736 123.704 182.652 123.686C181.409 123.403 180.204 123.047 179.058 122.621C178.974 122.591 178.887 122.558 178.803 122.524C177.675 122.091 176.605 121.59 175.612 121.014C175.477 120.935 175.342 120.856 175.212 120.777C175.125 120.724 175.041 120.673 174.957 120.619C173.441 119.662 172.242 118.597 171.363 117.469C171.274 117.356 171.19 117.244 171.108 117.13C170.184 115.841 169.667 114.478 169.555 113.105H169.532V108.467H170.765C170.871 108.297 170.986 108.126 171.108 107.955C171.19 107.841 171.274 107.729 171.363 107.614C171.687 107.199 172.053 106.791 172.463 106.396C172.965 105.912 173.531 105.444 174.162 104.996C174.613 104.675 175.097 104.364 175.614 104.066C183.719 99.3869 196.859 99.3869 204.964 104.066C205.481 104.364 205.962 104.675 206.413 104.996C207.042 105.444 207.61 105.912 208.112 106.396C208.688 106.952 209.179 107.53 209.584 108.123C209.663 108.238 209.737 108.35 209.809 108.465H211.039V108.467Z" fill="#FF9D4D"/>
<path d="M190.285 100.813C195.785 100.813 200.953 102.049 204.834 104.288C205.339 104.58 205.82 104.889 206.263 105.204C206.88 105.643 207.44 106.106 207.932 106.58C208.487 107.117 208.971 107.685 209.371 108.269C209.447 108.378 209.518 108.49 209.59 108.6L209.664 108.719H209.804H210.782V112.54V112.848H210.779L210.761 113.083C210.67 114.226 210.285 115.355 209.618 116.434C209.544 116.554 209.462 116.682 209.371 116.817C208.533 118.037 207.348 119.162 205.845 120.163C205.764 120.219 205.68 120.273 205.596 120.329C205.351 120.484 205.094 120.642 204.832 120.793C203.973 121.289 203.034 121.743 202.045 122.142C201.961 122.176 201.877 122.209 201.793 122.242C200.67 122.68 199.473 123.054 198.23 123.352C198.148 123.373 198.069 123.393 197.983 123.413C196.837 123.678 195.637 123.887 194.414 124.03C194.333 124.04 194.251 124.05 194.165 124.058C192.988 124.188 191.788 124.259 190.596 124.267C190.512 124.267 190.431 124.269 190.347 124.269H190.278C189.104 124.269 187.927 124.211 186.773 124.094C186.694 124.086 186.613 124.078 186.526 124.068C185.316 123.941 184.116 123.747 182.96 123.492L182.945 123.49C182.866 123.472 182.787 123.454 182.708 123.436C181.465 123.154 180.268 122.797 179.145 122.379L179.119 122.369C179.045 122.341 178.971 122.316 178.895 122.283C177.772 121.852 176.71 121.35 175.739 120.79C175.604 120.711 175.474 120.635 175.342 120.556C175.258 120.505 175.174 120.451 175.092 120.4C173.63 119.476 172.441 118.436 171.562 117.306C171.483 117.206 171.404 117.099 171.315 116.977C170.423 115.737 169.917 114.425 169.81 113.08L169.792 112.846H169.789V108.717H170.767H170.907L170.981 108.597C171.083 108.432 171.195 108.266 171.317 108.098C171.391 107.993 171.473 107.884 171.565 107.767C171.878 107.362 172.239 106.962 172.639 106.577C173.139 106.096 173.701 105.632 174.308 105.199C174.756 104.881 175.237 104.573 175.739 104.282C179.621 102.046 184.786 100.813 190.285 100.813ZM190.285 100.559C184.975 100.559 179.662 101.728 175.609 104.068C175.092 104.366 174.608 104.677 174.157 104.998C173.526 105.446 172.96 105.915 172.459 106.399C172.048 106.794 171.682 107.201 171.358 107.617C171.269 107.729 171.185 107.841 171.103 107.958C170.981 108.126 170.867 108.297 170.76 108.47H169.527V113.108H169.55C169.659 114.481 170.179 115.844 171.103 117.132C171.185 117.247 171.269 117.359 171.358 117.471C172.237 118.599 173.437 119.664 174.952 120.622C175.036 120.675 175.12 120.726 175.207 120.78C175.337 120.859 175.472 120.938 175.607 121.017C176.603 121.592 177.67 122.094 178.798 122.527C178.882 122.56 178.969 122.593 179.053 122.624C180.199 123.052 181.404 123.406 182.647 123.689C182.731 123.709 182.817 123.727 182.902 123.745C184.071 124.002 185.275 124.195 186.493 124.323C186.577 124.333 186.664 124.341 186.748 124.348C187.914 124.465 189.093 124.524 190.273 124.524C190.296 124.524 190.319 124.524 190.341 124.524C190.426 124.524 190.512 124.524 190.596 124.521C191.801 124.511 193.003 124.442 194.188 124.31C194.272 124.302 194.358 124.292 194.442 124.282C195.662 124.139 196.867 123.933 198.036 123.661C198.12 123.64 198.207 123.622 198.291 123.599C199.536 123.301 200.739 122.927 201.882 122.481C201.966 122.448 202.053 122.415 202.137 122.382C203.128 121.982 204.073 121.529 204.957 121.017C205.224 120.861 205.481 120.706 205.728 120.545C205.815 120.489 205.899 120.433 205.983 120.377C207.542 119.338 208.739 118.182 209.574 116.962C209.664 116.832 209.75 116.699 209.829 116.569C210.522 115.449 210.914 114.28 211.008 113.105H211.031V112.543V108.47H209.799C209.727 108.355 209.653 108.241 209.574 108.128C209.169 107.538 208.678 106.959 208.102 106.402C207.6 105.918 207.035 105.449 206.403 105.001C205.952 104.68 205.471 104.369 204.954 104.071C200.909 101.728 195.599 100.559 190.285 100.559Z" fill="#FFE840"/>
<path d="M190.285 120.321C201.747 120.321 211.039 114.957 211.039 108.34C211.039 101.722 201.747 96.3582 190.285 96.3582C178.824 96.3582 169.532 101.722 169.532 108.34C169.532 114.957 178.824 120.321 190.285 120.321Z" fill="#FFE840"/>
<path d="M208.11 106.399C207.445 104.341 205.726 102.448 203.107 100.938C199.682 98.9589 195.127 97.8713 190.285 97.8713C185.441 97.8713 180.887 98.9589 177.463 100.938C174.845 102.448 173.126 104.343 172.461 106.399C172.257 107.033 172.153 107.683 172.153 108.34C172.153 110.352 173.131 112.28 174.957 113.938C175.039 114.015 175.125 114.089 175.212 114.162C175.866 114.725 176.618 115.253 177.466 115.744C177.896 115.991 178.342 116.225 178.803 116.445C178.887 116.485 178.974 116.524 179.058 116.562C180.174 117.074 181.378 117.502 182.652 117.84C182.736 117.863 182.822 117.886 182.907 117.909C184.058 118.205 185.26 118.431 186.498 118.579C186.582 118.592 186.669 118.602 186.753 118.61C187.904 118.739 189.086 118.806 190.288 118.806H190.347C190.431 118.806 190.517 118.806 190.601 118.803C191.824 118.79 193.026 118.711 194.193 118.564C194.277 118.554 194.363 118.543 194.447 118.531C195.69 118.365 196.892 118.121 198.041 117.807C198.128 117.784 198.212 117.761 198.296 117.736C199.572 117.374 200.777 116.921 201.887 116.386C201.971 116.345 202.058 116.304 202.142 116.261C202.473 116.096 202.797 115.922 203.11 115.742C204.124 115.156 205.002 114.514 205.736 113.829C205.823 113.747 205.907 113.666 205.991 113.584C207.575 112.008 208.421 110.212 208.421 108.34C208.418 107.68 208.314 107.033 208.11 106.399ZM205.988 112.298C205.907 112.405 205.823 112.514 205.733 112.621C204.918 113.605 203.808 114.522 202.402 115.334C202.315 115.385 202.229 115.433 202.139 115.482C202.055 115.528 201.971 115.573 201.885 115.619C200.779 116.21 199.569 116.697 198.293 117.086C198.209 117.112 198.123 117.137 198.039 117.163C196.885 117.502 195.68 117.759 194.445 117.935C194.361 117.947 194.277 117.96 194.19 117.97C193.011 118.128 191.803 118.215 190.599 118.227C190.515 118.227 190.428 118.23 190.344 118.23C189.139 118.233 187.932 118.164 186.75 118.019C186.666 118.008 186.579 117.998 186.495 117.986C185.265 117.828 184.058 117.588 182.904 117.27C182.82 117.247 182.733 117.224 182.649 117.198C181.378 116.834 180.168 116.373 179.055 115.813C178.969 115.77 178.885 115.726 178.801 115.683C178.587 115.571 178.375 115.456 178.169 115.337C176.964 114.641 175.979 113.869 175.209 113.044C175.123 112.95 175.039 112.856 174.955 112.761C172.863 110.339 172.596 107.52 174.157 104.998C174.983 103.663 176.32 102.413 178.169 101.346C184.85 97.4893 195.721 97.4893 202.402 101.346C204.251 102.413 205.586 103.663 206.411 104.998C207.873 107.362 207.733 109.985 205.988 112.298Z" fill="#FF9D4D"/>
<path d="M190.95 106.651L192.903 107.779C192.86 107.799 192.817 107.822 192.774 107.848L191.701 108.467L189.875 107.412L190.479 107.063C190.695 106.938 190.851 106.801 190.95 106.651Z" fill="#D1975D"/>
<path d="M196.796 111.406L198.798 112.563L199.995 111.872L197.988 110.713C198.006 110.701 198.023 110.691 198.041 110.678C198.13 110.624 198.215 110.566 198.296 110.51C198.581 110.309 198.826 110.1 199.032 109.883C199.361 109.539 199.575 109.19 199.669 108.839C199.763 108.487 199.722 108.144 199.544 107.81C199.366 107.474 199.024 107.16 198.523 106.87C198.446 106.827 198.372 106.786 198.296 106.745C198.212 106.702 198.128 106.661 198.041 106.62C197.394 106.32 196.707 106.144 195.976 106.085C195.461 106.047 194.954 106.06 194.447 106.131C194.363 106.144 194.277 106.157 194.193 106.172C193.884 106.226 193.579 106.302 193.276 106.396C193.589 105.933 193.635 105.469 193.418 105.008C193.199 104.547 192.802 104.15 192.221 103.813C191.852 103.602 191.421 103.426 190.93 103.291C190.438 103.156 189.934 103.075 189.414 103.044C188.895 103.016 188.378 103.044 187.866 103.136C187.351 103.228 186.888 103.391 186.475 103.63L186.098 103.849L184.167 102.736L182.97 103.426L184.898 104.539L183.444 105.38L181.513 104.267L180.316 104.957L182.244 106.07L180.107 107.303L182.649 108.77L182.904 108.915L186.495 110.989L186.75 111.136L190.344 113.21L190.599 113.357L192.002 114.167L194.139 112.935L196.141 114.091L197.338 113.401L195.336 112.244L196.796 111.406ZM192.774 107.848C192.817 107.823 192.861 107.8 192.904 107.779C193.072 107.7 193.255 107.639 193.451 107.601C193.691 107.555 193.938 107.537 194.193 107.547C194.205 107.547 194.218 107.547 194.231 107.547C194.302 107.55 194.374 107.558 194.445 107.563C194.641 107.583 194.837 107.619 195.033 107.672C195.301 107.744 195.543 107.84 195.754 107.963C195.965 108.085 196.128 108.225 196.241 108.378C196.353 108.533 196.411 108.691 196.416 108.849C196.421 109.007 196.373 109.162 196.266 109.313C196.2 109.404 196.116 109.491 196.011 109.572C195.96 109.613 195.902 109.651 195.841 109.69C195.823 109.7 195.808 109.712 195.79 109.723L194.868 110.255L194.835 110.273L194.447 110.497L194.193 110.642L193.38 111.113L192.356 111.704L189.223 109.896L189.557 109.702L190.245 109.305L190.347 109.246L190.601 109.101L191.702 108.464L192.774 107.848ZM186.498 105.9L186.753 105.752L186.878 105.68L187.581 105.273C187.621 105.25 187.667 105.232 187.708 105.212C187.85 105.143 188.003 105.082 188.166 105.044C188.393 104.99 188.643 104.965 188.91 104.97C189.417 104.98 189.896 105.11 190.344 105.362C190.354 105.367 190.367 105.375 190.377 105.38C190.459 105.426 190.533 105.474 190.599 105.523C190.92 105.752 191.078 105.996 191.073 106.256C191.07 106.396 191.029 106.529 190.95 106.651C190.871 106.771 190.754 106.885 190.599 106.99C190.561 107.015 190.52 107.041 190.479 107.066L190.347 107.143L189.875 107.415L188.418 108.256L188.021 108.485L187.395 108.846L187.048 108.645L186.661 108.421L186.498 108.327L185.764 107.904L184.397 107.114L184.776 106.895L185.418 106.524L186.498 105.9Z" fill="#FF9D4D"/>
<path d="M171.903 113.79V117.991C171.814 117.878 171.73 117.766 171.648 117.652V113.452C171.73 113.564 171.817 113.678 171.903 113.79Z" fill="#FFE840"/>
<path d="M175.209 116.575V120.775C175.123 120.721 175.039 120.67 174.955 120.617V116.414C175.039 116.47 175.125 116.524 175.209 116.575Z" fill="#FFE840"/>
<path d="M179.058 118.418V122.621C178.974 122.591 178.887 122.557 178.803 122.524V118.324C178.887 118.355 178.971 118.388 179.058 118.418Z" fill="#FFE840"/>
<path d="M182.904 119.541V123.742C182.82 123.724 182.733 123.703 182.649 123.686V119.483C182.736 119.503 182.82 119.524 182.904 119.541Z" fill="#FFE840"/>
<path d="M186.753 120.145V124.345C186.669 124.338 186.582 124.33 186.498 124.32V120.12C186.582 120.13 186.666 120.14 186.753 120.145Z" fill="#FFE840"/>
<path d="M190.599 120.319V124.519C190.515 124.519 190.428 124.521 190.344 124.521V120.321C190.431 120.321 190.515 120.321 190.599 120.319Z" fill="#FFE840"/>
<path d="M194.447 120.079V124.279C194.363 124.289 194.276 124.3 194.192 124.307V120.107C194.276 120.099 194.36 120.089 194.447 120.079Z" fill="#FFE840"/>
<path d="M198.294 119.397V123.597C198.21 123.62 198.123 123.638 198.039 123.658V119.455C198.126 119.437 198.21 119.417 198.294 119.397Z" fill="#FFE840"/>
<path d="M202.142 118.179V122.379C202.058 122.412 201.971 122.445 201.887 122.478V118.276C201.971 118.245 202.055 118.212 202.142 118.179Z" fill="#FFE840"/>
<path d="M205.988 116.175V120.375C205.904 120.431 205.82 120.487 205.734 120.543V116.34C205.82 116.287 205.907 116.231 205.988 116.175Z" fill="#FFE840"/>
<path d="M209.401 112.789V116.989C209.322 117.119 209.235 117.252 209.146 117.382V113.182C209.235 113.052 209.319 112.919 209.401 112.789Z" fill="#FFE840"/>
<path d="M144.507 146.136V150.208V150.771H144.484C144.39 151.945 143.995 153.115 143.305 154.235C143.226 154.365 143.139 154.498 143.05 154.628C142.212 155.848 141.018 157.004 139.459 158.043C139.375 158.099 139.291 158.155 139.204 158.211C138.954 158.369 138.697 158.527 138.43 158.682C137.546 159.194 136.601 159.648 135.61 160.048C135.526 160.081 135.439 160.114 135.355 160.147C134.212 160.593 133.007 160.967 131.764 161.265C131.68 161.288 131.593 161.306 131.509 161.326C130.34 161.599 129.135 161.805 127.915 161.948C127.831 161.958 127.745 161.968 127.661 161.976C126.474 162.108 125.272 162.177 124.069 162.187C123.985 162.187 123.899 162.19 123.815 162.19C122.612 162.192 121.41 162.134 120.221 162.014C120.137 162.006 120.05 161.999 119.966 161.989C118.746 161.859 117.544 161.665 116.375 161.41C116.291 161.393 116.204 161.372 116.12 161.354C114.877 161.072 113.672 160.715 112.526 160.29C112.442 160.259 112.355 160.226 112.271 160.193C111.143 159.76 110.073 159.258 109.08 158.682C108.945 158.604 108.81 158.525 108.68 158.446C108.593 158.392 108.509 158.341 108.425 158.288C106.91 157.33 105.71 156.265 104.831 155.137C104.742 155.025 104.658 154.913 104.577 154.798C103.652 153.509 103.135 152.147 103.023 150.774H103V146.136H104.233C104.34 145.965 104.454 145.794 104.577 145.624C104.658 145.509 104.742 145.397 104.831 145.282C105.155 144.867 105.522 144.46 105.932 144.065C106.433 143.581 106.999 143.112 107.631 142.664C108.081 142.343 108.565 142.032 109.082 141.734C117.187 137.055 130.327 137.055 138.432 141.734C138.949 142.032 139.431 142.343 139.882 142.664C140.511 143.112 141.079 143.581 141.58 144.065C142.156 144.62 142.648 145.198 143.053 145.792C143.132 145.906 143.205 146.018 143.277 146.133H144.507V146.136Z" fill="#FF9D4D"/>
<path d="M123.753 138.479C129.253 138.479 134.421 139.715 138.302 141.953C138.807 142.246 139.288 142.555 139.731 142.87C140.348 143.308 140.908 143.769 141.4 144.248C141.955 144.786 142.439 145.354 142.839 145.937C142.915 146.047 142.986 146.159 143.058 146.268L143.132 146.388H143.272H144.25V150.208V150.517H144.247L144.229 150.751C144.138 151.895 143.753 153.023 143.086 154.103C143.012 154.223 142.928 154.353 142.839 154.485C142.001 155.705 140.816 156.831 139.316 157.832C139.235 157.888 139.151 157.941 139.066 157.997C138.822 158.153 138.565 158.311 138.302 158.461C137.441 158.958 136.504 159.411 135.516 159.811C135.432 159.844 135.348 159.877 135.264 159.91C134.14 160.348 132.943 160.723 131.7 161.021C131.621 161.041 131.54 161.059 131.453 161.082C130.307 161.347 129.107 161.556 127.877 161.698C127.798 161.708 127.717 161.719 127.635 161.726C126.458 161.856 125.259 161.927 124.067 161.935C123.983 161.935 123.899 161.938 123.815 161.938H123.746C122.572 161.938 121.395 161.879 120.244 161.764C120.165 161.757 120.083 161.749 119.997 161.739C118.789 161.612 117.59 161.418 116.431 161.163C116.347 161.146 116.263 161.128 116.179 161.107C114.936 160.825 113.738 160.468 112.618 160.05L112.587 160.04C112.516 160.012 112.442 159.987 112.366 159.956C111.242 159.526 110.18 159.024 109.21 158.463C109.075 158.385 108.945 158.308 108.812 158.229C108.728 158.178 108.644 158.125 108.563 158.074C107.098 157.149 105.911 156.11 105.033 154.979C104.954 154.88 104.875 154.773 104.785 154.651C103.894 153.41 103.387 152.098 103.28 150.754L103.262 150.519H103.255V146.39H104.233H104.373L104.447 146.271C104.549 146.105 104.661 145.94 104.783 145.771C104.857 145.667 104.938 145.558 105.03 145.44C105.343 145.035 105.705 144.635 106.105 144.251C106.604 143.769 107.167 143.306 107.773 142.873C108.221 142.555 108.703 142.246 109.205 141.956C113.086 139.715 118.254 138.479 123.753 138.479ZM123.753 138.227C118.443 138.227 113.13 139.396 109.077 141.737C108.56 142.035 108.076 142.346 107.625 142.667C106.994 143.115 106.428 143.584 105.927 144.067C105.517 144.462 105.15 144.87 104.826 145.285C104.737 145.397 104.653 145.509 104.572 145.624C104.449 145.792 104.335 145.962 104.228 146.136H103V150.774H103.023C103.132 152.147 103.652 153.509 104.577 154.798C104.658 154.913 104.742 155.025 104.831 155.137C105.71 156.265 106.91 157.33 108.425 158.288C108.509 158.339 108.593 158.392 108.68 158.446C108.81 158.525 108.945 158.604 109.08 158.683C110.076 159.258 111.143 159.76 112.271 160.193C112.355 160.226 112.442 160.259 112.526 160.29C113.672 160.718 114.877 161.072 116.12 161.354C116.204 161.375 116.291 161.393 116.375 161.41C117.544 161.668 118.749 161.861 119.966 161.989C120.05 161.999 120.137 162.006 120.221 162.014C121.387 162.131 122.564 162.19 123.743 162.19C123.766 162.19 123.789 162.19 123.815 162.19C123.899 162.19 123.985 162.19 124.069 162.187C125.274 162.177 126.476 162.108 127.661 161.976C127.745 161.968 127.831 161.958 127.915 161.948C129.135 161.805 130.34 161.599 131.509 161.326C131.593 161.306 131.68 161.288 131.764 161.265C133.01 160.967 134.212 160.593 135.355 160.147C135.439 160.114 135.526 160.081 135.61 160.048C136.601 159.648 137.546 159.194 138.43 158.683C138.697 158.527 138.954 158.372 139.204 158.211C139.291 158.155 139.375 158.099 139.459 158.043C141.018 157.004 142.215 155.848 143.05 154.628C143.139 154.498 143.226 154.365 143.305 154.235C143.998 153.115 144.39 151.946 144.484 150.771H144.507V150.208V146.136H143.274C143.203 146.021 143.129 145.906 143.05 145.794C142.645 145.203 142.154 144.625 141.578 144.067C141.076 143.584 140.511 143.115 139.879 142.667C139.428 142.346 138.947 142.035 138.43 141.737C134.377 139.396 129.064 138.227 123.753 138.227Z" fill="#FFE840"/>
<path d="M123.753 157.99C135.215 157.99 144.507 152.625 144.507 146.008C144.507 139.391 135.215 134.027 123.753 134.027C112.292 134.027 103 139.391 103 146.008C103 152.625 112.292 157.99 123.753 157.99Z" fill="#FFE840"/>
<path d="M141.578 144.065C140.913 142.007 139.194 140.114 136.575 138.604C133.15 136.625 128.595 135.537 123.753 135.537C118.909 135.537 114.355 136.625 110.931 138.604C108.313 140.114 106.594 142.009 105.929 144.065C105.725 144.699 105.621 145.348 105.621 146.006C105.621 148.018 106.599 149.946 108.425 151.604C108.507 151.68 108.593 151.754 108.68 151.828C109.334 152.391 110.086 152.918 110.934 153.41C111.364 153.657 111.81 153.891 112.271 154.11C112.355 154.151 112.442 154.189 112.526 154.228C113.642 154.739 114.846 155.167 116.12 155.506C116.204 155.529 116.291 155.552 116.375 155.575C117.526 155.87 118.728 156.097 119.966 156.245C120.05 156.258 120.137 156.268 120.221 156.275C121.372 156.408 122.554 156.471 123.756 156.471H123.815C123.899 156.471 123.985 156.471 124.069 156.469C125.292 156.456 126.494 156.377 127.661 156.229C127.745 156.219 127.831 156.209 127.915 156.196C129.158 156.031 130.361 155.786 131.509 155.473C131.596 155.45 131.68 155.427 131.764 155.402C133.04 155.04 134.245 154.587 135.355 154.052C135.439 154.014 135.526 153.97 135.61 153.927C135.941 153.761 136.265 153.588 136.578 153.407C137.592 152.822 138.47 152.18 139.204 151.494C139.291 151.413 139.375 151.331 139.459 151.25C141.043 149.673 141.889 147.878 141.889 146.006C141.886 145.348 141.782 144.699 141.578 144.065ZM139.456 149.966C139.375 150.073 139.291 150.183 139.201 150.29C138.386 151.273 137.276 152.19 135.87 153.002C135.783 153.053 135.697 153.102 135.607 153.15C135.523 153.196 135.439 153.242 135.353 153.288C134.247 153.879 133.037 154.365 131.761 154.755C131.677 154.78 131.591 154.806 131.507 154.831C130.353 155.17 129.148 155.427 127.913 155.603C127.829 155.616 127.745 155.628 127.658 155.639C126.479 155.796 125.271 155.883 124.067 155.896C123.983 155.896 123.896 155.898 123.812 155.898C122.607 155.901 121.4 155.832 120.218 155.687C120.134 155.677 120.047 155.667 119.963 155.654C118.733 155.496 117.526 155.257 116.372 154.938C116.288 154.915 116.201 154.892 116.117 154.867C114.846 154.503 113.636 154.042 112.523 153.481C112.437 153.438 112.353 153.395 112.269 153.351C112.055 153.239 111.843 153.125 111.637 153.005C110.432 152.31 109.447 151.538 108.677 150.713C108.591 150.618 108.507 150.524 108.423 150.43C106.331 148.008 106.064 145.188 107.625 142.666C108.451 141.332 109.788 140.081 111.637 139.014C118.318 135.158 129.189 135.158 135.87 139.014C137.719 140.081 139.054 141.332 139.879 142.666C141.341 145.027 141.201 147.651 139.456 149.966Z" fill="#FF9D4D"/>
<path d="M124.418 144.317L126.372 145.445C126.329 145.466 126.285 145.489 126.242 145.514L125.17 146.133L123.344 145.078L123.947 144.73C124.164 144.607 124.319 144.47 124.418 144.317Z" fill="#D1975D"/>
<path d="M130.264 149.075L132.266 150.231L133.463 149.541L131.456 148.382C131.474 148.369 131.492 148.359 131.51 148.346C131.599 148.293 131.683 148.234 131.764 148.178C132.05 147.977 132.294 147.768 132.5 147.552C132.829 147.208 133.043 146.859 133.137 146.507C133.231 146.156 133.191 145.812 133.012 145.478C132.834 145.142 132.493 144.829 131.991 144.538C131.915 144.495 131.841 144.454 131.764 144.414C131.68 144.37 131.596 144.33 131.51 144.289C130.863 143.988 130.175 143.813 129.444 143.754C128.929 143.716 128.423 143.728 127.916 143.8C127.832 143.813 127.745 143.825 127.661 143.841C127.353 143.894 127.047 143.97 126.744 144.065C127.057 143.601 127.103 143.138 126.887 142.677C126.668 142.216 126.27 141.818 125.69 141.482C125.32 141.271 124.89 141.095 124.398 140.96C123.907 140.825 123.402 140.743 122.883 140.713C122.363 140.685 121.846 140.713 121.334 140.804C120.82 140.896 120.356 141.059 119.943 141.299L119.566 141.518L117.636 140.405L116.439 141.095L118.367 142.208L116.912 143.048L114.982 141.935L113.785 142.626L115.713 143.739L113.576 144.971L116.118 146.439L116.372 146.584L119.964 148.657L120.218 148.805L123.812 150.878L124.067 151.026L125.47 151.836L127.607 150.603L129.609 151.759L130.807 151.069L128.805 149.913L130.264 149.075ZM126.242 145.514C126.286 145.488 126.329 145.466 126.372 145.445C126.54 145.366 126.724 145.305 126.92 145.267C127.159 145.221 127.406 145.203 127.661 145.213C127.674 145.213 127.686 145.213 127.699 145.213C127.77 145.216 127.842 145.224 127.913 145.229C128.109 145.249 128.305 145.285 128.504 145.338C128.771 145.41 129.013 145.506 129.225 145.629C129.436 145.751 129.599 145.891 129.711 146.044C129.823 146.199 129.882 146.357 129.887 146.515C129.892 146.673 129.844 146.828 129.737 146.979C129.671 147.07 129.587 147.157 129.482 147.238C129.431 147.279 129.373 147.317 129.311 147.355C129.294 147.366 129.278 147.378 129.261 147.389L128.338 147.921L128.305 147.939L127.918 148.163L127.664 148.308L126.851 148.779L125.827 149.37L122.694 147.562L123.028 147.368L123.716 146.971L123.817 146.912L124.072 146.767L125.172 146.13L126.242 145.514ZM119.966 143.568L120.221 143.42L120.346 143.349L121.049 142.941C121.09 142.919 121.135 142.901 121.176 142.88C121.319 142.812 121.472 142.75 121.635 142.712C121.861 142.659 122.111 142.633 122.378 142.638C122.885 142.649 123.364 142.778 123.812 143.031C123.823 143.036 123.835 143.043 123.845 143.048C123.927 143.094 124.001 143.143 124.067 143.191C124.388 143.42 124.546 143.665 124.541 143.925C124.538 144.065 124.497 144.197 124.419 144.319C124.34 144.439 124.222 144.554 124.067 144.658C124.029 144.684 123.988 144.709 123.947 144.735L123.815 144.811L123.344 145.084L121.887 145.924L121.489 146.153L120.863 146.515L120.516 146.314L120.129 146.09L119.966 145.995L119.233 145.573L117.865 144.783L118.244 144.564L118.886 144.192L119.966 143.568Z" fill="#FF9D4D"/>
<path d="M105.371 151.459V155.659C105.282 155.547 105.198 155.435 105.117 155.32V151.12C105.198 151.232 105.285 151.344 105.371 151.459Z" fill="#FFE840"/>
<path d="M108.678 154.243V158.443C108.591 158.39 108.507 158.339 108.423 158.285V154.083C108.507 154.139 108.594 154.189 108.678 154.243Z" fill="#FFE840"/>
<path d="M112.526 156.084V160.287C112.442 160.257 112.356 160.223 112.271 160.19V155.99C112.356 156.023 112.44 156.056 112.526 156.084Z" fill="#FFE840"/>
<path d="M116.372 157.21V161.41C116.288 161.392 116.201 161.372 116.117 161.354V157.152C116.204 157.172 116.288 157.19 116.372 157.21Z" fill="#FFE840"/>
<path d="M120.221 157.814V162.014C120.137 162.007 120.05 161.999 119.966 161.989V157.789C120.05 157.799 120.134 157.806 120.221 157.814Z" fill="#FFE840"/>
<path d="M124.067 157.987V162.187C123.983 162.187 123.896 162.19 123.812 162.19V157.99C123.899 157.99 123.983 157.987 124.067 157.987Z" fill="#FFE840"/>
<path d="M127.916 157.748V161.948C127.832 161.958 127.745 161.969 127.661 161.976V157.776C127.745 157.768 127.829 157.758 127.916 157.748Z" fill="#FFE840"/>
<path d="M131.762 157.065V161.265C131.678 161.288 131.591 161.306 131.507 161.326V157.124C131.594 157.106 131.678 157.086 131.762 157.065Z" fill="#FFE840"/>
<path d="M135.61 155.845V160.045C135.526 160.078 135.439 160.111 135.355 160.144V155.942C135.439 155.914 135.523 155.878 135.61 155.845Z" fill="#FFE840"/>
<path d="M139.456 153.843V158.043C139.372 158.099 139.288 158.155 139.202 158.211V154.009C139.288 153.955 139.375 153.899 139.456 153.843Z" fill="#FFE840"/>
<path d="M142.869 150.456V154.656C142.79 154.788 142.704 154.918 142.615 155.048V150.848C142.704 150.718 142.788 150.588 142.869 150.456Z" fill="#FFE840"/>
<path d="M276.542 82.031H276.534C275.688 82.031 274.769 82.1686 273.796 82.4487C271.965 82.976 270.128 83.5465 268.284 84.1604C265.658 85.0315 263.017 85.9892 260.365 87.0335C259.097 87.5301 257.828 88.0472 256.555 88.5846C253.279 89.96 249.991 91.4628 246.698 93.0904C245.409 93.7246 244.118 94.3792 242.824 95.0542C240.192 96.4245 237.559 97.8712 234.92 99.3893C234.141 99.8401 233.364 100.296 232.584 100.76C231.774 101.238 230.964 101.727 230.157 102.222C230.154 102.222 230.154 102.222 230.154 102.222C226.382 104.529 222.613 106.987 218.856 109.588C218.339 109.947 217.819 110.311 217.302 110.675C213.565 113.306 209.844 116.08 206.146 118.994C205.155 119.771 204.164 120.563 203.176 121.36C200.789 123.299 198.408 125.288 196.044 127.336C193.176 129.819 190.795 133.003 189.223 136.273L184.068 133.296L171.75 126.19C171.867 125.945 171.99 125.7 172.117 125.459C173.681 122.476 175.905 119.61 178.536 117.333C191.23 106.335 204.32 96.9441 217.409 89.387C230.498 81.8298 243.588 76.104 256.287 72.4413C258.592 71.7765 260.582 71.9268 262.09 72.7623L274.308 79.8074C274.338 79.8202 274.364 79.838 274.392 79.8533L274.603 79.9755C275.403 80.462 276.055 81.1548 276.542 82.031Z" fill="url(#paint0_linear)"/>
<path d="M191.347 215.619L189.552 214.888C189.541 214.883 189.531 214.881 189.519 214.876C189.516 214.876 189.513 214.873 189.511 214.873L187.443 213.689L187.028 213.449C187.025 213.449 187.025 213.449 187.022 213.447L176.842 207.622C176.192 207.326 175.586 206.977 175.021 206.577L175.016 206.575C171.557 204.127 169.644 199.733 169.644 194.036V134.281C169.644 131.765 170.408 128.948 171.745 126.197L184.063 133.303L189.218 136.281C187.904 139.009 187.155 141.793 187.155 144.286V204.04C187.155 206.936 187.649 209.496 188.586 211.636C189.274 213.197 190.201 214.537 191.347 215.619Z" fill="url(#paint1_linear)"/>
<path d="M275.207 80.4109L259.978 88.6532V135.97C259.978 142.791 257.245 150.906 252.385 158.494L218.593 211.307C215.055 216.837 209.375 220.115 205.838 218.671L188.056 211.414L187.43 213.74C187.427 213.737 187.425 213.735 187.42 213.735C183.905 211.297 181.964 206.873 181.964 201.129V141.375C181.964 138.881 182.715 136.097 184.027 133.369C185.599 130.099 187.98 126.915 190.848 124.432C203.548 113.434 216.637 104.04 229.726 96.4829C242.818 88.9283 255.908 83.205 268.605 79.5398C269.578 79.2571 270.497 79.1221 271.343 79.1221C272.186 79.1221 272.965 79.2571 273.661 79.5194L275.207 80.4109Z" fill="#FFA412"/>
<path d="M277.489 86.2261V145.98C277.489 152.799 274.754 160.914 269.894 168.501L236.104 221.315C232.566 226.842 226.881 230.12 223.351 228.676L191.35 215.62L189.554 214.889C189.544 214.884 189.534 214.881 189.521 214.876C189.518 214.876 189.516 214.873 189.513 214.873C188.772 214.565 188.074 214.188 187.43 213.742C187.425 213.74 187.422 213.737 187.42 213.737C187.325 213.674 187.234 213.607 187.147 213.541C187.106 213.511 187.066 213.483 187.03 213.45C187.027 213.45 187.027 213.45 187.025 213.447C186.801 213.276 186.582 213.096 186.37 212.904C186.296 212.838 186.22 212.767 186.146 212.698C186.06 212.617 185.976 212.535 185.891 212.449C185.83 212.387 185.769 212.326 185.711 212.26C185.497 212.036 185.293 211.802 185.097 211.557C185.041 211.491 184.99 211.42 184.936 211.351C184.829 211.211 184.727 211.073 184.626 210.928C184.582 210.867 184.539 210.806 184.501 210.739C184.455 210.676 184.412 210.607 184.368 210.541C184.307 210.444 184.246 210.345 184.185 210.245C184.134 210.161 184.083 210.08 184.037 209.993C183.923 209.792 183.813 209.588 183.709 209.379C183.655 209.277 183.607 209.176 183.558 209.074C183.446 208.837 183.342 208.597 183.24 208.35C183.204 208.266 183.174 208.182 183.141 208.096C183.125 208.057 183.11 208.022 183.097 207.984C183.064 207.902 183.036 207.821 183.006 207.736C182.983 207.673 182.96 207.607 182.937 207.54C182.901 207.433 182.868 207.324 182.832 207.214C182.794 207.102 182.761 206.988 182.728 206.87C182.71 206.809 182.69 206.751 182.675 206.687C182.646 206.585 182.618 206.486 182.593 206.384C182.588 206.371 182.585 206.356 182.583 206.343C182.55 206.218 182.519 206.091 182.489 205.966C182.461 205.852 182.435 205.74 182.415 205.622C182.382 205.477 182.354 205.33 182.326 205.179C182.323 205.174 182.32 205.169 182.323 205.166C182.292 205.019 182.267 204.866 182.241 204.713C182.226 204.621 182.211 204.527 182.198 204.435C182.18 204.323 182.165 204.211 182.15 204.097C182.112 203.806 182.081 203.513 182.053 203.213C182.043 203.108 182.035 203.001 182.03 202.895C182.022 202.81 182.017 202.729 182.012 202.645C182.002 202.479 181.992 202.314 181.984 202.143C181.972 201.807 181.964 201.468 181.964 201.122V141.368C181.964 138.877 182.715 136.09 184.027 133.362C184.037 133.339 184.047 133.316 184.063 133.293C184.177 133.056 184.297 132.82 184.419 132.583C184.508 132.415 184.595 132.247 184.689 132.081C184.789 131.898 184.89 131.719 184.995 131.536C185.061 131.419 185.13 131.302 185.201 131.187C185.26 131.085 185.321 130.983 185.387 130.881C185.497 130.7 185.611 130.52 185.731 130.339C185.83 130.183 185.932 130.028 186.039 129.875C186.197 129.638 186.36 129.404 186.531 129.17C186.671 128.976 186.808 128.788 186.954 128.597C187.099 128.406 187.244 128.22 187.394 128.034C187.488 127.914 187.588 127.792 187.69 127.675C187.927 127.384 188.169 127.099 188.421 126.819C188.706 126.503 188.994 126.192 189.292 125.886C189.534 125.642 189.781 125.403 190.028 125.168C190.295 124.911 190.573 124.661 190.851 124.419C203.55 113.421 216.637 104.028 229.729 96.4704C242.821 88.9158 255.91 83.19 268.607 79.5273C269.58 79.2472 270.497 79.1096 271.346 79.1096C272.189 79.1096 272.968 79.2446 273.663 79.507C273.888 79.591 274.104 79.6853 274.31 79.7973C274.341 79.8101 274.366 79.8279 274.394 79.8432L274.606 79.9654C274.82 80.0953 275.021 80.238 275.215 80.3984C275.744 80.8289 276.19 81.374 276.547 82.0184C277.155 83.1467 277.489 84.5578 277.489 86.2261Z" fill="url(#paint2_linear)"/>
<path d="M270.258 96.4933V147.203C270.258 152.99 267.935 159.874 263.814 166.316L235.137 211.134C232.134 215.823 227.312 218.607 224.314 217.382L195.637 205.681C194.99 205.416 194.391 205.093 193.833 204.708C193.831 204.705 193.828 204.703 193.823 204.703C190.841 202.632 189.193 198.88 189.193 194.005V143.296C189.193 141.182 189.829 138.818 190.945 136.503C192.277 133.729 194.299 131.026 196.732 128.917C207.509 119.585 218.616 111.613 229.724 105.199C240.834 98.7882 251.942 93.9309 262.716 90.8235C263.542 90.5841 264.321 90.4695 265.042 90.4695C265.757 90.4695 266.417 90.5841 267.008 90.8057C269.036 91.5571 270.258 93.5616 270.258 96.4933Z" fill="url(#paint3_linear)"/>
<path d="M206.457 117.698C206.457 118.869 205.507 120.367 204.335 121.042C203.163 121.717 202.213 121.317 202.213 120.146C202.213 118.974 203.163 117.476 204.335 116.801C205.507 116.124 206.457 116.526 206.457 117.698Z" fill="url(#paint4_linear)"/>
<path d="M219.951 107.097C219.951 108.268 219.001 109.766 217.829 110.441C216.658 111.116 215.708 110.716 215.708 109.544C215.708 108.373 216.658 106.875 217.829 106.2C219.001 105.522 219.951 105.925 219.951 107.097Z" fill="url(#paint5_linear)"/>
<path d="M233.446 98.5565C233.446 99.7281 232.496 101.226 231.324 101.901C230.152 102.576 229.202 102.176 229.202 101.004C229.202 99.8326 230.152 98.3349 231.324 97.6599C232.496 96.9824 233.446 97.3848 233.446 98.5565Z" fill="url(#paint6_linear)"/>
<path d="M246.937 91.9674C246.937 93.139 245.987 94.6367 244.815 95.3117C243.644 95.9866 242.694 95.5867 242.694 94.4151C242.694 93.2434 243.644 91.7458 244.815 91.0708C245.99 90.3933 246.937 90.7957 246.937 91.9674Z" fill="url(#paint7_linear)"/>
<path d="M260.431 87.5302C260.431 88.7018 259.481 90.1995 258.31 90.8745C257.138 91.5495 256.188 91.1496 256.188 89.9779C256.188 88.8063 257.138 87.3086 258.31 86.6336C259.481 85.9587 260.431 86.3585 260.431 87.5302Z" fill="url(#paint8_linear)"/>
<path d="M252.482 144.289C250.814 143.067 248.544 142.86 245.679 143.67C248.03 141.278 249.815 138.663 251.038 135.815C252.26 132.973 252.872 130.326 252.872 127.883C252.872 126.332 252.599 124.949 252.059 123.734C251.517 122.517 250.755 121.595 249.767 120.966C248.781 120.337 247.579 120.054 246.17 120.112C244.762 120.176 243.185 120.711 241.445 121.714L239.856 122.631V114.514L234.818 117.423V125.543L228.687 129.081V120.963L223.649 123.872V131.992L214.653 137.185V187.251L223.649 182.057V190.485L228.687 187.577V179.146L234.818 175.605V184.036L236.764 182.913L239.856 181.127V172.674C241.69 171.543 243.43 170.262 245.078 168.833C245.658 168.331 246.219 167.814 246.759 167.292C246.761 167.289 246.761 167.289 246.764 167.287C248.035 166.049 249.186 164.752 250.225 163.392C251.705 161.456 252.869 159.444 253.717 157.361C254.048 156.535 254.321 155.708 254.522 154.88C254.83 153.609 254.986 152.335 254.986 151.057C254.986 147.768 254.15 145.512 252.482 144.289ZM224.383 139.885L237.78 132.15C238.532 131.717 239.222 131.449 239.856 131.345C240.534 131.235 241.145 131.314 241.693 131.582C242.752 132.101 243.282 133.324 243.282 135.25C243.282 137.221 242.706 139.106 241.552 140.902C241.035 141.706 240.47 142.422 239.856 143.056C239.097 143.836 238.264 144.49 237.355 145.015L228.685 150.02L224.38 152.503V139.885H224.383ZM244.693 157.707C244.364 158.695 243.916 159.648 243.353 160.557C242.788 161.472 242.118 162.317 241.344 163.094C240.87 163.565 240.376 163.991 239.859 164.368C239.53 164.612 239.189 164.831 238.84 165.032L234.821 167.353L224.385 173.377V160.19L228.69 157.707L239.334 151.561C239.512 151.457 239.688 151.362 239.859 151.281C240.503 150.968 241.104 150.787 241.659 150.746C242.365 150.692 242.976 150.825 243.493 151.136C244.01 151.449 244.42 151.928 244.729 152.572C245.034 153.222 245.187 153.991 245.187 154.882C245.185 155.774 245.019 156.719 244.693 157.707Z" fill="url(#paint9_linear)"/>
</g>
<path d="M108.734 292.236V298.025H104.621V280.963H111.43C112.734 280.963 113.887 281.205 114.887 281.689C115.895 282.166 116.672 282.85 117.219 283.74C117.773 284.623 118.051 285.627 118.051 286.752C118.051 288.416 117.453 289.748 116.258 290.748C115.07 291.74 113.438 292.236 111.359 292.236H108.734ZM108.734 289.061H111.43C112.227 289.061 112.832 288.861 113.246 288.463C113.668 288.064 113.879 287.502 113.879 286.775C113.879 285.979 113.664 285.342 113.234 284.865C112.805 284.389 112.219 284.146 111.477 284.139H108.734V289.061ZM126.594 292.002H124.367V298.025H120.254V280.963H126.969C128.992 280.963 130.574 281.412 131.715 282.311C132.855 283.209 133.426 284.479 133.426 286.119C133.426 287.307 133.184 288.291 132.699 289.072C132.223 289.854 131.473 290.486 130.449 290.971L134.012 297.85V298.025H129.605L126.594 292.002ZM124.367 288.826H126.969C127.75 288.826 128.336 288.623 128.727 288.217C129.125 287.803 129.324 287.229 129.324 286.494C129.324 285.76 129.125 285.186 128.727 284.771C128.328 284.35 127.742 284.139 126.969 284.139H124.367V288.826ZM150.359 289.846C150.359 291.51 150.051 292.982 149.434 294.264C148.816 295.545 147.938 296.533 146.797 297.229C145.664 297.916 144.371 298.26 142.918 298.26C141.465 298.26 140.176 297.928 139.051 297.264C137.926 296.592 137.047 295.635 136.414 294.393C135.789 293.15 135.461 291.725 135.43 290.115V289.154C135.43 287.482 135.734 286.01 136.344 284.736C136.961 283.455 137.84 282.467 138.98 281.771C140.129 281.076 141.434 280.729 142.895 280.729C144.34 280.729 145.629 281.072 146.762 281.76C147.895 282.447 148.773 283.428 149.398 284.701C150.031 285.967 150.352 287.42 150.359 289.061V289.846ZM146.176 289.131C146.176 287.436 145.891 286.15 145.32 285.275C144.758 284.393 143.949 283.951 142.895 283.951C140.832 283.951 139.742 285.498 139.625 288.592L139.613 289.846C139.613 291.518 139.891 292.803 140.445 293.701C141 294.6 141.824 295.049 142.918 295.049C143.957 295.049 144.758 294.607 145.32 293.725C145.883 292.842 146.168 291.572 146.176 289.916V289.131ZM158.844 293.385L162.242 280.963H166.836L161.094 298.025H156.594L150.898 280.963H155.457L158.844 293.385ZM176.891 294.838H171.254L170.27 298.025H165.875L172.133 280.963H176L182.305 298.025H177.887L176.891 294.838ZM172.238 291.662H175.906L174.066 285.744L172.238 291.662ZM183.559 298.025V280.963H189.688C191.883 280.963 193.551 281.365 194.691 282.17C195.84 282.975 196.414 284.143 196.414 285.674C196.414 286.557 196.211 287.311 195.805 287.936C195.398 288.561 194.801 289.021 194.012 289.318C194.902 289.553 195.586 289.99 196.062 290.631C196.539 291.271 196.777 292.053 196.777 292.975C196.777 294.646 196.246 295.904 195.184 296.748C194.129 297.584 192.562 298.01 190.484 298.025H183.559ZM187.672 290.771V294.861H190.367C191.109 294.861 191.68 294.693 192.078 294.357C192.477 294.014 192.676 293.533 192.676 292.916C192.676 291.494 191.969 290.779 190.555 290.771H187.672ZM187.672 288.076H189.816C190.715 288.068 191.355 287.904 191.738 287.584C192.121 287.264 192.312 286.791 192.312 286.166C192.312 285.447 192.105 284.932 191.691 284.619C191.277 284.299 190.609 284.139 189.688 284.139H187.672V288.076ZM203.164 294.861H210.324V298.025H199.051V280.963H203.164V294.861ZM215.023 288.369L218.164 280.963H222.605L217.109 291.896V298.025H212.938V291.896L207.453 280.963H211.871L215.023 288.369ZM240.57 291.229H233.938V298.025H229.824V280.963H241.238V284.139H233.938V288.064H240.57V291.229ZM250.391 294.838H244.754L243.77 298.025H239.375L245.633 280.963H249.5L255.805 298.025H251.387L250.391 294.838ZM245.738 291.662H249.406L247.566 285.744L245.738 291.662ZM261.441 298.025H257.34V280.963H261.441V298.025ZM270.641 292.002H268.414V298.025H264.301V280.963H271.016C273.039 280.963 274.621 281.412 275.762 282.311C276.902 283.209 277.473 284.479 277.473 286.119C277.473 287.307 277.23 288.291 276.746 289.072C276.27 289.854 275.52 290.486 274.496 290.971L278.059 297.85V298.025H273.652L270.641 292.002ZM268.414 288.826H271.016C271.797 288.826 272.383 288.623 272.773 288.217C273.172 287.803 273.371 287.229 273.371 286.494C273.371 285.76 273.172 285.186 272.773 284.771C272.375 284.35 271.789 284.139 271.016 284.139H268.414V288.826Z" fill="white"/>
<defs>
<filter id="filter0_b" x="18.1599" y="-6.76735" width="344.68" height="394.586" filterUnits="userSpaceOnUse" color-interpolation-filters="sRGB">
<feFlood flood-opacity="0" result="BackgroundImageFix"/>
<feGaussianBlur in="BackgroundImage" stdDeviation="3.68116"/>
<feComposite in2="SourceAlpha" operator="in" result="effect1_backgroundBlur"/>
<feBlend mode="normal" in="SourceGraphic" in2="effect1_backgroundBlur" result="shape"/>
</filter>
<linearGradient id="paint0_linear" x1="171.751" y1="104.15" x2="276.542" y2="104.15" gradientUnits="userSpaceOnUse">
<stop stop-color="#EB9310"/>
<stop offset="1" stop-color="#FFE711"/>
</linearGradient>
<linearGradient id="paint1_linear" x1="169.644" y1="170.906" x2="191.347" y2="170.906" gradientUnits="userSpaceOnUse">
<stop stop-color="#DA9022"/>
<stop offset="1" stop-color="#FFC85C"/>
</linearGradient>
<linearGradient id="paint2_linear" x1="181.964" y1="154.06" x2="277.488" y2="154.06" gradientUnits="userSpaceOnUse">
<stop stop-color="#DA9022"/>
<stop offset="1" stop-color="#FFC85C"/>
</linearGradient>
<linearGradient id="paint3_linear" x1="189.193" y1="154.072" x2="270.258" y2="154.072" gradientUnits="userSpaceOnUse">
<stop stop-color="#FFDEAD"/>
<stop offset="1" stop-color="#FFF2B0"/>
</linearGradient>
<linearGradient id="paint4_linear" x1="202.213" y1="118.921" x2="206.457" y2="118.921" gradientUnits="userSpaceOnUse">
<stop stop-color="#FFE840"/>
<stop offset="1" stop-color="#FFE711"/>
</linearGradient>
<linearGradient id="paint5_linear" x1="215.708" y1="108.32" x2="219.951" y2="108.32" gradientUnits="userSpaceOnUse">
<stop stop-color="#FFE840"/>
<stop offset="1" stop-color="#FFE711"/>
</linearGradient>
<linearGradient id="paint6_linear" x1="229.202" y1="99.7799" x2="233.446" y2="99.7799" gradientUnits="userSpaceOnUse">
<stop stop-color="#FFE840"/>
<stop offset="1" stop-color="#FFE711"/>
</linearGradient>
<linearGradient id="paint7_linear" x1="242.694" y1="93.1907" x2="246.937" y2="93.1907" gradientUnits="userSpaceOnUse">
<stop stop-color="#FFE840"/>
<stop offset="1" stop-color="#FFE711"/>
</linearGradient>
<linearGradient id="paint8_linear" x1="256.188" y1="88.7541" x2="260.431" y2="88.7541" gradientUnits="userSpaceOnUse">
<stop stop-color="#FFE840"/>
<stop offset="1" stop-color="#FFE711"/>
</linearGradient>
<linearGradient id="paint9_linear" x1="214.653" y1="152.498" x2="254.985" y2="152.498" gradientUnits="userSpaceOnUse">
<stop stop-color="#DA9022"/>
<stop offset="1" stop-color="#FFC85C"/>
</linearGradient>
<clipPath id="clip0">
<rect width="175.456" height="178" fill="white" transform="translate(103 72.0254)"/>
</clipPath>
</defs>
</svg>
