<svg width="381" height="382" viewBox="0 0 381 382" fill="none" xmlns="http://www.w3.org/2000/svg">
<g filter="url(#filter0_b)">
<path d="M188.659 1.08805C189.798 0.430477 191.202 0.430474 192.341 1.08805L353.637 94.2127C354.776 94.8703 355.478 96.0856 355.478 97.4007V283.65C355.478 284.965 354.776 286.18 353.637 286.838L192.341 379.963C191.202 380.62 189.798 380.62 188.659 379.963L27.3627 286.838C26.2238 286.18 25.5222 284.965 25.5222 283.65V97.4007C25.5222 96.0856 26.2238 94.8703 27.3627 94.2127L188.659 1.08805Z" fill="#576784" fill-opacity="0.26"/>
<path d="M189.12 1.88505C189.974 1.39186 191.026 1.39186 191.88 1.88504L353.177 95.0097C354.031 95.5029 354.558 96.4143 354.558 97.4007V283.65C354.558 284.636 354.031 285.548 353.177 286.041L191.88 379.166C191.026 379.659 189.974 379.659 189.12 379.166L27.8229 286.041C26.9687 285.548 26.4424 284.636 26.4424 283.65V97.4007C26.4424 96.4144 26.9687 95.5029 27.8229 95.0097L189.12 1.88505Z" stroke="#425F99" stroke-width="1.84058"/>
</g>
<g clip-path="url(#clip0)">
<path d="M296.823 140.382L287.211 141.369L215.818 100.148C215.688 100.076 215.554 100.003 215.42 99.9333C213.973 99.1883 212.211 98.7473 210.401 98.6209C210.401 98.6209 210.401 98.6209 210.393 98.6182C210.078 98.5967 209.756 98.5832 209.438 98.5805C206.996 98.5509 204.543 99.0754 202.682 100.148L97.6466 160.83L83.5164 162.28L85.2268 172.177C85.2215 172.411 85.2403 172.645 85.2887 172.876C85.5227 174.027 86.4048 175.141 87.9405 176.028L164.517 220.205C166.036 221.084 167.954 221.592 169.933 221.735C170.256 221.759 170.573 221.773 170.896 221.773C172.12 221.789 173.346 221.662 174.494 221.401C175.646 221.138 176.719 220.74 177.646 220.205L292.012 154.201C293.722 153.208 294.623 151.936 294.72 150.643H294.731L296.823 140.382Z" fill="#1F2F3E"/>
<path d="M215.42 85.8918L214.287 90.5418L284.199 130.905C287.827 133 287.824 136.391 284.199 138.486L169.917 204.507L174.497 207.357C173.346 207.621 172.122 207.747 170.899 207.731L169.936 207.691C167.957 207.548 166.036 207.04 164.519 206.163L86.2301 160.965C84.6998 160.08 83.815 158.966 83.5783 157.815C83.2529 156.239 84.1377 154.593 86.2301 153.383L202.685 86.1043C204.544 85.0312 206.996 84.5068 209.438 84.5363L210.393 84.5767C210.398 84.5767 210.398 84.5767 210.398 84.5767C212.211 84.7058 213.97 85.1442 215.42 85.8918Z" fill="#FF4C5E"/>
<path d="M215.818 86.107L294.104 131.306C297.73 133.398 297.727 136.792 294.104 138.887L177.647 206.161C176.721 206.696 175.648 207.096 174.497 207.355C173.346 207.618 172.122 207.745 170.899 207.728C170.576 207.726 170.259 207.712 169.936 207.688C167.957 207.546 166.036 207.037 164.519 206.161L86.2301 160.965C84.6998 160.08 83.815 158.966 83.5783 157.815C83.2529 156.239 84.1377 154.593 86.2301 153.383L202.685 86.1043C204.544 85.0312 206.996 84.5068 209.438 84.5363C209.756 84.539 210.078 84.5525 210.393 84.5767C210.398 84.5767 210.398 84.5767 210.398 84.5767C212.211 84.7058 213.97 85.1442 215.42 85.8918C215.554 85.9591 215.689 86.0317 215.818 86.107Z" fill="#FFBC00"/>
<path d="M296.824 135.326V140.383H296.815C296.754 141.708 295.853 143.024 294.104 144.032L177.647 211.306C176.719 211.841 175.646 212.241 174.495 212.502C173.346 212.769 172.12 212.89 170.896 212.876V207.729C172.12 207.745 173.346 207.618 174.495 207.357C175.646 207.094 176.719 206.696 177.647 206.161L294.104 138.885C295.815 137.892 296.719 136.62 296.813 135.324H296.824V135.326Z" fill="url(#paint0_linear)"/>
<path d="M296.812 135.326C296.718 136.62 295.815 137.895 294.104 138.887L177.646 206.163C176.719 206.698 175.646 207.096 174.494 207.36C173.346 207.623 172.12 207.747 170.896 207.731V212.879C170.573 212.876 170.256 212.863 169.933 212.838C167.954 212.698 166.036 212.187 164.517 211.313L86.23 166.109C84.6971 165.225 83.8149 164.108 83.5783 162.963C83.4895 162.541 83.4922 162.118 83.5783 161.699V157.815L88.3332 157.315L202.682 91.2518C204.543 90.176 206.996 89.6543 209.438 89.6812C209.756 89.6839 210.078 89.6973 210.393 89.7215C210.401 89.7215 210.401 89.7215 210.401 89.7215C212.211 89.8506 213.973 90.2917 215.42 91.0366C215.557 91.1039 215.688 91.1765 215.818 91.2518L292.878 135.743L296.812 135.326Z" fill="url(#paint1_linear)"/>
<path d="M171.087 213.39C171.022 213.39 170.958 213.39 170.893 213.39L170.904 212.368C172.117 212.378 173.287 212.26 174.382 212.007C175.508 211.754 176.52 211.37 177.394 210.867L293.851 143.591C295.379 142.709 296.253 141.563 296.31 140.361L296.315 140.226V137.733C295.825 138.325 295.169 138.865 294.362 139.333L177.902 206.604C176.95 207.153 175.842 207.575 174.607 207.855C173.413 208.126 172.16 208.258 170.891 208.239L170.904 207.217C172.095 207.231 173.265 207.112 174.382 206.86C175.516 206.602 176.528 206.217 177.391 205.719L293.849 138.443C295.344 137.575 296.218 136.456 296.304 135.289L296.339 134.815H297.326L297.337 135.326V140.893H297.275C297.028 142.265 296.011 143.524 294.362 144.473L177.902 211.749C176.939 212.306 175.831 212.725 174.607 213C173.497 213.258 172.311 213.39 171.087 213.39Z" fill="#FFA412"/>
<path d="M170.894 213.387C170.563 213.384 170.237 213.371 169.896 213.344C167.758 213.193 165.808 212.642 164.261 211.752L85.9748 166.551C84.3557 165.615 83.3552 164.41 83.0782 163.062C82.9814 162.6 82.9787 162.124 83.0675 161.648V157.353L88.172 156.815L202.427 90.8109C204.304 89.7244 206.789 89.1461 209.444 89.173C209.769 89.1757 210.095 89.1892 210.412 89.2134H210.434C212.375 89.3532 214.18 89.8265 215.648 90.585C215.788 90.6549 215.931 90.7302 216.068 90.8109L292.986 135.221L297.364 134.756L297.318 135.367C297.208 136.881 296.157 138.29 294.357 139.331L177.902 206.604C176.95 207.153 175.842 207.575 174.608 207.855C173.414 208.129 172.166 208.264 170.891 208.24L170.904 207.218C172.098 207.231 173.266 207.113 174.382 206.86C175.517 206.602 176.528 206.217 177.391 205.72L293.849 138.443C295.078 137.731 295.888 136.846 296.183 135.907L292.768 136.27L292.623 136.187L215.562 91.6957C215.441 91.6258 215.318 91.5585 215.191 91.4967C213.841 90.8001 212.182 90.3671 210.382 90.2353L210.356 90.2327C210.054 90.2111 209.745 90.1977 209.436 90.1923C206.967 90.1654 204.662 90.6979 202.941 91.693L88.4974 157.81L84.0921 158.275L84.0814 161.801C84.0088 162.159 84.0088 162.514 84.0814 162.858C84.2939 163.899 85.1491 164.894 86.4884 165.669L164.775 210.87C166.168 211.671 168.013 212.19 169.971 212.33C170.291 212.354 170.595 212.368 170.904 212.37L170.894 213.387Z" fill="#FFA412"/>
<path d="M215.818 86.107L294.104 131.306C297.73 133.398 297.727 136.792 294.104 138.887L177.647 206.161C176.721 206.696 175.648 207.096 174.497 207.355C173.346 207.618 172.122 207.745 170.899 207.728C170.576 207.726 170.259 207.712 169.936 207.688C167.957 207.546 166.036 207.037 164.519 206.161L86.2301 160.965C84.6998 160.08 83.815 158.966 83.5783 157.815C83.2529 156.239 84.1377 154.593 86.2301 153.383L202.685 86.1043C204.544 85.0312 206.996 84.5068 209.438 84.5363C209.756 84.539 210.078 84.5525 210.393 84.5767C210.398 84.5767 210.398 84.5767 210.398 84.5767C212.211 84.7058 213.97 85.1442 215.42 85.8918C215.554 85.9591 215.689 86.0317 215.818 86.107Z" fill="#FFA412"/>
<path d="M296.813 135.326C296.719 136.62 295.815 137.895 294.104 138.887L177.647 206.163C176.719 206.698 175.646 207.096 174.495 207.36C173.346 207.624 172.12 207.747 170.896 207.731C170.573 207.731 170.256 207.718 169.933 207.693C167.954 207.551 166.036 207.043 164.517 206.163L86.2302 160.965C84.6972 160.08 83.8151 158.964 83.5784 157.813C83.2503 156.237 84.1324 154.591 86.2302 153.38L202.683 86.1043C204.544 85.0312 206.996 84.5068 209.438 84.5363C209.756 84.539 210.079 84.5525 210.393 84.574C210.401 84.5767 210.401 84.5767 210.401 84.5767C212.211 84.7031 213.973 85.1415 215.42 85.8891C215.557 85.9564 215.689 86.0317 215.818 86.1043L294.104 131.306C296.019 132.408 296.923 133.877 296.813 135.326Z" fill="url(#paint2_linear)"/>
<path d="M171.121 208.242C171.043 208.242 170.968 208.242 170.89 208.24H170.887C170.576 208.24 170.25 208.226 169.895 208.202C167.746 208.046 165.799 207.495 164.261 206.605L85.9741 161.409C84.355 160.473 83.3546 159.265 83.0776 157.918C82.6876 156.043 83.7445 154.228 85.9741 152.94L202.426 85.6635C204.312 84.577 206.81 83.9934 209.443 84.0283C209.752 84.031 210.083 84.0445 210.425 84.066L210.535 84.0767C212.437 84.222 214.201 84.6899 215.65 85.4376C215.766 85.4941 215.884 85.5613 216 85.6232L216.062 85.6581L294.357 130.865C296.368 132.024 297.447 133.664 297.318 135.367C297.205 136.881 296.153 138.288 294.357 139.331L177.902 206.605C176.949 207.153 175.841 207.575 174.607 207.855C173.488 208.113 172.316 208.242 171.121 208.242ZM209.241 85.0476C206.886 85.0476 204.6 85.5909 202.94 86.5483L86.4878 153.824C84.6643 154.876 83.7876 156.293 84.0834 157.711C84.2986 158.765 85.1296 159.739 86.4878 160.524L164.774 205.722C166.178 206.535 167.978 207.04 169.973 207.185C170.304 207.21 170.608 207.22 170.901 207.22C172.098 207.237 173.27 207.116 174.384 206.863C175.519 206.605 176.53 206.22 177.393 205.722L293.851 138.446C295.346 137.578 296.22 136.459 296.306 135.292C296.403 133.998 295.51 132.707 293.854 131.752L215.562 86.5483L215.505 86.5188C215.403 86.4623 215.298 86.4031 215.19 86.3493C213.832 85.6501 212.168 85.2171 210.366 85.0907L210.258 85.0799C209.973 85.0638 209.696 85.053 209.435 85.0503C209.368 85.0476 209.303 85.0476 209.241 85.0476Z" fill="#FFA412"/>
<path d="M150.989 157.912L129.979 170.049C128.769 170.749 125.507 170.614 124.108 169.807L106.802 159.813C105.054 158.802 104.908 157.643 106.423 156.769L126.876 144.954C128.008 144.301 131.058 144.427 132.365 145.183L150.723 155.782C151.947 156.487 152.049 157.299 150.989 157.912Z" fill="url(#paint3_linear)"/>
<path d="M146.03 157.829L129.611 167.314C128.664 167.86 126.114 167.755 125.023 167.123L111.497 159.316C110.131 158.528 110.018 157.619 111.202 156.936L127.188 147.7C128.072 147.189 130.455 147.289 131.477 147.878L145.825 156.161C146.78 156.713 146.858 157.35 146.03 157.829Z" fill="white"/>
<path d="M168.435 169.735L151.995 179.228C151.39 179.578 149.76 179.511 149.063 179.107L144.456 176.448C144.131 176.259 144.107 176.044 144.386 175.883L160.827 166.389C161.432 166.039 163.062 166.107 163.758 166.51L168.365 169.17C168.688 169.358 168.715 169.573 168.435 169.735Z" fill="url(#paint4_linear)"/>
<path d="M196.05 153.792L179.61 163.286C179.005 163.635 177.375 163.568 176.678 163.165L172.071 160.505C171.746 160.316 171.722 160.101 172.001 159.94L188.442 150.446C189.047 150.097 190.677 150.164 191.373 150.567L195.98 153.227C196.306 153.415 196.333 153.631 196.05 153.792Z" fill="white"/>
<path d="M223.668 137.846L207.228 147.34C206.623 147.69 204.993 147.622 204.296 147.219L199.689 144.559C199.364 144.371 199.34 144.156 199.619 143.994L216.06 134.501C216.665 134.151 218.295 134.218 218.991 134.622L223.598 137.282C223.921 137.47 223.948 137.685 223.668 137.846Z" fill="white"/>
<path d="M251.286 121.901L234.845 131.394C234.24 131.744 232.611 131.677 231.914 131.273L227.307 128.613C226.982 128.425 226.957 128.21 227.237 128.049L243.678 118.555C244.283 118.205 245.912 118.272 246.609 118.676L251.216 121.336C251.539 121.524 251.566 121.739 251.286 121.901Z" fill="white"/>
<path d="M201.51 147.98V154.809C201.51 154.811 201.51 154.811 201.51 154.811V155.755H201.472C201.314 157.724 200.652 159.685 199.493 161.564C199.358 161.785 199.216 162.006 199.065 162.223C197.661 164.267 195.655 166.206 193.044 167.949C192.904 168.043 192.761 168.135 192.619 168.229C192.202 168.495 191.771 168.759 191.322 169.017C189.84 169.872 188.256 170.636 186.594 171.306C186.452 171.362 186.309 171.419 186.169 171.472C184.252 172.223 182.232 172.849 180.148 173.35C180.005 173.387 179.863 173.419 179.723 173.452C177.762 173.906 175.745 174.253 173.698 174.493C173.556 174.511 173.413 174.528 173.274 174.541C171.283 174.761 169.269 174.88 167.252 174.896C167.109 174.899 166.967 174.899 166.827 174.899C164.81 174.901 162.796 174.805 160.803 174.606C160.66 174.595 160.518 174.579 160.378 174.562C158.334 174.347 156.317 174.022 154.356 173.592C154.214 173.559 154.071 173.53 153.931 173.497C151.85 173.021 149.83 172.427 147.907 171.712C147.764 171.658 147.622 171.607 147.482 171.55C145.591 170.827 143.797 169.982 142.13 169.02C141.901 168.888 141.678 168.756 141.458 168.622C141.312 168.533 141.173 168.447 141.033 168.358C138.491 166.752 136.482 164.967 135.008 163.073C134.858 162.885 134.718 162.697 134.583 162.506C133.032 160.346 132.166 158.06 131.98 155.758H131.942V147.98H134.008C134.188 147.692 134.379 147.407 134.583 147.125C134.721 146.931 134.86 146.743 135.008 146.555C135.549 145.858 136.165 145.178 136.851 144.513C137.692 143.701 138.639 142.916 139.699 142.166C140.454 141.628 141.264 141.106 142.13 140.606C155.717 132.761 177.749 132.761 191.336 140.606C192.202 141.106 193.011 141.625 193.767 142.166C194.824 142.916 195.773 143.701 196.615 144.513C197.581 145.447 198.404 146.415 199.084 147.407C199.216 147.598 199.342 147.789 199.461 147.98H201.51Z" fill="#FF9D4D"/>
<path d="M166.717 135.146C175.936 135.146 184.599 137.214 191.107 140.971C191.954 141.461 192.759 141.977 193.504 142.507C194.536 143.241 195.478 144.016 196.301 144.814C197.234 145.715 198.046 146.667 198.713 147.644C198.834 147.818 198.952 147.999 199.079 148.2L199.205 148.399H199.442H201.082V154.803V155.319H201.08L201.047 155.712C200.891 157.632 200.246 159.523 199.13 161.333C199.006 161.535 198.866 161.75 198.713 161.973C197.309 164.02 195.322 165.908 192.804 167.586C192.664 167.677 192.525 167.771 192.385 167.863C191.976 168.124 191.546 168.387 191.105 168.64C189.663 169.471 188.09 170.232 186.43 170.902C186.29 170.958 186.151 171.012 186.005 171.069C184.123 171.806 182.114 172.429 180.029 172.93C179.895 172.965 179.758 172.997 179.615 173.029C177.695 173.476 175.683 173.823 173.629 174.065C173.494 174.081 173.357 174.097 173.214 174.113C171.243 174.331 169.231 174.449 167.233 174.465C167.093 174.468 166.953 174.468 166.814 174.468H166.698C164.729 174.468 162.758 174.371 160.824 174.175C160.69 174.164 160.553 174.148 160.407 174.132C158.38 173.917 156.368 173.594 154.431 173.169C154.292 173.139 154.152 173.107 154.009 173.075C151.925 172.599 149.916 172.005 148.039 171.305L147.988 171.286C147.867 171.241 147.743 171.198 147.616 171.147C145.734 170.426 143.953 169.584 142.326 168.645C142.1 168.514 141.88 168.385 141.662 168.25C141.519 168.164 141.38 168.078 141.242 167.992C138.79 166.443 136.8 164.697 135.323 162.804C135.191 162.637 135.057 162.457 134.909 162.253C133.414 160.171 132.564 157.974 132.383 155.72L132.351 155.327H132.346V148.405H133.986H134.223L134.349 148.203C134.522 147.926 134.71 147.646 134.912 147.367C135.035 147.192 135.17 147.012 135.326 146.813C135.853 146.135 136.458 145.463 137.128 144.817C137.964 144.008 138.905 143.233 139.925 142.51C140.678 141.974 141.485 141.458 142.324 140.974C148.835 137.217 157.495 135.146 166.717 135.146ZM166.717 134.721C157.812 134.721 148.907 136.682 142.114 140.605C141.248 141.106 140.436 141.627 139.683 142.165C138.623 142.916 137.676 143.704 136.834 144.513C136.149 145.177 135.533 145.858 134.992 146.554C134.844 146.743 134.702 146.931 134.567 147.125C134.363 147.407 134.169 147.692 133.992 147.98H131.926V155.755H131.964C132.149 158.054 133.015 160.34 134.567 162.503C134.704 162.694 134.844 162.882 134.992 163.07C136.466 164.961 138.475 166.749 141.017 168.355C141.156 168.444 141.299 168.53 141.441 168.619C141.662 168.753 141.885 168.885 142.114 169.017C143.781 169.979 145.575 170.824 147.466 171.547C147.606 171.604 147.751 171.658 147.891 171.709C149.814 172.424 151.833 173.021 153.915 173.494C154.058 173.527 154.2 173.559 154.34 173.589C156.301 174.019 158.32 174.344 160.362 174.56C160.504 174.576 160.647 174.592 160.787 174.603C162.742 174.799 164.719 174.896 166.695 174.896C166.733 174.896 166.773 174.896 166.811 174.896C166.953 174.896 167.096 174.893 167.236 174.893C169.253 174.877 171.27 174.759 173.257 174.538C173.4 174.525 173.543 174.506 173.682 174.49C175.729 174.25 177.749 173.903 179.707 173.449C179.849 173.417 179.992 173.382 180.132 173.347C182.219 172.846 184.236 172.22 186.153 171.469C186.296 171.416 186.438 171.359 186.578 171.303C188.24 170.633 189.824 169.869 191.306 169.014C191.753 168.756 192.186 168.492 192.603 168.226C192.748 168.132 192.888 168.04 193.027 167.946C195.642 166.203 197.648 164.267 199.049 162.22C199.2 162.003 199.342 161.782 199.477 161.561C200.636 159.682 201.298 157.721 201.456 155.752H201.494V154.808C201.494 154.808 201.494 154.808 201.494 154.806V147.98H199.428C199.307 147.786 199.184 147.595 199.052 147.407C198.371 146.415 197.548 145.446 196.583 144.513C195.741 143.701 194.792 142.916 193.735 142.165C192.979 141.627 192.17 141.106 191.304 140.605C184.526 136.682 175.621 134.721 166.717 134.721Z" fill="#FFE840"/>
<path d="M166.717 167.852C185.932 167.852 201.51 158.859 201.51 147.765C201.51 136.671 185.932 127.677 166.717 127.677C147.501 127.677 131.924 136.671 131.924 147.765C131.924 158.859 147.501 167.852 166.717 167.852Z" fill="#FFE840"/>
<path d="M196.599 144.511C195.486 141.063 192.603 137.889 188.213 135.356C182.471 132.04 174.836 130.214 166.717 130.214C158.597 130.214 150.962 132.04 145.22 135.356C140.831 137.889 137.945 141.063 136.832 144.511C136.49 145.573 136.315 146.662 136.315 147.765C136.315 151.14 137.953 154.37 141.014 157.151C141.151 157.28 141.294 157.404 141.439 157.527C142.533 158.471 143.797 159.356 145.217 160.179C145.938 160.593 146.686 160.986 147.46 161.352C147.603 161.419 147.746 161.486 147.885 161.551C149.755 162.406 151.777 163.124 153.91 163.694C154.052 163.732 154.195 163.772 154.335 163.81C156.263 164.305 158.28 164.684 160.356 164.934C160.499 164.953 160.641 164.972 160.781 164.988C162.712 165.209 164.694 165.319 166.706 165.319H166.806C166.948 165.319 167.091 165.316 167.23 165.316C169.28 165.297 171.294 165.163 173.252 164.913C173.395 164.894 173.537 164.878 173.677 164.856C175.759 164.579 177.778 164.17 179.701 163.643C179.847 163.606 179.986 163.565 180.126 163.522C182.267 162.914 184.287 162.156 186.148 161.258C186.29 161.191 186.433 161.121 186.573 161.051C187.127 160.774 187.667 160.483 188.195 160.182C189.894 159.2 191.365 158.122 192.597 156.973C192.742 156.836 192.885 156.702 193.022 156.562C195.679 153.918 197.094 150.906 197.094 147.77C197.115 146.662 196.941 145.573 196.599 144.511ZM193.044 154.402C192.906 154.583 192.767 154.765 192.619 154.943C191.252 156.589 189.391 158.13 187.033 159.493C186.888 159.577 186.742 159.66 186.594 159.741C186.455 159.819 186.312 159.897 186.169 159.969C184.314 160.959 182.289 161.777 180.148 162.43C180.008 162.473 179.863 162.516 179.723 162.557C177.789 163.124 175.767 163.555 173.699 163.85C173.559 163.872 173.416 163.891 173.274 163.91C171.294 164.176 169.274 164.321 167.252 164.34C167.109 164.343 166.967 164.343 166.827 164.343C164.807 164.345 162.785 164.23 160.803 163.988C160.66 163.969 160.518 163.953 160.378 163.934C158.315 163.667 156.293 163.267 154.356 162.734C154.214 162.697 154.071 162.656 153.931 162.616C151.798 162.005 149.773 161.231 147.907 160.295C147.762 160.222 147.622 160.15 147.482 160.077C147.122 159.892 146.767 159.695 146.422 159.496C144.405 158.332 142.751 157.035 141.46 155.656C141.315 155.497 141.173 155.341 141.035 155.18C137.528 151.119 137.082 146.393 139.701 142.165C141.086 139.928 143.327 137.83 146.425 136.042C157.624 129.576 175.85 129.576 187.049 136.042C190.147 137.83 192.387 139.928 193.77 142.165C196.204 146.124 195.967 150.522 193.044 154.402Z" fill="#FF9D4D"/>
<path d="M167.83 144.933L171.106 146.823C171.03 146.858 170.958 146.899 170.888 146.939L169.089 147.977L166.028 146.21L167.039 145.626C167.4 145.417 167.663 145.185 167.83 144.933Z" fill="#D1975D"/>
<path d="M177.628 152.907L180.987 154.846L182.993 153.687L179.626 151.742C179.656 151.724 179.685 151.705 179.715 151.683C179.863 151.592 180.005 151.498 180.14 151.401C180.616 151.065 181.027 150.715 181.374 150.349C181.926 149.771 182.283 149.188 182.442 148.599C182.601 148.01 182.531 147.434 182.232 146.872C181.934 146.31 181.363 145.785 180.519 145.299C180.393 145.226 180.266 145.156 180.14 145.092C180 145.019 179.857 144.949 179.715 144.884C178.631 144.381 177.477 144.086 176.251 143.986C175.388 143.919 174.538 143.946 173.69 144.061C173.548 144.08 173.405 144.104 173.266 144.129C172.749 144.22 172.238 144.344 171.73 144.505C172.254 143.728 172.332 142.953 171.969 142.179C171.603 141.407 170.934 140.74 169.96 140.175C169.342 139.82 168.621 139.527 167.795 139.298C166.972 139.073 166.125 138.935 165.254 138.887C164.385 138.839 163.519 138.89 162.656 139.04C161.792 139.191 161.018 139.465 160.324 139.869L159.692 140.234L156.457 138.368L154.45 139.527L157.683 141.394L155.244 142.805L152.008 140.936L150.002 142.095L153.235 143.962L149.652 146.03L153.915 148.491L154.34 148.736L160.362 152.213L160.787 152.461L166.811 155.938L167.236 156.185L169.589 157.544L173.174 155.475L176.531 157.414L178.537 156.255L175.18 154.316L177.628 152.907ZM170.888 146.939C170.961 146.899 171.033 146.858 171.106 146.823C171.386 146.689 171.695 146.587 172.026 146.525C172.426 146.447 172.841 146.417 173.268 146.434C173.29 146.434 173.314 146.436 173.335 146.436C173.457 146.442 173.575 146.452 173.696 146.463C174.024 146.498 174.355 146.557 174.686 146.646C175.132 146.764 175.538 146.928 175.893 147.133C176.248 147.34 176.52 147.571 176.708 147.829C176.894 148.09 176.993 148.354 177.001 148.617C177.012 148.881 176.929 149.142 176.751 149.395C176.641 149.548 176.501 149.693 176.326 149.83C176.24 149.898 176.141 149.965 176.038 150.029C176.009 150.048 175.982 150.067 175.952 150.083L174.406 150.976L174.349 151.008L173.699 151.385L173.274 151.63L171.91 152.418L170.194 153.407L164.942 150.376L165.501 150.054L166.655 149.387L166.824 149.29L167.249 149.045L169.097 147.977L170.888 146.939ZM160.364 143.674L160.789 143.427L160.996 143.306L162.177 142.625C162.244 142.585 162.32 142.558 162.392 142.523C162.634 142.405 162.887 142.305 163.161 142.241C163.543 142.149 163.96 142.109 164.409 142.117C165.259 142.133 166.061 142.351 166.814 142.776C166.832 142.787 166.851 142.797 166.867 142.808C167.005 142.886 167.126 142.967 167.239 143.048C167.776 143.432 168.04 143.841 168.032 144.277C168.029 144.513 167.959 144.731 167.825 144.938C167.693 145.14 167.497 145.331 167.236 145.506C167.171 145.549 167.107 145.592 167.034 145.632L166.811 145.761L166.023 146.216L163.581 147.625L162.914 148.01L161.865 148.615L161.284 148.278L160.633 147.902L160.359 147.743L159.13 147.033L156.839 145.71L157.476 145.342L158.554 144.72L160.364 143.674Z" fill="#FF9D4D"/>
<path d="M135.899 156.904V163.945C135.748 163.756 135.608 163.568 135.474 163.377V156.333C135.608 156.524 135.751 156.715 135.899 156.904Z" fill="#FFE840"/>
<path d="M141.441 161.572V168.616C141.296 168.527 141.156 168.441 141.016 168.352V161.309C141.156 161.398 141.299 161.484 141.441 161.572Z" fill="#FFE840"/>
<path d="M147.891 164.663V171.706C147.748 171.653 147.606 171.602 147.466 171.545V164.501C147.606 164.558 147.748 164.612 147.891 164.663Z" fill="#FFE840"/>
<path d="M154.343 166.545V173.589C154.2 173.557 154.058 173.527 153.918 173.495V166.451C154.058 166.481 154.2 166.516 154.343 166.545Z" fill="#FFE840"/>
<path d="M160.792 167.559V174.603C160.649 174.592 160.507 174.576 160.367 174.56V167.516C160.507 167.532 160.649 167.548 160.792 167.559Z" fill="#FFE840"/>
<path d="M167.241 167.85V174.893C167.099 174.896 166.956 174.896 166.816 174.896V167.855C166.959 167.855 167.101 167.852 167.241 167.85Z" fill="#FFE840"/>
<path d="M173.69 167.446V174.49C173.548 174.509 173.405 174.525 173.265 174.538V167.495C173.408 167.481 173.548 167.465 173.69 167.446Z" fill="#FFE840"/>
<path d="M180.142 166.303V173.347C180 173.385 179.857 173.417 179.718 173.449V166.403C179.857 166.37 180 166.338 180.142 166.303Z" fill="#FFE840"/>
<path d="M186.592 164.259V171.303C186.449 171.359 186.307 171.416 186.167 171.47V164.426C186.307 164.372 186.449 164.316 186.592 164.259Z" fill="#FFE840"/>
<path d="M193.044 160.903V167.946C192.904 168.041 192.761 168.132 192.619 168.226V161.183C192.761 161.088 192.901 160.997 193.044 160.903Z" fill="#FFE840"/>
<path d="M198.764 155.225V162.269C198.629 162.489 198.487 162.71 198.336 162.928V155.884C198.484 155.664 198.627 155.446 198.764 155.225Z" fill="#FFE840"/>
<path d="M193.918 183.384L178.48 192.297C177.829 192.673 176.076 192.601 175.326 192.165L170.17 189.188C169.82 188.986 169.793 188.755 170.095 188.58L185.532 179.667C186.183 179.291 187.936 179.363 188.687 179.799L193.842 182.776C194.189 182.98 194.219 183.212 193.918 183.384Z" fill="url(#paint5_linear)"/>
<path d="M220.102 168.447L204.665 177.359C204.014 177.736 202.26 177.663 201.51 177.228L196.354 174.25C196.005 174.049 195.978 173.817 196.279 173.643L211.716 164.73C212.367 164.353 214.121 164.426 214.871 164.862L220.027 167.839C220.376 168.041 220.406 168.272 220.102 168.447Z" fill="url(#paint6_linear)"/>
<path d="M220.89 109.984L181.732 132.591C181.345 132.814 180.304 132.771 179.86 132.513L174.492 129.415C174.285 129.297 174.269 129.157 174.446 129.054L213.604 106.447C213.992 106.224 215.032 106.267 215.476 106.525L220.844 109.623C221.051 109.742 221.068 109.879 220.89 109.984Z" fill="white"/>
<path d="M260.22 123.003V129.832C260.22 129.835 260.22 129.835 260.22 129.835V130.778H260.182C260.024 132.747 259.362 134.708 258.203 136.588C258.069 136.808 257.926 137.029 257.775 137.247C256.372 139.291 254.365 141.23 251.754 142.972C251.614 143.067 251.471 143.158 251.329 143.252C250.912 143.518 250.482 143.782 250.033 144.04C248.551 144.895 246.967 145.659 245.305 146.329C245.162 146.385 245.019 146.442 244.88 146.496C242.962 147.246 240.942 147.873 238.858 148.373C238.715 148.41 238.573 148.443 238.433 148.475C236.472 148.929 234.455 149.276 232.409 149.516C232.266 149.535 232.124 149.551 231.984 149.564C229.994 149.785 227.979 149.903 225.962 149.919C225.82 149.922 225.677 149.922 225.537 149.922C223.52 149.925 221.506 149.828 219.513 149.629C219.37 149.618 219.228 149.602 219.088 149.586C217.044 149.371 215.027 149.045 213.066 148.615C212.924 148.583 212.781 148.553 212.641 148.521C210.56 148.045 208.54 147.45 206.617 146.735C206.475 146.681 206.332 146.63 206.192 146.574C204.301 145.85 202.508 145.006 200.84 144.043C200.612 143.911 200.388 143.779 200.168 143.645C200.023 143.556 199.883 143.47 199.743 143.381C197.201 141.776 195.192 139.99 193.719 138.096C193.568 137.908 193.428 137.72 193.294 137.529C191.742 135.369 190.876 133.083 190.69 130.781H190.653V123.006H192.718C192.898 122.718 193.089 122.433 193.294 122.151C193.431 121.957 193.571 121.769 193.719 121.581C194.259 120.884 194.875 120.204 195.561 119.539C196.403 118.727 197.349 117.942 198.409 117.191C199.165 116.654 199.974 116.132 200.84 115.632C214.427 107.787 236.459 107.787 250.046 115.632C250.912 116.132 251.722 116.651 252.477 117.191C253.534 117.942 254.484 118.727 255.325 119.539C256.291 120.473 257.114 121.441 257.792 122.433C257.923 122.624 258.05 122.815 258.168 123.006H260.22V123.003Z" fill="#FF9D4D"/>
<path d="M225.427 110.172C234.646 110.172 243.309 112.24 249.817 115.997C250.665 116.487 251.471 117.003 252.214 117.536C253.246 118.27 254.188 119.044 255.011 119.843C255.944 120.744 256.756 121.696 257.423 122.672C257.544 122.847 257.662 123.027 257.789 123.229L257.915 123.428H258.152H259.793V129.832V130.348H259.79L259.758 130.741C259.602 132.661 258.956 134.552 257.84 136.362C257.716 136.563 257.576 136.779 257.423 137.002C256.019 139.048 254.032 140.936 251.514 142.615C251.375 142.706 251.235 142.8 251.095 142.892C250.686 143.153 250.256 143.416 249.815 143.669C248.373 144.5 246.8 145.261 245.14 145.931C245.001 145.987 244.861 146.041 244.716 146.097C242.833 146.834 240.824 147.458 238.74 147.959C238.602 147.993 238.463 148.026 238.325 148.058C236.405 148.504 234.394 148.851 232.339 149.093C232.202 149.11 232.067 149.126 231.925 149.142C229.953 149.36 227.942 149.478 225.943 149.494C225.803 149.497 225.664 149.497 225.521 149.497H225.405C223.437 149.497 221.465 149.397 219.532 149.204C219.395 149.193 219.255 149.177 219.115 149.161C217.087 148.946 215.078 148.623 213.139 148.198C212.999 148.168 212.859 148.136 212.717 148.104C210.632 147.628 208.623 147.033 206.746 146.334L206.695 146.315C206.574 146.27 206.45 146.224 206.324 146.173C204.441 145.452 202.661 144.61 201.034 143.672C200.808 143.54 200.587 143.411 200.37 143.276C200.227 143.19 200.087 143.104 199.95 143.018C197.497 141.469 195.507 139.723 194.031 137.83C193.899 137.663 193.764 137.483 193.616 137.279C192.121 135.197 191.271 133 191.091 130.746L191.059 130.353H191.053V123.431H192.694H192.931L193.057 123.229C193.229 122.952 193.417 122.672 193.619 122.393C193.743 122.218 193.877 122.038 194.033 121.839C194.56 121.161 195.165 120.489 195.835 119.843C196.672 119.034 197.613 118.259 198.632 117.536C199.385 117 200.192 116.484 201.031 116C207.545 112.24 216.208 110.172 225.427 110.172ZM225.427 109.744C216.522 109.744 207.618 111.705 200.824 115.629C199.958 116.129 199.146 116.651 198.393 117.189C197.333 117.939 196.386 118.727 195.545 119.537C194.859 120.201 194.243 120.881 193.702 121.578C193.555 121.766 193.412 121.954 193.277 122.148C193.073 122.43 192.879 122.716 192.702 123.003H190.636V130.778H190.674C190.86 133.078 191.726 135.364 193.277 137.526C193.415 137.717 193.555 137.905 193.702 138.094C195.176 139.984 197.185 141.773 199.727 143.378C199.867 143.467 200.009 143.553 200.152 143.642C200.372 143.776 200.595 143.908 200.824 144.04C202.491 145.003 204.285 145.847 206.176 146.571C206.316 146.627 206.461 146.681 206.601 146.732C208.524 147.448 210.544 148.045 212.625 148.518C212.768 148.55 212.91 148.582 213.05 148.612C215.011 149.042 217.031 149.368 219.072 149.583C219.214 149.599 219.357 149.615 219.497 149.626C221.452 149.822 223.429 149.919 225.405 149.919C225.443 149.919 225.483 149.919 225.521 149.919C225.664 149.919 225.806 149.916 225.946 149.916C227.963 149.9 229.98 149.782 231.968 149.561C232.11 149.548 232.253 149.529 232.393 149.513C234.439 149.274 236.459 148.927 238.417 148.472C238.559 148.44 238.702 148.405 238.842 148.37C240.929 147.87 242.946 147.243 244.863 146.493C245.006 146.439 245.149 146.383 245.288 146.326C246.95 145.656 248.535 144.893 250.016 144.037C250.463 143.779 250.896 143.516 251.313 143.249C251.458 143.155 251.598 143.064 251.738 142.97C254.352 141.227 256.358 139.29 257.759 137.244C257.91 137.026 258.052 136.805 258.187 136.585C259.346 134.705 260.008 132.744 260.166 130.776H260.204V129.832C260.204 129.832 260.204 129.832 260.204 129.829V123.001H258.139C258.018 122.807 257.894 122.616 257.762 122.428C257.082 121.435 256.259 120.467 255.296 119.534C254.454 118.722 253.505 117.936 252.448 117.186C251.692 116.648 250.882 116.126 250.016 115.626C243.236 111.705 234.332 109.744 225.427 109.744Z" fill="#FFE840"/>
<path d="M225.427 142.878C244.643 142.878 260.22 133.885 260.22 122.791C260.22 111.697 244.643 102.704 225.427 102.704C206.211 102.704 190.634 111.697 190.634 122.791C190.634 133.885 206.211 142.878 225.427 142.878Z" fill="#FFE840"/>
<path d="M255.309 119.537C254.196 116.089 251.313 112.915 246.924 110.382C241.182 107.066 233.546 105.24 225.427 105.24C217.305 105.24 209.672 107.066 203.93 110.382C199.541 112.915 196.655 116.089 195.542 119.537C195.2 120.599 195.026 121.688 195.026 122.791C195.026 126.166 196.663 129.396 199.724 132.177C199.861 132.306 200.004 132.43 200.149 132.553C201.244 133.497 202.508 134.382 203.928 135.205C204.648 135.619 205.396 136.012 206.171 136.378C206.313 136.445 206.456 136.512 206.596 136.577C208.465 137.432 210.487 138.15 212.62 138.72C212.762 138.758 212.905 138.798 213.045 138.836C214.973 139.331 216.99 139.71 219.066 139.96C219.209 139.979 219.352 139.998 219.491 140.014C221.422 140.234 223.405 140.345 225.416 140.345H225.516C225.658 140.345 225.801 140.342 225.941 140.342C227.99 140.323 230.004 140.189 231.962 139.939C232.105 139.92 232.247 139.904 232.387 139.882C234.469 139.605 236.489 139.196 238.412 138.669C238.557 138.631 238.697 138.591 238.836 138.548C240.977 137.94 242.997 137.182 244.858 136.284C245.001 136.216 245.143 136.146 245.283 136.077C245.837 135.8 246.378 135.509 246.905 135.208C248.604 134.226 250.076 133.148 251.307 131.999C251.453 131.862 251.595 131.728 251.732 131.588C254.389 128.944 255.804 125.932 255.804 122.796C255.828 121.685 255.653 120.599 255.309 119.537ZM251.754 129.428C251.617 129.608 251.477 129.791 251.329 129.969C249.963 131.615 248.102 133.156 245.743 134.519C245.598 134.603 245.452 134.686 245.305 134.767C245.165 134.845 245.022 134.923 244.88 134.995C243.024 135.985 240.999 136.803 238.858 137.456C238.718 137.499 238.573 137.542 238.433 137.583C236.499 138.15 234.477 138.58 232.409 138.876C232.269 138.898 232.126 138.917 231.984 138.935C230.004 139.202 227.985 139.347 225.962 139.366C225.82 139.368 225.677 139.368 225.537 139.368C223.517 139.371 221.495 139.255 219.513 139.013C219.37 138.995 219.228 138.978 219.088 138.96C217.025 138.693 215.003 138.293 213.066 137.76C212.924 137.722 212.781 137.682 212.641 137.642C210.509 137.031 208.484 136.257 206.617 135.321C206.472 135.248 206.332 135.176 206.192 135.103C205.832 134.917 205.477 134.721 205.133 134.522C203.115 133.358 201.461 132.061 200.171 130.682C200.025 130.523 199.883 130.367 199.746 130.205C196.239 126.144 195.792 121.419 198.412 117.191C199.797 114.954 202.037 112.856 205.135 111.068C216.334 104.602 234.56 104.602 245.759 111.068C248.857 112.856 251.098 114.954 252.48 117.191C254.914 121.147 254.68 125.547 251.754 129.428Z" fill="#FF9D4D"/>
<path d="M226.54 119.956L229.816 121.847C229.741 121.882 229.668 121.922 229.598 121.963L227.799 123.001L224.739 121.234L225.75 120.65C226.113 120.443 226.376 120.212 226.54 119.956Z" fill="#D1975D"/>
<path d="M236.341 127.933L239.7 129.872L241.706 128.713L238.339 126.769C238.369 126.75 238.398 126.731 238.428 126.709C238.576 126.618 238.718 126.524 238.853 126.427C239.329 126.091 239.74 125.741 240.087 125.375C240.641 124.797 240.996 124.214 241.155 123.625C241.313 123.036 241.244 122.46 240.945 121.898C240.646 121.336 240.076 120.811 239.232 120.325C239.105 120.252 238.979 120.182 238.853 120.118C238.713 120.045 238.57 119.975 238.428 119.911C237.344 119.408 236.19 119.112 234.964 119.012C234.1 118.945 233.251 118.972 232.403 119.088C232.261 119.106 232.118 119.131 231.978 119.155C231.462 119.246 230.951 119.37 230.443 119.531C230.967 118.754 231.045 117.98 230.682 117.205C230.316 116.433 229.647 115.766 228.673 115.201C228.055 114.846 227.334 114.553 226.508 114.325C225.685 114.099 224.838 113.962 223.967 113.913C223.098 113.865 222.232 113.916 221.369 114.066C220.505 114.217 219.731 114.491 219.037 114.895L218.405 115.261L215.169 113.394L213.163 114.553L216.396 116.42L213.957 117.832L210.721 115.965L208.715 117.124L211.948 118.991L208.365 121.059L212.628 123.52L213.053 123.764L219.075 127.242L219.499 127.489L225.524 130.967L225.949 131.214L228.302 132.572L231.887 130.504L235.243 132.443L237.25 131.284L233.893 129.345L236.341 127.933ZM229.598 121.965C229.671 121.925 229.744 121.885 229.816 121.85C230.096 121.715 230.405 121.613 230.736 121.551C231.137 121.473 231.551 121.444 231.978 121.46C232 121.46 232.024 121.462 232.046 121.462C232.167 121.468 232.285 121.478 232.406 121.489C232.734 121.524 233.065 121.583 233.396 121.672C233.842 121.79 234.248 121.955 234.603 122.159C234.958 122.366 235.23 122.597 235.418 122.855C235.604 123.116 235.703 123.38 235.711 123.643C235.722 123.907 235.639 124.168 235.461 124.421C235.351 124.574 235.211 124.719 235.036 124.856C234.95 124.924 234.851 124.991 234.749 125.055C234.719 125.074 234.692 125.093 234.662 125.109L233.116 126.002L233.06 126.034L232.409 126.411L231.984 126.656L230.62 127.444L228.904 128.433L223.652 125.402L224.211 125.08L225.365 124.413L225.535 124.316L225.959 124.071L227.807 123.003L229.598 121.965ZM219.077 118.698L219.502 118.45L219.709 118.329L220.89 117.649C220.957 117.608 221.032 117.581 221.105 117.547C221.347 117.428 221.6 117.329 221.874 117.264C222.256 117.173 222.673 117.132 223.122 117.14C223.972 117.157 224.773 117.374 225.526 117.799C225.545 117.81 225.564 117.821 225.58 117.832C225.717 117.91 225.838 117.99 225.951 118.071C226.489 118.456 226.753 118.864 226.745 119.3C226.742 119.537 226.672 119.755 226.538 119.962C226.406 120.163 226.21 120.354 225.949 120.529C225.884 120.572 225.82 120.615 225.747 120.656L225.524 120.785L224.736 121.239L222.294 122.648L221.627 123.033L220.578 123.638L219.997 123.302L219.346 122.925L219.072 122.767L217.843 122.057L215.551 120.734L216.189 120.365L217.267 119.744L219.077 118.698Z" fill="#FF9D4D"/>
<path d="M194.611 131.927V138.968C194.461 138.779 194.321 138.591 194.187 138.4V131.356C194.321 131.547 194.464 131.738 194.611 131.927Z" fill="#FFE840"/>
<path d="M200.154 136.596V143.639C200.009 143.55 199.869 143.464 199.729 143.376V136.332C199.866 136.421 200.009 136.51 200.154 136.596Z" fill="#FFE840"/>
<path d="M206.604 139.686V146.729C206.461 146.675 206.319 146.624 206.179 146.568V139.524C206.316 139.581 206.461 139.634 206.604 139.686Z" fill="#FFE840"/>
<path d="M213.053 141.571V148.615C212.91 148.583 212.768 148.553 212.628 148.521V141.477C212.77 141.507 212.913 141.539 213.053 141.571Z" fill="#FFE840"/>
<path d="M219.502 142.585V149.628C219.36 149.618 219.217 149.602 219.077 149.585V142.542C219.22 142.558 219.36 142.571 219.502 142.585Z" fill="#FFE840"/>
<path d="M225.954 142.875V149.916C225.811 149.919 225.669 149.919 225.529 149.919V142.875C225.669 142.878 225.811 142.875 225.954 142.875Z" fill="#FFE840"/>
<path d="M232.403 142.472V149.516C232.261 149.534 232.118 149.551 231.979 149.564V142.52C232.118 142.507 232.261 142.488 232.403 142.472Z" fill="#FFE840"/>
<path d="M238.855 141.326V148.37C238.713 148.407 238.57 148.44 238.43 148.472V141.428C238.57 141.396 238.713 141.361 238.855 141.326Z" fill="#FFE840"/>
<path d="M245.305 139.285V146.329C245.162 146.385 245.019 146.441 244.88 146.495V139.452C245.019 139.395 245.162 139.341 245.305 139.285Z" fill="#FFE840"/>
<path d="M251.754 135.926V142.969C251.614 143.064 251.471 143.155 251.329 143.249V136.205C251.471 136.114 251.614 136.02 251.754 135.926Z" fill="#FFE840"/>
<path d="M257.477 130.249V137.292C257.342 137.513 257.2 137.733 257.049 137.951V130.907C257.197 130.69 257.34 130.469 257.477 130.249Z" fill="#FFE840"/>
<path d="M227.21 125.053V131.881C227.21 131.884 227.21 131.884 227.21 131.884V132.828H227.173C227.014 134.796 226.352 136.757 225.193 138.637C225.059 138.858 224.916 139.078 224.766 139.296C223.362 141.34 221.355 143.279 218.744 145.022C218.604 145.116 218.462 145.207 218.319 145.301C217.902 145.568 217.472 145.831 217.023 146.089C215.541 146.945 213.957 147.708 212.295 148.378C212.152 148.435 212.01 148.491 211.87 148.545C209.952 149.295 207.932 149.922 205.848 150.422C205.706 150.46 205.563 150.492 205.423 150.524C203.463 150.979 201.446 151.326 199.399 151.565C199.256 151.581 199.114 151.6 198.974 151.613C196.987 151.834 194.969 151.952 192.952 151.968C192.81 151.971 192.667 151.971 192.527 151.971C190.51 151.974 188.496 151.877 186.503 151.678C186.361 151.667 186.218 151.651 186.078 151.635C184.034 151.42 182.017 151.094 180.057 150.664C179.914 150.632 179.771 150.602 179.632 150.57C177.55 150.094 175.53 149.5 173.607 148.784C173.465 148.73 173.322 148.679 173.182 148.623C171.292 147.899 169.498 147.055 167.83 146.092C167.602 145.96 167.379 145.829 167.158 145.694C167.013 145.605 166.873 145.519 166.733 145.43C164.192 143.825 162.183 142.039 160.709 140.146C160.558 139.957 160.418 139.769 160.284 139.578C158.732 137.419 157.866 135.133 157.68 132.83H157.643V125.055H159.708C159.888 124.768 160.079 124.482 160.284 124.2C160.421 124.006 160.561 123.818 160.709 123.63C161.249 122.933 161.865 122.253 162.551 121.589C163.393 120.776 164.34 119.991 165.399 119.241C166.155 118.703 166.964 118.181 167.83 117.681C181.417 109.836 203.449 109.836 217.036 117.681C217.902 118.181 218.712 118.7 219.467 119.241C220.524 119.991 221.474 120.776 222.316 121.589C223.281 122.522 224.104 123.49 224.782 124.482C224.914 124.673 225.04 124.864 225.158 125.055H227.21V125.053Z" fill="#FF9D4D"/>
<path d="M192.417 112.221C201.637 112.221 210.299 114.289 216.808 118.047C217.655 118.536 218.462 119.052 219.204 119.585C220.237 120.319 221.178 121.094 222.001 121.893C222.934 122.793 223.746 123.746 224.413 124.722C224.534 124.897 224.653 125.077 224.779 125.279L224.906 125.478H225.142H226.783V131.881V132.397H226.78L226.748 132.79C226.592 134.71 225.946 136.601 224.83 138.411C224.706 138.613 224.567 138.828 224.413 139.051C223.009 141.098 221.022 142.986 218.505 144.664C218.365 144.755 218.225 144.85 218.085 144.941C217.676 145.202 217.246 145.465 216.805 145.718C215.363 146.549 213.79 147.31 212.131 147.98L212.115 147.985C211.98 148.039 211.843 148.093 211.706 148.147C209.823 148.884 207.814 149.508 205.73 150.008C205.59 150.043 205.453 150.075 205.316 150.107C203.395 150.554 201.386 150.901 199.334 151.14C199.197 151.156 199.057 151.175 198.915 151.188C196.944 151.406 194.932 151.525 192.934 151.541C192.794 151.544 192.654 151.544 192.511 151.544H192.393C190.427 151.544 188.453 151.444 186.522 151.25C186.385 151.24 186.245 151.223 186.105 151.207C184.077 150.992 182.068 150.669 180.129 150.245C179.989 150.215 179.849 150.183 179.707 150.15C177.623 149.674 175.614 149.08 173.736 148.381L173.691 148.365C173.567 148.319 173.443 148.273 173.314 148.222C171.432 147.501 169.651 146.659 168.024 145.721C167.798 145.589 167.578 145.46 167.36 145.326C167.217 145.239 167.077 145.153 166.94 145.067C164.487 143.518 162.497 141.773 161.021 139.879C160.889 139.713 160.755 139.533 160.607 139.328C159.111 137.246 158.261 135.049 158.081 132.795L158.049 132.403H158.044V125.48H159.684H159.921L160.047 125.279C160.219 125.002 160.408 124.722 160.609 124.442C160.733 124.267 160.867 124.087 161.023 123.888C161.551 123.21 162.156 122.538 162.825 121.893C163.662 121.083 164.603 120.308 165.622 119.585C166.375 119.05 167.182 118.533 168.021 118.049C174.535 114.289 183.195 112.221 192.417 112.221ZM192.417 111.794C183.512 111.794 174.608 113.754 167.814 117.678C166.948 118.178 166.136 118.7 165.383 119.238C164.323 119.988 163.377 120.776 162.535 121.586C161.849 122.25 161.233 122.931 160.693 123.627C160.545 123.815 160.402 124.004 160.268 124.197C160.063 124.48 159.87 124.765 159.692 125.053H157.627V132.828H157.664C157.85 135.127 158.716 137.416 160.268 139.576C160.405 139.766 160.545 139.955 160.693 140.143C162.166 142.034 164.175 143.822 166.717 145.428C166.857 145.516 166.999 145.603 167.142 145.691C167.362 145.826 167.586 145.958 167.814 146.089C169.482 147.052 171.276 147.897 173.166 148.62C173.306 148.677 173.451 148.73 173.591 148.781C175.514 149.497 177.534 150.094 179.615 150.567C179.758 150.6 179.901 150.632 180.04 150.661C182.001 151.092 184.021 151.417 186.062 151.632C186.205 151.648 186.347 151.665 186.487 151.675C188.44 151.872 190.416 151.968 192.393 151.968C192.433 151.968 192.471 151.968 192.511 151.968C192.654 151.968 192.796 151.966 192.936 151.966C194.953 151.95 196.97 151.831 198.958 151.611C199.1 151.597 199.243 151.578 199.383 151.562C201.429 151.323 203.449 150.976 205.407 150.522C205.55 150.489 205.692 150.454 205.832 150.419C207.919 149.919 209.936 149.292 211.854 148.542C211.996 148.488 212.139 148.432 212.279 148.375C213.941 147.706 215.525 146.942 217.007 146.087C217.453 145.828 217.886 145.565 218.303 145.299C218.448 145.205 218.588 145.113 218.728 145.019C221.342 143.276 223.348 141.34 224.75 139.293C224.9 139.075 225.043 138.855 225.177 138.634C226.336 136.754 226.998 134.794 227.157 132.825H227.194V131.881C227.194 131.881 227.194 131.881 227.194 131.878V125.05H225.129C225.008 124.856 224.884 124.665 224.752 124.477C224.072 123.485 223.249 122.516 222.283 121.583C221.442 120.771 220.492 119.986 219.435 119.235C218.679 118.697 217.87 118.176 217.004 117.675C210.227 113.757 201.322 111.794 192.417 111.794Z" fill="#FFE840"/>
<path d="M192.417 144.927C211.633 144.927 227.21 135.934 227.21 124.84C227.21 113.746 211.633 104.753 192.417 104.753C173.201 104.753 157.624 113.746 157.624 124.84C157.624 135.934 173.201 144.927 192.417 144.927Z" fill="#FFE840"/>
<path d="M222.299 121.586C221.186 118.138 218.303 114.964 213.914 112.431C208.172 109.115 200.536 107.289 192.417 107.289C184.295 107.289 176.662 109.115 170.92 112.431C166.531 114.964 163.645 118.138 162.532 121.586C162.19 122.648 162.016 123.737 162.016 124.84C162.016 128.215 163.653 131.445 166.714 134.226C166.851 134.355 166.994 134.479 167.139 134.603C168.234 135.547 169.498 136.432 170.918 137.254C171.638 137.669 172.386 138.061 173.161 138.427C173.303 138.494 173.446 138.562 173.586 138.626C175.455 139.481 177.477 140.199 179.61 140.77C179.752 140.807 179.895 140.848 180.035 140.885C181.963 141.38 183.98 141.759 186.056 142.009C186.199 142.028 186.342 142.047 186.481 142.063C188.412 142.284 190.395 142.394 192.406 142.394H192.506C192.648 142.394 192.791 142.391 192.931 142.391C194.98 142.372 196.994 142.238 198.952 141.988C199.095 141.969 199.237 141.953 199.377 141.931C201.459 141.654 203.479 141.246 205.402 140.718C205.547 140.681 205.687 140.64 205.826 140.597C207.967 139.99 209.987 139.231 211.848 138.333C211.991 138.266 212.133 138.196 212.273 138.126C212.827 137.849 213.368 137.558 213.895 137.257C215.594 136.276 217.066 135.197 218.297 134.049C218.443 133.912 218.585 133.777 218.722 133.637C221.379 130.993 222.794 127.981 222.794 124.845C222.816 123.737 222.641 122.648 222.299 121.586ZM218.744 131.478C218.607 131.658 218.467 131.841 218.319 132.018C216.953 133.664 215.092 135.205 212.733 136.569C212.588 136.652 212.442 136.735 212.295 136.816C212.155 136.894 212.012 136.972 211.87 137.045C210.014 138.034 207.989 138.852 205.848 139.506C205.708 139.549 205.563 139.592 205.423 139.632C203.489 140.199 201.467 140.63 199.399 140.926C199.259 140.947 199.116 140.966 198.974 140.985C196.994 141.251 194.975 141.396 192.952 141.415C192.81 141.418 192.667 141.418 192.527 141.418C190.507 141.42 188.485 141.305 186.503 141.063C186.36 141.044 186.218 141.028 186.078 141.009C184.015 140.743 181.993 140.342 180.056 139.809C179.914 139.772 179.771 139.731 179.631 139.691C177.499 139.081 175.474 138.306 173.607 137.37C173.462 137.298 173.322 137.225 173.182 137.152C172.822 136.967 172.467 136.77 172.123 136.571C170.105 135.407 168.451 134.111 167.161 132.731C167.015 132.572 166.873 132.416 166.736 132.255C163.229 128.194 162.782 123.468 165.402 119.241C166.787 117.003 169.027 114.905 172.125 113.117C183.324 106.651 201.55 106.651 212.749 113.117C215.847 114.905 218.088 117.003 219.47 119.241C221.904 123.199 221.667 127.597 218.744 131.478Z" fill="#FF9D4D"/>
<path d="M193.531 122.008L196.806 123.898C196.731 123.933 196.659 123.974 196.589 124.014L194.789 125.052L191.729 123.285L192.74 122.702C193.103 122.492 193.364 122.261 193.531 122.008Z" fill="#D1975D"/>
<path d="M203.328 129.982L206.687 131.921L208.694 130.762L205.326 128.818C205.356 128.799 205.386 128.78 205.415 128.758C205.563 128.667 205.706 128.573 205.84 128.476C206.316 128.14 206.728 127.79 207.075 127.425C207.626 126.846 207.984 126.263 208.142 125.674C208.301 125.085 208.231 124.509 207.933 123.947C207.634 123.385 207.064 122.861 206.219 122.374C206.093 122.301 205.967 122.231 205.84 122.167C205.7 122.094 205.558 122.024 205.415 121.96C204.331 121.457 203.178 121.161 201.951 121.061C201.088 120.994 200.238 121.021 199.391 121.137C199.248 121.155 199.106 121.18 198.966 121.204C198.45 121.295 197.939 121.419 197.43 121.58C197.955 120.803 198.033 120.029 197.67 119.254C197.304 118.482 196.634 117.815 195.661 117.25C195.042 116.895 194.321 116.602 193.496 116.374C192.673 116.148 191.826 116.011 190.954 115.962C190.085 115.914 189.219 115.965 188.356 116.115C187.493 116.266 186.718 116.54 186.024 116.944L185.392 117.31L182.157 115.443L180.151 116.602L183.383 118.469L180.944 119.881L177.709 118.014L175.702 119.173L178.935 121.04L175.353 123.108L179.616 125.569L180.04 125.814L186.062 129.291L186.487 129.538L192.511 133.016L192.936 133.263L195.29 134.621L198.875 132.553L202.231 134.492L204.237 133.333L200.881 131.394L203.328 129.982ZM196.589 124.014C196.661 123.974 196.734 123.934 196.806 123.899C197.086 123.764 197.395 123.662 197.726 123.6C198.127 123.522 198.541 123.493 198.969 123.509C198.99 123.509 199.014 123.511 199.036 123.511C199.157 123.517 199.275 123.528 199.396 123.538C199.724 123.573 200.055 123.632 200.386 123.721C200.832 123.84 201.239 124.004 201.594 124.208C201.949 124.415 202.22 124.646 202.408 124.905C202.594 125.165 202.694 125.429 202.702 125.693C202.712 125.956 202.629 126.217 202.451 126.47C202.341 126.623 202.201 126.768 202.027 126.905C201.94 126.973 201.841 127.04 201.739 127.104C201.709 127.123 201.682 127.142 201.653 127.158L200.106 128.051L200.05 128.083L199.399 128.46L198.974 128.705L197.611 129.493L195.895 130.482L190.642 127.451L191.202 127.129L192.355 126.462L192.525 126.365L192.95 126.12L194.797 125.052L196.589 124.014ZM186.065 120.749L186.49 120.502L186.697 120.381L187.877 119.7C187.945 119.66 188.02 119.633 188.093 119.598C188.335 119.48 188.587 119.38 188.864 119.316C189.246 119.224 189.663 119.184 190.112 119.192C190.962 119.208 191.764 119.426 192.517 119.851C192.536 119.862 192.554 119.873 192.571 119.883C192.708 119.961 192.829 120.042 192.942 120.123C193.48 120.507 193.743 120.916 193.735 121.352C193.732 121.588 193.662 121.806 193.528 122.013C193.396 122.215 193.2 122.406 192.939 122.581C192.874 122.624 192.81 122.667 192.737 122.707L192.514 122.836L191.726 123.291L189.284 124.7L188.617 125.085L187.568 125.69L186.987 125.354L186.336 124.977L186.062 124.818L184.833 124.108L182.542 122.785L183.179 122.417L184.257 121.796L186.065 120.749Z" fill="#FF9D4D"/>
<path d="M161.599 133.979V141.02C161.448 140.832 161.308 140.643 161.174 140.452V133.409C161.308 133.6 161.451 133.791 161.599 133.979Z" fill="#FFE840"/>
<path d="M167.142 138.648V145.691C166.996 145.602 166.857 145.516 166.717 145.428V138.384C166.857 138.473 166.999 138.559 167.142 138.648Z" fill="#FFE840"/>
<path d="M173.591 141.738V148.782C173.448 148.728 173.306 148.677 173.166 148.62V141.577C173.306 141.633 173.448 141.687 173.591 141.738Z" fill="#FFE840"/>
<path d="M180.043 143.62V150.664C179.9 150.632 179.758 150.602 179.618 150.57V143.526C179.758 143.556 179.9 143.591 180.043 143.62Z" fill="#FFE840"/>
<path d="M186.492 144.634V151.678C186.35 151.667 186.207 151.651 186.067 151.635V144.591C186.207 144.607 186.35 144.624 186.492 144.634Z" fill="#FFE840"/>
<path d="M192.941 144.925V151.968C192.799 151.971 192.656 151.971 192.516 151.971V144.927C192.659 144.927 192.801 144.927 192.941 144.925Z" fill="#FFE840"/>
<path d="M199.391 144.521V151.565C199.248 151.581 199.105 151.6 198.966 151.614V144.57C199.108 144.556 199.251 144.54 199.391 144.521Z" fill="#FFE840"/>
<path d="M205.842 143.378V150.422C205.7 150.46 205.557 150.492 205.417 150.524V143.481C205.557 143.446 205.7 143.413 205.842 143.378Z" fill="#FFE840"/>
<path d="M212.292 141.334V148.378C212.149 148.435 212.007 148.491 211.867 148.545V141.499C212.007 141.447 212.149 141.391 212.292 141.334Z" fill="#FFE840"/>
<path d="M218.744 137.978V145.022C218.604 145.116 218.461 145.207 218.319 145.302V138.258C218.461 138.164 218.604 138.07 218.744 137.978Z" fill="#FFE840"/>
<path d="M224.464 132.301V139.344C224.33 139.565 224.187 139.785 224.036 140.003V132.959C224.187 132.739 224.327 132.518 224.464 132.301Z" fill="#FFE840"/>
</g>
<path d="M152.25 270.139H147.129V284.025H143.016V270.139H137.988V266.963H152.25V270.139ZM160.336 278.002H158.109V284.025H153.996V266.963H160.711C162.734 266.963 164.316 267.412 165.457 268.311C166.598 269.209 167.168 270.479 167.168 272.119C167.168 273.307 166.926 274.291 166.441 275.072C165.965 275.854 165.215 276.486 164.191 276.971L167.754 283.85V284.025H163.348L160.336 278.002ZM158.109 274.826H160.711C161.492 274.826 162.078 274.623 162.469 274.217C162.867 273.803 163.066 273.229 163.066 272.494C163.066 271.76 162.867 271.186 162.469 270.771C162.07 270.35 161.484 270.139 160.711 270.139H158.109V274.826ZM183.035 266.963V278.131C183.035 279.396 182.766 280.494 182.227 281.424C181.688 282.346 180.914 283.049 179.906 283.533C178.898 284.018 177.707 284.26 176.332 284.26C174.254 284.26 172.617 283.721 171.422 282.643C170.227 281.564 169.617 280.088 169.594 278.213V266.963H173.73V278.295C173.777 280.162 174.645 281.096 176.332 281.096C177.184 281.096 177.828 280.861 178.266 280.393C178.703 279.924 178.922 279.162 178.922 278.107V266.963H183.035ZM194.414 279.49C194.414 278.889 194.199 278.42 193.77 278.084C193.348 277.748 192.602 277.4 191.531 277.041C190.461 276.682 189.586 276.334 188.906 275.998C186.695 274.912 185.59 273.42 185.59 271.521C185.59 270.576 185.863 269.744 186.41 269.025C186.965 268.299 187.746 267.736 188.754 267.338C189.762 266.932 190.895 266.729 192.152 266.729C193.379 266.729 194.477 266.947 195.445 267.385C196.422 267.822 197.18 268.447 197.719 269.26C198.258 270.064 198.527 270.986 198.527 272.025H194.426C194.426 271.33 194.211 270.791 193.781 270.408C193.359 270.025 192.785 269.834 192.059 269.834C191.324 269.834 190.742 269.998 190.312 270.326C189.891 270.646 189.68 271.057 189.68 271.557C189.68 271.994 189.914 272.393 190.383 272.752C190.852 273.104 191.676 273.471 192.855 273.854C194.035 274.229 195.004 274.635 195.762 275.072C197.605 276.135 198.527 277.6 198.527 279.467C198.527 280.959 197.965 282.131 196.84 282.982C195.715 283.834 194.172 284.26 192.211 284.26C190.828 284.26 189.574 284.014 188.449 283.521C187.332 283.021 186.488 282.342 185.918 281.482C185.355 280.615 185.074 279.619 185.074 278.494H189.199C189.199 279.408 189.434 280.084 189.902 280.521C190.379 280.951 191.148 281.166 192.211 281.166C192.891 281.166 193.426 281.021 193.816 280.732C194.215 280.436 194.414 280.021 194.414 279.49ZM214.031 270.139H208.91V284.025H204.797V270.139H199.77V266.963H214.031V270.139ZM226.359 276.795H219.891V280.861H227.531V284.025H215.777V266.963H227.555V270.139H219.891V273.736H226.359V276.795ZM229.207 284.025V266.963H234.703C236.211 266.963 237.566 267.307 238.77 267.994C239.973 268.674 240.91 269.639 241.582 270.889C242.262 272.131 242.605 273.525 242.613 275.072V275.857C242.613 277.42 242.281 278.822 241.617 280.064C240.961 281.299 240.031 282.268 238.828 282.971C237.633 283.666 236.297 284.018 234.82 284.025H229.207ZM233.32 270.139V280.861H234.75C235.93 280.861 236.836 280.443 237.469 279.607C238.102 278.764 238.418 277.514 238.418 275.857V275.119C238.418 273.471 238.102 272.229 237.469 271.393C236.836 270.557 235.914 270.139 234.703 270.139H233.32ZM148.336 309.916C147.703 310.619 146.777 311.186 145.559 311.615C144.34 312.045 143.004 312.26 141.551 312.26C139.316 312.26 137.531 311.576 136.195 310.209C134.859 308.842 134.145 306.939 134.051 304.502L134.039 303.025C134.039 301.346 134.336 299.881 134.93 298.631C135.523 297.373 136.371 296.408 137.473 295.736C138.582 295.057 139.863 294.717 141.316 294.717C143.441 294.717 145.09 295.205 146.262 296.182C147.441 297.15 148.129 298.6 148.324 300.529H144.363C144.223 299.576 143.918 298.896 143.449 298.49C142.98 298.084 142.316 297.881 141.457 297.881C140.426 297.881 139.629 298.318 139.066 299.193C138.504 300.068 138.219 301.318 138.211 302.943V303.975C138.211 305.678 138.5 306.959 139.078 307.818C139.664 308.67 140.582 309.096 141.832 309.096C142.902 309.096 143.699 308.857 144.223 308.381V305.732H141.363V302.908H148.336V309.916ZM154.84 308.861H162V312.025H150.727V294.963H154.84V308.861ZM177.434 303.846C177.434 305.51 177.125 306.982 176.508 308.264C175.891 309.545 175.012 310.533 173.871 311.229C172.738 311.916 171.445 312.26 169.992 312.26C168.539 312.26 167.25 311.928 166.125 311.264C165 310.592 164.121 309.635 163.488 308.393C162.863 307.15 162.535 305.725 162.504 304.115V303.154C162.504 301.482 162.809 300.01 163.418 298.736C164.035 297.455 164.914 296.467 166.055 295.771C167.203 295.076 168.508 294.729 169.969 294.729C171.414 294.729 172.703 295.072 173.836 295.76C174.969 296.447 175.848 297.428 176.473 298.701C177.105 299.967 177.426 301.42 177.434 303.061V303.846ZM173.25 303.131C173.25 301.436 172.965 300.15 172.395 299.275C171.832 298.393 171.023 297.951 169.969 297.951C167.906 297.951 166.816 299.498 166.699 302.592L166.688 303.846C166.688 305.518 166.965 306.803 167.52 307.701C168.074 308.6 168.898 309.049 169.992 309.049C171.031 309.049 171.832 308.607 172.395 307.725C172.957 306.842 173.242 305.572 173.25 303.916V303.131ZM179.555 312.025V294.963H185.684C187.879 294.963 189.547 295.365 190.688 296.17C191.836 296.975 192.41 298.143 192.41 299.674C192.41 300.557 192.207 301.311 191.801 301.936C191.395 302.561 190.797 303.021 190.008 303.318C190.898 303.553 191.582 303.99 192.059 304.631C192.535 305.271 192.773 306.053 192.773 306.975C192.773 308.646 192.242 309.904 191.18 310.748C190.125 311.584 188.559 312.01 186.48 312.025H179.555ZM183.668 304.771V308.861H186.363C187.105 308.861 187.676 308.693 188.074 308.357C188.473 308.014 188.672 307.533 188.672 306.916C188.672 305.494 187.965 304.779 186.551 304.771H183.668ZM183.668 302.076H185.812C186.711 302.068 187.352 301.904 187.734 301.584C188.117 301.264 188.309 300.791 188.309 300.166C188.309 299.447 188.102 298.932 187.688 298.619C187.273 298.299 186.605 298.139 185.684 298.139H183.668V302.076ZM204.738 308.838H199.102L198.117 312.025H193.723L199.98 294.963H203.848L210.152 312.025H205.734L204.738 308.838ZM200.086 305.662H203.754L201.914 299.744L200.086 305.662ZM215.52 308.861H222.68V312.025H211.406V294.963H215.52V308.861ZM228.527 308.861H235.688V312.025H224.414V294.963H228.527V308.861ZM240.387 302.369L243.527 294.963H247.969L242.473 305.896V312.025H238.301V305.896L232.816 294.963H237.234L240.387 302.369Z" fill="white"/>
<defs>
<filter id="filter0_b" x="18.1599" y="-6.76735" width="344.68" height="394.586" filterUnits="userSpaceOnUse" color-interpolation-filters="sRGB">
<feFlood flood-opacity="0" result="BackgroundImageFix"/>
<feGaussianBlur in="BackgroundImage" stdDeviation="3.68116"/>
<feComposite in2="SourceAlpha" operator="in" result="effect1_backgroundBlur"/>
<feBlend mode="normal" in="SourceGraphic" in2="effect1_backgroundBlur" result="shape"/>
</filter>
<linearGradient id="paint0_linear" x1="170.897" y1="174.099" x2="296.822" y2="174.099" gradientUnits="userSpaceOnUse">
<stop stop-color="#DA9022"/>
<stop offset="1" stop-color="#FFC85C"/>
</linearGradient>
<linearGradient id="paint1_linear" x1="83.5141" y1="151.277" x2="296.81" y2="151.277" gradientUnits="userSpaceOnUse">
<stop stop-color="#DA9022"/>
<stop offset="1" stop-color="#FFC85C"/>
</linearGradient>
<linearGradient id="paint2_linear" x1="83.5123" y1="146.136" x2="296.823" y2="146.136" gradientUnits="userSpaceOnUse">
<stop stop-color="#EB9310"/>
<stop offset="1" stop-color="#FFE711"/>
</linearGradient>
<linearGradient id="paint3_linear" x1="105.381" y1="157.517" x2="151.718" y2="157.517" gradientUnits="userSpaceOnUse">
<stop stop-color="#FFE840"/>
<stop offset="1" stop-color="#FFE711"/>
</linearGradient>
<linearGradient id="paint4_linear" x1="144.193" y1="172.809" x2="168.628" y2="172.809" gradientUnits="userSpaceOnUse">
<stop stop-color="#FFE840"/>
<stop offset="1" stop-color="#FFE711"/>
</linearGradient>
<linearGradient id="paint5_linear" x1="169.887" y1="185.982" x2="194.125" y2="185.982" gradientUnits="userSpaceOnUse">
<stop stop-color="#FFE840"/>
<stop offset="1" stop-color="#FFE711"/>
</linearGradient>
<linearGradient id="paint6_linear" x1="196.071" y1="171.045" x2="220.311" y2="171.045" gradientUnits="userSpaceOnUse">
<stop stop-color="#FFE840"/>
<stop offset="1" stop-color="#FFE711"/>
</linearGradient>
<clipPath id="clip0">
<rect width="214.367" height="137.75" fill="white" transform="translate(83 84.0254)"/>
</clipPath>
</defs>
</svg>
