<svg width="155" height="182" viewBox="0 0 155 182" fill="none" xmlns="http://www.w3.org/2000/svg">
<g clip-path="url(#clip0)">
<g filter="url(#filter0_f)">
<path d="M111.989 117.771L77.0321 97.5864L42.0748 117.771H0.414551L4.50281 139.461L77.0321 181.335L148.725 139.945L153.648 117.771H111.989Z" fill="#1F1C04"/>
</g>
<path d="M149.286 40.3365L82.947 2.04001C79.2833 -0.0745348 74.7705 -0.0745348 71.1088 2.04001L4.7782 40.3365C2.09012 41.8878 0.434814 44.7555 0.434814 47.8599L4.10873 49.307L4.87005 45.4045L73.3193 86.8259L73.6091 93.2675L79.7609 92.7614L81.208 87.0076L149.194 45.4045L149.955 49.307L153.629 47.8599C153.629 44.7555 151.974 41.8878 149.286 40.3365Z" fill="url(#paint0_linear)"/>
<path d="M73.1947 93.7362L72.8947 87.0782L5.00674 46.9651L4.4332 49.9022L0 48.153V47.8571C0 44.6097 1.74715 41.5828 4.55974 39.9581L70.8903 1.66366C74.6765 -0.522326 79.3791 -0.522326 83.1633 1.66366L149.502 39.9602C152.315 41.5849 154.062 44.6118 154.062 47.8591V48.1551L149.629 49.9022L148.886 46.1018L81.5855 87.2844L80.1057 93.1688L73.1947 93.7362ZM4.39033 45.5915L73.7417 86.572L74.0213 92.7993L79.4159 92.3544L80.8303 86.7292L80.9814 86.6374L149.5 44.7098L150.282 48.7123L153.19 47.5672C153.088 44.7404 151.529 42.1339 149.069 40.7154L82.7285 2.41681C79.2118 0.385949 74.8418 0.385949 71.323 2.41681L4.99449 40.7113C2.535 42.1319 0.97563 44.7383 0.873577 47.5632L3.78006 48.7082L4.39033 45.5915Z" fill="url(#paint1_linear)"/>
<path d="M149.306 45.3514L80.9855 84.797C78.5505 86.2033 77.0523 88.7995 77.0523 91.6101V152.081L69.2595 159.178L72.4109 160.745C75.3256 162.196 78.7484 162.215 81.6815 160.798L83.1612 160.082C83.3633 160 83.5654 159.904 83.7613 159.792L152.202 120.277C153.098 119.76 153.649 118.803 153.649 117.77V47.8578C153.647 45.6289 151.235 44.2369 149.306 45.3514Z" fill="url(#paint2_linear)"/>
<path d="M77.0993 162.274C75.4216 162.274 73.7418 161.894 72.2171 161.135L68.4983 159.284L76.6177 151.889V91.6103C76.6177 88.6548 78.2076 85.8994 80.7692 84.4217L149.09 44.976L149.306 45.3516L149.09 44.976C150.133 44.3739 151.376 44.3739 152.419 44.976C153.462 45.5781 154.084 46.6558 154.084 47.86V117.771C154.084 118.957 153.447 120.061 152.419 120.655L83.9777 160.168C83.7757 160.284 83.5593 160.39 83.3348 160.48L81.8693 161.19C80.3732 161.913 78.7363 162.274 77.0993 162.274ZM70.0209 159.072L72.6029 160.358C75.3767 161.739 78.6995 161.758 81.4897 160.409L82.998 159.68C83.1878 159.604 83.3715 159.517 83.543 159.417L151.984 119.902C152.743 119.463 153.215 118.646 153.215 117.771V47.858C153.215 46.9681 152.756 46.1721 151.984 45.7271C151.215 45.2822 150.294 45.2822 149.523 45.7271L81.2019 85.1728C78.9098 86.4954 77.4851 88.963 77.4851 91.6103V152.273L70.0209 159.072Z" fill="url(#paint3_linear)"/>
<path d="M70.323 159.792L1.88193 120.277C0.985903 119.761 0.434814 118.804 0.434814 117.771V47.8581C0.434814 45.6292 2.84736 44.2352 4.7782 45.3496L73.0988 84.7952C75.5338 86.2015 77.032 88.7978 77.032 91.6083V155.916C77.032 159.362 73.305 161.513 70.323 159.792Z" fill="url(#paint4_linear)"/>
<path d="M72.5599 160.833C71.717 160.833 70.874 160.61 70.1066 160.168L1.66551 120.652C0.638854 120.061 0 118.956 0 117.768V47.8578C0 46.6536 0.622525 45.5759 1.66551 44.9738C2.7085 44.3717 3.95151 44.3717 4.99449 44.9738L73.3151 84.4195C75.8746 85.8972 77.4667 88.6526 77.4667 91.6081V155.916C77.4667 157.69 76.5502 159.278 75.0133 160.165C74.2438 160.61 73.4008 160.833 72.5599 160.833ZM70.5393 159.414C71.8047 160.145 73.3131 160.145 74.5785 159.414C75.842 158.684 76.5972 157.377 76.5972 155.918V91.6101C76.5972 88.9629 75.1725 86.4973 72.8804 85.1726L4.55974 45.727C3.79026 45.282 2.86974 45.282 2.09822 45.727C1.32669 46.1719 0.867453 46.9679 0.867453 47.8578V117.768C0.867453 118.644 1.33894 119.463 2.09822 119.899L70.5393 159.414Z" fill="url(#paint5_linear)"/>
<path d="M65.0346 93.0168V148.432L9.61963 116.438V61.021L13.4772 63.2498L65.0346 93.0168Z" fill="url(#paint6_linear)"/>
<path d="M65.0346 93.0167V144.074L13.4773 114.307V63.2498L65.0346 93.0167Z" fill="url(#paint7_linear)"/>
<path d="M9.21848 55.6831C9.71848 55.307 9.58495 54.2857 8.92023 53.402C8.25552 52.5182 7.31133 52.1066 6.81133 52.4827C6.31133 52.8587 6.44486 53.88 7.10958 54.7638C7.7743 55.6476 8.71848 56.0592 9.21848 55.6831Z" fill="url(#paint8_linear)"/>
<path d="M9.52165 54.9505C9.52165 55.7833 8.8481 56.067 8.01534 55.5873C7.18259 55.1077 6.50903 54.0443 6.50903 53.2115C6.50903 52.3788 7.18259 52.0951 8.01534 52.5747C8.8481 53.0544 9.52165 54.1198 9.52165 54.9505Z" fill="url(#paint9_linear)"/>
<path d="M24.7116 63.7843C24.7116 64.617 24.038 64.9007 23.2053 64.4211C22.3725 63.9414 21.699 62.878 21.699 62.0453C21.699 61.2125 22.3725 60.9288 23.2053 61.4085C24.038 61.8881 24.7116 62.9515 24.7116 63.7843Z" fill="url(#paint10_linear)"/>
<path d="M39.903 72.616C39.903 73.4488 39.2294 73.7325 38.3967 73.2529C37.5639 72.7732 36.8904 71.7098 36.8904 70.8771C36.8904 70.0443 37.5639 69.7606 38.3967 70.2402C39.2294 70.7219 39.903 71.7853 39.903 72.616Z" fill="url(#paint11_linear)"/>
<path d="M55.0927 81.4495C55.0927 82.2823 54.4191 82.566 53.5864 82.0864C52.7536 81.6067 52.0801 80.5433 52.0801 79.7106C52.0801 78.8778 52.7536 78.5941 53.5864 79.0737C54.4191 79.5534 55.0927 80.6168 55.0927 81.4495Z" fill="url(#paint12_linear)"/>
<path d="M70.2846 90.2811C70.2846 91.1138 69.611 91.3976 68.7783 90.9179C67.9455 90.4383 67.272 89.3749 67.272 88.5421C67.272 87.7093 67.9455 87.4256 68.7783 87.9053C69.609 88.387 70.2846 89.4504 70.2846 90.2811Z" fill="url(#paint13_linear)"/>
<path d="M147.842 56.2602C148.507 55.3764 148.641 54.3551 148.141 53.979C147.641 53.6029 146.696 54.0145 146.032 54.8983C145.367 55.7821 145.233 56.8034 145.733 57.1795C146.233 57.5555 147.178 57.1439 147.842 56.2602Z" fill="url(#paint14_linear)"/>
<path d="M145.43 56.4525C145.43 57.2852 146.104 57.5689 146.937 57.0893C147.769 56.6096 148.443 55.5462 148.443 54.7135C148.443 53.8807 147.769 53.597 146.937 54.0767C146.106 54.5584 145.43 55.6218 145.43 56.4525Z" fill="url(#paint15_linear)"/>
<path d="M130.241 65.2867C130.241 66.1195 130.914 66.4032 131.747 65.9235C132.58 65.4439 133.253 64.3805 133.253 63.5477C133.253 62.715 132.58 62.4313 131.747 62.9109C130.914 63.3906 130.241 64.4539 130.241 65.2867Z" fill="url(#paint16_linear)"/>
<path d="M115.049 74.1182C115.049 74.951 115.723 75.2347 116.556 74.7551C117.388 74.2754 118.062 73.212 118.062 72.3793C118.062 71.5465 117.388 71.2628 116.556 71.7424C115.725 72.2241 115.049 73.2875 115.049 74.1182Z" fill="url(#paint17_linear)"/>
<path d="M99.8594 82.9517C99.8594 83.7845 100.533 84.0682 101.366 83.5886C102.198 83.1089 102.872 82.0455 102.872 81.2128C102.872 80.38 102.198 80.0963 101.366 80.5759C100.533 81.0556 99.8594 82.119 99.8594 82.9517Z" fill="url(#paint18_linear)"/>
<path d="M84.6699 91.7835C84.6699 92.6163 85.3435 92.9 86.1762 92.4203C87.009 91.9407 87.6825 90.8773 87.6825 90.0445C87.6825 89.2118 87.009 88.9281 86.1762 89.4077C85.3435 89.8894 84.6699 90.9528 84.6699 91.7835Z" fill="url(#paint19_linear)"/>
<path d="M144.583 118.415C144.583 119.248 145.257 119.532 146.09 119.052C146.923 118.573 147.596 117.509 147.596 116.676C147.596 115.844 146.923 115.56 146.09 116.04C145.259 116.519 144.583 117.583 144.583 118.415Z" fill="url(#paint20_linear)"/>
<path d="M144.583 118.415C144.583 119.248 145.257 119.532 146.09 119.052C146.923 118.573 147.596 117.509 147.596 116.676C147.596 115.844 146.923 115.56 146.09 116.04C145.259 116.519 144.583 117.583 144.583 118.415Z" fill="url(#paint21_linear)"/>
<path d="M129.394 127.247C129.394 128.08 130.067 128.364 130.9 127.884C131.733 127.404 132.406 126.341 132.406 125.508C132.406 124.675 131.733 124.392 130.9 124.871C130.067 125.353 129.394 126.416 129.394 127.247Z" fill="url(#paint22_linear)"/>
<path d="M114.202 136.081C114.202 136.914 114.876 137.198 115.708 136.718C116.541 136.238 117.215 135.175 117.215 134.342C117.215 133.509 116.541 133.226 115.708 133.705C114.878 134.185 114.202 135.248 114.202 136.081Z" fill="url(#paint23_linear)"/>
<path d="M99.0127 144.912C99.0127 145.745 99.6862 146.029 100.519 145.549C101.352 145.07 102.025 144.006 102.025 143.173C102.025 142.341 101.352 142.057 100.519 142.537C99.6862 143.018 99.0127 144.082 99.0127 144.912Z" fill="url(#paint24_linear)"/>
<path d="M83.821 153.746C83.821 154.579 84.4946 154.863 85.3273 154.383C86.1601 153.903 86.8337 152.84 86.8337 152.007C86.8337 151.174 86.1601 150.891 85.3273 151.37C84.4966 151.85 83.821 152.913 83.821 153.746Z" fill="url(#paint25_linear)"/>
<path d="M8.01554 119.052C8.01554 119.885 7.34199 120.169 6.50924 119.689C5.67648 119.209 5.00293 118.146 5.00293 117.313C5.00293 116.481 5.67648 116.197 6.50924 116.677C7.34199 117.156 8.01554 118.222 8.01554 119.052Z" fill="#634D99"/>
<path d="M8.01554 119.052C8.01554 119.885 7.34199 120.169 6.50924 119.689C5.67648 119.209 5.00293 118.146 5.00293 117.313C5.00293 116.481 5.67648 116.197 6.50924 116.677C7.34199 117.156 8.01554 118.222 8.01554 119.052Z" fill="url(#paint26_linear)"/>
<path d="M23.2069 127.886C23.2069 128.719 22.5334 129.003 21.7006 128.523C20.8679 128.043 20.1943 126.98 20.1943 126.147C20.1943 125.314 20.8679 125.031 21.7006 125.51C22.5334 125.99 23.2069 127.053 23.2069 127.886Z" fill="url(#paint27_linear)"/>
<path d="M38.3966 136.718C38.3966 137.55 37.7231 137.834 36.8903 137.354C36.0576 136.875 35.384 135.811 35.384 134.979C35.384 134.146 36.0576 133.862 36.8903 134.342C37.7231 134.821 38.3966 135.887 38.3966 136.718Z" fill="url(#paint28_linear)"/>
<path d="M53.5863 145.551C53.5863 146.384 52.9128 146.668 52.08 146.188C51.2473 145.709 50.5737 144.645 50.5737 143.812C50.5737 142.98 51.2473 142.696 52.08 143.176C52.9128 143.655 53.5863 144.719 53.5863 145.551Z" fill="url(#paint29_linear)"/>
<path d="M68.7778 154.383C68.7778 155.216 68.1042 155.5 67.2714 155.02C66.4387 154.54 65.7651 153.477 65.7651 152.644C65.7651 151.811 66.4387 151.528 67.2714 152.007C68.1042 152.487 68.7778 153.552 68.7778 154.383Z" fill="url(#paint30_linear)"/>
<path d="M137.807 79.5637C137.252 79.2432 136.668 78.9738 136.06 78.7575C133.719 77.9206 130.998 77.839 128.085 78.4942C125.82 79.0024 123.438 79.9597 121.027 81.3517C115.51 84.5378 110.336 89.6609 106.454 95.78C102.548 101.944 100.394 108.428 100.394 114.041C100.394 119.13 102.182 123.114 105.45 125.355C105.675 125.508 105.903 125.655 106.14 125.792C107.885 126.796 109.912 127.294 112.122 127.294C112.702 127.294 113.292 127.259 113.896 127.19C116.729 126.872 119.799 125.802 122.919 124C128.436 120.816 133.611 115.691 137.491 109.571C141.399 103.407 143.551 96.923 143.551 91.31C143.553 85.8747 141.514 81.7027 137.807 79.5637ZM113.271 123.467C111.267 123.661 109.481 123.349 108.036 122.514C107.748 122.349 107.477 122.163 107.222 121.955C105.256 120.373 104.183 117.607 104.183 114.041C104.183 103.791 112.59 90.5957 122.924 84.6296C124.946 83.4621 126.908 82.6539 128.737 82.215C129.812 81.9599 130.837 81.8313 131.802 81.8313C132.69 81.8313 133.525 81.9395 134.296 82.162C134.874 82.3253 135.415 82.5518 135.917 82.8416C138.401 84.2765 139.771 87.2851 139.771 91.3141C139.771 101.566 131.363 114.76 121.029 120.726C118.268 122.318 115.621 123.24 113.271 123.467Z" fill="#FFD071"/>
<path d="M118.213 123.467L116.864 100.603L137.433 81.2864L140.026 84.0459L120.748 102.15L121.991 123.245L118.213 123.467Z" fill="#FFD071"/>
<path d="M113.271 123.467C119.166 124.132 125.056 122.079 129.222 117.856C131.549 115.499 133.686 112.815 135.529 109.906C138.99 104.446 141.074 98.7332 141.505 93.6C141.597 92.5019 140.85 91.5119 139.766 91.314C139.766 101.566 131.359 114.76 121.025 120.726C118.268 122.318 115.62 123.24 113.271 123.467Z" fill="#D1975D"/>
<path d="M110.337 93.4672L108.145 96.5537L117.727 103.361L119.919 100.274L110.337 93.4672Z" fill="#FFD071"/>
<path d="M124.583 94.8803L124.868 94.47L123.417 93.6455C123.391 93.6291 123.362 93.6148 123.336 93.5985H123.334C122.058 92.9005 120.196 93.0719 118.125 94.268C114.275 96.4907 111.155 101.412 111.155 105.261C111.155 106.878 111.704 108.047 112.626 108.696C112.763 108.792 112.908 108.878 113.061 108.951L114.32 109.688L114.598 109.286C115.633 109.296 116.835 108.949 118.121 108.206C121.97 105.984 125.091 101.063 125.091 97.2132C125.095 96.2825 124.911 95.5008 124.583 94.8803Z" fill="#D1975D"/>
<path d="M123.729 105.2C126.806 101.11 127.424 96.3834 125.111 94.6434C122.797 92.9033 118.428 94.8084 115.352 98.8985C112.275 102.989 111.657 107.715 113.97 109.455C116.284 111.195 120.653 109.29 123.729 105.2Z" fill="#FFD071"/>
<path d="M106.603 32.1621V37.9648C106.603 37.9669 106.603 37.9669 106.603 37.9669V38.769H106.572C106.437 40.4427 105.876 42.1082 104.89 43.7063C104.776 43.8941 104.654 44.0799 104.527 44.2656C103.335 46.0046 101.629 47.6517 99.408 49.1315C99.2896 49.2111 99.1692 49.2907 99.0467 49.3703C98.6936 49.5969 98.3263 49.8193 97.9446 50.0398C96.6852 50.7684 95.3381 51.4154 93.9257 51.9849C93.8053 52.0339 93.6849 52.0808 93.5644 52.1278C91.9336 52.7646 90.2191 53.2973 88.4454 53.7219C88.325 53.7525 88.2046 53.781 88.0842 53.8096C86.4187 54.1974 84.7042 54.4913 82.9631 54.6954C82.8427 54.7097 82.7223 54.7261 82.6019 54.7363C80.9119 54.924 79.1974 55.0241 77.4829 55.0363C77.3625 55.0383 77.242 55.0404 77.1216 55.0404C75.4092 55.0445 73.6947 54.9608 72.0006 54.7914C71.8802 54.7812 71.7597 54.7689 71.6393 54.7546C69.9024 54.5709 68.1879 54.2954 66.5203 53.93C66.3999 53.9035 66.2795 53.877 66.159 53.8484C64.3894 53.4443 62.6729 52.9381 61.038 52.3298C60.9176 52.2849 60.7951 52.24 60.6767 52.1931C59.0684 51.5787 57.5457 50.8603 56.1292 50.0418C55.9353 49.9296 55.7455 49.8173 55.5577 49.703C55.4353 49.6295 55.3149 49.554 55.1965 49.4805C53.037 48.115 51.3286 46.5985 50.0754 44.9902C49.9489 44.8289 49.8285 44.6697 49.7142 44.5064C48.3956 42.6715 47.6588 40.7264 47.5016 38.7731H47.469V32.1661H49.2263C49.3794 31.9212 49.5427 31.6783 49.7162 31.4375C49.8325 31.2742 49.953 31.113 50.0775 30.9538C50.5367 30.3618 51.0592 29.7822 51.643 29.2188C52.3573 28.529 53.1636 27.8615 54.0616 27.2227C54.7025 26.7655 55.3924 26.3226 56.1292 25.898C67.6776 19.2319 86.4003 19.2319 97.9487 25.898C98.6855 26.3226 99.3733 26.7655 100.014 27.2227C100.912 27.8615 101.719 28.5269 102.433 29.2188C103.253 30.0108 103.953 30.8354 104.529 31.6783C104.641 31.8396 104.747 32.0029 104.85 32.1661H106.603V32.1621Z" fill="#FF9D4D"/>
<path d="M77.0321 21.2548C84.8677 21.2548 92.2299 23.0142 97.7611 26.2065C98.4816 26.6228 99.1654 27.0617 99.7981 27.5127C100.676 28.1353 101.474 28.7966 102.176 29.4742C102.968 30.2396 103.658 31.0479 104.227 31.8786C104.329 32.0255 104.431 32.1807 104.54 32.3521L104.646 32.5215H104.846H106.24V37.965V38.4039H106.236L106.209 38.7366C106.076 40.3674 105.529 41.9737 104.578 43.5147C104.474 43.6861 104.354 43.8678 104.225 44.0576C103.031 45.7966 101.343 47.4009 99.2042 48.8276C99.0858 48.9052 98.9674 48.9848 98.847 49.0623C98.498 49.2848 98.1326 49.5073 97.7591 49.7236C96.5345 50.4298 95.1976 51.0769 93.7872 51.6463C93.6688 51.6933 93.5484 51.7402 93.428 51.7871C91.8278 52.4117 90.1214 52.9444 88.3498 53.369C88.2314 53.3996 88.1151 53.4261 87.9967 53.4547C86.3659 53.8343 84.6555 54.1282 82.9144 54.3324C82.796 54.3466 82.6797 54.3609 82.5572 54.3732C80.8815 54.5589 79.1732 54.6589 77.4729 54.6712C77.3546 54.6732 77.2341 54.6753 77.1158 54.6753H77.0178C75.3461 54.6753 73.6684 54.5916 72.0253 54.4262C71.909 54.416 71.7927 54.4038 71.6722 54.3915C69.9496 54.2099 68.2412 53.9343 66.592 53.5731C66.4736 53.5465 66.3532 53.52 66.2328 53.4935C64.4611 53.0893 62.7548 52.5832 61.1567 51.9892L61.1138 51.9729C61.0097 51.9341 60.9056 51.8974 60.7995 51.8525C59.1993 51.2401 57.6868 50.5237 56.303 49.7257C56.1111 49.6154 55.9234 49.5032 55.7376 49.3909C55.6172 49.3174 55.4968 49.244 55.3804 49.1705C53.2965 47.854 51.6045 46.3701 50.3492 44.7618C50.2369 44.621 50.1226 44.4679 49.9981 44.2923C48.7286 42.5227 48.0061 40.6552 47.853 38.7406L47.8264 38.4079H47.8203V32.5256H49.2144H49.4164L49.5226 32.3541C49.6695 32.1194 49.8287 31.8806 50.0002 31.6439C50.1063 31.4949 50.2206 31.3418 50.3533 31.1724C50.8003 30.5968 51.3167 30.0253 51.8841 29.4762C52.5964 28.7884 53.3965 28.1291 54.2619 27.5148C54.9008 27.0596 55.5866 26.6208 56.301 26.2085C61.8343 23.0142 69.1964 21.2548 77.0321 21.2548ZM77.0321 20.8936C69.4638 20.8936 61.8955 22.5611 56.1234 25.8942C55.3866 26.3187 54.6987 26.7616 54.0558 27.2188C53.1557 27.8577 52.3515 28.5251 51.6371 29.215C51.0534 29.7783 50.5309 30.358 50.0716 30.9499C49.9451 31.1111 49.8247 31.2703 49.7104 31.4336C49.5369 31.6745 49.3736 31.9174 49.2205 32.1623H47.4631V38.7692H47.4958C47.653 40.7246 48.3898 42.6677 49.7083 44.5026C49.8246 44.6638 49.943 44.8251 50.0696 44.9863C51.3208 46.5947 53.0291 48.1112 55.1906 49.4767C55.309 49.5501 55.4294 49.6257 55.5519 49.6991C55.7397 49.8134 55.9295 49.9257 56.1234 50.0379C57.5399 50.8564 59.0646 51.5749 60.6709 52.1892C60.7893 52.2382 60.9117 52.2811 61.0321 52.326C62.667 52.9342 64.3836 53.4404 66.1532 53.8445C66.2736 53.8731 66.394 53.8996 66.5145 53.9262C68.182 54.2915 69.8965 54.5671 71.6334 54.7508C71.7539 54.763 71.8743 54.7773 71.9947 54.7875C73.6561 54.9549 75.3359 55.0365 77.0157 55.0365C77.0484 55.0365 77.0811 55.0365 77.1158 55.0365C77.2362 55.0365 77.3566 55.0345 77.477 55.0324C79.1915 55.0202 80.906 54.9181 82.596 54.7324C82.7164 54.7202 82.8369 54.7059 82.9573 54.6916C84.6963 54.4875 86.4128 54.1936 88.0783 53.8058C88.1987 53.7772 88.3192 53.7486 88.4396 53.718C90.2133 53.2934 91.9278 52.7607 93.5586 52.1239C93.679 52.077 93.7994 52.03 93.9199 51.981C95.3323 51.4116 96.6794 50.7646 97.9387 50.0359C98.3184 49.8155 98.6857 49.593 99.0409 49.3664C99.1634 49.2868 99.2838 49.2072 99.4022 49.1276C101.623 47.6479 103.329 46.0007 104.521 44.2617C104.648 44.076 104.77 43.8903 104.884 43.7025C105.87 42.1043 106.432 40.4388 106.566 38.7651H106.597V37.963C106.597 37.963 106.597 37.963 106.597 37.961V32.1582H104.84C104.738 31.9949 104.631 31.8316 104.519 31.6704C103.942 30.8274 103.241 30.0028 102.423 29.2109C101.709 28.519 100.902 27.8536 100.004 27.2147C99.3634 26.7575 98.6755 26.3146 97.9387 25.8901C92.1686 22.5611 84.6003 20.8936 77.0321 20.8936Z" fill="#FFE840"/>
<path d="M77.0322 49.0538C93.3638 49.0538 106.603 41.4097 106.603 31.9803C106.603 22.5508 93.3638 14.9067 77.0322 14.9067C60.7006 14.9067 47.4612 22.5508 47.4612 31.9803C47.4612 41.4097 60.7006 49.0538 77.0322 49.0538Z" fill="#FFE840"/>
<path d="M102.427 29.2147C101.482 26.2837 99.0307 23.5875 95.2996 21.4341C90.4194 18.6154 83.9308 17.0642 77.03 17.0642C70.1292 17.0642 63.6406 18.6154 58.7604 21.4341C55.0293 23.5875 52.578 26.2857 51.633 29.2147C51.3411 30.1168 51.1921 31.0414 51.1921 31.9803C51.1921 34.848 52.5841 37.5933 55.1865 39.9568C55.3049 40.065 55.4253 40.1711 55.5478 40.2752C56.4785 41.0774 57.5521 41.8305 58.7604 42.5286C59.3727 42.8817 60.0096 43.2144 60.6668 43.5266C60.7872 43.5838 60.9076 43.6409 61.028 43.696C62.618 44.4247 64.3366 45.035 66.1491 45.5187C66.2695 45.5514 66.3899 45.584 66.5103 45.6167C68.1493 46.0371 69.8638 46.3596 71.6293 46.5719C71.7498 46.5882 71.8702 46.6025 71.9906 46.6168C73.6316 46.8046 75.3175 46.8985 77.0259 46.8985H77.1096C77.23 46.8985 77.3505 46.8964 77.4709 46.8944C79.2119 46.8781 80.9244 46.7638 82.5899 46.5515C82.7103 46.5372 82.8307 46.5209 82.9511 46.5025C84.7207 46.2658 86.4352 45.9188 88.0722 45.4718C88.1946 45.4391 88.3151 45.4065 88.4334 45.3697C90.252 44.8533 91.9686 44.2084 93.5524 43.445C93.6729 43.3878 93.7953 43.3287 93.9137 43.2674C94.3852 43.0327 94.8444 42.7857 95.2914 42.5286C96.7345 41.6958 97.9877 40.7794 99.0347 39.8017C99.1592 39.6854 99.2797 39.571 99.396 39.4527C101.653 37.2075 102.858 34.646 102.858 31.9803C102.868 31.0414 102.719 30.1168 102.427 29.2147ZM99.4062 37.6218C99.2899 37.7749 99.1695 37.93 99.045 38.0811C97.8836 39.4812 96.3018 40.7896 94.2974 41.9489C94.175 42.0203 94.0505 42.0897 93.926 42.1591C93.8076 42.2244 93.6871 42.2918 93.5647 42.3551C91.989 43.196 90.2663 43.892 88.4457 44.4451C88.3273 44.4819 88.2048 44.5186 88.0844 44.5533C86.4414 45.035 84.7228 45.4024 82.9634 45.6534C82.845 45.6718 82.7246 45.6881 82.6021 45.7024C80.9203 45.929 79.2037 46.0514 77.4831 46.0678C77.3627 46.0698 77.2423 46.0718 77.1219 46.0718C75.4053 46.0759 73.6867 45.9759 72.0008 45.7718C71.8804 45.7575 71.7579 45.7412 71.6395 45.7249C69.8863 45.4983 68.1677 45.1574 66.5206 44.7043C66.4001 44.6717 66.2777 44.639 66.1593 44.6043C64.3468 44.0859 62.6242 43.4266 61.0382 42.6306C60.9158 42.5694 60.7954 42.5081 60.677 42.4449C60.3708 42.2857 60.0708 42.1203 59.7748 41.9509C58.0603 40.961 56.654 39.8588 55.558 38.6852C55.4335 38.5505 55.3131 38.4178 55.1967 38.2811C52.2168 34.8297 51.8371 30.8128 54.0619 27.2206C55.2396 25.3183 57.1439 23.5364 59.7769 22.0158C69.2944 16.5192 84.784 16.5192 94.3036 22.0158C96.9365 23.5364 98.8408 25.3183 100.016 27.2206C102.092 30.5863 101.892 34.3235 99.4062 37.6218Z" fill="#FF9D4D"/>
<path d="M77.9791 29.5718L80.7631 31.1801C80.6999 31.2108 80.6386 31.2434 80.5774 31.2781L79.0486 32.1599L76.4463 30.6576L77.3056 30.1616C77.6138 29.9841 77.8383 29.7881 77.9791 29.5718Z" fill="#D1975D"/>
<path d="M86.3068 36.3501L89.1602 37.9973L90.8666 37.0114L88.005 35.3602C88.0295 35.3439 88.056 35.3296 88.0805 35.3112C88.2071 35.2337 88.3275 35.152 88.4418 35.0724C88.8479 34.7867 89.1949 34.4887 89.4929 34.1784C89.9624 33.6865 90.2644 33.1906 90.3992 32.6905C90.5339 32.1884 90.4747 31.7006 90.2195 31.223C89.9644 30.7454 89.4807 30.2984 88.7643 29.884C88.6561 29.8228 88.5499 29.7636 88.4418 29.7065C88.3234 29.6432 88.2009 29.586 88.0805 29.5289C87.16 29.1023 86.1782 28.8492 85.1373 28.7655C84.4045 28.7084 83.68 28.7308 82.9615 28.8308C82.8411 28.8472 82.7207 28.8676 82.6002 28.888C82.1614 28.9656 81.7267 29.0717 81.296 29.2064C81.7409 28.5451 81.8083 27.8858 81.5001 27.2286C81.1899 26.5714 80.6204 26.004 79.7938 25.5264C79.2672 25.2243 78.6569 24.9753 77.9548 24.7814C77.2547 24.5895 76.5362 24.4711 75.7953 24.4303C75.0565 24.3895 74.3196 24.4323 73.5869 24.5609C72.8541 24.6895 72.1949 24.9222 71.605 25.2631L71.0682 25.5733L68.3189 23.9854L66.6126 24.9691L69.3598 26.5551L67.2861 27.7532L64.5368 26.1652L62.8305 27.151L65.5777 28.737L62.5325 30.4943L66.1554 32.5864L66.5166 32.7946L71.6356 35.7501L71.9969 35.9603L77.1179 38.9158L77.4792 39.126L79.4794 40.2812L82.5268 38.5239L85.3802 40.171L87.0865 39.1852L84.2331 37.538L86.3068 36.3501ZM80.5775 31.2781C80.6388 31.2434 80.7 31.2107 80.7633 31.1801C81.0021 31.0658 81.2633 30.9801 81.543 30.927C81.8838 30.8617 82.2369 30.8352 82.5982 30.8495C82.6166 30.8495 82.637 30.8515 82.6553 30.8515C82.7574 30.8556 82.8595 30.8637 82.9615 30.874C83.2411 30.9046 83.5228 30.9556 83.8024 31.0291C84.1821 31.1291 84.527 31.2679 84.827 31.4434C85.1291 31.6189 85.3598 31.8149 85.521 32.0353C85.6802 32.2578 85.7619 32.4803 85.77 32.7048C85.7782 32.9293 85.7067 33.1497 85.5557 33.3661C85.4639 33.4967 85.3414 33.6212 85.1944 33.7376C85.121 33.7947 85.0373 33.8519 84.9495 33.907C84.925 33.9213 84.9005 33.9376 84.876 33.9539L83.5616 34.7132L83.5146 34.7397L82.9615 35.0581L82.6002 35.2663L81.4409 35.9358L79.9836 36.7767L75.5198 34.1988L75.9953 33.9233L76.9771 33.3579L77.12 33.2763L77.4812 33.0681L79.0508 32.1619L80.5775 31.2781ZM71.6336 28.5022L71.9949 28.292L72.1704 28.19L73.1726 27.6103C73.2297 27.5776 73.295 27.5531 73.3542 27.5225C73.5583 27.4225 73.7747 27.3388 74.0094 27.2817C74.3339 27.2041 74.687 27.1694 75.0687 27.1755C75.7912 27.1878 76.473 27.3735 77.1118 27.7348C77.1261 27.743 77.1424 27.7532 77.1588 27.7613C77.2751 27.8266 77.3792 27.896 77.4751 27.9654C77.9323 28.292 78.1568 28.641 78.1507 29.0084C78.1466 29.2084 78.0895 29.3962 77.9752 29.5697C77.8629 29.7412 77.6956 29.9044 77.4751 30.0514C77.42 30.0881 77.3649 30.1249 77.3037 30.1596L77.1139 30.2678L76.4444 30.6556L74.3686 31.8537L73.8032 32.1802L72.9113 32.6946L72.4174 32.4088L71.8642 32.0904L71.6315 31.9557L70.5865 31.3536L68.6393 30.229L69.1802 29.9167L70.0967 29.3881L71.6336 28.5022Z" fill="#FF9D4D"/>
<path d="M50.841 39.7465V45.7309C50.7145 45.5697 50.594 45.4105 50.4797 45.2472V39.2607C50.594 39.424 50.7145 39.5853 50.841 39.7465Z" fill="#FFE840"/>
<path d="M55.5517 43.7144V49.7009C55.4292 49.6274 55.3088 49.5519 55.1904 49.4784V43.4919C55.3088 43.5654 55.4292 43.6389 55.5517 43.7144Z" fill="#FFE840"/>
<path d="M61.0322 46.3415V52.3279C60.9117 52.283 60.7893 52.2381 60.6709 52.1912V46.2068C60.7893 46.2517 60.9117 46.2986 61.0322 46.3415Z" fill="#FFE840"/>
<path d="M66.5143 47.9416V53.926C66.3939 53.8995 66.2735 53.8729 66.1531 53.8444V47.8579C66.2735 47.8865 66.3939 47.9151 66.5143 47.9416Z" fill="#FFE840"/>
<path d="M71.9968 48.8031V54.7895C71.8763 54.7793 71.7559 54.7671 71.6355 54.7528V48.7664C71.7539 48.7806 71.8763 48.7929 71.9968 48.8031Z" fill="#FFE840"/>
<path d="M77.4789 49.0503V55.0367C77.3585 55.0388 77.2381 55.0408 77.1177 55.0408V49.0523C77.2381 49.0523 77.3585 49.0523 77.4789 49.0503Z" fill="#FFE840"/>
<path d="M82.9592 48.707V54.6935C82.8388 54.7078 82.7183 54.7241 82.5979 54.7343V48.7479C82.7183 48.7376 82.8388 48.7213 82.9592 48.707Z" fill="#FFE840"/>
<path d="M88.4416 47.7354V53.7218C88.3212 53.7524 88.2007 53.781 88.0803 53.8096V47.8231C88.2007 47.7925 88.3212 47.7639 88.4416 47.7354Z" fill="#FFE840"/>
<path d="M93.9238 45.9985V51.9829C93.8033 52.0319 93.6829 52.0789 93.5625 52.1258V46.1394C93.6829 46.0945 93.8033 46.0455 93.9238 45.9985Z" fill="#FFE840"/>
<path d="M99.4062 43.145V49.1294C99.2878 49.209 99.1674 49.2886 99.0449 49.3682V43.3818C99.1653 43.3042 99.2878 43.2246 99.4062 43.145Z" fill="#FFE840"/>
<path d="M104.268 38.3201V44.3065C104.154 44.4943 104.031 44.68 103.905 44.8658V38.8814C104.031 38.6936 104.154 38.5078 104.268 38.3201Z" fill="#FFE840"/>
</g>
<defs>
<filter id="filter0_f" x="-37.7892" y="59.3827" width="229.641" height="160.157" filterUnits="userSpaceOnUse" color-interpolation-filters="sRGB">
<feFlood flood-opacity="0" result="BackgroundImageFix"/>
<feBlend mode="normal" in="SourceGraphic" in2="BackgroundImageFix" result="shape"/>
<feGaussianBlur stdDeviation="19.1019" result="effect1_foregroundBlur"/>
</filter>
<linearGradient id="paint0_linear" x1="0.435201" y1="46.8623" x2="153.63" y2="46.8623" gradientUnits="userSpaceOnUse">
<stop stop-color="#EB9310"/>
<stop offset="1" stop-color="#FFE711"/>
</linearGradient>
<linearGradient id="paint1_linear" x1="125.934" y1="161.306" x2="213.573" y2="-30.9093" gradientUnits="userSpaceOnUse">
<stop stop-color="#FFBE18"/>
<stop offset="1" stop-color="#FFA318"/>
</linearGradient>
<linearGradient id="paint2_linear" x1="139.711" y1="115.244" x2="89.909" y2="97.0781" gradientUnits="userSpaceOnUse">
<stop stop-color="#C86731"/>
<stop offset="1" stop-color="#FFA412"/>
</linearGradient>
<linearGradient id="paint3_linear" x1="138.459" y1="247.176" x2="284.253" y2="105.8" gradientUnits="userSpaceOnUse">
<stop stop-color="#FFBE18"/>
<stop offset="1" stop-color="#FFA318"/>
</linearGradient>
<linearGradient id="paint4_linear" x1="64.3806" y1="114.371" x2="18.3375" y2="98.9366" gradientUnits="userSpaceOnUse">
<stop stop-color="#C86731"/>
<stop offset="1" stop-color="#FFA412"/>
</linearGradient>
<linearGradient id="paint5_linear" x1="63.3234" y1="244.697" x2="206.405" y2="117.561" gradientUnits="userSpaceOnUse">
<stop stop-color="#FFBE18"/>
<stop offset="1" stop-color="#FFA318"/>
</linearGradient>
<linearGradient id="paint6_linear" x1="54.9174" y1="211.458" x2="161.697" y2="121.147" gradientUnits="userSpaceOnUse">
<stop stop-color="#FFBE18"/>
<stop offset="1" stop-color="#FFA318"/>
</linearGradient>
<linearGradient id="paint7_linear" x1="13.4774" y1="103.663" x2="65.0348" y2="103.663" gradientUnits="userSpaceOnUse">
<stop stop-color="#EB9310"/>
<stop offset="1" stop-color="#FFE711"/>
</linearGradient>
<linearGradient id="paint8_linear" x1="7.10962" y1="54.7638" x2="8.92028" y2="53.402" gradientUnits="userSpaceOnUse">
<stop stop-color="#EB9310"/>
<stop offset="1" stop-color="#FFE711"/>
</linearGradient>
<linearGradient id="paint9_linear" x1="6.50904" y1="54.0811" x2="9.52166" y2="54.0811" gradientUnits="userSpaceOnUse">
<stop stop-color="#EB9310"/>
<stop offset="1" stop-color="#FFE711"/>
</linearGradient>
<linearGradient id="paint10_linear" x1="21.699" y1="62.9148" x2="24.7116" y2="62.9148" gradientUnits="userSpaceOnUse">
<stop stop-color="#EB9310"/>
<stop offset="1" stop-color="#FFE711"/>
</linearGradient>
<linearGradient id="paint11_linear" x1="36.8904" y1="71.7466" x2="39.903" y2="71.7466" gradientUnits="userSpaceOnUse">
<stop stop-color="#EB9310"/>
<stop offset="1" stop-color="#FFE711"/>
</linearGradient>
<linearGradient id="paint12_linear" x1="52.0801" y1="80.5801" x2="55.0927" y2="80.5801" gradientUnits="userSpaceOnUse">
<stop stop-color="#EB9310"/>
<stop offset="1" stop-color="#FFE711"/>
</linearGradient>
<linearGradient id="paint13_linear" x1="67.272" y1="89.4117" x2="70.2846" y2="89.4117" gradientUnits="userSpaceOnUse">
<stop stop-color="#EB9310"/>
<stop offset="1" stop-color="#FFE711"/>
</linearGradient>
<linearGradient id="paint14_linear" x1="145.733" y1="57.1795" x2="148.141" y2="53.979" gradientUnits="userSpaceOnUse">
<stop stop-color="#EB9310"/>
<stop offset="1" stop-color="#FFE711"/>
</linearGradient>
<linearGradient id="paint15_linear" x1="145.43" y1="55.583" x2="148.443" y2="55.583" gradientUnits="userSpaceOnUse">
<stop stop-color="#EB9310"/>
<stop offset="1" stop-color="#FFE711"/>
</linearGradient>
<linearGradient id="paint16_linear" x1="130.241" y1="64.4173" x2="133.253" y2="64.4173" gradientUnits="userSpaceOnUse">
<stop stop-color="#EB9310"/>
<stop offset="1" stop-color="#FFE711"/>
</linearGradient>
<linearGradient id="paint17_linear" x1="115.049" y1="73.2488" x2="118.062" y2="73.2488" gradientUnits="userSpaceOnUse">
<stop stop-color="#EB9310"/>
<stop offset="1" stop-color="#FFE711"/>
</linearGradient>
<linearGradient id="paint18_linear" x1="99.8594" y1="82.0823" x2="102.872" y2="82.0823" gradientUnits="userSpaceOnUse">
<stop stop-color="#EB9310"/>
<stop offset="1" stop-color="#FFE711"/>
</linearGradient>
<linearGradient id="paint19_linear" x1="84.6699" y1="90.9141" x2="87.6825" y2="90.9141" gradientUnits="userSpaceOnUse">
<stop stop-color="#EB9310"/>
<stop offset="1" stop-color="#FFE711"/>
</linearGradient>
<linearGradient id="paint20_linear" x1="144.584" y1="117.546" x2="147.596" y2="117.546" gradientUnits="userSpaceOnUse">
<stop stop-color="#EB9310"/>
<stop offset="1" stop-color="#FFE711"/>
</linearGradient>
<linearGradient id="paint21_linear" x1="144.584" y1="117.546" x2="147.596" y2="117.546" gradientUnits="userSpaceOnUse">
<stop stop-color="#EB9310"/>
<stop offset="1" stop-color="#FFE711"/>
</linearGradient>
<linearGradient id="paint22_linear" x1="129.394" y1="126.378" x2="132.406" y2="126.378" gradientUnits="userSpaceOnUse">
<stop stop-color="#EB9310"/>
<stop offset="1" stop-color="#FFE711"/>
</linearGradient>
<linearGradient id="paint23_linear" x1="114.202" y1="135.212" x2="117.215" y2="135.212" gradientUnits="userSpaceOnUse">
<stop stop-color="#EB9310"/>
<stop offset="1" stop-color="#FFE711"/>
</linearGradient>
<linearGradient id="paint24_linear" x1="99.0127" y1="144.043" x2="102.025" y2="144.043" gradientUnits="userSpaceOnUse">
<stop stop-color="#EB9310"/>
<stop offset="1" stop-color="#FFE711"/>
</linearGradient>
<linearGradient id="paint25_linear" x1="83.8211" y1="152.877" x2="86.8337" y2="152.877" gradientUnits="userSpaceOnUse">
<stop stop-color="#EB9310"/>
<stop offset="1" stop-color="#FFE711"/>
</linearGradient>
<linearGradient id="paint26_linear" x1="5.00294" y1="118.183" x2="8.01556" y2="118.183" gradientUnits="userSpaceOnUse">
<stop stop-color="#EB9310"/>
<stop offset="1" stop-color="#FFE711"/>
</linearGradient>
<linearGradient id="paint27_linear" x1="20.1943" y1="127.017" x2="23.207" y2="127.017" gradientUnits="userSpaceOnUse">
<stop stop-color="#EB9310"/>
<stop offset="1" stop-color="#FFE711"/>
</linearGradient>
<linearGradient id="paint28_linear" x1="35.384" y1="135.848" x2="38.3967" y2="135.848" gradientUnits="userSpaceOnUse">
<stop stop-color="#EB9310"/>
<stop offset="1" stop-color="#FFE711"/>
</linearGradient>
<linearGradient id="paint29_linear" x1="50.5737" y1="144.682" x2="53.5864" y2="144.682" gradientUnits="userSpaceOnUse">
<stop stop-color="#EB9310"/>
<stop offset="1" stop-color="#FFE711"/>
</linearGradient>
<linearGradient id="paint30_linear" x1="65.7651" y1="153.514" x2="68.7778" y2="153.514" gradientUnits="userSpaceOnUse">
<stop stop-color="#EB9310"/>
<stop offset="1" stop-color="#FFE711"/>
</linearGradient>
<clipPath id="clip0">
<rect width="154.082" height="181.31" fill="white" transform="translate(0 0.0253906)"/>
</clipPath>
</defs>
</svg>
