<svg width="157" height="203" viewBox="0 0 157 203" fill="none" xmlns="http://www.w3.org/2000/svg">
<g opacity="0.17" filter="url(#filter0_f)">
<path d="M82.0747 191.31C115.212 191.31 142.075 175.8 142.075 156.668C142.075 137.535 115.212 122.025 82.0747 122.025C48.9376 122.025 22.0747 137.535 22.0747 156.668C22.0747 175.8 48.9376 191.31 82.0747 191.31Z" fill="#1F1C04"/>
</g>
<path d="M81.2982 85.2602L80.8113 86.8079L142.864 106.33L143.351 104.782L81.2982 85.2602Z" fill="#D1975D"/>
<path d="M12.1253 75.8791L11.8865 77.4839L81.6225 87.8622L81.8614 86.2574L12.1253 75.8791Z" fill="#D1975D"/>
<path d="M32.0127 40.2426L30.9199 41.4419L80.5157 86.6296L81.6085 85.4303L32.0127 40.2426Z" fill="#D1975D"/>
<path d="M137.012 40.1416L108.384 56.7185L109.197 58.1226L137.825 41.5457L137.012 40.1416Z" fill="#D1975D"/>
<path d="M54.0646 113.614L25.4363 130.187L26.2491 131.591L54.8774 115.018L54.0646 113.614Z" fill="#D1975D"/>
<path d="M82.5168 13.9683H80.8943V56.5189H82.5168V13.9683Z" fill="#D1975D"/>
<path d="M82.5168 107.858H80.8943V150.408H82.5168V107.858Z" fill="#D1975D"/>
<path d="M103.588 55.5889L104.867 53.7436L98.3509 50.0419C98.2293 49.9701 98.1059 49.9001 97.9826 49.832L97.977 49.8301C92.2441 46.6994 83.8923 47.4655 74.5921 52.8338C57.3085 62.8135 43.2957 84.9148 43.2957 102.198C43.2957 109.453 45.7653 114.705 49.9071 117.622L49.9089 117.624C50.524 118.057 51.1759 118.438 51.861 118.766L57.5203 122.075L58.7689 120.272C63.4117 120.316 68.8187 118.758 74.5903 115.427C91.8757 105.447 105.887 83.3458 105.887 66.0621C105.89 61.8872 105.073 58.3734 103.588 55.5889Z" fill="#FF9D4D"/>
<path d="M90.2184 48.4875C93.0435 48.4875 95.5739 49.086 97.7378 50.2683L97.7654 50.2831C97.8777 50.3457 97.9882 50.4083 98.1042 50.4764L104.143 53.9074L103.178 55.3015L103.003 55.5538L103.147 55.8245C104.635 58.6182 105.39 62.0621 105.39 66.0621C105.39 83.1597 91.4634 105.11 74.3455 114.992C68.9293 118.119 63.6125 119.771 58.9717 119.771C58.9072 119.771 58.8446 119.771 58.7801 119.769L58.5149 119.767L58.3639 119.987L57.3787 121.408L52.1208 118.333L52.1024 118.322L52.084 118.313C51.4247 117.996 50.7912 117.626 50.2037 117.211L50.1779 117.193C46.7009 114.732 44.5536 110.624 43.9698 105.305C43.9477 105.108 43.9275 104.907 43.9109 104.705C43.8409 103.902 43.8041 103.058 43.8041 102.198C43.8041 100.731 43.909 99.1947 44.1153 97.6293C44.1374 97.4543 44.1613 97.2794 44.1871 97.1026C44.4873 95.0381 44.968 92.8871 45.6162 90.7048C45.6641 90.5427 45.712 90.3807 45.7617 90.2186C46.3639 88.2628 47.1116 86.2573 47.9809 84.2591C48.0453 84.1063 48.1135 83.9552 48.1816 83.8024C49.0159 81.9239 49.968 80.0363 51.0103 78.1873C51.0895 78.0436 51.1705 77.9018 51.2553 77.7564C52.2866 75.9571 53.4173 74.1707 54.6181 72.447C54.712 72.3107 54.8078 72.1744 54.9054 72.0381C56.1227 70.3125 57.4265 68.6256 58.782 67.0234C58.8906 66.8945 58.9993 66.7674 59.1079 66.6385C60.5149 64.9958 61.9993 63.4157 63.5223 61.9387C63.6457 61.819 63.7691 61.7011 63.8961 61.5796C65.5223 60.0271 67.2184 58.5685 68.9348 57.2444C69.0766 57.1357 69.2203 57.0252 69.3639 56.9184C71.1613 55.5593 73.0066 54.3309 74.8464 53.2702C74.968 53.2002 75.0877 53.1321 75.2129 53.0621C75.3805 52.9663 75.5481 52.8724 75.7157 52.7803C78.1171 51.4599 80.4983 50.4286 82.793 49.7122L82.8648 49.6901C83.1171 49.6127 83.3234 49.5519 83.5168 49.4967C85.8519 48.8264 88.1079 48.4875 90.2184 48.4875ZM90.2184 47.9866C88.084 47.9866 85.7912 48.3217 83.3768 49.0124C83.1576 49.075 82.9367 49.1413 82.7138 49.2094H82.712C80.3934 49.9276 77.968 50.9663 75.4689 52.3402C75.2995 52.4341 75.13 52.528 74.9588 52.6256C74.8372 52.6937 74.7138 52.7637 74.5923 52.8337C72.7028 53.924 70.8538 55.1597 69.0564 56.517C68.9127 56.6256 68.7672 56.7361 68.6236 56.8466C66.874 58.1947 65.1779 59.6569 63.5444 61.2168C63.4192 61.3365 63.2939 61.458 63.1687 61.5796C61.6217 63.0786 60.1374 64.6624 58.723 66.3125C58.6125 66.4414 58.502 66.5704 58.3934 66.7011C57.0195 68.3273 55.7138 70.0142 54.491 71.749C54.3934 71.8853 54.2958 72.0234 54.2019 72.1615C52.9882 73.9037 51.8575 75.6919 50.817 77.5077C50.7322 77.6514 50.6512 77.7969 50.5683 77.9424C49.5168 79.8061 48.5647 81.6974 47.7194 83.598C47.6494 83.7527 47.5812 83.9055 47.5149 84.0602C46.6439 86.0621 45.8943 88.0713 45.2774 90.0694C45.2276 90.2333 45.1779 90.3991 45.1282 90.563C44.4799 92.7435 43.9919 94.9074 43.6825 97.0289C43.6567 97.2094 43.631 97.388 43.6089 97.5648C43.4008 99.1376 43.2939 100.685 43.2939 102.196C43.2939 103.077 43.3308 103.926 43.4026 104.747C43.4192 104.953 43.4394 105.158 43.4634 105.36C44.0822 110.992 46.3916 115.145 49.9072 117.62L49.909 117.622C50.5241 118.055 51.1761 118.436 51.8612 118.766L57.5205 122.075L58.7691 120.27C58.8354 120.27 58.8998 120.272 58.9661 120.272C63.5647 120.272 68.8998 118.71 74.5923 115.425C91.8759 105.447 105.889 83.3438 105.889 66.0602C105.889 61.8853 105.071 58.3715 103.587 55.5869L104.865 53.7416L98.3492 50.04C98.2276 49.9682 98.1061 49.8982 97.9809 49.83L97.9753 49.8282C95.7543 48.6146 93.1355 47.9866 90.2184 47.9866Z" fill="#FFE840"/>
<path d="M99.7556 101.94C113.569 83.5741 116.344 62.3506 105.954 54.5359C95.5642 46.7213 75.9434 55.2748 62.1299 73.6407C48.3164 92.0065 45.5412 113.23 55.9312 121.045C66.3213 128.859 85.9421 120.306 99.7556 101.94Z" fill="#FFD071"/>
<path d="M99.7556 101.94C113.569 83.5741 116.344 62.3506 105.954 54.5359C95.5642 46.7213 75.9434 55.2748 62.1299 73.6407C48.3164 92.0065 45.5412 113.23 55.9312 121.045C66.3213 128.859 85.9421 120.306 99.7556 101.94Z" fill="#FFE840"/>
<path d="M81.7431 115.136C74.4392 119.353 67.5718 120.473 62.4079 118.291C57.244 116.108 54.3987 110.884 54.3987 103.58C54.3987 96.2759 57.2421 87.7676 62.4079 79.6203C67.5718 71.4748 74.4392 64.6645 81.7431 60.449C89.0469 56.2317 95.9143 55.112 101.078 57.2943C106.242 59.4766 109.087 64.7013 109.087 72.0052C109.087 79.309 106.244 87.8173 101.078 95.9646C95.9125 104.11 89.0469 110.92 81.7431 115.136ZM81.7431 61.9536C67.4963 70.1801 55.9051 88.4637 55.9051 102.71C55.9051 116.957 67.4963 121.858 81.7431 113.631C95.9898 105.405 107.581 87.1212 107.581 72.8744C107.581 58.6276 95.9898 53.7289 81.7431 61.9536Z" fill="#FF9D4D"/>
<path d="M85.5718 83.1709V87.3385C85.4852 87.3808 85.3968 87.4287 85.3066 87.4803L83.0193 88.8007V84.9057L84.3066 84.1635C84.7651 83.8965 85.1869 83.565 85.5718 83.1709Z" fill="#D1975D"/>
<path d="M91.9679 83.7933C91.1225 83.1746 89.9734 83.0696 88.5203 83.4803C89.71 82.2685 90.6161 80.9425 91.2349 79.5005C91.8537 78.0604 92.1649 76.7197 92.1649 75.4803C92.1649 74.6939 92.0268 73.9941 91.7542 73.3771C91.4817 72.7602 91.0931 72.2943 90.594 71.9757C90.0931 71.6571 89.4853 71.5134 88.7726 71.5447C88.0581 71.576 87.2588 71.8467 86.3785 72.355L85.5737 72.821V68.7068L83.0213 70.1801V74.2943L79.9145 76.088V71.9738L77.362 73.4471V77.5613L72.804 80.193V105.559L77.362 102.928V107.198L79.9145 105.725V101.454L83.0213 99.6607V103.931L85.5737 102.458V98.1764C86.5019 97.6018 87.3841 96.9536 88.2202 96.2298C89.2091 95.3734 90.0783 94.4545 90.8279 93.4729C91.5774 92.4932 92.1686 91.4729 92.5958 90.4158C93.0249 89.3587 93.2386 88.2943 93.2386 87.2224C93.2367 85.5558 92.8132 84.4121 91.9679 83.7933ZM77.7303 81.5613L84.5185 77.6423C84.8979 77.4232 85.2478 77.2869 85.5701 77.2353C85.9144 77.1801 86.2238 77.2206 86.5001 77.355C87.036 77.6184 87.3049 78.2372 87.3049 79.2132C87.3049 80.2132 87.0139 81.1672 86.4283 82.0769C86.1668 82.4839 85.8813 82.8486 85.5682 83.169C85.1852 83.565 84.7616 83.8965 84.3012 84.1617L79.9089 86.6976L77.7284 87.9572V81.5613H77.7303ZM88.0213 90.5926C87.8537 91.0935 87.6272 91.576 87.3417 92.0383C87.0563 92.5005 86.7156 92.9296 86.3233 93.3237C86.0839 93.5631 85.8334 93.7786 85.5719 93.9701C85.4043 94.0935 85.2312 94.204 85.0563 94.3071L83.0194 95.4839L77.7321 98.5373V91.8559L79.9126 90.5963L85.3067 87.4821C85.397 87.4305 85.4854 87.3827 85.5719 87.3403C85.8979 87.1819 86.2036 87.0917 86.4854 87.0696C86.8426 87.042 87.152 87.1083 87.4154 87.2648C87.6769 87.4232 87.885 87.6663 88.0415 87.9941C88.1962 88.3219 88.2736 88.7123 88.2736 89.1653C88.2699 89.6147 88.187 90.0917 88.0213 90.5926Z" fill="#FF9D4D"/>
<path d="M84.06 57.2996L83.8095 57.7342L74.9624 52.6255C75.1337 52.5279 75.3031 52.4322 75.4725 52.3401L84.06 57.2996Z" fill="#FFE840"/>
<path d="M76.2423 60.6661L75.9918 61.1007L68.6272 56.8485C68.7708 56.738 68.9145 56.6275 69.06 56.5188L76.2423 60.6661Z" fill="#FFE840"/>
<path d="M70.7985 65.4046L70.548 65.8393L63.1724 61.5796C63.2976 61.458 63.4228 61.3383 63.548 61.2168L70.7985 65.4046Z" fill="#FFE840"/>
<path d="M65.3563 70.1412L65.1059 70.5758L58.395 66.7011C58.5037 66.5703 58.6142 66.4414 58.7247 66.3125L65.3563 70.1412Z" fill="#FFE840"/>
<path d="M62.2828 76.248L62.0323 76.6826L54.2036 72.1633C54.2994 72.0251 54.397 71.887 54.4927 71.7507L62.2828 76.248Z" fill="#FFE840"/>
<path d="M60.3067 83.027L60.0563 83.4616L50.5701 77.9441C50.6511 77.7987 50.734 77.6532 50.8187 77.5095L60.3067 83.027Z" fill="#FFE840"/>
<path d="M56.4448 88.6367L56.1943 89.0713L47.5166 84.0621C47.5829 83.9074 47.651 83.7545 47.721 83.5999L56.4448 88.6367Z" fill="#FFE840"/>
<path d="M54.9769 95.6698L54.7264 96.1044L45.1316 90.5648C45.1795 90.4009 45.2292 90.2352 45.2808 90.0713L54.9769 95.6698Z" fill="#FFE840"/>
<path d="M52.4965 102.117L52.2461 102.552L43.6125 97.5686C43.6346 97.39 43.6604 97.2114 43.6862 97.0327L52.4965 102.117Z" fill="#FFE840"/>
<path d="M52.8667 110.211L52.6162 110.646L43.467 105.364C43.4431 105.162 43.4247 104.957 43.4062 104.751L52.8667 110.211Z" fill="#FFE840"/>
<path d="M91.5756 53.7471L91.3251 54.1817L82.7156 49.2112C82.9366 49.1431 83.1576 49.0768 83.3786 49.0142L91.5756 53.7471Z" fill="#FFE840"/>
<path d="M144.857 32.0933L145.226 31.5611L143.349 30.4948C143.314 30.4745 143.279 30.4543 143.242 30.434H143.241C141.589 29.5316 139.182 29.7526 136.502 31.2996C131.522 34.1744 127.484 40.5427 127.484 45.5243C127.484 47.6145 128.195 49.1283 129.388 49.9681C129.565 50.0933 129.753 50.202 129.951 50.2977L131.581 51.2517L131.94 50.7324C133.277 50.7453 134.835 50.2959 136.498 49.3364C141.478 46.4616 145.517 40.0933 145.517 35.1117C145.52 33.9092 145.285 32.8963 144.857 32.0933Z" fill="#FF9D4D"/>
<path d="M143.752 45.4471C147.732 40.1553 148.532 34.0402 145.538 31.7885C142.544 29.5368 136.891 32.0012 132.911 37.2929C128.931 42.5847 128.131 48.6999 131.125 50.9516C134.119 53.2033 139.772 50.7388 143.752 45.4471Z" fill="#FFE840"/>
<path d="M89.1446 5.21491L89.5129 4.68268L87.6363 3.61638C87.6013 3.59613 87.5663 3.57587 87.5295 3.55561H87.5277C85.8757 2.65322 83.4687 2.87421 80.7892 4.42117C75.8094 7.29594 71.7708 13.6643 71.7708 18.6458C71.7708 20.7361 72.4816 22.2499 73.675 23.0897C73.8518 23.2149 74.0396 23.3236 74.2385 23.4193L75.8684 24.3733L76.2275 23.8539C77.5645 23.8668 79.1225 23.4175 80.7855 22.458C85.7652 19.5832 89.8039 13.2149 89.8039 8.23332C89.8076 7.03075 89.5718 6.01786 89.1446 5.21491Z" fill="#FF9D4D"/>
<path d="M88.0387 18.5704C92.0188 13.2786 92.8183 7.16345 89.8246 4.91174C86.8308 2.66004 81.1773 5.12448 77.1973 10.4162C73.2172 15.708 72.4177 21.8232 75.4114 24.0749C78.4052 26.3266 84.0587 23.8621 88.0387 18.5704Z" fill="#FFE840"/>
<path d="M150.552 96.1597L150.92 95.6275L149.042 94.5612C149.007 94.541 148.972 94.5207 148.935 94.5004H148.933C147.281 93.598 144.874 93.819 142.194 95.366C137.215 98.2408 133.176 104.609 133.176 109.591C133.176 111.681 133.887 113.195 135.08 114.035C135.257 114.16 135.445 114.268 135.644 114.364L137.274 115.318L137.633 114.799C138.97 114.812 140.528 114.362 142.191 113.403C147.17 110.528 151.209 104.16 151.209 99.1781C151.215 97.9737 150.979 96.9608 150.552 96.1597Z" fill="#FF9D4D"/>
<path d="M149.449 109.51C153.429 104.218 154.229 98.1031 151.235 95.8514C148.241 93.5997 142.588 96.0642 138.608 101.356C134.628 106.648 133.828 112.763 136.822 115.015C139.816 117.266 145.469 114.802 149.449 109.51Z" fill="#FFE840"/>
<path d="M89.1834 141.659L89.5517 141.126L87.6751 140.06C87.6401 140.04 87.6051 140.019 87.5683 139.999H87.5665C85.9145 139.097 83.5075 139.318 80.828 140.865C75.8482 143.74 71.8096 150.108 71.8096 155.089C71.8096 157.18 72.5204 158.694 73.7138 159.533C73.8906 159.659 74.0784 159.767 74.2773 159.863L75.9072 160.817L76.2663 160.298C77.6033 160.31 79.1613 159.861 80.8243 158.902C85.804 156.027 89.8427 149.659 89.8427 144.677C89.8464 143.473 89.6107 142.46 89.1834 141.659Z" fill="#FF9D4D"/>
<path d="M88.0812 155.011C92.0613 149.72 92.8608 143.604 89.867 141.353C86.8732 139.101 81.2198 141.565 77.2398 146.857C73.2597 152.149 72.4601 158.264 75.4539 160.516C78.4477 162.767 84.1011 160.303 88.0812 155.011Z" fill="#FFE840"/>
<path d="M33.2862 122.537L33.6545 122.005L31.7779 120.939C31.7429 120.919 31.7079 120.898 31.6711 120.878H31.6693C30.0173 119.976 27.6103 120.197 24.9308 121.744C19.951 124.618 15.9124 130.987 15.9124 135.968C15.9124 138.059 16.6232 139.572 17.8166 140.412C17.9934 140.537 18.1812 140.646 18.3801 140.742L20.01 141.696L20.3691 141.176C21.7061 141.189 23.2641 140.74 24.9271 139.781C29.9068 136.906 33.9455 130.537 33.9455 125.556C33.9492 124.353 33.7135 123.34 33.2862 122.537Z" fill="#FF9D4D"/>
<path d="M32.1852 135.893C36.1653 130.601 36.9648 124.486 33.971 122.234C30.9773 119.983 25.3238 122.447 21.3438 127.739C17.3637 133.03 16.5641 139.146 19.5579 141.397C22.5517 143.649 28.2051 141.185 32.1852 135.893Z" fill="#FFE840"/>
<path d="M19.447 67.9295L19.8153 67.3973L17.9387 66.331C17.9037 66.3107 17.8687 66.2905 17.8319 66.2702H17.83C16.1781 65.3678 13.7711 65.5888 11.0915 67.1358C6.11178 70.0124 2.07495 76.3807 2.07495 81.3604C2.07495 83.4507 2.78582 84.9645 3.97919 85.8043C4.15598 85.9295 4.34383 86.0382 4.54272 86.1339L6.17256 87.0879L6.53167 86.5685C7.86869 86.5814 9.4267 86.1321 11.0897 85.1726C16.0694 82.2978 20.1081 75.9295 20.1081 70.9479C20.1099 69.7453 19.8742 68.7325 19.447 67.9295Z" fill="#FF9D4D"/>
<path d="M18.3446 81.2855C22.3247 75.9937 23.1243 69.8785 20.1305 67.6268C17.1367 65.3751 11.4833 67.8396 7.50319 73.1313C3.52312 78.4231 2.72357 84.5383 5.71736 86.79C8.71114 89.0417 14.3646 86.5772 18.3446 81.2855Z" fill="#FFE840"/>
<path d="M38.9073 32.0933L39.2756 31.5611L37.399 30.4948C37.364 30.4745 37.329 30.4543 37.2922 30.434H37.2903C35.6384 29.5316 33.2314 29.7526 30.5519 31.2996C25.5721 34.1744 21.5334 40.5427 21.5334 45.5243C21.5334 47.6145 22.2443 49.1283 23.4377 49.9681C23.6145 50.0933 23.8023 50.202 24.0012 50.2977L25.6311 51.2517L25.9902 50.7324C27.3272 50.7453 28.8852 50.2959 30.5482 49.3364C35.5279 46.4616 39.5666 40.0933 39.5666 35.1117C39.5703 33.9092 39.3345 32.8963 38.9073 32.0933Z" fill="#FF9D4D"/>
<path d="M37.8019 45.4493C41.782 40.1575 42.5815 34.0424 39.5877 31.7906C36.594 29.5389 30.9405 32.0034 26.9605 37.2951C22.9804 42.5869 22.1808 48.7021 25.1746 50.9538C28.1684 53.2055 33.8218 50.741 37.8019 45.4493Z" fill="#FFE840"/>
<defs>
<filter id="filter0_f" x="11.8911" y="111.842" width="140.367" height="89.6515" filterUnits="userSpaceOnUse" color-interpolation-filters="sRGB">
<feFlood flood-opacity="0" result="BackgroundImageFix"/>
<feBlend mode="normal" in="SourceGraphic" in2="BackgroundImageFix" result="shape"/>
<feGaussianBlur stdDeviation="5.0918" result="effect1_foregroundBlur"/>
</filter>
</defs>
</svg>
