<svg width="583" height="182" viewBox="0 0 583 182" fill="none" xmlns="http://www.w3.org/2000/svg">
<g opacity="0.2">
<path fill-rule="evenodd" clip-rule="evenodd" d="M-34.2284 117.707C-34.2284 117.707 6.77423 50.0503 101.31 90.7301C309.751 180.424 234.656 99.5753 346.728 100.21C441.236 100.746 455.028 38.6636 494.898 47.9341C598.946 72.127 610.628 0.0253906 610.628 0.0253906L619 189.025H-55V120.785L-34.2284 117.707Z" fill="#0F816C" style="mix-blend-mode:screen"/>
<path fill-rule="evenodd" clip-rule="evenodd" d="M-16.29 122.727C-16.29 122.727 33.4793 103.125 105.106 109.659C176.734 116.193 170.286 127.844 210.015 129.74C249.744 131.637 283.219 116.519 333.184 116.519C383.148 116.519 395.039 142.84 481.598 150.846C568.157 158.852 618.122 142.84 618.122 142.84L633.152 189.95L-16.29 202.025L-28 129.74L-16.29 122.727Z" fill="#1A0202"/>
</g>
</svg>
