<svg width="156" height="30" viewBox="0 0 156 30" fill="none" xmlns="http://www.w3.org/2000/svg">
<path d="M45.5469 10.9961H41.5566V22H39.3506V10.9961H35.3955V9.20312H45.5469V10.9961ZM50.4248 22.1758C49.0713 22.1758 47.9727 21.751 47.1289 20.9014C46.291 20.0459 45.8721 18.9092 45.8721 17.4912V17.2275C45.8721 16.2783 46.0537 15.4316 46.417 14.6875C46.7861 13.9375 47.3018 13.3545 47.9639 12.9385C48.626 12.5225 49.3643 12.3145 50.1787 12.3145C51.4736 12.3145 52.4727 12.7275 53.1758 13.5537C53.8848 14.3799 54.2393 15.5488 54.2393 17.0605V17.9219H48.0254C48.0898 18.707 48.3506 19.3281 48.8076 19.7852C49.2705 20.2422 49.8506 20.4707 50.5479 20.4707C51.5264 20.4707 52.3232 20.0752 52.9385 19.2842L54.0898 20.3828C53.709 20.9512 53.1992 21.3936 52.5605 21.71C51.9277 22.0205 51.2158 22.1758 50.4248 22.1758ZM50.1699 14.0283C49.584 14.0283 49.1094 14.2334 48.7461 14.6436C48.3887 15.0537 48.1602 15.625 48.0605 16.3574H52.1299V16.1992C52.083 15.4844 51.8926 14.9453 51.5586 14.582C51.2246 14.2129 50.7617 14.0283 50.1699 14.0283ZM58.5811 10.1787V12.4902H60.2598V14.0723H58.5811V19.3809C58.5811 19.7441 58.6514 20.0078 58.792 20.1719C58.9385 20.3301 59.1963 20.4092 59.5654 20.4092C59.8115 20.4092 60.0605 20.3799 60.3125 20.3213V21.9736C59.8262 22.1084 59.3574 22.1758 58.9062 22.1758C57.2656 22.1758 56.4453 21.2705 56.4453 19.46V14.0723H54.8809V12.4902H56.4453V10.1787H58.5811ZM64.0039 13.5273C64.7012 12.7188 65.583 12.3145 66.6494 12.3145C68.6768 12.3145 69.7051 13.4717 69.7344 15.7861V22H67.5986V15.8652C67.5986 15.209 67.4551 14.7461 67.168 14.4766C66.8867 14.2012 66.4707 14.0635 65.9199 14.0635C65.0645 14.0635 64.4258 14.4443 64.0039 15.2061V22H61.8682V8.5H64.0039V13.5273ZM76.0889 22.1758C74.7354 22.1758 73.6367 21.751 72.793 20.9014C71.9551 20.0459 71.5361 18.9092 71.5361 17.4912V17.2275C71.5361 16.2783 71.7178 15.4316 72.0811 14.6875C72.4502 13.9375 72.9658 13.3545 73.6279 12.9385C74.29 12.5225 75.0283 12.3145 75.8428 12.3145C77.1377 12.3145 78.1367 12.7275 78.8398 13.5537C79.5488 14.3799 79.9033 15.5488 79.9033 17.0605V17.9219H73.6895C73.7539 18.707 74.0146 19.3281 74.4717 19.7852C74.9346 20.2422 75.5146 20.4707 76.2119 20.4707C77.1904 20.4707 77.9873 20.0752 78.6025 19.2842L79.7539 20.3828C79.373 20.9512 78.8633 21.3936 78.2246 21.71C77.5918 22.0205 76.8799 22.1758 76.0889 22.1758ZM75.834 14.0283C75.248 14.0283 74.7734 14.2334 74.4102 14.6436C74.0527 15.0537 73.8242 15.625 73.7246 16.3574H77.7939V16.1992C77.7471 15.4844 77.5566 14.9453 77.2227 14.582C76.8887 14.2129 76.4258 14.0283 75.834 14.0283ZM86.5479 14.4414C86.2666 14.3945 85.9766 14.3711 85.6777 14.3711C84.6992 14.3711 84.04 14.7461 83.7002 15.4961V22H81.5645V12.4902H83.6035L83.6562 13.5537C84.1719 12.7275 84.8867 12.3145 85.8008 12.3145C86.1055 12.3145 86.3574 12.3555 86.5566 12.4375L86.5479 14.4414ZM92.4102 16.7969C92.4102 15.4434 92.5918 14.1602 92.9551 12.9473C93.3184 11.7285 93.8516 10.6416 94.5547 9.68652C95.2578 8.72559 96.002 8.05176 96.7871 7.66504L97.209 8.91309C96.3828 9.54004 95.7119 10.498 95.1963 11.7871C94.6865 13.0703 94.4082 14.541 94.3613 16.1992L94.3525 16.9551C94.3525 18.7305 94.6016 20.3154 95.0996 21.71C95.6035 23.0986 96.3066 24.1562 97.209 24.8828L96.7871 26.0693C96.002 25.6826 95.2549 25.0059 94.5459 24.0391C93.8428 23.0781 93.3096 21.9941 92.9463 20.7871C92.5889 19.5742 92.4102 18.2441 92.4102 16.7969ZM108.222 9.20312V17.7549C108.222 19.1143 107.785 20.1924 106.912 20.9893C106.045 21.7803 104.888 22.1758 103.44 22.1758C101.976 22.1758 100.812 21.7861 99.9512 21.0068C99.0898 20.2217 98.6592 19.1348 98.6592 17.7461V9.20312H100.874V17.7637C100.874 18.6191 101.091 19.2725 101.524 19.7236C101.958 20.1748 102.597 20.4004 103.44 20.4004C105.151 20.4004 106.007 19.498 106.007 17.6934V9.20312H108.222ZM117.292 18.7041C117.292 18.1416 117.093 17.708 116.694 17.4033C116.302 17.0986 115.59 16.791 114.559 16.4805C113.527 16.1699 112.707 15.8242 112.098 15.4434C110.932 14.7109 110.349 13.7559 110.349 12.5781C110.349 11.5469 110.768 10.6973 111.605 10.0293C112.449 9.36133 113.542 9.02734 114.884 9.02734C115.774 9.02734 116.568 9.19141 117.266 9.51953C117.963 9.84766 118.511 10.3164 118.909 10.9258C119.308 11.5293 119.507 12.2002 119.507 12.9385H117.292C117.292 12.2705 117.081 11.749 116.659 11.374C116.243 10.9932 115.646 10.8027 114.866 10.8027C114.14 10.8027 113.574 10.958 113.17 11.2686C112.771 11.5791 112.572 12.0127 112.572 12.5693C112.572 13.0381 112.789 13.4307 113.223 13.7471C113.656 14.0576 114.371 14.3623 115.367 14.6611C116.363 14.9541 117.163 15.291 117.767 15.6719C118.37 16.0469 118.812 16.4805 119.094 16.9727C119.375 17.459 119.516 18.0303 119.516 18.6865C119.516 19.7529 119.105 20.6025 118.285 21.2354C117.471 21.8623 116.363 22.1758 114.963 22.1758C114.037 22.1758 113.185 22.0059 112.405 21.666C111.632 21.3203 111.028 20.8457 110.595 20.2422C110.167 19.6387 109.953 18.9355 109.953 18.1328H112.177C112.177 18.8594 112.417 19.4219 112.897 19.8203C113.378 20.2188 114.066 20.418 114.963 20.418C115.736 20.418 116.316 20.2627 116.703 19.9521C117.096 19.6357 117.292 19.2197 117.292 18.7041ZM121.467 22V9.20312H125.246C126.377 9.20312 127.379 9.45508 128.252 9.95898C129.131 10.4629 129.811 11.1777 130.291 12.1035C130.771 13.0293 131.012 14.0898 131.012 15.2852V15.9268C131.012 17.1396 130.769 18.2061 130.282 19.126C129.802 20.0459 129.113 20.7549 128.217 21.2529C127.326 21.751 126.304 22 125.149 22H121.467ZM123.69 10.9961V20.2246H125.141C126.307 20.2246 127.2 19.8613 127.821 19.1348C128.448 18.4023 128.768 17.3535 128.779 15.9883V15.2764C128.779 13.8877 128.478 12.8271 127.874 12.0947C127.271 11.3623 126.395 10.9961 125.246 10.9961H123.69ZM141.717 10.9961H137.727V22H135.521V10.9961H131.565V9.20312H141.717V10.9961ZM147.315 16.9375C147.315 18.2383 147.137 19.4951 146.779 20.708C146.422 21.915 145.88 23.0137 145.153 24.0039C144.427 25 143.668 25.6885 142.877 26.0693L142.455 24.8828C143.334 24.2031 144.028 23.166 144.538 21.7715C145.054 20.3711 145.312 18.7744 145.312 16.9814V16.7793C145.312 15.1504 145.089 13.668 144.644 12.332C144.198 10.9902 143.56 9.91504 142.728 9.10645L142.455 8.86035L142.877 7.66504C143.627 8.02832 144.354 8.67285 145.057 9.59863C145.76 10.5244 146.299 11.5615 146.674 12.71C147.049 13.8525 147.26 15.0332 147.307 16.252L147.315 16.9375Z" fill="white"/>
<path d="M15 30C23.2843 30 30 23.2843 30 15C30 6.71573 23.2843 0 15 0C6.71573 0 0 6.71573 0 15C0 23.2843 6.71573 30 15 30Z" fill="#5DE1C4"/>
<path d="M22.1217 1.79541C23.649 4.1449 24.537 6.94832 24.537 9.95951C24.537 18.2438 17.8213 24.9595 9.53699 24.9595C6.95945 24.9595 4.5339 24.3091 2.41504 23.1638C5.08972 27.2783 9.72665 29.9997 14.9998 29.9997C23.2841 29.9997 29.9998 23.284 29.9998 14.9997C29.9998 9.29307 26.8128 4.33094 22.1217 1.79541Z" fill="#0ED2B3"/>
<path d="M14.9999 28.0614C22.2135 28.0614 28.0613 22.2136 28.0613 15C28.0613 7.78634 22.2135 1.93854 14.9999 1.93854C7.78628 1.93854 1.93848 7.78634 1.93848 15C1.93848 22.2136 7.78628 28.0614 14.9999 28.0614Z" fill="#D8F6EF"/>
<path d="M23.8197 5.36676C24.2849 6.81444 24.5371 8.35756 24.5371 9.95981C24.5371 18.2441 17.8213 24.9598 9.53707 24.9598C8.35682 24.9598 7.20861 24.823 6.10693 24.5653C8.43879 26.7342 11.5641 28.0615 14.9999 28.0615C22.2135 28.0615 28.0613 22.2136 28.0613 15C28.0613 11.1863 26.4264 7.75463 23.8197 5.36676Z" fill="#C6F2E7"/>
<path d="M19.425 7.85014H15.0383C15.0361 7.85014 15.0339 7.84979 15.0317 7.84979C15.0295 7.84979 15.0274 7.85009 15.0252 7.85014H10.6385C10.0146 7.85014 9.50879 8.35915 9.50879 8.98704C9.50879 9.61493 10.0146 10.1239 10.6385 10.1239H13.902V21.0138C13.902 21.6416 14.4078 22.1507 15.0317 22.1507C15.6556 22.1507 16.1614 21.6416 16.1614 21.0138V10.1239H19.425C20.0489 10.1239 20.5546 9.61493 20.5546 8.98704C20.5546 8.35915 20.0488 7.85014 19.425 7.85014Z" fill="#5DE1C4"/>
<path d="M14.9999 16.4332C13.3245 16.4332 11.7437 16.2441 10.5485 15.9007C9.14191 15.4965 8.42871 14.9318 8.42871 14.2223C8.42871 13.4625 9.28477 12.8493 10.9044 12.4491C11.1469 12.3892 11.3924 12.5373 11.4524 12.78C11.5124 13.0227 11.3643 13.2681 11.1215 13.3281C9.6375 13.6948 9.33416 14.1267 9.33416 14.2223C9.33416 14.3487 9.69211 14.7125 10.7985 15.0304C11.9146 15.3511 13.4067 15.5278 14.9999 15.5278C16.5932 15.5278 18.0853 15.3511 19.2014 15.0304C20.3078 14.7124 20.6657 14.3487 20.6657 14.2223C20.6657 14.1301 20.376 13.7115 18.9584 13.3483C18.7163 13.2862 18.5702 13.0395 18.6323 12.7974C18.6944 12.5551 18.9411 12.4092 19.1833 12.4712C20.7454 12.8716 21.5712 13.4771 21.5712 14.2224C21.5712 14.9319 20.858 15.4965 19.4514 15.9007C18.2562 16.2441 16.6754 16.4332 14.9999 16.4332Z" fill="#5DE1C4"/>
</svg>
