<svg xmlns="http://www.w3.org/2000/svg" width="822.832" height="372.871" viewBox="0 0 822.832 372.871">
  <g id="coupon" transform="translate(203 0.5)">
    <path id="Union_3" data-name="Union 3" d="M683.806,371.872v-50.71a17.257,17.257,0,0,0-34.506,0v50.71H250.173a17.64,17.64,0,0,1-4.438-.563H7a7,7,0,0,1-7-7V7.564a7,7,0,0,1,7-7H245.735A17.644,17.644,0,0,1,250.173,0H647.867v50.71a17.257,17.257,0,0,0,34.507,0V0H804.579a17.071,17.071,0,0,1,17.253,16.9V118.323a17.071,17.071,0,0,1-17.253,16.9c-28.542,0-51.76,22.747-51.76,50.71s23.218,50.71,51.76,50.71a17.071,17.071,0,0,1,17.253,16.9V354.968a17.071,17.071,0,0,1-17.253,16.9ZM649.3,219.742v33.807a17.257,17.257,0,0,0,34.506,0V219.742a17.257,17.257,0,0,0-34.506,0Zm0-101.419V152.13a17.257,17.257,0,0,0,34.506,0V118.323a17.257,17.257,0,0,0-34.506,0Z" transform="translate(-202.5 0)" fill="#222a3d" stroke="#707070" stroke-width="1"/>
  </g>
</svg>
